M48
;Layer_Color=9474304
;FILE_FORMAT=4:4
METRIC,LZ
;TYPE=PLATED
T01F00S00C0.3048
T02F00S00C0.4000
T04F00S00C0.8890
;TYPE=NON_PLATED
T05F00S00C0.7500
T07F00S00C0.9906
T08F00S00C3.0480
%
T01
X00075Y00025
X00081Y0003
X000695Y000315
X00094Y00027
X00072Y00059
X00076Y00073
Y00082
X000695Y000925
X00071Y00111
X000695Y001325
X000805Y001325
X000915
Y001005
X00084Y001
X001025Y001005
X001135
X00125Y001
X00141Y00101
X001415Y001095
X0015Y00118
X00163Y00131
X0018Y00134
X00184Y00146
X00187Y00159
X00166Y00163
X00146Y00169
X00133Y00082
Y00071
X00135Y00056
X00142Y00061
X00148Y00047
X00153Y00031
X00165Y00034
X00186Y0003
X00202Y00036
Y00044
Y00052
Y0006
Y00073
X00214
X00222Y00074
X00221Y00086
X00202Y00085
X00178Y00086
X00175Y00077
X0022Y00063
Y00055
X00248Y00062
Y00086
X0026Y00115
X00275Y00109
X00279Y00142
X00292
X00266
X00314Y00155
X00344Y00156
X00335Y00174
X00326Y00175
X00384Y00177
X00389Y00161
X00406Y00175
X00445Y00155
X00453Y00124
Y00115
X00472
X00477Y0011
X00472Y00105
X00482
Y00115
X0047Y00132
X00426
X0041Y00092
X00401
X00393
Y00084
Y00076
X00382Y00093
X00381Y0012
X00372Y00137
X00459Y0009
Y00083
X00466
Y0009
Y00075
X00459
X00464Y00059
X00209Y00104
X00119Y0003
X00106Y00028
X00576Y00034
X00589Y00101
X00597
Y0011
X00589
Y00119
X00597
X00576Y00149
X00567
X00559
X00543Y00151
X00536
Y00143
X00543
Y00135
X00536
X00498Y00126
X00633Y00062
X00616Y004235
X00606
Y004335
X00616
X00615Y00471
X00607
X00611Y00487
X00571Y00496
X00562Y004875
X005506Y004954
X0053Y00495
X00529Y004705
X00539
X00549
X00571Y004595
X00579Y0045975
X00587Y004595
X00529Y004505
X00519
Y004405
X00529
X00507436Y00444
Y00434
X00497436
Y00444
X00519436Y00415
Y00405
X00529436
Y00415
X00539436
Y00405
Y00395
X00529436
X00519436
X00515Y0057
X00551Y0055
X00584Y00565
X00487436Y00444
Y00434
X00477436
Y00444
X00467436
X00457436
Y00434
X00467436
X00399Y00431
X00389
X00379
X00369
X00359
X00349
X00339
Y00441
X00338Y00449
X00349Y00441
X00359
X00369
X00379
X00389
X00399
X00378Y00389
Y00383
Y00377
Y00371
Y00365
X00371Y00365
Y00371
X00370999Y00377001
X00371Y00383
Y00389
X00364
Y00383
Y00377
Y00371
Y00365
X00393Y00353
X0038Y00321
X0037
X0036
X0035
X0034
X0033
Y00311
X0034
X0035
X0036
X0037
X0038
X003775Y002625
X00356Y00227
Y0022
X00348
Y00227
X0034
Y0022
X00333
Y00227
X00325
Y0022
X00316Y00221
Y00228
X00308
Y00221
X003
Y00228
X00293
Y00221
X00285
Y00228
X00272Y00223
Y00216
Y00209
X00259Y00216
X00236Y00207
X00224Y00192
X00213Y00201
X00229Y00227
X00214Y00249
X0021375Y0027875
X0023Y00277
X00243
X00263Y00279
X00272Y00297
X00269Y00316
X00259
Y00326
X00269
X00279
Y00316
X00289
Y00326
X00243Y00317
X00231
X0023Y00304
X00243Y00305
X0024Y00356
Y00365
Y00374
Y00383
X0025
Y00374
Y00365
Y00356
X00201Y00358
X00199Y0034
X002125Y0033
X00189Y00322
Y00298
Y00288
X001725Y002775
X00168Y00299
X00148Y00298
X00138
X001375Y003175
X00135Y00341
X00152Y0034
X001675Y003425
X0017Y00335
X0018Y00358
X00143Y0036
X00136Y00264
X00152Y00263
X00164Y00258
X00179Y00242
Y00212
X00164Y00193
X00196Y00266
X00286Y00263
X00289Y0018
X00297
X00306
X00281Y001795
X0036Y00192
X00368Y00197
X00432Y00193
X00444
Y00181
X00431Y0018
X004675Y00275
Y002875
Y003
Y003125
X00325Y00409
X00315
X00305
X00295
X00285
X00275
Y00419
X00285
X00295
X00305
X00315
X00325
X00319Y00447
X00306
X00293
X00265Y00419
Y00409
X00216Y00447
Y00458
Y00468
Y00479
X00195Y00485
Y00462
Y00453
X0017Y00465
X00175Y00473
X00165Y00487
Y00497
X00157Y00492
X00149Y00497
Y00487
X00148Y00465
X001575Y004625
X00128Y00453
X0011Y00452
Y00433
X001006Y004966
X001206Y004966
X001425Y00515
X00151
X00135Y005225
X00138Y00536
X00178Y00495
X002575
X00285Y00518
X00288Y00536
X00294Y00545
X00287Y00565
X00297Y005735
X00304
X00311
X00311436Y00565925
X00311Y00558
X00322Y00549
X00329Y00545
X00337132Y00545868
X0033475Y00564
X0034125
X00348
Y00571
X0034125
X0033475
X00328
Y00564
X00357Y00554
X00365Y0056
X00352Y00527
X00334
X00317
X00352Y00501
X0036Y005075
X003675Y005
X00372Y00513
X000806Y004966
X00047Y00459
X00076Y00618
Y00628
Y00637
X0006Y00635
X00092Y00641
Y00628
X00088Y00612
X00076Y00677
X00077Y00692
X00065
X00045
X00033
X00055Y00717
X000825Y00735
X00037Y00745
Y00755
X00103Y00727
X00111
X00121
X00129
X00122Y00661
X00136
X00142Y00654
X00152Y00649
X00148Y00631
X00155Y00624
X00122Y00628
X00104
X00098Y00634
X00104Y00641
X00103Y00661
X00112Y00604
X00293Y006
X00312074Y00599926
X00312Y00591
X00311Y00582
X00304
X00297
X00328Y00585
X0033475
X0034125
X00348
Y00578
X0034125
X0033475
X00328
X00328329Y00595
X00333Y00599
X00338Y00595
X00343Y00599
X00348Y00595
Y00604
X00338
X00328
X00326Y0062
Y00626
X00325969Y00632161
X00326Y00638
X00333
Y00632
Y00626
Y0062
X00342
Y00626
Y00632
Y00638
X00348Y00631
X00354
X0036
X00372
X00368Y00657
Y00664
X00376
X00359Y00657
X00351Y00681
X00356Y00698
X00342Y00697
X0033Y00696
X00322
X00312Y00698
X00301
X00282Y00706
X00275
X00268
X0027Y0069
X0028
X00279Y00674
X00271
X00285Y00646
X00299Y00651
X003Y0066
X0029575Y00634
X00312Y00609
X00366Y00606
X00365Y00586
Y00578
X00333Y00667
X00335Y0069
X00317Y0068
X00489Y0069
Y0062
X00515Y00625
X00514Y00637
X00511Y00646
X00530312Y00646688
X00528312Y00668688
X00537313
Y00663688
X00543312
Y00668688
Y00680688
Y00685688
X00537313
Y00680688
X00528312Y00681688
X00525312Y00674688
X00532313
X00509313Y00675688
Y00682688
X00522313Y00702688
X00538312Y00701688
X00556437Y00700813
X00546312Y00719688
X00517313Y00720688
X00518312Y00730687
Y00739687
Y00748688
X00526Y00753
Y00762
X00532Y00767
X00546Y00768
X00553
X0056
X00567
X00574Y00764
X00563Y00759
X00601312Y00750687
Y00741687
Y00732688
Y00723688
Y00714688
X00597313Y00699688
Y00692688
X00590312
Y00661688
X00597313
Y00653688
X00601312Y00642688
Y00633688
Y00624688
Y00616688
Y00608688
Y00600687
X00563Y00603
Y00612
Y0062
Y00628
X00573Y00632
X00558312Y00647688
X00550312Y00613688
Y00606688
Y00599688
Y00592688
X00542313
Y00599688
Y00606688
X00533312Y00613688
X00526312
Y00605688
Y00597688
X00503Y006
X00501Y00658
T02
X002977Y00721
X003017Y00728
X003097
X003177
X003137Y00721
X003217
X003297
X003377
X003417Y00728
X003337
X003497
X003537Y00721
T04
X00282658Y0005975
X00302658
X00322658
X00342658
X00362658
X00418Y00455
Y00475
X00233Y00475
Y00455
T05
X002897Y007145
T07
X002533Y0012735
X003041Y0011719
Y0013751
X002174Y0021684
Y0023716
X001666Y00227
X0007116Y004336
X0005084
X00061Y004844
T08
X0053213Y0021082
X0011938
X00195897Y0071882
X00455612
M30
