G04*
G04 #@! TF.GenerationSoftware,Altium Limited,Altium Designer,24.9.1 (31)*
G04*
G04 Layer_Color=8388736*
%FSLAX44Y44*%
%MOMM*%
G71*
G04*
G04 #@! TF.SameCoordinates,1259BD5C-C6F3-40BD-8840-5C3A0C5864AA*
G04*
G04*
G04 #@! TF.FilePolarity,Negative*
G04*
G01*
G75*
%ADD17C,0.2540*%
%ADD73C,0.9144*%
%ADD74R,0.7270X0.7270*%
%ADD75R,1.7770X1.0770*%
%ADD76R,0.4770X0.6070*%
%ADD77R,0.7270X1.0270*%
%ADD78R,1.1270X1.0770*%
%ADD79R,0.7270X0.7270*%
%ADD80R,6.3770X6.9270*%
%ADD81R,1.6270X3.1270*%
%ADD82C,0.8890*%
%ADD83R,0.3270X0.7270*%
%ADD84R,0.7270X0.3270*%
%ADD85R,0.3270X0.5270*%
%ADD86R,0.5270X0.3270*%
%ADD87R,2.7770X2.8470*%
%ADD88R,2.7770X1.6570*%
%ADD89R,1.5270X2.6270*%
%ADD90R,2.0269X2.0269*%
%ADD91R,2.1270X0.7270*%
%ADD92R,3.4270X3.3020*%
%ADD93R,0.8334X0.3310*%
%ADD94R,1.8288X2.5146*%
%ADD95R,1.2770X1.5770*%
%ADD96R,0.4000X0.7700*%
%ADD97R,1.9270X1.2770*%
%ADD98R,1.0770X1.1270*%
%ADD99R,3.0500X2.0500*%
%ADD100R,0.7016X0.3416*%
%ADD101R,0.3416X0.7016*%
%ADD102R,2.8470X1.6570*%
%ADD103R,1.2770X1.9270*%
%ADD104R,1.6570X2.8470*%
%ADD105R,0.9270X1.0270*%
%ADD106R,3.4290X2.3876*%
%ADD107R,1.3770X1.3770*%
%ADD108R,0.4270X0.5770*%
%ADD109R,1.7270X1.1270*%
%ADD110R,1.6770X1.4270*%
%ADD111R,3.5570X4.8270*%
%ADD112R,0.6270X1.1326*%
%ADD113C,0.2200*%
G04:AMPARAMS|DCode=114|XSize=1.6092mm|YSize=0.8165mm|CornerRadius=0.4082mm|HoleSize=0mm|Usage=FLASHONLY|Rotation=0.000|XOffset=0mm|YOffset=0mm|HoleType=Round|Shape=RoundedRectangle|*
%AMROUNDEDRECTD114*
21,1,1.6092,0.0000,0,0,0.0*
21,1,0.7928,0.8165,0,0,0.0*
1,1,0.8165,0.3964,0.0000*
1,1,0.8165,-0.3964,0.0000*
1,1,0.8165,-0.3964,0.0000*
1,1,0.8165,0.3964,0.0000*
%
%ADD114ROUNDEDRECTD114*%
%ADD115R,1.6092X0.8165*%
%ADD116R,1.1270X1.9270*%
%ADD117R,1.1270X1.0270*%
%ADD118R,1.7270X3.1270*%
%ADD119R,2.6370X2.6770*%
%ADD120R,0.8270X0.5270*%
%ADD121R,0.6270X0.4770*%
%ADD122R,2.6270X2.0270*%
%ADD123R,1.0500X0.3000*%
%ADD124R,1.1000X0.3000*%
%ADD125C,0.2750*%
%ADD126R,0.3000X0.7000*%
%ADD127R,0.3000X0.7800*%
%ADD128R,0.3000X0.7500*%
%ADD129R,0.3000X0.8000*%
%ADD130R,0.7000X0.3000*%
%ADD131C,0.2575*%
%ADD132C,0.2916*%
%ADD133R,0.9270X2.1270*%
%ADD134C,2.1430*%
%ADD135C,1.1176*%
%ADD136C,2.5019*%
%ADD137C,5.1270*%
%ADD138C,1.3970*%
%ADD139C,0.8770*%
%ADD140O,1.0770X0.8770*%
%ADD141C,0.7770*%
%ADD142O,1.2270X2.3270*%
%ADD143C,3.3020*%
%ADD144C,5.2070*%
%ADD145C,3.1750*%
G36*
X356808Y867424D02*
X356108Y866724D01*
X348808D01*
Y869124D01*
X349408Y869724D01*
X353808D01*
X353808Y876124D01*
X354408Y876724D01*
X356808D01*
Y867424D01*
D02*
G37*
G36*
X388808Y875924D02*
Y869224D01*
X393108Y869224D01*
X393808Y868524D01*
Y866924D01*
X393108Y866224D01*
X386508Y866224D01*
X385808Y866924D01*
X385808Y876724D01*
X388008D01*
X388808Y875924D01*
D02*
G37*
G36*
X356008Y841724D02*
X356808Y840924D01*
X356808Y831724D01*
X354508D01*
X353808Y832424D01*
Y838724D01*
X349608Y838724D01*
X348808Y839524D01*
X348808Y841724D01*
X356008Y841724D01*
D02*
G37*
G36*
X393808Y841624D02*
Y839924D01*
X393108Y839224D01*
X388808D01*
Y832424D01*
X388108Y831724D01*
X385808D01*
X385808Y841524D01*
X386508Y842224D01*
X393208Y842224D01*
X393808Y841624D01*
D02*
G37*
G36*
X263020Y445376D02*
Y440376D01*
X262520Y439876D01*
X251990D01*
X251490Y440376D01*
Y442876D01*
X251490Y445376D01*
X251990Y445876D01*
X252990Y445876D01*
X253490Y445376D01*
X253490Y443126D01*
X253990Y442626D01*
X255490D01*
X255990Y443126D01*
Y445376D01*
X256490Y445876D01*
X257490Y445876D01*
X257990Y445376D01*
X257990Y443126D01*
X258490Y442626D01*
X259990D01*
X260490Y443126D01*
Y445376D01*
X260990Y445876D01*
X262520Y445876D01*
X263020Y445376D01*
D02*
G37*
G36*
X248990Y445876D02*
X249490Y445376D01*
X249490Y442876D01*
Y440376D01*
X248990Y439876D01*
X238460D01*
X237960Y440376D01*
Y445376D01*
X238460Y445876D01*
X239990Y445876D01*
X240490Y445376D01*
Y443126D01*
X240990Y442626D01*
X242490D01*
X242990Y443126D01*
X242990Y445376D01*
X243490Y445876D01*
X244490Y445876D01*
X244990Y445376D01*
Y443126D01*
X245490Y442626D01*
X246990D01*
X247490Y443126D01*
Y445376D01*
X247990Y445876D01*
X248990Y445876D01*
D02*
G37*
G36*
X272990Y438376D02*
Y437376D01*
X271990Y436376D01*
X266990D01*
X265990Y437376D01*
Y438376D01*
X266990Y439376D01*
X271990D01*
X272990Y438376D01*
D02*
G37*
G36*
X234990D02*
Y437376D01*
X233990Y436376D01*
X228990D01*
X227990Y437376D01*
Y438376D01*
X228990Y439376D01*
X233990D01*
X234990Y438376D01*
D02*
G37*
G36*
X272990Y434376D02*
Y433376D01*
X271990Y432376D01*
X266990D01*
X265990Y433376D01*
Y434376D01*
X266990Y435376D01*
X271990D01*
X272990Y434376D01*
D02*
G37*
G36*
X234990D02*
Y433376D01*
X233990Y432376D01*
X228990D01*
X227990Y433376D01*
Y434376D01*
X228990Y435376D01*
X233990D01*
X234990Y434376D01*
D02*
G37*
G36*
X272990Y430376D02*
Y429376D01*
X271990Y428376D01*
X266990D01*
X265990Y429376D01*
Y430376D01*
X266990Y431376D01*
X271990D01*
X272990Y430376D01*
D02*
G37*
G36*
X234990D02*
Y429376D01*
X233990Y428376D01*
X228990D01*
X227990Y429376D01*
Y430376D01*
X228990Y431376D01*
X233990D01*
X234990Y430376D01*
D02*
G37*
G36*
X272990Y426376D02*
Y425376D01*
X271990Y424376D01*
X266990D01*
X265990Y425376D01*
Y426376D01*
X266990Y427376D01*
X271990D01*
X272990Y426376D01*
D02*
G37*
G36*
X234990D02*
Y425376D01*
X233990Y424376D01*
X228990D01*
X227990Y425376D01*
Y426376D01*
X228990Y427376D01*
X233990D01*
X234990Y426376D01*
D02*
G37*
G36*
X264240Y436626D02*
Y422326D01*
X263240Y421326D01*
X237740D01*
X236740Y422326D01*
Y436626D01*
X237740Y437626D01*
X263240D01*
X264240Y436626D01*
D02*
G37*
G36*
X272990Y422376D02*
Y421376D01*
X271990Y420376D01*
X266990D01*
X265990Y421376D01*
Y422376D01*
X266990Y423376D01*
X271990D01*
X272990Y422376D01*
D02*
G37*
G36*
X234990D02*
Y421376D01*
X233990Y420376D01*
X228990D01*
X227990Y421376D01*
Y422376D01*
X228990Y423376D01*
X233990D01*
X234990Y422376D01*
D02*
G37*
G36*
X272990Y418376D02*
Y417376D01*
X271990Y416376D01*
X266990D01*
X265990Y417376D01*
Y418376D01*
X266990Y419376D01*
X271990D01*
X272990Y418376D01*
D02*
G37*
G36*
X234990D02*
Y417376D01*
X233990Y416376D01*
X228990D01*
X227990Y417376D01*
Y418376D01*
X228990Y419376D01*
X233990D01*
X234990Y418376D01*
D02*
G37*
G36*
X272990Y414376D02*
Y413376D01*
X271990Y412376D01*
X266990D01*
X265990Y413376D01*
Y414376D01*
X266990Y415376D01*
X271990D01*
X272990Y414376D01*
D02*
G37*
G36*
X234490Y414376D02*
Y409376D01*
X233990Y408876D01*
X228990D01*
X228490Y409376D01*
Y410376D01*
X228990Y410876D01*
X231240Y410876D01*
X231740Y411376D01*
Y412376D01*
X231240Y412876D01*
X228990Y412876D01*
X228490Y413376D01*
Y414376D01*
X228990Y414876D01*
X233990D01*
X234490Y414376D01*
D02*
G37*
G36*
X272990Y410376D02*
Y409376D01*
X271990Y408376D01*
X266990D01*
X265990Y409376D01*
Y410376D01*
X266990Y411376D01*
X271990D01*
X272990Y410376D01*
D02*
G37*
G36*
Y406376D02*
Y405376D01*
X271990Y404376D01*
X266990D01*
X265990Y405376D01*
Y406376D01*
X266990Y407376D01*
X271990D01*
X272990Y406376D01*
D02*
G37*
G36*
X234490Y406376D02*
X234490Y401376D01*
X233990Y400876D01*
X228990D01*
X228490Y401376D01*
Y402376D01*
X228990Y402876D01*
X231240Y402876D01*
X231740Y403376D01*
Y404376D01*
X231240Y404876D01*
X228990Y404876D01*
X228490Y405376D01*
Y406376D01*
X228990Y406876D01*
X233990D01*
X234490Y406376D01*
D02*
G37*
G36*
X272990Y402376D02*
Y401376D01*
X271990Y400376D01*
X266990D01*
X265990Y401376D01*
Y402376D01*
X266990Y403376D01*
X271990D01*
X272990Y402376D01*
D02*
G37*
G36*
Y398376D02*
Y397376D01*
X271990Y396376D01*
X266990D01*
X265990Y397376D01*
Y398376D01*
X266990Y399376D01*
X271990D01*
X272990Y398376D01*
D02*
G37*
G36*
X234990D02*
Y397376D01*
X233990Y396376D01*
X228990D01*
X227990Y397376D01*
Y398376D01*
X228990Y399376D01*
X233990D01*
X234990Y398376D01*
D02*
G37*
G36*
X272990Y394376D02*
Y393376D01*
X271990Y392376D01*
X266990D01*
X265990Y393376D01*
Y394376D01*
X266990Y395376D01*
X271990D01*
X272990Y394376D01*
D02*
G37*
G36*
X234990D02*
Y393376D01*
X233990Y392376D01*
X228990D01*
X227990Y393376D01*
Y394376D01*
X228990Y395376D01*
X233990D01*
X234990Y394376D01*
D02*
G37*
G36*
X264240Y417326D02*
Y391126D01*
X263240Y390126D01*
X237740D01*
X236740Y391126D01*
Y417326D01*
X237740Y418326D01*
X263240D01*
X264240Y417326D01*
D02*
G37*
G36*
X272990Y390376D02*
Y389376D01*
X271990Y388376D01*
X266990D01*
X265990Y389376D01*
Y390376D01*
X266990Y391376D01*
X271990D01*
X272990Y390376D01*
D02*
G37*
G36*
X234990D02*
Y389376D01*
X233990Y388376D01*
X228990D01*
X227990Y389376D01*
Y390376D01*
X228990Y391376D01*
X233990D01*
X234990Y390376D01*
D02*
G37*
G36*
X261990Y387376D02*
Y382376D01*
X260990Y381376D01*
X259990D01*
X258990Y382376D01*
Y387376D01*
X259990Y388376D01*
X260990D01*
X261990Y387376D01*
D02*
G37*
G36*
X257990D02*
Y382376D01*
X256990Y381376D01*
X255990D01*
X254990Y382376D01*
Y387376D01*
X255990Y388376D01*
X256990D01*
X257990Y387376D01*
D02*
G37*
G36*
X253990D02*
Y382376D01*
X252990Y381376D01*
X251990D01*
X250990Y382376D01*
Y387376D01*
X251990Y388376D01*
X252990D01*
X253990Y387376D01*
D02*
G37*
G36*
X249990D02*
Y382376D01*
X248990Y381376D01*
X247990D01*
X246990Y382376D01*
Y387376D01*
X247990Y388376D01*
X248990D01*
X249990Y387376D01*
D02*
G37*
G36*
X245990D02*
Y382376D01*
X244990Y381376D01*
X243990D01*
X242990Y382376D01*
Y387376D01*
X243990Y388376D01*
X244990D01*
X245990Y387376D01*
D02*
G37*
G36*
X241990D02*
Y382376D01*
X240990Y381376D01*
X239990D01*
X238990Y382376D01*
Y387376D01*
X239990Y388376D01*
X240990D01*
X241990Y387376D01*
D02*
G37*
G36*
X405171Y304240D02*
X405271Y304209D01*
X405363Y304160D01*
X405444Y304094D01*
X405510Y304013D01*
X405560Y303921D01*
X405590Y303821D01*
X405600Y303717D01*
Y280282D01*
X405590Y280179D01*
X405560Y280079D01*
X405510Y279987D01*
X405444Y279906D01*
X405363Y279840D01*
X405271Y279790D01*
X405171Y279760D01*
X405067Y279750D01*
X388382D01*
X388279Y279760D01*
X388179Y279790D01*
X388087Y279840D01*
X388006Y279906D01*
X387940Y279987D01*
X387891Y280079D01*
X387860Y280179D01*
X387850Y280282D01*
Y280750D01*
X385750D01*
Y283750D01*
X387850D01*
Y287250D01*
X385750D01*
Y290250D01*
X387850D01*
Y293750D01*
X385750D01*
Y296750D01*
X387850D01*
Y300250D01*
X385750D01*
Y303250D01*
X387850D01*
Y303717D01*
X387860Y303821D01*
X387891Y303921D01*
X387940Y304013D01*
X388006Y304094D01*
X388087Y304160D01*
X388179Y304209D01*
X388279Y304240D01*
X388382Y304250D01*
X405067D01*
X405171Y304240D01*
D02*
G37*
G36*
X365721D02*
X365821Y304209D01*
X365913Y304160D01*
X365994Y304094D01*
X366060Y304013D01*
X366110Y303921D01*
X366140Y303821D01*
X366150Y303717D01*
Y303250D01*
X368250D01*
Y300250D01*
X366150D01*
Y296750D01*
X368250D01*
Y293750D01*
X366150D01*
Y290250D01*
X368250D01*
Y287250D01*
X366150D01*
Y283750D01*
X368250D01*
Y280750D01*
X366150D01*
Y280282D01*
X366140Y280179D01*
X366110Y280079D01*
X366060Y279987D01*
X365994Y279906D01*
X365913Y279840D01*
X365821Y279790D01*
X365721Y279760D01*
X365617Y279750D01*
X348932D01*
X348829Y279760D01*
X348729Y279790D01*
X348637Y279840D01*
X348556Y279906D01*
X348490Y279987D01*
X348441Y280079D01*
X348410Y280179D01*
X348400Y280282D01*
Y303717D01*
X348410Y303821D01*
X348441Y303921D01*
X348490Y304013D01*
X348556Y304094D01*
X348637Y304160D01*
X348729Y304209D01*
X348829Y304240D01*
X348932Y304250D01*
X365617D01*
X365721Y304240D01*
D02*
G37*
G36*
X126991Y3765D02*
Y-1527D01*
X127000Y-1625D01*
X127029Y-1719D01*
X127075Y-1805D01*
X127137Y-1881D01*
X127213Y-1943D01*
X127299Y-1989D01*
X127393Y-2018D01*
X127491Y-2027D01*
X135534D01*
X136241Y-2734D01*
Y-3320D01*
X135534Y-4027D01*
X131491D01*
X131393Y-4037D01*
X131299Y-4065D01*
X131213Y-4112D01*
X131137Y-4174D01*
X131075Y-4250D01*
X131029Y-4336D01*
X131000Y-4430D01*
X130991Y-4527D01*
Y-7027D01*
X131000Y-7125D01*
X131029Y-7219D01*
X131075Y-7305D01*
X131137Y-7381D01*
X131213Y-7443D01*
X131299Y-7489D01*
X131393Y-7518D01*
X131491Y-7527D01*
X135534D01*
X136241Y-8235D01*
Y-8820D01*
X135534Y-9527D01*
X127491D01*
X127393Y-9537D01*
X127299Y-9565D01*
X127213Y-9612D01*
X127137Y-9674D01*
X127075Y-9750D01*
X127029Y-9836D01*
X127000Y-9930D01*
X126991Y-10027D01*
Y-15320D01*
X126284Y-16027D01*
X97198D01*
X96491Y-15320D01*
Y-10027D01*
X96481Y-9930D01*
X96453Y-9836D01*
X96406Y-9750D01*
X96344Y-9674D01*
X96268Y-9612D01*
X96182Y-9565D01*
X96088Y-9537D01*
X95991Y-9527D01*
X87948D01*
X87241Y-8820D01*
Y-8235D01*
X87948Y-7527D01*
X91991D01*
X92088Y-7518D01*
X92182Y-7489D01*
X92268Y-7443D01*
X92344Y-7381D01*
X92406Y-7305D01*
X92452Y-7219D01*
X92481Y-7125D01*
X92491Y-7027D01*
Y-4527D01*
X92481Y-4430D01*
X92452Y-4336D01*
X92406Y-4250D01*
X92344Y-4174D01*
X92268Y-4112D01*
X92182Y-4065D01*
X92088Y-4037D01*
X91991Y-4027D01*
X87948D01*
X87241Y-3320D01*
Y-2734D01*
X87948Y-2027D01*
X95991D01*
X96088Y-2018D01*
X96182Y-1989D01*
X96268Y-1943D01*
X96344Y-1881D01*
X96406Y-1805D01*
X96453Y-1719D01*
X96481Y-1625D01*
X96491Y-1527D01*
Y3765D01*
X97198Y4473D01*
X126284D01*
X126991Y3765D01*
D02*
G37*
G36*
X346255Y5464D02*
X358005D01*
Y-20036D01*
X346255D01*
Y-20786D01*
X341755D01*
Y-20036D01*
X337255D01*
Y5464D01*
X341755D01*
Y6214D01*
X346255D01*
Y5464D01*
D02*
G37*
D17*
X-10101Y-465644D02*
Y-440253D01*
X2595D01*
X6827Y-444484D01*
Y-452948D01*
X2595Y-457180D01*
X-10101D01*
X15291Y-465644D02*
Y-440253D01*
X27987D01*
X32219Y-444484D01*
Y-452948D01*
X27987Y-457180D01*
X15291D01*
X23755D02*
X32219Y-465644D01*
X40683Y-440253D02*
X49147D01*
X44915D01*
Y-465644D01*
X40683D01*
X49147D01*
X61843D02*
Y-440253D01*
X70307Y-448717D01*
X78771Y-440253D01*
Y-465644D01*
X87235D02*
Y-448717D01*
X95699Y-440253D01*
X104163Y-448717D01*
Y-465644D01*
Y-452948D01*
X87235D01*
X112626Y-465644D02*
Y-440253D01*
X125322D01*
X129554Y-444484D01*
Y-452948D01*
X125322Y-457180D01*
X112626D01*
X121090D02*
X129554Y-465644D01*
X138018Y-440253D02*
Y-444484D01*
X146482Y-452948D01*
X154946Y-444484D01*
Y-440253D01*
X146482Y-452948D02*
Y-465644D01*
X205730Y-444484D02*
X201498Y-440253D01*
X193034D01*
X188802Y-444484D01*
Y-448717D01*
X193034Y-452948D01*
X201498D01*
X205730Y-457180D01*
Y-461412D01*
X201498Y-465644D01*
X193034D01*
X188802Y-461412D01*
X214194Y-440253D02*
X222658D01*
X218426D01*
Y-465644D01*
X214194D01*
X222658D01*
X235354Y-440253D02*
Y-465644D01*
X248049D01*
X252281Y-461412D01*
Y-444484D01*
X248049Y-440253D01*
X235354D01*
X277673D02*
X260745D01*
Y-465644D01*
X277673D01*
X260745Y-452948D02*
X269209D01*
X328457Y-444484D02*
X324225Y-440253D01*
X315761D01*
X311529Y-444484D01*
Y-448717D01*
X315761Y-452948D01*
X324225D01*
X328457Y-457180D01*
Y-461412D01*
X324225Y-465644D01*
X315761D01*
X311529Y-461412D01*
X349617Y-440253D02*
X341153D01*
X336921Y-444484D01*
Y-461412D01*
X341153Y-465644D01*
X349617D01*
X353849Y-461412D01*
Y-444484D01*
X349617Y-440253D01*
X362313D02*
Y-465644D01*
X379240D01*
X387704Y-440253D02*
Y-465644D01*
X400400D01*
X404632Y-461412D01*
Y-444484D01*
X400400Y-440253D01*
X387704D01*
X430024D02*
X413096D01*
Y-465644D01*
X430024D01*
X413096Y-452948D02*
X421560D01*
X438488Y-465644D02*
Y-440253D01*
X451184D01*
X455416Y-444484D01*
Y-452948D01*
X451184Y-457180D01*
X438488D01*
X446952D02*
X455416Y-465644D01*
X489272D02*
Y-440253D01*
X497735Y-448717D01*
X506199Y-440253D01*
Y-465644D01*
X514663D02*
Y-448717D01*
X523127Y-440253D01*
X531591Y-448717D01*
Y-465644D01*
Y-452948D01*
X514663D01*
X556983Y-444484D02*
X552751Y-440253D01*
X544287D01*
X540055Y-444484D01*
Y-448717D01*
X544287Y-452948D01*
X552751D01*
X556983Y-457180D01*
Y-461412D01*
X552751Y-465644D01*
X544287D01*
X540055Y-461412D01*
X565447Y-440253D02*
Y-465644D01*
Y-457180D01*
X582375Y-440253D01*
X569679Y-452948D01*
X582375Y-465644D01*
X-145Y-288975D02*
X-8608D01*
X-12840Y-293207D01*
Y-310134D01*
X-8608Y-314366D01*
X-145D01*
X4087Y-310134D01*
Y-293207D01*
X-145Y-288975D01*
X12551D02*
Y-314366D01*
X25247D01*
X29479Y-310134D01*
Y-293207D01*
X25247Y-288975D01*
X12551D01*
X37943D02*
X46407D01*
X42175D01*
Y-314366D01*
X37943D01*
X46407D01*
X76031Y-293207D02*
X71799Y-288975D01*
X63335D01*
X59103Y-293207D01*
Y-310134D01*
X63335Y-314366D01*
X71799D01*
X76031Y-310134D01*
X88727Y-318598D02*
X92959Y-314366D01*
Y-310134D01*
X88727D01*
Y-314366D01*
X92959D01*
X88727Y-318598D01*
X84495Y-322830D01*
X135278Y-288975D02*
X143742D01*
X139510D01*
Y-314366D01*
X135278D01*
X143742D01*
X156438D02*
Y-288975D01*
X173366Y-314366D01*
Y-288975D01*
X198758Y-293207D02*
X194526Y-288975D01*
X186062D01*
X181830Y-293207D01*
Y-310134D01*
X186062Y-314366D01*
X194526D01*
X198758Y-310134D01*
X207222Y-314366D02*
Y-310134D01*
X211454D01*
Y-314366D01*
X207222D01*
X1341Y-340332D02*
X-2891Y-336100D01*
X-11355D01*
X-15587Y-340332D01*
Y-357260D01*
X-11355Y-361492D01*
X-2891D01*
X1341Y-357260D01*
Y-348796D01*
X-7123D01*
X9805Y-336100D02*
Y-361492D01*
Y-348796D01*
X26733D01*
Y-336100D01*
Y-361492D01*
X35197Y-336100D02*
Y-361492D01*
X52125D01*
X85980D02*
Y-336100D01*
X102908Y-361492D01*
Y-336100D01*
X111372Y-361492D02*
Y-344564D01*
X119836Y-336100D01*
X128300Y-344564D01*
Y-361492D01*
Y-348796D01*
X111372D01*
X136764Y-361492D02*
Y-344564D01*
X145228Y-336100D01*
X153692Y-344564D01*
Y-361492D01*
Y-348796D01*
X136764D01*
X162156Y-336100D02*
X179083D01*
X170620D01*
Y-361492D01*
X200243Y-336100D02*
X191779D01*
X187547Y-340332D01*
Y-357260D01*
X191779Y-361492D01*
X200243D01*
X204475Y-357260D01*
Y-340332D01*
X200243Y-336100D01*
X229867Y-340332D02*
X225635Y-336100D01*
X217171D01*
X212939Y-340332D01*
Y-344564D01*
X217171Y-348796D01*
X225635D01*
X229867Y-353028D01*
Y-357260D01*
X225635Y-361492D01*
X217171D01*
X212939Y-357260D01*
X280651Y-340332D02*
X276419Y-336100D01*
X267955D01*
X263723Y-340332D01*
Y-344564D01*
X267955Y-348796D01*
X276419D01*
X280651Y-353028D01*
Y-357260D01*
X276419Y-361492D01*
X267955D01*
X263723Y-357260D01*
X293347Y-344564D02*
X301810D01*
X306042Y-348796D01*
Y-361492D01*
X293347D01*
X289115Y-357260D01*
X293347Y-353028D01*
X306042D01*
X314506Y-361492D02*
Y-344564D01*
X318738D01*
X322970Y-348796D01*
Y-361492D01*
Y-348796D01*
X327202Y-344564D01*
X331434Y-348796D01*
Y-361492D01*
X339898Y-369956D02*
Y-344564D01*
X352594D01*
X356826Y-348796D01*
Y-357260D01*
X352594Y-361492D01*
X339898D01*
X365290D02*
X373754D01*
X369522D01*
Y-336100D01*
X365290D01*
X399146Y-361492D02*
X390682D01*
X386450Y-357260D01*
Y-348796D01*
X390682Y-344564D01*
X399146D01*
X403378Y-348796D01*
Y-353028D01*
X386450D01*
X437233Y-361492D02*
Y-336100D01*
X449929D01*
X454161Y-340332D01*
Y-348796D01*
X449929Y-353028D01*
X437233D01*
X462625Y-344564D02*
Y-361492D01*
Y-353028D01*
X466857Y-348796D01*
X471089Y-344564D01*
X475321D01*
X500713Y-361492D02*
X492249D01*
X488017Y-357260D01*
Y-348796D01*
X492249Y-344564D01*
X500713D01*
X504945Y-348796D01*
Y-353028D01*
X488017D01*
X513409Y-369956D02*
Y-344564D01*
X526105D01*
X530337Y-348796D01*
Y-357260D01*
X526105Y-361492D01*
X513409D01*
X564192D02*
Y-336100D01*
X572656Y-344564D01*
X581120Y-336100D01*
Y-361492D01*
X593816Y-344564D02*
X602280D01*
X606512Y-348796D01*
Y-361492D01*
X593816D01*
X589584Y-357260D01*
X593816Y-353028D01*
X606512D01*
X614976Y-361492D02*
X623440D01*
X619208D01*
Y-344564D01*
X614976D01*
X636136Y-361492D02*
Y-344564D01*
X648832D01*
X653064Y-348796D01*
Y-361492D01*
X686919Y-336100D02*
Y-361492D01*
X699615D01*
X703847Y-357260D01*
Y-353028D01*
X699615Y-348796D01*
X686919D01*
X699615D01*
X703847Y-344564D01*
Y-340332D01*
X699615Y-336100D01*
X686919D01*
X716543Y-361492D02*
X725007D01*
X729239Y-357260D01*
Y-348796D01*
X725007Y-344564D01*
X716543D01*
X712311Y-348796D01*
Y-357260D01*
X716543Y-361492D01*
X741935Y-344564D02*
X750399D01*
X754631Y-348796D01*
Y-361492D01*
X741935D01*
X737703Y-357260D01*
X741935Y-353028D01*
X754631D01*
X763095Y-344564D02*
Y-361492D01*
Y-353028D01*
X767327Y-348796D01*
X771559Y-344564D01*
X775791D01*
X805414Y-336100D02*
Y-361492D01*
X792719D01*
X788486Y-357260D01*
Y-348796D01*
X792719Y-344564D01*
X805414D01*
X1727Y-413574D02*
X-15201D01*
X1727Y-396646D01*
Y-392415D01*
X-2505Y-388183D01*
X-10969D01*
X-15201Y-392415D01*
X27119Y-388183D02*
X18655Y-392415D01*
X10191Y-400878D01*
Y-409342D01*
X14423Y-413574D01*
X22887D01*
X27119Y-409342D01*
Y-405110D01*
X22887Y-400878D01*
X10191D01*
X35583Y-392415D02*
X39815Y-388183D01*
X48279D01*
X52511Y-392415D01*
Y-396646D01*
X48279Y-400878D01*
X44047D01*
X48279D01*
X52511Y-405110D01*
Y-409342D01*
X48279Y-413574D01*
X39815D01*
X35583Y-409342D01*
X60975Y-400878D02*
X77903D01*
X86367Y-392415D02*
X90599Y-388183D01*
X99063D01*
X103295Y-392415D01*
Y-409342D01*
X99063Y-413574D01*
X90599D01*
X86367Y-409342D01*
Y-392415D01*
X111758D02*
X115990Y-388183D01*
X124454D01*
X128686Y-392415D01*
Y-396646D01*
X124454Y-400878D01*
X120222D01*
X124454D01*
X128686Y-405110D01*
Y-409342D01*
X124454Y-413574D01*
X115990D01*
X111758Y-409342D01*
X137150Y-400878D02*
X154078D01*
X162542Y-392415D02*
X166774Y-388183D01*
X175238D01*
X179470Y-392415D01*
Y-409342D01*
X175238Y-413574D01*
X166774D01*
X162542Y-409342D01*
Y-392415D01*
X187934D02*
X192166Y-388183D01*
X200630D01*
X204862Y-392415D01*
Y-409342D01*
X200630Y-413574D01*
X192166D01*
X187934Y-409342D01*
Y-392415D01*
X213326Y-413574D02*
X221790D01*
X217558D01*
Y-388183D01*
X213326Y-392415D01*
X285269Y-413574D02*
Y-388183D01*
X297965D01*
X302197Y-392415D01*
Y-400878D01*
X297965Y-405110D01*
X285269D01*
X293733D02*
X302197Y-413574D01*
X327589Y-388183D02*
X310661D01*
Y-413574D01*
X327589D01*
X310661Y-400878D02*
X319125D01*
X336053Y-388183D02*
Y-405110D01*
X344517Y-413574D01*
X352980Y-405110D01*
Y-388183D01*
X403764Y-392415D02*
X399532Y-388183D01*
X391068D01*
X386836Y-392415D01*
Y-409342D01*
X391068Y-413574D01*
X399532D01*
X403764Y-409342D01*
D73*
X170650Y918000D02*
D03*
X183350D02*
D03*
X170650Y930700D02*
D03*
X183350D02*
D03*
X170650Y905300D02*
D03*
X183350D02*
D03*
D74*
X396995Y818536D02*
D03*
Y808536D02*
D03*
X390000Y358000D02*
D03*
Y368000D02*
D03*
X403000Y358000D02*
D03*
Y368000D02*
D03*
X128000Y393000D02*
D03*
Y403000D02*
D03*
X99000Y-33000D02*
D03*
Y-43000D02*
D03*
X344000Y96000D02*
D03*
Y86000D02*
D03*
X297000Y223000D02*
D03*
Y213000D02*
D03*
X299000Y257000D02*
D03*
Y247000D02*
D03*
X310000Y223000D02*
D03*
Y213000D02*
D03*
X309000Y346000D02*
D03*
Y336000D02*
D03*
X369000Y176000D02*
D03*
Y166000D02*
D03*
X146000Y13000D02*
D03*
Y3000D02*
D03*
X379000Y216000D02*
D03*
Y206000D02*
D03*
X90000Y28000D02*
D03*
Y38000D02*
D03*
X71000Y16000D02*
D03*
Y6000D02*
D03*
X382000Y166000D02*
D03*
Y176000D02*
D03*
X71000Y-16000D02*
D03*
Y-6000D02*
D03*
X146000Y-18000D02*
D03*
Y-8000D02*
D03*
X208225Y388950D02*
D03*
Y378950D02*
D03*
X605000Y-184000D02*
D03*
Y-194000D02*
D03*
X552000Y-184000D02*
D03*
Y-194000D02*
D03*
X549000Y-128000D02*
D03*
Y-118000D02*
D03*
X131000Y359000D02*
D03*
Y369000D02*
D03*
X292225Y354950D02*
D03*
Y344950D02*
D03*
X280225D02*
D03*
Y354950D02*
D03*
X268225Y363950D02*
D03*
Y373950D02*
D03*
X177761Y238536D02*
D03*
Y248536D02*
D03*
X190760D02*
D03*
Y238536D02*
D03*
X314995Y170536D02*
D03*
Y160536D02*
D03*
X423005Y-142286D02*
D03*
Y-132286D02*
D03*
X454000Y-95000D02*
D03*
Y-85000D02*
D03*
X308951Y-173805D02*
D03*
Y-163805D02*
D03*
X325995Y839536D02*
D03*
Y829536D02*
D03*
X337995Y839536D02*
D03*
Y829536D02*
D03*
X325995Y808536D02*
D03*
Y818536D02*
D03*
X338001Y801536D02*
D03*
Y811536D02*
D03*
X344995Y892536D02*
D03*
Y902536D02*
D03*
X403308Y848224D02*
D03*
Y838224D02*
D03*
Y860224D02*
D03*
Y870224D02*
D03*
X359995Y902536D02*
D03*
Y892536D02*
D03*
X440000Y-52000D02*
D03*
Y-42000D02*
D03*
X506000Y28000D02*
D03*
Y38000D02*
D03*
X505000Y73000D02*
D03*
Y63000D02*
D03*
X400000Y-22000D02*
D03*
Y-12000D02*
D03*
X413000D02*
D03*
Y-22000D02*
D03*
X505000Y95000D02*
D03*
Y85000D02*
D03*
X506000Y14000D02*
D03*
Y4000D02*
D03*
X425000Y-52000D02*
D03*
Y-42000D02*
D03*
X349995Y792536D02*
D03*
Y802536D02*
D03*
X325995Y787536D02*
D03*
Y797536D02*
D03*
X348000Y146000D02*
D03*
Y156000D02*
D03*
D75*
X423500Y358250D02*
D03*
D76*
X417000Y349150D02*
D03*
Y367350D02*
D03*
X430000Y349150D02*
D03*
Y367350D02*
D03*
X423500Y349150D02*
D03*
Y367350D02*
D03*
D77*
X337500Y262000D02*
D03*
X328000D02*
D03*
X318500D02*
D03*
Y238000D02*
D03*
X328000D02*
D03*
X337500D02*
D03*
D78*
X413000Y794000D02*
D03*
Y778000D02*
D03*
X179000Y-100000D02*
D03*
Y-116000D02*
D03*
D79*
X437000Y804000D02*
D03*
X427000D02*
D03*
X375000Y326000D02*
D03*
X385000D02*
D03*
X415000Y337000D02*
D03*
X405000D02*
D03*
X77000Y28000D02*
D03*
X67000D02*
D03*
X375000Y339000D02*
D03*
X385000D02*
D03*
X126000Y-35000D02*
D03*
X116000D02*
D03*
X67000Y54000D02*
D03*
X77000D02*
D03*
X112000Y28000D02*
D03*
X102000D02*
D03*
X379000Y193000D02*
D03*
X369000D02*
D03*
X458000Y804000D02*
D03*
X448000D02*
D03*
X354000Y317000D02*
D03*
X364000D02*
D03*
X77000Y41000D02*
D03*
X67000D02*
D03*
X147000Y-35000D02*
D03*
X137000D02*
D03*
X66000Y-28000D02*
D03*
X76000D02*
D03*
X265995Y885936D02*
D03*
X255995D02*
D03*
X305000Y885000D02*
D03*
X315000D02*
D03*
X300995Y900936D02*
D03*
X310995D02*
D03*
X272995Y901936D02*
D03*
X262995D02*
D03*
X205490Y422876D02*
D03*
X215490D02*
D03*
Y437876D02*
D03*
X205490D02*
D03*
X272225Y450950D02*
D03*
X282225D02*
D03*
X438464Y-12071D02*
D03*
X428464D02*
D03*
X546000Y-163000D02*
D03*
X556000D02*
D03*
X326000Y220000D02*
D03*
X336000D02*
D03*
X162506Y401064D02*
D03*
X152506D02*
D03*
X-51000Y-123000D02*
D03*
X-61000D02*
D03*
X-51000Y-136000D02*
D03*
X-61000D02*
D03*
X217000Y243000D02*
D03*
X207000D02*
D03*
X166000Y220000D02*
D03*
X176000D02*
D03*
X458000Y791000D02*
D03*
X448000D02*
D03*
X633000Y-130000D02*
D03*
X623000D02*
D03*
X637000Y-85000D02*
D03*
X627000D02*
D03*
X336000Y208000D02*
D03*
X326000D02*
D03*
X623000Y-118000D02*
D03*
X633000D02*
D03*
X466000Y-44000D02*
D03*
X456000D02*
D03*
X466000Y-32000D02*
D03*
X456000D02*
D03*
X314005Y-10536D02*
D03*
X304005D02*
D03*
X375308Y818224D02*
D03*
X385308D02*
D03*
X348995Y817536D02*
D03*
X358995D02*
D03*
X380995Y890536D02*
D03*
X370995D02*
D03*
X403000Y117000D02*
D03*
X413000D02*
D03*
X169000Y366000D02*
D03*
X179000D02*
D03*
X179000Y353000D02*
D03*
X169000D02*
D03*
X179000Y340000D02*
D03*
X169000D02*
D03*
D80*
X459000Y701435D02*
D03*
D81*
X436150Y767435D02*
D03*
X481850D02*
D03*
D82*
X454000Y-20000D02*
D03*
X589000Y-162000D02*
D03*
X569000Y-115000D02*
D03*
X537000Y-185000D02*
D03*
X517000Y-176000D02*
D03*
X523000Y-154000D02*
D03*
X548000Y-140000D02*
D03*
X150000Y215000D02*
D03*
Y196000D02*
D03*
X357000Y382000D02*
D03*
X379000D02*
D03*
X304005Y2464D02*
D03*
X330000Y188000D02*
D03*
X294951Y-179805D02*
D03*
X455000Y-57000D02*
D03*
Y-72000D02*
D03*
X195000Y448000D02*
D03*
X191000Y401000D02*
D03*
X173000Y380000D02*
D03*
X-58000Y-107000D02*
D03*
X409000Y-122650D02*
D03*
X340951Y-178805D02*
D03*
D83*
X240490Y384876D02*
D03*
X244490D02*
D03*
X248490D02*
D03*
X252490D02*
D03*
X256490D02*
D03*
X260490D02*
D03*
X213761Y197536D02*
D03*
X197761D02*
D03*
X213761Y226536D02*
D03*
X197761D02*
D03*
X209761Y197536D02*
D03*
X201761D02*
D03*
X209761Y226536D02*
D03*
X201761D02*
D03*
X205761Y197536D02*
D03*
Y226536D02*
D03*
D84*
X269490Y389876D02*
D03*
Y393876D02*
D03*
Y397876D02*
D03*
Y401876D02*
D03*
Y405876D02*
D03*
Y409876D02*
D03*
Y413876D02*
D03*
Y417876D02*
D03*
Y421876D02*
D03*
Y425876D02*
D03*
Y429876D02*
D03*
Y433876D02*
D03*
Y437876D02*
D03*
X231490D02*
D03*
Y433876D02*
D03*
Y429876D02*
D03*
Y425876D02*
D03*
Y421876D02*
D03*
Y417876D02*
D03*
Y397876D02*
D03*
Y393876D02*
D03*
Y389876D02*
D03*
X220261Y204036D02*
D03*
X191261D02*
D03*
X220261Y220036D02*
D03*
X191261D02*
D03*
Y208036D02*
D03*
X220261Y216036D02*
D03*
X191261D02*
D03*
X220261Y212036D02*
D03*
Y208036D02*
D03*
X191261Y212036D02*
D03*
D85*
X261490Y441876D02*
D03*
X256990D02*
D03*
X252490D02*
D03*
X248490D02*
D03*
X243990D02*
D03*
X239490D02*
D03*
D86*
X232490Y413876D02*
D03*
Y409876D02*
D03*
Y405876D02*
D03*
Y401876D02*
D03*
D87*
X250490Y404226D02*
D03*
D88*
Y429476D02*
D03*
D89*
X266000Y290000D02*
D03*
X316000D02*
D03*
D90*
X205761Y212036D02*
D03*
D91*
X201725Y338600D02*
D03*
Y351300D02*
D03*
X250725Y338600D02*
D03*
Y351300D02*
D03*
X201725Y325900D02*
D03*
Y364000D02*
D03*
X250725Y325900D02*
D03*
Y364000D02*
D03*
X483454Y6480D02*
D03*
Y19180D02*
D03*
Y31880D02*
D03*
Y44580D02*
D03*
Y57280D02*
D03*
Y69980D02*
D03*
Y82680D02*
D03*
Y95380D02*
D03*
X389474D02*
D03*
Y82680D02*
D03*
Y69980D02*
D03*
Y57280D02*
D03*
Y44580D02*
D03*
Y31880D02*
D03*
Y19180D02*
D03*
Y6480D02*
D03*
D92*
X45000Y-185150D02*
D03*
Y-70850D02*
D03*
D93*
X325038Y356000D02*
D03*
Y352000D02*
D03*
Y348000D02*
D03*
Y344000D02*
D03*
Y340000D02*
D03*
Y336000D02*
D03*
Y332000D02*
D03*
X354962D02*
D03*
Y336000D02*
D03*
Y340000D02*
D03*
Y344000D02*
D03*
Y348000D02*
D03*
Y352000D02*
D03*
Y356000D02*
D03*
D94*
X340000Y344000D02*
D03*
D95*
X419000Y211000D02*
D03*
X401000D02*
D03*
D96*
Y177000D02*
D03*
X411000D02*
D03*
X406000D02*
D03*
X396000D02*
D03*
X411000Y191800D02*
D03*
X406000D02*
D03*
X401000D02*
D03*
X396000D02*
D03*
D97*
X140000Y30000D02*
D03*
Y60000D02*
D03*
X161000Y30000D02*
D03*
Y60000D02*
D03*
D98*
X399000Y134000D02*
D03*
X415000D02*
D03*
X121000Y43000D02*
D03*
X105000D02*
D03*
X177000Y182000D02*
D03*
X193000D02*
D03*
X163506Y465064D02*
D03*
X147506D02*
D03*
X366995Y786536D02*
D03*
X382995D02*
D03*
Y803536D02*
D03*
X366995D02*
D03*
X410995Y819536D02*
D03*
X426995D02*
D03*
X425308Y913223D02*
D03*
X409308D02*
D03*
X425308Y896224D02*
D03*
X409308D02*
D03*
X425308Y930223D02*
D03*
X409308D02*
D03*
X371995Y935536D02*
D03*
X387995D02*
D03*
X363308Y918224D02*
D03*
X379308D02*
D03*
D99*
X111741Y-5777D02*
D03*
D100*
X90240Y1723D02*
D03*
X133240D02*
D03*
Y-13277D02*
D03*
X90240D02*
D03*
D101*
X94241Y10722D02*
D03*
X99241D02*
D03*
X104241D02*
D03*
X109241D02*
D03*
X114241D02*
D03*
X119241D02*
D03*
X124241D02*
D03*
X129241D02*
D03*
Y-22278D02*
D03*
X124241D02*
D03*
X119241D02*
D03*
X114241D02*
D03*
X109241D02*
D03*
X104241D02*
D03*
X99241D02*
D03*
X94241D02*
D03*
D102*
X220000Y31590D02*
D03*
Y58410D02*
D03*
X188000Y31590D02*
D03*
Y58410D02*
D03*
D103*
X127000Y-75000D02*
D03*
X157000D02*
D03*
D104*
X129590Y-108000D02*
D03*
X156410D02*
D03*
D105*
X427000Y-68500D02*
D03*
Y-105500D02*
D03*
D106*
X289951Y-139491D02*
D03*
Y-84119D02*
D03*
X363951D02*
D03*
Y-139491D02*
D03*
X221950Y-84119D02*
D03*
Y-139491D02*
D03*
D107*
X198225Y464950D02*
D03*
X228225D02*
D03*
D108*
X235995Y878686D02*
D03*
Y859186D02*
D03*
X242495Y878686D02*
D03*
Y859186D02*
D03*
X229495Y878686D02*
D03*
Y859186D02*
D03*
D109*
X235995Y868936D02*
D03*
D110*
X245250Y86000D02*
D03*
Y41000D02*
D03*
X324750D02*
D03*
Y86000D02*
D03*
D111*
X278000Y155000D02*
D03*
D112*
X165006Y443592D02*
D03*
X155506D02*
D03*
X146006D02*
D03*
Y416536D02*
D03*
X165006D02*
D03*
D113*
X140950Y383775D02*
D03*
Y379775D02*
D03*
X136950Y383775D02*
D03*
Y379775D02*
D03*
X332995Y162536D02*
D03*
X328995D02*
D03*
X332995Y166537D02*
D03*
X328995D02*
D03*
X431464Y-26070D02*
D03*
X435465D02*
D03*
X431464Y-30071D02*
D03*
X435465D02*
D03*
D114*
X-79750Y-129214D02*
D03*
X-98259Y-138714D02*
D03*
D115*
Y-119714D02*
D03*
D116*
X590500Y-190000D02*
D03*
X565500D02*
D03*
D117*
X527000Y-134000D02*
D03*
Y-118000D02*
D03*
D118*
X28500Y201000D02*
D03*
X-11500D02*
D03*
X28500Y255000D02*
D03*
X-11500D02*
D03*
X8500Y201000D02*
D03*
Y255000D02*
D03*
X582500Y201000D02*
D03*
X542500D02*
D03*
X582500Y255000D02*
D03*
X542500D02*
D03*
X562500Y201000D02*
D03*
Y255000D02*
D03*
D119*
X360450Y292000D02*
D03*
X393550D02*
D03*
D120*
X369500Y295250D02*
D03*
Y288750D02*
D03*
Y282250D02*
D03*
X338500D02*
D03*
Y288750D02*
D03*
Y295250D02*
D03*
Y301750D02*
D03*
X384500Y288750D02*
D03*
Y295250D02*
D03*
Y301750D02*
D03*
X415500D02*
D03*
Y295250D02*
D03*
Y288750D02*
D03*
Y282250D02*
D03*
D121*
X330005Y2464D02*
D03*
Y-4036D02*
D03*
Y-10536D02*
D03*
Y-17036D02*
D03*
X358005D02*
D03*
Y-10536D02*
D03*
Y-4036D02*
D03*
Y2464D02*
D03*
D122*
X449308Y836724D02*
D03*
Y877724D02*
D03*
D123*
X388558Y863224D02*
D03*
D124*
X388308Y858724D02*
D03*
Y854224D02*
D03*
Y849724D02*
D03*
Y845224D02*
D03*
D125*
X387620Y840411D02*
D03*
X354995Y839911D02*
D03*
D126*
X383308Y835224D02*
D03*
X379308D02*
D03*
X375308D02*
D03*
X371308D02*
D03*
X359308Y873224D02*
D03*
X363308D02*
D03*
X367308D02*
D03*
X371308D02*
D03*
X375308D02*
D03*
X379308D02*
D03*
X383308D02*
D03*
D127*
X367308Y835624D02*
D03*
D128*
X363308Y835474D02*
D03*
D129*
X359308Y835724D02*
D03*
D130*
X352308Y844224D02*
D03*
Y848224D02*
D03*
Y852224D02*
D03*
Y856224D02*
D03*
Y860224D02*
D03*
Y864224D02*
D03*
D131*
X351933Y868349D02*
D03*
D132*
X387620Y867911D02*
D03*
D133*
X419000Y155000D02*
D03*
X399000D02*
D03*
D134*
X595000Y940000D02*
D03*
X-90000Y-80000D02*
D03*
X-25000Y940000D02*
D03*
D135*
X177000Y892600D02*
D03*
X166840Y943400D02*
D03*
X187160D02*
D03*
X177000Y892600D02*
D03*
X187160Y943400D02*
D03*
X166840D02*
D03*
X348000Y422600D02*
D03*
X358160Y473400D02*
D03*
X337840D02*
D03*
D136*
X151600Y892600D02*
D03*
Y924350D02*
D03*
X202400Y892600D02*
D03*
Y924350D02*
D03*
Y892600D02*
D03*
Y924350D02*
D03*
X151600Y892600D02*
D03*
Y924350D02*
D03*
D137*
X-106300Y576300D02*
D03*
X677800D02*
D03*
X375750Y732000D02*
D03*
X195750D02*
D03*
D138*
X483700Y-145500D02*
D03*
Y-130500D02*
D03*
Y-115500D02*
D03*
Y-100500D02*
D03*
Y-85500D02*
D03*
Y-70500D02*
D03*
X293000Y831500D02*
D03*
X278000D02*
D03*
D139*
X248695Y910436D02*
D03*
D140*
X320695D02*
D03*
D141*
X312695Y916936D02*
D03*
X308695Y923936D02*
D03*
X300695D02*
D03*
X296695Y916936D02*
D03*
X292695Y923936D02*
D03*
X288695Y916936D02*
D03*
X280695D02*
D03*
X276695Y923936D02*
D03*
X272695Y916936D02*
D03*
X268695Y923936D02*
D03*
X260695D02*
D03*
X256695Y916936D02*
D03*
D142*
X238695Y924436D02*
D03*
X330695D02*
D03*
X238695Y954436D02*
D03*
X330695D02*
D03*
D143*
X-94500Y921300D02*
D03*
X666000D02*
D03*
X-94500Y231300D02*
D03*
X666000D02*
D03*
D144*
X350750Y577215D02*
D03*
X220750D02*
D03*
D145*
X571500Y0D02*
D03*
X0D02*
D03*
M02*
