G04*
G04 #@! TF.GenerationSoftware,Altium Limited,Altium Designer,24.9.1 (31)*
G04*
G04 Layer_Physical_Order=4*
G04 Layer_Color=16711680*
%FSLAX44Y44*%
%MOMM*%
G71*
G04*
G04 #@! TF.SameCoordinates,1259BD5C-C6F3-40BD-8840-5C3A0C5864AA*
G04*
G04*
G04 #@! TF.FilePolarity,Positive*
G04*
G01*
G75*
%ADD11C,0.2500*%
%ADD13C,0.1524*%
%ADD14C,0.2000*%
%ADD15C,0.1270*%
%ADD17C,0.2540*%
%ADD19R,0.6000X0.6000*%
%ADD23R,1.0000X0.9500*%
%ADD24R,0.6000X0.6000*%
%ADD39R,1.1500X1.4500*%
%ADD42R,0.9500X1.0000*%
%ADD59R,1.0000X1.8000*%
%ADD60R,1.0000X0.9000*%
%ADD61R,1.6000X3.0000*%
%ADD64R,0.5000X0.3500*%
%ADD145C,3.1750*%
%ADD146C,0.7874*%
%ADD152C,1.1430*%
%ADD153C,0.3810*%
%ADD154C,0.6350*%
%ADD155C,0.5000*%
%ADD156C,2.0000*%
%ADD158C,0.6000*%
%ADD159C,0.2400*%
%ADD160C,0.9906*%
%ADD161C,2.3749*%
%ADD162C,5.0000*%
%ADD163C,1.2700*%
%ADD164C,0.7500*%
%ADD165O,0.9500X0.7500*%
%ADD166C,0.6500*%
%ADD167O,1.1000X2.2000*%
%ADD168C,5.0800*%
%ADD169C,3.0480*%
%ADD170C,0.5588*%
%ADD172R,0.8326X0.3548*%
G04:AMPARAMS|DCode=173|XSize=19.5mm|YSize=19.5mm|CornerRadius=1.17mm|HoleSize=0mm|Usage=FLASHONLY|Rotation=180.000|XOffset=0mm|YOffset=0mm|HoleType=Round|Shape=RoundedRectangle|*
%AMROUNDEDRECTD173*
21,1,19.5000,17.1600,0,0,180.0*
21,1,17.1600,19.5000,0,0,180.0*
1,1,2.3400,-8.5800,8.5800*
1,1,2.3400,8.5800,8.5800*
1,1,2.3400,8.5800,-8.5800*
1,1,2.3400,-8.5800,-8.5800*
%
%ADD173ROUNDEDRECTD173*%
G04:AMPARAMS|DCode=174|XSize=16mm|YSize=19.5mm|CornerRadius=0.96mm|HoleSize=0mm|Usage=FLASHONLY|Rotation=180.000|XOffset=0mm|YOffset=0mm|HoleType=Round|Shape=RoundedRectangle|*
%AMROUNDEDRECTD174*
21,1,16.0000,17.5800,0,0,180.0*
21,1,14.0800,19.5000,0,0,180.0*
1,1,1.9200,-7.0400,8.7900*
1,1,1.9200,7.0400,8.7900*
1,1,1.9200,7.0400,-8.7900*
1,1,1.9200,-7.0400,-8.7900*
%
%ADD174ROUNDEDRECTD174*%
%ADD175R,1.4500X1.1500*%
%ADD176R,0.2000X0.5500*%
%ADD177R,0.4000X0.5500*%
%ADD178R,2.0066X2.0066*%
%ADD179R,1.6000X2.4000*%
%ADD180R,0.3000X1.2000*%
%ADD181R,0.3000X1.1000*%
%ADD182R,2.7000X6.2000*%
%ADD183R,0.5080X0.5080*%
%ADD184R,0.5080X0.5080*%
%ADD185R,2.2000X1.3000*%
%ADD186R,0.2540X0.7112*%
G04:AMPARAMS|DCode=187|XSize=0.6mm|YSize=0.24mm|CornerRadius=0.06mm|HoleSize=0mm|Usage=FLASHONLY|Rotation=180.000|XOffset=0mm|YOffset=0mm|HoleType=Round|Shape=RoundedRectangle|*
%AMROUNDEDRECTD187*
21,1,0.6000,0.1200,0,0,180.0*
21,1,0.4800,0.2400,0,0,180.0*
1,1,0.1200,-0.2400,0.0600*
1,1,0.1200,0.2400,0.0600*
1,1,0.1200,0.2400,-0.0600*
1,1,0.1200,-0.2400,-0.0600*
%
%ADD187ROUNDEDRECTD187*%
G04:AMPARAMS|DCode=188|XSize=0.6mm|YSize=0.24mm|CornerRadius=0.06mm|HoleSize=0mm|Usage=FLASHONLY|Rotation=90.000|XOffset=0mm|YOffset=0mm|HoleType=Round|Shape=RoundedRectangle|*
%AMROUNDEDRECTD188*
21,1,0.6000,0.1200,0,0,90.0*
21,1,0.4800,0.2400,0,0,90.0*
1,1,0.1200,0.0600,0.2400*
1,1,0.1200,0.0600,-0.2400*
1,1,0.1200,-0.0600,-0.2400*
1,1,0.1200,-0.0600,0.2400*
%
%ADD188ROUNDEDRECTD188*%
%ADD189R,1.6600X1.6600*%
%ADD190C,0.3000*%
%ADD191C,0.7000*%
G36*
X411995Y946536D02*
Y941536D01*
X410995Y940536D01*
X405995D01*
X393995Y928536D01*
Y919536D01*
X387995Y913536D01*
X374995D01*
Y922536D01*
X379995Y927536D01*
Y942536D01*
X377995Y944536D01*
X377995Y948536D01*
X379995Y950536D01*
X407995D01*
X411995Y946536D01*
D02*
G37*
G36*
X374995Y949536D02*
Y948832D01*
X374936Y948536D01*
X374937Y948536D01*
X374937Y944536D01*
X374937Y944536D01*
X374995Y944241D01*
X374995Y929536D01*
X369995Y924536D01*
Y911536D01*
X363995Y905536D01*
X348995D01*
Y934536D01*
X364995Y950536D01*
X373995D01*
X374995Y949536D01*
D02*
G37*
G36*
X356995Y897536D02*
X356995Y894536D01*
X351995Y889536D01*
Y883708D01*
X351700Y882224D01*
X351995Y880740D01*
Y878536D01*
X354642Y875890D01*
X388349D01*
X388411Y875827D01*
X390372Y875015D01*
X392494D01*
X394454Y875827D01*
X394517Y875890D01*
X407369D01*
X413369Y881890D01*
X434369D01*
X435369Y880890D01*
Y865890D01*
X426369Y856890D01*
X371977D01*
X371830Y857245D01*
X370329Y858746D01*
X369369Y859143D01*
Y862390D01*
X368054Y863705D01*
X367830Y864245D01*
X366329Y865746D01*
X365789Y865969D01*
X365223Y866536D01*
X364421D01*
X364369Y866558D01*
X362247D01*
X362195Y866536D01*
X353995D01*
X343995Y876536D01*
Y894536D01*
X349995Y900536D01*
X353995D01*
X356995Y897536D01*
D02*
G37*
G36*
X435369Y842890D02*
Y830890D01*
X433369Y828890D01*
X420369D01*
X416369Y832890D01*
X377349D01*
X350995Y806536D01*
X345995D01*
X343995Y808536D01*
Y816536D01*
X360995Y833536D01*
Y837016D01*
X369369Y845390D01*
Y849304D01*
X370329Y849702D01*
X371517Y850890D01*
X427369D01*
X435369Y842890D01*
D02*
G37*
G36*
X647000Y908000D02*
Y698000D01*
X690000Y655000D01*
Y603162D01*
Y602208D01*
X688917Y601544D01*
X688372Y601822D01*
X684249Y603162D01*
X679967Y603840D01*
X679070D01*
Y576300D01*
Y548760D01*
X679967D01*
X684249Y549438D01*
X688372Y550778D01*
X688917Y551056D01*
X690000Y550392D01*
Y502500D01*
X647000Y459500D01*
Y253000D01*
X615000Y221000D01*
X561000D01*
X524000Y258000D01*
X472005D01*
Y911000D01*
X478005Y917000D01*
X638000D01*
X647000Y908000D01*
D02*
G37*
G36*
X239000Y771000D02*
Y698292D01*
X211353Y670647D01*
X210707Y670000D01*
X187000D01*
X133000Y616000D01*
Y592292D01*
X99604Y558901D01*
Y293901D01*
X115608Y277896D01*
Y261901D01*
X111608Y257901D01*
X-75392D01*
Y452900D01*
X-120392Y497900D01*
Y551356D01*
X-119309Y552020D01*
X-116872Y550778D01*
X-112749Y549438D01*
X-108467Y548760D01*
X-107570D01*
Y576300D01*
Y603840D01*
X-108467D01*
X-112749Y603162D01*
X-116872Y601822D01*
X-119309Y600580D01*
X-120392Y601244D01*
Y652608D01*
X-75392Y697608D01*
X-75392Y910901D01*
X-69392Y916901D01*
X93099D01*
X239000Y771000D01*
D02*
G37*
G36*
X248225Y471075D02*
Y444825D01*
X238225D01*
X234475Y448575D01*
X234475Y470825D01*
X237475Y473825D01*
X245475D01*
X248225Y471075D01*
D02*
G37*
G36*
X275225Y442950D02*
X255225D01*
X251284Y446891D01*
Y471009D01*
X259225Y478950D01*
X275225Y478950D01*
Y442950D01*
D02*
G37*
G36*
X263225Y435950D02*
X263225Y422950D01*
X262225Y421950D01*
X238225D01*
X237225Y422950D01*
Y435950D01*
X238225Y436950D01*
X262225D01*
X263225Y435950D01*
D02*
G37*
G36*
Y417950D02*
Y393950D01*
X261225Y391950D01*
X239225D01*
X237225Y393950D01*
Y417950D01*
X238176Y418901D01*
X238225Y418891D01*
X238225Y418891D01*
X262225D01*
X262225Y418891D01*
X262274Y418901D01*
X263225Y417950D01*
D02*
G37*
G36*
X184000Y415102D02*
X184000Y368531D01*
X183979Y368522D01*
X182478Y367021D01*
X181666Y365061D01*
Y362939D01*
X182478Y360979D01*
X183979Y359478D01*
X184000Y359469D01*
X184000Y356531D01*
X183979Y356522D01*
X182478Y355022D01*
X181666Y353061D01*
Y350939D01*
X182478Y348979D01*
X183979Y347478D01*
X184000Y347469D01*
X184000Y336543D01*
X183478Y336021D01*
X182666Y334061D01*
Y331939D01*
X183478Y329978D01*
X184979Y328478D01*
X185906Y328094D01*
X193000Y321000D01*
X385000Y321000D01*
X388000Y318000D01*
X388000Y305000D01*
X386000Y303000D01*
X158000Y303000D01*
X151000Y310000D01*
Y399000D01*
X168000Y416000D01*
X183102D01*
X184000Y415102D01*
D02*
G37*
G36*
X75000Y235000D02*
Y202000D01*
X136000Y141000D01*
X170000D01*
X186000Y157000D01*
Y195000D01*
X190000Y199000D01*
X201000D01*
X202000Y198586D01*
Y192000D01*
X348000D01*
X350000Y190000D01*
Y176000D01*
X341000Y167000D01*
X330662D01*
X329830Y168270D01*
X330329Y169475D01*
Y171597D01*
X329517Y173557D01*
X328017Y175058D01*
X326056Y175870D01*
X323934D01*
X321974Y175058D01*
X320473Y173557D01*
X319661Y171597D01*
Y169475D01*
X320160Y168270D01*
X319328Y167000D01*
X259000D01*
X253906Y161906D01*
X252978Y161522D01*
X251478Y160021D01*
X251094Y159094D01*
X201000Y109000D01*
X200000Y108000D01*
Y18296D01*
X199941Y18000D01*
X199941Y18000D01*
Y-5000D01*
X199941Y-5000D01*
X200000Y-5296D01*
Y-34000D01*
X195000Y-39000D01*
Y-52000D01*
X170000Y-77000D01*
X-25000Y-77000D01*
X-63000Y-115000D01*
X-93000D01*
X-96000Y-118000D01*
Y-122000D01*
X-101000Y-122000D01*
X-103000Y-120000D01*
Y-106000D01*
X-98000Y-101000D01*
X-74000D01*
X-34000Y-61000D01*
X154726D01*
X172392Y-43334D01*
X172561D01*
X174522Y-42522D01*
X176022Y-41021D01*
X176834Y-39061D01*
Y-38892D01*
X185916Y-29810D01*
X186908Y-29147D01*
X187571Y-28155D01*
X188000Y-27726D01*
Y-9000D01*
X187084Y-8084D01*
X186908Y-7821D01*
X186646Y-7646D01*
X182000Y-3000D01*
Y73000D01*
X141000Y114000D01*
X117000D01*
X42000Y189000D01*
Y240000D01*
X46000Y244000D01*
X66000D01*
X75000Y235000D01*
D02*
G37*
G36*
X416245Y-23468D02*
X408245D01*
Y-7468D01*
X416245D01*
Y-23468D01*
D02*
G37*
G36*
X163246D02*
X155246D01*
Y-7468D01*
X163246D01*
Y-23468D01*
D02*
G37*
G36*
X393000Y-40000D02*
Y-49000D01*
X390000Y-52000D01*
X377059D01*
X377059Y-35941D01*
X380000Y-33000D01*
X386000D01*
X393000Y-40000D01*
D02*
G37*
G36*
X373000Y-23000D02*
X374000Y-24000D01*
X374000Y-52000D01*
X297000D01*
Y-26000D01*
X300000Y-23000D01*
X328999D01*
X373000Y-23000D01*
D02*
G37*
G36*
X293951Y-25951D02*
X293941Y-26000D01*
X293941Y-26000D01*
Y-52000D01*
X217000D01*
Y-19000D01*
X203000Y-5000D01*
Y18000D01*
X206000Y21000D01*
X247000D01*
X293951Y-25951D01*
D02*
G37*
G36*
X417231Y-72050D02*
X417231Y-87195D01*
X398426Y-106000D01*
X324353D01*
X324113Y-105642D01*
X323121Y-104979D01*
X321950Y-104746D01*
X319928D01*
X301231Y-86049D01*
Y-65195D01*
X410377Y-65195D01*
X417231Y-72050D01*
D02*
G37*
G36*
X315951Y-107805D02*
X321950D01*
Y-113509D01*
X321892Y-113805D01*
X321892Y-113805D01*
X321892Y-129538D01*
X321788Y-129642D01*
X321125Y-130634D01*
X320892Y-131805D01*
X320892Y-131805D01*
Y-138805D01*
X311950D01*
Y-143805D01*
X267950D01*
X265951Y-141805D01*
Y-108805D01*
Y-80805D01*
X288951D01*
X315951Y-107805D01*
D02*
G37*
G36*
X153000Y-148000D02*
X126000D01*
X124000Y-146000D01*
Y-123000D01*
X126000Y-121000D01*
X153000D01*
Y-148000D01*
D02*
G37*
G36*
X497000Y-156000D02*
X488000Y-165000D01*
X431255D01*
Y-152786D01*
X430755D01*
Y-128286D01*
X431255D01*
Y-119768D01*
X475368D01*
X476218Y-121241D01*
X476563Y-121586D01*
X476562Y-121586D01*
X477959Y-122982D01*
X480091Y-124213D01*
X482469Y-124851D01*
X483700D01*
Y-136150D01*
X482469D01*
X480091Y-136787D01*
X477959Y-138018D01*
X476562Y-139414D01*
X476563Y-139414D01*
X476218Y-139759D01*
X474987Y-141891D01*
X474350Y-144269D01*
Y-146731D01*
X474987Y-149109D01*
X476218Y-151241D01*
X477959Y-152982D01*
X480091Y-154213D01*
X482469Y-154850D01*
X484931D01*
X487309Y-154213D01*
X489441Y-152982D01*
X491182Y-151241D01*
X492413Y-149109D01*
X493050Y-146731D01*
Y-144269D01*
X492413Y-141891D01*
X491182Y-139759D01*
X490837Y-139414D01*
X492782Y-137469D01*
X494277Y-134881D01*
X495050Y-131994D01*
Y-129006D01*
X494277Y-126119D01*
X492782Y-123531D01*
X490837Y-121586D01*
X491182Y-121241D01*
X492032Y-119768D01*
X497000D01*
Y-156000D01*
D02*
G37*
G36*
X425005Y-153536D02*
X423005Y-155536D01*
X414005Y-155536D01*
X410005Y-151536D01*
Y-136536D01*
X411005Y-135536D01*
X425005D01*
X425005Y-153536D01*
D02*
G37*
G36*
X343951Y-111805D02*
X389951D01*
X399950Y-121805D01*
Y-143805D01*
X387951Y-155805D01*
X370951D01*
Y-147805D01*
X366950Y-143805D01*
X333951D01*
Y-138805D01*
X323951D01*
Y-131805D01*
X324950Y-130805D01*
X324950Y-113805D01*
X326950Y-111805D01*
X343951Y-111805D01*
D02*
G37*
G36*
X242950Y-143805D02*
X250951Y-151805D01*
X250951Y-163805D01*
X193805D01*
X191000Y-161000D01*
X191000Y-133755D01*
X219951Y-104805D01*
Y-80805D01*
X242950D01*
Y-143805D01*
D02*
G37*
G36*
X168000Y-164000D02*
Y-186000D01*
X165000Y-189000D01*
X145000D01*
X143000Y-187000D01*
X142000Y-186000D01*
Y-166000D01*
X145000Y-163000D01*
X167000D01*
X168000Y-164000D01*
D02*
G37*
G36*
X266950Y-172805D02*
Y-191805D01*
X263951Y-194805D01*
X206805D01*
X200000Y-188000D01*
Y-170805D01*
X264951D01*
X266950Y-172805D01*
D02*
G37*
G36*
X284993Y-190091D02*
X286993Y-192091D01*
X305909D01*
X318730Y-179270D01*
X319270D01*
Y-170730D01*
X318993D01*
Y-157591D01*
X321993D01*
Y-170091D01*
X324617Y-172714D01*
Y-172866D01*
X325429Y-174826D01*
X326929Y-176327D01*
X328890Y-177139D01*
X329042D01*
X330993Y-179091D01*
Y-190091D01*
X320993Y-200091D01*
X278993D01*
X273993Y-195091D01*
Y-151091D01*
X276993Y-148091D01*
X284993D01*
Y-190091D01*
D02*
G37*
%LPC*%
G36*
X676530Y603840D02*
X675632D01*
X671351Y603162D01*
X667228Y601822D01*
X663366Y599854D01*
X659859Y597306D01*
X656794Y594241D01*
X654246Y590734D01*
X652278Y586872D01*
X650938Y582749D01*
X650260Y578467D01*
Y577570D01*
X676530D01*
Y603840D01*
D02*
G37*
G36*
Y575030D02*
X650260D01*
Y574132D01*
X650938Y569851D01*
X652278Y565728D01*
X654246Y561866D01*
X656794Y558359D01*
X659859Y555294D01*
X663366Y552746D01*
X667228Y550778D01*
X671351Y549438D01*
X675632Y548760D01*
X676530D01*
Y575030D01*
D02*
G37*
G36*
X197918Y759540D02*
X197020D01*
Y733270D01*
X223290D01*
Y734167D01*
X222612Y738449D01*
X221273Y742572D01*
X219305Y746434D01*
X216757Y749941D01*
X213691Y753006D01*
X210184Y755554D01*
X206322Y757522D01*
X202199Y758862D01*
X197918Y759540D01*
D02*
G37*
G36*
X194480D02*
X193583D01*
X189301Y758862D01*
X185179Y757522D01*
X181316Y755554D01*
X177809Y753006D01*
X174744Y749941D01*
X172196Y746434D01*
X170228Y742572D01*
X168888Y738449D01*
X168210Y734167D01*
Y733270D01*
X194480D01*
Y759540D01*
D02*
G37*
G36*
X223290Y730730D02*
X197020D01*
Y704460D01*
X197918D01*
X202199Y705138D01*
X206322Y706478D01*
X210184Y708446D01*
X213691Y710994D01*
X216757Y714059D01*
X219305Y717566D01*
X221273Y721428D01*
X222612Y725551D01*
X223290Y729833D01*
Y730730D01*
D02*
G37*
G36*
X194480D02*
X168210D01*
Y729833D01*
X168888Y725551D01*
X170228Y721428D01*
X172196Y717566D01*
X174744Y714059D01*
X177809Y710994D01*
X181316Y708446D01*
X185179Y706478D01*
X189301Y705138D01*
X193583Y704460D01*
X194480D01*
Y730730D01*
D02*
G37*
G36*
X-104132Y603840D02*
X-105030D01*
Y577570D01*
X-78760D01*
Y578467D01*
X-79438Y582749D01*
X-80778Y586872D01*
X-82746Y590734D01*
X-85294Y594241D01*
X-88359Y597306D01*
X-91866Y599854D01*
X-95728Y601822D01*
X-99851Y603162D01*
X-104132Y603840D01*
D02*
G37*
G36*
X-78760Y575030D02*
X-105030D01*
Y548760D01*
X-104132D01*
X-99851Y549438D01*
X-95728Y550778D01*
X-91866Y552746D01*
X-88359Y555294D01*
X-85294Y558359D01*
X-82746Y561866D01*
X-80778Y565728D01*
X-79438Y569851D01*
X-78760Y574132D01*
Y575030D01*
D02*
G37*
G36*
X170061Y337334D02*
X167939D01*
X165979Y336522D01*
X164478Y335022D01*
X163666Y333061D01*
Y330939D01*
X164478Y328979D01*
X165979Y327478D01*
X167939Y326666D01*
X170061D01*
X172021Y327478D01*
X173522Y328979D01*
X174334Y330939D01*
Y333061D01*
X173522Y335022D01*
X172021Y336522D01*
X170061Y337334D01*
D02*
G37*
%LPD*%
G36*
G01X440984Y150350D02*
G01Y137650D01*
G02X434634Y144000I0J6350D01*
G02X440984Y150350I6350J0D01*
D02*
G37*
G36*
G01X443016Y137650D02*
G01Y150350D01*
G02X449366Y144000I0J-6350D01*
G02X443016Y137650I-6350J0D01*
D02*
G37*
D11*
X431614Y151338D02*
Y158500D01*
Y151338D02*
X438952Y144000D01*
X170650Y903846D02*
Y905300D01*
X168000Y901196D02*
X170650Y903846D01*
X168000Y886000D02*
Y901196D01*
Y886000D02*
X172873Y881127D01*
X176873D02*
X177000Y881000D01*
X172873Y881127D02*
X176873D01*
X291995Y862936D02*
Y878186D01*
X297195Y903836D02*
Y916436D01*
Y895228D02*
Y903836D01*
Y895228D02*
X298833Y893591D01*
X302409D01*
X303000Y893000D01*
X443464Y74700D02*
Y74830D01*
X443484Y74850D02*
X448850D01*
X443464Y74830D02*
X443484Y74850D01*
X448850D02*
X449000Y75000D01*
X291995Y862936D02*
X291995Y862936D01*
X257195Y896736D02*
X259995Y893936D01*
X257195Y896736D02*
Y903836D01*
X312195Y896736D02*
X314995Y893936D01*
X312195Y896736D02*
Y903836D01*
X270000Y894000D02*
Y894836D01*
X271945Y896781D01*
Y903586D01*
X272195Y903836D01*
X423464Y48792D02*
Y48876D01*
X418104Y48896D02*
X423444D01*
X423464Y48876D01*
X418000Y49000D02*
X418104Y48896D01*
X272195Y916436D02*
X272695Y916936D01*
X272195Y903836D02*
Y916436D01*
X296695Y916936D02*
X297195Y916436D01*
D13*
X386000Y686000D02*
X447000Y625000D01*
X306107Y686000D02*
X386000D01*
X447000Y395000D02*
Y625000D01*
X301000Y682000D02*
X384000D01*
X441000Y325000D02*
Y625000D01*
X384000Y682000D02*
X441000Y625000D01*
X298000Y677000D02*
X383000D01*
X437000Y623000D01*
Y321000D02*
Y623000D01*
X295000Y672000D02*
X383000D01*
X434206Y539206D02*
Y620794D01*
X383000Y672000D02*
X434206Y620794D01*
X294000Y667000D02*
X382000D01*
X431000Y618000D01*
Y542000D02*
Y618000D01*
X630000Y-60000D02*
X640000Y-70000D01*
X587000Y-60000D02*
X630000D01*
X580000Y-53000D02*
X587000Y-60000D01*
X575000Y-56000D02*
X582000Y-63000D01*
X619000D02*
X629000Y-73000D01*
X582000Y-63000D02*
X619000D01*
X496000Y98000D02*
Y216000D01*
Y98000D02*
X508000Y86000D01*
Y-41000D02*
Y86000D01*
X512000Y-40000D02*
Y88000D01*
X504000Y96000D02*
Y123000D01*
Y96000D02*
X512000Y88000D01*
X376000Y371000D02*
X415000Y332000D01*
X412000Y318000D02*
X415000Y321000D01*
Y332000D01*
X376000Y377000D02*
X419000Y334000D01*
Y320000D02*
Y334000D01*
X413000Y314000D02*
X419000Y320000D01*
X289000Y686000D02*
Y693000D01*
Y686000D02*
X298000Y677000D01*
X295000Y688000D02*
X301000Y682000D01*
X289000Y703000D02*
X295000Y697000D01*
Y688000D02*
Y697000D01*
X512000Y-40000D02*
X532000Y-60000D01*
X508000Y-41000D02*
X530000Y-63000D01*
X535000Y-53000D02*
X580000D01*
X520000Y-38000D02*
Y134414D01*
Y-38000D02*
X535000Y-53000D01*
X516000Y-39000D02*
X533000Y-56000D01*
X575000D01*
X513000Y-51000D02*
X528000Y-66000D01*
X511000Y-54000D02*
X526000Y-69000D01*
X509000Y-57000D02*
X524000Y-72000D01*
X507000Y-60000D02*
X522000Y-75000D01*
X564000Y-72000D02*
X570000Y-78000D01*
X524000Y-72000D02*
X564000D01*
X526000Y-69000D02*
X566000D01*
X572000Y-75000D01*
X573000Y-60000D02*
X579588Y-66588D01*
X532000Y-60000D02*
X573000D01*
X571000Y-63000D02*
X577382Y-69382D01*
X530000Y-63000D02*
X571000D01*
X560500Y-75000D02*
X568500Y-83000D01*
X522000Y-75000D02*
X560500D01*
X528000Y-66000D02*
X569000D01*
X575176Y-72176D01*
X579588Y-66588D02*
X613588D01*
X585000Y-92000D02*
Y-80000D01*
X570000Y-78000D02*
X583000D01*
X585000Y-80000D01*
X590500Y-83000D02*
Y-78500D01*
X587000Y-75000D02*
X590500Y-78500D01*
X572000Y-75000D02*
X587000D01*
X589176Y-72176D02*
X596000Y-79000D01*
X575176Y-72176D02*
X589176D01*
X596000Y-92000D02*
Y-79000D01*
X598882Y-69382D02*
X612500Y-83000D01*
X577382Y-69382D02*
X598882D01*
X613588Y-66588D02*
X622000Y-75000D01*
X516000Y-39000D02*
Y133000D01*
X504500Y149914D02*
X520000Y134414D01*
X500000Y149000D02*
X516000Y133000D01*
X504000Y123000D02*
X510000Y129000D01*
X488000Y236000D02*
X500000Y224000D01*
Y149000D02*
Y224000D01*
X490000Y240000D02*
X504500Y225500D01*
Y149914D02*
Y225500D01*
X480000Y232000D02*
X496000Y216000D01*
X452000Y244000D02*
X464000Y232000D01*
X480000D01*
X467000Y236000D02*
X488000D01*
X456000Y247000D02*
X467000Y236000D01*
X452000Y244000D02*
Y306000D01*
X460000Y250000D02*
X470000Y240000D01*
X490000D01*
X437000Y321000D02*
X452000Y306000D01*
X456000Y247000D02*
Y310000D01*
X441000Y325000D02*
X456000Y310000D01*
X380000Y485000D02*
X434206Y539206D01*
X378000Y489000D02*
X431000Y542000D01*
X403000Y318000D02*
X412000D01*
X405000Y314000D02*
X413000D01*
X393369Y308369D02*
X403000Y318000D01*
X397000Y306000D02*
X405000Y314000D01*
X200000Y845000D02*
X203000Y848000D01*
X169000Y851000D02*
X175000Y845000D01*
X200000D01*
X206000Y850922D02*
Y851000D01*
X203000Y848000D02*
X203078D01*
X206000Y850922D01*
Y851000D02*
X219000Y864000D01*
Y900000D01*
X182000Y851000D02*
X196000D01*
X163000Y857000D02*
X176000D01*
X182000Y851000D01*
X137185Y882814D02*
Y904121D01*
Y882814D02*
X163000Y857000D01*
X169000Y863000D02*
X186000D01*
X168000Y864000D02*
X169000Y863000D01*
X168000Y864000D02*
Y871000D01*
X176000D01*
X210000Y909000D02*
X219000Y900000D01*
X192350Y909000D02*
X210000D01*
X183350Y918000D02*
X192350Y909000D01*
X183350Y918000D02*
Y918000D01*
X142065Y909000D02*
X161650D01*
X137185Y904121D02*
X142065Y909000D01*
X176000Y871000D02*
X184493Y879493D01*
Y895704D01*
X303107Y689000D02*
X306107Y686000D01*
X303000Y689000D02*
X303107D01*
X183350Y896847D02*
X184493Y895704D01*
X183350Y896847D02*
Y905300D01*
X161650Y909000D02*
X170650Y918000D01*
X418000Y165000D02*
X424500Y171500D01*
X431614D01*
X418000Y165000D02*
X431614D01*
X445048Y144000D02*
X452386Y151338D01*
X329000Y134000D02*
X477000D01*
X482000Y129000D01*
Y115000D02*
Y129000D01*
X324000Y139000D02*
X329000Y134000D01*
X452386Y151338D02*
Y158500D01*
X470000Y153000D02*
X477000D01*
X464500Y158500D02*
X470000Y153000D01*
X477000D02*
X487000Y143000D01*
Y17000D02*
Y143000D01*
X452386Y158500D02*
X464500D01*
X431000Y41000D02*
X433464Y43464D01*
X418000Y41000D02*
X431000D01*
X406000Y53000D02*
X418000Y41000D01*
X433464Y43464D02*
Y48792D01*
X489000Y-1000D02*
Y15000D01*
X487000Y17000D02*
X489000Y15000D01*
X504000Y-11000D02*
Y51000D01*
X492889Y-22111D02*
X504000Y-11000D01*
X501000Y54000D02*
X504000Y51000D01*
X490889Y-22111D02*
X492889D01*
X479000Y-34000D02*
X490889Y-22111D01*
X592000Y-133503D02*
X596000Y-137503D01*
Y-162000D02*
Y-137503D01*
X592000Y-133503D02*
Y-133000D01*
X388000Y809000D02*
X406000D01*
X381000Y802000D02*
X388000Y809000D01*
X322500Y802000D02*
X381000D01*
X293000Y831500D02*
X322500Y802000D01*
X277000Y775000D02*
X299000Y797000D01*
X299000D01*
X277000Y684000D02*
Y775000D01*
X282000Y770000D02*
X309000Y797000D01*
X310000D01*
X282000Y685000D02*
Y770000D01*
X482000Y930000D02*
X491000D01*
X438890Y886890D02*
X482000Y930000D01*
X397974Y886890D02*
X438890D01*
X391433Y880349D02*
X397974Y886890D01*
X190000Y657000D02*
X211000D01*
X267000Y713000D02*
Y837000D01*
X211000Y657000D02*
X267000Y713000D01*
X189000Y663000D02*
X210000D01*
X139000Y536000D02*
Y613000D01*
X189000Y663000D01*
X143000Y610000D02*
X190000Y657000D01*
X143000Y542000D02*
Y610000D01*
Y542000D02*
X229125Y455875D01*
X178000Y476175D02*
X224299Y429876D01*
X178000Y476175D02*
Y497000D01*
X229125Y427877D02*
Y455875D01*
X139000Y536000D02*
X178000Y497000D01*
X210000Y663000D02*
X262000Y715000D01*
Y872000D01*
X334000Y485000D02*
X380000D01*
X333000Y489000D02*
X378000D01*
X277000Y684000D02*
X294000Y667000D01*
X282000Y685000D02*
X295000Y672000D01*
X447000Y395000D02*
X460000Y382000D01*
X299000Y455000D02*
X333000Y489000D01*
X299000Y439000D02*
Y455000D01*
X329000Y480000D02*
X334000Y485000D01*
X329000Y460650D02*
Y480000D01*
Y460650D02*
X341650Y448000D01*
X436000Y-46000D02*
X441000Y-51000D01*
X427826Y-54174D02*
X434999D01*
X434000Y-38000D02*
X442826Y-46826D01*
X420000Y-62000D02*
X427826Y-54174D01*
X442826Y-46826D02*
X462450D01*
X441000Y-51000D02*
X513000D01*
X433000Y-60000D02*
X507000D01*
X462450Y-46826D02*
X463276Y-46000D01*
X438776Y-54000D02*
X511000D01*
X437825Y-57000D02*
X509000D01*
X434999Y-54174D02*
X437825Y-57000D01*
X434776Y-50000D02*
X438776Y-54000D01*
X463276Y-46000D02*
X484000D01*
X415000Y-38000D02*
X434000D01*
X629000Y-77500D02*
Y-73000D01*
Y-77500D02*
X634500Y-83000D01*
X622000Y-81500D02*
Y-75000D01*
Y-81500D02*
X623500Y-83000D01*
X640000Y-92000D02*
Y-70000D01*
X290000Y-62000D02*
X420000D01*
X283000Y-69000D02*
X290000Y-62000D01*
X474000Y111000D02*
X479206Y116206D01*
X471000Y104000D02*
X482000Y115000D01*
X479206Y116206D02*
Y123794D01*
X474000Y129000D02*
X479206Y123794D01*
X428464Y98464D02*
X438000Y108000D01*
X441000Y111000D01*
X474000D01*
X460000Y250000D02*
Y382000D01*
X536000Y-79000D02*
X540000Y-83000D01*
X520000Y-79000D02*
X536000D01*
X508000Y-67000D02*
X520000Y-79000D01*
X490181Y-67000D02*
X508000D01*
X262000Y872000D02*
X276000Y886000D01*
X267000Y837000D02*
X280000Y850000D01*
X435000Y226000D02*
X465000D01*
X468000Y114000D02*
X474000Y120000D01*
X431000Y114000D02*
X468000D01*
X387000Y120000D02*
X465000D01*
X353000Y86000D02*
X387000Y120000D01*
X146500Y-35000D02*
X167901D01*
X139500Y-28000D02*
X146500Y-35000D01*
X167901D02*
X170901Y-38000D01*
X171500D01*
X85000Y-28000D02*
X139500D01*
X413000Y-46000D02*
X436000D01*
X403000Y-56000D02*
X413000Y-46000D01*
X280000Y-56000D02*
X403000D01*
X417000Y-59000D02*
X426000Y-50000D01*
X434776D01*
X284000Y-59000D02*
X417000D01*
X277000D02*
X280000Y-56000D01*
X214245Y-69000D02*
X283000D01*
X278893Y-64107D02*
X284000Y-59000D01*
X397000Y300000D02*
Y306000D01*
X393369Y302369D02*
Y308369D01*
X316175Y371000D02*
X376000D01*
X362000Y271000D02*
X393369Y302369D01*
X217000Y271000D02*
X362000D01*
X219000Y267000D02*
X364000D01*
X397000Y300000D01*
X317000Y377000D02*
X376000D01*
X230000Y261000D02*
X253348Y237652D01*
X423348D01*
X449000Y365000D02*
Y381000D01*
X301174Y386001D02*
X316175Y371000D01*
X306000Y388000D02*
X317000Y377000D01*
X301174Y386001D02*
Y395174D01*
X304000Y398000D01*
X367000Y-17000D02*
X387000Y3000D01*
X322000Y-17000D02*
X367000D01*
X230000Y17000D02*
X231000D01*
X387000Y3000D02*
X459000D01*
X336350Y430000D02*
X341650Y435300D01*
X296000Y436000D02*
X302000Y430000D01*
X336350D01*
X329650Y436000D02*
X341650Y448000D01*
X304000Y436000D02*
X329650D01*
X201000Y352000D02*
X213000Y340000D01*
X187000Y352000D02*
X201000D01*
X213000Y340000D02*
X268000D01*
X215000Y344000D02*
X266000D01*
X195000Y364000D02*
X215000Y344000D01*
X187000Y364000D02*
X195000D01*
X226298Y425050D02*
X229125Y427877D01*
X-51000Y-114000D02*
X26000Y-191000D01*
X132000D01*
X209131Y-56869D02*
X213246D01*
X209000Y-57000D02*
X209131Y-56869D01*
X208246Y-56245D02*
X209000Y-57000D01*
X208246Y-56245D02*
Y-46464D01*
X203246Y-58000D02*
X214245Y-69000D01*
X203217Y-57971D02*
X203246Y-58000D01*
Y-46464D01*
X198246Y-57078D02*
Y-46464D01*
Y-57078D02*
X199138Y-57971D01*
X203217D01*
X213312Y-61634D02*
Y-56935D01*
X214893Y-63215D02*
Y-63215D01*
X213312Y-61634D02*
X214893Y-63215D01*
Y-63215D02*
X215786Y-64107D01*
X278893D01*
X152000Y150000D02*
Y227000D01*
Y150000D02*
X155000Y147000D01*
X161000Y152000D02*
Y183825D01*
Y152000D02*
X166000Y147000D01*
X184000Y238000D02*
X217000Y271000D01*
X191000Y239000D02*
X219000Y267000D01*
X296000Y436000D02*
X299000Y439000D01*
X629000Y-105000D02*
Y-92000D01*
X627826Y-106174D02*
X629000Y-105000D01*
X627826Y-117174D02*
Y-106174D01*
X602000Y-133000D02*
X611826Y-142826D01*
Y-152326D02*
Y-142826D01*
Y-152326D02*
X612500Y-153000D01*
X161000Y183825D02*
X174782Y197607D01*
Y200782D02*
X176000Y202000D01*
X174782Y197607D02*
Y200782D01*
X167000Y230000D02*
X176000Y221000D01*
X152000Y227000D02*
X155000Y230000D01*
X167000D01*
X176000Y215000D02*
X176000Y215000D01*
Y221000D01*
X633000Y-109000D02*
Y-102500D01*
X634500Y-101000D01*
X615000Y-130000D02*
X627826Y-117174D01*
X288000Y360000D02*
Y428000D01*
X268000Y340000D02*
X288000Y360000D01*
Y428000D02*
X296000Y436000D01*
X423348Y237652D02*
X435000Y226000D01*
X266000Y344000D02*
X284000Y362000D01*
Y422075D01*
X282000Y424075D02*
X284000Y422075D01*
X282000Y424075D02*
Y425000D01*
X294000Y850000D02*
X308000Y864000D01*
X280000Y850000D02*
X294000D01*
X308000Y864000D02*
Y874931D01*
X224225Y420950D02*
X225003Y421728D01*
Y424005D01*
X226047Y425050D02*
X226298D01*
X225003Y424005D02*
X226047Y425050D01*
X305995Y876936D02*
X308000Y874931D01*
X301995Y876936D02*
X305995D01*
X191000Y211000D02*
Y239000D01*
X184000Y204000D02*
X191000Y211000D01*
X184000Y212000D02*
Y238000D01*
X178000Y204000D02*
X184000D01*
X428464Y74700D02*
Y98464D01*
X513000Y-179000D02*
X519000Y-185000D01*
X562262D01*
X432000Y-179000D02*
X513000D01*
X525000Y-181000D02*
X564738D01*
X510000Y-166000D02*
X525000Y-181000D01*
X512000Y-155241D02*
Y-155000D01*
Y-155241D02*
X514908Y-158149D01*
X536676D01*
X555000Y-188000D02*
X558000Y-191000D01*
X508000Y-188000D02*
X555000D01*
X558000Y-191000D02*
X592500D01*
X549000D02*
X553000Y-195000D01*
X535000Y-191000D02*
X549000D01*
X553000Y-195000D02*
X599000D01*
X504000Y-194000D02*
X532000D01*
X498000Y-188000D02*
X504000Y-194000D01*
X532000D02*
X535000Y-191000D01*
X564738Y-181000D02*
X567738Y-184000D01*
X584024D01*
X562262Y-185000D02*
X564262Y-187000D01*
X585500D01*
X584024Y-184000D02*
X588722Y-179302D01*
Y-172778D01*
X585500Y-187000D02*
X601500Y-171000D01*
X588722Y-172778D02*
X590500Y-171000D01*
X528100Y-176000D02*
X529445Y-177345D01*
X562155D01*
X527107Y-176000D02*
X528100D01*
X562155Y-177345D02*
X568500Y-171000D01*
X535000Y-172000D02*
X539722Y-167278D01*
X546722D01*
X599000Y-195000D02*
X618000Y-176000D01*
X592500Y-191000D02*
X612500Y-171000D01*
X546722Y-167278D02*
X548500Y-165500D01*
X542772Y-156278D02*
X546722D01*
X526000Y-168000D02*
X531050D01*
X542772Y-156278D01*
X536676Y-158149D02*
X545825Y-149000D01*
X546722Y-156278D02*
X548500Y-154500D01*
X545825Y-149000D02*
X557500D01*
X509206Y-139206D02*
X523000Y-153000D01*
X534893D01*
X531000Y-146000D02*
X531722Y-145278D01*
X546722D01*
X548500Y-143500D01*
X519000Y-138000D02*
X530175D01*
X533175Y-141000D01*
X540825D01*
X543825Y-138000D01*
X542600Y-132500D02*
X548500D01*
X539100Y-136000D02*
X542600Y-132500D01*
X543825Y-138000D02*
X557500D01*
X538000Y-136000D02*
X539100D01*
X597000Y-120000D02*
Y-112000D01*
X567174Y-131826D02*
X585174D01*
X597000Y-120000D01*
X566500Y-121500D02*
X578500D01*
X588000Y-112000D01*
X427000Y110000D02*
X431000Y114000D01*
X423464Y106464D02*
X427000Y110000D01*
X512000Y-131000D02*
X519000Y-138000D01*
X512000Y-131000D02*
Y-119000D01*
X459000Y3000D02*
X463000Y-1000D01*
X481000D01*
X596486Y-106014D02*
X601500Y-101000D01*
X575000D02*
X580014Y-106014D01*
X596486D01*
X497000Y-82000D02*
X503000Y-88000D01*
Y-110000D02*
Y-88000D01*
X497000Y-73000D02*
X508000Y-84000D01*
Y-110000D02*
Y-84000D01*
X486681Y-70500D02*
X490181Y-67000D01*
X483700Y-70500D02*
X486681D01*
X223000Y-59000D02*
X277000D01*
X213246Y-56869D02*
Y-46464D01*
X423464Y74700D02*
Y106464D01*
X509206Y-139206D02*
Y-121206D01*
X502000Y-114000D02*
X509206Y-121206D01*
X497200Y-114000D02*
X502000D01*
X483700Y-100500D02*
X497200Y-114000D01*
X508000Y-110000D02*
X520826Y-122826D01*
X503000Y-110000D02*
X512000Y-119000D01*
X634000Y-152500D02*
X634500Y-153000D01*
X634000Y-152500D02*
Y-146000D01*
X623000Y-152500D02*
X623500Y-153000D01*
X623000Y-152500D02*
Y-139000D01*
X575500Y-127000D02*
X582000D01*
X566500Y-132500D02*
X567174Y-131826D01*
X614278Y-111278D02*
X615000Y-112000D01*
X614278Y-111278D02*
Y-102778D01*
X612500Y-101000D02*
X614278Y-102778D01*
X179000Y212000D02*
X184000D01*
X176000Y215000D02*
X179000Y212000D01*
X572900Y-147000D02*
X574000D01*
X568278Y-145278D02*
X571178D01*
X566500Y-143500D02*
X568278Y-145278D01*
X571178D02*
X572900Y-147000D01*
X520826Y-122826D02*
X540826D01*
X545000Y-127000D01*
X557500D01*
X404000Y-151000D02*
X432000Y-179000D01*
X618000Y-176000D02*
Y-162000D01*
X404000Y-151000D02*
Y-135000D01*
X410000Y-129000D01*
X421100D01*
X623000Y-108000D02*
Y-101500D01*
X275995Y886005D02*
X276000Y886000D01*
X275995Y886005D02*
Y893936D01*
X277195Y895136D01*
X421100Y-129000D02*
X422886Y-130786D01*
X430964Y25700D02*
Y29200D01*
X438464Y36700D01*
Y48792D01*
X455964Y25700D02*
Y29200D01*
X443464Y41700D02*
X455964Y29200D01*
X443464Y41700D02*
Y48792D01*
X261225Y366950D02*
X261225Y366950D01*
X249225Y366950D02*
X261225D01*
X249225D02*
X249357Y367082D01*
Y375817D01*
X217225Y366950D02*
X229225D01*
X233225Y370950D01*
X236225D01*
X240225Y374950D01*
X579500Y-175500D02*
X582000Y-178000D01*
X579500Y-175500D02*
Y-171000D01*
X574000Y-178000D02*
X574000Y-178000D01*
X574000Y-178000D02*
Y-162000D01*
X583222Y-160222D02*
Y-155222D01*
Y-160222D02*
X585000Y-162000D01*
X583000Y-155000D02*
X583222Y-155222D01*
X337995Y842536D02*
X346995Y833536D01*
X337995Y842536D02*
Y872536D01*
X325164Y-168125D02*
Y-164092D01*
X328066Y-171027D02*
X329173D01*
X325164Y-164092D02*
X325451Y-163805D01*
X325164Y-168125D02*
X328066Y-171027D01*
X329173D02*
X329950Y-171805D01*
X581000Y-138000D02*
X588000Y-145000D01*
X575500Y-138000D02*
X581000D01*
X623000Y-101500D02*
X623500Y-101000D01*
X301995Y876936D02*
X301995Y876936D01*
X314995Y884936D02*
X339995Y909936D01*
X305995Y884936D02*
X314995D01*
X339995Y909936D02*
Y934936D01*
X301995Y877936D02*
Y880936D01*
X305995Y884936D01*
X301995Y876936D02*
Y877936D01*
X293995Y885936D02*
X296995Y882936D01*
Y878186D02*
Y882936D01*
X335995Y938936D02*
X339995Y934936D01*
X307695Y938936D02*
X335995D01*
X292695Y923936D02*
X307695Y938936D01*
X277195Y895136D02*
Y903836D01*
D14*
X464500Y202000D02*
X488000D01*
X456436Y210064D02*
X464500Y202000D01*
X230604Y219604D02*
X480396D01*
X488500Y211500D01*
X247000Y215000D02*
X471500D01*
X476500Y210000D01*
X252064Y210064D02*
X456436D01*
X403000Y299000D02*
Y302000D01*
X365000Y261000D02*
X403000Y299000D01*
Y302000D02*
X410000Y309000D01*
X246000Y204000D02*
X252064Y210064D01*
X244000Y212000D02*
X247000Y215000D01*
X230000Y204000D02*
X246000D01*
X230000Y219000D02*
X230604Y219604D01*
X236000Y212000D02*
X244000D01*
X338750Y-157305D02*
X351000Y-169554D01*
Y-179000D02*
Y-169554D01*
X336950Y-157305D02*
X338750D01*
D15*
X408301Y197699D02*
X424000Y182000D01*
X479000D02*
X484000Y177000D01*
X424000Y182000D02*
X479000D01*
X519000Y-89000D02*
X521000Y-87000D01*
X513000Y-89000D02*
X519000D01*
X282195Y910436D02*
X288695Y916936D01*
X280995Y891936D02*
X283425Y889506D01*
Y883366D02*
Y889506D01*
X282195Y903836D02*
Y910436D01*
Y893136D02*
Y903836D01*
X280995Y891936D02*
X280995D01*
X280995D02*
X282195Y893136D01*
X281995Y881936D02*
X283425Y883366D01*
X281995Y878186D02*
Y881936D01*
X519000Y-97000D02*
X521000Y-99000D01*
X513000Y-97000D02*
X519000D01*
X285965Y888906D02*
X288995Y891936D01*
X287195Y893736D02*
Y903836D01*
Y893736D02*
X288995Y891936D01*
X285965Y882966D02*
Y888906D01*
Y882966D02*
X286995Y881936D01*
Y878186D02*
Y881936D01*
X229656Y197699D02*
X408301D01*
X222000Y205355D02*
X229656Y197699D01*
X222000Y205355D02*
Y218000D01*
X206000Y234000D02*
X222000Y218000D01*
X531000Y-87000D02*
X536730Y-92730D01*
X544270D01*
X531000Y-99000D02*
X534730Y-95270D01*
X544270D01*
X548500Y-99500D01*
X544270Y-92730D02*
X548500Y-88500D01*
D17*
X1727Y-443214D02*
X-2505Y-438983D01*
X-10969D01*
X-15201Y-443214D01*
Y-447447D01*
X-10969Y-451679D01*
X-2505D01*
X1727Y-455910D01*
Y-460142D01*
X-2505Y-464374D01*
X-10969D01*
X-15201Y-460142D01*
X27119Y-438983D02*
X10191D01*
Y-464374D01*
X27119D01*
X10191Y-451679D02*
X18655D01*
X52511Y-443214D02*
X48279Y-438983D01*
X39815D01*
X35583Y-443214D01*
Y-460142D01*
X39815Y-464374D01*
X48279D01*
X52511Y-460142D01*
X73671Y-438983D02*
X65207D01*
X60975Y-443214D01*
Y-460142D01*
X65207Y-464374D01*
X73671D01*
X77903Y-460142D01*
Y-443214D01*
X73671Y-438983D01*
X86367Y-464374D02*
Y-438983D01*
X103295Y-464374D01*
Y-438983D01*
X111758D02*
Y-464374D01*
X124454D01*
X128686Y-460142D01*
Y-443214D01*
X124454Y-438983D01*
X111758D01*
X137150Y-464374D02*
Y-447447D01*
X145614Y-438983D01*
X154078Y-447447D01*
Y-464374D01*
Y-451679D01*
X137150D01*
X162542Y-464374D02*
Y-438983D01*
X175238D01*
X179470Y-443214D01*
Y-451679D01*
X175238Y-455910D01*
X162542D01*
X171006D02*
X179470Y-464374D01*
X187934Y-438983D02*
Y-443214D01*
X196398Y-451679D01*
X204862Y-443214D01*
Y-438983D01*
X196398Y-451679D02*
Y-464374D01*
X255645Y-443214D02*
X251413Y-438983D01*
X242950D01*
X238717Y-443214D01*
Y-447447D01*
X242950Y-451679D01*
X251413D01*
X255645Y-455910D01*
Y-460142D01*
X251413Y-464374D01*
X242950D01*
X238717Y-460142D01*
X264109Y-438983D02*
X272573D01*
X268341D01*
Y-464374D01*
X264109D01*
X272573D01*
X285269Y-438983D02*
Y-464374D01*
X297965D01*
X302197Y-460142D01*
Y-443214D01*
X297965Y-438983D01*
X285269D01*
X327589D02*
X310661D01*
Y-464374D01*
X327589D01*
X310661Y-451679D02*
X319125D01*
X361445D02*
X378372D01*
X412228Y-438983D02*
Y-464374D01*
X429156D01*
X437620D02*
Y-447447D01*
X446084Y-438983D01*
X454548Y-447447D01*
Y-464374D01*
Y-451679D01*
X437620D01*
X463012Y-438983D02*
Y-443214D01*
X471476Y-451679D01*
X479939Y-443214D01*
Y-438983D01*
X471476Y-451679D02*
Y-464374D01*
X505331Y-438983D02*
X488404D01*
Y-464374D01*
X505331D01*
X488404Y-451679D02*
X496867D01*
X513795Y-464374D02*
Y-438983D01*
X526491D01*
X530723Y-443214D01*
Y-451679D01*
X526491Y-455910D01*
X513795D01*
X522259D02*
X530723Y-464374D01*
X577275D02*
Y-438983D01*
X564579Y-451679D01*
X581507D01*
X-145Y-288975D02*
X-8608D01*
X-12840Y-293207D01*
Y-310134D01*
X-8608Y-314366D01*
X-145D01*
X4087Y-310134D01*
Y-293207D01*
X-145Y-288975D01*
X12551D02*
Y-314366D01*
X25247D01*
X29479Y-310134D01*
Y-293207D01*
X25247Y-288975D01*
X12551D01*
X37943D02*
X46407D01*
X42175D01*
Y-314366D01*
X37943D01*
X46407D01*
X76031Y-293207D02*
X71799Y-288975D01*
X63335D01*
X59103Y-293207D01*
Y-310134D01*
X63335Y-314366D01*
X71799D01*
X76031Y-310134D01*
X88727Y-318598D02*
X92959Y-314366D01*
Y-310134D01*
X88727D01*
Y-314366D01*
X92959D01*
X88727Y-318598D01*
X84495Y-322830D01*
X135278Y-288975D02*
X143742D01*
X139510D01*
Y-314366D01*
X135278D01*
X143742D01*
X156438D02*
Y-288975D01*
X173366Y-314366D01*
Y-288975D01*
X198758Y-293207D02*
X194526Y-288975D01*
X186062D01*
X181830Y-293207D01*
Y-310134D01*
X186062Y-314366D01*
X194526D01*
X198758Y-310134D01*
X207222Y-314366D02*
Y-310134D01*
X211454D01*
Y-314366D01*
X207222D01*
X1341Y-340332D02*
X-2891Y-336100D01*
X-11355D01*
X-15587Y-340332D01*
Y-357260D01*
X-11355Y-361492D01*
X-2891D01*
X1341Y-357260D01*
Y-348796D01*
X-7123D01*
X9805Y-336100D02*
Y-361492D01*
Y-348796D01*
X26733D01*
Y-336100D01*
Y-361492D01*
X35197Y-336100D02*
Y-361492D01*
X52125D01*
X85980D02*
Y-336100D01*
X102908Y-361492D01*
Y-336100D01*
X111372Y-361492D02*
Y-344564D01*
X119836Y-336100D01*
X128300Y-344564D01*
Y-361492D01*
Y-348796D01*
X111372D01*
X136764Y-361492D02*
Y-344564D01*
X145228Y-336100D01*
X153692Y-344564D01*
Y-361492D01*
Y-348796D01*
X136764D01*
X162156Y-336100D02*
X179083D01*
X170620D01*
Y-361492D01*
X200243Y-336100D02*
X191779D01*
X187547Y-340332D01*
Y-357260D01*
X191779Y-361492D01*
X200243D01*
X204475Y-357260D01*
Y-340332D01*
X200243Y-336100D01*
X229867Y-340332D02*
X225635Y-336100D01*
X217171D01*
X212939Y-340332D01*
Y-344564D01*
X217171Y-348796D01*
X225635D01*
X229867Y-353028D01*
Y-357260D01*
X225635Y-361492D01*
X217171D01*
X212939Y-357260D01*
X280651Y-340332D02*
X276419Y-336100D01*
X267955D01*
X263723Y-340332D01*
Y-344564D01*
X267955Y-348796D01*
X276419D01*
X280651Y-353028D01*
Y-357260D01*
X276419Y-361492D01*
X267955D01*
X263723Y-357260D01*
X293347Y-344564D02*
X301810D01*
X306042Y-348796D01*
Y-361492D01*
X293347D01*
X289115Y-357260D01*
X293347Y-353028D01*
X306042D01*
X314506Y-361492D02*
Y-344564D01*
X318738D01*
X322970Y-348796D01*
Y-361492D01*
Y-348796D01*
X327202Y-344564D01*
X331434Y-348796D01*
Y-361492D01*
X339898Y-369956D02*
Y-344564D01*
X352594D01*
X356826Y-348796D01*
Y-357260D01*
X352594Y-361492D01*
X339898D01*
X365290D02*
X373754D01*
X369522D01*
Y-336100D01*
X365290D01*
X399146Y-361492D02*
X390682D01*
X386450Y-357260D01*
Y-348796D01*
X390682Y-344564D01*
X399146D01*
X403378Y-348796D01*
Y-353028D01*
X386450D01*
X437233Y-361492D02*
Y-336100D01*
X449929D01*
X454161Y-340332D01*
Y-348796D01*
X449929Y-353028D01*
X437233D01*
X462625Y-344564D02*
Y-361492D01*
Y-353028D01*
X466857Y-348796D01*
X471089Y-344564D01*
X475321D01*
X500713Y-361492D02*
X492249D01*
X488017Y-357260D01*
Y-348796D01*
X492249Y-344564D01*
X500713D01*
X504945Y-348796D01*
Y-353028D01*
X488017D01*
X513409Y-369956D02*
Y-344564D01*
X526105D01*
X530337Y-348796D01*
Y-357260D01*
X526105Y-361492D01*
X513409D01*
X564192D02*
Y-336100D01*
X572656Y-344564D01*
X581120Y-336100D01*
Y-361492D01*
X593816Y-344564D02*
X602280D01*
X606512Y-348796D01*
Y-361492D01*
X593816D01*
X589584Y-357260D01*
X593816Y-353028D01*
X606512D01*
X614976Y-361492D02*
X623440D01*
X619208D01*
Y-344564D01*
X614976D01*
X636136Y-361492D02*
Y-344564D01*
X648832D01*
X653064Y-348796D01*
Y-361492D01*
X686919Y-336100D02*
Y-361492D01*
X699615D01*
X703847Y-357260D01*
Y-353028D01*
X699615Y-348796D01*
X686919D01*
X699615D01*
X703847Y-344564D01*
Y-340332D01*
X699615Y-336100D01*
X686919D01*
X716543Y-361492D02*
X725007D01*
X729239Y-357260D01*
Y-348796D01*
X725007Y-344564D01*
X716543D01*
X712311Y-348796D01*
Y-357260D01*
X716543Y-361492D01*
X741935Y-344564D02*
X750399D01*
X754631Y-348796D01*
Y-361492D01*
X741935D01*
X737703Y-357260D01*
X741935Y-353028D01*
X754631D01*
X763095Y-344564D02*
Y-361492D01*
Y-353028D01*
X767327Y-348796D01*
X771559Y-344564D01*
X775791D01*
X805414Y-336100D02*
Y-361492D01*
X792719D01*
X788486Y-357260D01*
Y-348796D01*
X792719Y-344564D01*
X805414D01*
X1727Y-413574D02*
X-15201D01*
X1727Y-396646D01*
Y-392415D01*
X-2505Y-388183D01*
X-10969D01*
X-15201Y-392415D01*
X27119Y-388183D02*
X18655Y-392415D01*
X10191Y-400878D01*
Y-409342D01*
X14423Y-413574D01*
X22887D01*
X27119Y-409342D01*
Y-405110D01*
X22887Y-400878D01*
X10191D01*
X35583Y-392415D02*
X39815Y-388183D01*
X48279D01*
X52511Y-392415D01*
Y-396646D01*
X48279Y-400878D01*
X44047D01*
X48279D01*
X52511Y-405110D01*
Y-409342D01*
X48279Y-413574D01*
X39815D01*
X35583Y-409342D01*
X60975Y-400878D02*
X77903D01*
X86367Y-392415D02*
X90599Y-388183D01*
X99063D01*
X103295Y-392415D01*
Y-409342D01*
X99063Y-413574D01*
X90599D01*
X86367Y-409342D01*
Y-392415D01*
X111758D02*
X115990Y-388183D01*
X124454D01*
X128686Y-392415D01*
Y-396646D01*
X124454Y-400878D01*
X120222D01*
X124454D01*
X128686Y-405110D01*
Y-409342D01*
X124454Y-413574D01*
X115990D01*
X111758Y-409342D01*
X137150Y-400878D02*
X154078D01*
X162542Y-392415D02*
X166774Y-388183D01*
X175238D01*
X179470Y-392415D01*
Y-409342D01*
X175238Y-413574D01*
X166774D01*
X162542Y-409342D01*
Y-392415D01*
X187934D02*
X192166Y-388183D01*
X200630D01*
X204862Y-392415D01*
Y-409342D01*
X200630Y-413574D01*
X192166D01*
X187934Y-409342D01*
Y-392415D01*
X213326Y-413574D02*
X221790D01*
X217558D01*
Y-388183D01*
X213326Y-392415D01*
X285269Y-413574D02*
Y-388183D01*
X297965D01*
X302197Y-392415D01*
Y-400878D01*
X297965Y-405110D01*
X285269D01*
X293733D02*
X302197Y-413574D01*
X327589Y-388183D02*
X310661D01*
Y-413574D01*
X327589D01*
X310661Y-400878D02*
X319125D01*
X336053Y-388183D02*
Y-405110D01*
X344517Y-413574D01*
X352980Y-405110D01*
Y-388183D01*
X403764Y-392415D02*
X399532Y-388183D01*
X391068D01*
X386836Y-392415D01*
Y-409342D01*
X391068Y-413574D01*
X399532D01*
X403764Y-409342D01*
D19*
X470000Y153000D02*
D03*
Y143000D02*
D03*
Y175000D02*
D03*
Y165000D02*
D03*
X418000D02*
D03*
Y155000D02*
D03*
X406000Y63000D02*
D03*
Y53000D02*
D03*
X457464Y64700D02*
D03*
Y74700D02*
D03*
X225225Y387950D02*
D03*
Y377950D02*
D03*
X315000Y-185000D02*
D03*
Y-175000D02*
D03*
X302950Y-184805D02*
D03*
Y-174805D02*
D03*
X261225Y366950D02*
D03*
Y356950D02*
D03*
X229225Y366950D02*
D03*
Y356950D02*
D03*
X217225Y366950D02*
D03*
Y356950D02*
D03*
X249225D02*
D03*
Y366950D02*
D03*
D23*
X527000Y-131000D02*
D03*
Y-115000D02*
D03*
X221950Y-174805D02*
D03*
Y-158805D02*
D03*
X204000Y-175000D02*
D03*
Y-159000D02*
D03*
D24*
X206000Y333000D02*
D03*
X216000D02*
D03*
X-88000Y-120000D02*
D03*
X-98000D02*
D03*
X248225Y383950D02*
D03*
X258225D02*
D03*
X179000Y185000D02*
D03*
X189000D02*
D03*
X209000Y197000D02*
D03*
X199000D02*
D03*
X281950Y-162805D02*
D03*
X291950D02*
D03*
X428465Y-12070D02*
D03*
X438465D02*
D03*
X291950Y-186805D02*
D03*
X281950D02*
D03*
Y-174805D02*
D03*
X291950D02*
D03*
X281950Y-150805D02*
D03*
X291950D02*
D03*
X166000Y202000D02*
D03*
X176000D02*
D03*
Y215000D02*
D03*
X166000D02*
D03*
X521000Y-87000D02*
D03*
X531000D02*
D03*
X521000Y-99000D02*
D03*
X531000D02*
D03*
X338000Y-181000D02*
D03*
X328000D02*
D03*
D39*
X414000Y-80000D02*
D03*
X432000D02*
D03*
X265225Y449950D02*
D03*
X283225D02*
D03*
X265225Y472950D02*
D03*
X283225D02*
D03*
D42*
X358951Y-151805D02*
D03*
X374950D02*
D03*
X371995Y935536D02*
D03*
X387995D02*
D03*
X379308Y918223D02*
D03*
X363308D02*
D03*
D59*
X455964Y25700D02*
D03*
X430964D02*
D03*
D60*
X449000Y365000D02*
D03*
Y349000D02*
D03*
D61*
X148000Y-134000D02*
D03*
Y-178000D02*
D03*
D64*
X423005Y-150286D02*
D03*
Y-143786D02*
D03*
Y-137286D02*
D03*
Y-130786D02*
D03*
X451005D02*
D03*
Y-137286D02*
D03*
Y-143786D02*
D03*
Y-150286D02*
D03*
D145*
X-94500Y921300D02*
D03*
X666000D02*
D03*
X-94500Y231300D02*
D03*
X666000D02*
D03*
D146*
X183350Y918000D02*
D03*
X170650D02*
D03*
X183350Y930700D02*
D03*
X170650D02*
D03*
X183350Y905300D02*
D03*
X170650D02*
D03*
X354350Y448000D02*
D03*
X341650D02*
D03*
X354350Y460700D02*
D03*
X341650D02*
D03*
X354350Y435300D02*
D03*
X341650D02*
D03*
D152*
X595000Y940000D02*
D03*
X-25000D02*
D03*
X-90000Y-80000D02*
D03*
D153*
X317000Y336000D02*
X327000Y326000D01*
X410000D01*
X177000Y937050D02*
Y942000D01*
X170650Y930700D02*
X177000Y937050D01*
X418000Y155000D02*
X418000Y155000D01*
X391000Y155000D02*
X418000D01*
X462000Y174000D02*
X469000D01*
X470000Y175000D01*
X459500Y171500D02*
X462000Y174000D01*
X452386Y171500D02*
X459500D01*
X452386Y165000D02*
X470000D01*
X478000Y143000D02*
X478000Y143000D01*
X470000Y143000D02*
X478000D01*
X406000Y63000D02*
X414000D01*
X550000Y-80000D02*
X550340Y-80340D01*
X554840D02*
X557500Y-83000D01*
X550340Y-80340D02*
X554840D01*
X354350Y448000D02*
X363000D01*
X133000Y-129000D02*
Y-128000D01*
X449000Y75000D02*
X449300Y74700D01*
X644660Y-157340D02*
Y-156340D01*
X640000Y-162000D02*
X644660Y-157340D01*
Y-156340D02*
X645000Y-156000D01*
X624135Y-170365D02*
Y-166865D01*
X629000Y-162000D01*
X623500Y-171000D02*
X624135Y-170365D01*
X556865Y-171635D02*
X557500Y-171000D01*
X555517Y-171635D02*
X556865D01*
X550000Y-172519D02*
X554633D01*
X555517Y-171635D01*
X575000Y-109000D02*
X575250Y-109250D01*
Y-115750D02*
Y-109250D01*
Y-115750D02*
X575500Y-116000D01*
X634500Y-171000D02*
X635135Y-171635D01*
Y-174654D02*
X637000Y-176519D01*
Y-177000D02*
Y-176519D01*
X635135Y-174654D02*
Y-171635D01*
X645250Y-110250D02*
Y-104250D01*
X645000Y-104000D02*
X645250Y-104250D01*
Y-110250D02*
X645500Y-110500D01*
X246975Y393469D02*
Y393950D01*
Y393469D02*
X248225Y392219D01*
Y383950D02*
Y392219D01*
X269225Y355950D02*
X269493D01*
X268885Y356290D02*
X269225Y355950D01*
X261885Y356290D02*
X268885D01*
X261597Y356578D02*
X261885Y356290D01*
X217225Y349950D02*
Y356950D01*
X223661Y389514D02*
X225225Y387950D01*
X223661Y389514D02*
Y395875D01*
X322951Y-149805D02*
Y-149805D01*
X645500Y-143500D02*
Y-137500D01*
X557500Y-94000D02*
Y-83000D01*
X566500Y-154500D02*
X573500D01*
X645500Y-177500D02*
Y-171000D01*
X623500Y-177500D02*
Y-171000D01*
X645500Y-83000D02*
Y-76500D01*
X258225Y374950D02*
Y383950D01*
X557500Y-160000D02*
X560500Y-163000D01*
X565000D01*
D154*
X130950Y170050D02*
Y390050D01*
Y170050D02*
X145000Y156000D01*
X449000Y332000D02*
Y349000D01*
X128000Y393000D02*
Y410000D01*
Y393000D02*
X130950Y390050D01*
X400245Y-19468D02*
X401000Y-20223D01*
Y-36000D02*
Y-20223D01*
D155*
X157000Y-29000D02*
X166964D01*
X167670Y-28293D01*
X361000Y416000D02*
Y428650D01*
X354350Y435300D02*
X361000Y428650D01*
X352000Y407000D02*
X361000Y416000D01*
X300000Y407000D02*
X352000D01*
X188000Y333000D02*
X206000D01*
X216000D02*
X216221Y332779D01*
X225620D01*
X225772Y332931D02*
X225931D01*
X225620Y332779D02*
X225772Y332931D01*
X226225Y352950D02*
X230225Y356950D01*
X226000Y333000D02*
X269184D01*
X294000Y357816D01*
Y401000D01*
X300000Y407000D01*
X162113Y198113D02*
X166000Y202000D01*
X162113Y194112D02*
Y198113D01*
X162000Y194000D02*
X162113Y194112D01*
X168000Y184000D02*
X168159D01*
X168659Y184500D01*
X178500D02*
X179000Y185000D01*
X168659Y184500D02*
X178500D01*
X166000Y202000D02*
Y215000D01*
X228654Y378950D02*
X234225D01*
X228154Y378450D02*
X228654Y378950D01*
X225725Y378450D02*
X228154D01*
X209000Y197000D02*
X212000Y200000D01*
Y206000D01*
X166000Y215000D02*
Y217000D01*
X159000Y224000D02*
X166000Y217000D01*
X449300Y74700D02*
X457464D01*
X449113Y64887D02*
X457276D01*
X457464Y64700D01*
X446930Y-12070D02*
X447000Y-12000D01*
X438465Y-12070D02*
X446930D01*
X428464Y-4464D02*
X428465Y-4464D01*
Y-12070D02*
Y-4464D01*
X491000Y-12000D02*
X498000Y-5000D01*
X447000Y-12000D02*
X491000D01*
X-88000Y-120000D02*
X-87000Y-121000D01*
X-80000D01*
X432000Y-80000D02*
X442000D01*
X535727Y-129114D02*
X536841Y-128000D01*
X528886Y-129114D02*
X535727D01*
X527000Y-131000D02*
X528886Y-129114D01*
X536841Y-128000D02*
X537000D01*
X498000Y-5000D02*
Y20000D01*
X545000Y-118000D02*
X548460Y-121460D01*
X539159Y-118000D02*
X545000D01*
X527250Y-115000D02*
X531862Y-110387D01*
X527000Y-115000D02*
X527250D01*
X531862Y-110387D02*
X539388D01*
X539500Y-110500D01*
X548500D01*
X226225Y350109D02*
Y352950D01*
X230225Y356950D02*
X249225D01*
X225225Y377950D02*
X225725Y378450D01*
D156*
X678000Y545000D02*
Y608000D01*
X638500Y575000D02*
X676500D01*
X677800Y576300D01*
X-106300D02*
X-70700D01*
X-106300D02*
Y608300D01*
Y543700D02*
Y576300D01*
X677800Y607800D02*
X678000Y608000D01*
X677800Y576300D02*
Y607800D01*
X195750Y700750D02*
Y732000D01*
Y765250D01*
Y732000D02*
X227000D01*
X164000D02*
X195750D01*
D158*
X291612Y460612D02*
X292000Y460225D01*
X285975Y466250D02*
X291612Y460612D01*
X291612D02*
X292000Y461000D01*
X285975Y454975D02*
X291612Y460612D01*
X291612D02*
X291612D01*
X283225Y472950D02*
X285975Y470200D01*
Y466250D02*
Y470200D01*
X283225Y449950D02*
X285975Y452700D01*
Y454975D01*
D159*
X317950Y-154805D02*
X320451Y-157305D01*
Y-163805D02*
Y-157305D01*
X344450Y-152305D02*
X348951Y-156805D01*
X293750Y-172005D02*
X299951Y-165805D01*
X300560Y-165195D01*
X291950Y-174805D02*
X293750Y-173005D01*
Y-172005D01*
X307150Y-157305D02*
X308951D01*
X300560Y-163895D02*
X307150Y-157305D01*
X300560Y-165195D02*
Y-163895D01*
X330451Y-163805D02*
X337951Y-171305D01*
Y-180805D02*
Y-171305D01*
X291950Y-150805D02*
X295450Y-147305D01*
X308951D01*
X291950Y-162805D02*
X302451Y-152305D01*
X308951D01*
X300951Y-186805D02*
X302950Y-184805D01*
X291950Y-186805D02*
X300951D01*
X302950Y-174805D02*
X314951D01*
X315450Y-174305D01*
Y-163805D01*
X336950Y-147305D02*
X354450D01*
X358951Y-151805D01*
X336950Y-152305D02*
X344450D01*
D160*
X177000Y892600D02*
D03*
X166840Y943400D02*
D03*
X187160D02*
D03*
X177000Y892600D02*
D03*
X187160Y943400D02*
D03*
X166840D02*
D03*
X348000Y422600D02*
D03*
X358160Y473400D02*
D03*
X337840D02*
D03*
D161*
X151600Y892600D02*
D03*
Y924350D02*
D03*
X202400Y892600D02*
D03*
Y924350D02*
D03*
Y892600D02*
D03*
Y924350D02*
D03*
X151600Y892600D02*
D03*
Y924350D02*
D03*
D162*
X-106300Y576300D02*
D03*
X677800D02*
D03*
X375750Y732000D02*
D03*
X195750D02*
D03*
D163*
X483700Y-145500D02*
D03*
Y-130500D02*
D03*
Y-115500D02*
D03*
Y-100500D02*
D03*
Y-85500D02*
D03*
Y-70500D02*
D03*
X293000Y831500D02*
D03*
X278000D02*
D03*
D164*
X248695Y910436D02*
D03*
D165*
X320695D02*
D03*
D166*
X312695Y916936D02*
D03*
X308695Y923936D02*
D03*
X300695D02*
D03*
X296695Y916936D02*
D03*
X292695Y923936D02*
D03*
X288695Y916936D02*
D03*
X280695D02*
D03*
X276695Y923936D02*
D03*
X272695Y916936D02*
D03*
X268695Y923936D02*
D03*
X260695D02*
D03*
X256695Y916936D02*
D03*
D167*
X238695Y924436D02*
D03*
X330695D02*
D03*
X238695Y954436D02*
D03*
X330695D02*
D03*
D168*
X350750Y577215D02*
D03*
X220750D02*
D03*
D169*
X571500Y0D02*
D03*
X0D02*
D03*
D170*
X430000Y650000D02*
D03*
X458000D02*
D03*
X451000D02*
D03*
X444000D02*
D03*
X437000D02*
D03*
X289000Y693000D02*
D03*
Y703000D02*
D03*
X488000Y202000D02*
D03*
X431000Y342000D02*
D03*
X449000Y332000D02*
D03*
X397000Y375000D02*
D03*
X385000Y347000D02*
D03*
X346000Y188000D02*
D03*
X338000D02*
D03*
X206000Y851000D02*
D03*
X196000D02*
D03*
X169000D02*
D03*
X186000Y863000D02*
D03*
X168000Y871000D02*
D03*
X303000Y689000D02*
D03*
X177000Y881000D02*
D03*
Y942000D02*
D03*
X366000Y350000D02*
D03*
X462000Y174000D02*
D03*
Y165000D02*
D03*
X478000Y143000D02*
D03*
X449113Y64887D02*
D03*
X414000Y63000D02*
D03*
X489000Y-1000D02*
D03*
X592000Y-133000D02*
D03*
X451000Y657000D02*
D03*
X458000Y664000D02*
D03*
Y657000D02*
D03*
X451000Y664000D02*
D03*
X444000Y657000D02*
D03*
Y664000D02*
D03*
X437000Y657000D02*
D03*
Y664000D02*
D03*
X430000Y657000D02*
D03*
Y664000D02*
D03*
X396995Y801536D02*
D03*
X406000Y809000D02*
D03*
X319000Y840000D02*
D03*
X299000Y797000D02*
D03*
X310000D02*
D03*
X427000D02*
D03*
X413000Y803000D02*
D03*
X513000Y-89000D02*
D03*
X280995Y891936D02*
D03*
X513000Y-97000D02*
D03*
X288995Y891936D02*
D03*
X491000Y930000D02*
D03*
X510000Y129000D02*
D03*
Y104000D02*
D03*
Y113000D02*
D03*
X484000Y-46000D02*
D03*
X479000Y-34000D02*
D03*
X622000Y-75000D02*
D03*
X513000Y164000D02*
D03*
Y172000D02*
D03*
Y180000D02*
D03*
X471000Y104000D02*
D03*
X474000Y129000D02*
D03*
X501000Y54000D02*
D03*
X540000Y-83000D02*
D03*
X550000Y-80000D02*
D03*
X488500Y211500D02*
D03*
X476500Y210000D02*
D03*
X465000Y226000D02*
D03*
X474000Y120000D02*
D03*
X465000D02*
D03*
X171500Y-38000D02*
D03*
X85000Y-28000D02*
D03*
X252000Y927000D02*
D03*
X317000D02*
D03*
X416000Y-52000D02*
D03*
X433000Y-60000D02*
D03*
X410000Y309000D02*
D03*
X330000Y288000D02*
D03*
Y297000D02*
D03*
X403000Y326000D02*
D03*
X410000D02*
D03*
X230000Y261000D02*
D03*
X449000Y381000D02*
D03*
X316000Y346000D02*
D03*
X317000Y336000D02*
D03*
X335000Y352000D02*
D03*
Y344000D02*
D03*
X345000D02*
D03*
Y352000D02*
D03*
Y336000D02*
D03*
X335000D02*
D03*
X364000Y333000D02*
D03*
X307000Y-27000D02*
D03*
X315000D02*
D03*
X307000Y-35000D02*
D03*
X315000D02*
D03*
X323000Y-27000D02*
D03*
Y-35000D02*
D03*
X99000Y-156000D02*
D03*
X89000D02*
D03*
X79000D02*
D03*
X69000D02*
D03*
X247000Y17000D02*
D03*
X239000D02*
D03*
X231000D02*
D03*
X222000D02*
D03*
X214000D02*
D03*
X206000D02*
D03*
X331000Y-27000D02*
D03*
Y-35000D02*
D03*
X247000Y0D02*
D03*
Y9000D02*
D03*
X99000Y-165000D02*
D03*
Y-175000D02*
D03*
Y-185000D02*
D03*
X89000Y-165000D02*
D03*
X79000D02*
D03*
X69000D02*
D03*
X330000Y19000D02*
D03*
X323000D02*
D03*
X315000D02*
D03*
X322000Y-17000D02*
D03*
X330000Y12000D02*
D03*
X323000D02*
D03*
X315000D02*
D03*
X323000Y-9000D02*
D03*
X406000Y375000D02*
D03*
X424000Y342000D02*
D03*
X428000Y358000D02*
D03*
X419000D02*
D03*
X424000Y375000D02*
D03*
X415000D02*
D03*
X426000Y303000D02*
D03*
X363000Y448000D02*
D03*
X226000Y333000D02*
D03*
X188000D02*
D03*
X365000Y261000D02*
D03*
X446000Y271000D02*
D03*
X436000Y270000D02*
D03*
X426000D02*
D03*
X436000Y278000D02*
D03*
X426000D02*
D03*
X446000Y279000D02*
D03*
X436000Y287000D02*
D03*
X446000D02*
D03*
X426000D02*
D03*
X446000Y303000D02*
D03*
X436000D02*
D03*
X446000Y295000D02*
D03*
X436000D02*
D03*
X426000D02*
D03*
X222000Y297000D02*
D03*
X238000D02*
D03*
Y288000D02*
D03*
Y279000D02*
D03*
X230000D02*
D03*
Y288000D02*
D03*
Y297000D02*
D03*
X128000Y410000D02*
D03*
X223000Y71000D02*
D03*
X214000D02*
D03*
X206000D02*
D03*
X121000Y66000D02*
D03*
Y57000D02*
D03*
X110000D02*
D03*
X176000Y71000D02*
D03*
X166000D02*
D03*
X156000D02*
D03*
X145000D02*
D03*
X134000D02*
D03*
X163000Y-177000D02*
D03*
X149000Y-55000D02*
D03*
X158000Y-49500D02*
D03*
X149000Y-46000D02*
D03*
X163000Y-167000D02*
D03*
Y-156000D02*
D03*
Y-146000D02*
D03*
Y-136000D02*
D03*
Y-127000D02*
D03*
X166000Y-89000D02*
D03*
X158000Y-40500D02*
D03*
X157000Y-29000D02*
D03*
X155000Y7000D02*
D03*
X165000D02*
D03*
Y-1000D02*
D03*
X155000D02*
D03*
X90000Y45000D02*
D03*
X84000Y54000D02*
D03*
X60000Y28000D02*
D03*
X59000Y-28000D02*
D03*
X82277Y1723D02*
D03*
X100000Y-5000D02*
D03*
X106000D02*
D03*
X100000Y2000D02*
D03*
X106000D02*
D03*
X118000D02*
D03*
X124000Y-5000D02*
D03*
X118000D02*
D03*
Y-13000D02*
D03*
X100000D02*
D03*
X106000D02*
D03*
X124000D02*
D03*
Y2000D02*
D03*
X112000D02*
D03*
Y-5000D02*
D03*
Y-13000D02*
D03*
X136000Y8000D02*
D03*
X133000Y-140000D02*
D03*
Y-129000D02*
D03*
X132000Y-191000D02*
D03*
X89000Y-175000D02*
D03*
Y-185000D02*
D03*
X79000D02*
D03*
X69000D02*
D03*
X79000Y-175000D02*
D03*
X69000D02*
D03*
X203246Y-58000D02*
D03*
X213246Y-56869D02*
D03*
X240000Y52000D02*
D03*
X53000Y240000D02*
D03*
X155000Y147000D02*
D03*
X166000D02*
D03*
X384000Y310000D02*
D03*
Y317000D02*
D03*
X292000Y461000D02*
D03*
X340000Y156000D02*
D03*
X162000Y194000D02*
D03*
X168000Y184000D02*
D03*
X300000Y157000D02*
D03*
X256000D02*
D03*
X145000Y156000D02*
D03*
X514000Y229000D02*
D03*
X633000Y-109000D02*
D03*
X602000Y-133000D02*
D03*
X615000Y-130000D02*
D03*
X324000Y139000D02*
D03*
X304000Y398000D02*
D03*
X306000Y388000D02*
D03*
X169000Y332000D02*
D03*
X303000Y893000D02*
D03*
X360000Y169000D02*
D03*
X113000Y264000D02*
D03*
X500000Y463000D02*
D03*
X515000D02*
D03*
X575000D02*
D03*
X590000D02*
D03*
X560000D02*
D03*
X545000D02*
D03*
X530000D02*
D03*
X485000D02*
D03*
X500000Y694000D02*
D03*
X515000D02*
D03*
X575000D02*
D03*
X590000D02*
D03*
X560000D02*
D03*
X545000D02*
D03*
X530000D02*
D03*
X485000Y913000D02*
D03*
X530000D02*
D03*
X545000D02*
D03*
X560000D02*
D03*
X590000D02*
D03*
X575000D02*
D03*
X515000D02*
D03*
X500000D02*
D03*
X597500Y244500D02*
D03*
X606500Y224500D02*
D03*
Y234500D02*
D03*
X597500D02*
D03*
Y224500D02*
D03*
X606500Y244500D02*
D03*
X310000Y205000D02*
D03*
X338000Y228000D02*
D03*
X222000Y288000D02*
D03*
X246000Y297000D02*
D03*
Y288000D02*
D03*
Y279000D02*
D03*
X254000D02*
D03*
Y288000D02*
D03*
Y297000D02*
D03*
X222000Y279000D02*
D03*
X514000Y238000D02*
D03*
X46000Y234000D02*
D03*
X391000Y147000D02*
D03*
Y155000D02*
D03*
X384000Y147000D02*
D03*
Y155000D02*
D03*
X362000Y193000D02*
D03*
X396000Y232000D02*
D03*
X404000D02*
D03*
Y225000D02*
D03*
X396000D02*
D03*
X439000Y187000D02*
D03*
Y196000D02*
D03*
Y204000D02*
D03*
X430000Y187000D02*
D03*
Y196000D02*
D03*
Y204000D02*
D03*
X139775Y359050D02*
D03*
X282000Y425000D02*
D03*
X296000Y436000D02*
D03*
X304000D02*
D03*
X222000Y0D02*
D03*
X231000D02*
D03*
X239000D02*
D03*
X214000D02*
D03*
X206000D02*
D03*
X190760Y256761D02*
D03*
X178000Y257000D02*
D03*
X212000Y206000D02*
D03*
X200000D02*
D03*
X212000Y218000D02*
D03*
X200000D02*
D03*
X206000Y211000D02*
D03*
X159000Y224000D02*
D03*
X401000Y-36000D02*
D03*
X381000D02*
D03*
X390000Y-48000D02*
D03*
Y-41000D02*
D03*
X449000Y75000D02*
D03*
X375320Y82680D02*
D03*
X512000Y-155000D02*
D03*
X544000Y-196000D02*
D03*
X535000Y-172000D02*
D03*
X613000Y-194000D02*
D03*
X527000Y-176000D02*
D03*
X498000Y-188000D02*
D03*
X526000Y-168000D02*
D03*
X535000Y-153000D02*
D03*
X531000Y-146000D02*
D03*
X538000Y-136000D02*
D03*
X635000Y-73000D02*
D03*
X550000Y-172519D02*
D03*
X438000Y108000D02*
D03*
X344000Y104000D02*
D03*
X353000Y86000D02*
D03*
X415000Y-38000D02*
D03*
X523000Y-144000D02*
D03*
X481000Y-1000D02*
D03*
X447000Y-12000D02*
D03*
X449000Y-42000D02*
D03*
X428000Y-22000D02*
D03*
X575000Y-109000D02*
D03*
X225000Y243000D02*
D03*
X428464Y-4464D02*
D03*
X205000Y-186000D02*
D03*
X-69000Y-123000D02*
D03*
X-80000Y-121000D02*
D03*
X325000Y52000D02*
D03*
X637000Y-177000D02*
D03*
X645000Y-156000D02*
D03*
Y-104000D02*
D03*
X442000Y-80000D02*
D03*
X537000Y-128000D02*
D03*
X144950Y387775D02*
D03*
X217225Y349950D02*
D03*
X269225Y355950D02*
D03*
X237225Y363950D02*
D03*
X217225Y378950D02*
D03*
X240225Y393950D02*
D03*
X223661Y395875D02*
D03*
X240225Y400950D02*
D03*
Y407950D02*
D03*
Y414950D02*
D03*
X205225Y429950D02*
D03*
X224225Y438950D02*
D03*
X207975Y463950D02*
D03*
X269225Y383950D02*
D03*
X246975Y393950D02*
D03*
X260225D02*
D03*
X253475D02*
D03*
X246975Y400950D02*
D03*
X260225D02*
D03*
X253475D02*
D03*
X246975Y407950D02*
D03*
X260225D02*
D03*
X253475D02*
D03*
X277225D02*
D03*
X246975Y414950D02*
D03*
X260225D02*
D03*
X253475D02*
D03*
X278225Y435950D02*
D03*
X197225Y475950D02*
D03*
X277225Y415950D02*
D03*
X365995Y777536D02*
D03*
X357995Y770536D02*
D03*
X353308Y919223D02*
D03*
X360995Y941536D02*
D03*
X353308Y928223D02*
D03*
Y910223D02*
D03*
X436308Y930223D02*
D03*
Y921224D02*
D03*
Y912224D02*
D03*
Y903223D02*
D03*
Y894223D02*
D03*
X444995Y822536D02*
D03*
X436308Y822224D02*
D03*
X344308Y862224D02*
D03*
Y855224D02*
D03*
X363308Y848224D02*
D03*
Y861224D02*
D03*
X360308Y854224D02*
D03*
X367308D02*
D03*
X365808Y769536D02*
D03*
X366995Y946536D02*
D03*
X360995Y932536D02*
D03*
X332995Y786536D02*
D03*
X357995Y777536D02*
D03*
X356995Y785536D02*
D03*
X291995Y862936D02*
D03*
X435500Y-68500D02*
D03*
X188951Y-115805D02*
D03*
X256950Y-114805D02*
D03*
X248951D02*
D03*
X394950Y-124805D02*
D03*
Y-142805D02*
D03*
Y-133805D02*
D03*
X386950Y-142805D02*
D03*
Y-133805D02*
D03*
Y-124805D02*
D03*
X327951Y-128805D02*
D03*
X334950D02*
D03*
Y-114805D02*
D03*
Y-121805D02*
D03*
X327951Y-114805D02*
D03*
Y-121805D02*
D03*
X339000Y146000D02*
D03*
X256950Y-140805D02*
D03*
X248951D02*
D03*
Y-132805D02*
D03*
Y-123805D02*
D03*
X256950Y-132805D02*
D03*
X256950Y-123805D02*
D03*
X138506Y413064D02*
D03*
X139506Y405064D02*
D03*
X143506Y398064D02*
D03*
X155506Y434064D02*
D03*
Y454064D02*
D03*
X415005Y-138536D02*
D03*
Y-145536D02*
D03*
Y-152536D02*
D03*
X315000Y-2000D02*
D03*
X231995Y852936D02*
D03*
X239995D02*
D03*
X240995Y868936D02*
D03*
X230995D02*
D03*
X259995Y893936D02*
D03*
X314995D02*
D03*
X324995Y170536D02*
D03*
X315000Y5000D02*
D03*
X323000D02*
D03*
Y-2000D02*
D03*
X573500Y-154500D02*
D03*
X513000Y-81000D02*
D03*
Y-105000D02*
D03*
X244000Y-189000D02*
D03*
X231000Y-186000D02*
D03*
X218000D02*
D03*
X263951Y-190805D02*
D03*
X256950D02*
D03*
X263951Y-182805D02*
D03*
X256950D02*
D03*
X263951Y-174805D02*
D03*
X256950D02*
D03*
X317950Y-144805D02*
D03*
X327951D02*
D03*
Y-154805D02*
D03*
X317950D02*
D03*
X322951Y-149805D02*
D03*
X645500Y-137500D02*
D03*
Y-76500D02*
D03*
Y-177500D02*
D03*
X623500Y-177500D02*
D03*
X461000Y-102000D02*
D03*
X440000Y-35000D02*
D03*
X588000Y-112000D02*
D03*
X575000Y-101000D02*
D03*
X497000Y-82000D02*
D03*
Y-73000D02*
D03*
X206000Y234000D02*
D03*
X484000Y177000D02*
D03*
X510000Y-166000D02*
D03*
X206000Y9000D02*
D03*
X214000D02*
D03*
X239000D02*
D03*
X231000D02*
D03*
X222000D02*
D03*
X223000Y-59000D02*
D03*
X427000Y110000D02*
D03*
X634000Y-146000D02*
D03*
X623000Y-139000D02*
D03*
X597000Y-112000D02*
D03*
X582000Y-127000D02*
D03*
X615000Y-112000D02*
D03*
X184000Y204000D02*
D03*
X191000Y194000D02*
D03*
X230000Y204000D02*
D03*
X236000Y212000D02*
D03*
X230000Y219000D02*
D03*
X184000Y212000D02*
D03*
X-51000Y-114000D02*
D03*
X-98000Y-112000D02*
D03*
X498000Y20000D02*
D03*
X583000Y-155000D02*
D03*
X574000Y-147000D02*
D03*
X508000Y-188000D02*
D03*
X615000Y-120000D02*
D03*
X623000Y-108000D02*
D03*
X270000Y894000D02*
D03*
X276000Y886000D02*
D03*
X351000Y-179000D02*
D03*
X415000Y-129000D02*
D03*
X418000Y49000D02*
D03*
X187000Y364000D02*
D03*
Y352000D02*
D03*
X180000Y401000D02*
D03*
X171000D02*
D03*
X180000Y410000D02*
D03*
X171000D02*
D03*
X539000Y-118000D02*
D03*
X539500Y-110500D02*
D03*
X254225Y467950D02*
D03*
X245225Y449950D02*
D03*
X254225D02*
D03*
X245225Y455950D02*
D03*
X254225D02*
D03*
X260225Y460950D02*
D03*
X272225D02*
D03*
X266225D02*
D03*
X245225Y461950D02*
D03*
X254225D02*
D03*
X245225Y467950D02*
D03*
X130950Y379775D02*
D03*
X226225Y349950D02*
D03*
X240225Y374950D02*
D03*
X234225Y378950D02*
D03*
X216225Y411950D02*
D03*
X209225D02*
D03*
X223225D02*
D03*
X245225Y428950D02*
D03*
X224225Y420950D02*
D03*
X240554Y424950D02*
D03*
X224299Y429876D02*
D03*
X240225Y433950D02*
D03*
X238225Y449950D02*
D03*
Y455950D02*
D03*
X238193Y462111D02*
D03*
X238225Y467950D02*
D03*
X258225Y374950D02*
D03*
X249357Y375817D02*
D03*
X260225Y424950D02*
D03*
X250225D02*
D03*
X255225Y428950D02*
D03*
X260225Y433950D02*
D03*
X250225D02*
D03*
X582000Y-178000D02*
D03*
X574000D02*
D03*
X401995Y947536D02*
D03*
X397995Y938536D02*
D03*
X387995Y947536D02*
D03*
X380995D02*
D03*
X394995Y770536D02*
D03*
Y777536D02*
D03*
X386995Y770536D02*
D03*
X402995Y777536D02*
D03*
X386995D02*
D03*
X378995D02*
D03*
X357308Y882224D02*
D03*
X391433Y880349D02*
D03*
X432308Y872224D02*
D03*
Y879224D02*
D03*
X425308Y872224D02*
D03*
X432308Y833224D02*
D03*
X425308Y841224D02*
D03*
X432308D02*
D03*
X372308Y865224D02*
D03*
X378308D02*
D03*
X372308Y860224D02*
D03*
Y843224D02*
D03*
X378308D02*
D03*
X372308Y848224D02*
D03*
X378308Y860224D02*
D03*
Y848224D02*
D03*
X394995Y947536D02*
D03*
X408995Y943536D02*
D03*
X378995Y770536D02*
D03*
X346995Y833536D02*
D03*
X348995Y810536D02*
D03*
X402995Y770536D02*
D03*
X381995Y899536D02*
D03*
X352995Y897536D02*
D03*
X337995Y872536D02*
D03*
X387951Y-70805D02*
D03*
X398951D02*
D03*
Y-79805D02*
D03*
X387951D02*
D03*
X388000Y-88000D02*
D03*
X399000D02*
D03*
X332951Y-95805D02*
D03*
Y-86805D02*
D03*
Y-77805D02*
D03*
Y-68805D02*
D03*
X345000Y-69000D02*
D03*
X198951Y-149805D02*
D03*
X231950Y-159805D02*
D03*
X348951Y-156805D02*
D03*
X172506Y465064D02*
D03*
Y456064D02*
D03*
Y446064D02*
D03*
X588000Y-145000D02*
D03*
X299951Y-165805D02*
D03*
X198951Y-132805D02*
D03*
X228995Y884936D02*
D03*
X235995D02*
D03*
X242995D02*
D03*
X293995Y885936D02*
D03*
X355000Y-35000D02*
D03*
X339000D02*
D03*
X347000D02*
D03*
X363000D02*
D03*
X371000D02*
D03*
Y-27000D02*
D03*
X363000D02*
D03*
X355000D02*
D03*
X347000D02*
D03*
X339000D02*
D03*
X195000Y-159000D02*
D03*
X213000D02*
D03*
X329950Y-171805D02*
D03*
X198951Y-141805D02*
D03*
X565000Y-163000D02*
D03*
D172*
X431614Y171500D02*
D03*
Y165000D02*
D03*
Y158500D02*
D03*
X452386D02*
D03*
Y165000D02*
D03*
Y171500D02*
D03*
D173*
X562995Y809536D02*
D03*
Y349536D02*
D03*
X8995Y809536D02*
D03*
Y349536D02*
D03*
D174*
X26495Y579536D02*
D03*
X545495D02*
D03*
D175*
X347951Y-117805D02*
D03*
Y-99805D02*
D03*
X371950D02*
D03*
Y-117805D02*
D03*
X244951Y-158805D02*
D03*
Y-176805D02*
D03*
D176*
X281995Y877936D02*
D03*
X286995D02*
D03*
X296995D02*
D03*
X301995D02*
D03*
Y869436D02*
D03*
X296995D02*
D03*
X286995D02*
D03*
X281995D02*
D03*
D177*
X291995Y877936D02*
D03*
Y869436D02*
D03*
D178*
X308951Y-76739D02*
D03*
Y-116871D02*
D03*
D179*
X400245Y-19468D02*
D03*
X171245D02*
D03*
D180*
X383246Y-46464D02*
D03*
X378246D02*
D03*
X373246D02*
D03*
X368246D02*
D03*
X363246D02*
D03*
X358246D02*
D03*
X353246D02*
D03*
X348246D02*
D03*
X343246D02*
D03*
X338246D02*
D03*
X333246D02*
D03*
X328246D02*
D03*
X323246D02*
D03*
X318246D02*
D03*
X313246D02*
D03*
X308246D02*
D03*
X303246D02*
D03*
X298246D02*
D03*
X293246D02*
D03*
X288246D02*
D03*
X283246D02*
D03*
X278246D02*
D03*
X273246D02*
D03*
X268246D02*
D03*
X263246D02*
D03*
X258246D02*
D03*
X253246D02*
D03*
X248246D02*
D03*
X243246D02*
D03*
X238246D02*
D03*
X233246D02*
D03*
X228246D02*
D03*
X223246D02*
D03*
X218246D02*
D03*
X213246D02*
D03*
X208246D02*
D03*
X203246D02*
D03*
X198246D02*
D03*
X193246D02*
D03*
X188246D02*
D03*
D181*
X257195Y903836D02*
D03*
X262195D02*
D03*
X267195D02*
D03*
X272195D02*
D03*
X277195D02*
D03*
X292195D02*
D03*
X297195D02*
D03*
X302195D02*
D03*
X307195D02*
D03*
X312195D02*
D03*
X287195D02*
D03*
X282195D02*
D03*
D182*
X274951Y-110805D02*
D03*
X228951D02*
D03*
D183*
X566500Y-121500D02*
D03*
Y-132500D02*
D03*
Y-143500D02*
D03*
X557500Y-116000D02*
D03*
Y-127000D02*
D03*
Y-138000D02*
D03*
X566500Y-99500D02*
D03*
Y-110500D02*
D03*
X575500Y-116000D02*
D03*
Y-127000D02*
D03*
X557500Y-94000D02*
D03*
Y-105000D02*
D03*
Y-149000D02*
D03*
Y-160000D02*
D03*
X575500Y-138000D02*
D03*
X566500Y-154500D02*
D03*
X548500Y-88500D02*
D03*
Y-99500D02*
D03*
Y-110500D02*
D03*
Y-121500D02*
D03*
Y-132500D02*
D03*
Y-143500D02*
D03*
Y-154500D02*
D03*
Y-165500D02*
D03*
D184*
X645500Y-110500D02*
D03*
Y-143500D02*
D03*
X590500Y-153000D02*
D03*
X601500D02*
D03*
X612500D02*
D03*
X623500D02*
D03*
X634500D02*
D03*
X574000Y-162000D02*
D03*
X585000D02*
D03*
X596000D02*
D03*
X607000D02*
D03*
X618000D02*
D03*
X629000D02*
D03*
X640000D02*
D03*
X634500Y-101000D02*
D03*
X623500D02*
D03*
X612500D02*
D03*
X601500D02*
D03*
X590500D02*
D03*
X640000Y-92000D02*
D03*
X629000D02*
D03*
X618000D02*
D03*
X607000D02*
D03*
X596000D02*
D03*
X585000D02*
D03*
X574000D02*
D03*
X645500Y-83000D02*
D03*
X634500D02*
D03*
X623500D02*
D03*
X612500D02*
D03*
X601500D02*
D03*
X590500D02*
D03*
X579500D02*
D03*
X568500D02*
D03*
X557500D02*
D03*
Y-171000D02*
D03*
X568500D02*
D03*
X579500D02*
D03*
X590500D02*
D03*
X601500D02*
D03*
X612500D02*
D03*
X623500D02*
D03*
X634500D02*
D03*
X645500D02*
D03*
D185*
X433464Y61746D02*
D03*
D186*
X443464Y74700D02*
D03*
X438464D02*
D03*
X433464D02*
D03*
X428464D02*
D03*
X423464D02*
D03*
X428464Y48792D02*
D03*
X433464D02*
D03*
X438464D02*
D03*
X443464D02*
D03*
X423464D02*
D03*
D187*
X336950Y-142305D02*
D03*
Y-147305D02*
D03*
Y-152305D02*
D03*
Y-157305D02*
D03*
X308951D02*
D03*
Y-152305D02*
D03*
Y-147305D02*
D03*
Y-142305D02*
D03*
D188*
X330451Y-163805D02*
D03*
X325451D02*
D03*
X320451D02*
D03*
X315450D02*
D03*
Y-135805D02*
D03*
X320451D02*
D03*
X325451D02*
D03*
X330451D02*
D03*
D189*
X322951Y-149805D02*
D03*
D190*
X425406Y158406D02*
X431521D01*
X431614Y158500D01*
X418000Y155000D02*
X419182Y156182D01*
X423182D01*
X425406Y158406D01*
D191*
X374620Y899536D02*
X381995D01*
X357308Y882224D02*
X374620Y899536D01*
M02*
