G04*
G04 #@! TF.GenerationSoftware,Altium Limited,Altium Designer,24.9.1 (31)*
G04*
G04 Layer_Color=16711935*
%FSLAX44Y44*%
%MOMM*%
G71*
G04*
G04 #@! TF.SameCoordinates,1259BD5C-C6F3-40BD-8840-5C3A0C5864AA*
G04*
G04*
G04 #@! TF.FilePolarity,Negative*
G04*
G01*
G75*
%ADD17C,0.2540*%
%ADD73C,0.9144*%
%ADD74R,0.7270X0.7270*%
%ADD78R,1.1270X1.0770*%
%ADD79R,0.7270X0.7270*%
%ADD95R,1.2770X1.5770*%
%ADD98R,1.0770X1.1270*%
%ADD116R,1.1270X1.9270*%
%ADD117R,1.1270X1.0270*%
%ADD118R,1.7270X3.1270*%
%ADD121R,0.6270X0.4770*%
%ADD134C,2.1430*%
%ADD135C,1.1176*%
%ADD136C,2.5019*%
%ADD137C,5.1270*%
%ADD138C,1.3970*%
%ADD139C,0.8770*%
%ADD140O,1.0770X0.8770*%
%ADD141C,0.7770*%
%ADD142O,1.2270X2.3270*%
%ADD143C,3.3020*%
%ADD144C,5.2070*%
%ADD145C,3.1750*%
%ADD192C,3.5000*%
%ADD193R,0.9596X0.4818*%
G04:AMPARAMS|DCode=194|XSize=19.627mm|YSize=19.627mm|CornerRadius=1.2335mm|HoleSize=0mm|Usage=FLASHONLY|Rotation=180.000|XOffset=0mm|YOffset=0mm|HoleType=Round|Shape=RoundedRectangle|*
%AMROUNDEDRECTD194*
21,1,19.6270,17.1600,0,0,180.0*
21,1,17.1600,19.6270,0,0,180.0*
1,1,2.4670,-8.5800,8.5800*
1,1,2.4670,8.5800,8.5800*
1,1,2.4670,8.5800,-8.5800*
1,1,2.4670,-8.5800,-8.5800*
%
%ADD194ROUNDEDRECTD194*%
G04:AMPARAMS|DCode=195|XSize=16.127mm|YSize=19.627mm|CornerRadius=1.0235mm|HoleSize=0mm|Usage=FLASHONLY|Rotation=180.000|XOffset=0mm|YOffset=0mm|HoleType=Round|Shape=RoundedRectangle|*
%AMROUNDEDRECTD195*
21,1,16.1270,17.5800,0,0,180.0*
21,1,14.0800,19.6270,0,0,180.0*
1,1,2.0470,-7.0400,8.7900*
1,1,2.0470,7.0400,8.7900*
1,1,2.0470,7.0400,-8.7900*
1,1,2.0470,-7.0400,-8.7900*
%
%ADD195ROUNDEDRECTD195*%
%ADD196R,1.5770X1.2770*%
%ADD197R,0.3270X0.6770*%
%ADD198R,0.5270X0.6770*%
%ADD199R,2.1336X2.1336*%
%ADD200R,1.7270X2.5270*%
%ADD201R,0.4270X1.3270*%
%ADD202R,0.4270X1.2270*%
%ADD203R,2.8270X6.3270*%
%ADD204R,0.6350X0.6350*%
%ADD205R,0.6350X0.6350*%
%ADD206R,2.3270X1.4270*%
%ADD207R,0.3810X0.8382*%
G04:AMPARAMS|DCode=208|XSize=0.727mm|YSize=0.367mm|CornerRadius=0.1235mm|HoleSize=0mm|Usage=FLASHONLY|Rotation=180.000|XOffset=0mm|YOffset=0mm|HoleType=Round|Shape=RoundedRectangle|*
%AMROUNDEDRECTD208*
21,1,0.7270,0.1200,0,0,180.0*
21,1,0.4800,0.3670,0,0,180.0*
1,1,0.2470,-0.2400,0.0600*
1,1,0.2470,0.2400,0.0600*
1,1,0.2470,0.2400,-0.0600*
1,1,0.2470,-0.2400,-0.0600*
%
%ADD208ROUNDEDRECTD208*%
G04:AMPARAMS|DCode=209|XSize=0.727mm|YSize=0.367mm|CornerRadius=0.1235mm|HoleSize=0mm|Usage=FLASHONLY|Rotation=90.000|XOffset=0mm|YOffset=0mm|HoleType=Round|Shape=RoundedRectangle|*
%AMROUNDEDRECTD209*
21,1,0.7270,0.1200,0,0,90.0*
21,1,0.4800,0.3670,0,0,90.0*
1,1,0.2470,0.0600,0.2400*
1,1,0.2470,0.0600,-0.2400*
1,1,0.2470,-0.0600,-0.2400*
1,1,0.2470,-0.0600,0.2400*
%
%ADD209ROUNDEDRECTD209*%
%ADD210R,1.7870X1.7870*%
G36*
X441084Y150979D02*
X441181Y150956D01*
X441273Y150918D01*
X441358Y150865D01*
X441434Y150800D01*
X441499Y150724D01*
X441552Y150639D01*
X441590Y150547D01*
X441613Y150450D01*
X441621Y150350D01*
Y150350D01*
D01*
X441621Y137650D01*
X441613Y137550D01*
X441590Y137453D01*
X441552Y137361D01*
X441499Y137276D01*
X441434Y137200D01*
X441358Y137135D01*
X441273Y137083D01*
X441181Y137044D01*
X441084Y137021D01*
X440984Y137013D01*
X440568D01*
X440526Y137016D01*
X440485Y137018D01*
X439659Y137127D01*
X439619Y137136D01*
X439578Y137143D01*
X438774Y137359D01*
X438735Y137373D01*
X438695Y137386D01*
X437926Y137704D01*
X437888Y137723D01*
X437851Y137741D01*
X437130Y138157D01*
X437096Y138181D01*
X437061Y138203D01*
X436400Y138710D01*
X436370Y138738D01*
X436338Y138765D01*
X435749Y139354D01*
X435722Y139385D01*
X435694Y139416D01*
X435187Y140077D01*
X435164Y140112D01*
X435141Y140146D01*
X434725Y140867D01*
X434707Y140905D01*
X434688Y140942D01*
X434370Y141711D01*
X434357Y141750D01*
X434343Y141790D01*
X434127Y142594D01*
X434120Y142635D01*
X434111Y142675D01*
X434002Y143501D01*
X434000Y143542D01*
X433997Y143584D01*
Y144000D01*
Y144416D01*
X434000Y144458D01*
X434002Y144499D01*
X434111Y145325D01*
X434120Y145365D01*
X434128Y145406D01*
X434343Y146210D01*
X434357Y146250D01*
X434370Y146289D01*
X434688Y147058D01*
X434707Y147096D01*
X434725Y147133D01*
X435141Y147854D01*
X435165Y147888D01*
X435187Y147923D01*
X435694Y148583D01*
X435722Y148615D01*
X435749Y148646D01*
X436338Y149235D01*
X436370Y149262D01*
X436400Y149290D01*
X437061Y149796D01*
X437096Y149819D01*
X437130Y149843D01*
X437851Y150259D01*
X437889Y150277D01*
X437926Y150296D01*
X438695Y150614D01*
X438734Y150627D01*
X438774Y150641D01*
X439578Y150857D01*
X439618Y150864D01*
X439659Y150873D01*
X440485Y150982D01*
X440526Y150984D01*
X440568Y150987D01*
X440984D01*
X440984Y150987D01*
X441084Y150979D01*
D02*
G37*
G36*
X443474Y150984D02*
X443515Y150982D01*
X444341Y150873D01*
X444381Y150864D01*
X444422Y150857D01*
X445226Y150641D01*
X445265Y150627D01*
X445305Y150614D01*
X446074Y150296D01*
X446112Y150277D01*
X446149Y150259D01*
X446870Y149843D01*
X446904Y149819D01*
X446939Y149796D01*
X447600Y149290D01*
X447631Y149262D01*
X447662Y149235D01*
X448251Y148646D01*
X448278Y148615D01*
X448306Y148583D01*
X448812Y147923D01*
X448835Y147888D01*
X448859Y147854D01*
X449275Y147133D01*
X449293Y147095D01*
X449312Y147058D01*
X449630Y146289D01*
X449643Y146250D01*
X449657Y146210D01*
X449873Y145406D01*
X449880Y145365D01*
X449889Y145325D01*
X449997Y144499D01*
X450000Y144458D01*
X450003Y144416D01*
Y144000D01*
Y143584D01*
X450000Y143542D01*
X449997Y143501D01*
X449889Y142675D01*
X449880Y142635D01*
X449873Y142594D01*
X449657Y141790D01*
X449643Y141750D01*
X449630Y141711D01*
X449312Y140942D01*
X449293Y140904D01*
X449275Y140867D01*
X448859Y140146D01*
X448835Y140112D01*
X448812Y140077D01*
X448306Y139416D01*
X448278Y139385D01*
X448251Y139354D01*
X447662Y138765D01*
X447631Y138738D01*
X447600Y138710D01*
X446939Y138203D01*
X446904Y138181D01*
X446870Y138157D01*
X446149Y137741D01*
X446111Y137723D01*
X446074Y137704D01*
X445305Y137386D01*
X445266Y137373D01*
X445226Y137359D01*
X444422Y137143D01*
X444381Y137136D01*
X444341Y137127D01*
X443515Y137018D01*
X443474Y137016D01*
X443432Y137013D01*
X443016D01*
X443016Y137013D01*
X442916Y137021D01*
X442819Y137044D01*
X442727Y137083D01*
X442642Y137135D01*
X442566Y137200D01*
X442501Y137276D01*
X442449Y137361D01*
X442410Y137453D01*
X442387Y137550D01*
X442379Y137650D01*
Y137650D01*
D01*
X442379Y150350D01*
X442387Y150450D01*
X442410Y150547D01*
X442449Y150639D01*
X442501Y150724D01*
X442566Y150800D01*
X442642Y150865D01*
X442727Y150918D01*
X442819Y150956D01*
X442916Y150979D01*
X443016Y150987D01*
X443432D01*
X443474Y150984D01*
D02*
G37*
G36*
X417245Y-24484D02*
X408245D01*
Y-6484D01*
X417245D01*
Y-24484D01*
D02*
G37*
G36*
X163246D02*
X154245D01*
Y-6484D01*
X163246D01*
Y-24484D01*
D02*
G37*
G36*
X439255Y-127786D02*
X451005D01*
Y-153286D01*
X439255D01*
Y-154036D01*
X434755D01*
Y-153286D01*
X430255D01*
Y-127786D01*
X434755D01*
Y-127036D01*
X439255D01*
Y-127786D01*
D02*
G37*
D17*
X1747Y-444484D02*
X-2485Y-440253D01*
X-10948D01*
X-15180Y-444484D01*
Y-448717D01*
X-10948Y-452948D01*
X-2485D01*
X1747Y-457180D01*
Y-461412D01*
X-2485Y-465644D01*
X-10948D01*
X-15180Y-461412D01*
X27139Y-440253D02*
X10211D01*
Y-465644D01*
X27139D01*
X10211Y-452948D02*
X18675D01*
X52531Y-444484D02*
X48299Y-440253D01*
X39835D01*
X35603Y-444484D01*
Y-461412D01*
X39835Y-465644D01*
X48299D01*
X52531Y-461412D01*
X73691Y-440253D02*
X65227D01*
X60995Y-444484D01*
Y-461412D01*
X65227Y-465644D01*
X73691D01*
X77923Y-461412D01*
Y-444484D01*
X73691Y-440253D01*
X86387Y-465644D02*
Y-440253D01*
X103315Y-465644D01*
Y-440253D01*
X111778D02*
Y-465644D01*
X124474D01*
X128706Y-461412D01*
Y-444484D01*
X124474Y-440253D01*
X111778D01*
X137170Y-465644D02*
Y-448717D01*
X145634Y-440253D01*
X154098Y-448717D01*
Y-465644D01*
Y-452948D01*
X137170D01*
X162562Y-465644D02*
Y-440253D01*
X175258D01*
X179490Y-444484D01*
Y-452948D01*
X175258Y-457180D01*
X162562D01*
X171026D02*
X179490Y-465644D01*
X187954Y-440253D02*
Y-444484D01*
X196418Y-452948D01*
X204882Y-444484D01*
Y-440253D01*
X196418Y-452948D02*
Y-465644D01*
X255665Y-444484D02*
X251433Y-440253D01*
X242969D01*
X238738Y-444484D01*
Y-448717D01*
X242969Y-452948D01*
X251433D01*
X255665Y-457180D01*
Y-461412D01*
X251433Y-465644D01*
X242969D01*
X238738Y-461412D01*
X264129Y-440253D02*
X272593D01*
X268361D01*
Y-465644D01*
X264129D01*
X272593D01*
X285289Y-440253D02*
Y-465644D01*
X297985D01*
X302217Y-461412D01*
Y-444484D01*
X297985Y-440253D01*
X285289D01*
X327609D02*
X310681D01*
Y-465644D01*
X327609D01*
X310681Y-452948D02*
X319145D01*
X378392Y-444484D02*
X374160Y-440253D01*
X365696D01*
X361465Y-444484D01*
Y-448717D01*
X365696Y-452948D01*
X374160D01*
X378392Y-457180D01*
Y-461412D01*
X374160Y-465644D01*
X365696D01*
X361465Y-461412D01*
X399552Y-440253D02*
X391088D01*
X386856Y-444484D01*
Y-461412D01*
X391088Y-465644D01*
X399552D01*
X403784Y-461412D01*
Y-444484D01*
X399552Y-440253D01*
X412248D02*
Y-465644D01*
X429176D01*
X437640Y-440253D02*
Y-465644D01*
X450336D01*
X454568Y-461412D01*
Y-444484D01*
X450336Y-440253D01*
X437640D01*
X479959D02*
X463032D01*
Y-465644D01*
X479959D01*
X463032Y-452948D02*
X471496D01*
X488424Y-465644D02*
Y-440253D01*
X501119D01*
X505351Y-444484D01*
Y-452948D01*
X501119Y-457180D01*
X488424D01*
X496887D02*
X505351Y-465644D01*
X539207D02*
Y-440253D01*
X547671Y-448717D01*
X556135Y-440253D01*
Y-465644D01*
X564599D02*
Y-448717D01*
X573063Y-440253D01*
X581527Y-448717D01*
Y-465644D01*
Y-452948D01*
X564599D01*
X606918Y-444484D02*
X602687Y-440253D01*
X594223D01*
X589991Y-444484D01*
Y-448717D01*
X594223Y-452948D01*
X602687D01*
X606918Y-457180D01*
Y-461412D01*
X602687Y-465644D01*
X594223D01*
X589991Y-461412D01*
X615382Y-440253D02*
Y-465644D01*
Y-457180D01*
X632310Y-440253D01*
X619614Y-452948D01*
X632310Y-465644D01*
X-145Y-288975D02*
X-8608D01*
X-12840Y-293207D01*
Y-310134D01*
X-8608Y-314366D01*
X-145D01*
X4087Y-310134D01*
Y-293207D01*
X-145Y-288975D01*
X12551D02*
Y-314366D01*
X25247D01*
X29479Y-310134D01*
Y-293207D01*
X25247Y-288975D01*
X12551D01*
X37943D02*
X46407D01*
X42175D01*
Y-314366D01*
X37943D01*
X46407D01*
X76031Y-293207D02*
X71799Y-288975D01*
X63335D01*
X59103Y-293207D01*
Y-310134D01*
X63335Y-314366D01*
X71799D01*
X76031Y-310134D01*
X88727Y-318598D02*
X92959Y-314366D01*
Y-310134D01*
X88727D01*
Y-314366D01*
X92959D01*
X88727Y-318598D01*
X84495Y-322830D01*
X135278Y-288975D02*
X143742D01*
X139510D01*
Y-314366D01*
X135278D01*
X143742D01*
X156438D02*
Y-288975D01*
X173366Y-314366D01*
Y-288975D01*
X198758Y-293207D02*
X194526Y-288975D01*
X186062D01*
X181830Y-293207D01*
Y-310134D01*
X186062Y-314366D01*
X194526D01*
X198758Y-310134D01*
X207222Y-314366D02*
Y-310134D01*
X211454D01*
Y-314366D01*
X207222D01*
X1341Y-340332D02*
X-2891Y-336100D01*
X-11355D01*
X-15587Y-340332D01*
Y-357260D01*
X-11355Y-361492D01*
X-2891D01*
X1341Y-357260D01*
Y-348796D01*
X-7123D01*
X9805Y-336100D02*
Y-361492D01*
Y-348796D01*
X26733D01*
Y-336100D01*
Y-361492D01*
X35197Y-336100D02*
Y-361492D01*
X52125D01*
X85980D02*
Y-336100D01*
X102908Y-361492D01*
Y-336100D01*
X111372Y-361492D02*
Y-344564D01*
X119836Y-336100D01*
X128300Y-344564D01*
Y-361492D01*
Y-348796D01*
X111372D01*
X136764Y-361492D02*
Y-344564D01*
X145228Y-336100D01*
X153692Y-344564D01*
Y-361492D01*
Y-348796D01*
X136764D01*
X162156Y-336100D02*
X179083D01*
X170620D01*
Y-361492D01*
X200243Y-336100D02*
X191779D01*
X187547Y-340332D01*
Y-357260D01*
X191779Y-361492D01*
X200243D01*
X204475Y-357260D01*
Y-340332D01*
X200243Y-336100D01*
X229867Y-340332D02*
X225635Y-336100D01*
X217171D01*
X212939Y-340332D01*
Y-344564D01*
X217171Y-348796D01*
X225635D01*
X229867Y-353028D01*
Y-357260D01*
X225635Y-361492D01*
X217171D01*
X212939Y-357260D01*
X280651Y-340332D02*
X276419Y-336100D01*
X267955D01*
X263723Y-340332D01*
Y-344564D01*
X267955Y-348796D01*
X276419D01*
X280651Y-353028D01*
Y-357260D01*
X276419Y-361492D01*
X267955D01*
X263723Y-357260D01*
X293347Y-344564D02*
X301810D01*
X306042Y-348796D01*
Y-361492D01*
X293347D01*
X289115Y-357260D01*
X293347Y-353028D01*
X306042D01*
X314506Y-361492D02*
Y-344564D01*
X318738D01*
X322970Y-348796D01*
Y-361492D01*
Y-348796D01*
X327202Y-344564D01*
X331434Y-348796D01*
Y-361492D01*
X339898Y-369956D02*
Y-344564D01*
X352594D01*
X356826Y-348796D01*
Y-357260D01*
X352594Y-361492D01*
X339898D01*
X365290D02*
X373754D01*
X369522D01*
Y-336100D01*
X365290D01*
X399146Y-361492D02*
X390682D01*
X386450Y-357260D01*
Y-348796D01*
X390682Y-344564D01*
X399146D01*
X403378Y-348796D01*
Y-353028D01*
X386450D01*
X437233Y-361492D02*
Y-336100D01*
X449929D01*
X454161Y-340332D01*
Y-348796D01*
X449929Y-353028D01*
X437233D01*
X462625Y-344564D02*
Y-361492D01*
Y-353028D01*
X466857Y-348796D01*
X471089Y-344564D01*
X475321D01*
X500713Y-361492D02*
X492249D01*
X488017Y-357260D01*
Y-348796D01*
X492249Y-344564D01*
X500713D01*
X504945Y-348796D01*
Y-353028D01*
X488017D01*
X513409Y-369956D02*
Y-344564D01*
X526105D01*
X530337Y-348796D01*
Y-357260D01*
X526105Y-361492D01*
X513409D01*
X564192D02*
Y-336100D01*
X572656Y-344564D01*
X581120Y-336100D01*
Y-361492D01*
X593816Y-344564D02*
X602280D01*
X606512Y-348796D01*
Y-361492D01*
X593816D01*
X589584Y-357260D01*
X593816Y-353028D01*
X606512D01*
X614976Y-361492D02*
X623440D01*
X619208D01*
Y-344564D01*
X614976D01*
X636136Y-361492D02*
Y-344564D01*
X648832D01*
X653064Y-348796D01*
Y-361492D01*
X686919Y-336100D02*
Y-361492D01*
X699615D01*
X703847Y-357260D01*
Y-353028D01*
X699615Y-348796D01*
X686919D01*
X699615D01*
X703847Y-344564D01*
Y-340332D01*
X699615Y-336100D01*
X686919D01*
X716543Y-361492D02*
X725007D01*
X729239Y-357260D01*
Y-348796D01*
X725007Y-344564D01*
X716543D01*
X712311Y-348796D01*
Y-357260D01*
X716543Y-361492D01*
X741935Y-344564D02*
X750399D01*
X754631Y-348796D01*
Y-361492D01*
X741935D01*
X737703Y-357260D01*
X741935Y-353028D01*
X754631D01*
X763095Y-344564D02*
Y-361492D01*
Y-353028D01*
X767327Y-348796D01*
X771559Y-344564D01*
X775791D01*
X805414Y-336100D02*
Y-361492D01*
X792719D01*
X788486Y-357260D01*
Y-348796D01*
X792719Y-344564D01*
X805414D01*
X1727Y-413574D02*
X-15201D01*
X1727Y-396646D01*
Y-392415D01*
X-2505Y-388183D01*
X-10969D01*
X-15201Y-392415D01*
X27119Y-388183D02*
X18655Y-392415D01*
X10191Y-400878D01*
Y-409342D01*
X14423Y-413574D01*
X22887D01*
X27119Y-409342D01*
Y-405110D01*
X22887Y-400878D01*
X10191D01*
X35583Y-392415D02*
X39815Y-388183D01*
X48279D01*
X52511Y-392415D01*
Y-396646D01*
X48279Y-400878D01*
X44047D01*
X48279D01*
X52511Y-405110D01*
Y-409342D01*
X48279Y-413574D01*
X39815D01*
X35583Y-409342D01*
X60975Y-400878D02*
X77903D01*
X86367Y-392415D02*
X90599Y-388183D01*
X99063D01*
X103295Y-392415D01*
Y-409342D01*
X99063Y-413574D01*
X90599D01*
X86367Y-409342D01*
Y-392415D01*
X111758D02*
X115990Y-388183D01*
X124454D01*
X128686Y-392415D01*
Y-396646D01*
X124454Y-400878D01*
X120222D01*
X124454D01*
X128686Y-405110D01*
Y-409342D01*
X124454Y-413574D01*
X115990D01*
X111758Y-409342D01*
X137150Y-400878D02*
X154078D01*
X162542Y-392415D02*
X166774Y-388183D01*
X175238D01*
X179470Y-392415D01*
Y-409342D01*
X175238Y-413574D01*
X166774D01*
X162542Y-409342D01*
Y-392415D01*
X187934D02*
X192166Y-388183D01*
X200630D01*
X204862Y-392415D01*
Y-409342D01*
X200630Y-413574D01*
X192166D01*
X187934Y-409342D01*
Y-392415D01*
X213326Y-413574D02*
X221790D01*
X217558D01*
Y-388183D01*
X213326Y-392415D01*
X285269Y-413574D02*
Y-388183D01*
X297965D01*
X302197Y-392415D01*
Y-400878D01*
X297965Y-405110D01*
X285269D01*
X293733D02*
X302197Y-413574D01*
X327589Y-388183D02*
X310661D01*
Y-413574D01*
X327589D01*
X310661Y-400878D02*
X319125D01*
X336053Y-388183D02*
Y-405110D01*
X344517Y-413574D01*
X352980Y-405110D01*
Y-388183D01*
X403764Y-392415D02*
X399532Y-388183D01*
X391068D01*
X386836Y-392415D01*
Y-409342D01*
X391068Y-413574D01*
X399532D01*
X403764Y-409342D01*
D73*
X183350Y918000D02*
D03*
X170650D02*
D03*
X183350Y930700D02*
D03*
X170650D02*
D03*
X183350Y905300D02*
D03*
X170650D02*
D03*
X354350Y448000D02*
D03*
X341650D02*
D03*
X354350Y460700D02*
D03*
X341650D02*
D03*
X354350Y435300D02*
D03*
X341650D02*
D03*
D74*
X470000Y153000D02*
D03*
Y143000D02*
D03*
Y175000D02*
D03*
Y165000D02*
D03*
X418000D02*
D03*
Y155000D02*
D03*
X406000Y63000D02*
D03*
Y53000D02*
D03*
X457464Y64700D02*
D03*
Y74700D02*
D03*
X225225Y387950D02*
D03*
Y377950D02*
D03*
X315000Y-185000D02*
D03*
Y-175000D02*
D03*
X302950Y-184805D02*
D03*
Y-174805D02*
D03*
X261225Y366950D02*
D03*
Y356950D02*
D03*
X229225Y366950D02*
D03*
Y356950D02*
D03*
X217225Y366950D02*
D03*
Y356950D02*
D03*
X249225D02*
D03*
Y366950D02*
D03*
D78*
X527000Y-131000D02*
D03*
Y-115000D02*
D03*
X221950Y-174805D02*
D03*
Y-158805D02*
D03*
X204000Y-175000D02*
D03*
Y-159000D02*
D03*
D79*
X206000Y333000D02*
D03*
X216000D02*
D03*
X-88000Y-120000D02*
D03*
X-98000D02*
D03*
X248225Y383950D02*
D03*
X258225D02*
D03*
X179000Y185000D02*
D03*
X189000D02*
D03*
X209000Y197000D02*
D03*
X199000D02*
D03*
X281950Y-162805D02*
D03*
X291950D02*
D03*
X428465Y-12070D02*
D03*
X438465D02*
D03*
X291950Y-186805D02*
D03*
X281950D02*
D03*
Y-174805D02*
D03*
X291950D02*
D03*
X281950Y-150805D02*
D03*
X291950D02*
D03*
X166000Y202000D02*
D03*
X176000D02*
D03*
Y215000D02*
D03*
X166000D02*
D03*
X521000Y-87000D02*
D03*
X531000D02*
D03*
X521000Y-99000D02*
D03*
X531000D02*
D03*
X338000Y-181000D02*
D03*
X328000D02*
D03*
D95*
X414000Y-80000D02*
D03*
X432000D02*
D03*
X265225Y449950D02*
D03*
X283225D02*
D03*
X265225Y472950D02*
D03*
X283225D02*
D03*
D98*
X358951Y-151805D02*
D03*
X374950D02*
D03*
X371995Y935536D02*
D03*
X387995D02*
D03*
X379308Y918223D02*
D03*
X363308D02*
D03*
D116*
X455964Y25700D02*
D03*
X430964D02*
D03*
D117*
X449000Y365000D02*
D03*
Y349000D02*
D03*
D118*
X148000Y-134000D02*
D03*
Y-178000D02*
D03*
D121*
X423005Y-150286D02*
D03*
Y-143786D02*
D03*
Y-137286D02*
D03*
Y-130786D02*
D03*
X451005D02*
D03*
Y-137286D02*
D03*
Y-143786D02*
D03*
Y-150286D02*
D03*
D134*
X595000Y940000D02*
D03*
X-25000D02*
D03*
X-90000Y-80000D02*
D03*
D135*
X177000Y892600D02*
D03*
X166840Y943400D02*
D03*
X187160D02*
D03*
X177000Y892600D02*
D03*
X187160Y943400D02*
D03*
X166840D02*
D03*
X348000Y422600D02*
D03*
X358160Y473400D02*
D03*
X337840D02*
D03*
D136*
X151600Y892600D02*
D03*
Y924350D02*
D03*
X202400Y892600D02*
D03*
Y924350D02*
D03*
Y892600D02*
D03*
Y924350D02*
D03*
X151600Y892600D02*
D03*
Y924350D02*
D03*
D137*
X-106300Y576300D02*
D03*
X677800D02*
D03*
X375750Y732000D02*
D03*
X195750D02*
D03*
D138*
X483700Y-145500D02*
D03*
Y-130500D02*
D03*
Y-115500D02*
D03*
Y-100500D02*
D03*
Y-85500D02*
D03*
Y-70500D02*
D03*
X293000Y831500D02*
D03*
X278000D02*
D03*
D139*
X248695Y910436D02*
D03*
D140*
X320695D02*
D03*
D141*
X312695Y916936D02*
D03*
X308695Y923936D02*
D03*
X300695D02*
D03*
X296695Y916936D02*
D03*
X292695Y923936D02*
D03*
X288695Y916936D02*
D03*
X280695D02*
D03*
X276695Y923936D02*
D03*
X272695Y916936D02*
D03*
X268695Y923936D02*
D03*
X260695D02*
D03*
X256695Y916936D02*
D03*
D142*
X238695Y924436D02*
D03*
X330695D02*
D03*
X238695Y954436D02*
D03*
X330695D02*
D03*
D143*
X-94500Y921300D02*
D03*
X666000D02*
D03*
X-94500Y231300D02*
D03*
X666000D02*
D03*
D144*
X350750Y577215D02*
D03*
X220750D02*
D03*
D145*
X571500Y0D02*
D03*
X0D02*
D03*
D192*
X643600Y638100D02*
Y658100D01*
X608700Y603200D02*
X643600Y638100D01*
X-71500Y499000D02*
Y515000D01*
X604700Y498900D02*
X643700D01*
X603600Y660100D02*
X643600D01*
X643700Y499300D02*
X643700Y499300D01*
Y514800D01*
X608700Y549800D02*
X643700Y514800D01*
X608700Y549800D02*
Y603200D01*
X-69000Y517000D02*
X-36500Y549500D01*
X-69000Y499000D02*
X10000D01*
X-36500Y549500D02*
Y605500D01*
X-71500Y640500D02*
X-36500Y605500D01*
X-71500Y640500D02*
Y660000D01*
X-71500Y660000D01*
X-21000D01*
D193*
X431614Y171500D02*
D03*
Y165000D02*
D03*
Y158500D02*
D03*
X452386D02*
D03*
Y165000D02*
D03*
Y171500D02*
D03*
D194*
X562995Y809536D02*
D03*
Y349536D02*
D03*
X8995Y809536D02*
D03*
Y349536D02*
D03*
D195*
X26495Y579536D02*
D03*
X545495D02*
D03*
D196*
X347951Y-117805D02*
D03*
Y-99805D02*
D03*
X371950D02*
D03*
Y-117805D02*
D03*
X244951Y-158805D02*
D03*
Y-176805D02*
D03*
D197*
X281995Y877936D02*
D03*
X286995D02*
D03*
X296995D02*
D03*
X301995D02*
D03*
Y869436D02*
D03*
X296995D02*
D03*
X286995D02*
D03*
X281995D02*
D03*
D198*
X291995Y877936D02*
D03*
Y869436D02*
D03*
D199*
X308951Y-76739D02*
D03*
Y-116871D02*
D03*
D200*
X400245Y-19468D02*
D03*
X171245D02*
D03*
D201*
X383246Y-46464D02*
D03*
X378246D02*
D03*
X373246D02*
D03*
X368246D02*
D03*
X363246D02*
D03*
X358246D02*
D03*
X353246D02*
D03*
X348246D02*
D03*
X343246D02*
D03*
X338246D02*
D03*
X333246D02*
D03*
X328246D02*
D03*
X323246D02*
D03*
X318246D02*
D03*
X313246D02*
D03*
X308246D02*
D03*
X303246D02*
D03*
X298246D02*
D03*
X293246D02*
D03*
X288246D02*
D03*
X283246D02*
D03*
X278246D02*
D03*
X273246D02*
D03*
X268246D02*
D03*
X263246D02*
D03*
X258246D02*
D03*
X253246D02*
D03*
X248246D02*
D03*
X243246D02*
D03*
X238246D02*
D03*
X233246D02*
D03*
X228246D02*
D03*
X223246D02*
D03*
X218246D02*
D03*
X213246D02*
D03*
X208246D02*
D03*
X203246D02*
D03*
X198246D02*
D03*
X193246D02*
D03*
X188246D02*
D03*
D202*
X257195Y903836D02*
D03*
X262195D02*
D03*
X267195D02*
D03*
X272195D02*
D03*
X277195D02*
D03*
X292195D02*
D03*
X297195D02*
D03*
X302195D02*
D03*
X307195D02*
D03*
X312195D02*
D03*
X287195D02*
D03*
X282195D02*
D03*
D203*
X274951Y-110805D02*
D03*
X228951D02*
D03*
D204*
X566500Y-121500D02*
D03*
Y-132500D02*
D03*
Y-143500D02*
D03*
X557500Y-116000D02*
D03*
Y-127000D02*
D03*
Y-138000D02*
D03*
X566500Y-99500D02*
D03*
Y-110500D02*
D03*
X575500Y-116000D02*
D03*
Y-127000D02*
D03*
X557500Y-94000D02*
D03*
Y-105000D02*
D03*
Y-149000D02*
D03*
Y-160000D02*
D03*
X575500Y-138000D02*
D03*
X566500Y-154500D02*
D03*
X548500Y-88500D02*
D03*
Y-99500D02*
D03*
Y-110500D02*
D03*
Y-121500D02*
D03*
Y-132500D02*
D03*
Y-143500D02*
D03*
Y-154500D02*
D03*
Y-165500D02*
D03*
D205*
X645500Y-110500D02*
D03*
Y-143500D02*
D03*
X590500Y-153000D02*
D03*
X601500D02*
D03*
X612500D02*
D03*
X623500D02*
D03*
X634500D02*
D03*
X574000Y-162000D02*
D03*
X585000D02*
D03*
X596000D02*
D03*
X607000D02*
D03*
X618000D02*
D03*
X629000D02*
D03*
X640000D02*
D03*
X634500Y-101000D02*
D03*
X623500D02*
D03*
X612500D02*
D03*
X601500D02*
D03*
X590500D02*
D03*
X640000Y-92000D02*
D03*
X629000D02*
D03*
X618000D02*
D03*
X607000D02*
D03*
X596000D02*
D03*
X585000D02*
D03*
X574000D02*
D03*
X645500Y-83000D02*
D03*
X634500D02*
D03*
X623500D02*
D03*
X612500D02*
D03*
X601500D02*
D03*
X590500D02*
D03*
X579500D02*
D03*
X568500D02*
D03*
X557500D02*
D03*
Y-171000D02*
D03*
X568500D02*
D03*
X579500D02*
D03*
X590500D02*
D03*
X601500D02*
D03*
X612500D02*
D03*
X623500D02*
D03*
X634500D02*
D03*
X645500D02*
D03*
D206*
X433464Y61746D02*
D03*
D207*
X443464Y74700D02*
D03*
X438464D02*
D03*
X433464D02*
D03*
X428464D02*
D03*
X423464D02*
D03*
X428464Y48792D02*
D03*
X433464D02*
D03*
X438464D02*
D03*
X443464D02*
D03*
X423464D02*
D03*
D208*
X336950Y-142305D02*
D03*
Y-147305D02*
D03*
Y-152305D02*
D03*
Y-157305D02*
D03*
X308951D02*
D03*
Y-152305D02*
D03*
Y-147305D02*
D03*
Y-142305D02*
D03*
D209*
X330451Y-163805D02*
D03*
X325451D02*
D03*
X320451D02*
D03*
X315450D02*
D03*
Y-135805D02*
D03*
X320451D02*
D03*
X325451D02*
D03*
X330451D02*
D03*
D210*
X322951Y-149805D02*
D03*
M02*
