G04*
G04 #@! TF.GenerationSoftware,Altium Limited,Altium Designer,24.9.1 (31)*
G04*
G04 Layer_Color=128*
%FSLAX44Y44*%
%MOMM*%
G71*
G04*
G04 #@! TF.SameCoordinates,1259BD5C-C6F3-40BD-8840-5C3A0C5864AA*
G04*
G04*
G04 #@! TF.FilePolarity,Positive*
G04*
G01*
G75*
%ADD17C,0.2540*%
%ADD19R,0.6000X0.6000*%
%ADD23R,1.0000X0.9500*%
%ADD24R,0.6000X0.6000*%
%ADD39R,1.1500X1.4500*%
%ADD42R,0.9500X1.0000*%
%ADD59R,1.0000X1.8000*%
%ADD60R,1.0000X0.9000*%
%ADD61R,1.6000X3.0000*%
%ADD64R,0.5000X0.3500*%
%ADD156C,2.0000*%
%ADD172R,0.8326X0.3548*%
G04:AMPARAMS|DCode=173|XSize=19.5mm|YSize=19.5mm|CornerRadius=1.17mm|HoleSize=0mm|Usage=FLASHONLY|Rotation=180.000|XOffset=0mm|YOffset=0mm|HoleType=Round|Shape=RoundedRectangle|*
%AMROUNDEDRECTD173*
21,1,19.5000,17.1600,0,0,180.0*
21,1,17.1600,19.5000,0,0,180.0*
1,1,2.3400,-8.5800,8.5800*
1,1,2.3400,8.5800,8.5800*
1,1,2.3400,8.5800,-8.5800*
1,1,2.3400,-8.5800,-8.5800*
%
%ADD173ROUNDEDRECTD173*%
G04:AMPARAMS|DCode=174|XSize=16mm|YSize=19.5mm|CornerRadius=0.96mm|HoleSize=0mm|Usage=FLASHONLY|Rotation=180.000|XOffset=0mm|YOffset=0mm|HoleType=Round|Shape=RoundedRectangle|*
%AMROUNDEDRECTD174*
21,1,16.0000,17.5800,0,0,180.0*
21,1,14.0800,19.5000,0,0,180.0*
1,1,1.9200,-7.0400,8.7900*
1,1,1.9200,7.0400,8.7900*
1,1,1.9200,7.0400,-8.7900*
1,1,1.9200,-7.0400,-8.7900*
%
%ADD174ROUNDEDRECTD174*%
%ADD175R,1.4500X1.1500*%
%ADD176R,0.2000X0.5500*%
%ADD177R,0.4000X0.5500*%
%ADD178R,2.0066X2.0066*%
%ADD179R,1.6000X2.4000*%
%ADD180R,0.3000X1.2000*%
%ADD181R,0.3000X1.1000*%
%ADD182R,2.7000X6.2000*%
%ADD183R,0.5080X0.5080*%
%ADD184R,0.5080X0.5080*%
%ADD185R,2.2000X1.3000*%
%ADD186R,0.2540X0.7112*%
G04:AMPARAMS|DCode=187|XSize=0.6mm|YSize=0.24mm|CornerRadius=0.06mm|HoleSize=0mm|Usage=FLASHONLY|Rotation=180.000|XOffset=0mm|YOffset=0mm|HoleType=Round|Shape=RoundedRectangle|*
%AMROUNDEDRECTD187*
21,1,0.6000,0.1200,0,0,180.0*
21,1,0.4800,0.2400,0,0,180.0*
1,1,0.1200,-0.2400,0.0600*
1,1,0.1200,0.2400,0.0600*
1,1,0.1200,0.2400,-0.0600*
1,1,0.1200,-0.2400,-0.0600*
%
%ADD187ROUNDEDRECTD187*%
G04:AMPARAMS|DCode=188|XSize=0.6mm|YSize=0.24mm|CornerRadius=0.06mm|HoleSize=0mm|Usage=FLASHONLY|Rotation=90.000|XOffset=0mm|YOffset=0mm|HoleType=Round|Shape=RoundedRectangle|*
%AMROUNDEDRECTD188*
21,1,0.6000,0.1200,0,0,90.0*
21,1,0.4800,0.2400,0,0,90.0*
1,1,0.1200,0.0600,0.2400*
1,1,0.1200,0.0600,-0.2400*
1,1,0.1200,-0.0600,-0.2400*
1,1,0.1200,-0.0600,0.2400*
%
%ADD188ROUNDEDRECTD188*%
%ADD189R,1.6600X1.6600*%
G36*
X440984Y150350D02*
D01*
Y150350D01*
Y150350D01*
D02*
G37*
G36*
X440984Y137650D02*
X440568D01*
X439743Y137759D01*
X438938Y137974D01*
X438170Y138293D01*
X437449Y138709D01*
X436788Y139216D01*
X436200Y139804D01*
X435693Y140465D01*
X435277Y141186D01*
X434958Y141954D01*
X434743Y142759D01*
X434634Y143584D01*
Y144000D01*
Y144416D01*
X434743Y145241D01*
X434958Y146046D01*
X435277Y146814D01*
X435693Y147535D01*
X436200Y148196D01*
X436788Y148784D01*
X437449Y149291D01*
X438170Y149707D01*
X438938Y150026D01*
X439743Y150241D01*
X440568Y150350D01*
X440984D01*
X440984Y137650D01*
D02*
G37*
G36*
X416245Y-23468D02*
X408245D01*
Y-7468D01*
X416245D01*
Y-23468D01*
D02*
G37*
G36*
X163246D02*
X155246D01*
Y-7468D01*
X163246D01*
Y-23468D01*
D02*
G37*
G36*
X438755Y-128286D02*
X450505D01*
Y-152786D01*
X438755D01*
Y-153536D01*
X435255D01*
Y-152786D01*
X430755D01*
Y-128286D01*
X435255D01*
Y-127536D01*
X438755D01*
Y-128286D01*
D02*
G37*
G36*
X330510Y-157365D02*
X315390D01*
Y-142245D01*
X330510D01*
Y-157365D01*
D02*
G37*
D17*
X2341Y-443796D02*
X-1891Y-439564D01*
X-10355D01*
X-14587Y-443796D01*
Y-448028D01*
X-10355Y-452260D01*
X-1891D01*
X2341Y-456492D01*
Y-460724D01*
X-1891Y-464956D01*
X-10355D01*
X-14587Y-460724D01*
X27733Y-439564D02*
X10805D01*
Y-464956D01*
X27733D01*
X10805Y-452260D02*
X19269D01*
X53124Y-443796D02*
X48892Y-439564D01*
X40429D01*
X36197Y-443796D01*
Y-460724D01*
X40429Y-464956D01*
X48892D01*
X53124Y-460724D01*
X74284Y-439564D02*
X65820D01*
X61588Y-443796D01*
Y-460724D01*
X65820Y-464956D01*
X74284D01*
X78516Y-460724D01*
Y-443796D01*
X74284Y-439564D01*
X86980Y-464956D02*
Y-439564D01*
X103908Y-464956D01*
Y-439564D01*
X112372D02*
Y-464956D01*
X125068D01*
X129300Y-460724D01*
Y-443796D01*
X125068Y-439564D01*
X112372D01*
X137764Y-464956D02*
Y-448028D01*
X146228Y-439564D01*
X154692Y-448028D01*
Y-464956D01*
Y-452260D01*
X137764D01*
X163156Y-464956D02*
Y-439564D01*
X175851D01*
X180083Y-443796D01*
Y-452260D01*
X175851Y-456492D01*
X163156D01*
X171619D02*
X180083Y-464956D01*
X188547Y-439564D02*
Y-443796D01*
X197011Y-452260D01*
X205475Y-443796D01*
Y-439564D01*
X197011Y-452260D02*
Y-464956D01*
X256259Y-443796D02*
X252027Y-439564D01*
X243563D01*
X239331Y-443796D01*
Y-448028D01*
X243563Y-452260D01*
X252027D01*
X256259Y-456492D01*
Y-460724D01*
X252027Y-464956D01*
X243563D01*
X239331Y-460724D01*
X264723Y-439564D02*
X273187D01*
X268955D01*
Y-464956D01*
X264723D01*
X273187D01*
X285883Y-439564D02*
Y-464956D01*
X298578D01*
X302810Y-460724D01*
Y-443796D01*
X298578Y-439564D01*
X285883D01*
X328202D02*
X311274D01*
Y-464956D01*
X328202D01*
X311274Y-452260D02*
X319738D01*
X378986Y-443796D02*
X374754Y-439564D01*
X366290D01*
X362058Y-443796D01*
Y-448028D01*
X366290Y-452260D01*
X374754D01*
X378986Y-456492D01*
Y-460724D01*
X374754Y-464956D01*
X366290D01*
X362058Y-460724D01*
X400146Y-439564D02*
X391682D01*
X387450Y-443796D01*
Y-460724D01*
X391682Y-464956D01*
X400146D01*
X404378Y-460724D01*
Y-443796D01*
X400146Y-439564D01*
X412842D02*
Y-464956D01*
X429769D01*
X438233Y-439564D02*
Y-464956D01*
X450929D01*
X455161Y-460724D01*
Y-443796D01*
X450929Y-439564D01*
X438233D01*
X480553D02*
X463625D01*
Y-464956D01*
X480553D01*
X463625Y-452260D02*
X472089D01*
X489017Y-464956D02*
Y-439564D01*
X501713D01*
X505945Y-443796D01*
Y-452260D01*
X501713Y-456492D01*
X489017D01*
X497481D02*
X505945Y-464956D01*
X539800D02*
Y-439564D01*
X552496D01*
X556728Y-443796D01*
Y-452260D01*
X552496Y-456492D01*
X539800D01*
X565192Y-464956D02*
Y-448028D01*
X573656Y-439564D01*
X582120Y-448028D01*
Y-464956D01*
Y-452260D01*
X565192D01*
X607512Y-443796D02*
X603280Y-439564D01*
X594816D01*
X590584Y-443796D01*
Y-448028D01*
X594816Y-452260D01*
X603280D01*
X607512Y-456492D01*
Y-460724D01*
X603280Y-464956D01*
X594816D01*
X590584Y-460724D01*
X615976Y-439564D02*
X632904D01*
X624440D01*
Y-464956D01*
X658296Y-439564D02*
X641368D01*
Y-464956D01*
X658296D01*
X641368Y-452260D02*
X649832D01*
X-145Y-288975D02*
X-8608D01*
X-12840Y-293207D01*
Y-310134D01*
X-8608Y-314366D01*
X-145D01*
X4087Y-310134D01*
Y-293207D01*
X-145Y-288975D01*
X12551D02*
Y-314366D01*
X25247D01*
X29479Y-310134D01*
Y-293207D01*
X25247Y-288975D01*
X12551D01*
X37943D02*
X46407D01*
X42175D01*
Y-314366D01*
X37943D01*
X46407D01*
X76031Y-293207D02*
X71799Y-288975D01*
X63335D01*
X59103Y-293207D01*
Y-310134D01*
X63335Y-314366D01*
X71799D01*
X76031Y-310134D01*
X88727Y-318598D02*
X92959Y-314366D01*
Y-310134D01*
X88727D01*
Y-314366D01*
X92959D01*
X88727Y-318598D01*
X84495Y-322830D01*
X135278Y-288975D02*
X143742D01*
X139510D01*
Y-314366D01*
X135278D01*
X143742D01*
X156438D02*
Y-288975D01*
X173366Y-314366D01*
Y-288975D01*
X198758Y-293207D02*
X194526Y-288975D01*
X186062D01*
X181830Y-293207D01*
Y-310134D01*
X186062Y-314366D01*
X194526D01*
X198758Y-310134D01*
X207222Y-314366D02*
Y-310134D01*
X211454D01*
Y-314366D01*
X207222D01*
X1341Y-340332D02*
X-2891Y-336100D01*
X-11355D01*
X-15587Y-340332D01*
Y-357260D01*
X-11355Y-361492D01*
X-2891D01*
X1341Y-357260D01*
Y-348796D01*
X-7123D01*
X9805Y-336100D02*
Y-361492D01*
Y-348796D01*
X26733D01*
Y-336100D01*
Y-361492D01*
X35197Y-336100D02*
Y-361492D01*
X52125D01*
X85980D02*
Y-336100D01*
X102908Y-361492D01*
Y-336100D01*
X111372Y-361492D02*
Y-344564D01*
X119836Y-336100D01*
X128300Y-344564D01*
Y-361492D01*
Y-348796D01*
X111372D01*
X136764Y-361492D02*
Y-344564D01*
X145228Y-336100D01*
X153692Y-344564D01*
Y-361492D01*
Y-348796D01*
X136764D01*
X162156Y-336100D02*
X179083D01*
X170620D01*
Y-361492D01*
X200243Y-336100D02*
X191779D01*
X187547Y-340332D01*
Y-357260D01*
X191779Y-361492D01*
X200243D01*
X204475Y-357260D01*
Y-340332D01*
X200243Y-336100D01*
X229867Y-340332D02*
X225635Y-336100D01*
X217171D01*
X212939Y-340332D01*
Y-344564D01*
X217171Y-348796D01*
X225635D01*
X229867Y-353028D01*
Y-357260D01*
X225635Y-361492D01*
X217171D01*
X212939Y-357260D01*
X280651Y-340332D02*
X276419Y-336100D01*
X267955D01*
X263723Y-340332D01*
Y-344564D01*
X267955Y-348796D01*
X276419D01*
X280651Y-353028D01*
Y-357260D01*
X276419Y-361492D01*
X267955D01*
X263723Y-357260D01*
X293347Y-344564D02*
X301810D01*
X306042Y-348796D01*
Y-361492D01*
X293347D01*
X289115Y-357260D01*
X293347Y-353028D01*
X306042D01*
X314506Y-361492D02*
Y-344564D01*
X318738D01*
X322970Y-348796D01*
Y-361492D01*
Y-348796D01*
X327202Y-344564D01*
X331434Y-348796D01*
Y-361492D01*
X339898Y-369956D02*
Y-344564D01*
X352594D01*
X356826Y-348796D01*
Y-357260D01*
X352594Y-361492D01*
X339898D01*
X365290D02*
X373754D01*
X369522D01*
Y-336100D01*
X365290D01*
X399146Y-361492D02*
X390682D01*
X386450Y-357260D01*
Y-348796D01*
X390682Y-344564D01*
X399146D01*
X403378Y-348796D01*
Y-353028D01*
X386450D01*
X437233Y-361492D02*
Y-336100D01*
X449929D01*
X454161Y-340332D01*
Y-348796D01*
X449929Y-353028D01*
X437233D01*
X462625Y-344564D02*
Y-361492D01*
Y-353028D01*
X466857Y-348796D01*
X471089Y-344564D01*
X475321D01*
X500713Y-361492D02*
X492249D01*
X488017Y-357260D01*
Y-348796D01*
X492249Y-344564D01*
X500713D01*
X504945Y-348796D01*
Y-353028D01*
X488017D01*
X513409Y-369956D02*
Y-344564D01*
X526105D01*
X530337Y-348796D01*
Y-357260D01*
X526105Y-361492D01*
X513409D01*
X564192D02*
Y-336100D01*
X572656Y-344564D01*
X581120Y-336100D01*
Y-361492D01*
X593816Y-344564D02*
X602280D01*
X606512Y-348796D01*
Y-361492D01*
X593816D01*
X589584Y-357260D01*
X593816Y-353028D01*
X606512D01*
X614976Y-361492D02*
X623440D01*
X619208D01*
Y-344564D01*
X614976D01*
X636136Y-361492D02*
Y-344564D01*
X648832D01*
X653064Y-348796D01*
Y-361492D01*
X686919Y-336100D02*
Y-361492D01*
X699615D01*
X703847Y-357260D01*
Y-353028D01*
X699615Y-348796D01*
X686919D01*
X699615D01*
X703847Y-344564D01*
Y-340332D01*
X699615Y-336100D01*
X686919D01*
X716543Y-361492D02*
X725007D01*
X729239Y-357260D01*
Y-348796D01*
X725007Y-344564D01*
X716543D01*
X712311Y-348796D01*
Y-357260D01*
X716543Y-361492D01*
X741935Y-344564D02*
X750399D01*
X754631Y-348796D01*
Y-361492D01*
X741935D01*
X737703Y-357260D01*
X741935Y-353028D01*
X754631D01*
X763095Y-344564D02*
Y-361492D01*
Y-353028D01*
X767327Y-348796D01*
X771559Y-344564D01*
X775791D01*
X805414Y-336100D02*
Y-361492D01*
X792719D01*
X788486Y-357260D01*
Y-348796D01*
X792719Y-344564D01*
X805414D01*
X1727Y-413574D02*
X-15201D01*
X1727Y-396646D01*
Y-392415D01*
X-2505Y-388183D01*
X-10969D01*
X-15201Y-392415D01*
X27119Y-388183D02*
X18655Y-392415D01*
X10191Y-400878D01*
Y-409342D01*
X14423Y-413574D01*
X22887D01*
X27119Y-409342D01*
Y-405110D01*
X22887Y-400878D01*
X10191D01*
X35583Y-392415D02*
X39815Y-388183D01*
X48279D01*
X52511Y-392415D01*
Y-396646D01*
X48279Y-400878D01*
X44047D01*
X48279D01*
X52511Y-405110D01*
Y-409342D01*
X48279Y-413574D01*
X39815D01*
X35583Y-409342D01*
X60975Y-400878D02*
X77903D01*
X86367Y-392415D02*
X90599Y-388183D01*
X99063D01*
X103295Y-392415D01*
Y-409342D01*
X99063Y-413574D01*
X90599D01*
X86367Y-409342D01*
Y-392415D01*
X111758D02*
X115990Y-388183D01*
X124454D01*
X128686Y-392415D01*
Y-396646D01*
X124454Y-400878D01*
X120222D01*
X124454D01*
X128686Y-405110D01*
Y-409342D01*
X124454Y-413574D01*
X115990D01*
X111758Y-409342D01*
X137150Y-400878D02*
X154078D01*
X162542Y-392415D02*
X166774Y-388183D01*
X175238D01*
X179470Y-392415D01*
Y-409342D01*
X175238Y-413574D01*
X166774D01*
X162542Y-409342D01*
Y-392415D01*
X187934D02*
X192166Y-388183D01*
X200630D01*
X204862Y-392415D01*
Y-409342D01*
X200630Y-413574D01*
X192166D01*
X187934Y-409342D01*
Y-392415D01*
X213326Y-413574D02*
X221790D01*
X217558D01*
Y-388183D01*
X213326Y-392415D01*
X285269Y-413574D02*
Y-388183D01*
X297965D01*
X302197Y-392415D01*
Y-400878D01*
X297965Y-405110D01*
X285269D01*
X293733D02*
X302197Y-413574D01*
X327589Y-388183D02*
X310661D01*
Y-413574D01*
X327589D01*
X310661Y-400878D02*
X319125D01*
X336053Y-388183D02*
Y-405110D01*
X344517Y-413574D01*
X352980Y-405110D01*
Y-388183D01*
X403764Y-392415D02*
X399532Y-388183D01*
X391068D01*
X386836Y-392415D01*
Y-409342D01*
X391068Y-413574D01*
X399532D01*
X403764Y-409342D01*
D19*
X470000Y153000D02*
D03*
Y143000D02*
D03*
Y175000D02*
D03*
Y165000D02*
D03*
X418000D02*
D03*
Y155000D02*
D03*
X406000Y63000D02*
D03*
Y53000D02*
D03*
X457464Y64700D02*
D03*
Y74700D02*
D03*
X225225Y387950D02*
D03*
Y377950D02*
D03*
X315000Y-185000D02*
D03*
Y-175000D02*
D03*
X302950Y-184805D02*
D03*
Y-174805D02*
D03*
X261225Y366950D02*
D03*
Y356950D02*
D03*
X229225Y366950D02*
D03*
Y356950D02*
D03*
X217225Y366950D02*
D03*
Y356950D02*
D03*
X249225D02*
D03*
Y366950D02*
D03*
D23*
X527000Y-131000D02*
D03*
Y-115000D02*
D03*
X221950Y-174805D02*
D03*
Y-158805D02*
D03*
X204000Y-175000D02*
D03*
Y-159000D02*
D03*
D24*
X206000Y333000D02*
D03*
X216000D02*
D03*
X-88000Y-120000D02*
D03*
X-98000D02*
D03*
X248225Y383950D02*
D03*
X258225D02*
D03*
X179000Y185000D02*
D03*
X189000D02*
D03*
X209000Y197000D02*
D03*
X199000D02*
D03*
X281950Y-162805D02*
D03*
X291950D02*
D03*
X428465Y-12070D02*
D03*
X438465D02*
D03*
X291950Y-186805D02*
D03*
X281950D02*
D03*
Y-174805D02*
D03*
X291950D02*
D03*
X281950Y-150805D02*
D03*
X291950D02*
D03*
X166000Y202000D02*
D03*
X176000D02*
D03*
Y215000D02*
D03*
X166000D02*
D03*
X521000Y-87000D02*
D03*
X531000D02*
D03*
X521000Y-99000D02*
D03*
X531000D02*
D03*
X338000Y-181000D02*
D03*
X328000D02*
D03*
D39*
X414000Y-80000D02*
D03*
X432000D02*
D03*
X265225Y449950D02*
D03*
X283225D02*
D03*
X265225Y472950D02*
D03*
X283225D02*
D03*
D42*
X358951Y-151805D02*
D03*
X374950D02*
D03*
X371995Y935536D02*
D03*
X387995D02*
D03*
X379308Y918223D02*
D03*
X363308D02*
D03*
D59*
X455964Y25700D02*
D03*
X430964D02*
D03*
D60*
X449000Y365000D02*
D03*
Y349000D02*
D03*
D61*
X148000Y-134000D02*
D03*
Y-178000D02*
D03*
D64*
X423005Y-150286D02*
D03*
Y-143786D02*
D03*
Y-137286D02*
D03*
Y-130786D02*
D03*
X451005D02*
D03*
Y-137286D02*
D03*
Y-143786D02*
D03*
Y-150286D02*
D03*
D156*
X650250Y656500D02*
Y660500D01*
X646000Y667000D02*
X650250Y660500D01*
X612500Y667000D02*
X646000D01*
X639000Y632500D02*
Y664000D01*
X636000Y667000D02*
X639000Y664000D01*
X629200Y667000D02*
X636000D01*
X-73875Y665625D02*
X-72500Y667000D01*
X-78000Y661500D02*
X-76625Y662875D01*
X-61750Y495750D02*
X-61000Y495000D01*
X-61750Y495750D02*
Y533750D01*
X-78000Y496500D02*
Y517500D01*
Y496500D02*
X-73500Y492000D01*
X-78000Y517500D02*
X-45500Y550000D01*
X615700Y551800D02*
X615900D01*
X650000Y637000D02*
X650250Y660500D01*
X616750Y603750D02*
X650000Y637000D01*
X612500Y667000D02*
X629200D01*
Y630300D02*
Y667000D01*
X610700Y492000D02*
X644200D01*
Y492300D02*
X649700Y497800D01*
Y518000D01*
X615900Y551800D02*
X649700Y518000D01*
X631700Y495300D02*
Y529800D01*
X-60000Y629500D02*
Y664000D01*
X-78000Y637500D02*
X-44000Y603500D01*
X-78000Y637500D02*
Y638000D01*
Y661500D01*
X-76625Y662875D02*
X-73875Y665625D01*
X-72500Y667000D02*
X-39000D01*
X-45500Y492000D02*
Y550000D01*
X-73500Y492000D02*
X-45500D01*
D172*
X431614Y171500D02*
D03*
Y165000D02*
D03*
Y158500D02*
D03*
X452386D02*
D03*
Y165000D02*
D03*
Y171500D02*
D03*
D173*
X562995Y809536D02*
D03*
Y349536D02*
D03*
X8995Y809536D02*
D03*
Y349536D02*
D03*
D174*
X26495Y579536D02*
D03*
X545495D02*
D03*
D175*
X347951Y-117805D02*
D03*
Y-99805D02*
D03*
X371950D02*
D03*
Y-117805D02*
D03*
X244951Y-158805D02*
D03*
Y-176805D02*
D03*
D176*
X281995Y877936D02*
D03*
X286995D02*
D03*
X296995D02*
D03*
X301995D02*
D03*
Y869436D02*
D03*
X296995D02*
D03*
X286995D02*
D03*
X281995D02*
D03*
D177*
X291995Y877936D02*
D03*
Y869436D02*
D03*
D178*
X308951Y-76739D02*
D03*
Y-116871D02*
D03*
D179*
X400245Y-19468D02*
D03*
X171245D02*
D03*
D180*
X383246Y-46464D02*
D03*
X378246D02*
D03*
X373246D02*
D03*
X368246D02*
D03*
X363246D02*
D03*
X358246D02*
D03*
X353246D02*
D03*
X348246D02*
D03*
X343246D02*
D03*
X338246D02*
D03*
X333246D02*
D03*
X328246D02*
D03*
X323246D02*
D03*
X318246D02*
D03*
X313246D02*
D03*
X308246D02*
D03*
X303246D02*
D03*
X298246D02*
D03*
X293246D02*
D03*
X288246D02*
D03*
X283246D02*
D03*
X278246D02*
D03*
X273246D02*
D03*
X268246D02*
D03*
X263246D02*
D03*
X258246D02*
D03*
X253246D02*
D03*
X248246D02*
D03*
X243246D02*
D03*
X238246D02*
D03*
X233246D02*
D03*
X228246D02*
D03*
X223246D02*
D03*
X218246D02*
D03*
X213246D02*
D03*
X208246D02*
D03*
X203246D02*
D03*
X198246D02*
D03*
X193246D02*
D03*
X188246D02*
D03*
D181*
X257195Y903836D02*
D03*
X262195D02*
D03*
X267195D02*
D03*
X272195D02*
D03*
X277195D02*
D03*
X292195D02*
D03*
X297195D02*
D03*
X302195D02*
D03*
X307195D02*
D03*
X312195D02*
D03*
X287195D02*
D03*
X282195D02*
D03*
D182*
X274951Y-110805D02*
D03*
X228951D02*
D03*
D183*
X566500Y-121500D02*
D03*
Y-132500D02*
D03*
Y-143500D02*
D03*
X557500Y-116000D02*
D03*
Y-127000D02*
D03*
Y-138000D02*
D03*
X566500Y-99500D02*
D03*
Y-110500D02*
D03*
X575500Y-116000D02*
D03*
Y-127000D02*
D03*
X557500Y-94000D02*
D03*
Y-105000D02*
D03*
Y-149000D02*
D03*
Y-160000D02*
D03*
X575500Y-138000D02*
D03*
X566500Y-154500D02*
D03*
X548500Y-88500D02*
D03*
Y-99500D02*
D03*
Y-110500D02*
D03*
Y-121500D02*
D03*
Y-132500D02*
D03*
Y-143500D02*
D03*
Y-154500D02*
D03*
Y-165500D02*
D03*
D184*
X645500Y-110500D02*
D03*
Y-143500D02*
D03*
X590500Y-153000D02*
D03*
X601500D02*
D03*
X612500D02*
D03*
X623500D02*
D03*
X634500D02*
D03*
X574000Y-162000D02*
D03*
X585000D02*
D03*
X596000D02*
D03*
X607000D02*
D03*
X618000D02*
D03*
X629000D02*
D03*
X640000D02*
D03*
X634500Y-101000D02*
D03*
X623500D02*
D03*
X612500D02*
D03*
X601500D02*
D03*
X590500D02*
D03*
X640000Y-92000D02*
D03*
X629000D02*
D03*
X618000D02*
D03*
X607000D02*
D03*
X596000D02*
D03*
X585000D02*
D03*
X574000D02*
D03*
X645500Y-83000D02*
D03*
X634500D02*
D03*
X623500D02*
D03*
X612500D02*
D03*
X601500D02*
D03*
X590500D02*
D03*
X579500D02*
D03*
X568500D02*
D03*
X557500D02*
D03*
Y-171000D02*
D03*
X568500D02*
D03*
X579500D02*
D03*
X590500D02*
D03*
X601500D02*
D03*
X612500D02*
D03*
X623500D02*
D03*
X634500D02*
D03*
X645500D02*
D03*
D185*
X433464Y61746D02*
D03*
D186*
X443464Y74700D02*
D03*
X438464D02*
D03*
X433464D02*
D03*
X428464D02*
D03*
X423464D02*
D03*
X428464Y48792D02*
D03*
X433464D02*
D03*
X438464D02*
D03*
X443464D02*
D03*
X423464D02*
D03*
D187*
X336950Y-142305D02*
D03*
Y-147305D02*
D03*
Y-152305D02*
D03*
Y-157305D02*
D03*
X308951D02*
D03*
Y-152305D02*
D03*
Y-147305D02*
D03*
Y-142305D02*
D03*
D188*
X330451Y-163805D02*
D03*
X325451D02*
D03*
X320451D02*
D03*
X315450D02*
D03*
Y-135805D02*
D03*
X320451D02*
D03*
X325451D02*
D03*
X330451D02*
D03*
D189*
X322951Y-149805D02*
D03*
M02*
