G04*
G04 #@! TF.GenerationSoftware,Altium Limited,Altium Designer,24.9.1 (31)*
G04*
G04 Layer_Physical_Order=2*
G04 Layer_Color=16711680*
%FSLAX44Y44*%
%MOMM*%
G71*
G04*
G04 #@! TF.SameCoordinates,8DF27061-4A41-470E-9062-B82E270B293B*
G04*
G04*
G04 #@! TF.FilePolarity,Positive*
G04*
G01*
G75*
%ADD11C,0.2540*%
%ADD13C,0.0127*%
%ADD20C,1.5240*%
%ADD21C,0.2032*%
%ADD23C,3.0480*%
%ADD24C,0.6100*%
%ADD25C,0.6096*%
%ADD26R,0.3556X0.8128*%
%ADD27R,0.8128X0.3556*%
%ADD28R,2.5908X2.5908*%
%ADD29R,0.6000X0.6000*%
%ADD30C,0.5000*%
%ADD31C,0.3000*%
%ADD32C,0.3048*%
G36*
X266000Y500200D02*
Y486000D01*
X262000Y482000D01*
X236000D01*
X211000Y457000D01*
Y193000D01*
X198000Y180000D01*
X154000D01*
X151000Y183000D01*
X151000Y191000D01*
X155000Y195000D01*
X186000Y195000D01*
X194000Y203000D01*
Y464613D01*
X232387Y503000D01*
X263200D01*
X266000Y500200D01*
D02*
G37*
D11*
X15468Y-218570D02*
X11236Y-214338D01*
X2772D01*
X-1460Y-218570D01*
Y-222802D01*
X2772Y-227034D01*
X11236D01*
X15468Y-231266D01*
Y-235498D01*
X11236Y-239730D01*
X2772D01*
X-1460Y-235498D01*
X40860Y-214338D02*
X23932D01*
Y-239730D01*
X40860D01*
X23932Y-227034D02*
X32396D01*
X66252Y-218570D02*
X62020Y-214338D01*
X53556D01*
X49324Y-218570D01*
Y-235498D01*
X53556Y-239730D01*
X62020D01*
X66252Y-235498D01*
X87411Y-214338D02*
X78947D01*
X74715Y-218570D01*
Y-235498D01*
X78947Y-239730D01*
X87411D01*
X91643Y-235498D01*
Y-218570D01*
X87411Y-214338D01*
X100107Y-239730D02*
Y-214338D01*
X117035Y-239730D01*
Y-214338D01*
X125499D02*
Y-239730D01*
X138195D01*
X142427Y-235498D01*
Y-218570D01*
X138195Y-214338D01*
X125499D01*
X150891Y-239730D02*
Y-222802D01*
X159355Y-214338D01*
X167819Y-222802D01*
Y-239730D01*
Y-227034D01*
X150891D01*
X176283Y-239730D02*
Y-214338D01*
X188979D01*
X193210Y-218570D01*
Y-227034D01*
X188979Y-231266D01*
X176283D01*
X184746D02*
X193210Y-239730D01*
X201674Y-214338D02*
Y-218570D01*
X210138Y-227034D01*
X218602Y-218570D01*
Y-214338D01*
X210138Y-227034D02*
Y-239730D01*
X269386Y-218570D02*
X265154Y-214338D01*
X256690D01*
X252458Y-218570D01*
Y-222802D01*
X256690Y-227034D01*
X265154D01*
X269386Y-231266D01*
Y-235498D01*
X265154Y-239730D01*
X256690D01*
X252458Y-235498D01*
X277850Y-214338D02*
X286314D01*
X282082D01*
Y-239730D01*
X277850D01*
X286314D01*
X299010Y-214338D02*
Y-239730D01*
X311705D01*
X315937Y-235498D01*
Y-218570D01*
X311705Y-214338D01*
X299010D01*
X341329D02*
X324401D01*
Y-239730D01*
X341329D01*
X324401Y-227034D02*
X332865D01*
X375185D02*
X392113D01*
X425969Y-214338D02*
Y-239730D01*
X442896D01*
X451360D02*
Y-222802D01*
X459824Y-214338D01*
X468288Y-222802D01*
Y-239730D01*
Y-227034D01*
X451360D01*
X476752Y-214338D02*
Y-218570D01*
X485216Y-227034D01*
X493680Y-218570D01*
Y-214338D01*
X485216Y-227034D02*
Y-239730D01*
X519072Y-214338D02*
X502144D01*
Y-239730D01*
X519072D01*
X502144Y-227034D02*
X510608D01*
X527536Y-239730D02*
Y-214338D01*
X540232D01*
X544464Y-218570D01*
Y-227034D01*
X540232Y-231266D01*
X527536D01*
X536000D02*
X544464Y-239730D01*
X595247D02*
X578319D01*
X595247Y-222802D01*
Y-218570D01*
X591015Y-214338D01*
X582551D01*
X578319Y-218570D01*
X12982Y-65749D02*
X4518D01*
X287Y-69981D01*
Y-86909D01*
X4518Y-91141D01*
X12982D01*
X17214Y-86909D01*
Y-69981D01*
X12982Y-65749D01*
X25678D02*
Y-91141D01*
X38374D01*
X42606Y-86909D01*
Y-69981D01*
X38374Y-65749D01*
X25678D01*
X51070D02*
X59534D01*
X55302D01*
Y-91141D01*
X51070D01*
X59534D01*
X89158Y-69981D02*
X84926Y-65749D01*
X76462D01*
X72230Y-69981D01*
Y-86909D01*
X76462Y-91141D01*
X84926D01*
X89158Y-86909D01*
X101854Y-95372D02*
X106086Y-91141D01*
Y-86909D01*
X101854D01*
Y-91141D01*
X106086D01*
X101854Y-95372D01*
X97622Y-99605D01*
X148405Y-65749D02*
X156869D01*
X152637D01*
Y-91141D01*
X148405D01*
X156869D01*
X169565D02*
Y-65749D01*
X186493Y-91141D01*
Y-65749D01*
X211885Y-69981D02*
X207653Y-65749D01*
X199189D01*
X194957Y-69981D01*
Y-86909D01*
X199189Y-91141D01*
X207653D01*
X211885Y-86909D01*
X220349Y-91141D02*
Y-86909D01*
X224581D01*
Y-91141D01*
X220349D01*
X14468Y-117106D02*
X10236Y-112874D01*
X1772D01*
X-2460Y-117106D01*
Y-134034D01*
X1772Y-138266D01*
X10236D01*
X14468Y-134034D01*
Y-125570D01*
X6004D01*
X22932Y-112874D02*
Y-138266D01*
Y-125570D01*
X39860D01*
Y-112874D01*
Y-138266D01*
X48324Y-112874D02*
Y-138266D01*
X65251D01*
X99107D02*
Y-112874D01*
X116035Y-138266D01*
Y-112874D01*
X124499Y-138266D02*
Y-121338D01*
X132963Y-112874D01*
X141427Y-121338D01*
Y-138266D01*
Y-125570D01*
X124499D01*
X149891Y-138266D02*
Y-121338D01*
X158355Y-112874D01*
X166819Y-121338D01*
Y-138266D01*
Y-125570D01*
X149891D01*
X175283Y-112874D02*
X192210D01*
X183746D01*
Y-138266D01*
X213370Y-112874D02*
X204906D01*
X200674Y-117106D01*
Y-134034D01*
X204906Y-138266D01*
X213370D01*
X217602Y-134034D01*
Y-117106D01*
X213370Y-112874D01*
X242994Y-117106D02*
X238762Y-112874D01*
X230298D01*
X226066Y-117106D01*
Y-121338D01*
X230298Y-125570D01*
X238762D01*
X242994Y-129802D01*
Y-134034D01*
X238762Y-138266D01*
X230298D01*
X226066Y-134034D01*
X293778Y-117106D02*
X289546Y-112874D01*
X281082D01*
X276850Y-117106D01*
Y-121338D01*
X281082Y-125570D01*
X289546D01*
X293778Y-129802D01*
Y-134034D01*
X289546Y-138266D01*
X281082D01*
X276850Y-134034D01*
X306474Y-121338D02*
X314937D01*
X319169Y-125570D01*
Y-138266D01*
X306474D01*
X302242Y-134034D01*
X306474Y-129802D01*
X319169D01*
X327633Y-138266D02*
Y-121338D01*
X331865D01*
X336097Y-125570D01*
Y-138266D01*
Y-125570D01*
X340329Y-121338D01*
X344561Y-125570D01*
Y-138266D01*
X353025Y-146730D02*
Y-121338D01*
X365721D01*
X369953Y-125570D01*
Y-134034D01*
X365721Y-138266D01*
X353025D01*
X378417D02*
X386881D01*
X382649D01*
Y-112874D01*
X378417D01*
X412273Y-138266D02*
X403809D01*
X399577Y-134034D01*
Y-125570D01*
X403809Y-121338D01*
X412273D01*
X416505Y-125570D01*
Y-129802D01*
X399577D01*
X450360Y-138266D02*
Y-112874D01*
X463056D01*
X467288Y-117106D01*
Y-125570D01*
X463056Y-129802D01*
X450360D01*
X475752Y-121338D02*
Y-138266D01*
Y-129802D01*
X479984Y-125570D01*
X484216Y-121338D01*
X488448D01*
X513840Y-138266D02*
X505376D01*
X501144Y-134034D01*
Y-125570D01*
X505376Y-121338D01*
X513840D01*
X518072Y-125570D01*
Y-129802D01*
X501144D01*
X526536Y-146730D02*
Y-121338D01*
X539232D01*
X543464Y-125570D01*
Y-134034D01*
X539232Y-138266D01*
X526536D01*
X577319Y-112874D02*
Y-138266D01*
Y-125570D01*
X594247D01*
Y-112874D01*
Y-138266D01*
X615407D02*
X606943D01*
X602711Y-134034D01*
Y-125570D01*
X606943Y-121338D01*
X615407D01*
X619639Y-125570D01*
Y-129802D01*
X602711D01*
X632335Y-121338D02*
X640799D01*
X645031Y-125570D01*
Y-138266D01*
X632335D01*
X628103Y-134034D01*
X632335Y-129802D01*
X645031D01*
X657727Y-117106D02*
Y-121338D01*
X653495D01*
X661959D01*
X657727D01*
Y-134034D01*
X661959Y-138266D01*
X687350D02*
X678886D01*
X674655Y-134034D01*
Y-125570D01*
X678886Y-121338D01*
X687350D01*
X691582Y-125570D01*
Y-129802D01*
X674655D01*
X700046Y-121338D02*
Y-138266D01*
Y-129802D01*
X704278Y-125570D01*
X708510Y-121338D01*
X712742D01*
X750830Y-112874D02*
Y-138266D01*
X763526D01*
X767758Y-134034D01*
Y-129802D01*
X763526Y-125570D01*
X750830D01*
X763526D01*
X767758Y-121338D01*
Y-117106D01*
X763526Y-112874D01*
X750830D01*
X780454Y-138266D02*
X788918D01*
X793150Y-134034D01*
Y-125570D01*
X788918Y-121338D01*
X780454D01*
X776222Y-125570D01*
Y-134034D01*
X780454Y-138266D01*
X805845Y-121338D02*
X814309D01*
X818541Y-125570D01*
Y-138266D01*
X805845D01*
X801613Y-134034D01*
X805845Y-129802D01*
X818541D01*
X827005Y-121338D02*
Y-138266D01*
Y-129802D01*
X831237Y-125570D01*
X835469Y-121338D01*
X839701D01*
X869325Y-112874D02*
Y-138266D01*
X856629D01*
X852397Y-134034D01*
Y-125570D01*
X856629Y-121338D01*
X869325D01*
X14854Y-190348D02*
X-2074D01*
X14854Y-173421D01*
Y-169189D01*
X10622Y-164957D01*
X2158D01*
X-2074Y-169189D01*
X40246Y-164957D02*
X31782Y-169189D01*
X23318Y-177653D01*
Y-186117D01*
X27550Y-190348D01*
X36014D01*
X40246Y-186117D01*
Y-181885D01*
X36014Y-177653D01*
X23318D01*
X48710Y-169189D02*
X52942Y-164957D01*
X61406D01*
X65638Y-169189D01*
Y-173421D01*
X61406Y-177653D01*
X57174D01*
X61406D01*
X65638Y-181885D01*
Y-186117D01*
X61406Y-190348D01*
X52942D01*
X48710Y-186117D01*
X74102Y-177653D02*
X91030D01*
X99494Y-169189D02*
X103726Y-164957D01*
X112190D01*
X116422Y-169189D01*
Y-186117D01*
X112190Y-190348D01*
X103726D01*
X99494Y-186117D01*
Y-169189D01*
X124886D02*
X129117Y-164957D01*
X137581D01*
X141813Y-169189D01*
Y-173421D01*
X137581Y-177653D01*
X133349D01*
X137581D01*
X141813Y-181885D01*
Y-186117D01*
X137581Y-190348D01*
X129117D01*
X124886Y-186117D01*
X150277Y-177653D02*
X167205D01*
X175669Y-169189D02*
X179901Y-164957D01*
X188365D01*
X192597Y-169189D01*
Y-186117D01*
X188365Y-190348D01*
X179901D01*
X175669Y-186117D01*
Y-169189D01*
X201061D02*
X205293Y-164957D01*
X213757D01*
X217989Y-169189D01*
Y-186117D01*
X213757Y-190348D01*
X205293D01*
X201061Y-186117D01*
Y-169189D01*
X226453Y-190348D02*
X234917D01*
X230685D01*
Y-164957D01*
X226453Y-169189D01*
X273004Y-190348D02*
Y-164957D01*
X285700D01*
X289932Y-169189D01*
Y-177653D01*
X285700Y-181885D01*
X273004D01*
X281468D02*
X289932Y-190348D01*
X315324Y-164957D02*
X298396D01*
Y-190348D01*
X315324D01*
X298396Y-177653D02*
X306860D01*
X323788Y-164957D02*
Y-181885D01*
X332252Y-190348D01*
X340716Y-181885D01*
Y-164957D01*
X374571D02*
Y-190348D01*
X387267D01*
X391499Y-186117D01*
Y-169189D01*
X387267Y-164957D01*
X374571D01*
D13*
X317500Y25400D02*
Y292100D01*
D20*
X290000Y255000D02*
D03*
Y62000D02*
D03*
X27000D02*
D03*
D21*
X168308Y247813D02*
X169070Y247051D01*
X84000Y516000D02*
X168308Y431692D01*
Y247813D02*
Y431692D01*
X161808Y247813D02*
Y428192D01*
X74000Y516000D02*
X161808Y428192D01*
Y247813D02*
X162570Y247051D01*
D23*
X289560Y289560D02*
D03*
X27940D02*
D03*
X63500Y158750D02*
D03*
X254000D02*
D03*
X289560Y27940D02*
D03*
X27940D02*
D03*
D24*
X84000Y516000D02*
D03*
X74000D02*
D03*
X164000Y187000D02*
D03*
X155000D02*
D03*
X262000Y491000D02*
D03*
X254000D02*
D03*
X64000D02*
D03*
X55000D02*
D03*
D25*
X163130Y225080D02*
D03*
Y231430D02*
D03*
X154240D02*
D03*
Y225080D02*
D03*
D26*
X149570Y247051D02*
D03*
X156070D02*
D03*
X162570D02*
D03*
X169070D02*
D03*
Y208189D02*
D03*
X162570D02*
D03*
X156070D02*
D03*
X149570D02*
D03*
D27*
X178751Y237370D02*
D03*
Y230870D02*
D03*
Y224370D02*
D03*
Y217870D02*
D03*
X139889D02*
D03*
Y224370D02*
D03*
Y230870D02*
D03*
Y237370D02*
D03*
D28*
X159320Y227620D02*
D03*
D29*
X150000Y289600D02*
D03*
Y279600D02*
D03*
D30*
X55000Y491000D02*
X64000D01*
X83000D01*
X150000Y424000D01*
Y289600D02*
Y424000D01*
X149897Y289497D02*
X150000Y289600D01*
X130246Y237370D02*
Y276246D01*
X143497Y289497D01*
X149897D01*
X149500Y280000D02*
Y280100D01*
X152720Y276880D01*
Y255880D02*
Y276880D01*
D31*
X149570Y252730D02*
X152720Y255880D01*
X156070Y252530D01*
X149570Y247051D02*
Y252730D01*
X156070Y247051D02*
Y252530D01*
X154240Y231430D02*
X156070Y233260D01*
Y247051D01*
X149570Y236100D02*
X154240Y231430D01*
X149570Y236100D02*
Y247051D01*
D32*
X130246Y232656D02*
Y237370D01*
X139889D01*
X130246Y232656D02*
X132031Y230870D01*
X139889D01*
M02*
