G04*
G04 #@! TF.GenerationSoftware,Altium Limited,Altium Designer,24.9.1 (31)*
G04*
G04 Layer_Color=128*
%FSLAX44Y44*%
%MOMM*%
G71*
G04*
G04 #@! TF.SameCoordinates,8DF27061-4A41-470E-9062-B82E270B293B*
G04*
G04*
G04 #@! TF.FilePolarity,Positive*
G04*
G01*
G75*
%ADD11C,0.2540*%
%ADD13C,0.0127*%
%ADD26R,0.3556X0.8128*%
%ADD27R,0.8128X0.3556*%
%ADD29R,0.6000X0.6000*%
%ADD36R,0.0254X0.0254*%
G36*
X147366Y215666D02*
Y226620D01*
X158320D01*
Y215666D01*
X147366D01*
D02*
G37*
G36*
Y228620D02*
Y239574D01*
X158320D01*
Y228620D01*
X147366D01*
D02*
G37*
G36*
X160320Y215666D02*
Y226620D01*
X171274D01*
Y215666D01*
X160320D01*
D02*
G37*
G36*
Y228620D02*
Y239574D01*
X171274D01*
Y228620D01*
X160320D01*
D02*
G37*
D11*
X25468Y-219300D02*
X21236Y-215068D01*
X12772D01*
X8540Y-219300D01*
Y-223532D01*
X12772Y-227764D01*
X21236D01*
X25468Y-231996D01*
Y-236228D01*
X21236Y-240460D01*
X12772D01*
X8540Y-236228D01*
X50860Y-215068D02*
X33932D01*
Y-240460D01*
X50860D01*
X33932Y-227764D02*
X42396D01*
X76251Y-219300D02*
X72020Y-215068D01*
X63555D01*
X59324Y-219300D01*
Y-236228D01*
X63555Y-240460D01*
X72020D01*
X76251Y-236228D01*
X97411Y-215068D02*
X88947D01*
X84715Y-219300D01*
Y-236228D01*
X88947Y-240460D01*
X97411D01*
X101643Y-236228D01*
Y-219300D01*
X97411Y-215068D01*
X110107Y-240460D02*
Y-215068D01*
X127035Y-240460D01*
Y-215068D01*
X135499D02*
Y-240460D01*
X148195D01*
X152427Y-236228D01*
Y-219300D01*
X148195Y-215068D01*
X135499D01*
X160891Y-240460D02*
Y-223532D01*
X169355Y-215068D01*
X177819Y-223532D01*
Y-240460D01*
Y-227764D01*
X160891D01*
X186283Y-240460D02*
Y-215068D01*
X198978D01*
X203210Y-219300D01*
Y-227764D01*
X198978Y-231996D01*
X186283D01*
X194746D02*
X203210Y-240460D01*
X211674Y-215068D02*
Y-219300D01*
X220138Y-227764D01*
X228602Y-219300D01*
Y-215068D01*
X220138Y-227764D02*
Y-240460D01*
X279386Y-219300D02*
X275154Y-215068D01*
X266690D01*
X262458Y-219300D01*
Y-223532D01*
X266690Y-227764D01*
X275154D01*
X279386Y-231996D01*
Y-236228D01*
X275154Y-240460D01*
X266690D01*
X262458Y-236228D01*
X287850Y-215068D02*
X296314D01*
X292082D01*
Y-240460D01*
X287850D01*
X296314D01*
X309010Y-215068D02*
Y-240460D01*
X321706D01*
X325937Y-236228D01*
Y-219300D01*
X321706Y-215068D01*
X309010D01*
X351329D02*
X334401D01*
Y-240460D01*
X351329D01*
X334401Y-227764D02*
X342865D01*
X402113Y-219300D02*
X397881Y-215068D01*
X389417D01*
X385185Y-219300D01*
Y-223532D01*
X389417Y-227764D01*
X397881D01*
X402113Y-231996D01*
Y-236228D01*
X397881Y-240460D01*
X389417D01*
X385185Y-236228D01*
X423273Y-215068D02*
X414809D01*
X410577Y-219300D01*
Y-236228D01*
X414809Y-240460D01*
X423273D01*
X427505Y-236228D01*
Y-219300D01*
X423273Y-215068D01*
X435969D02*
Y-240460D01*
X452896D01*
X461360Y-215068D02*
Y-240460D01*
X474056D01*
X478288Y-236228D01*
Y-219300D01*
X474056Y-215068D01*
X461360D01*
X503680D02*
X486752D01*
Y-240460D01*
X503680D01*
X486752Y-227764D02*
X495216D01*
X512144Y-240460D02*
Y-215068D01*
X524840D01*
X529072Y-219300D01*
Y-227764D01*
X524840Y-231996D01*
X512144D01*
X520608D02*
X529072Y-240460D01*
X562928D02*
Y-215068D01*
X575623D01*
X579855Y-219300D01*
Y-227764D01*
X575623Y-231996D01*
X562928D01*
X588319Y-240460D02*
Y-223532D01*
X596783Y-215068D01*
X605247Y-223532D01*
Y-240460D01*
Y-227764D01*
X588319D01*
X630639Y-219300D02*
X626407Y-215068D01*
X617943D01*
X613711Y-219300D01*
Y-223532D01*
X617943Y-227764D01*
X626407D01*
X630639Y-231996D01*
Y-236228D01*
X626407Y-240460D01*
X617943D01*
X613711Y-236228D01*
X639103Y-215068D02*
X656031D01*
X647567D01*
Y-240460D01*
X681423Y-215068D02*
X664495D01*
Y-240460D01*
X681423D01*
X664495Y-227764D02*
X672959D01*
X12982Y-65749D02*
X4518D01*
X287Y-69981D01*
Y-86909D01*
X4518Y-91141D01*
X12982D01*
X17214Y-86909D01*
Y-69981D01*
X12982Y-65749D01*
X25678D02*
Y-91141D01*
X38374D01*
X42606Y-86909D01*
Y-69981D01*
X38374Y-65749D01*
X25678D01*
X51070D02*
X59534D01*
X55302D01*
Y-91141D01*
X51070D01*
X59534D01*
X89158Y-69981D02*
X84926Y-65749D01*
X76462D01*
X72230Y-69981D01*
Y-86909D01*
X76462Y-91141D01*
X84926D01*
X89158Y-86909D01*
X101854Y-95372D02*
X106086Y-91141D01*
Y-86909D01*
X101854D01*
Y-91141D01*
X106086D01*
X101854Y-95372D01*
X97622Y-99605D01*
X148405Y-65749D02*
X156869D01*
X152637D01*
Y-91141D01*
X148405D01*
X156869D01*
X169565D02*
Y-65749D01*
X186493Y-91141D01*
Y-65749D01*
X211885Y-69981D02*
X207653Y-65749D01*
X199189D01*
X194957Y-69981D01*
Y-86909D01*
X199189Y-91141D01*
X207653D01*
X211885Y-86909D01*
X220349Y-91141D02*
Y-86909D01*
X224581D01*
Y-91141D01*
X220349D01*
X14468Y-117106D02*
X10236Y-112874D01*
X1772D01*
X-2460Y-117106D01*
Y-134034D01*
X1772Y-138266D01*
X10236D01*
X14468Y-134034D01*
Y-125570D01*
X6004D01*
X22932Y-112874D02*
Y-138266D01*
Y-125570D01*
X39860D01*
Y-112874D01*
Y-138266D01*
X48324Y-112874D02*
Y-138266D01*
X65251D01*
X99107D02*
Y-112874D01*
X116035Y-138266D01*
Y-112874D01*
X124499Y-138266D02*
Y-121338D01*
X132963Y-112874D01*
X141427Y-121338D01*
Y-138266D01*
Y-125570D01*
X124499D01*
X149891Y-138266D02*
Y-121338D01*
X158355Y-112874D01*
X166819Y-121338D01*
Y-138266D01*
Y-125570D01*
X149891D01*
X175283Y-112874D02*
X192210D01*
X183746D01*
Y-138266D01*
X213370Y-112874D02*
X204906D01*
X200674Y-117106D01*
Y-134034D01*
X204906Y-138266D01*
X213370D01*
X217602Y-134034D01*
Y-117106D01*
X213370Y-112874D01*
X242994Y-117106D02*
X238762Y-112874D01*
X230298D01*
X226066Y-117106D01*
Y-121338D01*
X230298Y-125570D01*
X238762D01*
X242994Y-129802D01*
Y-134034D01*
X238762Y-138266D01*
X230298D01*
X226066Y-134034D01*
X293778Y-117106D02*
X289546Y-112874D01*
X281082D01*
X276850Y-117106D01*
Y-121338D01*
X281082Y-125570D01*
X289546D01*
X293778Y-129802D01*
Y-134034D01*
X289546Y-138266D01*
X281082D01*
X276850Y-134034D01*
X306474Y-121338D02*
X314937D01*
X319169Y-125570D01*
Y-138266D01*
X306474D01*
X302242Y-134034D01*
X306474Y-129802D01*
X319169D01*
X327633Y-138266D02*
Y-121338D01*
X331865D01*
X336097Y-125570D01*
Y-138266D01*
Y-125570D01*
X340329Y-121338D01*
X344561Y-125570D01*
Y-138266D01*
X353025Y-146730D02*
Y-121338D01*
X365721D01*
X369953Y-125570D01*
Y-134034D01*
X365721Y-138266D01*
X353025D01*
X378417D02*
X386881D01*
X382649D01*
Y-112874D01*
X378417D01*
X412273Y-138266D02*
X403809D01*
X399577Y-134034D01*
Y-125570D01*
X403809Y-121338D01*
X412273D01*
X416505Y-125570D01*
Y-129802D01*
X399577D01*
X450360Y-138266D02*
Y-112874D01*
X463056D01*
X467288Y-117106D01*
Y-125570D01*
X463056Y-129802D01*
X450360D01*
X475752Y-121338D02*
Y-138266D01*
Y-129802D01*
X479984Y-125570D01*
X484216Y-121338D01*
X488448D01*
X513840Y-138266D02*
X505376D01*
X501144Y-134034D01*
Y-125570D01*
X505376Y-121338D01*
X513840D01*
X518072Y-125570D01*
Y-129802D01*
X501144D01*
X526536Y-146730D02*
Y-121338D01*
X539232D01*
X543464Y-125570D01*
Y-134034D01*
X539232Y-138266D01*
X526536D01*
X577319Y-112874D02*
Y-138266D01*
Y-125570D01*
X594247D01*
Y-112874D01*
Y-138266D01*
X615407D02*
X606943D01*
X602711Y-134034D01*
Y-125570D01*
X606943Y-121338D01*
X615407D01*
X619639Y-125570D01*
Y-129802D01*
X602711D01*
X632335Y-121338D02*
X640799D01*
X645031Y-125570D01*
Y-138266D01*
X632335D01*
X628103Y-134034D01*
X632335Y-129802D01*
X645031D01*
X657727Y-117106D02*
Y-121338D01*
X653495D01*
X661959D01*
X657727D01*
Y-134034D01*
X661959Y-138266D01*
X687350D02*
X678886D01*
X674655Y-134034D01*
Y-125570D01*
X678886Y-121338D01*
X687350D01*
X691582Y-125570D01*
Y-129802D01*
X674655D01*
X700046Y-121338D02*
Y-138266D01*
Y-129802D01*
X704278Y-125570D01*
X708510Y-121338D01*
X712742D01*
X750830Y-112874D02*
Y-138266D01*
X763526D01*
X767758Y-134034D01*
Y-129802D01*
X763526Y-125570D01*
X750830D01*
X763526D01*
X767758Y-121338D01*
Y-117106D01*
X763526Y-112874D01*
X750830D01*
X780454Y-138266D02*
X788918D01*
X793150Y-134034D01*
Y-125570D01*
X788918Y-121338D01*
X780454D01*
X776222Y-125570D01*
Y-134034D01*
X780454Y-138266D01*
X805845Y-121338D02*
X814309D01*
X818541Y-125570D01*
Y-138266D01*
X805845D01*
X801613Y-134034D01*
X805845Y-129802D01*
X818541D01*
X827005Y-121338D02*
Y-138266D01*
Y-129802D01*
X831237Y-125570D01*
X835469Y-121338D01*
X839701D01*
X869325Y-112874D02*
Y-138266D01*
X856629D01*
X852397Y-134034D01*
Y-125570D01*
X856629Y-121338D01*
X869325D01*
X14854Y-190348D02*
X-2074D01*
X14854Y-173421D01*
Y-169189D01*
X10622Y-164957D01*
X2158D01*
X-2074Y-169189D01*
X40246Y-164957D02*
X31782Y-169189D01*
X23318Y-177653D01*
Y-186117D01*
X27550Y-190348D01*
X36014D01*
X40246Y-186117D01*
Y-181885D01*
X36014Y-177653D01*
X23318D01*
X48710Y-169189D02*
X52942Y-164957D01*
X61406D01*
X65638Y-169189D01*
Y-173421D01*
X61406Y-177653D01*
X57174D01*
X61406D01*
X65638Y-181885D01*
Y-186117D01*
X61406Y-190348D01*
X52942D01*
X48710Y-186117D01*
X74102Y-177653D02*
X91030D01*
X99494Y-169189D02*
X103726Y-164957D01*
X112190D01*
X116422Y-169189D01*
Y-186117D01*
X112190Y-190348D01*
X103726D01*
X99494Y-186117D01*
Y-169189D01*
X124886D02*
X129117Y-164957D01*
X137581D01*
X141813Y-169189D01*
Y-173421D01*
X137581Y-177653D01*
X133349D01*
X137581D01*
X141813Y-181885D01*
Y-186117D01*
X137581Y-190348D01*
X129117D01*
X124886Y-186117D01*
X150277Y-177653D02*
X167205D01*
X175669Y-169189D02*
X179901Y-164957D01*
X188365D01*
X192597Y-169189D01*
Y-186117D01*
X188365Y-190348D01*
X179901D01*
X175669Y-186117D01*
Y-169189D01*
X201061D02*
X205293Y-164957D01*
X213757D01*
X217989Y-169189D01*
Y-186117D01*
X213757Y-190348D01*
X205293D01*
X201061Y-186117D01*
Y-169189D01*
X226453Y-190348D02*
X234917D01*
X230685D01*
Y-164957D01*
X226453Y-169189D01*
X273004Y-190348D02*
Y-164957D01*
X285700D01*
X289932Y-169189D01*
Y-177653D01*
X285700Y-181885D01*
X273004D01*
X281468D02*
X289932Y-190348D01*
X315324Y-164957D02*
X298396D01*
Y-190348D01*
X315324D01*
X298396Y-177653D02*
X306860D01*
X323788Y-164957D02*
Y-181885D01*
X332252Y-190348D01*
X340716Y-181885D01*
Y-164957D01*
X374571D02*
Y-190348D01*
X387267D01*
X391499Y-186117D01*
Y-169189D01*
X387267Y-164957D01*
X374571D01*
D13*
X317500Y25400D02*
Y292100D01*
D26*
X149570Y247051D02*
D03*
X156070D02*
D03*
X162570D02*
D03*
X169070D02*
D03*
Y208189D02*
D03*
X162570D02*
D03*
X156070D02*
D03*
X149570D02*
D03*
D27*
X178751Y237370D02*
D03*
Y230870D02*
D03*
Y224370D02*
D03*
Y217870D02*
D03*
X139889D02*
D03*
Y224370D02*
D03*
Y230870D02*
D03*
Y237370D02*
D03*
D29*
X150000Y289600D02*
D03*
Y279600D02*
D03*
D36*
X159320Y227620D02*
D03*
M02*
