G04*
G04 #@! TF.GenerationSoftware,Altium Limited,Altium Designer,24.9.1 (31)*
G04*
G04 Layer_Color=65535*
%FSLAX44Y44*%
%MOMM*%
G71*
G04*
G04 #@! TF.SameCoordinates,7F96DF23-6EF7-4123-9D03-ABB94F86F5D4*
G04*
G04*
G04 #@! TF.FilePolarity,Positive*
G04*
G01*
G75*
%ADD10C,0.2030*%
%ADD11C,0.1524*%
%ADD12C,0.2000*%
%ADD13C,0.2500*%
%ADD14C,0.2032*%
%ADD15C,0.1500*%
%ADD16C,0.1270*%
%ADD17C,0.2540*%
%ADD18C,0.1250*%
D10*
X205933Y188629D02*
G03*
X206000Y188000I-2933J-629D01*
G01*
X411600Y349250D02*
G03*
X411600Y349250I-3000J0D01*
G01*
X224095Y859936D02*
G03*
X224095Y859936I-3000J0D01*
G01*
X189761Y225036D02*
Y228036D01*
X192761D01*
X189761Y196036D02*
X192761D01*
X189761D02*
Y199036D01*
X131000Y40000D02*
Y50000D01*
X149000Y40000D02*
Y50000D01*
X137000Y-66000D02*
X147000D01*
X137000Y-84000D02*
X147000D01*
X152000Y40000D02*
Y50000D01*
X170000Y40000D02*
Y50000D01*
X562000Y-203000D02*
X594000D01*
X562000Y-178000D02*
X594000D01*
X39500Y203000D02*
Y253000D01*
X-22500Y203000D02*
Y253000D01*
X593500Y203000D02*
Y253000D01*
X531500Y203000D02*
Y253000D01*
X423308Y830224D02*
X432308D01*
X423308Y884224D02*
X432308D01*
X466308Y830224D02*
X475308D01*
X466308Y884224D02*
X475308D01*
Y830224D02*
Y884224D01*
X423308Y830224D02*
Y884224D01*
D11*
X403000Y671000D02*
G03*
X403000Y671000I-27000J0D01*
G01*
X-79300Y576300D02*
G03*
X-79300Y576300I-27000J0D01*
G01*
X704800D02*
G03*
X704800Y576300I-27000J0D01*
G01*
X46905Y-204200D02*
G03*
X46905Y-204200I-1905J0D01*
G01*
X395626Y170430D02*
G03*
X395626Y170430I-1016J0D01*
G01*
X402750Y732000D02*
G03*
X402750Y732000I-27000J0D01*
G01*
X222750D02*
G03*
X222750Y732000I-27000J0D01*
G01*
X249440Y99060D02*
G03*
X249440Y99060I-2540J0D01*
G01*
X242870Y375776D02*
G03*
X242870Y375776I-2540J0D01*
G01*
X326005Y7714D02*
G03*
X326005Y7714I-2000J0D01*
G01*
X-20786Y-58785D02*
X16908D01*
X110786Y-197215D02*
Y-58785D01*
X73092D02*
X110786D01*
X-20786Y-197215D02*
Y-58785D01*
Y-197215D02*
X16908D01*
X73092D02*
X110786D01*
X415819Y176653D02*
Y192147D01*
X391181Y176653D02*
Y192147D01*
X257185Y-73070D02*
X270113D01*
X309788D02*
X322716D01*
Y-150540D02*
Y-73070D01*
X257185Y-150540D02*
X270113D01*
X257185D02*
Y-73070D01*
X309788Y-150540D02*
X322716D01*
X383788D02*
X396716D01*
X331185D02*
Y-73070D01*
Y-150540D02*
X344113D01*
X396716D02*
Y-73070D01*
X383788D02*
X396716D01*
X331185D02*
X344113D01*
X255434Y32258D02*
X314566D01*
X316242Y50716D02*
Y76284D01*
X255434Y94742D02*
X314566D01*
X253758Y50716D02*
Y76284D01*
X298320Y128330D02*
Y181670D01*
X257680Y128330D02*
Y181670D01*
X298320D01*
X257680Y128330D02*
X276330D01*
X138736Y420294D02*
Y439834D01*
X151834Y420294D02*
X159179D01*
X172276D02*
Y439834D01*
X229990Y383376D02*
X235740D01*
X265240D02*
X270990D01*
Y442626D02*
Y444376D01*
Y383376D02*
Y385126D01*
X229990Y444376D02*
X233710D01*
X267270D02*
X270990D01*
X229990Y442626D02*
Y444376D01*
Y383376D02*
Y385126D01*
X329005Y7714D02*
X359005D01*
X329005Y-22286D02*
X359005D01*
X241788Y-150540D02*
X254716D01*
X189184D02*
Y-73070D01*
Y-150540D02*
X202113D01*
X254716D02*
Y-73070D01*
X241788D02*
X254716D01*
X189184D02*
X202113D01*
X406741Y166303D02*
X411259D01*
X406741Y143697D02*
X411259D01*
D12*
X259225Y314950D02*
G03*
X259225Y314950I-4000J0D01*
G01*
X318014Y356000D02*
G03*
X318014Y356000I-1016J0D01*
G01*
X83800Y-13398D02*
G03*
X83800Y-13398I-2540J0D01*
G01*
X236225Y450450D02*
G03*
X236225Y450450I-4000J0D01*
G01*
X-9580Y178470D02*
G03*
X-9580Y178470I-2240J0D01*
G01*
X544420D02*
G03*
X544420Y178470I-2240J0D01*
G01*
X411500Y348250D02*
Y368250D01*
X435500Y348250D02*
Y368250D01*
X215225Y319950D02*
X237225D01*
Y369950D01*
X215225D02*
X237225D01*
X215225Y319950D02*
Y369950D01*
X231225Y320450D02*
X237225Y326450D01*
X312500Y245500D02*
X343500D01*
X312500Y252500D02*
X343500D01*
X312500Y245500D02*
Y252500D01*
X343500Y245500D02*
Y252500D01*
X323236Y327236D02*
X356764D01*
X323236Y360764D02*
X356764D01*
X134639Y-25529D02*
X136489D01*
Y-23679D01*
X134639Y13973D02*
X136489D01*
Y12123D02*
Y13973D01*
X86991Y12123D02*
Y13973D01*
X88841D01*
X86991Y-25527D02*
X88841D01*
X86991D02*
Y-18677D01*
X418110Y-113670D02*
X435890D01*
X436000Y-101000D02*
Y-73000D01*
X418000Y-101000D02*
Y-73000D01*
X302651Y-68625D02*
Y-61005D01*
X298841Y-64815D02*
X306460D01*
X199225Y475450D02*
X227225D01*
X199225Y454450D02*
X227225D01*
X247995Y858936D02*
Y878936D01*
X223995Y858936D02*
Y878936D01*
X372840Y-64815D02*
X380461D01*
X376651Y-68625D02*
Y-61005D01*
X144450Y376775D02*
Y387025D01*
X133450Y377025D02*
Y387025D01*
X-82505Y-121964D02*
Y-114714D01*
X-89005D02*
X-82505D01*
Y-143714D02*
Y-136464D01*
X-89005Y-143714D02*
X-82505D01*
X230840Y-64815D02*
X238461D01*
X234650Y-68625D02*
Y-61005D01*
X394308Y874724D02*
Y877224D01*
X391808D02*
X394308D01*
Y831224D02*
Y833724D01*
X391808Y831224D02*
X394308D01*
X348308Y874724D02*
Y877224D01*
X350808D01*
X348308Y831224D02*
X350808D01*
X348308D02*
Y833724D01*
X325745Y159036D02*
X335745D01*
X325745Y170036D02*
X335995D01*
X428214Y-22570D02*
X438464D01*
X428214Y-33570D02*
X438214D01*
D13*
X347250Y261000D02*
G03*
X347250Y261000I-1250J0D01*
G01*
X388558Y881724D02*
G03*
X388558Y881724I-1250J0D01*
G01*
D14*
X596620Y-162000D02*
G03*
X596620Y-162000I-7620J0D01*
G01*
X576620Y-115000D02*
G03*
X576620Y-115000I-7620J0D01*
G01*
X544620Y-185000D02*
G03*
X544620Y-185000I-7620J0D01*
G01*
X524620Y-176000D02*
G03*
X524620Y-176000I-7620J0D01*
G01*
X530620Y-154000D02*
G03*
X530620Y-154000I-7620J0D01*
G01*
X555620Y-140000D02*
G03*
X555620Y-140000I-7620J0D01*
G01*
X491074Y-7490D02*
G03*
X491074Y-7490I-3810J0D01*
G01*
X157620Y215000D02*
G03*
X157620Y215000I-7620J0D01*
G01*
Y196000D02*
G03*
X157620Y196000I-7620J0D01*
G01*
X364620Y382000D02*
G03*
X364620Y382000I-7620J0D01*
G01*
X386620D02*
G03*
X386620Y382000I-7620J0D01*
G01*
X311625Y2464D02*
G03*
X311625Y2464I-7620J0D01*
G01*
X462620Y-35000D02*
G03*
X462620Y-35000I-7620J0D01*
G01*
X355615Y170536D02*
G03*
X355615Y170536I-7620J0D01*
G01*
X302570Y-179805D02*
G03*
X302570Y-179805I-7620J0D01*
G01*
X462620Y-49000D02*
G03*
X462620Y-49000I-7620J0D01*
G01*
Y-72000D02*
G03*
X462620Y-72000I-7620J0D01*
G01*
X202620Y448000D02*
G03*
X202620Y448000I-7620J0D01*
G01*
X198620Y401000D02*
G03*
X198620Y401000I-7620J0D01*
G01*
X180620Y380000D02*
G03*
X180620Y380000I-7620J0D01*
G01*
X-50380Y-107000D02*
G03*
X-50380Y-107000I-7620J0D01*
G01*
X416620Y-122650D02*
G03*
X416620Y-122650I-7620J0D01*
G01*
X348571Y-178805D02*
G03*
X348571Y-178805I-7620J0D01*
G01*
X147790Y867200D02*
X206210D01*
X147790Y968800D02*
X206210D01*
X221861Y196036D02*
Y199036D01*
X218861Y196036D02*
X221861D01*
X218761Y228136D02*
X221761D01*
Y225136D02*
Y228136D01*
X263000Y271000D02*
X319000D01*
X263000Y309000D02*
X319000D01*
X397221Y-2791D02*
Y358D01*
Y104651D02*
X475707D01*
X397221Y101501D02*
Y104651D01*
Y-2791D02*
X475707D01*
Y358D01*
Y101501D02*
Y104651D01*
D15*
X310000Y357000D02*
X319000Y366000D01*
X310000Y352000D02*
Y357000D01*
X395000Y797000D02*
X422000D01*
X391000Y801000D02*
X395000Y797000D01*
X391000Y801000D02*
Y812000D01*
X389000Y814000D02*
X391000Y812000D01*
X134000Y374000D02*
X161000D01*
X132000Y376000D02*
X134000Y374000D01*
X126000Y376000D02*
X132000D01*
X174000Y373000D02*
X175000D01*
X90000Y49000D02*
Y59000D01*
X87000Y62000D02*
X90000Y59000D01*
X97000Y36000D02*
X99000Y34000D01*
X97000Y36000D02*
Y62000D01*
X441000Y-75000D02*
Y-59000D01*
X377000Y-1000D02*
X383000Y-7000D01*
X385000D01*
X387000D01*
X423000D01*
X231000Y275000D02*
X242250D01*
Y277470D01*
Y306530D02*
Y309000D01*
X239780D02*
X242250D01*
X209750D02*
X212220D01*
X209750Y306530D02*
Y309000D01*
Y275000D02*
Y277470D01*
Y275000D02*
X212220D01*
X367780Y309000D02*
X370250D01*
Y306530D02*
Y309000D01*
Y275000D02*
Y277470D01*
X367780Y275000D02*
X370250D01*
X337750D02*
X340220D01*
X337750D02*
Y277470D01*
Y306530D02*
Y309000D01*
X349000D01*
X383750Y275000D02*
X386220D01*
X383750D02*
Y277470D01*
Y306530D02*
Y309000D01*
X386220D01*
X413780D02*
X416250D01*
Y306530D02*
Y309000D01*
Y275000D02*
Y277470D01*
X405000Y275000D02*
X416250D01*
X146950Y381775D02*
Y378443D01*
Y380109D01*
X156947D01*
X155281Y381775D01*
X250831Y159836D02*
X252497Y161502D01*
Y164834D01*
X250831Y166500D01*
X244166D01*
X242500Y164834D01*
Y161502D01*
X244166Y159836D01*
X247498D01*
Y163168D01*
X242500Y156503D02*
X252497D01*
X242500Y149839D01*
X252497D01*
Y146507D02*
X242500D01*
Y141508D01*
X244166Y139842D01*
X250831D01*
X252497Y141508D01*
Y146507D01*
X419337Y313002D02*
Y322998D01*
X424336D01*
X426002Y321332D01*
Y318000D01*
X424336Y316334D01*
X419337D01*
X422669D02*
X426002Y313002D01*
X435998Y322998D02*
X429334D01*
Y318000D01*
X432666Y319666D01*
X434332D01*
X435998Y318000D01*
Y314668D01*
X434332Y313002D01*
X431000D01*
X429334Y314668D01*
X439331Y313002D02*
X442663D01*
X440997D01*
Y322998D01*
X439331Y321332D01*
X356007Y624002D02*
Y635998D01*
X360006Y631999D01*
X364005Y635998D01*
Y624002D01*
X368003D02*
Y635998D01*
X376001Y624002D01*
Y635998D01*
X379999D02*
X387997D01*
X383998D01*
Y624002D01*
X399993Y635998D02*
X391996D01*
Y630000D01*
X395994Y631999D01*
X397994D01*
X399993Y630000D01*
Y626001D01*
X397994Y624002D01*
X393995D01*
X391996Y626001D01*
X176001Y857998D02*
X172002D01*
X174001D01*
Y848001D01*
X172002Y846002D01*
X170003D01*
X168003Y848001D01*
X179999Y855999D02*
X181999Y857998D01*
X185997D01*
X187997Y855999D01*
Y853999D01*
X185997Y852000D01*
X183998D01*
X185997D01*
X187997Y850001D01*
Y848001D01*
X185997Y846002D01*
X181999D01*
X179999Y848001D01*
X556671Y-90002D02*
X563335D01*
X560003D01*
Y-99998D01*
X566668D02*
Y-90002D01*
X571666D01*
X573332Y-91668D01*
Y-95000D01*
X571666Y-96666D01*
X566668D01*
X576665Y-90002D02*
X583329D01*
Y-91668D01*
X576665Y-98332D01*
Y-99998D01*
X574671Y-140002D02*
X581335D01*
X578003D01*
Y-149998D01*
X584668D02*
Y-140002D01*
X589666D01*
X591332Y-141668D01*
Y-145000D01*
X589666Y-146666D01*
X584668D01*
X601329Y-140002D02*
X597997Y-141668D01*
X594664Y-145000D01*
Y-148332D01*
X596331Y-149998D01*
X599663D01*
X601329Y-148332D01*
Y-146666D01*
X599663Y-145000D01*
X594664D01*
X276806Y313137D02*
Y323133D01*
X281804D01*
X283470Y321467D01*
Y318135D01*
X281804Y316469D01*
X276806D01*
X280138D02*
X283470Y313137D01*
X293467Y323133D02*
X286803D01*
Y318135D01*
X290135Y319801D01*
X291801D01*
X293467Y318135D01*
Y314803D01*
X291801Y313137D01*
X288469D01*
X286803Y314803D01*
X303464Y313137D02*
X296800D01*
X303464Y319801D01*
Y321467D01*
X301798Y323133D01*
X298466D01*
X296800Y321467D01*
X281002Y262329D02*
X290998D01*
Y257331D01*
X289332Y255665D01*
X286000D01*
X284334Y257331D01*
Y262329D01*
Y258997D02*
X281002Y255665D01*
Y245668D02*
Y252332D01*
X287666Y245668D01*
X289332D01*
X290998Y247334D01*
Y250666D01*
X289332Y252332D01*
X290998Y235671D02*
Y242335D01*
X286000D01*
X287666Y239003D01*
Y237337D01*
X286000Y235671D01*
X282668D01*
X281002Y237337D01*
Y240669D01*
X282668Y242335D01*
X266002Y224329D02*
X275998D01*
Y219331D01*
X274332Y217665D01*
X271000D01*
X269334Y219331D01*
Y224329D01*
Y220997D02*
X266002Y217665D01*
Y207668D02*
Y214332D01*
X272666Y207668D01*
X274332D01*
X275998Y209334D01*
Y212666D01*
X274332Y214332D01*
X266002Y199337D02*
X275998D01*
X271000Y204335D01*
Y197671D01*
X338002Y79331D02*
X347998D01*
Y74332D01*
X346332Y72666D01*
X343000D01*
X341334Y74332D01*
Y79331D01*
Y75998D02*
X338002Y72666D01*
X346332Y69334D02*
X347998Y67668D01*
Y64335D01*
X346332Y62669D01*
X344666D01*
X343000Y64335D01*
Y66002D01*
Y64335D01*
X341334Y62669D01*
X339668D01*
X338002Y64335D01*
Y67668D01*
X339668Y69334D01*
X288332Y217665D02*
X289998Y219331D01*
Y222663D01*
X288332Y224329D01*
X281668D01*
X280002Y222663D01*
Y219331D01*
X281668Y217665D01*
X288332Y214332D02*
X289998Y212666D01*
Y209334D01*
X288332Y207668D01*
X286666D01*
X285000Y209334D01*
Y211000D01*
Y209334D01*
X283334Y207668D01*
X281668D01*
X280002Y209334D01*
Y212666D01*
X281668Y214332D01*
X288332Y204335D02*
X289998Y202669D01*
Y199337D01*
X288332Y197671D01*
X281668D01*
X280002Y199337D01*
Y202669D01*
X281668Y204335D01*
X288332D01*
X337336Y374998D02*
Y366668D01*
X339002Y365002D01*
X342334D01*
X344000Y366668D01*
Y374998D01*
X347332Y365002D02*
X350664D01*
X348998D01*
Y374998D01*
X347332Y373332D01*
X439669Y363998D02*
Y355668D01*
X441335Y354002D01*
X444668D01*
X446334Y355668D01*
Y363998D01*
X456331D02*
X449666D01*
Y359000D01*
X452998Y360666D01*
X454664D01*
X456331Y359000D01*
Y355668D01*
X454664Y354002D01*
X451332D01*
X449666Y355668D01*
X422504Y178998D02*
Y170668D01*
X424170Y169002D01*
X427502D01*
X429169Y170668D01*
Y178998D01*
X432501Y169002D02*
X435833D01*
X434167D01*
Y178998D01*
X432501Y177332D01*
X440831D02*
X442498Y178998D01*
X445830D01*
X447496Y177332D01*
Y175666D01*
X445830Y174000D01*
X444164D01*
X445830D01*
X447496Y172334D01*
Y170668D01*
X445830Y169002D01*
X442498D01*
X440831Y170668D01*
X127998Y33331D02*
X119668D01*
X118002Y31665D01*
Y28332D01*
X119668Y26666D01*
X127998D01*
Y23334D02*
Y16669D01*
X126332D01*
X119668Y23334D01*
X118002D01*
X83002Y-30671D02*
X92998D01*
Y-35669D01*
X91332Y-37336D01*
X88000D01*
X86334Y-35669D01*
Y-30671D01*
Y-34003D02*
X83002Y-37336D01*
X92998Y-47332D02*
Y-40668D01*
X88000D01*
X89666Y-44000D01*
Y-45666D01*
X88000Y-47332D01*
X84668D01*
X83002Y-45666D01*
Y-42334D01*
X84668Y-40668D01*
X83002Y-55663D02*
X92998D01*
X88000Y-50665D01*
Y-57329D01*
X34671Y37002D02*
Y46998D01*
X39669D01*
X41336Y45332D01*
Y42000D01*
X39669Y40334D01*
X34671D01*
X38003D02*
X41336Y37002D01*
X51332Y46998D02*
X44668D01*
Y42000D01*
X48000Y43666D01*
X49666D01*
X51332Y42000D01*
Y38668D01*
X49666Y37002D01*
X46334D01*
X44668Y38668D01*
X61329Y46998D02*
X57997Y45332D01*
X54665Y42000D01*
Y38668D01*
X56331Y37002D01*
X59663D01*
X61329Y38668D01*
Y40334D01*
X59663Y42000D01*
X54665D01*
X375002Y158329D02*
X384998D01*
Y153331D01*
X383332Y151664D01*
X380000D01*
X378334Y153331D01*
Y158329D01*
Y154997D02*
X375002Y151664D01*
X384998Y148332D02*
Y141668D01*
X383332D01*
X376668Y148332D01*
X375002D01*
X384998Y131671D02*
Y138335D01*
X380000D01*
X381666Y135003D01*
Y133337D01*
X380000Y131671D01*
X376668D01*
X375002Y133337D01*
Y136669D01*
X376668Y138335D01*
X320504Y313002D02*
Y322998D01*
X325502D01*
X327169Y321332D01*
Y318000D01*
X325502Y316334D01*
X320504D01*
X323836D02*
X327169Y313002D01*
X330501D02*
X333833D01*
X332167D01*
Y322998D01*
X330501Y321332D01*
X338831D02*
X340498Y322998D01*
X343830D01*
X345496Y321332D01*
Y319666D01*
X343830Y318000D01*
X342164D01*
X343830D01*
X345496Y316334D01*
Y314668D01*
X343830Y313002D01*
X340498D01*
X338831Y314668D01*
X363170Y359002D02*
Y368998D01*
X368169D01*
X369835Y367332D01*
Y364000D01*
X368169Y362334D01*
X363170D01*
X366502D02*
X369835Y359002D01*
X373167D02*
X376499D01*
X374833D01*
Y368998D01*
X373167Y367332D01*
X381498Y359002D02*
X384830D01*
X383164D01*
Y368998D01*
X381498Y367332D01*
X372253Y312501D02*
Y319499D01*
X375752D01*
X376918Y318333D01*
Y316000D01*
X375752Y314834D01*
X372253D01*
X374585D02*
X376918Y312501D01*
X379251D02*
X381583D01*
X380417D01*
Y319499D01*
X379251Y318333D01*
X389747Y319499D02*
X385082D01*
Y316000D01*
X387415Y317166D01*
X388581D01*
X389747Y316000D01*
Y313667D01*
X388581Y312501D01*
X386248D01*
X385082Y313667D01*
X346671Y199002D02*
Y208998D01*
X351669D01*
X353335Y207332D01*
Y204000D01*
X351669Y202334D01*
X346671D01*
X350003D02*
X353335Y199002D01*
X356668Y208998D02*
X363332D01*
Y207332D01*
X356668Y200668D01*
Y199002D01*
X366665Y208998D02*
X373329D01*
Y207332D01*
X366665Y200668D01*
Y199002D01*
X53002Y18329D02*
X62998D01*
Y13331D01*
X61332Y11665D01*
X58000D01*
X56334Y13331D01*
Y18329D01*
Y14997D02*
X53002Y11665D01*
X62998Y8332D02*
Y1668D01*
X61332D01*
X54668Y8332D01*
X53002D01*
X61332Y-1665D02*
X62998Y-3331D01*
Y-6663D01*
X61332Y-8329D01*
X54668D01*
X53002Y-6663D01*
Y-3331D01*
X54668Y-1665D01*
X61332D01*
X76002Y91329D02*
X85998D01*
Y86331D01*
X84332Y84664D01*
X81000D01*
X79334Y86331D01*
Y91329D01*
Y87997D02*
X76002Y84664D01*
X85998Y81332D02*
Y74668D01*
X84332D01*
X77668Y81332D01*
X76002D01*
X84332Y71336D02*
X85998Y69669D01*
Y66337D01*
X84332Y64671D01*
X82666D01*
X81000Y66337D01*
Y68003D01*
Y66337D01*
X79334Y64671D01*
X77668D01*
X76002Y66337D01*
Y69669D01*
X77668Y71336D01*
X350671Y226002D02*
Y235998D01*
X355669D01*
X357336Y234332D01*
Y231000D01*
X355669Y229334D01*
X350671D01*
X354003D02*
X357336Y226002D01*
X360668Y235998D02*
X367332D01*
Y234332D01*
X360668Y227668D01*
Y226002D01*
X375663D02*
Y235998D01*
X370664Y231000D01*
X377329D01*
X153671Y4002D02*
Y13998D01*
X158669D01*
X160336Y12332D01*
Y9000D01*
X158669Y7334D01*
X153671D01*
X157003D02*
X160336Y4002D01*
X163668Y13998D02*
X170332D01*
Y12332D01*
X163668Y5668D01*
Y4002D01*
X180329D02*
X173664D01*
X180329Y10666D01*
Y12332D01*
X178663Y13998D01*
X175331D01*
X173664Y12332D01*
X361002Y158329D02*
X370998D01*
Y153331D01*
X369332Y151664D01*
X366000D01*
X364334Y153331D01*
Y158329D01*
Y154997D02*
X361002Y151664D01*
X370998Y148332D02*
Y141668D01*
X369332D01*
X362668Y148332D01*
X361002D01*
X370998Y131671D02*
X369332Y135003D01*
X366000Y138335D01*
X362668D01*
X361002Y136669D01*
Y133337D01*
X362668Y131671D01*
X364334D01*
X366000Y133337D01*
Y138335D01*
X91002Y87663D02*
X100998D01*
Y82664D01*
X99332Y80998D01*
X96000D01*
X94334Y82664D01*
Y87663D01*
Y84331D02*
X91002Y80998D01*
X100998Y77666D02*
Y71002D01*
X99332D01*
X92668Y77666D01*
X91002D01*
Y67669D02*
Y64337D01*
Y66003D01*
X100998D01*
X99332Y67669D01*
X-128924Y611717D02*
Y621713D01*
X-125591Y618381D01*
X-122259Y621713D01*
Y611717D01*
X-118927D02*
Y621713D01*
X-112262Y611717D01*
Y621713D01*
X-108930D02*
X-102266D01*
X-105598D01*
Y611717D01*
X-93935D02*
Y621713D01*
X-98933Y616715D01*
X-92269D01*
X178673Y764002D02*
Y773998D01*
X182005Y770666D01*
X185337Y773998D01*
Y764002D01*
X188669D02*
Y773998D01*
X195334Y764002D01*
Y773998D01*
X198666D02*
X205331D01*
X201998D01*
Y764002D01*
X208663Y772332D02*
X210329Y773998D01*
X213661D01*
X215327Y772332D01*
Y770666D01*
X213661Y769000D01*
X211995D01*
X213661D01*
X215327Y767334D01*
Y765668D01*
X213661Y764002D01*
X210329D01*
X208663Y765668D01*
X408673Y738002D02*
Y747998D01*
X412005Y744666D01*
X415337Y747998D01*
Y738002D01*
X418669D02*
Y747998D01*
X425334Y738002D01*
Y747998D01*
X428666D02*
X435331D01*
X431998D01*
Y738002D01*
X445327D02*
X438663D01*
X445327Y744666D01*
Y746332D01*
X443661Y747998D01*
X440329D01*
X438663Y746332D01*
X654843Y611717D02*
Y621713D01*
X658176Y618381D01*
X661508Y621713D01*
Y611717D01*
X664840D02*
Y621713D01*
X671505Y611717D01*
Y621713D01*
X674837D02*
X681501D01*
X678169D01*
Y611717D01*
X684834D02*
X688166D01*
X686500D01*
Y621713D01*
X684834Y620047D01*
X429669Y158998D02*
Y149002D01*
X436334D01*
X439666Y157332D02*
X441332Y158998D01*
X444664D01*
X446331Y157332D01*
Y155666D01*
X444664Y154000D01*
X442998D01*
X444664D01*
X446331Y152334D01*
Y150668D01*
X444664Y149002D01*
X441332D01*
X439666Y150668D01*
X-27002Y-165669D02*
X-36998D01*
Y-172334D01*
Y-182331D02*
Y-175666D01*
X-30334Y-182331D01*
X-28668D01*
X-27002Y-180665D01*
Y-177332D01*
X-28668Y-175666D01*
X430336Y135332D02*
X428669Y136998D01*
X425337D01*
X423671Y135332D01*
Y128668D01*
X425337Y127002D01*
X428669D01*
X430336Y128668D01*
X433668Y135332D02*
X435334Y136998D01*
X438666D01*
X440332Y135332D01*
Y133666D01*
X438666Y132000D01*
X440332Y130334D01*
Y128668D01*
X438666Y127002D01*
X435334D01*
X433668Y128668D01*
Y130334D01*
X435334Y132000D01*
X433668Y133666D01*
Y135332D01*
X435334Y132000D02*
X438666D01*
X448663Y127002D02*
Y136998D01*
X443665Y132000D01*
X450329D01*
X39335Y59332D02*
X37669Y60998D01*
X34337D01*
X32671Y59332D01*
Y52668D01*
X34337Y51002D01*
X37669D01*
X39335Y52668D01*
X42668Y59332D02*
X44334Y60998D01*
X47666D01*
X49332Y59332D01*
Y57666D01*
X47666Y56000D01*
X46000D01*
X47666D01*
X49332Y54334D01*
Y52668D01*
X47666Y51002D01*
X44334D01*
X42668Y52668D01*
X52664Y59332D02*
X54331Y60998D01*
X57663D01*
X59329Y59332D01*
Y57666D01*
X57663Y56000D01*
X59329Y54334D01*
Y52668D01*
X57663Y51002D01*
X54331D01*
X52664Y52668D01*
Y54334D01*
X54331Y56000D01*
X52664Y57666D01*
Y59332D01*
X54331Y56000D02*
X57663D01*
X117002Y-42668D02*
X115336Y-41002D01*
X112003D01*
X110337Y-42668D01*
Y-49332D01*
X112003Y-50998D01*
X115336D01*
X117002Y-49332D01*
X120334Y-42668D02*
X122000Y-41002D01*
X125332D01*
X126998Y-42668D01*
Y-44334D01*
X125332Y-46000D01*
X123666D01*
X125332D01*
X126998Y-47666D01*
Y-49332D01*
X125332Y-50998D01*
X122000D01*
X120334Y-49332D01*
X130331Y-50998D02*
X133663D01*
X131997D01*
Y-41002D01*
X130331Y-42668D01*
X144332Y96664D02*
X145998Y98331D01*
Y101663D01*
X144332Y103329D01*
X137668D01*
X136002Y101663D01*
Y98331D01*
X137668Y96664D01*
X145998Y86668D02*
X144332Y90000D01*
X141000Y93332D01*
X137668D01*
X136002Y91666D01*
Y88334D01*
X137668Y86668D01*
X139334D01*
X141000Y88334D01*
Y93332D01*
X145998Y76671D02*
Y83335D01*
X141000D01*
X142666Y80003D01*
Y78337D01*
X141000Y76671D01*
X137668D01*
X136002Y78337D01*
Y81669D01*
X137668Y83335D01*
X436335Y216332D02*
X434669Y217998D01*
X431337D01*
X429671Y216332D01*
Y209668D01*
X431337Y208002D01*
X434669D01*
X436335Y209668D01*
X439668Y216332D02*
X441334Y217998D01*
X444666D01*
X446332Y216332D01*
Y214666D01*
X444666Y213000D01*
X446332Y211334D01*
Y209668D01*
X444666Y208002D01*
X441334D01*
X439668Y209668D01*
Y211334D01*
X441334Y213000D01*
X439668Y214666D01*
Y216332D01*
X441334Y213000D02*
X444666D01*
X449664Y216332D02*
X451331Y217998D01*
X454663D01*
X456329Y216332D01*
Y214666D01*
X454663Y213000D01*
X452997D01*
X454663D01*
X456329Y211334D01*
Y209668D01*
X454663Y208002D01*
X451331D01*
X449664Y209668D01*
X416332Y394664D02*
X417998Y396331D01*
Y399663D01*
X416332Y401329D01*
X409668D01*
X408002Y399663D01*
Y396331D01*
X409668Y394664D01*
X408002Y384668D02*
Y391332D01*
X414666Y384668D01*
X416332D01*
X417998Y386334D01*
Y389666D01*
X416332Y391332D01*
X408002Y374671D02*
Y381335D01*
X414666Y374671D01*
X416332D01*
X417998Y376337D01*
Y379669D01*
X416332Y381335D01*
X396333Y356665D02*
X397499Y357831D01*
Y360164D01*
X396333Y361330D01*
X391667D01*
X390501Y360164D01*
Y357831D01*
X391667Y356665D01*
X390501Y349667D02*
Y354333D01*
X395166Y349667D01*
X396333D01*
X397499Y350834D01*
Y353166D01*
X396333Y354333D01*
Y347335D02*
X397499Y346169D01*
Y343836D01*
X396333Y342670D01*
X395166D01*
X394000Y343836D01*
X392834Y342670D01*
X391667D01*
X390501Y343836D01*
Y346169D01*
X391667Y347335D01*
X392834D01*
X394000Y346169D01*
X395166Y347335D01*
X396333D01*
X394000Y346169D02*
Y343836D01*
X329332Y384832D02*
X330998Y386498D01*
Y389830D01*
X329332Y391496D01*
X322668D01*
X321002Y389830D01*
Y386498D01*
X322668Y384832D01*
X321002Y381499D02*
Y378167D01*
Y379833D01*
X330998D01*
X329332Y381499D01*
Y373168D02*
X330998Y371502D01*
Y368170D01*
X329332Y366504D01*
X327666D01*
X326000Y368170D01*
X324334Y366504D01*
X322668D01*
X321002Y368170D01*
Y371502D01*
X322668Y373168D01*
X324334D01*
X326000Y371502D01*
X327666Y373168D01*
X329332D01*
X326000Y371502D02*
Y368170D01*
X40335Y30332D02*
X38669Y31998D01*
X35337D01*
X33671Y30332D01*
Y23668D01*
X35337Y22002D01*
X38669D01*
X40335Y23668D01*
X43668Y30332D02*
X45334Y31998D01*
X48666D01*
X50332Y30332D01*
Y28666D01*
X48666Y27000D01*
X47000D01*
X48666D01*
X50332Y25334D01*
Y23668D01*
X48666Y22002D01*
X45334D01*
X43668Y23668D01*
X53664Y31998D02*
X60329D01*
Y30332D01*
X53664Y23668D01*
Y22002D01*
X429169Y335332D02*
X427502Y336998D01*
X424170D01*
X422504Y335332D01*
Y328668D01*
X424170Y327002D01*
X427502D01*
X429169Y328668D01*
X432501Y327002D02*
X435833D01*
X434167D01*
Y336998D01*
X432501Y335332D01*
X440831Y328668D02*
X442498Y327002D01*
X445830D01*
X447496Y328668D01*
Y335332D01*
X445830Y336998D01*
X442498D01*
X440831Y335332D01*
Y333666D01*
X442498Y332000D01*
X447496D01*
X137336Y-127668D02*
X135669Y-126002D01*
X132337D01*
X130671Y-127668D01*
Y-134332D01*
X132337Y-135998D01*
X135669D01*
X137336Y-134332D01*
X140668Y-127668D02*
X142334Y-126002D01*
X145666D01*
X147332Y-127668D01*
Y-129334D01*
X145666Y-131000D01*
X144000D01*
X145666D01*
X147332Y-132666D01*
Y-134332D01*
X145666Y-135998D01*
X142334D01*
X140668Y-134332D01*
X157329Y-126002D02*
X150665D01*
Y-131000D01*
X153997Y-129334D01*
X155663D01*
X157329Y-131000D01*
Y-134332D01*
X155663Y-135998D01*
X152331D01*
X150665Y-134332D01*
X165332Y95665D02*
X166998Y97331D01*
Y100663D01*
X165332Y102329D01*
X158668D01*
X157002Y100663D01*
Y97331D01*
X158668Y95665D01*
X166998Y85668D02*
X165332Y89000D01*
X162000Y92332D01*
X158668D01*
X157002Y90666D01*
Y87334D01*
X158668Y85668D01*
X160334D01*
X162000Y87334D01*
Y92332D01*
X157002Y75671D02*
Y82335D01*
X163666Y75671D01*
X165332D01*
X166998Y77337D01*
Y80669D01*
X165332Y82335D01*
X148336Y-42668D02*
X146669Y-41002D01*
X143337D01*
X141671Y-42668D01*
Y-49332D01*
X143337Y-50998D01*
X146669D01*
X148336Y-49332D01*
X151668Y-42668D02*
X153334Y-41002D01*
X156666D01*
X158332Y-42668D01*
Y-44334D01*
X156666Y-46000D01*
X155000D01*
X156666D01*
X158332Y-47666D01*
Y-49332D01*
X156666Y-50998D01*
X153334D01*
X151668Y-49332D01*
X161665Y-42668D02*
X163331Y-41002D01*
X166663D01*
X168329Y-42668D01*
Y-44334D01*
X166663Y-46000D01*
X164997D01*
X166663D01*
X168329Y-47666D01*
Y-49332D01*
X166663Y-50998D01*
X163331D01*
X161665Y-49332D01*
X193332Y93665D02*
X194998Y95331D01*
Y98663D01*
X193332Y100329D01*
X186668D01*
X185002Y98663D01*
Y95331D01*
X186668Y93665D01*
X193332Y90332D02*
X194998Y88666D01*
Y85334D01*
X193332Y83668D01*
X191666D01*
X190000Y85334D01*
X188334Y83668D01*
X186668D01*
X185002Y85334D01*
Y88666D01*
X186668Y90332D01*
X188334D01*
X190000Y88666D01*
X191666Y90332D01*
X193332D01*
X190000Y88666D02*
Y85334D01*
X185002Y73671D02*
Y80335D01*
X191666Y73671D01*
X193332D01*
X194998Y75337D01*
Y78669D01*
X193332Y80335D01*
X108002Y60332D02*
X106335Y61998D01*
X103003D01*
X101337Y60332D01*
Y53668D01*
X103003Y52002D01*
X106335D01*
X108002Y53668D01*
X116332Y52002D02*
Y61998D01*
X111334Y57000D01*
X117998D01*
X121331Y52002D02*
X124663D01*
X122997D01*
Y61998D01*
X121331Y60332D01*
X175332Y-63335D02*
X176998Y-61669D01*
Y-58337D01*
X175332Y-56671D01*
X168668D01*
X167002Y-58337D01*
Y-61669D01*
X168668Y-63335D01*
X175332Y-66668D02*
X176998Y-68334D01*
Y-71666D01*
X175332Y-73332D01*
X173666D01*
X172000Y-71666D01*
Y-70000D01*
Y-71666D01*
X170334Y-73332D01*
X168668D01*
X167002Y-71666D01*
Y-68334D01*
X168668Y-66668D01*
X167002Y-83329D02*
Y-76665D01*
X173666Y-83329D01*
X175332D01*
X176998Y-81663D01*
Y-78331D01*
X175332Y-76665D01*
X163332Y-13335D02*
X164998Y-11669D01*
Y-8337D01*
X163332Y-6671D01*
X156668D01*
X155002Y-8337D01*
Y-11669D01*
X156668Y-13335D01*
X164998Y-23332D02*
X163332Y-20000D01*
X160000Y-16668D01*
X156668D01*
X155002Y-18334D01*
Y-21666D01*
X156668Y-23332D01*
X158334D01*
X160000Y-21666D01*
Y-16668D01*
X164998Y-33329D02*
X163332Y-29997D01*
X160000Y-26665D01*
X156668D01*
X155002Y-28331D01*
Y-31663D01*
X156668Y-33329D01*
X158334D01*
X160000Y-31663D01*
Y-26665D01*
X44335Y-13668D02*
X42669Y-12002D01*
X39337D01*
X37671Y-13668D01*
Y-20332D01*
X39337Y-21998D01*
X42669D01*
X44335Y-20332D01*
X47668Y-13668D02*
X49334Y-12002D01*
X52666D01*
X54332Y-13668D01*
Y-15334D01*
X52666Y-17000D01*
X51000D01*
X52666D01*
X54332Y-18666D01*
Y-20332D01*
X52666Y-21998D01*
X49334D01*
X47668Y-20332D01*
X64329Y-12002D02*
X60997Y-13668D01*
X57664Y-17000D01*
Y-20332D01*
X59331Y-21998D01*
X62663D01*
X64329Y-20332D01*
Y-18666D01*
X62663Y-17000D01*
X57664D01*
X221332Y91998D02*
X222998Y93665D01*
Y96997D01*
X221332Y98663D01*
X214668D01*
X213002Y96997D01*
Y93665D01*
X214668Y91998D01*
X221332Y88666D02*
X222998Y87000D01*
Y83668D01*
X221332Y82002D01*
X219666D01*
X218000Y83668D01*
X216334Y82002D01*
X214668D01*
X213002Y83668D01*
Y87000D01*
X214668Y88666D01*
X216334D01*
X218000Y87000D01*
X219666Y88666D01*
X221332D01*
X218000Y87000D02*
Y83668D01*
X213002Y78669D02*
Y75337D01*
Y77003D01*
X222998D01*
X221332Y78669D01*
X50671Y-43998D02*
Y-34002D01*
X55669D01*
X57336Y-35668D01*
Y-39000D01*
X55669Y-40666D01*
X50671D01*
X54003D02*
X57336Y-43998D01*
X67332D02*
X60668D01*
X67332Y-37334D01*
Y-35668D01*
X65666Y-34002D01*
X62334D01*
X60668Y-35668D01*
X77329Y-34002D02*
X73997Y-35668D01*
X70665Y-39000D01*
Y-42332D01*
X72331Y-43998D01*
X75663D01*
X77329Y-42332D01*
Y-40666D01*
X75663Y-39000D01*
X70665D01*
X343332Y879666D02*
X344998Y881332D01*
Y884665D01*
X343332Y886331D01*
X336668D01*
X335002Y884665D01*
Y881332D01*
X336668Y879666D01*
X344998Y869669D02*
Y876334D01*
X340000D01*
X341666Y873002D01*
Y871335D01*
X340000Y869669D01*
X336668D01*
X335002Y871335D01*
Y874668D01*
X336668Y876334D01*
X347334Y933332D02*
X345668Y934998D01*
X342336D01*
X340669Y933332D01*
Y926668D01*
X342336Y925002D01*
X345668D01*
X347334Y926668D01*
X357331Y934998D02*
X353998Y933332D01*
X350666Y930000D01*
Y926668D01*
X352332Y925002D01*
X355664D01*
X357331Y926668D01*
Y928334D01*
X355664Y930000D01*
X350666D01*
X353334Y946332D02*
X351668Y947998D01*
X348335D01*
X346669Y946332D01*
Y939668D01*
X348335Y938002D01*
X351668D01*
X353334Y939668D01*
X356666Y947998D02*
X363331D01*
Y946332D01*
X356666Y939668D01*
Y938002D01*
X379169Y905332D02*
X377502Y906998D01*
X374170D01*
X372504Y905332D01*
Y898668D01*
X374170Y897002D01*
X377502D01*
X379169Y898668D01*
X382501Y897002D02*
X385833D01*
X384167D01*
Y906998D01*
X382501Y905332D01*
X390831D02*
X392498Y906998D01*
X395830D01*
X397496Y905332D01*
Y898668D01*
X395830Y897002D01*
X392498D01*
X390831Y898668D01*
Y905332D01*
X357876Y828499D02*
X356626Y829749D01*
X354127D01*
X352878Y828499D01*
Y823501D01*
X354127Y822251D01*
X356626D01*
X357876Y823501D01*
X360375Y822251D02*
X362874D01*
X361625D01*
Y829749D01*
X360375Y828499D01*
X366623Y822251D02*
X369122D01*
X367873D01*
Y829749D01*
X366623Y828499D01*
X449169Y936332D02*
X447502Y937998D01*
X444170D01*
X442504Y936332D01*
Y929668D01*
X444170Y928002D01*
X447502D01*
X449169Y929668D01*
X452501Y928002D02*
X455833D01*
X454167D01*
Y937998D01*
X452501Y936332D01*
X467496Y928002D02*
X460831D01*
X467496Y934666D01*
Y936332D01*
X465830Y937998D01*
X462498D01*
X460831Y936332D01*
X448168Y901332D02*
X446502Y902998D01*
X443170D01*
X441504Y901332D01*
Y894668D01*
X443170Y893002D01*
X446502D01*
X448168Y894668D01*
X451501Y893002D02*
X454833D01*
X453167D01*
Y902998D01*
X451501Y901332D01*
X459832D02*
X461498Y902998D01*
X464830D01*
X466496Y901332D01*
Y899666D01*
X464830Y898000D01*
X463164D01*
X464830D01*
X466496Y896334D01*
Y894668D01*
X464830Y893002D01*
X461498D01*
X459832Y894668D01*
X449169Y918332D02*
X447502Y919998D01*
X444170D01*
X442504Y918332D01*
Y911668D01*
X444170Y910002D01*
X447502D01*
X449169Y911668D01*
X452501Y910002D02*
X455833D01*
X454167D01*
Y919998D01*
X452501Y918332D01*
X465830Y910002D02*
Y919998D01*
X460831Y915000D01*
X467496D01*
X416328Y879368D02*
X417994Y881034D01*
Y884366D01*
X416328Y886032D01*
X409663D01*
X407997Y884366D01*
Y881034D01*
X409663Y879368D01*
X407997Y876035D02*
Y872703D01*
Y874369D01*
X417994D01*
X416328Y876035D01*
X417994Y861040D02*
Y867705D01*
X412995D01*
X414661Y864372D01*
Y862706D01*
X412995Y861040D01*
X409663D01*
X407997Y862706D01*
Y866038D01*
X409663Y867705D01*
X446018Y819181D02*
X444352Y820847D01*
X441020D01*
X439354Y819181D01*
Y812516D01*
X441020Y810850D01*
X444352D01*
X446018Y812516D01*
X456015Y810850D02*
X449351D01*
X456015Y817514D01*
Y819181D01*
X454349Y820847D01*
X451017D01*
X449351Y819181D01*
X459347D02*
X461013Y820847D01*
X464346D01*
X466012Y819181D01*
Y812516D01*
X464346Y810850D01*
X461013D01*
X459347Y812516D01*
Y819181D01*
X417328Y845534D02*
X418994Y847200D01*
Y850533D01*
X417328Y852199D01*
X410663D01*
X408997Y850533D01*
Y847200D01*
X410663Y845534D01*
X408997Y835538D02*
Y842202D01*
X415662Y835538D01*
X417328D01*
X418994Y837204D01*
Y840536D01*
X417328Y842202D01*
X408997Y832205D02*
Y828873D01*
Y830539D01*
X418994D01*
X417328Y832205D01*
X331332Y899665D02*
X332998Y901331D01*
Y904663D01*
X331332Y906329D01*
X324668D01*
X323002Y904663D01*
Y901331D01*
X324668Y899665D01*
X323002Y889668D02*
Y896332D01*
X329666Y889668D01*
X331332D01*
X332998Y891334D01*
Y894666D01*
X331332Y896332D01*
Y886336D02*
X332998Y884669D01*
Y881337D01*
X331332Y879671D01*
X329666D01*
X328000Y881337D01*
Y883003D01*
Y881337D01*
X326334Y879671D01*
X324668D01*
X323002Y881337D01*
Y884669D01*
X324668Y886336D01*
X398335Y791332D02*
X396669Y792998D01*
X393337D01*
X391671Y791332D01*
Y784668D01*
X393337Y783002D01*
X396669D01*
X398335Y784668D01*
X408332Y783002D02*
X401668D01*
X408332Y789666D01*
Y791332D01*
X406666Y792998D01*
X403334D01*
X401668Y791332D01*
X416663Y783002D02*
Y792998D01*
X411665Y788000D01*
X418329D01*
X394336Y778332D02*
X392669Y779998D01*
X389337D01*
X387671Y778332D01*
Y771668D01*
X389337Y770002D01*
X392669D01*
X394336Y771668D01*
X404332Y770002D02*
X397668D01*
X404332Y776666D01*
Y778332D01*
X402666Y779998D01*
X399334D01*
X397668Y778332D01*
X414329Y779998D02*
X407664D01*
Y775000D01*
X410997Y776666D01*
X412663D01*
X414329Y775000D01*
Y771668D01*
X412663Y770002D01*
X409331D01*
X407664Y771668D01*
X432336Y795332D02*
X430669Y796998D01*
X427337D01*
X425671Y795332D01*
Y788668D01*
X427337Y787002D01*
X430669D01*
X432336Y788668D01*
X442332Y787002D02*
X435668D01*
X442332Y793666D01*
Y795332D01*
X440666Y796998D01*
X437334D01*
X435668Y795332D01*
X452329Y796998D02*
X448997Y795332D01*
X445664Y792000D01*
Y788668D01*
X447331Y787002D01*
X450663D01*
X452329Y788668D01*
Y790334D01*
X450663Y792000D01*
X445664D01*
X414336Y809332D02*
X412669Y810998D01*
X409337D01*
X407671Y809332D01*
Y802668D01*
X409337Y801002D01*
X412669D01*
X414336Y802668D01*
X424332Y801002D02*
X417668D01*
X424332Y807666D01*
Y809332D01*
X422666Y810998D01*
X419334D01*
X417668Y809332D01*
X427664Y810998D02*
X434329D01*
Y809332D01*
X427664Y802668D01*
Y801002D01*
X492998Y862664D02*
X483002D01*
Y856000D01*
Y852668D02*
Y849335D01*
Y851002D01*
X492998D01*
X491332Y852668D01*
X332002Y794496D02*
X341998D01*
Y789498D01*
X340332Y787831D01*
X337000D01*
X335334Y789498D01*
Y794496D01*
Y791164D02*
X332002Y787831D01*
Y784499D02*
Y781167D01*
Y782833D01*
X341998D01*
X340332Y784499D01*
X332002Y771170D02*
X341998D01*
X337000Y776169D01*
Y769504D01*
X306002Y822496D02*
X315998D01*
Y817498D01*
X314332Y815832D01*
X311000D01*
X309334Y817498D01*
Y822496D01*
Y819164D02*
X306002Y815832D01*
Y812499D02*
Y809167D01*
Y810833D01*
X315998D01*
X314332Y812499D01*
X315998Y797504D02*
X314332Y800836D01*
X311000Y804168D01*
X307668D01*
X306002Y802502D01*
Y799170D01*
X307668Y797504D01*
X309334D01*
X311000Y799170D01*
Y804168D01*
X310002Y863496D02*
X319998D01*
Y858497D01*
X318332Y856831D01*
X315000D01*
X313334Y858497D01*
Y863496D01*
Y860164D02*
X310002Y856831D01*
Y853499D02*
Y850167D01*
Y851833D01*
X319998D01*
X318332Y853499D01*
X319998Y845169D02*
Y838504D01*
X318332D01*
X311668Y845169D01*
X310002D01*
X297002Y863496D02*
X306998D01*
Y858497D01*
X305332Y856831D01*
X302000D01*
X300334Y858497D01*
Y863496D01*
Y860164D02*
X297002Y856831D01*
Y853499D02*
Y850167D01*
Y851833D01*
X306998D01*
X305332Y853499D01*
X298668Y845169D02*
X297002Y843502D01*
Y840170D01*
X298668Y838504D01*
X305332D01*
X306998Y840170D01*
Y843502D01*
X305332Y845169D01*
X303666D01*
X302000Y843502D01*
Y838504D01*
X305497Y791865D02*
X315494D01*
Y786867D01*
X313828Y785201D01*
X310495D01*
X308829Y786867D01*
Y791865D01*
Y788533D02*
X305497Y785201D01*
Y775204D02*
Y781868D01*
X312162Y775204D01*
X313828D01*
X315494Y776870D01*
Y780202D01*
X313828Y781868D01*
Y771871D02*
X315494Y770205D01*
Y766873D01*
X313828Y765207D01*
X307163D01*
X305497Y766873D01*
Y770205D01*
X307163Y771871D01*
X313828D01*
X344002Y786329D02*
X353998D01*
Y781331D01*
X352332Y779665D01*
X349000D01*
X347334Y781331D01*
Y786329D01*
Y782997D02*
X344002Y779665D01*
Y769668D02*
Y776332D01*
X350666Y769668D01*
X352332D01*
X353998Y771334D01*
Y774666D01*
X352332Y776332D01*
X344002Y759671D02*
Y766335D01*
X350666Y759671D01*
X352332D01*
X353998Y761337D01*
Y764669D01*
X352332Y766335D01*
X340740Y865296D02*
X332409D01*
X330743Y863630D01*
Y860297D01*
X332409Y858631D01*
X340740D01*
X330743Y850301D02*
X340740D01*
X335741Y855299D01*
Y848634D01*
X289671Y377002D02*
Y386998D01*
X294669D01*
X296336Y385332D01*
Y382000D01*
X294669Y380334D01*
X289671D01*
X293003D02*
X296336Y377002D01*
X306332Y386998D02*
X299668D01*
Y382000D01*
X303000Y383666D01*
X304666D01*
X306332Y382000D01*
Y378668D01*
X304666Y377002D01*
X301334D01*
X299668Y378668D01*
X309664Y385332D02*
X311331Y386998D01*
X314663D01*
X316329Y385332D01*
Y383666D01*
X314663Y382000D01*
X312997D01*
X314663D01*
X316329Y380334D01*
Y378668D01*
X314663Y377002D01*
X311331D01*
X309664Y378668D01*
X439998Y-119335D02*
X430002D01*
Y-124334D01*
X431668Y-126000D01*
X438332D01*
X439998Y-124334D01*
Y-119335D01*
X430002Y-129332D02*
Y-132665D01*
Y-130998D01*
X439998D01*
X438332Y-129332D01*
X410998Y-134673D02*
Y-141337D01*
Y-138005D01*
X401002D01*
Y-144669D02*
X410998D01*
Y-149668D01*
X409332Y-151334D01*
X406000D01*
X404334Y-149668D01*
Y-144669D01*
X401002Y-161331D02*
Y-154666D01*
X407666Y-161331D01*
X409332D01*
X410998Y-159665D01*
Y-156332D01*
X409332Y-154666D01*
X402668Y-164663D02*
X401002Y-166329D01*
Y-169661D01*
X402668Y-171327D01*
X409332D01*
X410998Y-169661D01*
Y-166329D01*
X409332Y-164663D01*
X407666D01*
X406000Y-166329D01*
Y-171327D01*
X-70327Y-85002D02*
X-63663D01*
X-66995D01*
Y-94998D01*
X-60331D02*
Y-85002D01*
X-55332D01*
X-53666Y-86668D01*
Y-90000D01*
X-55332Y-91666D01*
X-60331D01*
X-43669Y-94998D02*
X-50334D01*
X-43669Y-88334D01*
Y-86668D01*
X-45335Y-85002D01*
X-48668D01*
X-50334Y-86668D01*
X-40337D02*
X-38671Y-85002D01*
X-35339D01*
X-33673Y-86668D01*
Y-88334D01*
X-35339Y-90000D01*
X-33673Y-91666D01*
Y-93332D01*
X-35339Y-94998D01*
X-38671D01*
X-40337Y-93332D01*
Y-91666D01*
X-38671Y-90000D01*
X-40337Y-88334D01*
Y-86668D01*
X-38671Y-90000D02*
X-35339D01*
X84673Y375998D02*
X91337D01*
X88005D01*
Y366002D01*
X94669D02*
Y375998D01*
X99668D01*
X101334Y374332D01*
Y371000D01*
X99668Y369334D01*
X94669D01*
X111331Y366002D02*
X104666D01*
X111331Y372666D01*
Y374332D01*
X109664Y375998D01*
X106332D01*
X104666Y374332D01*
X114663Y375998D02*
X121327D01*
Y374332D01*
X114663Y367668D01*
Y366002D01*
X201499Y395829D02*
Y391164D01*
Y393497D01*
X194501D01*
Y388831D02*
X201499D01*
Y385333D01*
X200333Y384166D01*
X198000D01*
X196834Y385333D01*
Y388831D01*
X194501Y377169D02*
Y381834D01*
X199166Y377169D01*
X200333D01*
X201499Y378335D01*
Y380667D01*
X200333Y381834D01*
X201499Y370171D02*
Y374836D01*
X198000D01*
X199166Y372503D01*
Y371337D01*
X198000Y370171D01*
X195667D01*
X194501Y371337D01*
Y373670D01*
X195667Y374836D01*
X188998Y492327D02*
Y485663D01*
Y488995D01*
X179002D01*
Y482331D02*
X188998D01*
Y477332D01*
X187332Y475666D01*
X184000D01*
X182334Y477332D01*
Y482331D01*
X179002Y465669D02*
Y472334D01*
X185666Y465669D01*
X187332D01*
X188998Y467335D01*
Y470668D01*
X187332Y472334D01*
X179002Y457339D02*
X188998D01*
X184000Y462337D01*
Y455672D01*
X474998Y-68673D02*
Y-75337D01*
Y-72005D01*
X465002D01*
Y-78669D02*
X474998D01*
Y-83668D01*
X473332Y-85334D01*
X470000D01*
X468334Y-83668D01*
Y-78669D01*
X465002Y-95331D02*
Y-88666D01*
X471666Y-95331D01*
X473332D01*
X474998Y-93665D01*
Y-90332D01*
X473332Y-88666D01*
Y-98663D02*
X474998Y-100329D01*
Y-103661D01*
X473332Y-105328D01*
X471666D01*
X470000Y-103661D01*
Y-101995D01*
Y-103661D01*
X468334Y-105328D01*
X466668D01*
X465002Y-103661D01*
Y-100329D01*
X466668Y-98663D01*
X462673Y-52002D02*
X469337D01*
X466005D01*
Y-61998D01*
X472669D02*
Y-52002D01*
X477668D01*
X479334Y-53668D01*
Y-57000D01*
X477668Y-58666D01*
X472669D01*
X489331Y-61998D02*
X482666D01*
X489331Y-55334D01*
Y-53668D01*
X487664Y-52002D01*
X484332D01*
X482666Y-53668D01*
X499327Y-61998D02*
X492663D01*
X499327Y-55334D01*
Y-53668D01*
X497661Y-52002D01*
X494329D01*
X492663Y-53668D01*
X257339Y-159002D02*
X264003D01*
X260671D01*
Y-168998D01*
X267335D02*
Y-159002D01*
X272334D01*
X274000Y-160668D01*
Y-164000D01*
X272334Y-165666D01*
X267335D01*
X283997Y-168998D02*
X277332D01*
X283997Y-162334D01*
Y-160668D01*
X282331Y-159002D01*
X278998D01*
X277332Y-160668D01*
X287329Y-168998D02*
X290661D01*
X288995D01*
Y-159002D01*
X287329Y-160668D01*
X315673Y191998D02*
X322337D01*
X319005D01*
Y182002D01*
X325669D02*
Y191998D01*
X330668D01*
X332334Y190332D01*
Y187000D01*
X330668Y185334D01*
X325669D01*
X342331Y182002D02*
X335666D01*
X342331Y188666D01*
Y190332D01*
X340664Y191998D01*
X337332D01*
X335666Y190332D01*
X345663D02*
X347329Y191998D01*
X350661D01*
X352327Y190332D01*
Y183668D01*
X350661Y182002D01*
X347329D01*
X345663Y183668D01*
Y190332D01*
X451506Y-13002D02*
X458170D01*
X454838D01*
Y-22998D01*
X461502D02*
Y-13002D01*
X466501D01*
X468167Y-14668D01*
Y-18000D01*
X466501Y-19666D01*
X461502D01*
X471499Y-22998D02*
X474832D01*
X473165D01*
Y-13002D01*
X471499Y-14668D01*
X479830Y-21332D02*
X481496Y-22998D01*
X484828D01*
X486494Y-21332D01*
Y-14668D01*
X484828Y-13002D01*
X481496D01*
X479830Y-14668D01*
Y-16334D01*
X481496Y-18000D01*
X486494D01*
X256506Y6998D02*
X263170D01*
X259838D01*
Y-2998D01*
X266502D02*
Y6998D01*
X271501D01*
X273167Y5332D01*
Y2000D01*
X271501Y334D01*
X266502D01*
X276499Y-2998D02*
X279832D01*
X278165D01*
Y6998D01*
X276499Y5332D01*
X284830D02*
X286496Y6998D01*
X289828D01*
X291494Y5332D01*
Y3666D01*
X289828Y2000D01*
X291494Y334D01*
Y-1332D01*
X289828Y-2998D01*
X286496D01*
X284830Y-1332D01*
Y334D01*
X286496Y2000D01*
X284830Y3666D01*
Y5332D01*
X286496Y2000D02*
X289828D01*
X367506Y403998D02*
X374170D01*
X370838D01*
Y394002D01*
X377502D02*
Y403998D01*
X382501D01*
X384167Y402332D01*
Y399000D01*
X382501Y397334D01*
X377502D01*
X387499Y394002D02*
X390831D01*
X389165D01*
Y403998D01*
X387499Y402332D01*
X402494Y403998D02*
X395830D01*
Y399000D01*
X399162Y400666D01*
X400828D01*
X402494Y399000D01*
Y395668D01*
X400828Y394002D01*
X397496D01*
X395830Y395668D01*
X324506Y404998D02*
X331170D01*
X327838D01*
Y395002D01*
X334502D02*
Y404998D01*
X339501D01*
X341167Y403332D01*
Y400000D01*
X339501Y398334D01*
X334502D01*
X344499Y395002D02*
X347831D01*
X346165D01*
Y404998D01*
X344499Y403332D01*
X357828Y395002D02*
Y404998D01*
X352830Y400000D01*
X359494D01*
X102506Y200998D02*
X109170D01*
X105838D01*
Y191002D01*
X112502D02*
Y200998D01*
X117501D01*
X119167Y199332D01*
Y196000D01*
X117501Y194334D01*
X112502D01*
X122499Y191002D02*
X125831D01*
X124165D01*
Y200998D01*
X122499Y199332D01*
X130830D02*
X132496Y200998D01*
X135828D01*
X137494Y199332D01*
Y197666D01*
X135828Y196000D01*
X134162D01*
X135828D01*
X137494Y194334D01*
Y192668D01*
X135828Y191002D01*
X132496D01*
X130830Y192668D01*
X101506Y218998D02*
X108170D01*
X104838D01*
Y209002D01*
X111502D02*
Y218998D01*
X116501D01*
X118167Y217332D01*
Y214000D01*
X116501Y212334D01*
X111502D01*
X121499Y209002D02*
X124831D01*
X123165D01*
Y218998D01*
X121499Y217332D01*
X136494Y209002D02*
X129830D01*
X136494Y215666D01*
Y217332D01*
X134828Y218998D01*
X131496D01*
X129830Y217332D01*
X403002Y-43671D02*
X412998D01*
Y-48669D01*
X411332Y-50335D01*
X408000D01*
X406334Y-48669D01*
Y-43671D01*
Y-47003D02*
X403002Y-50335D01*
X412998Y-60332D02*
X411332Y-57000D01*
X408000Y-53668D01*
X404668D01*
X403002Y-55334D01*
Y-58666D01*
X404668Y-60332D01*
X406334D01*
X408000Y-58666D01*
Y-53668D01*
X404668Y-63664D02*
X403002Y-65331D01*
Y-68663D01*
X404668Y-70329D01*
X411332D01*
X412998Y-68663D01*
Y-65331D01*
X411332Y-63664D01*
X409666D01*
X408000Y-65331D01*
Y-70329D01*
X513002Y13329D02*
X522998D01*
Y8331D01*
X521332Y6665D01*
X518000D01*
X516334Y8331D01*
Y13329D01*
Y9997D02*
X513002Y6665D01*
X522998Y-3332D02*
X521332Y-0D01*
X518000Y3332D01*
X514668D01*
X513002Y1666D01*
Y-1666D01*
X514668Y-3332D01*
X516334D01*
X518000Y-1666D01*
Y3332D01*
X521332Y-6665D02*
X522998Y-8331D01*
Y-11663D01*
X521332Y-13329D01*
X519666D01*
X518000Y-11663D01*
X516334Y-13329D01*
X514668D01*
X513002Y-11663D01*
Y-8331D01*
X514668Y-6665D01*
X516334D01*
X518000Y-8331D01*
X519666Y-6665D01*
X521332D01*
X518000Y-8331D02*
Y-11663D01*
X369671Y110002D02*
Y119998D01*
X374669D01*
X376335Y118332D01*
Y115000D01*
X374669Y113334D01*
X369671D01*
X373003D02*
X376335Y110002D01*
X386332Y119998D02*
X383000Y118332D01*
X379668Y115000D01*
Y111668D01*
X381334Y110002D01*
X384666D01*
X386332Y111668D01*
Y113334D01*
X384666Y115000D01*
X379668D01*
X389664Y119998D02*
X396329D01*
Y118332D01*
X389664Y111668D01*
Y110002D01*
X512002Y82329D02*
X521998D01*
Y77331D01*
X520332Y75665D01*
X517000D01*
X515334Y77331D01*
Y82329D01*
Y78997D02*
X512002Y75665D01*
X521998Y65668D02*
X520332Y69000D01*
X517000Y72332D01*
X513668D01*
X512002Y70666D01*
Y67334D01*
X513668Y65668D01*
X515334D01*
X517000Y67334D01*
Y72332D01*
X521998Y55671D02*
X520332Y59003D01*
X517000Y62335D01*
X513668D01*
X512002Y60669D01*
Y57337D01*
X513668Y55671D01*
X515334D01*
X517000Y57337D01*
Y62335D01*
X383002Y-11671D02*
X392998D01*
Y-16669D01*
X391332Y-18335D01*
X388000D01*
X386334Y-16669D01*
Y-11671D01*
Y-15003D02*
X383002Y-18335D01*
X392998Y-28332D02*
X391332Y-25000D01*
X388000Y-21668D01*
X384668D01*
X383002Y-23334D01*
Y-26666D01*
X384668Y-28332D01*
X386334D01*
X388000Y-26666D01*
Y-21668D01*
X392998Y-38329D02*
Y-31665D01*
X388000D01*
X389666Y-34997D01*
Y-36663D01*
X388000Y-38329D01*
X384668D01*
X383002Y-36663D01*
Y-33331D01*
X384668Y-31665D01*
X369002Y-11671D02*
X378998D01*
Y-16669D01*
X377332Y-18335D01*
X374000D01*
X372334Y-16669D01*
Y-11671D01*
Y-15003D02*
X369002Y-18335D01*
X378998Y-28332D02*
X377332Y-25000D01*
X374000Y-21668D01*
X370668D01*
X369002Y-23334D01*
Y-26666D01*
X370668Y-28332D01*
X372334D01*
X374000Y-26666D01*
Y-21668D01*
X369002Y-36663D02*
X378998D01*
X374000Y-31665D01*
Y-38329D01*
X502002Y128329D02*
X511998D01*
Y123331D01*
X510332Y121664D01*
X507000D01*
X505334Y123331D01*
Y128329D01*
Y124997D02*
X502002Y121664D01*
X511998Y111668D02*
X510332Y115000D01*
X507000Y118332D01*
X503668D01*
X502002Y116666D01*
Y113334D01*
X503668Y111668D01*
X505334D01*
X507000Y113334D01*
Y118332D01*
X510332Y108335D02*
X511998Y106669D01*
Y103337D01*
X510332Y101671D01*
X508666D01*
X507000Y103337D01*
Y105003D01*
Y103337D01*
X505334Y101671D01*
X503668D01*
X502002Y103337D01*
Y106669D01*
X503668Y108335D01*
X514002Y48329D02*
X523998D01*
Y43331D01*
X522332Y41665D01*
X519000D01*
X517334Y43331D01*
Y48329D01*
Y44997D02*
X514002Y41665D01*
X523998Y31668D02*
X522332Y35000D01*
X519000Y38332D01*
X515668D01*
X514002Y36666D01*
Y33334D01*
X515668Y31668D01*
X517334D01*
X519000Y33334D01*
Y38332D01*
X514002Y21671D02*
Y28335D01*
X520666Y21671D01*
X522332D01*
X523998Y23337D01*
Y26669D01*
X522332Y28335D01*
X232334Y259668D02*
Y266332D01*
X230668Y267998D01*
X227335D01*
X225669Y266332D01*
Y259668D01*
X227335Y258002D01*
X230668D01*
X229002Y261334D02*
X232334Y258002D01*
X230668D02*
X232334Y259668D01*
X235666Y266332D02*
X237332Y267998D01*
X240665D01*
X242331Y266332D01*
Y264666D01*
X240665Y263000D01*
X238998D01*
X240665D01*
X242331Y261334D01*
Y259668D01*
X240665Y258002D01*
X237332D01*
X235666Y259668D01*
X447332Y-88336D02*
X448998Y-86669D01*
Y-83337D01*
X447332Y-81671D01*
X440668D01*
X439002Y-83337D01*
Y-86669D01*
X440668Y-88336D01*
X447332Y-91668D02*
X448998Y-93334D01*
Y-96666D01*
X447332Y-98332D01*
X445666D01*
X444000Y-96666D01*
X442334Y-98332D01*
X440668D01*
X439002Y-96666D01*
Y-93334D01*
X440668Y-91668D01*
X442334D01*
X444000Y-93334D01*
X445666Y-91668D01*
X447332D01*
X444000Y-93334D02*
Y-96666D01*
X447332Y-101665D02*
X448998Y-103331D01*
Y-106663D01*
X447332Y-108329D01*
X440668D01*
X439002Y-106663D01*
Y-103331D01*
X440668Y-101665D01*
X447332D01*
X249332Y-47336D02*
X250998Y-45669D01*
Y-42337D01*
X249332Y-40671D01*
X242668D01*
X241002Y-42337D01*
Y-45669D01*
X242668Y-47336D01*
X250998Y-50668D02*
Y-57332D01*
X249332D01*
X242668Y-50668D01*
X241002D01*
X242668Y-60665D02*
X241002Y-62331D01*
Y-65663D01*
X242668Y-67329D01*
X249332D01*
X250998Y-65663D01*
Y-62331D01*
X249332Y-60665D01*
X247666D01*
X246000Y-62331D01*
Y-67329D01*
X398504Y-28002D02*
Y-36332D01*
X400170Y-37998D01*
X403502D01*
X405168Y-36332D01*
Y-28002D01*
X408501Y-37998D02*
X411833D01*
X410167D01*
Y-28002D01*
X408501Y-29668D01*
X416831Y-28002D02*
X423496D01*
Y-29668D01*
X416831Y-36332D01*
Y-37998D01*
X131671Y327002D02*
Y336998D01*
X136669D01*
X138336Y335332D01*
Y332000D01*
X136669Y330334D01*
X131671D01*
X135003D02*
X138336Y327002D01*
X146666D02*
Y336998D01*
X141668Y332000D01*
X148332D01*
X151664Y335332D02*
X153331Y336998D01*
X156663D01*
X158329Y335332D01*
Y333666D01*
X156663Y332000D01*
X154997D01*
X156663D01*
X158329Y330334D01*
Y328668D01*
X156663Y327002D01*
X153331D01*
X151664Y328668D01*
X132671Y341002D02*
Y350998D01*
X137669D01*
X139335Y349332D01*
Y346000D01*
X137669Y344334D01*
X132671D01*
X136003D02*
X139335Y341002D01*
X142668Y349332D02*
X144334Y350998D01*
X147666D01*
X149332Y349332D01*
Y347666D01*
X147666Y346000D01*
X146000D01*
X147666D01*
X149332Y344334D01*
Y342668D01*
X147666Y341002D01*
X144334D01*
X142668Y342668D01*
X159329Y350998D02*
X155997Y349332D01*
X152664Y346000D01*
Y342668D01*
X154331Y341002D01*
X157663D01*
X159329Y342668D01*
Y344334D01*
X157663Y346000D01*
X152664D01*
X136671Y360002D02*
Y369998D01*
X141669D01*
X143336Y368332D01*
Y365000D01*
X141669Y363334D01*
X136671D01*
X140003D02*
X143336Y360002D01*
X146668Y368332D02*
X148334Y369998D01*
X151666D01*
X153332Y368332D01*
Y366666D01*
X151666Y365000D01*
X150000D01*
X151666D01*
X153332Y363334D01*
Y361668D01*
X151666Y360002D01*
X148334D01*
X146668Y361668D01*
X163329Y369998D02*
X156664D01*
Y365000D01*
X159997Y366666D01*
X161663D01*
X163329Y365000D01*
Y361668D01*
X161663Y360002D01*
X158331D01*
X156664Y361668D01*
X332998Y151496D02*
X324668D01*
X323002Y149830D01*
Y146497D01*
X324668Y144831D01*
X332998D01*
X323002Y141499D02*
Y138167D01*
Y139833D01*
X332998D01*
X331332Y141499D01*
X332998Y126504D02*
Y133168D01*
X328000D01*
X329666Y129836D01*
Y128170D01*
X328000Y126504D01*
X324668D01*
X323002Y128170D01*
Y131502D01*
X324668Y133168D01*
X354332Y132664D02*
X355998Y134331D01*
Y137663D01*
X354332Y139329D01*
X347668D01*
X346002Y137663D01*
Y134331D01*
X347668Y132664D01*
X355998Y122668D02*
X354332Y126000D01*
X351000Y129332D01*
X347668D01*
X346002Y127666D01*
Y124334D01*
X347668Y122668D01*
X349334D01*
X351000Y124334D01*
Y129332D01*
X354332Y119335D02*
X355998Y117669D01*
Y114337D01*
X354332Y112671D01*
X352666D01*
X351000Y114337D01*
X349334Y112671D01*
X347668D01*
X346002Y114337D01*
Y117669D01*
X347668Y119335D01*
X349334D01*
X351000Y117669D01*
X352666Y119335D01*
X354332D01*
X351000Y117669D02*
Y114337D01*
X354172Y-174002D02*
X360836D01*
X357504D01*
Y-183998D01*
X364169D02*
Y-174002D01*
X369167D01*
X370833Y-175668D01*
Y-179000D01*
X369167Y-180666D01*
X364169D01*
X374165Y-183998D02*
X377498D01*
X375831D01*
Y-174002D01*
X374165Y-175668D01*
X382496Y-183998D02*
X385828D01*
X384162D01*
Y-174002D01*
X382496Y-175668D01*
X522002Y-91669D02*
X531998D01*
Y-96668D01*
X530332Y-98334D01*
X527000D01*
X525334Y-96668D01*
Y-91669D01*
Y-95002D02*
X522002Y-98334D01*
Y-108331D02*
Y-101666D01*
X528666Y-108331D01*
X530332D01*
X531998Y-106665D01*
Y-103332D01*
X530332Y-101666D01*
X613335Y-180002D02*
Y-181668D01*
X616668Y-185000D01*
X620000Y-181668D01*
Y-180002D01*
X616668Y-185000D02*
Y-189998D01*
X623332D02*
X626665D01*
X624998D01*
Y-180002D01*
X623332Y-181668D01*
X214504Y191998D02*
Y183668D01*
X216170Y182002D01*
X219502D01*
X221168Y183668D01*
Y191998D01*
X224501Y182002D02*
X227833D01*
X226167D01*
Y191998D01*
X224501Y190332D01*
X237830Y182002D02*
Y191998D01*
X232831Y187000D01*
X239496D01*
X160504Y324998D02*
Y316668D01*
X162170Y315002D01*
X165502D01*
X167169Y316668D01*
Y324998D01*
X170501Y315002D02*
X173833D01*
X172167D01*
Y324998D01*
X170501Y323332D01*
X185496Y315002D02*
X178832D01*
X185496Y321666D01*
Y323332D01*
X183830Y324998D01*
X180498D01*
X178832Y323332D01*
X445170Y119998D02*
Y111668D01*
X446836Y110002D01*
X450169D01*
X451835Y111668D01*
Y119998D01*
X455167Y110002D02*
X458499D01*
X456833D01*
Y119998D01*
X455167Y118332D01*
X463498Y110002D02*
X466830D01*
X465164D01*
Y119998D01*
X463498Y118332D01*
X296998Y437496D02*
X288668D01*
X287002Y435830D01*
Y432497D01*
X288668Y430831D01*
X296998D01*
X287002Y427499D02*
Y424167D01*
Y425833D01*
X296998D01*
X295332Y427499D01*
Y419169D02*
X296998Y417502D01*
Y414170D01*
X295332Y412504D01*
X288668D01*
X287002Y414170D01*
Y417502D01*
X288668Y419169D01*
X295332D01*
X-102331Y-149002D02*
Y-157332D01*
X-100665Y-158998D01*
X-97332D01*
X-95666Y-157332D01*
Y-149002D01*
X-92334Y-157332D02*
X-90668Y-158998D01*
X-87336D01*
X-85669Y-157332D01*
Y-150668D01*
X-87336Y-149002D01*
X-90668D01*
X-92334Y-150668D01*
Y-152334D01*
X-90668Y-154000D01*
X-85669D01*
X101669Y390998D02*
Y382668D01*
X103336Y381002D01*
X106668D01*
X108334Y382668D01*
Y390998D01*
X111666Y389332D02*
X113332Y390998D01*
X116664D01*
X118331Y389332D01*
Y387666D01*
X116664Y386000D01*
X118331Y384334D01*
Y382668D01*
X116664Y381002D01*
X113332D01*
X111666Y382668D01*
Y384334D01*
X113332Y386000D01*
X111666Y387666D01*
Y389332D01*
X113332Y386000D02*
X116664D01*
X349669Y251998D02*
Y243668D01*
X351335Y242002D01*
X354668D01*
X356334Y243668D01*
Y251998D01*
X366331D02*
X362998Y250332D01*
X359666Y247000D01*
Y243668D01*
X361332Y242002D01*
X364664D01*
X366331Y243668D01*
Y245334D01*
X364664Y247000D01*
X359666D01*
X132998Y445331D02*
X124668D01*
X123002Y443665D01*
Y440332D01*
X124668Y438666D01*
X132998D01*
X123002Y428669D02*
Y435334D01*
X129666Y428669D01*
X131332D01*
X132998Y430335D01*
Y433668D01*
X131332Y435334D01*
X236998Y168329D02*
Y161665D01*
Y164997D01*
X227002D01*
Y158332D02*
X236998D01*
Y153334D01*
X235332Y151668D01*
X232000D01*
X230334Y153334D01*
Y158332D01*
X236998Y141671D02*
Y148336D01*
X232000D01*
X233666Y145003D01*
Y143337D01*
X232000Y141671D01*
X228668D01*
X227002Y143337D01*
Y146669D01*
X228668Y148336D01*
X554671Y-127002D02*
X561335D01*
X558003D01*
Y-136998D01*
X564668D02*
Y-127002D01*
X569666D01*
X571332Y-128668D01*
Y-132000D01*
X569666Y-133666D01*
X564668D01*
X579663Y-136998D02*
Y-127002D01*
X574664Y-132000D01*
X581329D01*
X477671Y-156002D02*
X484336D01*
X481003D01*
Y-165998D01*
X487668D02*
Y-156002D01*
X492666D01*
X494332Y-157668D01*
Y-161000D01*
X492666Y-162666D01*
X487668D01*
X497664Y-157668D02*
X499331Y-156002D01*
X502663D01*
X504329Y-157668D01*
Y-159334D01*
X502663Y-161000D01*
X500997D01*
X502663D01*
X504329Y-162666D01*
Y-164332D01*
X502663Y-165998D01*
X499331D01*
X497664Y-164332D01*
X477671Y-171002D02*
X484336D01*
X481003D01*
Y-180998D01*
X487668D02*
Y-171002D01*
X492666D01*
X494332Y-172668D01*
Y-176000D01*
X492666Y-177666D01*
X487668D01*
X504329Y-180998D02*
X497664D01*
X504329Y-174334D01*
Y-172668D01*
X502663Y-171002D01*
X499331D01*
X497664Y-172668D01*
X493337Y-188002D02*
X500002D01*
X496669D01*
Y-197998D01*
X503334D02*
Y-188002D01*
X508332D01*
X509998Y-189668D01*
Y-193000D01*
X508332Y-194666D01*
X503334D01*
X513331Y-197998D02*
X516663D01*
X514997D01*
Y-188002D01*
X513331Y-189668D01*
X278002Y25332D02*
X276336Y26998D01*
X273003D01*
X271337Y25332D01*
Y23666D01*
X273003Y22000D01*
X276336D01*
X278002Y20334D01*
Y18668D01*
X276336Y17002D01*
X273003D01*
X271337Y18668D01*
X281334Y26998D02*
Y17002D01*
X284666Y20334D01*
X287998Y17002D01*
Y26998D01*
X291331Y17002D02*
X294663D01*
X292997D01*
Y26998D01*
X291331Y25332D01*
X304002Y154329D02*
X313998D01*
Y149331D01*
X312332Y147664D01*
X309000D01*
X307334Y149331D01*
Y154329D01*
Y150997D02*
X304002Y147664D01*
X313998Y137668D02*
Y144332D01*
X309000D01*
X310666Y141000D01*
Y139334D01*
X309000Y137668D01*
X305668D01*
X304002Y139334D01*
Y142666D01*
X305668Y144332D01*
Y134335D02*
X304002Y132669D01*
Y129337D01*
X305668Y127671D01*
X312332D01*
X313998Y129337D01*
Y132669D01*
X312332Y134335D01*
X310666D01*
X309000Y132669D01*
Y127671D01*
X198002Y273329D02*
X207998D01*
Y268331D01*
X206332Y266665D01*
X203000D01*
X201334Y268331D01*
Y273329D01*
Y269997D02*
X198002Y266665D01*
X207998Y256668D02*
Y263332D01*
X203000D01*
X204666Y260000D01*
Y258334D01*
X203000Y256668D01*
X199668D01*
X198002Y258334D01*
Y261666D01*
X199668Y263332D01*
X206332Y253335D02*
X207998Y251669D01*
Y248337D01*
X206332Y246671D01*
X204666D01*
X203000Y248337D01*
X201334Y246671D01*
X199668D01*
X198002Y248337D01*
Y251669D01*
X199668Y253335D01*
X201334D01*
X203000Y251669D01*
X204666Y253335D01*
X206332D01*
X203000Y251669D02*
Y248337D01*
X160002Y269329D02*
X169998D01*
Y264331D01*
X168332Y262665D01*
X165000D01*
X163334Y264331D01*
Y269329D01*
Y265997D02*
X160002Y262665D01*
X169998Y252668D02*
Y259332D01*
X165000D01*
X166666Y256000D01*
Y254334D01*
X165000Y252668D01*
X161668D01*
X160002Y254334D01*
Y257666D01*
X161668Y259332D01*
X169998Y249335D02*
Y242671D01*
X168332D01*
X161668Y249335D01*
X160002D01*
X138671Y228002D02*
Y237998D01*
X143669D01*
X145336Y236332D01*
Y233000D01*
X143669Y231334D01*
X138671D01*
X142003D02*
X145336Y228002D01*
X155332Y237998D02*
X148668D01*
Y233000D01*
X152000Y234666D01*
X153666D01*
X155332Y233000D01*
Y229668D01*
X153666Y228002D01*
X150334D01*
X148668Y229668D01*
X165329Y237998D02*
X158665D01*
Y233000D01*
X161997Y234666D01*
X163663D01*
X165329Y233000D01*
Y229668D01*
X163663Y228002D01*
X160331D01*
X158665Y229668D01*
X230671Y237002D02*
Y246998D01*
X235669D01*
X237335Y245332D01*
Y242000D01*
X235669Y240334D01*
X230671D01*
X234003D02*
X237335Y237002D01*
X245666D02*
Y246998D01*
X240668Y242000D01*
X247332D01*
X250665Y245332D02*
X252331Y246998D01*
X255663D01*
X257329Y245332D01*
Y243666D01*
X255663Y242000D01*
X257329Y240334D01*
Y238668D01*
X255663Y237002D01*
X252331D01*
X250665Y238668D01*
Y240334D01*
X252331Y242000D01*
X250665Y243666D01*
Y245332D01*
X252331Y242000D02*
X255663D01*
X276002Y407329D02*
X285998D01*
Y402331D01*
X284332Y400664D01*
X281000D01*
X279334Y402331D01*
Y407329D01*
Y403997D02*
X276002Y400664D01*
Y392334D02*
X285998D01*
X281000Y397332D01*
Y390668D01*
X285998Y380671D02*
X284332Y384003D01*
X281000Y387335D01*
X277668D01*
X276002Y385669D01*
Y382337D01*
X277668Y380671D01*
X279334D01*
X281000Y382337D01*
Y387335D01*
X265002Y354329D02*
X274998D01*
Y349331D01*
X273332Y347664D01*
X270000D01*
X268334Y349331D01*
Y354329D01*
Y350997D02*
X265002Y347664D01*
Y339334D02*
X274998D01*
X270000Y344332D01*
Y337668D01*
X274998Y327671D02*
Y334335D01*
X270000D01*
X271666Y331003D01*
Y329337D01*
X270000Y327671D01*
X266668D01*
X265002Y329337D01*
Y332669D01*
X266668Y334335D01*
X278671Y327002D02*
Y336998D01*
X283669D01*
X285336Y335332D01*
Y332000D01*
X283669Y330334D01*
X278671D01*
X282003D02*
X285336Y327002D01*
X293666D02*
Y336998D01*
X288668Y332000D01*
X295332D01*
X303663Y327002D02*
Y336998D01*
X298664Y332000D01*
X305329D01*
X-67329Y-152998D02*
Y-143002D01*
X-62331D01*
X-60665Y-144668D01*
Y-148000D01*
X-62331Y-149666D01*
X-67329D01*
X-63997D02*
X-60665Y-152998D01*
X-57332Y-144668D02*
X-55666Y-143002D01*
X-52334D01*
X-50668Y-144668D01*
Y-146334D01*
X-52334Y-148000D01*
X-54000D01*
X-52334D01*
X-50668Y-149666D01*
Y-151332D01*
X-52334Y-152998D01*
X-55666D01*
X-57332Y-151332D01*
X-47336D02*
X-45669Y-152998D01*
X-42337D01*
X-40671Y-151332D01*
Y-144668D01*
X-42337Y-143002D01*
X-45669D01*
X-47336Y-144668D01*
Y-146334D01*
X-45669Y-148000D01*
X-40671D01*
X110002Y425329D02*
X119998D01*
Y420331D01*
X118332Y418665D01*
X115000D01*
X113334Y420331D01*
Y425329D01*
Y421997D02*
X110002Y418665D01*
X118332Y415332D02*
X119998Y413666D01*
Y410334D01*
X118332Y408668D01*
X116666D01*
X115000Y410334D01*
Y412000D01*
Y410334D01*
X113334Y408668D01*
X111668D01*
X110002Y410334D01*
Y413666D01*
X111668Y415332D01*
X118332Y405335D02*
X119998Y403669D01*
Y400337D01*
X118332Y398671D01*
X116666D01*
X115000Y400337D01*
X113334Y398671D01*
X111668D01*
X110002Y400337D01*
Y403669D01*
X111668Y405335D01*
X113334D01*
X115000Y403669D01*
X116666Y405335D01*
X118332D01*
X115000Y403669D02*
Y400337D01*
X621671Y-175998D02*
Y-166002D01*
X626669D01*
X628335Y-167668D01*
Y-171000D01*
X626669Y-172666D01*
X621671D01*
X625003D02*
X628335Y-175998D01*
X631668Y-167668D02*
X633334Y-166002D01*
X636666D01*
X638332Y-167668D01*
Y-169334D01*
X636666Y-171000D01*
X635000D01*
X636666D01*
X638332Y-172666D01*
Y-174332D01*
X636666Y-175998D01*
X633334D01*
X631668Y-174332D01*
X641665Y-166002D02*
X648329D01*
Y-167668D01*
X641665Y-174332D01*
Y-175998D01*
X268671Y-21998D02*
Y-12002D01*
X273669D01*
X275336Y-13668D01*
Y-17000D01*
X273669Y-18666D01*
X268671D01*
X272003D02*
X275336Y-21998D01*
X278668Y-13668D02*
X280334Y-12002D01*
X283666D01*
X285332Y-13668D01*
Y-15334D01*
X283666Y-17000D01*
X282000D01*
X283666D01*
X285332Y-18666D01*
Y-20332D01*
X283666Y-21998D01*
X280334D01*
X278668Y-20332D01*
X288664Y-13668D02*
X290331Y-12002D01*
X293663D01*
X295329Y-13668D01*
Y-15334D01*
X293663Y-17000D01*
X291997D01*
X293663D01*
X295329Y-18666D01*
Y-20332D01*
X293663Y-21998D01*
X290331D01*
X288664Y-20332D01*
X316002Y-160671D02*
X325998D01*
Y-165669D01*
X324332Y-167335D01*
X321000D01*
X319334Y-165669D01*
Y-160671D01*
Y-164003D02*
X316002Y-167335D01*
X324332Y-170668D02*
X325998Y-172334D01*
Y-175666D01*
X324332Y-177332D01*
X322666D01*
X321000Y-175666D01*
Y-174000D01*
Y-175666D01*
X319334Y-177332D01*
X317668D01*
X316002Y-175666D01*
Y-172334D01*
X317668Y-170668D01*
X316002Y-187329D02*
Y-180665D01*
X322666Y-187329D01*
X324332D01*
X325998Y-185663D01*
Y-182331D01*
X324332Y-180665D01*
X619337Y-161998D02*
Y-152002D01*
X624336D01*
X626002Y-153668D01*
Y-157000D01*
X624336Y-158666D01*
X619337D01*
X622669D02*
X626002Y-161998D01*
X629334Y-153668D02*
X631000Y-152002D01*
X634332D01*
X635998Y-153668D01*
Y-155334D01*
X634332Y-157000D01*
X632666D01*
X634332D01*
X635998Y-158666D01*
Y-160332D01*
X634332Y-161998D01*
X631000D01*
X629334Y-160332D01*
X639331Y-161998D02*
X642663D01*
X640997D01*
Y-152002D01*
X639331Y-153668D01*
X488671Y-34998D02*
Y-25002D01*
X493669D01*
X495336Y-26668D01*
Y-30000D01*
X493669Y-31666D01*
X488671D01*
X492003D02*
X495336Y-34998D01*
X498668Y-26668D02*
X500334Y-25002D01*
X503666D01*
X505332Y-26668D01*
Y-28334D01*
X503666Y-30000D01*
X502000D01*
X503666D01*
X505332Y-31666D01*
Y-33332D01*
X503666Y-34998D01*
X500334D01*
X498668Y-33332D01*
X508665Y-26668D02*
X510331Y-25002D01*
X513663D01*
X515329Y-26668D01*
Y-33332D01*
X513663Y-34998D01*
X510331D01*
X508665Y-33332D01*
Y-26668D01*
X450002Y-105671D02*
X459998D01*
Y-110669D01*
X458332Y-112336D01*
X455000D01*
X453334Y-110669D01*
Y-105671D01*
Y-109003D02*
X450002Y-112336D01*
Y-122332D02*
Y-115668D01*
X456666Y-122332D01*
X458332D01*
X459998Y-120666D01*
Y-117334D01*
X458332Y-115668D01*
X451668Y-125665D02*
X450002Y-127331D01*
Y-130663D01*
X451668Y-132329D01*
X458332D01*
X459998Y-130663D01*
Y-127331D01*
X458332Y-125665D01*
X456666D01*
X455000Y-127331D01*
Y-132329D01*
X487671Y-47998D02*
Y-38002D01*
X492669D01*
X494336Y-39668D01*
Y-43000D01*
X492669Y-44666D01*
X487671D01*
X491003D02*
X494336Y-47998D01*
X504332D02*
X497668D01*
X504332Y-41334D01*
Y-39668D01*
X502666Y-38002D01*
X499334D01*
X497668Y-39668D01*
X507664D02*
X509331Y-38002D01*
X512663D01*
X514329Y-39668D01*
Y-41334D01*
X512663Y-43000D01*
X514329Y-44666D01*
Y-46332D01*
X512663Y-47998D01*
X509331D01*
X507664Y-46332D01*
Y-44666D01*
X509331Y-43000D01*
X507664Y-41334D01*
Y-39668D01*
X509331Y-43000D02*
X512663D01*
X422002Y-151671D02*
X431998D01*
Y-156669D01*
X430332Y-158336D01*
X427000D01*
X425334Y-156669D01*
Y-151671D01*
Y-155003D02*
X422002Y-158336D01*
Y-168332D02*
Y-161668D01*
X428666Y-168332D01*
X430332D01*
X431998Y-166666D01*
Y-163334D01*
X430332Y-161668D01*
X431998Y-171665D02*
Y-178329D01*
X430332D01*
X423668Y-171665D01*
X422002D01*
X586671Y-124998D02*
Y-115002D01*
X591669D01*
X593335Y-116668D01*
Y-120000D01*
X591669Y-121666D01*
X586671D01*
X590003D02*
X593335Y-124998D01*
X603332D02*
X596668D01*
X603332Y-118334D01*
Y-116668D01*
X601666Y-115002D01*
X598334D01*
X596668Y-116668D01*
X606665D02*
X608331Y-115002D01*
X611663D01*
X613329Y-116668D01*
Y-118334D01*
X611663Y-120000D01*
X609997D01*
X611663D01*
X613329Y-121666D01*
Y-123332D01*
X611663Y-124998D01*
X608331D01*
X606665Y-123332D01*
X321337Y194002D02*
Y203998D01*
X326335D01*
X328002Y202332D01*
Y199000D01*
X326335Y197334D01*
X321337D01*
X324669D02*
X328002Y194002D01*
X337998D02*
X331334D01*
X337998Y200666D01*
Y202332D01*
X336332Y203998D01*
X333000D01*
X331334Y202332D01*
X341331Y194002D02*
X344663D01*
X342997D01*
Y203998D01*
X341331Y202332D01*
X604669Y-89998D02*
Y-80002D01*
X609668D01*
X611334Y-81668D01*
Y-85000D01*
X609668Y-86666D01*
X604669D01*
X608002D02*
X611334Y-89998D01*
X614666Y-81668D02*
X616332Y-80002D01*
X619664D01*
X621331Y-81668D01*
Y-83334D01*
X619664Y-85000D01*
X621331Y-86666D01*
Y-88332D01*
X619664Y-89998D01*
X616332D01*
X614666Y-88332D01*
Y-86666D01*
X616332Y-85000D01*
X614666Y-83334D01*
Y-81668D01*
X616332Y-85000D02*
X619664D01*
X621669Y-146998D02*
Y-137002D01*
X626668D01*
X628334Y-138668D01*
Y-142000D01*
X626668Y-143666D01*
X621669D01*
X625002D02*
X628334Y-146998D01*
X631666Y-137002D02*
X638331D01*
Y-138668D01*
X631666Y-145332D01*
Y-146998D01*
X288002Y405331D02*
X297998D01*
Y400332D01*
X296332Y398666D01*
X293000D01*
X291334Y400332D01*
Y405331D01*
Y401998D02*
X288002Y398666D01*
Y390335D02*
X297998D01*
X293000Y395334D01*
Y388669D01*
X341334Y14668D02*
Y21332D01*
X339668Y22998D01*
X336335D01*
X334669Y21332D01*
Y14668D01*
X336335Y13002D01*
X339668D01*
X338002Y16334D02*
X341334Y13002D01*
X339668D02*
X341334Y14668D01*
X351331Y22998D02*
X344666D01*
Y18000D01*
X347998Y19666D01*
X349664D01*
X351331Y18000D01*
Y14668D01*
X349664Y13002D01*
X346332D01*
X344666Y14668D01*
X400334Y260668D02*
Y267332D01*
X398668Y268998D01*
X395336D01*
X393669Y267332D01*
Y260668D01*
X395336Y259002D01*
X398668D01*
X397002Y262334D02*
X400334Y259002D01*
X398668D02*
X400334Y260668D01*
X410331Y259002D02*
X403666D01*
X410331Y265666D01*
Y267332D01*
X408665Y268998D01*
X405332D01*
X403666Y267332D01*
X364000Y260668D02*
Y267332D01*
X362334Y268998D01*
X359002D01*
X357336Y267332D01*
Y260668D01*
X359002Y259002D01*
X362334D01*
X360668Y262334D02*
X364000Y259002D01*
X362334D02*
X364000Y260668D01*
X367332Y259002D02*
X370664D01*
X368998D01*
Y268998D01*
X367332Y267332D01*
X544673Y287998D02*
Y278002D01*
X551337D01*
X561334Y287998D02*
X554669D01*
Y278002D01*
X561334D01*
X554669Y283000D02*
X558002D01*
X564666Y287998D02*
Y278002D01*
X569664D01*
X571331Y279668D01*
Y286332D01*
X569664Y287998D01*
X564666D01*
X581327Y278002D02*
X574663D01*
X581327Y284666D01*
Y286332D01*
X579661Y287998D01*
X576329D01*
X574663Y286332D01*
X-4661Y284998D02*
Y275002D01*
X2003D01*
X12000Y284998D02*
X5336D01*
Y275002D01*
X12000D01*
X5336Y280000D02*
X8668D01*
X15332Y284998D02*
Y275002D01*
X20331D01*
X21997Y276668D01*
Y283332D01*
X20331Y284998D01*
X15332D01*
X25329Y275002D02*
X28661D01*
X26995D01*
Y284998D01*
X25329Y283332D01*
X227669Y845998D02*
Y836002D01*
X232668D01*
X234334Y837668D01*
Y844332D01*
X232668Y845998D01*
X227669D01*
X237666Y844332D02*
X239332Y845998D01*
X242665D01*
X244331Y844332D01*
Y842666D01*
X242665Y841000D01*
X240998D01*
X242665D01*
X244331Y839334D01*
Y837668D01*
X242665Y836002D01*
X239332D01*
X237666Y837668D01*
X205669Y488998D02*
Y479002D01*
X210668D01*
X212334Y480668D01*
Y487332D01*
X210668Y488998D01*
X205669D01*
X222331Y479002D02*
X215666D01*
X222331Y485666D01*
Y487332D01*
X220665Y488998D01*
X217332D01*
X215666Y487332D01*
X287332Y-46336D02*
X288998Y-44669D01*
Y-41337D01*
X287332Y-39671D01*
X280668D01*
X279002Y-41337D01*
Y-44669D01*
X280668Y-46336D01*
X288998Y-49668D02*
Y-56332D01*
X287332D01*
X280668Y-49668D01*
X279002D01*
X287332Y-59665D02*
X288998Y-61331D01*
Y-64663D01*
X287332Y-66329D01*
X285666D01*
X284000Y-64663D01*
X282334Y-66329D01*
X280668D01*
X279002Y-64663D01*
Y-61331D01*
X280668Y-59665D01*
X282334D01*
X284000Y-61331D01*
X285666Y-59665D01*
X287332D01*
X284000Y-61331D02*
Y-64663D01*
X182332Y-131335D02*
X183998Y-129669D01*
Y-126337D01*
X182332Y-124671D01*
X175668D01*
X174002Y-126337D01*
Y-129669D01*
X175668Y-131335D01*
X183998Y-134668D02*
Y-141332D01*
X182332D01*
X175668Y-134668D01*
X174002D01*
Y-151329D02*
Y-144665D01*
X180666Y-151329D01*
X182332D01*
X183998Y-149663D01*
Y-146331D01*
X182332Y-144665D01*
X177335Y171332D02*
X175669Y172998D01*
X172337D01*
X170671Y171332D01*
Y164668D01*
X172337Y163002D01*
X175669D01*
X177335Y164668D01*
X187332Y172998D02*
X184000Y171332D01*
X180668Y168000D01*
Y164668D01*
X182334Y163002D01*
X185666D01*
X187332Y164668D01*
Y166334D01*
X185666Y168000D01*
X180668D01*
X190665Y172998D02*
X197329D01*
Y171332D01*
X190665Y164668D01*
Y163002D01*
X374332Y21665D02*
X375998Y23331D01*
Y26663D01*
X374332Y28329D01*
X367668D01*
X366002Y26663D01*
Y23331D01*
X367668Y21665D01*
X375998Y11668D02*
X374332Y15000D01*
X371000Y18332D01*
X367668D01*
X366002Y16666D01*
Y13334D01*
X367668Y11668D01*
X369334D01*
X371000Y13334D01*
Y18332D01*
X374332Y8335D02*
X375998Y6669D01*
Y3337D01*
X374332Y1671D01*
X367668D01*
X366002Y3337D01*
Y6669D01*
X367668Y8335D01*
X374332D01*
X296336Y453332D02*
X294669Y454998D01*
X291337D01*
X289671Y453332D01*
Y446668D01*
X291337Y445002D01*
X294669D01*
X296336Y446668D01*
X306332Y454998D02*
X299668D01*
Y450000D01*
X303000Y451666D01*
X304666D01*
X306332Y450000D01*
Y446668D01*
X304666Y445002D01*
X301334D01*
X299668Y446668D01*
X309664D02*
X311331Y445002D01*
X314663D01*
X316329Y446668D01*
Y453332D01*
X314663Y454998D01*
X311331D01*
X309664Y453332D01*
Y451666D01*
X311331Y450000D01*
X316329D01*
X180336Y437332D02*
X178669Y438998D01*
X175337D01*
X173671Y437332D01*
Y430668D01*
X175337Y429002D01*
X178669D01*
X180336Y430668D01*
X190332Y438998D02*
X183668D01*
Y434000D01*
X187000Y435666D01*
X188666D01*
X190332Y434000D01*
Y430668D01*
X188666Y429002D01*
X185334D01*
X183668Y430668D01*
X200329Y438998D02*
X196997Y437332D01*
X193664Y434000D01*
Y430668D01*
X195331Y429002D01*
X198663D01*
X200329Y430668D01*
Y432334D01*
X198663Y434000D01*
X193664D01*
X180336Y422332D02*
X178669Y423998D01*
X175337D01*
X173671Y422332D01*
Y415668D01*
X175337Y414002D01*
X178669D01*
X180336Y415668D01*
X190332Y423998D02*
X183668D01*
Y419000D01*
X187000Y420666D01*
X188666D01*
X190332Y419000D01*
Y415668D01*
X188666Y414002D01*
X185334D01*
X183668Y415668D01*
X200329Y423998D02*
X193664D01*
Y419000D01*
X196997Y420666D01*
X198663D01*
X200329Y419000D01*
Y415668D01*
X198663Y414002D01*
X195331D01*
X193664Y415668D01*
X235336Y904332D02*
X233669Y905998D01*
X230337D01*
X228671Y904332D01*
Y897668D01*
X230337Y896002D01*
X233669D01*
X235336Y897668D01*
X245332Y905998D02*
X238668D01*
Y901000D01*
X242000Y902666D01*
X243666D01*
X245332Y901000D01*
Y897668D01*
X243666Y896002D01*
X240334D01*
X238668Y897668D01*
X255329Y896002D02*
X248664D01*
X255329Y902666D01*
Y904332D01*
X253663Y905998D01*
X250331D01*
X248664Y904332D01*
X298002Y938332D02*
X296336Y939998D01*
X293003D01*
X291337Y938332D01*
Y931668D01*
X293003Y930002D01*
X296336D01*
X298002Y931668D01*
X307998Y939998D02*
X301334D01*
Y935000D01*
X304666Y936666D01*
X306332D01*
X307998Y935000D01*
Y931668D01*
X306332Y930002D01*
X303000D01*
X301334Y931668D01*
X311331Y930002D02*
X314663D01*
X312997D01*
Y939998D01*
X311331Y938332D01*
X296336Y876332D02*
X294669Y877998D01*
X291337D01*
X289671Y876332D01*
Y869668D01*
X291337Y868002D01*
X294669D01*
X296336Y869668D01*
X306332Y877998D02*
X299668D01*
Y873000D01*
X303000Y874666D01*
X304666D01*
X306332Y873000D01*
Y869668D01*
X304666Y868002D01*
X301334D01*
X299668Y869668D01*
X309664Y876332D02*
X311331Y877998D01*
X314663D01*
X316329Y876332D01*
Y869668D01*
X314663Y868002D01*
X311331D01*
X309664Y869668D01*
Y876332D01*
X260336Y877332D02*
X258669Y878998D01*
X255337D01*
X253671Y877332D01*
Y870668D01*
X255337Y869002D01*
X258669D01*
X260336Y870668D01*
X268666Y869002D02*
Y878998D01*
X263668Y874000D01*
X270332D01*
X273664Y870668D02*
X275331Y869002D01*
X278663D01*
X280329Y870668D01*
Y877332D01*
X278663Y878998D01*
X275331D01*
X273664Y877332D01*
Y875666D01*
X275331Y874000D01*
X280329D01*
X224332Y392664D02*
X225998Y394331D01*
Y397663D01*
X224332Y399329D01*
X217668D01*
X216002Y397663D01*
Y394331D01*
X217668Y392664D01*
X216002Y384334D02*
X225998D01*
X221000Y389332D01*
Y382668D01*
X224332Y379336D02*
X225998Y377669D01*
Y374337D01*
X224332Y372671D01*
X222666D01*
X221000Y374337D01*
X219334Y372671D01*
X217668D01*
X216002Y374337D01*
Y377669D01*
X217668Y379336D01*
X219334D01*
X221000Y377669D01*
X222666Y379336D01*
X224332D01*
X221000Y377669D02*
Y374337D01*
X-35668Y-115336D02*
X-34002Y-113669D01*
Y-110337D01*
X-35668Y-108671D01*
X-42332D01*
X-43998Y-110337D01*
Y-113669D01*
X-42332Y-115336D01*
X-43998Y-123666D02*
X-34002D01*
X-39000Y-118668D01*
Y-125332D01*
X-34002Y-135329D02*
X-35668Y-131997D01*
X-39000Y-128665D01*
X-42332D01*
X-43998Y-130331D01*
Y-133663D01*
X-42332Y-135329D01*
X-40666D01*
X-39000Y-133663D01*
Y-128665D01*
X121332Y351665D02*
X122998Y353331D01*
Y356663D01*
X121332Y358329D01*
X114668D01*
X113002Y356663D01*
Y353331D01*
X114668Y351665D01*
X113002Y343334D02*
X122998D01*
X118000Y348332D01*
Y341668D01*
X113002Y333337D02*
X122998D01*
X118000Y338335D01*
Y331671D01*
X85336Y401332D02*
X83669Y402998D01*
X80337D01*
X78671Y401332D01*
Y394668D01*
X80337Y393002D01*
X83669D01*
X85336Y394668D01*
X93666Y393002D02*
Y402998D01*
X88668Y398000D01*
X95332D01*
X98665Y401332D02*
X100331Y402998D01*
X103663D01*
X105329Y401332D01*
Y399666D01*
X103663Y398000D01*
X101997D01*
X103663D01*
X105329Y396334D01*
Y394668D01*
X103663Y393002D01*
X100331D01*
X98665Y394668D01*
X146335Y483332D02*
X144669Y484998D01*
X141337D01*
X139671Y483332D01*
Y476668D01*
X141337Y475002D01*
X144669D01*
X146335Y476668D01*
X154666Y475002D02*
Y484998D01*
X149668Y480000D01*
X156332D01*
X166329Y475002D02*
X159664D01*
X166329Y481666D01*
Y483332D01*
X164663Y484998D01*
X161331D01*
X159664Y483332D01*
X361332Y-47336D02*
X362998Y-45669D01*
Y-42337D01*
X361332Y-40671D01*
X354668D01*
X353002Y-42337D01*
Y-45669D01*
X354668Y-47336D01*
X361332Y-50668D02*
X362998Y-52334D01*
Y-55666D01*
X361332Y-57332D01*
X359666D01*
X358000Y-55666D01*
Y-54000D01*
Y-55666D01*
X356334Y-57332D01*
X354668D01*
X353002Y-55666D01*
Y-52334D01*
X354668Y-50668D01*
Y-60665D02*
X353002Y-62331D01*
Y-65663D01*
X354668Y-67329D01*
X361332D01*
X362998Y-65663D01*
Y-62331D01*
X361332Y-60665D01*
X359666D01*
X358000Y-62331D01*
Y-67329D01*
X349336Y221332D02*
X347669Y222998D01*
X344337D01*
X342671Y221332D01*
Y214668D01*
X344337Y213002D01*
X347669D01*
X349336Y214668D01*
X359332Y213002D02*
X352668D01*
X359332Y219666D01*
Y221332D01*
X357666Y222998D01*
X354334D01*
X352668Y221332D01*
X362664Y214668D02*
X364331Y213002D01*
X367663D01*
X369329Y214668D01*
Y221332D01*
X367663Y222998D01*
X364331D01*
X362664Y221332D01*
Y219666D01*
X364331Y218000D01*
X369329D01*
X548169Y-149668D02*
X546502Y-148002D01*
X543170D01*
X541504Y-149668D01*
Y-156332D01*
X543170Y-157998D01*
X546502D01*
X548169Y-156332D01*
X551501Y-157998D02*
X554833D01*
X553167D01*
Y-148002D01*
X551501Y-149668D01*
X559832Y-148002D02*
X566496D01*
Y-149668D01*
X559832Y-156332D01*
Y-157998D01*
X551332Y-92169D02*
X552998Y-90503D01*
Y-87170D01*
X551332Y-85504D01*
X544668D01*
X543002Y-87170D01*
Y-90503D01*
X544668Y-92169D01*
X543002Y-95501D02*
Y-98833D01*
Y-97167D01*
X552998D01*
X551332Y-95501D01*
X552998Y-110496D02*
X551332Y-107164D01*
X548000Y-103832D01*
X544668D01*
X543002Y-105498D01*
Y-108830D01*
X544668Y-110496D01*
X546334D01*
X548000Y-108830D01*
Y-103832D01*
X529334Y-196668D02*
X527668Y-195002D01*
X524336D01*
X522669Y-196668D01*
Y-203332D01*
X524336Y-204998D01*
X527668D01*
X529334Y-203332D01*
X532666Y-196668D02*
X534332Y-195002D01*
X537664D01*
X539331Y-196668D01*
Y-198334D01*
X537664Y-200000D01*
X535998D01*
X537664D01*
X539331Y-201666D01*
Y-203332D01*
X537664Y-204998D01*
X534332D01*
X532666Y-203332D01*
X625334Y-194668D02*
X623668Y-193002D01*
X620336D01*
X618669Y-194668D01*
Y-201332D01*
X620336Y-202998D01*
X623668D01*
X625334Y-201332D01*
X635331Y-202998D02*
X628666D01*
X635331Y-196334D01*
Y-194668D01*
X633665Y-193002D01*
X630332D01*
X628666Y-194668D01*
D16*
X410000Y204000D02*
Y218000D01*
X407000Y129000D02*
Y139000D01*
X206500Y42400D02*
Y47600D01*
X233500Y42400D02*
Y47600D01*
X113000Y38000D02*
Y48000D01*
X174500Y42400D02*
Y47600D01*
X201500Y42400D02*
Y47600D01*
X140400Y-94500D02*
X145600D01*
X140400Y-121500D02*
X145600D01*
X185000Y177000D02*
Y187000D01*
X174000Y-108000D02*
X184000D01*
X155506Y460064D02*
Y470064D01*
X522000Y-126000D02*
X532000D01*
X374995Y781536D02*
Y791536D01*
Y798536D02*
Y808536D01*
X418995Y814536D02*
Y824536D01*
X417308Y908223D02*
Y918223D01*
Y891224D02*
Y901224D01*
X417308Y925223D02*
Y935223D01*
X379995Y930536D02*
Y940536D01*
X371308Y913224D02*
Y923224D01*
X442464Y-25070D02*
X445130D01*
X443797D01*
Y-17073D01*
X442464Y-18406D01*
D17*
X124540Y697314D02*
Y687158D01*
X129618Y682079D01*
X134697Y687158D01*
Y697314D01*
X139775D02*
Y682079D01*
X147393D01*
X149932Y684618D01*
Y687158D01*
X147393Y689697D01*
X139775D01*
X147393D01*
X149932Y692236D01*
Y694775D01*
X147393Y697314D01*
X139775D01*
X155010Y682079D02*
Y692236D01*
X160089Y697314D01*
X165167Y692236D01*
Y682079D01*
Y689697D01*
X155010D01*
X170245Y697314D02*
X180402D01*
X175324D01*
Y682079D01*
X185480Y679540D02*
X195637D01*
X200715Y682079D02*
Y697314D01*
X205794Y692236D01*
X210872Y697314D01*
Y682079D01*
X215950Y697314D02*
X221029D01*
X218490D01*
Y682079D01*
X215950D01*
X221029D01*
X228646Y697314D02*
Y682079D01*
X236264D01*
X238803Y684618D01*
Y694775D01*
X236264Y697314D01*
X228646D01*
X405540Y712775D02*
Y702618D01*
X410618Y697540D01*
X415697Y702618D01*
Y712775D01*
X420775D02*
Y697540D01*
X428393D01*
X430932Y700079D01*
Y702618D01*
X428393Y705157D01*
X420775D01*
X428393D01*
X430932Y707697D01*
Y710236D01*
X428393Y712775D01*
X420775D01*
X436010Y697540D02*
Y707697D01*
X441088Y712775D01*
X446167Y707697D01*
Y697540D01*
Y705157D01*
X436010D01*
X451245Y712775D02*
X461402D01*
X456324D01*
Y697540D01*
X-98686Y536460D02*
X-108842D01*
X-113921Y531382D01*
X-108842Y526303D01*
X-98686D01*
Y521225D02*
X-113921D01*
Y513607D01*
X-111382Y511068D01*
X-108842D01*
X-106303Y513607D01*
Y521225D01*
Y513607D01*
X-103764Y511068D01*
X-101225D01*
X-98686Y513607D01*
Y521225D01*
X-113921Y505990D02*
X-103764D01*
X-98686Y500911D01*
X-103764Y495833D01*
X-113921D01*
X-106303D01*
Y505990D01*
X-98686Y490755D02*
Y480598D01*
Y485676D01*
X-113921D01*
X-116460Y475520D02*
Y465363D01*
X-113921Y460285D02*
X-98686D01*
X-103764Y455206D01*
X-98686Y450128D01*
X-113921D01*
X-98686Y445050D02*
Y439971D01*
Y442510D01*
X-113921D01*
Y445050D01*
Y439971D01*
X-98686Y432354D02*
X-113921D01*
Y424736D01*
X-111382Y422197D01*
X-101225D01*
X-98686Y424736D01*
Y432354D01*
X687314Y536460D02*
X672079D01*
Y528843D01*
X674618Y526303D01*
X677158D01*
X679697Y528843D01*
Y536460D01*
Y528843D01*
X682236Y526303D01*
X684775D01*
X687314Y528843D01*
Y536460D01*
X672079Y521225D02*
X682236D01*
X687314Y516147D01*
X682236Y511068D01*
X672079D01*
X679697D01*
Y521225D01*
X687314Y505990D02*
Y495833D01*
Y500911D01*
X672079D01*
X687314Y490755D02*
Y480598D01*
Y485676D01*
X672079D01*
X669540Y475520D02*
Y465363D01*
X684775Y450128D02*
X687314Y452667D01*
Y457745D01*
X684775Y460285D01*
X674618D01*
X672079Y457745D01*
Y452667D01*
X674618Y450128D01*
X679697D01*
Y455206D01*
X672079Y445050D02*
X687314D01*
X672079Y434893D01*
X687314D01*
Y429814D02*
X672079D01*
Y422197D01*
X674618Y419658D01*
X684775D01*
X687314Y422197D01*
Y429814D01*
X-12641Y-465644D02*
Y-440253D01*
X55D01*
X4287Y-444484D01*
Y-452948D01*
X55Y-457180D01*
X-12641D01*
X12751Y-465644D02*
Y-440253D01*
X25447D01*
X29679Y-444484D01*
Y-452948D01*
X25447Y-457180D01*
X12751D01*
X21215D02*
X29679Y-465644D01*
X38143Y-440253D02*
X46607D01*
X42375D01*
Y-465644D01*
X38143D01*
X46607D01*
X59303D02*
Y-440253D01*
X67767Y-448717D01*
X76231Y-440253D01*
Y-465644D01*
X84695D02*
Y-448717D01*
X93159Y-440253D01*
X101623Y-448717D01*
Y-465644D01*
Y-452948D01*
X84695D01*
X110086Y-465644D02*
Y-440253D01*
X122782D01*
X127014Y-444484D01*
Y-452948D01*
X122782Y-457180D01*
X110086D01*
X118551D02*
X127014Y-465644D01*
X135478Y-440253D02*
Y-444484D01*
X143942Y-452948D01*
X152406Y-444484D01*
Y-440253D01*
X143942Y-452948D02*
Y-465644D01*
X203190Y-444484D02*
X198958Y-440253D01*
X190494D01*
X186262Y-444484D01*
Y-448717D01*
X190494Y-452948D01*
X198958D01*
X203190Y-457180D01*
Y-461412D01*
X198958Y-465644D01*
X190494D01*
X186262Y-461412D01*
X211654Y-440253D02*
X220118D01*
X215886D01*
Y-465644D01*
X211654D01*
X220118D01*
X232814Y-440253D02*
Y-465644D01*
X245509D01*
X249741Y-461412D01*
Y-444484D01*
X245509Y-440253D01*
X232814D01*
X275133D02*
X258205D01*
Y-465644D01*
X275133D01*
X258205Y-452948D02*
X266669D01*
X325917Y-444484D02*
X321685Y-440253D01*
X313221D01*
X308989Y-444484D01*
Y-448717D01*
X313221Y-452948D01*
X321685D01*
X325917Y-457180D01*
Y-461412D01*
X321685Y-465644D01*
X313221D01*
X308989Y-461412D01*
X334381Y-440253D02*
X342845D01*
X338613D01*
Y-465644D01*
X334381D01*
X342845D01*
X355541Y-440253D02*
Y-465644D01*
X372468D01*
X380932Y-440253D02*
Y-465644D01*
Y-457180D01*
X397860Y-440253D01*
X385164Y-452948D01*
X397860Y-465644D01*
X448644Y-444484D02*
X444412Y-440253D01*
X435948D01*
X431716Y-444484D01*
Y-448717D01*
X435948Y-452948D01*
X444412D01*
X448644Y-457180D01*
Y-461412D01*
X444412Y-465644D01*
X435948D01*
X431716Y-461412D01*
X474036Y-444484D02*
X469804Y-440253D01*
X461340D01*
X457108Y-444484D01*
Y-461412D01*
X461340Y-465644D01*
X469804D01*
X474036Y-461412D01*
X482500Y-465644D02*
Y-440253D01*
X495195D01*
X499427Y-444484D01*
Y-452948D01*
X495195Y-457180D01*
X482500D01*
X490964D02*
X499427Y-465644D01*
X524819Y-440253D02*
X507891D01*
Y-465644D01*
X524819D01*
X507891Y-452948D02*
X516355D01*
X550211Y-440253D02*
X533283D01*
Y-465644D01*
X550211D01*
X533283Y-452948D02*
X541747D01*
X558675Y-465644D02*
Y-440253D01*
X575603Y-465644D01*
Y-440253D01*
X-145Y-288975D02*
X-8608D01*
X-12840Y-293207D01*
Y-310134D01*
X-8608Y-314366D01*
X-145D01*
X4087Y-310134D01*
Y-293207D01*
X-145Y-288975D01*
X12551D02*
Y-314366D01*
X25247D01*
X29479Y-310134D01*
Y-293207D01*
X25247Y-288975D01*
X12551D01*
X37943D02*
X46407D01*
X42175D01*
Y-314366D01*
X37943D01*
X46407D01*
X76031Y-293207D02*
X71799Y-288975D01*
X63335D01*
X59103Y-293207D01*
Y-310134D01*
X63335Y-314366D01*
X71799D01*
X76031Y-310134D01*
X88727Y-318598D02*
X92959Y-314366D01*
Y-310134D01*
X88727D01*
Y-314366D01*
X92959D01*
X88727Y-318598D01*
X84495Y-322830D01*
X135278Y-288975D02*
X143742D01*
X139510D01*
Y-314366D01*
X135278D01*
X143742D01*
X156438D02*
Y-288975D01*
X173366Y-314366D01*
Y-288975D01*
X198758Y-293207D02*
X194526Y-288975D01*
X186062D01*
X181830Y-293207D01*
Y-310134D01*
X186062Y-314366D01*
X194526D01*
X198758Y-310134D01*
X207222Y-314366D02*
Y-310134D01*
X211454D01*
Y-314366D01*
X207222D01*
X1341Y-340332D02*
X-2891Y-336100D01*
X-11355D01*
X-15587Y-340332D01*
Y-357260D01*
X-11355Y-361492D01*
X-2891D01*
X1341Y-357260D01*
Y-348796D01*
X-7123D01*
X9805Y-336100D02*
Y-361492D01*
Y-348796D01*
X26733D01*
Y-336100D01*
Y-361492D01*
X35197Y-336100D02*
Y-361492D01*
X52125D01*
X85980D02*
Y-336100D01*
X102908Y-361492D01*
Y-336100D01*
X111372Y-361492D02*
Y-344564D01*
X119836Y-336100D01*
X128300Y-344564D01*
Y-361492D01*
Y-348796D01*
X111372D01*
X136764Y-361492D02*
Y-344564D01*
X145228Y-336100D01*
X153692Y-344564D01*
Y-361492D01*
Y-348796D01*
X136764D01*
X162156Y-336100D02*
X179083D01*
X170620D01*
Y-361492D01*
X200243Y-336100D02*
X191779D01*
X187547Y-340332D01*
Y-357260D01*
X191779Y-361492D01*
X200243D01*
X204475Y-357260D01*
Y-340332D01*
X200243Y-336100D01*
X229867Y-340332D02*
X225635Y-336100D01*
X217171D01*
X212939Y-340332D01*
Y-344564D01*
X217171Y-348796D01*
X225635D01*
X229867Y-353028D01*
Y-357260D01*
X225635Y-361492D01*
X217171D01*
X212939Y-357260D01*
X280651Y-340332D02*
X276419Y-336100D01*
X267955D01*
X263723Y-340332D01*
Y-344564D01*
X267955Y-348796D01*
X276419D01*
X280651Y-353028D01*
Y-357260D01*
X276419Y-361492D01*
X267955D01*
X263723Y-357260D01*
X293347Y-344564D02*
X301810D01*
X306042Y-348796D01*
Y-361492D01*
X293347D01*
X289115Y-357260D01*
X293347Y-353028D01*
X306042D01*
X314506Y-361492D02*
Y-344564D01*
X318738D01*
X322970Y-348796D01*
Y-361492D01*
Y-348796D01*
X327202Y-344564D01*
X331434Y-348796D01*
Y-361492D01*
X339898Y-369956D02*
Y-344564D01*
X352594D01*
X356826Y-348796D01*
Y-357260D01*
X352594Y-361492D01*
X339898D01*
X365290D02*
X373754D01*
X369522D01*
Y-336100D01*
X365290D01*
X399146Y-361492D02*
X390682D01*
X386450Y-357260D01*
Y-348796D01*
X390682Y-344564D01*
X399146D01*
X403378Y-348796D01*
Y-353028D01*
X386450D01*
X437233Y-361492D02*
Y-336100D01*
X449929D01*
X454161Y-340332D01*
Y-348796D01*
X449929Y-353028D01*
X437233D01*
X462625Y-344564D02*
Y-361492D01*
Y-353028D01*
X466857Y-348796D01*
X471089Y-344564D01*
X475321D01*
X500713Y-361492D02*
X492249D01*
X488017Y-357260D01*
Y-348796D01*
X492249Y-344564D01*
X500713D01*
X504945Y-348796D01*
Y-353028D01*
X488017D01*
X513409Y-369956D02*
Y-344564D01*
X526105D01*
X530337Y-348796D01*
Y-357260D01*
X526105Y-361492D01*
X513409D01*
X564192D02*
Y-336100D01*
X572656Y-344564D01*
X581120Y-336100D01*
Y-361492D01*
X593816Y-344564D02*
X602280D01*
X606512Y-348796D01*
Y-361492D01*
X593816D01*
X589584Y-357260D01*
X593816Y-353028D01*
X606512D01*
X614976Y-361492D02*
X623440D01*
X619208D01*
Y-344564D01*
X614976D01*
X636136Y-361492D02*
Y-344564D01*
X648832D01*
X653064Y-348796D01*
Y-361492D01*
X686919Y-336100D02*
Y-361492D01*
X699615D01*
X703847Y-357260D01*
Y-353028D01*
X699615Y-348796D01*
X686919D01*
X699615D01*
X703847Y-344564D01*
Y-340332D01*
X699615Y-336100D01*
X686919D01*
X716543Y-361492D02*
X725007D01*
X729239Y-357260D01*
Y-348796D01*
X725007Y-344564D01*
X716543D01*
X712311Y-348796D01*
Y-357260D01*
X716543Y-361492D01*
X741935Y-344564D02*
X750399D01*
X754631Y-348796D01*
Y-361492D01*
X741935D01*
X737703Y-357260D01*
X741935Y-353028D01*
X754631D01*
X763095Y-344564D02*
Y-361492D01*
Y-353028D01*
X767327Y-348796D01*
X771559Y-344564D01*
X775791D01*
X805414Y-336100D02*
Y-361492D01*
X792719D01*
X788486Y-357260D01*
Y-348796D01*
X792719Y-344564D01*
X805414D01*
X1727Y-413574D02*
X-15201D01*
X1727Y-396646D01*
Y-392415D01*
X-2505Y-388183D01*
X-10969D01*
X-15201Y-392415D01*
X27119Y-388183D02*
X18655Y-392415D01*
X10191Y-400878D01*
Y-409342D01*
X14423Y-413574D01*
X22887D01*
X27119Y-409342D01*
Y-405110D01*
X22887Y-400878D01*
X10191D01*
X35583Y-392415D02*
X39815Y-388183D01*
X48279D01*
X52511Y-392415D01*
Y-396646D01*
X48279Y-400878D01*
X44047D01*
X48279D01*
X52511Y-405110D01*
Y-409342D01*
X48279Y-413574D01*
X39815D01*
X35583Y-409342D01*
X60975Y-400878D02*
X77903D01*
X86367Y-392415D02*
X90599Y-388183D01*
X99063D01*
X103295Y-392415D01*
Y-409342D01*
X99063Y-413574D01*
X90599D01*
X86367Y-409342D01*
Y-392415D01*
X111758D02*
X115990Y-388183D01*
X124454D01*
X128686Y-392415D01*
Y-396646D01*
X124454Y-400878D01*
X120222D01*
X124454D01*
X128686Y-405110D01*
Y-409342D01*
X124454Y-413574D01*
X115990D01*
X111758Y-409342D01*
X137150Y-400878D02*
X154078D01*
X162542Y-392415D02*
X166774Y-388183D01*
X175238D01*
X179470Y-392415D01*
Y-409342D01*
X175238Y-413574D01*
X166774D01*
X162542Y-409342D01*
Y-392415D01*
X187934D02*
X192166Y-388183D01*
X200630D01*
X204862Y-392415D01*
Y-409342D01*
X200630Y-413574D01*
X192166D01*
X187934Y-409342D01*
Y-392415D01*
X213326Y-413574D02*
X221790D01*
X217558D01*
Y-388183D01*
X213326Y-392415D01*
X285269Y-413574D02*
Y-388183D01*
X297965D01*
X302197Y-392415D01*
Y-400878D01*
X297965Y-405110D01*
X285269D01*
X293733D02*
X302197Y-413574D01*
X327589Y-388183D02*
X310661D01*
Y-413574D01*
X327589D01*
X310661Y-400878D02*
X319125D01*
X336053Y-388183D02*
Y-405110D01*
X344517Y-413574D01*
X352980Y-405110D01*
Y-388183D01*
X386836D02*
Y-413574D01*
X399532D01*
X403764Y-409342D01*
Y-405110D01*
X399532Y-400878D01*
X386836D01*
X399532D01*
X403764Y-396646D01*
Y-392415D01*
X399532Y-388183D01*
X386836D01*
D18*
X332000Y173000D02*
X334999D01*
X333499D01*
Y181997D01*
X332000Y180498D01*
M02*
