G04*
G04 #@! TF.GenerationSoftware,Altium Limited,Altium Designer,24.9.1 (31)*
G04*
G04 Layer_Color=32896*
%FSLAX44Y44*%
%MOMM*%
G71*
G04*
G04 #@! TF.SameCoordinates,7F96DF23-6EF7-4123-9D03-ABB94F86F5D4*
G04*
G04*
G04 #@! TF.FilePolarity,Positive*
G04*
G01*
G75*
%ADD10C,0.2030*%
%ADD11C,0.1524*%
%ADD12C,0.2000*%
%ADD14C,0.2032*%
%ADD15C,0.1500*%
%ADD16C,0.1270*%
%ADD17C,0.2540*%
D10*
X427464Y38700D02*
X459464D01*
X427464Y12700D02*
X459464D01*
D11*
X135300Y-121710D02*
G03*
X135300Y-121710I-2540J0D01*
G01*
X276755Y880036D02*
G03*
X276755Y880036I-1270J0D01*
G01*
X468460Y-70500D02*
G03*
X468460Y-70500I-3810J0D01*
G01*
X211311Y-110805D02*
G03*
X211311Y-110805I-2540J0D01*
G01*
X648750Y-186690D02*
G03*
X648750Y-186690I-3810J0D01*
G01*
X296810Y850550D02*
G03*
X296810Y850550I-3810J0D01*
G01*
X419005Y-155536D02*
G03*
X419005Y-155536I-2000J0D01*
G01*
X132500Y-129500D02*
X136500D01*
X121500Y-140500D02*
X132500Y-129500D01*
X121500Y-182500D02*
Y-140500D01*
Y-182500D02*
X136500D01*
X159500Y-129500D02*
X163500D01*
X174500Y-140500D01*
Y-182500D02*
Y-140500D01*
X159500Y-182500D02*
X174500D01*
X469430Y-54279D02*
X507022D01*
X469430Y-161721D02*
Y-54279D01*
Y-161721D02*
X507022D01*
Y-54279D01*
X413245Y-49484D02*
Y-26669D01*
X158246Y-4268D02*
Y6516D01*
Y-49484D02*
X183545D01*
X387946D02*
X413245D01*
Y-4268D02*
Y6516D01*
X158246D02*
X413245D01*
X158246Y-49484D02*
Y-26669D01*
X178566Y-77964D02*
X188726Y-66026D01*
X198886Y-77964D01*
X178566D02*
X198886D01*
X219438Y-145095D02*
X284970D01*
X218930Y-76515D02*
X284463D01*
X538133Y-181864D02*
X695867D01*
Y-72136D01*
X538133D02*
X695867D01*
X538133Y-181864D02*
Y-72136D01*
X447688Y53879D02*
Y69612D01*
X419240Y53879D02*
Y69612D01*
X309221Y808178D02*
Y845770D01*
X261500D02*
X309221D01*
X261500Y808178D02*
Y845770D01*
Y808178D02*
X309221D01*
X422005Y-155536D02*
X452005D01*
X422005Y-125536D02*
X452005D01*
D12*
X258855Y892656D02*
G03*
X258855Y892656I-2540J0D01*
G01*
X271003Y132496D02*
X273502Y134995D01*
X278501D01*
X281000Y132496D01*
Y122499D01*
X278501Y120000D01*
X273502D01*
X271003Y122499D01*
Y127498D01*
X276002D01*
X266005Y134995D02*
Y120000D01*
Y127498D01*
X256008D01*
Y134995D01*
Y120000D01*
X251010Y134995D02*
Y120000D01*
X241013D01*
X236015Y127498D02*
X226018D01*
X221019Y120000D02*
X216021D01*
X218520D01*
Y134995D01*
X221019Y132496D01*
X208524Y127498D02*
X198527D01*
X183532Y120000D02*
X193528D01*
X183532Y129997D01*
Y132496D01*
X186031Y134995D01*
X191029D01*
X193528Y132496D01*
X178533Y120000D02*
X173535D01*
X176034D01*
Y134995D01*
X178533Y132496D01*
X166037D02*
X163538Y134995D01*
X158540D01*
X156040Y132496D01*
Y122499D01*
X158540Y120000D01*
X163538D01*
X166037Y122499D01*
Y132496D01*
X151042D02*
X148543Y134995D01*
X143545D01*
X141045Y132496D01*
Y122499D01*
X143545Y120000D01*
X148543D01*
X151042Y122499D01*
Y132496D01*
X126050Y120000D02*
X136047D01*
X126050Y129997D01*
Y132496D01*
X128549Y134995D01*
X133548D01*
X136047Y132496D01*
X91061Y120000D02*
Y134995D01*
X83564D01*
X81065Y132496D01*
Y127498D01*
X83564Y124998D01*
X91061D01*
X86063D02*
X81065Y120000D01*
X68569D02*
X73567D01*
X76066Y122499D01*
Y127498D01*
X73567Y129997D01*
X68569D01*
X66070Y127498D01*
Y124998D01*
X76066D01*
X61071Y129997D02*
X56073Y120000D01*
X51074Y129997D01*
X31081Y134995D02*
Y120000D01*
X23583D01*
X21084Y122499D01*
Y124998D01*
X23583Y127498D01*
X31081D01*
X23583D01*
X21084Y129997D01*
Y132496D01*
X23583Y134995D01*
X31081D01*
D14*
X147790Y968800D02*
X206210D01*
X147790Y867200D02*
X206210D01*
X325461Y-119665D02*
Y-73945D01*
X292440Y-59975D02*
X325461D01*
X292440Y-61245D02*
Y-59975D01*
Y-61245D02*
X325461D01*
X292440Y-119665D02*
Y-73945D01*
X318790Y498800D02*
X377210D01*
X318790Y397200D02*
X377210D01*
X-96005Y704536D02*
X113995D01*
X-96005D02*
Y914536D01*
X113995D01*
Y704536D02*
Y914536D01*
X457995Y704536D02*
X667995D01*
X457995D02*
Y914536D01*
X667995D01*
Y704536D02*
Y914536D01*
X-96005Y474536D02*
X113995D01*
X-96005D02*
Y684536D01*
X113995D01*
Y474536D02*
Y684536D01*
X457995Y244536D02*
X667995D01*
X457995D02*
Y454536D01*
X667995D01*
Y244536D02*
Y454536D01*
X-96005Y244536D02*
X113995D01*
X-96005D02*
Y454536D01*
X113995D01*
Y244536D02*
Y454536D01*
X457995Y474536D02*
X667995D01*
X457995D02*
Y684536D01*
X667995D01*
Y474536D02*
Y684536D01*
D15*
X453004Y44700D02*
G03*
X453004Y44700I-2540J0D01*
G01*
X346539Y-140915D02*
G03*
X346539Y-140915I-1998J0D01*
G01*
X305965Y867336D02*
Y880036D01*
X278025Y867336D02*
Y880036D01*
X340201Y-138805D02*
Y-132555D01*
X333951D02*
X340201D01*
X305700D02*
X308701D01*
X305700Y-135555D02*
Y-132555D01*
Y-167055D02*
Y-164055D01*
Y-167055D02*
X308701D01*
X340201D02*
Y-164055D01*
X337201Y-167055D02*
X340201D01*
X184001Y-158003D02*
X182002Y-156003D01*
Y-152004D01*
X184001Y-150005D01*
X191999D01*
X193998Y-152004D01*
Y-156003D01*
X191999Y-158003D01*
X184001Y-162001D02*
X182002Y-164001D01*
Y-167999D01*
X184001Y-169999D01*
X186001D01*
X188000Y-167999D01*
X189999Y-169999D01*
X191999D01*
X193998Y-167999D01*
Y-164001D01*
X191999Y-162001D01*
X189999D01*
X188000Y-164001D01*
X186001Y-162001D01*
X184001D01*
X188000Y-164001D02*
Y-167999D01*
X182002Y-181995D02*
Y-173997D01*
X188000D01*
X186001Y-177996D01*
Y-179995D01*
X188000Y-181995D01*
X191999D01*
X193998Y-179995D01*
Y-175997D01*
X191999Y-173997D01*
X125001Y361997D02*
X123002Y363997D01*
Y367995D01*
X125001Y369995D01*
X127001D01*
X129000Y367995D01*
Y363997D01*
X130999Y361997D01*
X132999D01*
X134998Y363997D01*
Y367995D01*
X132999Y369995D01*
X125001Y350001D02*
X123002Y352001D01*
Y355999D01*
X125001Y357999D01*
X132999D01*
X134998Y355999D01*
Y352001D01*
X132999Y350001D01*
X123002Y338005D02*
X125001Y342004D01*
X129000Y346003D01*
X132999D01*
X134998Y344003D01*
Y340005D01*
X132999Y338005D01*
X130999D01*
X129000Y340005D01*
Y346003D01*
X125001Y582997D02*
X123002Y584997D01*
Y588995D01*
X125001Y590995D01*
X127001D01*
X129000Y588995D01*
Y584997D01*
X130999Y582997D01*
X132999D01*
X134998Y584997D01*
Y588995D01*
X132999Y590995D01*
X125001Y571001D02*
X123002Y573001D01*
Y576999D01*
X125001Y578999D01*
X132999D01*
X134998Y576999D01*
Y573001D01*
X132999Y571001D01*
X123002Y559005D02*
Y567002D01*
X129000D01*
X127001Y563004D01*
Y561004D01*
X129000Y559005D01*
X132999D01*
X134998Y561004D01*
Y565003D01*
X132999Y567002D01*
X128001Y815997D02*
X126002Y817997D01*
Y821995D01*
X128001Y823995D01*
X130001D01*
X132000Y821995D01*
Y817997D01*
X133999Y815997D01*
X135999D01*
X137998Y817997D01*
Y821995D01*
X135999Y823995D01*
X128001Y804001D02*
X126002Y806001D01*
Y809999D01*
X128001Y811999D01*
X135999D01*
X137998Y809999D01*
Y806001D01*
X135999Y804001D01*
X137998Y794005D02*
X126002D01*
X132000Y800003D01*
Y792005D01*
X441001Y425997D02*
X439002Y427997D01*
Y431995D01*
X441001Y433995D01*
X443001D01*
X445000Y431995D01*
Y427997D01*
X446999Y425997D01*
X448999D01*
X450998Y427997D01*
Y431995D01*
X448999Y433995D01*
X441001Y414001D02*
X439002Y416001D01*
Y419999D01*
X441001Y421999D01*
X448999D01*
X450998Y419999D01*
Y416001D01*
X448999Y414001D01*
X441001Y410003D02*
X439002Y408003D01*
Y404005D01*
X441001Y402005D01*
X443001D01*
X445000Y404005D01*
Y406004D01*
Y404005D01*
X446999Y402005D01*
X448999D01*
X450998Y404005D01*
Y408003D01*
X448999Y410003D01*
X438001Y559997D02*
X436002Y561997D01*
Y565995D01*
X438001Y567995D01*
X440001D01*
X442000Y565995D01*
Y561997D01*
X443999Y559997D01*
X445999D01*
X447998Y561997D01*
Y565995D01*
X445999Y567995D01*
X438001Y548001D02*
X436002Y550001D01*
Y553999D01*
X438001Y555999D01*
X445999D01*
X447998Y553999D01*
Y550001D01*
X445999Y548001D01*
X447998Y536005D02*
Y544002D01*
X440001Y536005D01*
X438001D01*
X436002Y538004D01*
Y542003D01*
X438001Y544002D01*
X440001Y778998D02*
X438002Y780997D01*
Y784996D01*
X440001Y786995D01*
X442001D01*
X444000Y784996D01*
Y780997D01*
X445999Y778998D01*
X447999D01*
X449998Y780997D01*
Y784996D01*
X447999Y786995D01*
X440001Y767002D02*
X438002Y769001D01*
Y773000D01*
X440001Y774999D01*
X447999D01*
X449998Y773000D01*
Y769001D01*
X447999Y767002D01*
X449998Y763003D02*
Y759005D01*
Y761004D01*
X438002D01*
X440001Y763003D01*
X454998Y334995D02*
X443002D01*
Y328997D01*
X445001Y326998D01*
X449000D01*
X450999Y328997D01*
Y334995D01*
Y330996D02*
X454998Y326998D01*
Y322999D02*
Y319000D01*
Y321000D01*
X443002D01*
X445001Y322999D01*
Y313002D02*
X443002Y311003D01*
Y307004D01*
X445001Y305005D01*
X447001D01*
X449000Y307004D01*
X450999Y305005D01*
X452999D01*
X454998Y307004D01*
Y311003D01*
X452999Y313002D01*
X450999D01*
X449000Y311003D01*
X447001Y313002D01*
X445001D01*
X449000Y311003D02*
Y307004D01*
X105001Y-151003D02*
X103002Y-149003D01*
Y-145005D01*
X105001Y-143005D01*
X112999D01*
X114998Y-145005D01*
Y-149003D01*
X112999Y-151003D01*
X105001Y-155001D02*
X103002Y-157001D01*
Y-160999D01*
X105001Y-162999D01*
X107001D01*
X109000Y-160999D01*
Y-159000D01*
Y-160999D01*
X110999Y-162999D01*
X112999D01*
X114998Y-160999D01*
Y-157001D01*
X112999Y-155001D01*
X114998Y-172995D02*
X103002D01*
X109000Y-166998D01*
Y-174995D01*
X369666Y905332D02*
X371332Y906998D01*
X374664D01*
X376331Y905332D01*
Y898668D01*
X374664Y897002D01*
X371332D01*
X369666Y898668D01*
X366334Y905332D02*
X364668Y906998D01*
X361335D01*
X359669Y905332D01*
Y903666D01*
X361335Y902000D01*
X359669Y900334D01*
Y898668D01*
X361335Y897002D01*
X364668D01*
X366334Y898668D01*
Y900334D01*
X364668Y902000D01*
X366334Y903666D01*
Y905332D01*
X364668Y902000D02*
X361335D01*
X407666Y932332D02*
X409332Y933998D01*
X412664D01*
X414331Y932332D01*
Y925668D01*
X412664Y924002D01*
X409332D01*
X407666Y925668D01*
X404334D02*
X402668Y924002D01*
X399336D01*
X397669Y925668D01*
Y932332D01*
X399336Y933998D01*
X402668D01*
X404334Y932332D01*
Y930666D01*
X402668Y929000D01*
X397669D01*
X246999Y833998D02*
X250998D01*
X248999D01*
Y824001D01*
X250998Y822002D01*
X252997D01*
X254997Y824001D01*
X243001D02*
X241001Y822002D01*
X237003D01*
X235003Y824001D01*
Y831999D01*
X237003Y833998D01*
X241001D01*
X243001Y831999D01*
Y829999D01*
X241001Y828000D01*
X235003D01*
X440999Y-173999D02*
Y-166001D01*
X442999Y-164002D01*
X446997D01*
X448997Y-166001D01*
Y-173999D01*
X446997Y-175998D01*
X442999D01*
X444998Y-171999D02*
X440999Y-175998D01*
X442999D02*
X440999Y-173999D01*
X431003Y-175998D02*
Y-164002D01*
X437001Y-170000D01*
X429003D01*
X265663Y-199998D02*
Y-190002D01*
X260665D01*
X258998Y-191668D01*
Y-195000D01*
X260665Y-196666D01*
X265663D01*
X262331D02*
X258998Y-199998D01*
X249002Y-190002D02*
X252334Y-191668D01*
X255666Y-195000D01*
Y-198332D01*
X254000Y-199998D01*
X250668D01*
X249002Y-198332D01*
Y-196666D01*
X250668Y-195000D01*
X255666D01*
X245669Y-199998D02*
X242337D01*
X244003D01*
Y-190002D01*
X245669Y-191668D01*
X484331Y30998D02*
Y29332D01*
X480998Y26000D01*
X477666Y29332D01*
Y30998D01*
X480998Y26000D02*
Y21002D01*
X467669D02*
X474334D01*
X467669Y27666D01*
Y29332D01*
X469336Y30998D01*
X472668D01*
X474334Y29332D01*
X371496Y-162002D02*
Y-170332D01*
X369830Y-171998D01*
X366498D01*
X364832Y-170332D01*
Y-162002D01*
X361499Y-171998D02*
X358167D01*
X359833D01*
Y-162002D01*
X361499Y-163668D01*
X346504Y-162002D02*
X349836Y-163668D01*
X353168Y-167000D01*
Y-170332D01*
X351502Y-171998D01*
X348170D01*
X346504Y-170332D01*
Y-168666D01*
X348170Y-167000D01*
X353168D01*
X477331Y55998D02*
Y47668D01*
X475664Y46002D01*
X472332D01*
X470666Y47668D01*
Y55998D01*
X467334Y54332D02*
X465668Y55998D01*
X462336D01*
X460669Y54332D01*
Y52666D01*
X462336Y51000D01*
X464002D01*
X462336D01*
X460669Y49334D01*
Y47668D01*
X462336Y46002D01*
X465668D01*
X467334Y47668D01*
X294329Y-203998D02*
Y-194002D01*
X289331D01*
X287665Y-195668D01*
Y-199000D01*
X289331Y-200666D01*
X294329D01*
X290997D02*
X287665Y-203998D01*
X277668Y-194002D02*
X281000Y-195668D01*
X284332Y-199000D01*
Y-202332D01*
X282666Y-203998D01*
X279334D01*
X277668Y-202332D01*
Y-200666D01*
X279334Y-199000D01*
X284332D01*
X274335Y-195668D02*
X272669Y-194002D01*
X269337D01*
X267671Y-195668D01*
Y-202332D01*
X269337Y-203998D01*
X272669D01*
X274335Y-202332D01*
Y-195668D01*
X271998Y349329D02*
X262002D01*
Y344331D01*
X263668Y342664D01*
X267000D01*
X268666Y344331D01*
Y349329D01*
Y345997D02*
X271998Y342664D01*
X262002Y332668D02*
Y339332D01*
X267000D01*
X265334Y336000D01*
Y334334D01*
X267000Y332668D01*
X270332D01*
X271998Y334334D01*
Y337666D01*
X270332Y339332D01*
X263668Y329335D02*
X262002Y327669D01*
Y324337D01*
X263668Y322671D01*
X270332D01*
X271998Y324337D01*
Y327669D01*
X270332Y329335D01*
X263668D01*
X209998Y380329D02*
X200002D01*
Y375331D01*
X201668Y373665D01*
X205000D01*
X206666Y375331D01*
Y380329D01*
Y376997D02*
X209998Y373665D01*
Y365334D02*
X200002D01*
X205000Y370332D01*
Y363668D01*
X208332Y360336D02*
X209998Y358669D01*
Y355337D01*
X208332Y353671D01*
X201668D01*
X200002Y355337D01*
Y358669D01*
X201668Y360336D01*
X203334D01*
X205000Y358669D01*
Y353671D01*
X409998Y42329D02*
X400002D01*
Y37331D01*
X401668Y35665D01*
X405000D01*
X406666Y37331D01*
Y42329D01*
Y38997D02*
X409998Y35665D01*
Y27334D02*
X400002D01*
X405000Y32332D01*
Y25668D01*
X400002Y22336D02*
Y15671D01*
X401668D01*
X408332Y22336D01*
X409998D01*
X255998Y350329D02*
X246002D01*
Y345331D01*
X247668Y343665D01*
X251000D01*
X252666Y345331D01*
Y350329D01*
Y346997D02*
X255998Y343665D01*
Y335334D02*
X246002D01*
X251000Y340332D01*
Y333668D01*
X255998Y323671D02*
Y330336D01*
X249334Y323671D01*
X247668D01*
X246002Y325337D01*
Y328669D01*
X247668Y330336D01*
X236998Y346663D02*
X227002D01*
Y341665D01*
X228668Y339998D01*
X232000D01*
X233666Y341665D01*
Y346663D01*
Y343331D02*
X236998Y339998D01*
Y331668D02*
X227002D01*
X232000Y336666D01*
Y330002D01*
X236998Y326669D02*
Y323337D01*
Y325003D01*
X227002D01*
X228668Y326669D01*
X484329Y87002D02*
Y96998D01*
X479331D01*
X477664Y95332D01*
Y92000D01*
X479331Y90334D01*
X484329D01*
X480997D02*
X477664Y87002D01*
X469334D02*
Y96998D01*
X474332Y92000D01*
X467668D01*
X464336Y95332D02*
X462669Y96998D01*
X459337D01*
X457671Y95332D01*
Y88668D01*
X459337Y87002D01*
X462669D01*
X464336Y88668D01*
Y95332D01*
X371329Y-187998D02*
Y-178002D01*
X366331D01*
X364664Y-179668D01*
Y-183000D01*
X366331Y-184666D01*
X371329D01*
X367997D02*
X364664Y-187998D01*
X361332Y-179668D02*
X359666Y-178002D01*
X356334D01*
X354668Y-179668D01*
Y-181334D01*
X356334Y-183000D01*
X358000D01*
X356334D01*
X354668Y-184666D01*
Y-186332D01*
X356334Y-187998D01*
X359666D01*
X361332Y-186332D01*
X346337Y-187998D02*
Y-178002D01*
X351335Y-183000D01*
X344671D01*
X410998Y97496D02*
X401002D01*
Y92498D01*
X402668Y90831D01*
X406000D01*
X407666Y92498D01*
Y97496D01*
Y94164D02*
X410998Y90831D01*
Y87499D02*
Y84167D01*
Y85833D01*
X401002D01*
X402668Y87499D01*
X410998Y72504D02*
Y79169D01*
X404334Y72504D01*
X402668D01*
X401002Y74170D01*
Y77502D01*
X402668Y79169D01*
X535496Y-77998D02*
Y-68002D01*
X530498D01*
X528831Y-69668D01*
Y-73000D01*
X530498Y-74666D01*
X535496D01*
X532164D02*
X528831Y-77998D01*
X525499D02*
X522167D01*
X523833D01*
Y-68002D01*
X525499Y-69668D01*
X517169D02*
X515502Y-68002D01*
X512170D01*
X510504Y-69668D01*
Y-76332D01*
X512170Y-77998D01*
X515502D01*
X517169Y-76332D01*
Y-69668D01*
X531331Y-63998D02*
Y-54002D01*
X526332D01*
X524666Y-55668D01*
Y-59000D01*
X526332Y-60666D01*
X531331D01*
X527998D02*
X524666Y-63998D01*
X521334Y-62332D02*
X519668Y-63998D01*
X516335D01*
X514669Y-62332D01*
Y-55668D01*
X516335Y-54002D01*
X519668D01*
X521334Y-55668D01*
Y-57334D01*
X519668Y-59000D01*
X514669D01*
X185331Y222002D02*
Y231998D01*
X180332D01*
X178666Y230332D01*
Y227000D01*
X180332Y225334D01*
X185331D01*
X181998D02*
X178666Y222002D01*
X168669Y231998D02*
X172002Y230332D01*
X175334Y227000D01*
Y223668D01*
X173668Y222002D01*
X170336D01*
X168669Y223668D01*
Y225334D01*
X170336Y227000D01*
X175334D01*
X156331Y197002D02*
Y206998D01*
X151332D01*
X149666Y205332D01*
Y202000D01*
X151332Y200334D01*
X156331D01*
X152998D02*
X149666Y197002D01*
X139669Y206998D02*
X146334D01*
Y202000D01*
X143002Y203666D01*
X141335D01*
X139669Y202000D01*
Y198668D01*
X141335Y197002D01*
X144668D01*
X146334Y198668D01*
X273664Y-156998D02*
Y-147002D01*
X268666D01*
X267000Y-148668D01*
Y-152000D01*
X268666Y-153666D01*
X273664D01*
X270332D02*
X267000Y-156998D01*
X263668D02*
X260336D01*
X262002D01*
Y-147002D01*
X263668Y-148668D01*
X592663Y-66998D02*
Y-57002D01*
X589331Y-60334D01*
X585998Y-57002D01*
Y-66998D01*
X582666Y-57002D02*
Y-66998D01*
X577668D01*
X576002Y-65332D01*
Y-58668D01*
X577668Y-57002D01*
X582666D01*
X572669Y-66998D02*
X569337D01*
X571003D01*
Y-57002D01*
X572669Y-58668D01*
X210331Y-90002D02*
Y-99998D01*
X203666D01*
X195336D02*
Y-90002D01*
X200334Y-95000D01*
X193669D01*
X344002Y516666D02*
Y519998D01*
Y518332D01*
X352332D01*
X353998Y519998D01*
Y521665D01*
X352332Y523331D01*
X345668Y513334D02*
X344002Y511668D01*
Y508335D01*
X345668Y506669D01*
X347334D01*
X349000Y508335D01*
X350666Y506669D01*
X352332D01*
X353998Y508335D01*
Y511668D01*
X352332Y513334D01*
X350666D01*
X349000Y511668D01*
X347334Y513334D01*
X345668D01*
X349000Y511668D02*
Y508335D01*
X351666Y958998D02*
X354998D01*
X353332D01*
Y950668D01*
X354998Y949002D01*
X356665D01*
X358331Y950668D01*
X348334Y958998D02*
X341669D01*
Y957332D01*
X348334Y950668D01*
Y949002D01*
X182666Y859998D02*
X185998D01*
X184332D01*
Y851668D01*
X185998Y850002D01*
X187665D01*
X189331Y851668D01*
X174335Y850002D02*
Y859998D01*
X179334Y855000D01*
X172669D01*
X270666Y-57002D02*
X273998D01*
X272332D01*
Y-65332D01*
X273998Y-66998D01*
X275665D01*
X277331Y-65332D01*
X260669Y-66998D02*
X267334D01*
X260669Y-60334D01*
Y-58668D01*
X262335Y-57002D01*
X265668D01*
X267334Y-58668D01*
X482002Y-40000D02*
Y-36668D01*
Y-38334D01*
X490332D01*
X491998Y-36668D01*
Y-35002D01*
X490332Y-33335D01*
X491998Y-43332D02*
Y-46665D01*
Y-44998D01*
X482002D01*
X483668Y-43332D01*
X333002Y-68669D02*
X342998D01*
Y-73668D01*
X341332Y-75334D01*
X334668D01*
X333002Y-73668D01*
Y-68669D01*
Y-78666D02*
Y-85331D01*
X334668D01*
X341332Y-78666D01*
X342998D01*
X325331Y881998D02*
Y872002D01*
X320332D01*
X318666Y873668D01*
Y880332D01*
X320332Y881998D01*
X325331D01*
X310336Y872002D02*
Y881998D01*
X315334Y877000D01*
X308669D01*
X317665Y-193668D02*
X319331Y-192002D01*
X322663D01*
X324329Y-193668D01*
Y-200332D01*
X322663Y-201998D01*
X319331D01*
X317665Y-200332D01*
X314332Y-192002D02*
X307668D01*
Y-193668D01*
X314332Y-200332D01*
Y-201998D01*
X304335Y-192002D02*
X297671D01*
Y-193668D01*
X304335Y-200332D01*
Y-201998D01*
X347664Y-191668D02*
X349331Y-190002D01*
X352663D01*
X354329Y-191668D01*
Y-198332D01*
X352663Y-199998D01*
X349331D01*
X347664Y-198332D01*
X344332Y-190002D02*
X337668D01*
Y-191668D01*
X344332Y-198332D01*
Y-199998D01*
X327671Y-190002D02*
X331003Y-191668D01*
X334336Y-195000D01*
Y-198332D01*
X332669Y-199998D01*
X329337D01*
X327671Y-198332D01*
Y-196666D01*
X329337Y-195000D01*
X334336D01*
X264668Y-165336D02*
X263002Y-163669D01*
Y-160337D01*
X264668Y-158671D01*
X271332D01*
X272998Y-160337D01*
Y-163669D01*
X271332Y-165336D01*
X263002Y-168668D02*
Y-175332D01*
X264668D01*
X271332Y-168668D01*
X272998D01*
X263002Y-185329D02*
Y-178665D01*
X268000D01*
X266334Y-181997D01*
Y-183663D01*
X268000Y-185329D01*
X271332D01*
X272998Y-183663D01*
Y-180331D01*
X271332Y-178665D01*
X226665Y-186668D02*
X228331Y-185002D01*
X231663D01*
X233329Y-186668D01*
Y-193332D01*
X231663Y-194998D01*
X228331D01*
X226665Y-193332D01*
X223332Y-185002D02*
X216668D01*
Y-186668D01*
X223332Y-193332D01*
Y-194998D01*
X208337D02*
Y-185002D01*
X213335Y-190000D01*
X206671D01*
X373665Y-134668D02*
X375331Y-133002D01*
X378663D01*
X380329Y-134668D01*
Y-141332D01*
X378663Y-142998D01*
X375331D01*
X373665Y-141332D01*
X370332Y-133002D02*
X363668D01*
Y-134668D01*
X370332Y-141332D01*
Y-142998D01*
X360336Y-134668D02*
X358669Y-133002D01*
X355337D01*
X353671Y-134668D01*
Y-136334D01*
X355337Y-138000D01*
X357003D01*
X355337D01*
X353671Y-139666D01*
Y-141332D01*
X355337Y-142998D01*
X358669D01*
X360336Y-141332D01*
X372668Y-72002D02*
X371002Y-70335D01*
Y-67003D01*
X372668Y-65337D01*
X379332D01*
X380998Y-67003D01*
Y-70335D01*
X379332Y-72002D01*
X371002Y-75334D02*
Y-81998D01*
X372668D01*
X379332Y-75334D01*
X380998D01*
Y-85331D02*
Y-88663D01*
Y-86997D01*
X371002D01*
X372668Y-85331D01*
X353668Y-68335D02*
X352002Y-66669D01*
Y-63337D01*
X353668Y-61671D01*
X360332D01*
X361998Y-63337D01*
Y-66669D01*
X360332Y-68335D01*
X352002Y-71668D02*
Y-78332D01*
X353668D01*
X360332Y-71668D01*
X361998D01*
X353668Y-81664D02*
X352002Y-83331D01*
Y-86663D01*
X353668Y-88329D01*
X360332D01*
X361998Y-86663D01*
Y-83331D01*
X360332Y-81664D01*
X353668D01*
X201668Y-129335D02*
X200002Y-127669D01*
Y-124337D01*
X201668Y-122671D01*
X208332D01*
X209998Y-124337D01*
Y-127669D01*
X208332Y-129335D01*
X200002Y-139332D02*
X201668Y-136000D01*
X205000Y-132668D01*
X208332D01*
X209998Y-134334D01*
Y-137666D01*
X208332Y-139332D01*
X206666D01*
X205000Y-137666D01*
Y-132668D01*
X208332Y-142664D02*
X209998Y-144331D01*
Y-147663D01*
X208332Y-149329D01*
X201668D01*
X200002Y-147663D01*
Y-144331D01*
X201668Y-142664D01*
X203334D01*
X205000Y-144331D01*
Y-149329D01*
X235665Y197332D02*
X237331Y198998D01*
X240663D01*
X242329Y197332D01*
Y190668D01*
X240663Y189002D01*
X237331D01*
X235665Y190668D01*
X225668Y198998D02*
X229000Y197332D01*
X232332Y194000D01*
Y190668D01*
X230666Y189002D01*
X227334D01*
X225668Y190668D01*
Y192334D01*
X227334Y194000D01*
X232332D01*
X217337Y189002D02*
Y198998D01*
X222335Y194000D01*
X215671D01*
X193664Y176332D02*
X195331Y177998D01*
X198663D01*
X200329Y176332D01*
Y169668D01*
X198663Y168002D01*
X195331D01*
X193664Y169668D01*
X183668Y177998D02*
X187000Y176332D01*
X190332Y173000D01*
Y169668D01*
X188666Y168002D01*
X185334D01*
X183668Y169668D01*
Y171334D01*
X185334Y173000D01*
X190332D01*
X180336Y176332D02*
X178669Y177998D01*
X175337D01*
X173671Y176332D01*
Y174666D01*
X175337Y173000D01*
X177003D01*
X175337D01*
X173671Y171334D01*
Y169668D01*
X175337Y168002D01*
X178669D01*
X180336Y169668D01*
X215773Y323382D02*
X217439Y325048D01*
X220772D01*
X222438Y323382D01*
Y316718D01*
X220772Y315052D01*
X217439D01*
X215773Y316718D01*
X205777Y325048D02*
X209109Y323382D01*
X212441Y320050D01*
Y316718D01*
X210775Y315052D01*
X207443D01*
X205777Y316718D01*
Y318384D01*
X207443Y320050D01*
X212441D01*
X202444Y315052D02*
X199112D01*
X200778D01*
Y325048D01*
X202444Y323382D01*
X314664Y475332D02*
X316331Y476998D01*
X319663D01*
X321329Y475332D01*
Y468668D01*
X319663Y467002D01*
X316331D01*
X314664Y468668D01*
X304668Y476998D02*
X311332D01*
Y472000D01*
X308000Y473666D01*
X306334D01*
X304668Y472000D01*
Y468668D01*
X306334Y467002D01*
X309666D01*
X311332Y468668D01*
X301336Y475332D02*
X299669Y476998D01*
X296337D01*
X294671Y475332D01*
Y473666D01*
X296337Y472000D01*
X294671Y470334D01*
Y468668D01*
X296337Y467002D01*
X299669D01*
X301336Y468668D01*
Y470334D01*
X299669Y472000D01*
X301336Y473666D01*
Y475332D01*
X299669Y472000D02*
X296337D01*
X314664Y452332D02*
X316331Y453998D01*
X319663D01*
X321329Y452332D01*
Y445668D01*
X319663Y444002D01*
X316331D01*
X314664Y445668D01*
X304668Y453998D02*
X311332D01*
Y449000D01*
X308000Y450666D01*
X306334D01*
X304668Y449000D01*
Y445668D01*
X306334Y444002D01*
X309666D01*
X311332Y445668D01*
X301336Y453998D02*
X294671D01*
Y452332D01*
X301336Y445668D01*
Y444002D01*
X289664Y387332D02*
X291331Y388998D01*
X294663D01*
X296329Y387332D01*
Y380668D01*
X294663Y379002D01*
X291331D01*
X289664Y380668D01*
X279668Y388998D02*
X286332D01*
Y384000D01*
X283000Y385666D01*
X281334D01*
X279668Y384000D01*
Y380668D01*
X281334Y379002D01*
X284666D01*
X286332Y380668D01*
X271337Y379002D02*
Y388998D01*
X276336Y384000D01*
X269671D01*
X209668Y406665D02*
X208002Y408331D01*
Y411663D01*
X209668Y413329D01*
X216332D01*
X217998Y411663D01*
Y408331D01*
X216332Y406665D01*
X208002Y396668D02*
Y403332D01*
X213000D01*
X211334Y400000D01*
Y398334D01*
X213000Y396668D01*
X216332D01*
X217998Y398334D01*
Y401666D01*
X216332Y403332D01*
X209668Y393335D02*
X208002Y391669D01*
Y388337D01*
X209668Y386671D01*
X211334D01*
X213000Y388337D01*
Y390003D01*
Y388337D01*
X214666Y386671D01*
X216332D01*
X217998Y388337D01*
Y391669D01*
X216332Y393335D01*
X470664Y-8668D02*
X472331Y-7002D01*
X475663D01*
X477329Y-8668D01*
Y-15332D01*
X475663Y-16998D01*
X472331D01*
X470664Y-15332D01*
X462334Y-16998D02*
Y-7002D01*
X467332Y-12000D01*
X460668D01*
X457336Y-7002D02*
X450671D01*
Y-8668D01*
X457336Y-15332D01*
Y-16998D01*
X-83335Y-130668D02*
X-81669Y-129002D01*
X-78337D01*
X-76671Y-130668D01*
Y-137332D01*
X-78337Y-138998D01*
X-81669D01*
X-83335Y-137332D01*
X-91666Y-138998D02*
Y-129002D01*
X-86668Y-134000D01*
X-93332D01*
X-103329Y-129002D02*
X-96664D01*
Y-134000D01*
X-99997Y-132334D01*
X-101663D01*
X-103329Y-134000D01*
Y-137332D01*
X-101663Y-138998D01*
X-98331D01*
X-96664Y-137332D01*
X431665Y-94668D02*
X433331Y-93002D01*
X436663D01*
X438329Y-94668D01*
Y-101332D01*
X436663Y-102998D01*
X433331D01*
X431665Y-101332D01*
X423334Y-102998D02*
Y-93002D01*
X428332Y-98000D01*
X421668D01*
X418335Y-94668D02*
X416669Y-93002D01*
X413337D01*
X411671Y-94668D01*
Y-101332D01*
X413337Y-102998D01*
X416669D01*
X418335Y-101332D01*
Y-94668D01*
X466668Y70666D02*
X465002Y72332D01*
Y75665D01*
X466668Y77331D01*
X473332D01*
X474998Y75665D01*
Y72332D01*
X473332Y70666D01*
X474998Y62335D02*
X465002D01*
X470000Y67334D01*
Y60669D01*
X521668Y-149000D02*
X520002Y-147334D01*
Y-144002D01*
X521668Y-142336D01*
X528332D01*
X529998Y-144002D01*
Y-147334D01*
X528332Y-149000D01*
X529998Y-152332D02*
Y-155665D01*
Y-153998D01*
X520002D01*
X521668Y-152332D01*
D16*
X444000Y357000D02*
X454000D01*
X522000Y-123000D02*
X532000D01*
X423000Y-87000D02*
Y-73000D01*
X274225Y442950D02*
Y456950D01*
Y465950D02*
Y479950D01*
X216950Y-166805D02*
X226950D01*
X340951Y-108805D02*
X354950D01*
X364950D02*
X378951D01*
X366950Y-156805D02*
Y-146805D01*
X237950Y-167805D02*
X251950D01*
X237745Y902436D02*
Y909736D01*
Y998936D02*
X331645D01*
Y969136D02*
Y998936D01*
X237745Y902436D02*
X252495D01*
X237745Y969136D02*
Y998936D01*
X316895Y902436D02*
X331645D01*
Y909736D01*
X379995Y930536D02*
Y940536D01*
X371308Y913223D02*
Y923223D01*
X199000Y-167000D02*
X209000D01*
D17*
X-120314Y724460D02*
X-110158D01*
X-105079Y719382D01*
X-110158Y714303D01*
X-120314D01*
Y709225D02*
X-105079D01*
Y701607D01*
X-107618Y699068D01*
X-110158D01*
X-112697Y701607D01*
Y709225D01*
Y701607D01*
X-115236Y699068D01*
X-117775D01*
X-120314Y701607D01*
Y709225D01*
X-105079Y693990D02*
X-115236D01*
X-120314Y688912D01*
X-115236Y683833D01*
X-105079D01*
X-112697D01*
Y693990D01*
X-120314Y678755D02*
Y668598D01*
Y673676D01*
X-105079D01*
X-102540Y663520D02*
Y653363D01*
X-105079Y648285D02*
X-120314D01*
X-115236Y643206D01*
X-120314Y638128D01*
X-105079D01*
X-120314Y633050D02*
Y627971D01*
Y630510D01*
X-105079D01*
Y633050D01*
Y627971D01*
X-120314Y620354D02*
X-105079D01*
Y612736D01*
X-107618Y610197D01*
X-117775D01*
X-120314Y612736D01*
Y620354D01*
X243460Y696314D02*
Y686158D01*
X238382Y681079D01*
X233303Y686158D01*
Y696314D01*
X228225D02*
Y681079D01*
X220607D01*
X218068Y683618D01*
Y686158D01*
X220607Y688697D01*
X228225D01*
X220607D01*
X218068Y691236D01*
Y693775D01*
X220607Y696314D01*
X228225D01*
X212990Y681079D02*
Y691236D01*
X207911Y696314D01*
X202833Y691236D01*
Y681079D01*
Y688697D01*
X212990D01*
X197755Y696314D02*
X187598D01*
X192676D01*
Y681079D01*
X182520Y678540D02*
X172363D01*
X167285Y681079D02*
Y696314D01*
X162206Y691236D01*
X157128Y696314D01*
Y681079D01*
X152050Y696314D02*
X146971D01*
X149510D01*
Y681079D01*
X152050D01*
X146971D01*
X139354Y696314D02*
Y681079D01*
X131736D01*
X129197Y683618D01*
Y693775D01*
X131736Y696314D01*
X139354D01*
X450460Y707775D02*
Y697618D01*
X445382Y692540D01*
X440303Y697618D01*
Y707775D01*
X435225D02*
Y692540D01*
X427607D01*
X425068Y695079D01*
Y697618D01*
X427607Y700157D01*
X435225D01*
X427607D01*
X425068Y702697D01*
Y705236D01*
X427607Y707775D01*
X435225D01*
X419990Y692540D02*
Y702697D01*
X414911Y707775D01*
X409833Y702697D01*
Y692540D01*
Y700157D01*
X419990D01*
X404755Y707775D02*
X394598D01*
X399676D01*
Y692540D01*
X673686Y731460D02*
X688921D01*
Y723842D01*
X686382Y721303D01*
X683842D01*
X681303Y723842D01*
Y731460D01*
Y723842D01*
X678764Y721303D01*
X676225D01*
X673686Y723842D01*
Y731460D01*
X688921Y716225D02*
X678764D01*
X673686Y711147D01*
X678764Y706068D01*
X688921D01*
X681303D01*
Y716225D01*
X673686Y700990D02*
Y690833D01*
Y695911D01*
X688921D01*
X673686Y685755D02*
Y675598D01*
Y680676D01*
X688921D01*
X691460Y670520D02*
Y660363D01*
X676225Y645128D02*
X673686Y647667D01*
Y652746D01*
X676225Y655285D01*
X686382D01*
X688921Y652746D01*
Y647667D01*
X686382Y645128D01*
X681303D01*
Y650206D01*
X688921Y640050D02*
X673686D01*
X688921Y629893D01*
X673686D01*
Y624814D02*
X688921D01*
Y617197D01*
X686382Y614658D01*
X676225D01*
X673686Y617197D01*
Y624814D01*
X1747Y-444484D02*
X-2485Y-440253D01*
X-10948D01*
X-15180Y-444484D01*
Y-448717D01*
X-10948Y-452948D01*
X-2485D01*
X1747Y-457180D01*
Y-461412D01*
X-2485Y-465644D01*
X-10948D01*
X-15180Y-461412D01*
X27139Y-440253D02*
X10211D01*
Y-465644D01*
X27139D01*
X10211Y-452948D02*
X18675D01*
X52531Y-444484D02*
X48299Y-440253D01*
X39835D01*
X35603Y-444484D01*
Y-461412D01*
X39835Y-465644D01*
X48299D01*
X52531Y-461412D01*
X73691Y-440253D02*
X65227D01*
X60995Y-444484D01*
Y-461412D01*
X65227Y-465644D01*
X73691D01*
X77923Y-461412D01*
Y-444484D01*
X73691Y-440253D01*
X86387Y-465644D02*
Y-440253D01*
X103315Y-465644D01*
Y-440253D01*
X111778D02*
Y-465644D01*
X124474D01*
X128706Y-461412D01*
Y-444484D01*
X124474Y-440253D01*
X111778D01*
X137170Y-465644D02*
Y-448717D01*
X145634Y-440253D01*
X154098Y-448717D01*
Y-465644D01*
Y-452948D01*
X137170D01*
X162562Y-465644D02*
Y-440253D01*
X175258D01*
X179490Y-444484D01*
Y-452948D01*
X175258Y-457180D01*
X162562D01*
X171026D02*
X179490Y-465644D01*
X187954Y-440253D02*
Y-444484D01*
X196418Y-452948D01*
X204882Y-444484D01*
Y-440253D01*
X196418Y-452948D02*
Y-465644D01*
X255665Y-444484D02*
X251433Y-440253D01*
X242969D01*
X238738Y-444484D01*
Y-448717D01*
X242969Y-452948D01*
X251433D01*
X255665Y-457180D01*
Y-461412D01*
X251433Y-465644D01*
X242969D01*
X238738Y-461412D01*
X264129Y-440253D02*
X272593D01*
X268361D01*
Y-465644D01*
X264129D01*
X272593D01*
X285289Y-440253D02*
Y-465644D01*
X297985D01*
X302217Y-461412D01*
Y-444484D01*
X297985Y-440253D01*
X285289D01*
X327609D02*
X310681D01*
Y-465644D01*
X327609D01*
X310681Y-452948D02*
X319145D01*
X378392Y-444484D02*
X374160Y-440253D01*
X365696D01*
X361465Y-444484D01*
Y-448717D01*
X365696Y-452948D01*
X374160D01*
X378392Y-457180D01*
Y-461412D01*
X374160Y-465644D01*
X365696D01*
X361465Y-461412D01*
X386856Y-440253D02*
X395320D01*
X391088D01*
Y-465644D01*
X386856D01*
X395320D01*
X408016Y-440253D02*
Y-465644D01*
X424944D01*
X433408Y-440253D02*
Y-465644D01*
Y-457180D01*
X450336Y-440253D01*
X437640Y-452948D01*
X450336Y-465644D01*
X501119Y-444484D02*
X496887Y-440253D01*
X488424D01*
X484192Y-444484D01*
Y-448717D01*
X488424Y-452948D01*
X496887D01*
X501119Y-457180D01*
Y-461412D01*
X496887Y-465644D01*
X488424D01*
X484192Y-461412D01*
X526511Y-444484D02*
X522279Y-440253D01*
X513815D01*
X509583Y-444484D01*
Y-461412D01*
X513815Y-465644D01*
X522279D01*
X526511Y-461412D01*
X534975Y-465644D02*
Y-440253D01*
X547671D01*
X551903Y-444484D01*
Y-452948D01*
X547671Y-457180D01*
X534975D01*
X543439D02*
X551903Y-465644D01*
X577295Y-440253D02*
X560367D01*
Y-465644D01*
X577295D01*
X560367Y-452948D02*
X568831D01*
X602687Y-440253D02*
X585759D01*
Y-465644D01*
X602687D01*
X585759Y-452948D02*
X594223D01*
X611151Y-465644D02*
Y-440253D01*
X628078Y-465644D01*
Y-440253D01*
X-145Y-288975D02*
X-8608D01*
X-12840Y-293207D01*
Y-310134D01*
X-8608Y-314366D01*
X-145D01*
X4087Y-310134D01*
Y-293207D01*
X-145Y-288975D01*
X12551D02*
Y-314366D01*
X25247D01*
X29479Y-310134D01*
Y-293207D01*
X25247Y-288975D01*
X12551D01*
X37943D02*
X46407D01*
X42175D01*
Y-314366D01*
X37943D01*
X46407D01*
X76031Y-293207D02*
X71799Y-288975D01*
X63335D01*
X59103Y-293207D01*
Y-310134D01*
X63335Y-314366D01*
X71799D01*
X76031Y-310134D01*
X88727Y-318598D02*
X92959Y-314366D01*
Y-310134D01*
X88727D01*
Y-314366D01*
X92959D01*
X88727Y-318598D01*
X84495Y-322830D01*
X135278Y-288975D02*
X143742D01*
X139510D01*
Y-314366D01*
X135278D01*
X143742D01*
X156438D02*
Y-288975D01*
X173366Y-314366D01*
Y-288975D01*
X198758Y-293207D02*
X194526Y-288975D01*
X186062D01*
X181830Y-293207D01*
Y-310134D01*
X186062Y-314366D01*
X194526D01*
X198758Y-310134D01*
X207222Y-314366D02*
Y-310134D01*
X211454D01*
Y-314366D01*
X207222D01*
X1341Y-340332D02*
X-2891Y-336100D01*
X-11355D01*
X-15587Y-340332D01*
Y-357260D01*
X-11355Y-361492D01*
X-2891D01*
X1341Y-357260D01*
Y-348796D01*
X-7123D01*
X9805Y-336100D02*
Y-361492D01*
Y-348796D01*
X26733D01*
Y-336100D01*
Y-361492D01*
X35197Y-336100D02*
Y-361492D01*
X52125D01*
X85980D02*
Y-336100D01*
X102908Y-361492D01*
Y-336100D01*
X111372Y-361492D02*
Y-344564D01*
X119836Y-336100D01*
X128300Y-344564D01*
Y-361492D01*
Y-348796D01*
X111372D01*
X136764Y-361492D02*
Y-344564D01*
X145228Y-336100D01*
X153692Y-344564D01*
Y-361492D01*
Y-348796D01*
X136764D01*
X162156Y-336100D02*
X179083D01*
X170620D01*
Y-361492D01*
X200243Y-336100D02*
X191779D01*
X187547Y-340332D01*
Y-357260D01*
X191779Y-361492D01*
X200243D01*
X204475Y-357260D01*
Y-340332D01*
X200243Y-336100D01*
X229867Y-340332D02*
X225635Y-336100D01*
X217171D01*
X212939Y-340332D01*
Y-344564D01*
X217171Y-348796D01*
X225635D01*
X229867Y-353028D01*
Y-357260D01*
X225635Y-361492D01*
X217171D01*
X212939Y-357260D01*
X280651Y-340332D02*
X276419Y-336100D01*
X267955D01*
X263723Y-340332D01*
Y-344564D01*
X267955Y-348796D01*
X276419D01*
X280651Y-353028D01*
Y-357260D01*
X276419Y-361492D01*
X267955D01*
X263723Y-357260D01*
X293347Y-344564D02*
X301810D01*
X306042Y-348796D01*
Y-361492D01*
X293347D01*
X289115Y-357260D01*
X293347Y-353028D01*
X306042D01*
X314506Y-361492D02*
Y-344564D01*
X318738D01*
X322970Y-348796D01*
Y-361492D01*
Y-348796D01*
X327202Y-344564D01*
X331434Y-348796D01*
Y-361492D01*
X339898Y-369956D02*
Y-344564D01*
X352594D01*
X356826Y-348796D01*
Y-357260D01*
X352594Y-361492D01*
X339898D01*
X365290D02*
X373754D01*
X369522D01*
Y-336100D01*
X365290D01*
X399146Y-361492D02*
X390682D01*
X386450Y-357260D01*
Y-348796D01*
X390682Y-344564D01*
X399146D01*
X403378Y-348796D01*
Y-353028D01*
X386450D01*
X437233Y-361492D02*
Y-336100D01*
X449929D01*
X454161Y-340332D01*
Y-348796D01*
X449929Y-353028D01*
X437233D01*
X462625Y-344564D02*
Y-361492D01*
Y-353028D01*
X466857Y-348796D01*
X471089Y-344564D01*
X475321D01*
X500713Y-361492D02*
X492249D01*
X488017Y-357260D01*
Y-348796D01*
X492249Y-344564D01*
X500713D01*
X504945Y-348796D01*
Y-353028D01*
X488017D01*
X513409Y-369956D02*
Y-344564D01*
X526105D01*
X530337Y-348796D01*
Y-357260D01*
X526105Y-361492D01*
X513409D01*
X564192D02*
Y-336100D01*
X572656Y-344564D01*
X581120Y-336100D01*
Y-361492D01*
X593816Y-344564D02*
X602280D01*
X606512Y-348796D01*
Y-361492D01*
X593816D01*
X589584Y-357260D01*
X593816Y-353028D01*
X606512D01*
X614976Y-361492D02*
X623440D01*
X619208D01*
Y-344564D01*
X614976D01*
X636136Y-361492D02*
Y-344564D01*
X648832D01*
X653064Y-348796D01*
Y-361492D01*
X686919Y-336100D02*
Y-361492D01*
X699615D01*
X703847Y-357260D01*
Y-353028D01*
X699615Y-348796D01*
X686919D01*
X699615D01*
X703847Y-344564D01*
Y-340332D01*
X699615Y-336100D01*
X686919D01*
X716543Y-361492D02*
X725007D01*
X729239Y-357260D01*
Y-348796D01*
X725007Y-344564D01*
X716543D01*
X712311Y-348796D01*
Y-357260D01*
X716543Y-361492D01*
X741935Y-344564D02*
X750399D01*
X754631Y-348796D01*
Y-361492D01*
X741935D01*
X737703Y-357260D01*
X741935Y-353028D01*
X754631D01*
X763095Y-344564D02*
Y-361492D01*
Y-353028D01*
X767327Y-348796D01*
X771559Y-344564D01*
X775791D01*
X805414Y-336100D02*
Y-361492D01*
X792719D01*
X788486Y-357260D01*
Y-348796D01*
X792719Y-344564D01*
X805414D01*
X1727Y-413574D02*
X-15201D01*
X1727Y-396646D01*
Y-392415D01*
X-2505Y-388183D01*
X-10969D01*
X-15201Y-392415D01*
X27119Y-388183D02*
X18655Y-392415D01*
X10191Y-400878D01*
Y-409342D01*
X14423Y-413574D01*
X22887D01*
X27119Y-409342D01*
Y-405110D01*
X22887Y-400878D01*
X10191D01*
X35583Y-392415D02*
X39815Y-388183D01*
X48279D01*
X52511Y-392415D01*
Y-396646D01*
X48279Y-400878D01*
X44047D01*
X48279D01*
X52511Y-405110D01*
Y-409342D01*
X48279Y-413574D01*
X39815D01*
X35583Y-409342D01*
X60975Y-400878D02*
X77903D01*
X86367Y-392415D02*
X90599Y-388183D01*
X99063D01*
X103295Y-392415D01*
Y-409342D01*
X99063Y-413574D01*
X90599D01*
X86367Y-409342D01*
Y-392415D01*
X111758D02*
X115990Y-388183D01*
X124454D01*
X128686Y-392415D01*
Y-396646D01*
X124454Y-400878D01*
X120222D01*
X124454D01*
X128686Y-405110D01*
Y-409342D01*
X124454Y-413574D01*
X115990D01*
X111758Y-409342D01*
X137150Y-400878D02*
X154078D01*
X162542Y-392415D02*
X166774Y-388183D01*
X175238D01*
X179470Y-392415D01*
Y-409342D01*
X175238Y-413574D01*
X166774D01*
X162542Y-409342D01*
Y-392415D01*
X187934D02*
X192166Y-388183D01*
X200630D01*
X204862Y-392415D01*
Y-409342D01*
X200630Y-413574D01*
X192166D01*
X187934Y-409342D01*
Y-392415D01*
X213326Y-413574D02*
X221790D01*
X217558D01*
Y-388183D01*
X213326Y-392415D01*
X285269Y-413574D02*
Y-388183D01*
X297965D01*
X302197Y-392415D01*
Y-400878D01*
X297965Y-405110D01*
X285269D01*
X293733D02*
X302197Y-413574D01*
X327589Y-388183D02*
X310661D01*
Y-413574D01*
X327589D01*
X310661Y-400878D02*
X319125D01*
X336053Y-388183D02*
Y-405110D01*
X344517Y-413574D01*
X352980Y-405110D01*
Y-388183D01*
X386836D02*
Y-413574D01*
X399532D01*
X403764Y-409342D01*
Y-405110D01*
X399532Y-400878D01*
X386836D01*
X399532D01*
X403764Y-396646D01*
Y-392415D01*
X399532Y-388183D01*
X386836D01*
M02*
