G04*
G04 #@! TF.GenerationSoftware,Altium Limited,Altium Designer,24.9.1 (31)*
G04*
G04 Layer_Physical_Order=3*
G04 Layer_Color=16440176*
%FSLAX44Y44*%
%MOMM*%
G71*
G04*
G04 #@! TF.SameCoordinates,7F96DF23-6EF7-4123-9D03-ABB94F86F5D4*
G04*
G04*
G04 #@! TF.FilePolarity,Positive*
G04*
G01*
G75*
%ADD17C,0.2540*%
%ADD137C,3.1750*%
%ADD146C,0.5000*%
%ADD147C,2.0000*%
%ADD152C,2.3749*%
%ADD153C,0.9906*%
%ADD154C,5.0000*%
%ADD155C,1.2700*%
%ADD156C,0.7500*%
%ADD157O,0.9500X0.7500*%
%ADD158C,0.6500*%
%ADD159O,1.1000X2.2000*%
%ADD160C,5.0800*%
%ADD161C,3.0480*%
%ADD162C,0.5588*%
%ADD163C,1.5240*%
G36*
X231848Y966900D02*
X232350Y965630D01*
X231271Y964223D01*
X230414Y962155D01*
X230122Y959936D01*
Y948936D01*
X230414Y946717D01*
X231271Y944649D01*
X232633Y942874D01*
X234409Y941511D01*
X236476Y940655D01*
X238695Y940363D01*
X240914Y940655D01*
X242982Y941511D01*
X244758Y942874D01*
X246120Y944649D01*
X246977Y946717D01*
X247269Y948936D01*
Y959936D01*
X246977Y962155D01*
X246120Y964223D01*
X245040Y965630D01*
X245543Y966900D01*
X306495Y966900D01*
Y929790D01*
X305155Y929234D01*
X304695Y928775D01*
X304236Y929234D01*
X301938Y930186D01*
X299452D01*
X297155Y929234D01*
X296695Y928775D01*
X296236Y929234D01*
X293939Y930186D01*
X291452D01*
X289155Y929234D01*
X287397Y927476D01*
X286445Y925179D01*
Y922769D01*
X285155Y922234D01*
X284695Y921775D01*
X284236Y922234D01*
X282945Y922769D01*
Y925179D01*
X281994Y927476D01*
X280236Y929234D01*
X277938Y930186D01*
X275452D01*
X273155Y929234D01*
X272695Y928775D01*
X272236Y929234D01*
X269939Y930186D01*
X267452D01*
X265155Y929234D01*
X264695Y928775D01*
X264236Y929234D01*
X261938Y930186D01*
X259452D01*
X257155Y929234D01*
X256820Y929301D01*
X256522Y930022D01*
X255021Y931522D01*
X253061Y932334D01*
X250939D01*
X248979Y931522D01*
X248415Y930958D01*
X247074Y931414D01*
X246977Y932155D01*
X246120Y934223D01*
X244758Y935998D01*
X242982Y937361D01*
X240914Y938217D01*
X238695Y938509D01*
X236476Y938217D01*
X234409Y937361D01*
X232633Y935998D01*
X231271Y934223D01*
X230414Y932155D01*
X230122Y929936D01*
Y918936D01*
X230414Y916717D01*
X231271Y914649D01*
X232633Y912874D01*
X234409Y911511D01*
X236476Y910655D01*
X238695Y910363D01*
X239865Y910517D01*
X241135Y909441D01*
X241651Y907518D01*
X242646Y905794D01*
X244053Y904387D01*
X245777Y903391D01*
X247700Y902876D01*
X249691D01*
X251613Y903391D01*
X253337Y904387D01*
X254745Y905794D01*
X255740Y907518D01*
X256255Y909441D01*
Y910686D01*
X257938D01*
X260236Y911637D01*
X261994Y913396D01*
X262945Y915693D01*
Y916886D01*
X262946Y916887D01*
Y916936D01*
X263045D01*
X263175Y917001D01*
X263281Y916936D01*
X274445D01*
Y915693D01*
X275396Y913395D01*
X277155Y911637D01*
X278505Y911078D01*
X278505Y911078D01*
X279452Y910686D01*
X281939D01*
X284236Y911637D01*
X284695Y912097D01*
X285155Y911637D01*
X287452Y910686D01*
X289939D01*
X290886Y911078D01*
X291630Y910334D01*
X293511Y909248D01*
X295609Y908686D01*
X297782D01*
X299880Y909248D01*
X301761Y910334D01*
X303297Y911870D01*
X304383Y913752D01*
X304945Y915850D01*
Y916217D01*
X306215Y917001D01*
X306445Y916886D01*
Y915693D01*
X306495Y915572D01*
Y873495D01*
X298040Y865040D01*
X296795Y865288D01*
X296517Y865957D01*
X295017Y867458D01*
X293056Y868270D01*
X290934D01*
X288974Y867458D01*
X287473Y865957D01*
X286661Y863997D01*
Y861875D01*
X287473Y859914D01*
X288974Y858414D01*
X289643Y858137D01*
X289891Y856891D01*
X248000Y815000D01*
Y775000D01*
X217329Y744329D01*
X216065Y744454D01*
X214245Y747178D01*
X210928Y750494D01*
X207029Y753100D01*
X202696Y754895D01*
X198095Y755810D01*
X193405D01*
X188805Y754895D01*
X184472Y753100D01*
X180572Y750494D01*
X177256Y747178D01*
X174650Y743278D01*
X172855Y738945D01*
X171940Y734345D01*
Y729655D01*
X172855Y725055D01*
X174650Y720722D01*
X177256Y716822D01*
X180572Y713506D01*
X183297Y711685D01*
X183421Y710421D01*
X160000Y687000D01*
X160000Y526000D01*
X179000Y507000D01*
X222000D01*
X248000Y481000D01*
Y438802D01*
X247204Y438472D01*
X245999Y437267D01*
X245225Y437085D01*
X244451Y437267D01*
X243246Y438472D01*
X241286Y439284D01*
X239164D01*
X237204Y438472D01*
X235703Y436972D01*
X234891Y435011D01*
Y432889D01*
X235703Y430929D01*
X237204Y429428D01*
X237251Y429190D01*
X236032Y427971D01*
X235220Y426011D01*
Y423889D01*
X236032Y421929D01*
X237140Y420821D01*
X237194Y419678D01*
X237017Y419285D01*
X235703Y417971D01*
X234891Y416011D01*
Y413889D01*
X235703Y411929D01*
X236182Y411450D01*
X235703Y410971D01*
X234891Y409011D01*
Y406889D01*
X235703Y404929D01*
X236182Y404450D01*
X235703Y403971D01*
X234891Y402011D01*
Y399889D01*
X235703Y397929D01*
X236182Y397450D01*
X235703Y396972D01*
X234891Y395011D01*
Y395000D01*
X228995D01*
Y396936D01*
X228183Y398897D01*
X226682Y400397D01*
X224722Y401209D01*
X222600D01*
X220639Y400397D01*
X219139Y398897D01*
X218327Y396936D01*
Y395000D01*
X182772D01*
X182519Y396270D01*
X183022Y396478D01*
X184522Y397979D01*
X185334Y399939D01*
Y402061D01*
X184522Y404021D01*
X183043Y405500D01*
X184522Y406978D01*
X185334Y408939D01*
Y411061D01*
X184522Y413021D01*
X183022Y414522D01*
X181061Y415334D01*
X178939D01*
X176978Y414522D01*
X175500Y413043D01*
X174021Y414522D01*
X172061Y415334D01*
X169939D01*
X167979Y414522D01*
X166478Y413021D01*
X165666Y411061D01*
Y408939D01*
X166478Y406978D01*
X167957Y405500D01*
X166478Y404021D01*
X165666Y402061D01*
Y399939D01*
X166478Y397979D01*
X167979Y396478D01*
X168481Y396270D01*
X168228Y395000D01*
X149385D01*
X148537Y396270D01*
X148840Y397003D01*
Y399125D01*
X148028Y401086D01*
X146528Y402586D01*
X144586Y403390D01*
X144840Y404003D01*
Y406125D01*
X144028Y408086D01*
X142550Y409564D01*
X143028Y410043D01*
X143840Y412003D01*
Y414125D01*
X143028Y416086D01*
X141528Y417586D01*
X139567Y418398D01*
X137445D01*
X135485Y417586D01*
X133984Y416086D01*
X133172Y414125D01*
X131902Y413641D01*
X131021Y414522D01*
X129061Y415334D01*
X126939D01*
X124979Y414522D01*
X123478Y413021D01*
X122666Y411061D01*
Y408939D01*
X123478Y406978D01*
X124979Y405478D01*
X126939Y404666D01*
X129061D01*
X131021Y405478D01*
X132522Y406978D01*
X133334Y408939D01*
X134604Y409423D01*
X135463Y408564D01*
X134984Y408086D01*
X134172Y406125D01*
Y404003D01*
X134984Y402043D01*
X136485Y400542D01*
X138426Y399738D01*
X138172Y399125D01*
Y397003D01*
X138476Y396270D01*
X137627Y395000D01*
X52000D01*
Y966900D01*
X231848D01*
D02*
G37*
G36*
X323848Y966900D02*
X324350Y965630D01*
X323271Y964223D01*
X322414Y962155D01*
X322122Y959936D01*
Y948936D01*
X322414Y946717D01*
X323271Y944649D01*
X324633Y942874D01*
X326409Y941511D01*
X328476Y940655D01*
X330695Y940363D01*
X332914Y940655D01*
X334982Y941511D01*
X336758Y942874D01*
X338120Y944649D01*
X338977Y946717D01*
X339269Y948936D01*
Y959936D01*
X338977Y962155D01*
X338120Y964223D01*
X337040Y965630D01*
X337543Y966900D01*
X470000D01*
Y790000D01*
X360075D01*
X360017Y790058D01*
X358056Y790870D01*
X355934D01*
X353974Y790058D01*
X353916Y790000D01*
X346000D01*
X326000Y770000D01*
Y592844D01*
X325768Y592524D01*
X323680Y588428D01*
X322260Y584055D01*
X321540Y579514D01*
Y574916D01*
X322260Y570375D01*
X323680Y566002D01*
X325768Y561906D01*
X326000Y561586D01*
Y531930D01*
X325400Y531516D01*
X323979Y531918D01*
X323522Y533022D01*
X322021Y534522D01*
X320061Y535334D01*
X317939D01*
X315979Y534522D01*
X314478Y533022D01*
X313666Y531061D01*
Y528939D01*
X314478Y526978D01*
X315979Y525478D01*
X317939Y524666D01*
X320061D01*
X322021Y525478D01*
X323421Y526878D01*
X323855Y526899D01*
X324773Y526680D01*
X325478Y524979D01*
X326000Y524457D01*
Y495000D01*
X295772Y464772D01*
X295021Y465522D01*
X293061Y466334D01*
X290939D01*
X288979Y465522D01*
X287478Y464021D01*
X286666Y462061D01*
Y459939D01*
X287478Y457979D01*
X288228Y457228D01*
X276000Y445000D01*
X251059D01*
Y481000D01*
X251000Y481296D01*
Y483000D01*
X224000Y510000D01*
X222295D01*
X222000Y510059D01*
X222000Y510059D01*
X180941D01*
X163059Y527941D01*
X163059Y685059D01*
X187603Y709603D01*
X188805Y709105D01*
X193405Y708190D01*
X198095D01*
X202696Y709105D01*
X207029Y710900D01*
X210928Y713506D01*
X214245Y716822D01*
X216850Y720722D01*
X218645Y725055D01*
X219560Y729655D01*
Y734345D01*
X218645Y738945D01*
X218147Y740147D01*
X251000Y773000D01*
Y774704D01*
X251059Y775000D01*
X251059Y775000D01*
Y813059D01*
X267533Y829533D01*
X268949Y829153D01*
X269287Y827891D01*
X270518Y825759D01*
X272259Y824018D01*
X274391Y822787D01*
X276769Y822150D01*
X279231D01*
X281609Y822787D01*
X283741Y824018D01*
X284661Y824938D01*
X285500Y825742D01*
X286339Y824938D01*
X287259Y824018D01*
X289391Y822787D01*
X291769Y822150D01*
X294231D01*
X296609Y822787D01*
X298741Y824018D01*
X300482Y825759D01*
X301713Y827891D01*
X302350Y830269D01*
Y832731D01*
X301713Y835109D01*
X300482Y837241D01*
X298741Y838982D01*
X296609Y840213D01*
X294231Y840850D01*
X291769D01*
X289391Y840213D01*
X287259Y838982D01*
X286339Y838062D01*
X285500Y837258D01*
X284661Y838062D01*
X283741Y838982D01*
X281609Y840213D01*
X280347Y840551D01*
X279967Y841967D01*
X310000Y872000D01*
Y889592D01*
X311270Y890118D01*
X311974Y889414D01*
X313934Y888602D01*
X316056D01*
X318017Y889414D01*
X319517Y890915D01*
X320329Y892875D01*
Y894997D01*
X319517Y896957D01*
X318017Y898458D01*
X316056Y899270D01*
X313934D01*
X311974Y898458D01*
X311270Y897754D01*
X310000Y898280D01*
Y910068D01*
X311021Y910745D01*
X312090Y910286D01*
X312330Y908462D01*
X313092Y906623D01*
X314303Y905044D01*
X315883Y903832D01*
X317722Y903071D01*
X319695Y902811D01*
X321695D01*
X323669Y903071D01*
X325508Y903832D01*
X327087Y905044D01*
X328299Y906623D01*
X329061Y908462D01*
X329169Y909283D01*
X330550Y910382D01*
X330695Y910363D01*
X332914Y910655D01*
X334982Y911511D01*
X336758Y912874D01*
X338120Y914649D01*
X338977Y916717D01*
X339269Y918936D01*
Y929936D01*
X338977Y932155D01*
X338120Y934223D01*
X336758Y935998D01*
X334982Y937361D01*
X332914Y938217D01*
X330695Y938509D01*
X328476Y938217D01*
X326409Y937361D01*
X324633Y935998D01*
X323271Y934223D01*
X322414Y932155D01*
X322271Y931068D01*
X320930Y930613D01*
X320022Y931522D01*
X318061Y932334D01*
X315939D01*
X313979Y931522D01*
X312478Y930022D01*
X312164Y929264D01*
X310000Y930161D01*
Y966900D01*
X323848D01*
D02*
G37*
G36*
X513000Y341000D02*
X438334D01*
Y343061D01*
X437522Y345022D01*
X436021Y346522D01*
X434061Y347334D01*
X431939D01*
X429978Y346522D01*
X428500Y345043D01*
X427021Y346522D01*
X425061Y347334D01*
X422939D01*
X420979Y346522D01*
X419478Y345022D01*
X418666Y343061D01*
Y341000D01*
X397000D01*
X396726Y341564D01*
X396522Y342021D01*
X396522Y342021D01*
X395022Y343522D01*
X393061Y344334D01*
X390939D01*
X388979Y343522D01*
X387478Y342021D01*
X386666Y340061D01*
Y337939D01*
X387478Y335979D01*
X388979Y334478D01*
X390939Y333666D01*
X393061D01*
X395022Y334478D01*
X395671Y335128D01*
X396220Y335053D01*
X397000Y334660D01*
Y324000D01*
X378000D01*
Y320941D01*
Y255059D01*
Y252000D01*
X458000D01*
Y199000D01*
X443531D01*
X443522Y199021D01*
X442543Y200000D01*
X443522Y200979D01*
X444334Y202939D01*
Y205061D01*
X443522Y207022D01*
X442021Y208522D01*
X440061Y209334D01*
X437939D01*
X435979Y208522D01*
X434500Y207043D01*
X433022Y208522D01*
X431061Y209334D01*
X428939D01*
X426978Y208522D01*
X425478Y207022D01*
X424666Y205061D01*
Y202939D01*
X425478Y200979D01*
X426457Y200000D01*
X425478Y199021D01*
X425469Y199000D01*
X313260D01*
X313164Y199163D01*
X313022Y200478D01*
X314522Y201978D01*
X315334Y203939D01*
Y206061D01*
X314522Y208022D01*
X313021Y209522D01*
X311061Y210334D01*
X308939D01*
X306978Y209522D01*
X305478Y208022D01*
X304666Y206061D01*
Y203939D01*
X305478Y201978D01*
X306978Y200478D01*
X306836Y199163D01*
X306740Y199000D01*
X236000D01*
Y159296D01*
X235941Y159000D01*
Y57334D01*
X236000Y57038D01*
Y55543D01*
X235478Y55022D01*
X234666Y53061D01*
Y50939D01*
X235478Y48979D01*
X236000Y48457D01*
Y46961D01*
X235941Y46666D01*
Y22334D01*
X236000Y22039D01*
Y21531D01*
X235979Y21522D01*
X235000Y20543D01*
X234021Y21522D01*
X232061Y22334D01*
X229939D01*
X227978Y21522D01*
X226500Y20043D01*
X225021Y21522D01*
X223061Y22334D01*
X220939D01*
X218979Y21522D01*
X218000Y20543D01*
X217022Y21522D01*
X215061Y22334D01*
X212939D01*
X210979Y21522D01*
X210000Y20543D01*
X209021Y21522D01*
X207061Y22334D01*
X204939D01*
X202978Y21522D01*
X201478Y20021D01*
X200666Y18061D01*
Y15939D01*
X201478Y13979D01*
X202457Y13000D01*
X201478Y12021D01*
X200666Y10061D01*
Y7939D01*
X201478Y5979D01*
X202957Y4500D01*
X201478Y3022D01*
X200666Y1061D01*
Y-1061D01*
X201478Y-3022D01*
X202978Y-4522D01*
X204939Y-5334D01*
X207061D01*
X209021Y-4522D01*
X210000Y-3543D01*
X210979Y-4522D01*
X212939Y-5334D01*
X215061D01*
X217022Y-4522D01*
X218000Y-3543D01*
X218979Y-4522D01*
X220939Y-5334D01*
X223061D01*
X225021Y-4522D01*
X226500Y-3043D01*
X227978Y-4522D01*
X229939Y-5334D01*
X232061D01*
X234021Y-4522D01*
X235000Y-3543D01*
X235979Y-4522D01*
X236000Y-4531D01*
Y-5038D01*
X235941Y-5334D01*
Y-181602D01*
X234671Y-182128D01*
X234021Y-181478D01*
X232061Y-180666D01*
X229939D01*
X227978Y-181478D01*
X226478Y-182979D01*
X225666Y-184939D01*
Y-187061D01*
X226478Y-189021D01*
X227978Y-190522D01*
X229939Y-191334D01*
X232061D01*
X234021Y-190522D01*
X234730Y-189813D01*
X236000Y-190339D01*
Y-193044D01*
X235941Y-193340D01*
Y-200378D01*
X-76835D01*
X-80003Y-200378D01*
X-86285Y-199551D01*
X-92405Y-197911D01*
X-98258Y-195486D01*
X-103745Y-192318D01*
X-108772Y-188461D01*
X-113252Y-183981D01*
X-117109Y-178954D01*
X-120277Y-173467D01*
X-122702Y-167613D01*
X-124342Y-161494D01*
X-125169Y-155212D01*
X-125169Y-152044D01*
Y-106324D01*
X-125169Y-103156D01*
X-124342Y-96874D01*
X-122702Y-90754D01*
X-120277Y-84901D01*
X-117109Y-79414D01*
X-113252Y-74387D01*
X-108772Y-69907D01*
X-103745Y-66050D01*
X-98258Y-62882D01*
X-92404Y-60457D01*
X-86284Y-58817D01*
X-80002Y-57990D01*
X-76835Y-57990D01*
X-29210D01*
X-28718Y-57925D01*
X-28221Y-57941D01*
X-27230Y-57844D01*
X-27068Y-57806D01*
X-26902D01*
X-25789Y-57508D01*
X-24666Y-57246D01*
X-24519Y-57168D01*
X-24359Y-57125D01*
X-22528Y-56366D01*
X-21955Y-56036D01*
X-21345Y-55783D01*
X-20820Y-55380D01*
X-20248Y-55050D01*
X-19780Y-54582D01*
X-19256Y-54180D01*
X-17854Y-52778D01*
X-17452Y-52254D01*
X-16985Y-51787D01*
X-16654Y-51214D01*
X-16251Y-50689D01*
X-15999Y-50079D01*
X-15668Y-49506D01*
X-14909Y-47675D01*
X-14867Y-47515D01*
X-14788Y-47369D01*
X-14526Y-46246D01*
X-14228Y-45132D01*
Y-44966D01*
X-14190Y-44805D01*
X-14093Y-43814D01*
X-14109Y-43317D01*
X-14044Y-42824D01*
Y-14556D01*
X-12871Y-14070D01*
X-12144Y-14797D01*
X-9024Y-16882D01*
X-5557Y-18318D01*
X-1876Y-19050D01*
X1876D01*
X5557Y-18318D01*
X9024Y-16882D01*
X12144Y-14797D01*
X14797Y-12144D01*
X16882Y-9024D01*
X18318Y-5557D01*
X19050Y-1876D01*
Y1876D01*
X18318Y5557D01*
X16882Y9024D01*
X14797Y12144D01*
X12144Y14797D01*
X9024Y16882D01*
X5557Y18318D01*
X1876Y19050D01*
X-1876D01*
X-5557Y18318D01*
X-9024Y16882D01*
X-12144Y14797D01*
X-12871Y14070D01*
X-14044Y14556D01*
X-14044Y170536D01*
X-14109Y171029D01*
X-14093Y171525D01*
X-14190Y172516D01*
X-14228Y172678D01*
Y172844D01*
X-14526Y173958D01*
X-14788Y175080D01*
X-14866Y175227D01*
X-14909Y175387D01*
X-15668Y177218D01*
X-15999Y177791D01*
X-16251Y178401D01*
X-16654Y178926D01*
X-16985Y179499D01*
X-17452Y179966D01*
X-17854Y180490D01*
X-19256Y181892D01*
X-19780Y182294D01*
X-20248Y182762D01*
X-20820Y183092D01*
X-21345Y183495D01*
X-21956Y183748D01*
X-22528Y184078D01*
X-24359Y184837D01*
X-24519Y184880D01*
X-24666Y184958D01*
X-25789Y185220D01*
X-26903Y185518D01*
X-27068D01*
X-27230Y185556D01*
X-28221Y185653D01*
X-28717Y185637D01*
X-29210Y185702D01*
X-69215D01*
X-71964Y185702D01*
X-77435Y186241D01*
X-82827Y187313D01*
X-88088Y188909D01*
X-93167Y191013D01*
X-98016Y193605D01*
X-102587Y196659D01*
X-106837Y200147D01*
X-110724Y204034D01*
X-114212Y208284D01*
X-117266Y212855D01*
X-119858Y217704D01*
X-121962Y222783D01*
X-123558Y228044D01*
X-124630Y233436D01*
X-125169Y238907D01*
X-125169Y241656D01*
Y392000D01*
X51705D01*
X52000Y391941D01*
X137627D01*
X137923Y392000D01*
X139973D01*
X140459Y390827D01*
X140428Y390796D01*
X139616Y388835D01*
Y386713D01*
X140428Y384753D01*
X141929Y383253D01*
X143889Y382440D01*
X146011D01*
X147971Y383253D01*
X149472Y384753D01*
X150284Y386713D01*
Y388835D01*
X149524Y390671D01*
X149742Y391272D01*
X150123Y391941D01*
X168228D01*
X168524Y392000D01*
X182476D01*
X182772Y391941D01*
X218327D01*
X218622Y392000D01*
X219993D01*
X220639Y391353D01*
X222600Y390541D01*
X224722D01*
X226682Y391353D01*
X227329Y392000D01*
X228699D01*
X228995Y391941D01*
X234891D01*
X235187Y392000D01*
X235259D01*
X235703Y390929D01*
X237204Y389428D01*
X239164Y388616D01*
X241286D01*
X243246Y389428D01*
X243600Y389782D01*
X243953Y389428D01*
X245914Y388616D01*
X248036D01*
X249996Y389428D01*
X250225Y389657D01*
X250454Y389428D01*
X252414Y388616D01*
X254536D01*
X256497Y389428D01*
X256850Y389782D01*
X257204Y389428D01*
X259164Y388616D01*
X261286D01*
X263246Y389428D01*
X264747Y390929D01*
X265559Y392889D01*
Y395011D01*
X264747Y396972D01*
X264268Y397450D01*
X264747Y397929D01*
X265559Y399889D01*
Y402011D01*
X264747Y403971D01*
X264268Y404450D01*
X264747Y404929D01*
X265559Y406889D01*
Y409011D01*
X264747Y410971D01*
X264268Y411450D01*
X264747Y411929D01*
X265559Y413889D01*
Y416011D01*
X264747Y417971D01*
X263542Y419176D01*
X263359Y419950D01*
X263542Y420724D01*
X264747Y421929D01*
X265559Y423889D01*
Y426011D01*
X264813Y427813D01*
X271718Y434718D01*
X273124Y434328D01*
X273703Y432929D01*
X275203Y431428D01*
X277164Y430616D01*
X278413D01*
X278640Y430178D01*
X278803Y429346D01*
X277478Y428021D01*
X276666Y426061D01*
Y423939D01*
X277240Y422554D01*
X276513Y421284D01*
X276164D01*
X274203Y420472D01*
X272703Y418971D01*
X271891Y417011D01*
Y414889D01*
X272703Y412929D01*
X273682Y411950D01*
X272703Y410971D01*
X271891Y409011D01*
Y406889D01*
X272703Y404929D01*
X274203Y403428D01*
X276164Y402616D01*
X278286D01*
X280247Y403428D01*
X281747Y404929D01*
X282559Y406889D01*
Y409011D01*
X281747Y410971D01*
X280768Y411950D01*
X281747Y412929D01*
X282559Y414889D01*
Y417011D01*
X281985Y418396D01*
X282712Y419666D01*
X283061D01*
X285021Y420478D01*
X286522Y421978D01*
X287334Y423939D01*
Y426061D01*
X286522Y428021D01*
X285021Y429522D01*
X283061Y430334D01*
X281812D01*
X281585Y430772D01*
X281422Y431604D01*
X282747Y432929D01*
X283559Y434889D01*
Y437011D01*
X282747Y438971D01*
X281246Y440472D01*
X279848Y441051D01*
X279457Y442457D01*
X292666Y455666D01*
X293061D01*
X295021Y456478D01*
X296522Y457979D01*
X297334Y459939D01*
Y460334D01*
X329000Y492000D01*
Y494704D01*
X329059Y495000D01*
X329059Y495000D01*
Y522666D01*
X331061D01*
X333021Y523478D01*
X334522Y524979D01*
X335334Y526939D01*
Y529061D01*
X334522Y531021D01*
X333021Y532522D01*
X331061Y533334D01*
X329059D01*
Y555938D01*
X330232Y556424D01*
X331721Y554935D01*
X335441Y552232D01*
X339538Y550145D01*
X343910Y548724D01*
X348451Y548005D01*
X353049D01*
X357590Y548724D01*
X361963Y550145D01*
X366060Y552232D01*
X369779Y554935D01*
X373031Y558186D01*
X375733Y561906D01*
X377820Y566002D01*
X379241Y570375D01*
X379960Y574916D01*
Y579514D01*
X379241Y584055D01*
X377820Y588428D01*
X375733Y592524D01*
X373031Y596244D01*
X369779Y599495D01*
X366060Y602198D01*
X361963Y604285D01*
X357590Y605706D01*
X353049Y606425D01*
X348451D01*
X343910Y605706D01*
X339538Y604285D01*
X335441Y602198D01*
X331721Y599495D01*
X330232Y598006D01*
X329059Y598492D01*
Y768059D01*
X347941Y786941D01*
X351431D01*
X351661Y786597D01*
Y784475D01*
X352473Y782515D01*
X353952Y781036D01*
X353473Y780557D01*
X352661Y778597D01*
Y776475D01*
X353473Y774515D01*
X353952Y774036D01*
X353473Y773558D01*
X352661Y771597D01*
Y769475D01*
X353473Y767515D01*
X354974Y766014D01*
X356934Y765202D01*
X359056D01*
X361017Y766014D01*
X361402Y766399D01*
X362786Y765014D01*
X364747Y764202D01*
X366869D01*
X368829Y765014D01*
X370330Y766515D01*
X371142Y768475D01*
Y770597D01*
X370330Y772558D01*
X369445Y773442D01*
X370517Y774515D01*
X371329Y776475D01*
Y778597D01*
X370517Y780557D01*
X369017Y782058D01*
X367056Y782870D01*
X364934D01*
X362974Y782058D01*
X361995Y781079D01*
X361039Y782036D01*
X361517Y782515D01*
X362329Y784475D01*
Y786597D01*
X362559Y786941D01*
X470000D01*
X470295Y787000D01*
X513000D01*
Y341000D01*
D02*
G37*
G36*
X592000Y182907D02*
X591747Y182761D01*
X591280Y182294D01*
X590756Y181892D01*
X589354Y180490D01*
X588952Y179966D01*
X588484Y179499D01*
X588154Y178926D01*
X587751Y178401D01*
X587498Y177791D01*
X587168Y177218D01*
X586409Y175387D01*
X586366Y175227D01*
X586288Y175080D01*
X586026Y173957D01*
X585728Y172844D01*
Y172678D01*
X585690Y172516D01*
X585592Y171525D01*
X585609Y171028D01*
X585544Y170536D01*
X585544Y14556D01*
X584370Y14070D01*
X583644Y14797D01*
X580524Y16882D01*
X577057Y18318D01*
X573376Y19050D01*
X569624D01*
X565943Y18318D01*
X562476Y16882D01*
X559356Y14797D01*
X556703Y12144D01*
X554618Y9024D01*
X553182Y5557D01*
X552450Y1876D01*
Y-1876D01*
X553182Y-5557D01*
X554618Y-9024D01*
X556703Y-12144D01*
X559356Y-14797D01*
X562476Y-16882D01*
X565943Y-18318D01*
X569624Y-19050D01*
X573376D01*
X577057Y-18318D01*
X580524Y-16882D01*
X583644Y-14797D01*
X584370Y-14070D01*
X585544Y-14556D01*
Y-42824D01*
X585609Y-43317D01*
X585592Y-43813D01*
X585690Y-44804D01*
X585728Y-44966D01*
Y-45132D01*
X586026Y-46245D01*
X586288Y-47368D01*
X586367Y-47515D01*
X586409Y-47675D01*
X587168Y-49507D01*
X587499Y-50079D01*
X587752Y-50690D01*
X588154Y-51214D01*
X588485Y-51787D01*
X588952Y-52254D01*
X589355Y-52779D01*
X590756Y-54180D01*
X591281Y-54583D01*
X591748Y-55050D01*
X592321Y-55381D01*
X592845Y-55783D01*
X593456Y-56036D01*
X594028Y-56366D01*
X595860Y-57125D01*
X596020Y-57168D01*
X596166Y-57246D01*
X597289Y-57508D01*
X598403Y-57806D01*
X598569D01*
X598731Y-57844D01*
X599722Y-57942D01*
X600218Y-57925D01*
X600710Y-57990D01*
X648335Y-57990D01*
Y-70758D01*
X647279Y-71463D01*
X646561Y-71166D01*
X644439D01*
X642478Y-71978D01*
X640978Y-73478D01*
X640166Y-75439D01*
Y-77561D01*
X640978Y-79521D01*
X642478Y-81022D01*
X644439Y-81834D01*
X646561D01*
X647279Y-81537D01*
X648335Y-82242D01*
Y-83941D01*
X612000D01*
X611704Y-84000D01*
X554339D01*
X553946Y-83220D01*
X553872Y-82671D01*
X554522Y-82022D01*
X555334Y-80061D01*
Y-77939D01*
X554522Y-75979D01*
X553021Y-74478D01*
X551061Y-73666D01*
X548939D01*
X546978Y-74478D01*
X545478Y-75979D01*
X544666Y-77939D01*
Y-80061D01*
X545478Y-82022D01*
X546128Y-82671D01*
X546054Y-83220D01*
X545661Y-84000D01*
X541000D01*
Y-80867D01*
X541334Y-80061D01*
Y-77939D01*
X541000Y-77133D01*
Y31000D01*
X442000D01*
X437154Y35846D01*
X437986Y36678D01*
X438798Y38639D01*
Y40761D01*
X437986Y42721D01*
X436485Y44222D01*
X434525Y45034D01*
X432403D01*
X430443Y44222D01*
X429610Y43390D01*
X423334Y49666D01*
Y50061D01*
X422522Y52021D01*
X421021Y53522D01*
X419061Y54334D01*
X418666D01*
X413000Y60000D01*
Y137000D01*
X539000D01*
Y289000D01*
X450945D01*
X450522Y290021D01*
X449543Y291000D01*
X450522Y291978D01*
X451334Y293939D01*
Y296061D01*
X450522Y298022D01*
X449543Y299000D01*
X450522Y299979D01*
X451334Y301939D01*
Y304061D01*
X450522Y306021D01*
X449021Y307522D01*
X447061Y308334D01*
X444939D01*
X442979Y307522D01*
X441774Y306317D01*
X441000Y306134D01*
X440226Y306317D01*
X439021Y307522D01*
X437061Y308334D01*
X434939D01*
X432979Y307522D01*
X431774Y306317D01*
X431000Y306134D01*
X430226Y306317D01*
X429021Y307522D01*
X427061Y308334D01*
X424939D01*
X422979Y307522D01*
X421478Y306021D01*
X420666Y304061D01*
Y301939D01*
X421478Y299979D01*
X422457Y299000D01*
X421478Y298022D01*
X420666Y296061D01*
Y293939D01*
X421478Y291978D01*
X422457Y291000D01*
X421478Y290021D01*
X421055Y289000D01*
X400000D01*
Y323704D01*
X400059Y324000D01*
Y334660D01*
X400000Y334956D01*
Y337941D01*
X418666D01*
X418961Y338000D01*
X420457D01*
X420979Y337478D01*
X422939Y336666D01*
X425061D01*
X427021Y337478D01*
X427543Y338000D01*
X429457D01*
X429978Y337478D01*
X431939Y336666D01*
X434061D01*
X436021Y337478D01*
X436543Y338000D01*
X438038D01*
X438334Y337941D01*
X444086D01*
X444339Y336671D01*
X443979Y336522D01*
X442478Y335022D01*
X441666Y333061D01*
Y330939D01*
X442478Y328979D01*
X443979Y327478D01*
X445939Y326666D01*
X448061D01*
X450022Y327478D01*
X451522Y328979D01*
X452334Y330939D01*
Y333061D01*
X451522Y335022D01*
X450022Y336522D01*
X449661Y336671D01*
X449914Y337941D01*
X513000D01*
X513296Y338000D01*
X592000D01*
Y182907D01*
D02*
G37*
G36*
X518000Y162000D02*
X395295D01*
X395000Y162059D01*
X305961D01*
X305666Y162000D01*
X301867D01*
X301061Y162334D01*
X298939D01*
X298133Y162000D01*
X294334D01*
X294039Y162059D01*
X261961D01*
X261666Y162000D01*
X257867D01*
X257061Y162334D01*
X254939D01*
X254133Y162000D01*
X250334D01*
X250039Y162059D01*
X239059D01*
Y195941D01*
X307228D01*
X307523Y196000D01*
X312477D01*
X312772Y195941D01*
X356302D01*
X357007Y194885D01*
X356666Y194061D01*
Y191939D01*
X357478Y189979D01*
X358979Y188478D01*
X360939Y187666D01*
X363061D01*
X365022Y188478D01*
X366522Y189979D01*
X367334Y191939D01*
Y194061D01*
X366993Y194885D01*
X367698Y195941D01*
X424666D01*
Y194939D01*
X425478Y192978D01*
X426957Y191500D01*
X425478Y190021D01*
X424666Y188061D01*
Y185939D01*
X425478Y183979D01*
X426978Y182478D01*
X428939Y181666D01*
X431061D01*
X433022Y182478D01*
X434500Y183957D01*
X435979Y182478D01*
X437939Y181666D01*
X440061D01*
X442021Y182478D01*
X443522Y183979D01*
X444334Y185939D01*
Y188061D01*
X443522Y190021D01*
X442043Y191500D01*
X443522Y192978D01*
X444334Y194939D01*
Y195941D01*
X458000D01*
X458295Y196000D01*
X461000D01*
Y198704D01*
X461059Y199000D01*
Y252000D01*
X518000D01*
Y162000D01*
D02*
G37*
G36*
X395000Y41000D02*
X437000Y-1000D01*
X475666Y-1000D01*
Y-2061D01*
X476478Y-4022D01*
X477979Y-5522D01*
X479939Y-6334D01*
X482061D01*
X484021Y-5522D01*
X485226Y-4317D01*
X486000Y-4135D01*
X486774Y-4317D01*
X487979Y-5522D01*
X489939Y-6334D01*
X492061D01*
X494021Y-5522D01*
X495522Y-4022D01*
X496334Y-2061D01*
Y-1000D01*
X512000D01*
Y-41660D01*
X510730Y-42187D01*
X510022Y-41478D01*
X508061Y-40666D01*
X507738D01*
X507334Y-40061D01*
Y-37939D01*
X506522Y-35979D01*
X505022Y-34478D01*
X503061Y-33666D01*
X500939D01*
X498979Y-34478D01*
X497478Y-35979D01*
X496666Y-37939D01*
Y-40061D01*
X497478Y-42021D01*
X498979Y-43522D01*
X500939Y-44334D01*
X501262D01*
X501666Y-44939D01*
Y-47061D01*
X502478Y-49022D01*
X503979Y-50522D01*
X505939Y-51334D01*
X508061D01*
X510022Y-50522D01*
X510730Y-49813D01*
X512000Y-50339D01*
Y-75666D01*
X511939D01*
X509978Y-76478D01*
X508478Y-77979D01*
X507666Y-79939D01*
Y-82061D01*
X508478Y-84022D01*
X509457Y-85000D01*
X508478Y-85978D01*
X507666Y-87939D01*
Y-90061D01*
X508478Y-92022D01*
X509457Y-93000D01*
X508478Y-93979D01*
X507666Y-95939D01*
Y-98061D01*
X508478Y-100021D01*
X509457Y-101000D01*
X508478Y-101979D01*
X507666Y-103939D01*
Y-106061D01*
X508478Y-108021D01*
X509978Y-109522D01*
X511939Y-110334D01*
X512000D01*
Y-116000D01*
X533039D01*
X533666Y-116939D01*
Y-119061D01*
X534478Y-121021D01*
X535097Y-121640D01*
X534799Y-123138D01*
X533979Y-123478D01*
X532478Y-124979D01*
X531666Y-126939D01*
Y-129061D01*
X532478Y-131021D01*
X533957Y-132500D01*
X533478Y-132979D01*
X532666Y-134939D01*
Y-137061D01*
X533478Y-139022D01*
X534978Y-140522D01*
X536939Y-141334D01*
X539061D01*
X541021Y-140522D01*
X542142Y-139402D01*
X543412Y-139928D01*
Y-146000D01*
X543761Y-147756D01*
X544756Y-149244D01*
X546000Y-150489D01*
Y-151000D01*
X546511D01*
X559732Y-164221D01*
X560478Y-166021D01*
X561978Y-167522D01*
X563939Y-168334D01*
X566061D01*
X568021Y-167522D01*
X569522Y-166021D01*
X570334Y-164061D01*
Y-161939D01*
X569522Y-159979D01*
X568021Y-158478D01*
X566221Y-157732D01*
X560662Y-152173D01*
X561148Y-151000D01*
X567802D01*
X568650Y-152270D01*
X568166Y-153439D01*
Y-155561D01*
X568978Y-157521D01*
X570479Y-159022D01*
X572439Y-159834D01*
X574561D01*
X576521Y-159022D01*
X577226Y-158317D01*
X578478Y-158021D01*
X579978Y-159522D01*
X581939Y-160334D01*
X584061D01*
X586021Y-159522D01*
X587522Y-158021D01*
X588334Y-156061D01*
Y-153939D01*
X587643Y-152270D01*
X588203Y-151000D01*
X612000D01*
Y-135674D01*
X613056Y-134968D01*
X613939Y-135334D01*
X616061D01*
X618021Y-134522D01*
X619522Y-133021D01*
X620334Y-131061D01*
Y-128939D01*
X619522Y-126979D01*
X618021Y-125478D01*
X616061Y-124666D01*
X613939D01*
X613056Y-125032D01*
X612000Y-124326D01*
Y-117674D01*
X613056Y-116968D01*
X613939Y-117334D01*
X616061D01*
X618021Y-116522D01*
X619522Y-115021D01*
X619986Y-113900D01*
X621507Y-113155D01*
X621939Y-113334D01*
X624061D01*
X626021Y-112522D01*
X626933Y-111610D01*
X628428Y-111900D01*
X628478Y-112022D01*
X629978Y-113522D01*
X631939Y-114334D01*
X634061D01*
X636021Y-113522D01*
X637522Y-112022D01*
X638334Y-110061D01*
Y-107939D01*
X637522Y-105979D01*
X636021Y-104478D01*
X634061Y-103666D01*
X631939D01*
X629978Y-104478D01*
X629067Y-105390D01*
X627572Y-105100D01*
X627522Y-104979D01*
X626021Y-103478D01*
X624061Y-102666D01*
X621939D01*
X619978Y-103478D01*
X618478Y-104979D01*
X618013Y-106100D01*
X616493Y-106845D01*
X616061Y-106666D01*
X613939D01*
X613056Y-107032D01*
X612000Y-106326D01*
Y-87000D01*
X648335D01*
Y-98233D01*
X647065Y-99082D01*
X646061Y-98666D01*
X643939D01*
X641979Y-99478D01*
X640478Y-100978D01*
X639666Y-102939D01*
Y-105061D01*
X640478Y-107022D01*
X641979Y-108522D01*
X643939Y-109334D01*
X646061D01*
X647065Y-108918D01*
X648335Y-109767D01*
Y-131758D01*
X647279Y-132463D01*
X646561Y-132166D01*
X644439D01*
X642478Y-132978D01*
X640978Y-134479D01*
X640166Y-136439D01*
Y-138561D01*
X640978Y-140521D01*
X642478Y-142022D01*
X644439Y-142834D01*
X646561D01*
X647279Y-142537D01*
X648335Y-143242D01*
Y-150233D01*
X647065Y-151082D01*
X646061Y-150666D01*
X643939D01*
X641979Y-151478D01*
X640478Y-152978D01*
X639666Y-154939D01*
Y-157061D01*
X640478Y-159021D01*
X641979Y-160522D01*
X643939Y-161334D01*
X646061D01*
X647065Y-160918D01*
X648335Y-161767D01*
Y-171758D01*
X647279Y-172463D01*
X646561Y-172166D01*
X644439D01*
X642478Y-172978D01*
X641500Y-173957D01*
X640022Y-172478D01*
X638061Y-171666D01*
X635939D01*
X633979Y-172478D01*
X632478Y-173979D01*
X631666Y-175939D01*
Y-178061D01*
X632478Y-180021D01*
X633979Y-181522D01*
X635939Y-182334D01*
X638061D01*
X640022Y-181522D01*
X641000Y-180543D01*
X642478Y-182022D01*
X644439Y-182834D01*
X646561D01*
X647279Y-182537D01*
X648335Y-183242D01*
Y-200378D01*
X614860D01*
X614607Y-199108D01*
X616021Y-198522D01*
X617522Y-197021D01*
X618334Y-195061D01*
Y-192939D01*
X617522Y-190979D01*
X616021Y-189478D01*
X614061Y-188666D01*
X611939D01*
X609978Y-189478D01*
X608478Y-190979D01*
X607666Y-192939D01*
Y-195061D01*
X608478Y-197021D01*
X609978Y-198522D01*
X611393Y-199108D01*
X611140Y-200378D01*
X548825D01*
X548339Y-199205D01*
X548522Y-199021D01*
X549334Y-197061D01*
Y-194939D01*
X548522Y-192978D01*
X547021Y-191478D01*
X545061Y-190666D01*
X542939D01*
X540979Y-191478D01*
X539478Y-192978D01*
X538666Y-194939D01*
Y-197061D01*
X539478Y-199021D01*
X539661Y-199205D01*
X539175Y-200378D01*
X239000D01*
Y-193340D01*
X240270Y-192813D01*
X240979Y-193522D01*
X242939Y-194334D01*
X245061D01*
X247022Y-193522D01*
X248522Y-192022D01*
X249334Y-190061D01*
Y-187939D01*
X248522Y-185979D01*
X247022Y-184478D01*
X245061Y-183666D01*
X242939D01*
X240979Y-184478D01*
X240270Y-185187D01*
X239000Y-184660D01*
Y-5334D01*
X240061D01*
X242022Y-4522D01*
X243000Y-3543D01*
X243979Y-4522D01*
X245939Y-5334D01*
X248061D01*
X250021Y-4522D01*
X251522Y-3022D01*
X252334Y-1061D01*
Y1061D01*
X251522Y3022D01*
X250043Y4500D01*
X251522Y5979D01*
X252334Y7939D01*
Y10061D01*
X251522Y12021D01*
X250543Y13000D01*
X251522Y13979D01*
X252334Y15939D01*
Y18061D01*
X251522Y20021D01*
X250021Y21522D01*
X248061Y22334D01*
X245939D01*
X243979Y21522D01*
X243000Y20543D01*
X242022Y21522D01*
X240061Y22334D01*
X239000D01*
Y46666D01*
X241061D01*
X243022Y47478D01*
X244522Y48979D01*
X245334Y50939D01*
Y53061D01*
X244522Y55022D01*
X243022Y56522D01*
X241061Y57334D01*
X239000D01*
Y159000D01*
X250039D01*
X250666Y158061D01*
Y155939D01*
X251478Y153979D01*
X252978Y152478D01*
X254939Y151666D01*
X257061D01*
X259021Y152478D01*
X260522Y153979D01*
X261334Y155939D01*
Y158061D01*
X261961Y159000D01*
X294039D01*
X294666Y158061D01*
Y155939D01*
X295478Y153979D01*
X296979Y152478D01*
X298939Y151666D01*
X301061D01*
X303022Y152478D01*
X304522Y153979D01*
X305334Y155939D01*
Y158061D01*
X305961Y159000D01*
X395000D01*
Y41000D01*
D02*
G37*
G36*
X396941Y289000D02*
X397000Y288704D01*
Y286000D01*
X399705D01*
X400000Y285941D01*
X420666D01*
Y285939D01*
X421478Y283979D01*
X422957Y282500D01*
X421478Y281021D01*
X420666Y279061D01*
Y276939D01*
X421478Y274979D01*
X422457Y274000D01*
X421478Y273022D01*
X420666Y271061D01*
Y268939D01*
X421478Y266978D01*
X422979Y265478D01*
X424939Y264666D01*
X427061D01*
X429021Y265478D01*
X430226Y266683D01*
X431000Y266866D01*
X431774Y266683D01*
X432979Y265478D01*
X434939Y264666D01*
X437061D01*
X439021Y265478D01*
X440522Y266978D01*
X440572Y267100D01*
X442067Y267390D01*
X442979Y266478D01*
X444939Y265666D01*
X447061D01*
X449021Y266478D01*
X450522Y267978D01*
X451334Y269939D01*
Y272061D01*
X450522Y274021D01*
X449543Y275000D01*
X450522Y275979D01*
X451334Y277939D01*
Y280061D01*
X450522Y282022D01*
X449543Y283000D01*
X450522Y283979D01*
X451334Y285939D01*
Y285941D01*
X535941D01*
Y140059D01*
X413000D01*
X412705Y140000D01*
X410000D01*
Y137295D01*
X409941Y137000D01*
Y60000D01*
X409941Y60000D01*
X410000Y59704D01*
Y57000D01*
X414228Y52772D01*
X413478Y52021D01*
X412666Y50061D01*
Y47939D01*
X413478Y45978D01*
X414978Y44478D01*
X416939Y43666D01*
X419061D01*
X421021Y44478D01*
X421772Y45228D01*
X428130Y38870D01*
Y38639D01*
X428942Y36678D01*
X430443Y35178D01*
X432403Y34366D01*
X432634D01*
X439000Y28000D01*
X441704D01*
X442000Y27941D01*
X442000Y27941D01*
X537941D01*
Y-73078D01*
X537061Y-73666D01*
X534939D01*
X532979Y-74478D01*
X531478Y-75978D01*
X530666Y-77939D01*
Y-80061D01*
X531478Y-82022D01*
X532979Y-83522D01*
X534939Y-84334D01*
X537061D01*
X538000Y-85320D01*
Y-87000D01*
X540704D01*
X541000Y-87059D01*
X545661D01*
X545956Y-87000D01*
X554044D01*
X554339Y-87059D01*
X608941D01*
Y-106326D01*
X609000Y-106622D01*
Y-106923D01*
X609000Y-106923D01*
Y-117077D01*
X609000Y-117077D01*
Y-117379D01*
X608941Y-117674D01*
Y-124326D01*
X609000Y-124621D01*
Y-124923D01*
X609000Y-124923D01*
Y-135077D01*
X609000Y-135077D01*
Y-135378D01*
X608941Y-135674D01*
Y-147941D01*
X601698D01*
X600993Y-146885D01*
X601334Y-146061D01*
Y-143939D01*
X600522Y-141979D01*
X599021Y-140478D01*
X597061Y-139666D01*
X594939D01*
X592979Y-140478D01*
X592000Y-141457D01*
X591021Y-140478D01*
X589061Y-139666D01*
X586939D01*
X584978Y-140478D01*
X583478Y-141979D01*
X582666Y-143939D01*
Y-146061D01*
X583032Y-146944D01*
X582326Y-148000D01*
X579334D01*
Y-145939D01*
X578522Y-143979D01*
X577021Y-142478D01*
X575061Y-141666D01*
X572939D01*
X570979Y-142478D01*
X569478Y-143979D01*
X568666Y-145939D01*
Y-146969D01*
X567802Y-147941D01*
X561148D01*
X560853Y-148000D01*
X556489D01*
X552588Y-144100D01*
Y-121000D01*
X552239Y-119244D01*
X551244Y-117756D01*
X548244Y-114756D01*
X548000Y-114592D01*
Y-113000D01*
X540867D01*
X540061Y-112666D01*
X537939D01*
X537133Y-113000D01*
X533635D01*
X533635Y-113000D01*
X533334D01*
X533039Y-112941D01*
X515059D01*
Y-110334D01*
X515000Y-110039D01*
Y-109945D01*
X516021Y-109522D01*
X517522Y-108021D01*
X518334Y-106061D01*
Y-103939D01*
X517522Y-101979D01*
X516543Y-101000D01*
X517522Y-100021D01*
X518334Y-98061D01*
Y-95939D01*
X517522Y-93979D01*
X516543Y-93000D01*
X517522Y-92022D01*
X518334Y-90061D01*
Y-87939D01*
X517522Y-85978D01*
X516543Y-85000D01*
X517522Y-84022D01*
X518334Y-82061D01*
Y-79939D01*
X517522Y-77979D01*
X516021Y-76478D01*
X515000Y-76055D01*
Y-75961D01*
X515059Y-75666D01*
Y-50339D01*
X515000Y-50044D01*
Y-41956D01*
X515059Y-41660D01*
Y-1000D01*
X515000Y-705D01*
Y2000D01*
X512295D01*
X512000Y2059D01*
X496334D01*
X496039Y2000D01*
X495531D01*
X495522Y2022D01*
X494021Y3522D01*
X492061Y4334D01*
X489939D01*
X487979Y3522D01*
X486704Y2247D01*
X486000Y2113D01*
X485296Y2247D01*
X484021Y3522D01*
X482061Y4334D01*
X479939D01*
X477979Y3522D01*
X476478Y2022D01*
X476469Y2000D01*
X475961D01*
X475666Y2059D01*
X438267Y2059D01*
X398059Y42267D01*
Y158941D01*
X518000D01*
X518296Y159000D01*
X521000D01*
Y161705D01*
X521059Y162000D01*
Y252000D01*
X521000Y252295D01*
Y255000D01*
X518296D01*
X518000Y255059D01*
X461059D01*
X460763Y255000D01*
X458296D01*
X458000Y255059D01*
X381059D01*
Y320941D01*
X396941D01*
Y289000D01*
D02*
G37*
%LPC*%
G36*
X203061Y956334D02*
X200939D01*
X198979Y955522D01*
X197478Y954022D01*
X196666Y952061D01*
Y949939D01*
X197478Y947979D01*
X198979Y946478D01*
X200939Y945666D01*
X203061D01*
X205021Y946478D01*
X206522Y947979D01*
X207334Y949939D01*
Y952061D01*
X206522Y954022D01*
X205021Y955522D01*
X203061Y956334D01*
D02*
G37*
G36*
X183061Y958334D02*
X180939D01*
X178979Y957522D01*
X177478Y956021D01*
X176666Y954061D01*
Y951939D01*
X177478Y949978D01*
X178979Y948478D01*
X179347Y947393D01*
X178994Y946782D01*
X178397Y944554D01*
Y942246D01*
X178994Y940018D01*
X180148Y938019D01*
X181779Y936388D01*
X183778Y935234D01*
X186006Y934637D01*
X188314D01*
X189007Y934823D01*
X189797Y933720D01*
X188501Y931779D01*
X187318Y928925D01*
X186716Y925895D01*
Y922805D01*
X187318Y919775D01*
X188501Y916921D01*
X190217Y914352D01*
X192402Y912167D01*
X194971Y910451D01*
X197825Y909268D01*
X198558Y909122D01*
Y907828D01*
X197825Y907682D01*
X194971Y906499D01*
X192402Y904783D01*
X190217Y902598D01*
X188501Y900029D01*
X187318Y897175D01*
X186825Y894696D01*
X185522Y894654D01*
X185166Y895982D01*
X184012Y897981D01*
X182381Y899612D01*
X180382Y900766D01*
X178154Y901363D01*
X175846D01*
X173618Y900766D01*
X171619Y899612D01*
X169988Y897981D01*
X168834Y895982D01*
X168478Y894654D01*
X167175Y894696D01*
X166682Y897175D01*
X165499Y900029D01*
X163783Y902598D01*
X161598Y904783D01*
X159029Y906499D01*
X156175Y907682D01*
X155442Y907828D01*
Y909122D01*
X156175Y909268D01*
X159029Y910451D01*
X161598Y912167D01*
X163783Y914352D01*
X165499Y916921D01*
X166682Y919775D01*
X167285Y922805D01*
Y925895D01*
X166682Y928925D01*
X165499Y931779D01*
X164203Y933720D01*
X164993Y934823D01*
X165686Y934637D01*
X167994D01*
X170222Y935234D01*
X172221Y936388D01*
X173852Y938019D01*
X175006Y940018D01*
X175603Y942246D01*
Y944554D01*
X175006Y946782D01*
X173852Y948781D01*
X172221Y950412D01*
X170222Y951566D01*
X167994Y952163D01*
X165686D01*
X163458Y951566D01*
X161459Y950412D01*
X159828Y948781D01*
X158674Y946782D01*
X158077Y944554D01*
Y942246D01*
X158674Y940018D01*
X158861Y939694D01*
X157977Y938685D01*
X156175Y939432D01*
X153145Y940034D01*
X150055D01*
X147025Y939432D01*
X144171Y938249D01*
X141602Y936533D01*
X139417Y934348D01*
X137701Y931779D01*
X136518Y928925D01*
X135915Y925895D01*
Y922805D01*
X136518Y919775D01*
X137701Y916921D01*
X138820Y915245D01*
X138343Y913673D01*
X137978Y913522D01*
X136478Y912021D01*
X135666Y910061D01*
Y907939D01*
X136478Y905979D01*
X137978Y904478D01*
X139055Y904032D01*
X139409Y902630D01*
X139370Y902527D01*
X137701Y900029D01*
X136518Y897175D01*
X135915Y894145D01*
Y891055D01*
X136518Y888025D01*
X137701Y885171D01*
X139417Y882602D01*
X141602Y880417D01*
X144171Y878701D01*
X147025Y877518D01*
X150055Y876916D01*
X153145D01*
X156175Y877518D01*
X159029Y878701D01*
X161598Y880417D01*
X163783Y882602D01*
X165499Y885171D01*
X166682Y888025D01*
X167175Y890504D01*
X168478Y890546D01*
X168834Y889218D01*
X169988Y887219D01*
X171619Y885588D01*
X172325Y885180D01*
X172478Y884021D01*
X171666Y882061D01*
Y879939D01*
X172478Y877979D01*
X173957Y876500D01*
X172478Y875022D01*
X171666Y873061D01*
Y870939D01*
X172478Y868979D01*
X173979Y867478D01*
X175939Y866666D01*
X178061D01*
X180021Y867478D01*
X181522Y868979D01*
X182334Y870939D01*
Y873061D01*
X181522Y875022D01*
X180043Y876500D01*
X181522Y877979D01*
X182334Y879939D01*
Y882061D01*
X181522Y884021D01*
X181674Y885180D01*
X182381Y885588D01*
X184012Y887219D01*
X185166Y889218D01*
X185522Y890546D01*
X186825Y890504D01*
X187318Y888025D01*
X188501Y885171D01*
X190217Y882602D01*
X192402Y880417D01*
X194971Y878701D01*
X197825Y877518D01*
X200855Y876916D01*
X203945D01*
X206975Y877518D01*
X209829Y878701D01*
X212398Y880417D01*
X214583Y882602D01*
X216299Y885171D01*
X217482Y888025D01*
X218085Y891055D01*
Y894145D01*
X217482Y897175D01*
X216299Y900029D01*
X215386Y901396D01*
X216061Y902666D01*
X218022Y903478D01*
X219522Y904979D01*
X220334Y906939D01*
Y909061D01*
X219522Y911021D01*
X218022Y912522D01*
X216061Y913334D01*
X215361D01*
X215027Y913771D01*
X214751Y914604D01*
X216299Y916921D01*
X217482Y919775D01*
X218085Y922805D01*
Y925895D01*
X217482Y928925D01*
X216299Y931779D01*
X214583Y934348D01*
X214560Y934372D01*
X215086Y935642D01*
X216037D01*
X217997Y936454D01*
X219498Y937954D01*
X220310Y939915D01*
Y942037D01*
X219498Y943997D01*
X217997Y945498D01*
X216037Y946310D01*
X213915D01*
X211954Y945498D01*
X210454Y943997D01*
X209642Y942037D01*
Y939915D01*
X209748Y939658D01*
X208776Y938686D01*
X206975Y939432D01*
X203945Y940034D01*
X200855D01*
X197825Y939432D01*
X196023Y938685D01*
X195139Y939694D01*
X195326Y940018D01*
X195923Y942246D01*
Y944554D01*
X195326Y946782D01*
X194172Y948781D01*
X192541Y950412D01*
X190542Y951566D01*
X188314Y952163D01*
X187334D01*
Y954061D01*
X186522Y956021D01*
X185021Y957522D01*
X183061Y958334D01*
D02*
G37*
G36*
X290056Y897270D02*
X287934D01*
X285974Y896458D01*
X284995Y895479D01*
X284017Y896458D01*
X282056Y897270D01*
X279934D01*
X277974Y896458D01*
X276473Y894957D01*
X275661Y892997D01*
Y891334D01*
X274939D01*
X272978Y890522D01*
X271478Y889022D01*
X270666Y887061D01*
Y884939D01*
X271478Y882979D01*
X272978Y881478D01*
X274939Y880666D01*
X277061D01*
X279021Y881478D01*
X280522Y882979D01*
X281334Y884939D01*
Y886602D01*
X282056D01*
X284017Y887414D01*
X284995Y888393D01*
X285974Y887414D01*
X287934Y886602D01*
X288661D01*
Y884875D01*
X289473Y882915D01*
X290974Y881414D01*
X292934Y880602D01*
X295056D01*
X297017Y881414D01*
X298517Y882915D01*
X299329Y884875D01*
Y886997D01*
X298517Y888957D01*
X297017Y890458D01*
X295056Y891270D01*
X294329D01*
Y892997D01*
X293517Y894957D01*
X292017Y896458D01*
X290056Y897270D01*
D02*
G37*
G36*
X261056Y899270D02*
X258934D01*
X256974Y898458D01*
X255473Y896957D01*
X254661Y894997D01*
Y892875D01*
X255473Y890915D01*
X256974Y889414D01*
X258934Y888602D01*
X261056D01*
X263017Y889414D01*
X264517Y890915D01*
X265329Y892875D01*
Y894997D01*
X264517Y896957D01*
X263017Y898458D01*
X261056Y899270D01*
D02*
G37*
G36*
X242056Y874270D02*
X239934D01*
X237974Y873458D01*
X236769Y872253D01*
X235995Y872070D01*
X235221Y872253D01*
X234017Y873458D01*
X232056Y874270D01*
X229934D01*
X227974Y873458D01*
X226473Y871957D01*
X225661Y869997D01*
Y867875D01*
X226473Y865915D01*
X227974Y864414D01*
X229934Y863602D01*
X232056D01*
X234017Y864414D01*
X235221Y865619D01*
X235995Y865801D01*
X236769Y865619D01*
X237974Y864414D01*
X239934Y863602D01*
X242056D01*
X244017Y864414D01*
X245517Y865915D01*
X246329Y867875D01*
Y869997D01*
X245517Y871957D01*
X244017Y873458D01*
X242056Y874270D01*
D02*
G37*
G36*
X188061Y867334D02*
X185939D01*
X183979Y866522D01*
X182478Y865022D01*
X181666Y863061D01*
Y860939D01*
X182478Y858979D01*
X183979Y857478D01*
X185939Y856666D01*
X188061D01*
X190021Y857478D01*
X191522Y858979D01*
X192334Y860939D01*
Y863061D01*
X191522Y865022D01*
X190021Y866522D01*
X188061Y867334D01*
D02*
G37*
G36*
X241056Y858270D02*
X238934D01*
X236974Y857458D01*
X235995Y856479D01*
X235017Y857458D01*
X233056Y858270D01*
X230934D01*
X228974Y857458D01*
X227473Y855957D01*
X226661Y853997D01*
Y851875D01*
X227473Y849914D01*
X228974Y848414D01*
X230934Y847602D01*
X233056D01*
X235017Y848414D01*
X235995Y849393D01*
X236974Y848414D01*
X238934Y847602D01*
X241056D01*
X243017Y848414D01*
X244517Y849914D01*
X245329Y851875D01*
Y853997D01*
X244517Y855957D01*
X243017Y857458D01*
X241056Y858270D01*
D02*
G37*
G36*
X198286Y481284D02*
X196164D01*
X194203Y480472D01*
X192703Y478971D01*
X191891Y477011D01*
Y474889D01*
X192703Y472929D01*
X194203Y471428D01*
X196164Y470616D01*
X198286D01*
X200246Y471428D01*
X201747Y472929D01*
X202559Y474889D01*
Y477011D01*
X201747Y478971D01*
X200246Y480472D01*
X198286Y481284D01*
D02*
G37*
G36*
X209036Y469284D02*
X206914D01*
X204953Y468472D01*
X203453Y466972D01*
X202641Y465011D01*
Y462889D01*
X203453Y460929D01*
X204953Y459428D01*
X206914Y458616D01*
X209036D01*
X210996Y459428D01*
X212497Y460929D01*
X213309Y462889D01*
Y465011D01*
X212497Y466972D01*
X210996Y468472D01*
X209036Y469284D01*
D02*
G37*
G36*
X156567Y459398D02*
X154445D01*
X152485Y458586D01*
X150984Y457085D01*
X150172Y455125D01*
Y453003D01*
X150984Y451043D01*
X152485Y449542D01*
X154445Y448730D01*
X156567D01*
X158528Y449542D01*
X160028Y451043D01*
X160840Y453003D01*
Y455125D01*
X160028Y457085D01*
X158528Y458586D01*
X156567Y459398D01*
D02*
G37*
G36*
Y439398D02*
X154445D01*
X152485Y438586D01*
X150984Y437085D01*
X150172Y435125D01*
Y433003D01*
X150984Y431043D01*
X152485Y429542D01*
X154445Y428730D01*
X156567D01*
X158528Y429542D01*
X160028Y431043D01*
X160840Y433003D01*
Y435125D01*
X160028Y437085D01*
X158528Y438586D01*
X156567Y439398D01*
D02*
G37*
G36*
X206286Y435284D02*
X204164D01*
X202204Y434472D01*
X200703Y432971D01*
X199891Y431011D01*
Y428889D01*
X200703Y426929D01*
X202204Y425428D01*
X204164Y424616D01*
X206286D01*
X208246Y425428D01*
X209747Y426929D01*
X210559Y428889D01*
Y431011D01*
X209747Y432971D01*
X208246Y434472D01*
X206286Y435284D01*
D02*
G37*
G36*
X225286Y444284D02*
X223164D01*
X221203Y443472D01*
X219703Y441972D01*
X218891Y440011D01*
Y437889D01*
X219703Y435929D01*
X220372Y435259D01*
X220380Y433499D01*
X219777Y432897D01*
X218965Y430937D01*
Y428815D01*
X219777Y426854D01*
X221182Y425450D01*
X219703Y423971D01*
X218891Y422011D01*
Y419889D01*
X219703Y417929D01*
X221203Y416428D01*
X223164Y415616D01*
X225286D01*
X227246Y416428D01*
X228747Y417929D01*
X229559Y419889D01*
Y422011D01*
X228747Y423971D01*
X227343Y425376D01*
X228821Y426854D01*
X229633Y428815D01*
Y430937D01*
X228821Y432897D01*
X228152Y433567D01*
X228145Y435326D01*
X228747Y435929D01*
X229559Y437889D01*
Y440011D01*
X228747Y441972D01*
X227246Y443472D01*
X225286Y444284D01*
D02*
G37*
G36*
X368056Y951870D02*
X365934D01*
X363974Y951058D01*
X362473Y949557D01*
X361661Y947597D01*
Y946870D01*
X359934D01*
X357974Y946058D01*
X356473Y944557D01*
X355661Y942597D01*
Y940475D01*
X356473Y938515D01*
X357952Y937036D01*
X356473Y935557D01*
X355944Y934280D01*
X354488Y933508D01*
X354369Y933558D01*
X352247D01*
X350286Y932746D01*
X348786Y931245D01*
X347974Y929285D01*
Y927162D01*
X348786Y925202D01*
X350265Y923724D01*
X348786Y922245D01*
X347974Y920284D01*
Y918162D01*
X348786Y916202D01*
X350265Y914723D01*
X348786Y913245D01*
X347974Y911284D01*
Y909162D01*
X348786Y907202D01*
X350286Y905702D01*
X352247Y904890D01*
X354369D01*
X356329Y905702D01*
X357830Y907202D01*
X358642Y909162D01*
Y911284D01*
X357830Y913245D01*
X356351Y914723D01*
X357830Y916202D01*
X358642Y918162D01*
Y920284D01*
X357830Y922245D01*
X356351Y923724D01*
X357830Y925202D01*
X358359Y926480D01*
X359815Y927251D01*
X359934Y927202D01*
X362056D01*
X364017Y928014D01*
X365517Y929514D01*
X366329Y931475D01*
Y933597D01*
X365517Y935557D01*
X364039Y937036D01*
X365517Y938515D01*
X366329Y940475D01*
Y941202D01*
X368056D01*
X370017Y942014D01*
X371517Y943514D01*
X372329Y945475D01*
Y947597D01*
X371517Y949557D01*
X370017Y951058D01*
X368056Y951870D01*
D02*
G37*
G36*
X354056Y902870D02*
X351934D01*
X349974Y902058D01*
X348473Y900557D01*
X347661Y898597D01*
Y896475D01*
X348473Y894515D01*
X349974Y893014D01*
X351934Y892202D01*
X354056D01*
X356017Y893014D01*
X357517Y894515D01*
X358329Y896475D01*
Y898597D01*
X357517Y900557D01*
X356017Y902058D01*
X354056Y902870D01*
D02*
G37*
G36*
X437369Y935557D02*
X435247D01*
X433286Y934745D01*
X431786Y933245D01*
X430974Y931284D01*
Y929163D01*
X431786Y927202D01*
X433265Y925723D01*
X431786Y924245D01*
X430974Y922284D01*
Y920163D01*
X431786Y918202D01*
X433265Y916723D01*
X431786Y915245D01*
X430974Y913285D01*
Y911162D01*
X431786Y909202D01*
X433265Y907723D01*
X431786Y906245D01*
X430974Y904285D01*
Y902162D01*
X431786Y900202D01*
X433265Y898724D01*
X431786Y897245D01*
X430974Y895285D01*
Y893163D01*
X431786Y891202D01*
X433286Y889702D01*
X435247Y888889D01*
X437369D01*
X439329Y889702D01*
X440830Y891202D01*
X441642Y893163D01*
Y895285D01*
X440830Y897245D01*
X439351Y898724D01*
X440830Y900202D01*
X441642Y902162D01*
Y904285D01*
X440830Y906245D01*
X439351Y907723D01*
X440830Y909202D01*
X441642Y911162D01*
Y913285D01*
X440830Y915245D01*
X439351Y916723D01*
X440830Y918202D01*
X441642Y920163D01*
Y922284D01*
X440830Y924245D01*
X439351Y925723D01*
X440830Y927202D01*
X441642Y929163D01*
Y931284D01*
X440830Y933245D01*
X439329Y934745D01*
X437369Y935557D01*
D02*
G37*
G36*
X392494Y885683D02*
X390372D01*
X388411Y884871D01*
X386911Y883370D01*
X386099Y881410D01*
Y879288D01*
X386911Y877327D01*
X388411Y875827D01*
X390372Y875015D01*
X392494D01*
X394454Y875827D01*
X395955Y877327D01*
X396767Y879288D01*
Y881410D01*
X395955Y883370D01*
X394454Y884871D01*
X392494Y885683D01*
D02*
G37*
G36*
X379369Y870558D02*
X377247D01*
X375308Y869754D01*
X373369Y870558D01*
X371247D01*
X369286Y869746D01*
X367786Y868245D01*
X367138Y866681D01*
X366754Y866236D01*
X365704Y866005D01*
X364369Y866558D01*
X362247D01*
X360286Y865746D01*
X358786Y864245D01*
X357974Y862285D01*
Y860163D01*
X358374Y859196D01*
X357286Y858746D01*
X355786Y857245D01*
X354974Y855285D01*
Y853163D01*
X355786Y851202D01*
X357286Y849702D01*
X358021Y849398D01*
X357974Y849285D01*
Y847163D01*
X358786Y845202D01*
X360286Y843702D01*
X362247Y842890D01*
X364369D01*
X365704Y843443D01*
X366974Y842687D01*
Y842163D01*
X367786Y840202D01*
X369286Y838702D01*
X371247Y837890D01*
X373369D01*
X375308Y838693D01*
X377247Y837890D01*
X379369D01*
X381329Y838702D01*
X382830Y840202D01*
X383642Y842163D01*
Y844285D01*
X383046Y845724D01*
X383642Y847163D01*
Y849285D01*
X382830Y851245D01*
X381329Y852746D01*
X379369Y853558D01*
X377247D01*
X375308Y852755D01*
X373369Y853558D01*
X372642D01*
Y854890D01*
X373369D01*
X375308Y855693D01*
X377247Y854890D01*
X379369D01*
X381329Y855702D01*
X382830Y857202D01*
X383642Y859163D01*
Y861285D01*
X383046Y862724D01*
X383642Y864163D01*
Y866285D01*
X382830Y868245D01*
X381329Y869746D01*
X379369Y870558D01*
D02*
G37*
G36*
X339056Y877870D02*
X336934D01*
X334974Y877058D01*
X333473Y875557D01*
X332661Y873597D01*
Y871475D01*
X333473Y869515D01*
X334974Y868014D01*
X336934Y867202D01*
X339056D01*
X341017Y868014D01*
X342517Y869515D01*
X343329Y871475D01*
Y873597D01*
X342517Y875557D01*
X341017Y877058D01*
X339056Y877870D01*
D02*
G37*
G36*
X433369Y884558D02*
X431247D01*
X429286Y883746D01*
X427786Y882245D01*
X426974Y880285D01*
Y878682D01*
X426581Y877951D01*
X425850Y877558D01*
X424247D01*
X422286Y876746D01*
X420786Y875245D01*
X419974Y873285D01*
Y871163D01*
X420786Y869202D01*
X422286Y867702D01*
X424247Y866890D01*
X426369D01*
X428329Y867702D01*
X428808Y868180D01*
X429286Y867702D01*
X431247Y866890D01*
X433369D01*
X435329Y867702D01*
X436830Y869202D01*
X437642Y871163D01*
Y873285D01*
X436830Y875245D01*
X436351Y875724D01*
X436830Y876202D01*
X437642Y878163D01*
Y880285D01*
X436830Y882245D01*
X435329Y883746D01*
X433369Y884558D01*
D02*
G37*
G36*
X345369Y867558D02*
X343247D01*
X341286Y866746D01*
X339786Y865245D01*
X338974Y863285D01*
Y861163D01*
X339786Y859202D01*
X340265Y858724D01*
X339786Y858245D01*
X338974Y856285D01*
Y854163D01*
X339786Y852202D01*
X341286Y850702D01*
X343247Y849890D01*
X345369D01*
X347329Y850702D01*
X348830Y852202D01*
X349642Y854163D01*
Y856285D01*
X348830Y858245D01*
X348351Y858724D01*
X348830Y859202D01*
X349642Y861163D01*
Y863285D01*
X348830Y865245D01*
X347329Y866746D01*
X345369Y867558D01*
D02*
G37*
G36*
X433369Y846558D02*
X431247D01*
X429286Y845746D01*
X428808Y845267D01*
X428329Y845746D01*
X426369Y846558D01*
X424247D01*
X422286Y845746D01*
X420786Y844245D01*
X419974Y842285D01*
Y840163D01*
X420786Y838202D01*
X422286Y836702D01*
X424247Y835890D01*
X426264D01*
X426666Y835529D01*
X427214Y834865D01*
X426974Y834285D01*
Y832163D01*
X427786Y830202D01*
X429286Y828702D01*
X431247Y827890D01*
X432771D01*
X433078Y827208D01*
X433161Y826620D01*
X431786Y825245D01*
X430974Y823285D01*
Y821163D01*
X431786Y819202D01*
X433286Y817702D01*
X435247Y816890D01*
X437369D01*
X439329Y817702D01*
X440808Y819180D01*
X441974Y818014D01*
X443934Y817202D01*
X446056D01*
X448017Y818014D01*
X449517Y819515D01*
X450329Y821475D01*
Y823597D01*
X449517Y825557D01*
X448017Y827058D01*
X446056Y827870D01*
X443934D01*
X441974Y827058D01*
X440495Y825580D01*
X439329Y826746D01*
X437369Y827558D01*
X435845D01*
X435538Y828239D01*
X435455Y828828D01*
X436830Y830202D01*
X437642Y832163D01*
Y834285D01*
X436830Y836245D01*
X435851Y837224D01*
X436830Y838202D01*
X437642Y840163D01*
Y842285D01*
X436830Y844245D01*
X435329Y845746D01*
X433369Y846558D01*
D02*
G37*
G36*
X328061Y871334D02*
X325939D01*
X323979Y870522D01*
X322478Y869022D01*
X321666Y867061D01*
Y864939D01*
X322478Y862979D01*
X323979Y861478D01*
X324100Y861428D01*
X324390Y859933D01*
X323478Y859021D01*
X322666Y857061D01*
Y854939D01*
X323478Y852979D01*
X323554Y852903D01*
X323306Y851657D01*
X322979Y851522D01*
X321478Y850022D01*
X320666Y848061D01*
Y845939D01*
X321478Y843979D01*
X322979Y842478D01*
X324939Y841666D01*
X327061D01*
X329021Y842478D01*
X330522Y843979D01*
X331334Y845939D01*
Y848061D01*
X330522Y850022D01*
X330447Y850097D01*
X330694Y851342D01*
X331021Y851478D01*
X332522Y852979D01*
X333334Y854939D01*
Y857061D01*
X332522Y859021D01*
X331021Y860522D01*
X330900Y860572D01*
X330610Y862067D01*
X331522Y862979D01*
X332334Y864939D01*
Y867061D01*
X331522Y869022D01*
X330022Y870522D01*
X328061Y871334D01*
D02*
G37*
G36*
X348056Y838870D02*
X345934D01*
X343974Y838058D01*
X342473Y836557D01*
X341661Y834597D01*
Y832475D01*
X342473Y830515D01*
X343974Y829014D01*
X345934Y828202D01*
X348056D01*
X350017Y829014D01*
X351517Y830515D01*
X352329Y832475D01*
Y834597D01*
X351517Y836557D01*
X350017Y838058D01*
X348056Y838870D01*
D02*
G37*
G36*
X350056Y815870D02*
X347934D01*
X345974Y815058D01*
X344473Y813558D01*
X343661Y811597D01*
Y809475D01*
X344473Y807515D01*
X345974Y806014D01*
X347934Y805202D01*
X350056D01*
X352017Y806014D01*
X353517Y807515D01*
X354329Y809475D01*
Y811597D01*
X353517Y813558D01*
X352017Y815058D01*
X350056Y815870D01*
D02*
G37*
G36*
X452061Y809334D02*
X449939D01*
X447979Y808522D01*
X446478Y807021D01*
X445666Y805061D01*
Y802939D01*
X446478Y800978D01*
X447979Y799478D01*
X449939Y798666D01*
X452061D01*
X454021Y799478D01*
X455522Y800978D01*
X456334Y802939D01*
Y805061D01*
X455522Y807021D01*
X454021Y808522D01*
X452061Y809334D01*
D02*
G37*
G36*
X398056Y806870D02*
X395934D01*
X393974Y806058D01*
X392473Y804557D01*
X391661Y802597D01*
Y800475D01*
X392473Y798515D01*
X393974Y797014D01*
X395934Y796202D01*
X398056D01*
X400017Y797014D01*
X401517Y798515D01*
X402329Y800475D01*
Y802597D01*
X401517Y804557D01*
X400017Y806058D01*
X398056Y806870D01*
D02*
G37*
G36*
X334056Y791870D02*
X331934D01*
X329974Y791058D01*
X328473Y789557D01*
X327661Y787597D01*
Y785475D01*
X328473Y783515D01*
X329974Y782014D01*
X331934Y781202D01*
X334056D01*
X336017Y782014D01*
X337517Y783515D01*
X338329Y785475D01*
Y787597D01*
X337517Y789557D01*
X336017Y791058D01*
X334056Y791870D01*
D02*
G37*
G36*
X223049Y606425D02*
X218451D01*
X213910Y605706D01*
X209538Y604285D01*
X205441Y602198D01*
X201721Y599495D01*
X198470Y596244D01*
X195768Y592524D01*
X193680Y588428D01*
X192260Y584055D01*
X191540Y579514D01*
Y574916D01*
X192260Y570375D01*
X193680Y566002D01*
X195768Y561906D01*
X198470Y558186D01*
X201721Y554935D01*
X205441Y552232D01*
X209538Y550145D01*
X213910Y548724D01*
X218451Y548005D01*
X223049D01*
X227590Y548724D01*
X231963Y550145D01*
X236060Y552232D01*
X239779Y554935D01*
X243030Y558186D01*
X245733Y561906D01*
X247820Y566002D01*
X249241Y570375D01*
X249960Y574916D01*
Y579514D01*
X249241Y584055D01*
X247820Y588428D01*
X245733Y592524D01*
X243030Y596244D01*
X239779Y599495D01*
X236060Y602198D01*
X231963Y604285D01*
X227590Y605706D01*
X223049Y606425D01*
D02*
G37*
G36*
X279061Y514334D02*
X276939D01*
X274979Y513522D01*
X273478Y512021D01*
X272666Y510061D01*
Y507939D01*
X273478Y505979D01*
X274979Y504478D01*
X276939Y503666D01*
X279061D01*
X281021Y504478D01*
X282522Y505979D01*
X283334Y507939D01*
Y510061D01*
X282522Y512021D01*
X281021Y513522D01*
X279061Y514334D01*
D02*
G37*
G36*
X377918Y759540D02*
X377020D01*
Y733270D01*
X403290D01*
Y734167D01*
X402612Y738449D01*
X401273Y742572D01*
X399305Y746434D01*
X396757Y749941D01*
X393691Y753006D01*
X390184Y755554D01*
X386322Y757522D01*
X382199Y758862D01*
X377918Y759540D01*
D02*
G37*
G36*
X374480D02*
X373583D01*
X369301Y758862D01*
X365179Y757522D01*
X361316Y755554D01*
X357809Y753006D01*
X354744Y749941D01*
X352196Y746434D01*
X350228Y742572D01*
X348889Y738449D01*
X348210Y734167D01*
Y733270D01*
X374480D01*
Y759540D01*
D02*
G37*
G36*
X403290Y730730D02*
X377020D01*
Y704460D01*
X377918D01*
X382199Y705138D01*
X386322Y706478D01*
X390184Y708446D01*
X393691Y710994D01*
X396757Y714059D01*
X399305Y717566D01*
X401273Y721428D01*
X402612Y725551D01*
X403290Y729833D01*
Y730730D01*
D02*
G37*
G36*
X374480D02*
X348210D01*
Y729833D01*
X348889Y725551D01*
X350228Y721428D01*
X352196Y717566D01*
X354744Y714059D01*
X357809Y710994D01*
X361316Y708446D01*
X365179Y706478D01*
X369301Y705138D01*
X373583Y704460D01*
X374480D01*
Y730730D01*
D02*
G37*
G36*
X506061Y699334D02*
X503939D01*
X501978Y698522D01*
X500478Y697021D01*
X499666Y695061D01*
Y692939D01*
X500478Y690979D01*
X501978Y689478D01*
X503939Y688666D01*
X506061D01*
X508022Y689478D01*
X509522Y690979D01*
X510334Y692939D01*
Y695061D01*
X509522Y697021D01*
X508022Y698522D01*
X506061Y699334D01*
D02*
G37*
G36*
X486061D02*
X483939D01*
X481978Y698522D01*
X480478Y697021D01*
X479666Y695061D01*
Y692939D01*
X480478Y690979D01*
X481978Y689478D01*
X483939Y688666D01*
X486061D01*
X488022Y689478D01*
X489522Y690979D01*
X490334Y692939D01*
Y695061D01*
X489522Y697021D01*
X488022Y698522D01*
X486061Y699334D01*
D02*
G37*
G36*
X378167Y698540D02*
X377270D01*
Y672270D01*
X403540D01*
Y673167D01*
X402862Y677449D01*
X401522Y681572D01*
X399554Y685434D01*
X397006Y688941D01*
X393941Y692006D01*
X390434Y694554D01*
X386572Y696522D01*
X382449Y697862D01*
X378167Y698540D01*
D02*
G37*
G36*
X374730D02*
X373833D01*
X369551Y697862D01*
X365428Y696522D01*
X361566Y694554D01*
X358059Y692006D01*
X354994Y688941D01*
X352446Y685434D01*
X350478Y681572D01*
X349138Y677449D01*
X348460Y673167D01*
Y672270D01*
X374730D01*
Y698540D01*
D02*
G37*
G36*
X403540Y669730D02*
X377270D01*
Y643460D01*
X378167D01*
X382449Y644138D01*
X386572Y645478D01*
X390434Y647446D01*
X393941Y649994D01*
X397006Y653059D01*
X399554Y656566D01*
X401522Y660428D01*
X402862Y664551D01*
X403540Y668832D01*
Y669730D01*
D02*
G37*
G36*
X374730D02*
X348460D01*
Y668832D01*
X349138Y664551D01*
X350478Y660428D01*
X352446Y656566D01*
X354994Y653059D01*
X358059Y649994D01*
X361566Y647446D01*
X365428Y645478D01*
X369551Y644138D01*
X373833Y643460D01*
X374730D01*
Y669730D01*
D02*
G37*
G36*
X345061Y531334D02*
X342939D01*
X340979Y530522D01*
X339478Y529021D01*
X338666Y527061D01*
Y524939D01*
X339478Y522979D01*
X340979Y521478D01*
X342939Y520666D01*
X345061D01*
X347021Y521478D01*
X348522Y522979D01*
X349334Y524939D01*
Y527061D01*
X348522Y529021D01*
X347021Y530522D01*
X345061Y531334D01*
D02*
G37*
G36*
X359314Y482163D02*
X357006D01*
X354778Y481566D01*
X352779Y480412D01*
X351148Y478781D01*
X349994Y476782D01*
X349397Y474554D01*
Y472246D01*
X349994Y470018D01*
X351148Y468019D01*
X352779Y466388D01*
X354778Y465234D01*
X357006Y464637D01*
X359314D01*
X361542Y465234D01*
X363541Y466388D01*
X365172Y468019D01*
X366326Y470018D01*
X366923Y472246D01*
Y474554D01*
X366326Y476782D01*
X365172Y478781D01*
X363541Y480412D01*
X361542Y481566D01*
X359314Y482163D01*
D02*
G37*
G36*
X338994D02*
X336686D01*
X334458Y481566D01*
X332459Y480412D01*
X330828Y478781D01*
X329674Y476782D01*
X329077Y474554D01*
Y472246D01*
X329674Y470018D01*
X330828Y468019D01*
X332459Y466388D01*
X334458Y465234D01*
X336686Y464637D01*
X338994D01*
X341222Y465234D01*
X343221Y466388D01*
X344852Y468019D01*
X346006Y470018D01*
X346603Y472246D01*
Y474554D01*
X346006Y476782D01*
X344852Y478781D01*
X343221Y480412D01*
X341222Y481566D01*
X338994Y482163D01*
D02*
G37*
G36*
X506061Y468334D02*
X503939D01*
X501978Y467522D01*
X500478Y466021D01*
X499666Y464061D01*
Y461939D01*
X500478Y459978D01*
X501978Y458478D01*
X503939Y457666D01*
X506061D01*
X508022Y458478D01*
X509522Y459978D01*
X510334Y461939D01*
Y464061D01*
X509522Y466021D01*
X508022Y467522D01*
X506061Y468334D01*
D02*
G37*
G36*
X486061D02*
X483939D01*
X481978Y467522D01*
X480478Y466021D01*
X479666Y464061D01*
Y461939D01*
X480478Y459978D01*
X481978Y458478D01*
X483939Y457666D01*
X486061D01*
X488022Y458478D01*
X489522Y459978D01*
X490334Y461939D01*
Y464061D01*
X489522Y466021D01*
X488022Y467522D01*
X486061Y468334D01*
D02*
G37*
G36*
X364061Y453334D02*
X361939D01*
X359979Y452522D01*
X358478Y451021D01*
X357666Y449061D01*
Y446939D01*
X358478Y444978D01*
X359979Y443478D01*
X361939Y442666D01*
X364061D01*
X366021Y443478D01*
X367522Y444978D01*
X368334Y446939D01*
Y449061D01*
X367522Y451021D01*
X366021Y452522D01*
X364061Y453334D01*
D02*
G37*
G36*
X305061Y441334D02*
X302939D01*
X300979Y440522D01*
X300000Y439543D01*
X299021Y440522D01*
X297061Y441334D01*
X294939D01*
X292978Y440522D01*
X291478Y439021D01*
X290666Y437061D01*
Y434939D01*
X291478Y432979D01*
X292978Y431478D01*
X294939Y430666D01*
X297061D01*
X299021Y431478D01*
X300000Y432457D01*
X300979Y431478D01*
X302939Y430666D01*
X305061D01*
X307022Y431478D01*
X308522Y432979D01*
X309334Y434939D01*
Y437061D01*
X308522Y439021D01*
X307022Y440522D01*
X305061Y441334D01*
D02*
G37*
G36*
X349154Y431363D02*
X346846D01*
X344618Y430766D01*
X342619Y429612D01*
X340988Y427981D01*
X339834Y425982D01*
X339237Y423754D01*
Y421446D01*
X339834Y419218D01*
X340988Y417219D01*
X342619Y415588D01*
X344618Y414434D01*
X346846Y413837D01*
X349154D01*
X351382Y414434D01*
X353381Y415588D01*
X355012Y417219D01*
X356166Y419218D01*
X356763Y421446D01*
Y423754D01*
X356166Y425982D01*
X355012Y427981D01*
X353381Y429612D01*
X351382Y430766D01*
X349154Y431363D01*
D02*
G37*
G36*
X305061Y403334D02*
X302939D01*
X300979Y402522D01*
X299478Y401021D01*
X298666Y399061D01*
Y396939D01*
X299478Y394978D01*
X300979Y393478D01*
X301799Y393138D01*
X302097Y391640D01*
X301478Y391021D01*
X300666Y389061D01*
Y386939D01*
X301478Y384979D01*
X302978Y383478D01*
X304939Y382666D01*
X307061D01*
X309021Y383478D01*
X310522Y384979D01*
X311334Y386939D01*
Y389061D01*
X310522Y391021D01*
X309021Y392522D01*
X308201Y392862D01*
X307903Y394360D01*
X308522Y394978D01*
X309334Y396939D01*
Y399061D01*
X308522Y401021D01*
X307022Y402522D01*
X305061Y403334D01*
D02*
G37*
G36*
X270286Y389284D02*
X268164D01*
X266203Y388472D01*
X264703Y386972D01*
X263891Y385011D01*
Y382889D01*
X264703Y380929D01*
X266203Y379428D01*
X268164Y378616D01*
X270286D01*
X272246Y379428D01*
X273747Y380929D01*
X274559Y382889D01*
Y385011D01*
X273747Y386972D01*
X272246Y388472D01*
X270286Y389284D01*
D02*
G37*
G36*
X450061Y386334D02*
X447939D01*
X445979Y385522D01*
X444478Y384021D01*
X443666Y382061D01*
Y379939D01*
X444478Y377979D01*
X445979Y376478D01*
X447939Y375666D01*
X450061D01*
X452021Y376478D01*
X453522Y377979D01*
X454334Y379939D01*
Y382061D01*
X453522Y384021D01*
X452021Y385522D01*
X450061Y386334D01*
D02*
G37*
G36*
X132011Y385109D02*
X129889D01*
X127928Y384297D01*
X126428Y382797D01*
X125616Y380836D01*
Y378714D01*
X126428Y376754D01*
X127928Y375253D01*
X129889Y374441D01*
X132011D01*
X133972Y375253D01*
X135472Y376754D01*
X136284Y378714D01*
Y380836D01*
X135472Y382797D01*
X133972Y384297D01*
X132011Y385109D01*
D02*
G37*
G36*
X218286Y384284D02*
X216164D01*
X214203Y383472D01*
X212703Y381972D01*
X211891Y380011D01*
Y377889D01*
X212703Y375929D01*
X214203Y374428D01*
X216164Y373616D01*
X218286D01*
X220246Y374428D01*
X221747Y375929D01*
X222559Y377889D01*
Y380011D01*
X221747Y381972D01*
X220246Y383472D01*
X218286Y384284D01*
D02*
G37*
G36*
X235286D02*
X233164D01*
X231203Y383472D01*
X229703Y381972D01*
X228891Y380011D01*
Y377889D01*
X229703Y375929D01*
X231203Y374428D01*
X233164Y373616D01*
X235004D01*
X235703Y371929D01*
X237078Y370554D01*
X236995Y369965D01*
X236688Y369284D01*
X236164D01*
X234203Y368472D01*
X232703Y366972D01*
X231891Y365011D01*
Y362889D01*
X232703Y360929D01*
X234203Y359428D01*
X236164Y358616D01*
X238286D01*
X240247Y359428D01*
X241747Y360929D01*
X242559Y362889D01*
Y365011D01*
X241747Y366972D01*
X240372Y368346D01*
X240455Y368935D01*
X240762Y369616D01*
X241286D01*
X243246Y370428D01*
X244747Y371928D01*
X245544Y372087D01*
X246336Y371296D01*
X248297Y370484D01*
X250418D01*
X252379Y371296D01*
X253127Y372043D01*
X253703Y371928D01*
X255203Y370428D01*
X257164Y369616D01*
X259286D01*
X261246Y370428D01*
X262747Y371929D01*
X263559Y373889D01*
Y376011D01*
X262747Y377971D01*
X261246Y379472D01*
X259286Y380284D01*
X257164D01*
X255203Y379472D01*
X254456Y378724D01*
X253879Y378839D01*
X252379Y380340D01*
X250418Y381152D01*
X248297D01*
X246336Y380340D01*
X244836Y378839D01*
X244038Y378680D01*
X243246Y379472D01*
X241286Y380284D01*
X239446D01*
X238747Y381972D01*
X237246Y383472D01*
X235286Y384284D01*
D02*
G37*
G36*
X429061Y363334D02*
X426939D01*
X424979Y362522D01*
X423500Y361043D01*
X422021Y362522D01*
X420061Y363334D01*
X417939D01*
X415979Y362522D01*
X414478Y361021D01*
X413666Y359061D01*
Y356939D01*
X414478Y354979D01*
X415979Y353478D01*
X417939Y352666D01*
X420061D01*
X422021Y353478D01*
X423500Y354957D01*
X424979Y353478D01*
X426939Y352666D01*
X429061D01*
X431021Y353478D01*
X432522Y354979D01*
X433334Y356939D01*
Y359061D01*
X432522Y361021D01*
X431021Y362522D01*
X429061Y363334D01*
D02*
G37*
G36*
X311061Y371334D02*
X308939D01*
X306978Y370522D01*
X305478Y369021D01*
X304666Y367061D01*
Y364939D01*
X305478Y362979D01*
X306978Y361478D01*
X308939Y360666D01*
X311061D01*
X313021Y361478D01*
X314522Y362979D01*
X315334Y364939D01*
Y367061D01*
X314522Y369021D01*
X313021Y370522D01*
X311061Y371334D01*
D02*
G37*
G36*
X188061Y369334D02*
X185939D01*
X183979Y368522D01*
X182478Y367021D01*
X181666Y365061D01*
Y362939D01*
X182478Y360979D01*
X183979Y359478D01*
X185939Y358666D01*
X188061D01*
X190021Y359478D01*
X191522Y360979D01*
X192334Y362939D01*
Y365061D01*
X191522Y367021D01*
X190021Y368522D01*
X188061Y369334D01*
D02*
G37*
G36*
X346061Y357334D02*
X343939D01*
X341978Y356522D01*
X340774Y355317D01*
X340000Y355135D01*
X339226Y355317D01*
X338021Y356522D01*
X336061Y357334D01*
X333939D01*
X331978Y356522D01*
X330478Y355022D01*
X329666Y353061D01*
Y350939D01*
X330478Y348979D01*
X331457Y348000D01*
X330478Y347021D01*
X329666Y345061D01*
Y342939D01*
X330478Y340979D01*
X331457Y340000D01*
X330478Y339021D01*
X329666Y337061D01*
Y334939D01*
X330478Y332979D01*
X331978Y331478D01*
X333939Y330666D01*
X336061D01*
X338021Y331478D01*
X339226Y332683D01*
X340000Y332865D01*
X340774Y332683D01*
X341978Y331478D01*
X343939Y330666D01*
X346061D01*
X348022Y331478D01*
X349522Y332979D01*
X350334Y334939D01*
Y337061D01*
X349522Y339021D01*
X348543Y340000D01*
X349522Y340979D01*
X350334Y342939D01*
Y345061D01*
X349522Y347021D01*
X348543Y348000D01*
X349522Y348979D01*
X350334Y350939D01*
Y353061D01*
X349522Y355022D01*
X348022Y356522D01*
X346061Y357334D01*
D02*
G37*
G36*
X140836Y364384D02*
X138714D01*
X136754Y363572D01*
X135253Y362071D01*
X134441Y360111D01*
Y357989D01*
X135253Y356029D01*
X136754Y354528D01*
X138714Y353716D01*
X140836D01*
X142796Y354528D01*
X144297Y356029D01*
X145109Y357989D01*
Y360111D01*
X144297Y362071D01*
X142796Y363572D01*
X140836Y364384D01*
D02*
G37*
G36*
X227286Y355284D02*
X225164D01*
X223204Y354472D01*
X221725Y352993D01*
X220246Y354472D01*
X218286Y355284D01*
X216164D01*
X214203Y354472D01*
X212703Y352971D01*
X211891Y351011D01*
Y348889D01*
X212703Y346929D01*
X214203Y345428D01*
X216164Y344616D01*
X218286D01*
X220246Y345428D01*
X221725Y346907D01*
X223204Y345428D01*
X225164Y344616D01*
X227286D01*
X229246Y345428D01*
X230747Y346929D01*
X231559Y348889D01*
Y351011D01*
X230747Y352971D01*
X229246Y354472D01*
X227286Y355284D01*
D02*
G37*
G36*
X270286Y361284D02*
X268164D01*
X266203Y360472D01*
X264703Y358971D01*
X263891Y357011D01*
Y354889D01*
X264703Y352929D01*
X266203Y351428D01*
X268164Y350616D01*
X270286D01*
X272246Y351428D01*
X273747Y352929D01*
X274559Y354889D01*
Y357011D01*
X273747Y358971D01*
X272246Y360472D01*
X270286Y361284D01*
D02*
G37*
G36*
X188061Y357334D02*
X185939D01*
X183979Y356522D01*
X182478Y355022D01*
X181666Y353061D01*
Y350939D01*
X182478Y348979D01*
X183979Y347478D01*
X185939Y346666D01*
X188061D01*
X190021Y347478D01*
X191522Y348979D01*
X192334Y350939D01*
Y353061D01*
X191522Y355022D01*
X190021Y356522D01*
X188061Y357334D01*
D02*
G37*
G36*
X317061Y351334D02*
X314939D01*
X312978Y350522D01*
X311478Y349021D01*
X310666Y347061D01*
Y344939D01*
X311478Y342979D01*
X312978Y341478D01*
X313100Y341428D01*
X313390Y339933D01*
X312478Y339021D01*
X311666Y337061D01*
Y334939D01*
X312478Y332979D01*
X313979Y331478D01*
X315939Y330666D01*
X318061D01*
X320022Y331478D01*
X321522Y332979D01*
X322334Y334939D01*
Y337061D01*
X321522Y339021D01*
X320022Y340522D01*
X319900Y340572D01*
X319610Y342067D01*
X320522Y342979D01*
X321334Y344939D01*
Y347061D01*
X320522Y349021D01*
X319021Y350522D01*
X317061Y351334D01*
D02*
G37*
G36*
X365061Y338334D02*
X362939D01*
X360979Y337522D01*
X359478Y336021D01*
X358666Y334061D01*
Y331939D01*
X359478Y329978D01*
X360979Y328478D01*
X362939Y327666D01*
X365061D01*
X367021Y328478D01*
X368522Y329978D01*
X369334Y331939D01*
Y334061D01*
X368522Y336021D01*
X367021Y337522D01*
X365061Y338334D01*
D02*
G37*
G36*
X227061D02*
X224939D01*
X222978Y337522D01*
X221478Y336021D01*
X220666Y334061D01*
Y331939D01*
X221478Y329978D01*
X222978Y328478D01*
X224939Y327666D01*
X227061D01*
X229021Y328478D01*
X230522Y329978D01*
X231334Y331939D01*
Y334061D01*
X230522Y336021D01*
X229021Y337522D01*
X227061Y338334D01*
D02*
G37*
G36*
X189061D02*
X186939D01*
X184979Y337522D01*
X183478Y336021D01*
X182666Y334061D01*
Y331939D01*
X183478Y329978D01*
X184979Y328478D01*
X186939Y327666D01*
X189061D01*
X191021Y328478D01*
X192522Y329978D01*
X193334Y331939D01*
Y334061D01*
X192522Y336021D01*
X191021Y337522D01*
X189061Y338334D01*
D02*
G37*
G36*
X170061Y337334D02*
X167939D01*
X165979Y336522D01*
X164478Y335022D01*
X163666Y333061D01*
Y330939D01*
X164478Y328979D01*
X165979Y327478D01*
X167939Y326666D01*
X170061D01*
X172021Y327478D01*
X173522Y328979D01*
X174334Y330939D01*
Y333061D01*
X173522Y335022D01*
X172021Y336522D01*
X170061Y337334D01*
D02*
G37*
G36*
X203061Y303334D02*
X200939D01*
X198979Y302522D01*
X198000Y301543D01*
X197021Y302522D01*
X195061Y303334D01*
X192939D01*
X190979Y302522D01*
X190000Y301543D01*
X189021Y302522D01*
X187061Y303334D01*
X184939D01*
X182979Y302522D01*
X182000Y301543D01*
X181021Y302522D01*
X179061Y303334D01*
X176939D01*
X174979Y302522D01*
X174000Y301543D01*
X173021Y302522D01*
X171061Y303334D01*
X168939D01*
X166978Y302522D01*
X165478Y301021D01*
X164666Y299061D01*
Y296939D01*
X165478Y294979D01*
X166957Y293500D01*
X165478Y292022D01*
X164666Y290061D01*
Y287939D01*
X165478Y285979D01*
X166957Y284500D01*
X165478Y283022D01*
X164666Y281061D01*
Y278939D01*
X165478Y276978D01*
X166978Y275478D01*
X168939Y274666D01*
X171061D01*
X173021Y275478D01*
X174000Y276457D01*
X174979Y275478D01*
X176939Y274666D01*
X179061D01*
X181021Y275478D01*
X182000Y276457D01*
X182979Y275478D01*
X184939Y274666D01*
X187061D01*
X189021Y275478D01*
X190000Y276457D01*
X190979Y275478D01*
X192939Y274666D01*
X195061D01*
X197021Y275478D01*
X198000Y276457D01*
X198979Y275478D01*
X200939Y274666D01*
X203061D01*
X205021Y275478D01*
X206522Y276978D01*
X207334Y278939D01*
Y281061D01*
X206522Y283022D01*
X205043Y284500D01*
X206522Y285979D01*
X207334Y287939D01*
Y290061D01*
X206522Y292022D01*
X205043Y293500D01*
X206522Y294979D01*
X207334Y296939D01*
Y299061D01*
X206522Y301021D01*
X205021Y302522D01*
X203061Y303334D01*
D02*
G37*
G36*
X331061Y302334D02*
X328939D01*
X326978Y301522D01*
X325478Y300021D01*
X324666Y298061D01*
Y295939D01*
X325478Y293979D01*
X326957Y292500D01*
X325478Y291021D01*
X324666Y289061D01*
Y286939D01*
X325478Y284979D01*
X326978Y283478D01*
X328939Y282666D01*
X331061D01*
X333022Y283478D01*
X334522Y284979D01*
X335334Y286939D01*
Y289061D01*
X334522Y291021D01*
X333043Y292500D01*
X334522Y293979D01*
X335334Y295939D01*
Y298061D01*
X334522Y300021D01*
X333022Y301522D01*
X331061Y302334D01*
D02*
G37*
G36*
X114061Y269334D02*
X111939D01*
X109979Y268522D01*
X108478Y267022D01*
X107666Y265061D01*
Y262939D01*
X108478Y260979D01*
X109979Y259478D01*
X111939Y258666D01*
X114061D01*
X116021Y259478D01*
X117522Y260979D01*
X118334Y262939D01*
Y265061D01*
X117522Y267022D01*
X116021Y268522D01*
X114061Y269334D01*
D02*
G37*
G36*
X366061Y266334D02*
X363939D01*
X361978Y265522D01*
X360478Y264021D01*
X359666Y262061D01*
Y259939D01*
X360478Y257979D01*
X361978Y256478D01*
X363939Y255666D01*
X366061D01*
X368022Y256478D01*
X369522Y257979D01*
X370334Y259939D01*
Y262061D01*
X369522Y264021D01*
X368022Y265522D01*
X366061Y266334D01*
D02*
G37*
G36*
X231061D02*
X228939D01*
X226978Y265522D01*
X225478Y264021D01*
X224666Y262061D01*
Y259939D01*
X225478Y257979D01*
X226978Y256478D01*
X228939Y255666D01*
X231061D01*
X233022Y256478D01*
X234522Y257979D01*
X235334Y259939D01*
Y262061D01*
X234522Y264021D01*
X233022Y265522D01*
X231061Y266334D01*
D02*
G37*
G36*
X179061Y262334D02*
X176939D01*
X174979Y261522D01*
X173478Y260021D01*
X172666Y258061D01*
Y255939D01*
X173478Y253979D01*
X174979Y252478D01*
X176939Y251666D01*
X179061D01*
X181021Y252478D01*
X182522Y253979D01*
X183334Y255939D01*
Y258061D01*
X182522Y260021D01*
X181021Y261522D01*
X179061Y262334D01*
D02*
G37*
G36*
X191821Y262094D02*
X189699D01*
X187739Y261283D01*
X186239Y259782D01*
X185427Y257822D01*
Y255700D01*
X186239Y253739D01*
X187739Y252239D01*
X189699Y251427D01*
X191821D01*
X193782Y252239D01*
X195282Y253739D01*
X196094Y255700D01*
Y257822D01*
X195282Y259782D01*
X193782Y261283D01*
X191821Y262094D01*
D02*
G37*
G36*
X226061Y248334D02*
X223939D01*
X221979Y247522D01*
X220478Y246021D01*
X219666Y244061D01*
Y241939D01*
X220478Y239979D01*
X221979Y238478D01*
X223939Y237666D01*
X226061D01*
X228022Y238478D01*
X229522Y239979D01*
X230334Y241939D01*
Y244061D01*
X229522Y246021D01*
X228022Y247522D01*
X226061Y248334D01*
D02*
G37*
G36*
X440061Y246334D02*
X437939D01*
X435979Y245522D01*
X434478Y244021D01*
X433666Y242061D01*
Y239939D01*
X434478Y237978D01*
X435979Y236478D01*
X437939Y235666D01*
X440061D01*
X442021Y236478D01*
X443522Y237978D01*
X444334Y239939D01*
Y242061D01*
X443522Y244021D01*
X442021Y245522D01*
X440061Y246334D01*
D02*
G37*
G36*
X207061Y239334D02*
X204939D01*
X202978Y238522D01*
X201478Y237021D01*
X200666Y235061D01*
Y232939D01*
X201478Y230979D01*
X202978Y229478D01*
X204939Y228666D01*
X207061D01*
X209021Y229478D01*
X210522Y230979D01*
X211334Y232939D01*
Y235061D01*
X210522Y237021D01*
X209021Y238522D01*
X207061Y239334D01*
D02*
G37*
G36*
X54061Y245334D02*
X51939D01*
X49978Y244522D01*
X48478Y243022D01*
X47666Y241061D01*
Y239738D01*
X47061Y239334D01*
X44939D01*
X42979Y238522D01*
X41478Y237021D01*
X40666Y235061D01*
Y232939D01*
X41478Y230979D01*
X42979Y229478D01*
X44939Y228666D01*
X47061D01*
X49022Y229478D01*
X50522Y230979D01*
X51334Y232939D01*
Y234262D01*
X51939Y234666D01*
X54061D01*
X56021Y235478D01*
X57522Y236978D01*
X58334Y238939D01*
Y241061D01*
X57522Y243022D01*
X56021Y244522D01*
X54061Y245334D01*
D02*
G37*
G36*
X339061Y233334D02*
X336939D01*
X334979Y232522D01*
X333478Y231021D01*
X332666Y229061D01*
Y226939D01*
X333478Y224979D01*
X334979Y223478D01*
X336939Y222666D01*
X339061D01*
X341021Y223478D01*
X342522Y224979D01*
X343334Y226939D01*
Y229061D01*
X342522Y231021D01*
X341021Y232522D01*
X339061Y233334D01*
D02*
G37*
G36*
X160061Y229334D02*
X157939D01*
X155979Y228522D01*
X154478Y227022D01*
X153666Y225061D01*
Y222939D01*
X154478Y220979D01*
X155979Y219478D01*
X157939Y218666D01*
X160061D01*
X162022Y219478D01*
X163522Y220979D01*
X164334Y222939D01*
Y225061D01*
X163522Y227022D01*
X162022Y228522D01*
X160061Y229334D01*
D02*
G37*
G36*
X213061Y223334D02*
X210939D01*
X208979Y222522D01*
X207478Y221021D01*
X206666Y219061D01*
Y217915D01*
X206000Y217534D01*
X205368Y217896D01*
X205334Y217945D01*
Y219061D01*
X204522Y221021D01*
X203022Y222522D01*
X201061Y223334D01*
X198939D01*
X196978Y222522D01*
X195478Y221021D01*
X194666Y219061D01*
Y216939D01*
X195478Y214979D01*
X196978Y213478D01*
X198910Y212678D01*
X198941Y212663D01*
X199674Y211396D01*
X199642Y211334D01*
X198939D01*
X196978Y210522D01*
X195478Y209021D01*
X194666Y207061D01*
Y204939D01*
X195478Y202978D01*
X196978Y201478D01*
X198939Y200666D01*
X201061D01*
X203022Y201478D01*
X204522Y202978D01*
X205334Y204939D01*
Y205666D01*
X206666D01*
Y204939D01*
X207478Y202978D01*
X208979Y201478D01*
X210939Y200666D01*
X213061D01*
X215021Y201478D01*
X216522Y202978D01*
X217334Y204939D01*
Y207061D01*
X216522Y209021D01*
X215021Y210522D01*
X213061Y211334D01*
X212358D01*
X212326Y211396D01*
X213059Y212663D01*
X213090Y212678D01*
X215021Y213478D01*
X216522Y214979D01*
X217334Y216939D01*
Y219061D01*
X216522Y221021D01*
X215021Y222522D01*
X213061Y223334D01*
D02*
G37*
G36*
X-92561Y250985D02*
X-96439D01*
X-100242Y250229D01*
X-103824Y248745D01*
X-107049Y246590D01*
X-109790Y243848D01*
X-111945Y240624D01*
X-113428Y237042D01*
X-114185Y233239D01*
Y229361D01*
X-113428Y225558D01*
X-111945Y221976D01*
X-109790Y218752D01*
X-107049Y216010D01*
X-103824Y213855D01*
X-100242Y212372D01*
X-96439Y211615D01*
X-92561D01*
X-88758Y212372D01*
X-85176Y213855D01*
X-81952Y216010D01*
X-79210Y218752D01*
X-77055Y221976D01*
X-75571Y225558D01*
X-74815Y229361D01*
Y233239D01*
X-75571Y237042D01*
X-77055Y240624D01*
X-79210Y243848D01*
X-81952Y246590D01*
X-85176Y248745D01*
X-88758Y250229D01*
X-92561Y250985D01*
D02*
G37*
G36*
X231061Y224334D02*
X228939D01*
X226978Y223522D01*
X225478Y222022D01*
X224666Y220061D01*
Y217939D01*
X225478Y215979D01*
X226978Y214478D01*
X228939Y213666D01*
X230262D01*
X230666Y213061D01*
Y210939D01*
X230805Y210604D01*
X229956Y209334D01*
X228939D01*
X226978Y208522D01*
X225478Y207022D01*
X224666Y205061D01*
Y202939D01*
X225478Y200979D01*
X226978Y199478D01*
X228939Y198666D01*
X231061D01*
X233022Y199478D01*
X234522Y200979D01*
X235334Y202939D01*
Y205061D01*
X235195Y205396D01*
X236044Y206666D01*
X237061D01*
X239021Y207478D01*
X240522Y208979D01*
X241334Y210939D01*
Y213061D01*
X240522Y215021D01*
X239021Y216522D01*
X237061Y217334D01*
X235738D01*
X235334Y217939D01*
Y220061D01*
X234522Y222022D01*
X233022Y223522D01*
X231061Y224334D01*
D02*
G37*
G36*
X185061Y217334D02*
X182939D01*
X180979Y216522D01*
X179478Y215021D01*
X178666Y213061D01*
Y210939D01*
X179478Y208979D01*
X180457Y208000D01*
X179478Y207022D01*
X178666Y205061D01*
Y202939D01*
X179478Y200979D01*
X180979Y199478D01*
X182939Y198666D01*
X185061D01*
X187021Y199478D01*
X188522Y200979D01*
X189334Y202939D01*
Y205061D01*
X188522Y207022D01*
X187543Y208000D01*
X188522Y208979D01*
X189334Y210939D01*
Y213061D01*
X188522Y215021D01*
X187021Y216522D01*
X185061Y217334D01*
D02*
G37*
G36*
X192061Y199334D02*
X189939D01*
X187978Y198522D01*
X186478Y197021D01*
X185666Y195061D01*
Y192939D01*
X186478Y190979D01*
X187978Y189478D01*
X189939Y188666D01*
X192061D01*
X194021Y189478D01*
X195522Y190979D01*
X196334Y192939D01*
Y195061D01*
X195522Y197021D01*
X194021Y198522D01*
X192061Y199334D01*
D02*
G37*
G36*
X163061D02*
X160939D01*
X158979Y198522D01*
X157478Y197021D01*
X156666Y195061D01*
Y192939D01*
X157478Y190979D01*
X158979Y189478D01*
X160939Y188666D01*
X163061D01*
X163514Y188854D01*
X164234Y187777D01*
X163478Y187021D01*
X162666Y185061D01*
Y182939D01*
X163478Y180979D01*
X164979Y179478D01*
X166939Y178666D01*
X169061D01*
X171021Y179478D01*
X172522Y180979D01*
X173334Y182939D01*
Y185061D01*
X172522Y187021D01*
X171021Y188522D01*
X169061Y189334D01*
X166939D01*
X166486Y189146D01*
X165766Y190223D01*
X166522Y190979D01*
X167334Y192939D01*
Y195061D01*
X166522Y197021D01*
X165021Y198522D01*
X163061Y199334D01*
D02*
G37*
G36*
X146061Y161334D02*
X143939D01*
X141979Y160522D01*
X140478Y159021D01*
X139666Y157061D01*
Y154939D01*
X140478Y152978D01*
X141979Y151478D01*
X143939Y150666D01*
X146061D01*
X148021Y151478D01*
X149522Y152978D01*
X150334Y154939D01*
Y157061D01*
X149522Y159021D01*
X148021Y160522D01*
X146061Y161334D01*
D02*
G37*
G36*
X167061Y152334D02*
X164939D01*
X162978Y151522D01*
X161478Y150021D01*
X161187Y149320D01*
X159813D01*
X159522Y150021D01*
X158021Y151522D01*
X156061Y152334D01*
X153939D01*
X151979Y151522D01*
X150478Y150021D01*
X149666Y148061D01*
Y145939D01*
X150478Y143979D01*
X151979Y142478D01*
X153939Y141666D01*
X156061D01*
X158021Y142478D01*
X159522Y143979D01*
X159813Y144680D01*
X161187D01*
X161478Y143979D01*
X162978Y142478D01*
X164939Y141666D01*
X167061D01*
X169021Y142478D01*
X170522Y143979D01*
X171334Y145939D01*
Y148061D01*
X170522Y150021D01*
X169021Y151522D01*
X167061Y152334D01*
D02*
G37*
G36*
X177061Y76334D02*
X174939D01*
X172978Y75522D01*
X171774Y74317D01*
X171000Y74134D01*
X170226Y74317D01*
X169021Y75522D01*
X167061Y76334D01*
X164939D01*
X162978Y75522D01*
X161774Y74317D01*
X161000Y74134D01*
X160226Y74317D01*
X159021Y75522D01*
X157061Y76334D01*
X154939D01*
X152978Y75522D01*
X151478Y74022D01*
X151187Y73320D01*
X149813D01*
X149522Y74022D01*
X148021Y75522D01*
X146061Y76334D01*
X143939D01*
X141979Y75522D01*
X140478Y74022D01*
X140187Y73320D01*
X138813D01*
X138522Y74022D01*
X137022Y75522D01*
X135061Y76334D01*
X132939D01*
X130979Y75522D01*
X129478Y74022D01*
X128666Y72061D01*
Y69939D01*
X129478Y67979D01*
X130979Y66478D01*
X132939Y65666D01*
X135061D01*
X137022Y66478D01*
X138522Y67979D01*
X138813Y68680D01*
X140187D01*
X140478Y67979D01*
X141979Y66478D01*
X143939Y65666D01*
X146061D01*
X148021Y66478D01*
X149522Y67979D01*
X149813Y68680D01*
X151187D01*
X151478Y67979D01*
X152978Y66478D01*
X154939Y65666D01*
X157061D01*
X159021Y66478D01*
X160226Y67683D01*
X161000Y67866D01*
X161774Y67683D01*
X162978Y66478D01*
X164939Y65666D01*
X167061D01*
X169021Y66478D01*
X170226Y67683D01*
X171000Y67866D01*
X171774Y67683D01*
X172978Y66478D01*
X174939Y65666D01*
X177061D01*
X179021Y66478D01*
X180522Y67979D01*
X181334Y69939D01*
Y72061D01*
X180522Y74022D01*
X179021Y75522D01*
X177061Y76334D01*
D02*
G37*
G36*
X224061D02*
X221939D01*
X219979Y75522D01*
X218500Y74043D01*
X217022Y75522D01*
X215061Y76334D01*
X212939D01*
X210979Y75522D01*
X210000Y74543D01*
X209021Y75522D01*
X207061Y76334D01*
X204939D01*
X202978Y75522D01*
X201478Y74022D01*
X200666Y72061D01*
Y69939D01*
X201478Y67979D01*
X202978Y66478D01*
X204939Y65666D01*
X207061D01*
X209021Y66478D01*
X210000Y67457D01*
X210979Y66478D01*
X212939Y65666D01*
X215061D01*
X217022Y66478D01*
X218500Y67957D01*
X219979Y66478D01*
X221939Y65666D01*
X224061D01*
X226021Y66478D01*
X227522Y67979D01*
X228334Y69939D01*
Y72061D01*
X227522Y74022D01*
X226021Y75522D01*
X224061Y76334D01*
D02*
G37*
G36*
X122061Y71334D02*
X119939D01*
X117979Y70522D01*
X116478Y69022D01*
X115666Y67061D01*
Y64939D01*
X116478Y62979D01*
X117957Y61500D01*
X116478Y60021D01*
X116187Y59320D01*
X114813D01*
X114522Y60021D01*
X113021Y61522D01*
X111061Y62334D01*
X108939D01*
X106979Y61522D01*
X105478Y60021D01*
X104666Y58061D01*
Y55939D01*
X105478Y53979D01*
X106979Y52478D01*
X108939Y51666D01*
X111061D01*
X113021Y52478D01*
X114522Y53979D01*
X114813Y54680D01*
X116187D01*
X116478Y53979D01*
X117979Y52478D01*
X119939Y51666D01*
X122061D01*
X124022Y52478D01*
X125522Y53979D01*
X126334Y55939D01*
Y58061D01*
X125522Y60021D01*
X124043Y61500D01*
X125522Y62979D01*
X126334Y64939D01*
Y67061D01*
X125522Y69022D01*
X124022Y70522D01*
X122061Y71334D01*
D02*
G37*
G36*
X85061Y59334D02*
X82939D01*
X80979Y58522D01*
X79478Y57021D01*
X78666Y55061D01*
Y52939D01*
X79478Y50978D01*
X80979Y49478D01*
X82939Y48666D01*
X84463D01*
X85252Y47475D01*
X84666Y46061D01*
Y43939D01*
X85478Y41979D01*
X86979Y40478D01*
X88939Y39666D01*
X91061D01*
X93021Y40478D01*
X94522Y41979D01*
X95334Y43939D01*
Y46061D01*
X94522Y48021D01*
X93021Y49522D01*
X91061Y50334D01*
X89537D01*
X88748Y51525D01*
X89334Y52939D01*
Y55061D01*
X88522Y57021D01*
X87022Y58522D01*
X85061Y59334D01*
D02*
G37*
G36*
X61061Y33334D02*
X58939D01*
X56979Y32522D01*
X55478Y31021D01*
X54666Y29061D01*
Y26939D01*
X55478Y24978D01*
X56979Y23478D01*
X58939Y22666D01*
X61061D01*
X63021Y23478D01*
X64522Y24978D01*
X65334Y26939D01*
Y29061D01*
X64522Y31021D01*
X63021Y32522D01*
X61061Y33334D01*
D02*
G37*
G36*
X166061Y12334D02*
X163939D01*
X161978Y11522D01*
X160774Y10317D01*
X160000Y10135D01*
X159226Y10317D01*
X158021Y11522D01*
X156061Y12334D01*
X153939D01*
X151979Y11522D01*
X150478Y10022D01*
X149666Y8061D01*
Y5939D01*
X150478Y3979D01*
X151457Y3000D01*
X150478Y2022D01*
X149666Y61D01*
Y-2061D01*
X150478Y-4022D01*
X151979Y-5522D01*
X153939Y-6334D01*
X156061D01*
X158021Y-5522D01*
X159226Y-4317D01*
X160000Y-4135D01*
X160774Y-4317D01*
X161978Y-5522D01*
X163939Y-6334D01*
X166061D01*
X168022Y-5522D01*
X169522Y-4022D01*
X170334Y-2061D01*
Y61D01*
X169522Y2022D01*
X168543Y3000D01*
X169522Y3979D01*
X170334Y5939D01*
Y8061D01*
X169522Y10022D01*
X168022Y11522D01*
X166061Y12334D01*
D02*
G37*
G36*
X125061Y7334D02*
X122939D01*
X121000Y6531D01*
X119061Y7334D01*
X116939D01*
X115000Y6531D01*
X113061Y7334D01*
X110939D01*
X109000Y6531D01*
X107061Y7334D01*
X104939D01*
X103000Y6531D01*
X101061Y7334D01*
X98939D01*
X96979Y6522D01*
X95478Y5021D01*
X94666Y3061D01*
Y939D01*
X95478Y-1022D01*
X95957Y-1500D01*
X95478Y-1979D01*
X94666Y-3939D01*
Y-6061D01*
X95478Y-8021D01*
X96457Y-9000D01*
X95478Y-9979D01*
X94666Y-11939D01*
Y-14061D01*
X95478Y-16021D01*
X96979Y-17522D01*
X98939Y-18334D01*
X101061D01*
X103000Y-17531D01*
X104939Y-18334D01*
X107061D01*
X109000Y-17531D01*
X110939Y-18334D01*
X113061D01*
X115000Y-17531D01*
X116939Y-18334D01*
X119061D01*
X121000Y-17531D01*
X122939Y-18334D01*
X125061D01*
X127022Y-17522D01*
X128522Y-16021D01*
X129334Y-14061D01*
Y-11939D01*
X128522Y-9979D01*
X127543Y-9000D01*
X128522Y-8021D01*
X129334Y-6061D01*
Y-3939D01*
X128522Y-1979D01*
X128043Y-1500D01*
X128522Y-1022D01*
X129334Y939D01*
Y3061D01*
X128522Y5021D01*
X127022Y6522D01*
X125061Y7334D01*
D02*
G37*
G36*
X137061Y13334D02*
X134939D01*
X132979Y12522D01*
X131478Y11021D01*
X130666Y9061D01*
Y6939D01*
X131478Y4979D01*
X132979Y3478D01*
X134939Y2666D01*
X137061D01*
X139022Y3478D01*
X140522Y4979D01*
X141334Y6939D01*
Y9061D01*
X140522Y11021D01*
X139022Y12522D01*
X137061Y13334D01*
D02*
G37*
G36*
X83338Y7057D02*
X81216D01*
X79256Y6245D01*
X77755Y4744D01*
X76943Y2784D01*
Y662D01*
X77755Y-1299D01*
X79256Y-2799D01*
X81216Y-3611D01*
X83338D01*
X85299Y-2799D01*
X86799Y-1299D01*
X87611Y662D01*
Y2784D01*
X86799Y4744D01*
X85299Y6245D01*
X83338Y7057D01*
D02*
G37*
G36*
X184746Y-6925D02*
X179245D01*
X179233Y-6928D01*
X179220Y-6925D01*
X178648Y-7044D01*
X178075Y-7158D01*
X178064Y-7165D01*
X178052Y-7168D01*
X177569Y-7496D01*
X177083Y-7821D01*
X177076Y-7832D01*
X177065Y-7839D01*
X176744Y-8328D01*
X176420Y-8813D01*
X176417Y-8826D01*
X176410Y-8837D01*
X176301Y-9412D01*
X176187Y-9984D01*
X176189Y-9997D01*
X176187Y-10009D01*
X176327Y-27009D01*
X176446Y-27582D01*
X176560Y-28155D01*
X176567Y-28165D01*
X176569Y-28178D01*
X176898Y-28661D01*
X177223Y-29147D01*
X177233Y-29154D01*
X177241Y-29165D01*
X177730Y-29486D01*
X178215Y-29810D01*
X178228Y-29813D01*
X178238Y-29820D01*
X178813Y-29929D01*
X179386Y-30043D01*
X184746D01*
X185916Y-29810D01*
X186908Y-29147D01*
X187571Y-28155D01*
X187804Y-26984D01*
Y-9984D01*
X187571Y-8813D01*
X186908Y-7821D01*
X185916Y-7158D01*
X184746Y-6925D01*
D02*
G37*
G36*
X60061Y-22666D02*
X57939D01*
X55979Y-23478D01*
X54478Y-24978D01*
X53666Y-26939D01*
Y-29061D01*
X54478Y-31021D01*
X55979Y-32522D01*
X57939Y-33334D01*
X60061D01*
X62021Y-32522D01*
X63522Y-31021D01*
X64334Y-29061D01*
Y-26939D01*
X63522Y-24978D01*
X62021Y-23478D01*
X60061Y-22666D01*
D02*
G37*
G36*
X158061Y-23666D02*
X155939D01*
X153979Y-24478D01*
X152478Y-25979D01*
X151666Y-27939D01*
Y-30061D01*
X152478Y-32021D01*
X153957Y-33500D01*
X152478Y-34978D01*
X151666Y-36939D01*
Y-39061D01*
X152478Y-41021D01*
X153146Y-41689D01*
X152914Y-43253D01*
X152837Y-43294D01*
X152022Y-42478D01*
X150061Y-41666D01*
X147939D01*
X145978Y-42478D01*
X144478Y-43979D01*
X143666Y-45939D01*
Y-48061D01*
X144478Y-50022D01*
X145957Y-51500D01*
X144478Y-52979D01*
X143666Y-54939D01*
Y-57061D01*
X144478Y-59021D01*
X145978Y-60522D01*
X147939Y-61334D01*
X150061D01*
X152022Y-60522D01*
X153522Y-59021D01*
X154334Y-57061D01*
Y-54939D01*
X153522Y-52979D01*
X152043Y-51500D01*
X153500Y-50043D01*
X154979Y-51522D01*
X156939Y-52334D01*
X159061D01*
X161021Y-51522D01*
X162522Y-50022D01*
X163334Y-48061D01*
Y-45939D01*
X162522Y-43979D01*
X161021Y-42478D01*
X160863Y-41681D01*
X161226Y-41317D01*
X162000Y-41135D01*
X162774Y-41317D01*
X163979Y-42522D01*
X165939Y-43334D01*
X168061D01*
X170021Y-42522D01*
X171522Y-41021D01*
X172334Y-39061D01*
Y-36939D01*
X171522Y-34978D01*
X170021Y-33478D01*
X168061Y-32666D01*
X165939D01*
X163979Y-33478D01*
X162774Y-34683D01*
X162000Y-34866D01*
X161226Y-34683D01*
X160043Y-33500D01*
X161522Y-32021D01*
X162334Y-30061D01*
Y-27939D01*
X161522Y-25979D01*
X160021Y-24478D01*
X158061Y-23666D01*
D02*
G37*
G36*
X214307Y-51535D02*
X212185D01*
X210224Y-52347D01*
X208724Y-53847D01*
X208638Y-54053D01*
X207140Y-54351D01*
X206267Y-53478D01*
X204307Y-52666D01*
X202185D01*
X200224Y-53478D01*
X198724Y-54979D01*
X197911Y-56939D01*
Y-59061D01*
X198724Y-61021D01*
X200224Y-62522D01*
X202185Y-63334D01*
X204307D01*
X206267Y-62522D01*
X207768Y-61021D01*
X207853Y-60815D01*
X209351Y-60518D01*
X210224Y-61391D01*
X212185Y-62203D01*
X214307D01*
X216267Y-61391D01*
X216674Y-60984D01*
X218172Y-61282D01*
X218478Y-62021D01*
X219979Y-63522D01*
X221939Y-64334D01*
X224061D01*
X226021Y-63522D01*
X227522Y-62021D01*
X228334Y-60061D01*
Y-57939D01*
X227522Y-55979D01*
X226021Y-54478D01*
X224061Y-53666D01*
X221939D01*
X219979Y-54478D01*
X219572Y-54885D01*
X218074Y-54587D01*
X217768Y-53847D01*
X216267Y-52347D01*
X214307Y-51535D01*
D02*
G37*
G36*
X193061Y-58666D02*
X190939D01*
X188979Y-59478D01*
X187478Y-60978D01*
X186666Y-62939D01*
Y-65061D01*
X187478Y-67021D01*
X188979Y-68522D01*
X190939Y-69334D01*
X193061D01*
X195021Y-68522D01*
X196522Y-67021D01*
X197334Y-65061D01*
Y-62939D01*
X196522Y-60978D01*
X195021Y-59478D01*
X193061Y-58666D01*
D02*
G37*
G36*
X18061Y-77666D02*
X15939D01*
X13979Y-78478D01*
X12478Y-79979D01*
X11666Y-81939D01*
Y-84061D01*
X12478Y-86021D01*
X13979Y-87522D01*
X15939Y-88334D01*
X18061D01*
X20021Y-87522D01*
X21522Y-86021D01*
X22334Y-84061D01*
Y-81939D01*
X21522Y-79979D01*
X20021Y-78478D01*
X18061Y-77666D01*
D02*
G37*
G36*
X167061Y-83666D02*
X164939D01*
X162978Y-84478D01*
X161478Y-85978D01*
X160666Y-87939D01*
Y-90061D01*
X161478Y-92022D01*
X162978Y-93522D01*
X164939Y-94334D01*
X167061D01*
X169021Y-93522D01*
X170522Y-92022D01*
X171334Y-90061D01*
Y-87939D01*
X170522Y-85978D01*
X169021Y-84478D01*
X167061Y-83666D01*
D02*
G37*
G36*
X-96939Y-106666D02*
X-99061D01*
X-101021Y-107478D01*
X-102522Y-108979D01*
X-103334Y-110939D01*
Y-113061D01*
X-102522Y-115021D01*
X-101021Y-116522D01*
X-99061Y-117334D01*
X-96939D01*
X-94979Y-116522D01*
X-93478Y-115021D01*
X-92666Y-113061D01*
Y-110939D01*
X-93478Y-108979D01*
X-94979Y-107478D01*
X-96939Y-106666D01*
D02*
G37*
G36*
X-49939Y-108666D02*
X-52061D01*
X-54022Y-109478D01*
X-55522Y-110978D01*
X-56334Y-112939D01*
Y-115061D01*
X-55522Y-117022D01*
X-54022Y-118522D01*
X-52061Y-119334D01*
X-49939D01*
X-47979Y-118522D01*
X-46478Y-117022D01*
X-45666Y-115061D01*
Y-112939D01*
X-46478Y-110978D01*
X-47979Y-109478D01*
X-49939Y-108666D01*
D02*
G37*
G36*
X190012Y-110471D02*
X187889D01*
X185929Y-111283D01*
X184429Y-112783D01*
X183617Y-114744D01*
Y-116866D01*
X184429Y-118826D01*
X185929Y-120327D01*
X187889Y-121139D01*
X190012D01*
X191972Y-120327D01*
X193472Y-118826D01*
X194284Y-116866D01*
Y-114744D01*
X193472Y-112783D01*
X191972Y-111283D01*
X190012Y-110471D01*
D02*
G37*
G36*
X-78939Y-115666D02*
X-81061D01*
X-83021Y-116478D01*
X-84522Y-117979D01*
X-85334Y-119939D01*
Y-122061D01*
X-84522Y-124022D01*
X-83021Y-125522D01*
X-81061Y-126334D01*
X-78939D01*
X-76979Y-125522D01*
X-75579Y-124122D01*
X-75145Y-124101D01*
X-74227Y-124320D01*
X-73522Y-126021D01*
X-72021Y-127522D01*
X-70061Y-128334D01*
X-67939D01*
X-65978Y-127522D01*
X-64478Y-126021D01*
X-63666Y-124061D01*
Y-121939D01*
X-64478Y-119979D01*
X-65978Y-118478D01*
X-67939Y-117666D01*
X-70061D01*
X-72021Y-118478D01*
X-73421Y-119878D01*
X-73855Y-119899D01*
X-74773Y-119680D01*
X-75478Y-117979D01*
X-76979Y-116478D01*
X-78939Y-115666D01*
D02*
G37*
G36*
X164061Y-121666D02*
X161939D01*
X159979Y-122478D01*
X158478Y-123979D01*
X157666Y-125939D01*
Y-128061D01*
X158478Y-130021D01*
X159957Y-131500D01*
X158478Y-132979D01*
X157666Y-134939D01*
Y-137061D01*
X158478Y-139022D01*
X159683Y-140226D01*
X159866Y-141000D01*
X159683Y-141774D01*
X158478Y-142978D01*
X157666Y-144939D01*
Y-147061D01*
X158478Y-149021D01*
X159683Y-150226D01*
X159866Y-151000D01*
X159683Y-151774D01*
X158478Y-152978D01*
X157666Y-154939D01*
Y-157061D01*
X158478Y-159021D01*
X159979Y-160522D01*
X160680Y-160813D01*
Y-162187D01*
X159979Y-162478D01*
X158478Y-163979D01*
X157666Y-165939D01*
Y-168061D01*
X158478Y-170021D01*
X159683Y-171226D01*
X159866Y-172000D01*
X159683Y-172774D01*
X158478Y-173979D01*
X157666Y-175939D01*
Y-178061D01*
X158478Y-180021D01*
X159979Y-181522D01*
X161939Y-182334D01*
X164061D01*
X166021Y-181522D01*
X167522Y-180021D01*
X168334Y-178061D01*
Y-175939D01*
X167522Y-173979D01*
X166317Y-172774D01*
X166134Y-172000D01*
X166317Y-171226D01*
X167522Y-170021D01*
X168334Y-168061D01*
Y-165939D01*
X167522Y-163979D01*
X166021Y-162478D01*
X165320Y-162187D01*
Y-160813D01*
X166021Y-160522D01*
X167522Y-159021D01*
X168334Y-157061D01*
Y-154939D01*
X167522Y-152978D01*
X166317Y-151774D01*
X166134Y-151000D01*
X166317Y-150226D01*
X167522Y-149021D01*
X168334Y-147061D01*
Y-144939D01*
X167522Y-142978D01*
X166317Y-141774D01*
X166134Y-141000D01*
X166317Y-140226D01*
X167522Y-139022D01*
X168334Y-137061D01*
Y-134939D01*
X167522Y-132979D01*
X166043Y-131500D01*
X167522Y-130021D01*
X168334Y-128061D01*
Y-125939D01*
X167522Y-123979D01*
X166021Y-122478D01*
X164061Y-121666D01*
D02*
G37*
G36*
X219061Y-180666D02*
X216939D01*
X214979Y-181478D01*
X213478Y-182979D01*
X212666Y-184939D01*
Y-187061D01*
X213478Y-189021D01*
X214979Y-190522D01*
X216939Y-191334D01*
X219061D01*
X221021Y-190522D01*
X222522Y-189021D01*
X223334Y-187061D01*
Y-184939D01*
X222522Y-182979D01*
X221021Y-181478D01*
X219061Y-180666D01*
D02*
G37*
G36*
X206061D02*
X203939D01*
X201978Y-181478D01*
X200478Y-182979D01*
X199666Y-184939D01*
Y-187061D01*
X200478Y-189021D01*
X201978Y-190522D01*
X203939Y-191334D01*
X206061D01*
X208022Y-190522D01*
X209522Y-189021D01*
X210334Y-187061D01*
Y-184939D01*
X209522Y-182979D01*
X208022Y-181478D01*
X206061Y-180666D01*
D02*
G37*
G36*
X133061Y-185666D02*
X130939D01*
X128979Y-186478D01*
X127478Y-187978D01*
X126666Y-189939D01*
Y-192061D01*
X127478Y-194021D01*
X128979Y-195522D01*
X130939Y-196334D01*
X133061D01*
X135021Y-195522D01*
X136522Y-194021D01*
X137334Y-192061D01*
Y-189939D01*
X136522Y-187978D01*
X135021Y-186478D01*
X133061Y-185666D01*
D02*
G37*
G36*
X411061Y314334D02*
X408939D01*
X406978Y313522D01*
X405478Y312021D01*
X404666Y310061D01*
Y307939D01*
X405478Y305979D01*
X406978Y304478D01*
X408939Y303666D01*
X411061D01*
X413021Y304478D01*
X414522Y305979D01*
X415334Y307939D01*
Y310061D01*
X414522Y312021D01*
X413021Y313522D01*
X411061Y314334D01*
D02*
G37*
G36*
X489061Y132334D02*
X486939D01*
X484978Y131522D01*
X483478Y130021D01*
X482666Y128061D01*
Y125939D01*
X482873Y125439D01*
X482386Y124915D01*
X481849Y124593D01*
X480061Y125334D01*
X477939D01*
X475979Y124522D01*
X475000Y123543D01*
X474021Y124522D01*
X472061Y125334D01*
X469939D01*
X467979Y124522D01*
X466478Y123021D01*
X465666Y121061D01*
Y118939D01*
X466478Y116979D01*
X467979Y115478D01*
X469939Y114666D01*
X472061D01*
X474021Y115478D01*
X475000Y116457D01*
X475979Y115478D01*
X477939Y114666D01*
X480061D01*
X482021Y115478D01*
X483522Y116979D01*
X484334Y118939D01*
Y121061D01*
X484127Y121561D01*
X484614Y122085D01*
X485151Y122407D01*
X486939Y121666D01*
X489061D01*
X491021Y122478D01*
X492522Y123979D01*
X493334Y125939D01*
Y128061D01*
X492522Y130021D01*
X491021Y131522D01*
X489061Y132334D01*
D02*
G37*
G36*
X525061Y114334D02*
X522939D01*
X520979Y113522D01*
X519478Y112022D01*
X518666Y110061D01*
Y107939D01*
X519478Y105979D01*
X520979Y104478D01*
X522939Y103666D01*
X525061D01*
X527021Y104478D01*
X528522Y105979D01*
X529334Y107939D01*
Y110061D01*
X528522Y112022D01*
X527021Y113522D01*
X525061Y114334D01*
D02*
G37*
G36*
X496061Y113334D02*
X493939D01*
X491978Y112522D01*
X490478Y111021D01*
X489666Y109061D01*
Y106939D01*
X490478Y104979D01*
X491978Y103478D01*
X493939Y102666D01*
X496061D01*
X498022Y103478D01*
X499522Y104979D01*
X500334Y106939D01*
Y109061D01*
X499522Y111021D01*
X498022Y112522D01*
X496061Y113334D01*
D02*
G37*
G36*
X428061Y115334D02*
X425939D01*
X423979Y114522D01*
X422478Y113021D01*
X421666Y111061D01*
Y108939D01*
X422478Y106979D01*
X423979Y105478D01*
X425939Y104666D01*
X428061D01*
X430022Y105478D01*
X431421Y106878D01*
X431855Y106899D01*
X432773Y106680D01*
X433478Y104979D01*
X434978Y103478D01*
X436939Y102666D01*
X439061D01*
X441021Y103478D01*
X442522Y104979D01*
X443334Y106939D01*
Y109061D01*
X442522Y111021D01*
X441021Y112522D01*
X439061Y113334D01*
X436939D01*
X434978Y112522D01*
X433579Y111122D01*
X433145Y111101D01*
X432227Y111320D01*
X431522Y113021D01*
X430022Y114522D01*
X428061Y115334D01*
D02*
G37*
G36*
X450061Y103334D02*
X447939D01*
X445979Y102522D01*
X444478Y101021D01*
X443666Y99061D01*
Y96939D01*
X444478Y94979D01*
X445979Y93478D01*
X447939Y92666D01*
X450061D01*
X452021Y93478D01*
X453522Y94979D01*
X454334Y96939D01*
Y99061D01*
X453522Y101021D01*
X452021Y102522D01*
X450061Y103334D01*
D02*
G37*
G36*
Y70334D02*
X447939D01*
X445979Y69522D01*
X444478Y68021D01*
X443666Y66061D01*
Y63939D01*
X444478Y61979D01*
X445979Y60478D01*
X447939Y59666D01*
X450061D01*
X452021Y60478D01*
X453522Y61979D01*
X454334Y63939D01*
Y66061D01*
X453522Y68021D01*
X452021Y69522D01*
X450061Y70334D01*
D02*
G37*
G36*
X506061Y59334D02*
X503939D01*
X501978Y58522D01*
X500478Y57021D01*
X499666Y55061D01*
Y52939D01*
X500478Y50978D01*
X501978Y49478D01*
X503939Y48666D01*
X506061D01*
X508022Y49478D01*
X509522Y50978D01*
X510334Y52939D01*
Y55061D01*
X509522Y57021D01*
X508022Y58522D01*
X506061Y59334D01*
D02*
G37*
G36*
X625061Y-70666D02*
X622939D01*
X620979Y-71478D01*
X619478Y-72979D01*
X618666Y-74939D01*
Y-77061D01*
X619478Y-79022D01*
X620979Y-80522D01*
X622939Y-81334D01*
X625061D01*
X627021Y-80522D01*
X628522Y-79022D01*
X629334Y-77061D01*
Y-74939D01*
X628522Y-72979D01*
X627021Y-71478D01*
X625061Y-70666D01*
D02*
G37*
G36*
X471061Y231334D02*
X468939D01*
X466978Y230522D01*
X465478Y229021D01*
X464666Y227061D01*
Y224939D01*
X465478Y222978D01*
X466978Y221478D01*
X468939Y220666D01*
X471061D01*
X473022Y221478D01*
X474522Y222978D01*
X475334Y224939D01*
Y227061D01*
X474522Y229021D01*
X473022Y230522D01*
X471061Y231334D01*
D02*
G37*
G36*
X485061Y224334D02*
X482939D01*
X480979Y223522D01*
X479478Y222022D01*
X478666Y220061D01*
Y217939D01*
X479478Y215979D01*
X480979Y214478D01*
X481137Y213681D01*
X480478Y213022D01*
X479666Y211061D01*
Y208939D01*
X480478Y206979D01*
X481978Y205478D01*
X483939Y204666D01*
X486061D01*
X488022Y205478D01*
X489522Y206979D01*
X490334Y208939D01*
Y211061D01*
X489522Y213022D01*
X488022Y214522D01*
X487863Y215319D01*
X488522Y215979D01*
X489334Y217939D01*
Y220061D01*
X488522Y222022D01*
X487021Y223522D01*
X485061Y224334D01*
D02*
G37*
G36*
X500061Y209334D02*
X497939D01*
X495979Y208522D01*
X494478Y207022D01*
X493666Y205061D01*
Y202939D01*
X494478Y200979D01*
X495979Y199478D01*
X497939Y198666D01*
X500061D01*
X502021Y199478D01*
X503522Y200979D01*
X504334Y202939D01*
Y205061D01*
X503522Y207022D01*
X502021Y208522D01*
X500061Y209334D01*
D02*
G37*
G36*
X485061Y182334D02*
X482939D01*
X480979Y181522D01*
X479478Y180021D01*
X478666Y178061D01*
Y175939D01*
X479478Y173979D01*
X480979Y172478D01*
X482939Y171666D01*
X485061D01*
X487021Y172478D01*
X488522Y173979D01*
X489334Y175939D01*
Y178061D01*
X488522Y180021D01*
X487021Y181522D01*
X485061Y182334D01*
D02*
G37*
G36*
X326056Y175870D02*
X323934D01*
X321974Y175058D01*
X320473Y173557D01*
X319661Y171597D01*
Y169475D01*
X320473Y167514D01*
X321974Y166014D01*
X323934Y165202D01*
X326056D01*
X328017Y166014D01*
X329517Y167514D01*
X330329Y169475D01*
Y171597D01*
X329517Y173557D01*
X328017Y175058D01*
X326056Y175870D01*
D02*
G37*
G36*
X361061Y174334D02*
X358939D01*
X356978Y173522D01*
X355478Y172021D01*
X354666Y170061D01*
Y167939D01*
X355478Y165979D01*
X356978Y164478D01*
X358939Y163666D01*
X361061D01*
X363021Y164478D01*
X364522Y165979D01*
X365334Y167939D01*
Y170061D01*
X364522Y172021D01*
X363021Y173522D01*
X361061Y174334D01*
D02*
G37*
G36*
X340061Y151334D02*
X337939D01*
X335979Y150522D01*
X334478Y149021D01*
X333666Y147061D01*
Y144939D01*
X334478Y142978D01*
X335979Y141478D01*
X337939Y140666D01*
X340061D01*
X342021Y141478D01*
X343522Y142978D01*
X344334Y144939D01*
Y147061D01*
X343522Y149021D01*
X342021Y150522D01*
X340061Y151334D01*
D02*
G37*
G36*
X325061Y144334D02*
X322939D01*
X320979Y143522D01*
X319478Y142022D01*
X318666Y140061D01*
Y137939D01*
X319478Y135978D01*
X320979Y134478D01*
X322939Y133666D01*
X325061D01*
X327021Y134478D01*
X328522Y135978D01*
X329334Y137939D01*
Y140061D01*
X328522Y142022D01*
X327021Y143522D01*
X325061Y144334D01*
D02*
G37*
G36*
X354061Y91334D02*
X351939D01*
X349978Y90522D01*
X348478Y89022D01*
X347666Y87061D01*
Y84939D01*
X348478Y82978D01*
X349978Y81478D01*
X351939Y80666D01*
X354061D01*
X356021Y81478D01*
X357522Y82978D01*
X358334Y84939D01*
Y87061D01*
X357522Y89022D01*
X356021Y90522D01*
X354061Y91334D01*
D02*
G37*
G36*
X376381Y88014D02*
X374259D01*
X372299Y87202D01*
X370798Y85701D01*
X369986Y83741D01*
Y81619D01*
X370798Y79658D01*
X372299Y78158D01*
X374259Y77346D01*
X376381D01*
X378342Y78158D01*
X379842Y79658D01*
X380654Y81619D01*
Y83741D01*
X379842Y85701D01*
X378342Y87202D01*
X376381Y88014D01*
D02*
G37*
G36*
X326061Y57334D02*
X323939D01*
X321979Y56522D01*
X320478Y55022D01*
X319666Y53061D01*
Y50939D01*
X320478Y48979D01*
X321979Y47478D01*
X323939Y46666D01*
X326061D01*
X328022Y47478D01*
X329522Y48979D01*
X330334Y50939D01*
Y53061D01*
X329522Y55022D01*
X328022Y56522D01*
X326061Y57334D01*
D02*
G37*
G36*
X331061Y24334D02*
X328939D01*
X326978Y23522D01*
X326500Y23043D01*
X326021Y23522D01*
X324061Y24334D01*
X321939D01*
X319979Y23522D01*
X319000Y22543D01*
X318022Y23522D01*
X316061Y24334D01*
X313939D01*
X311978Y23522D01*
X310478Y22021D01*
X309666Y20061D01*
Y17939D01*
X310478Y15978D01*
X310957Y15500D01*
X310478Y15022D01*
X309666Y13061D01*
Y10939D01*
X310478Y8978D01*
X310957Y8500D01*
X310478Y8021D01*
X309666Y6061D01*
Y3939D01*
X310478Y1979D01*
X310957Y1500D01*
X310478Y1022D01*
X309666Y-939D01*
Y-3061D01*
X310478Y-5021D01*
X311978Y-6522D01*
X313939Y-7334D01*
X316061D01*
X316642Y-7093D01*
X317306Y-7642D01*
X317666Y-8044D01*
Y-10061D01*
X318478Y-12021D01*
X318957Y-12500D01*
X317478Y-13979D01*
X316666Y-15939D01*
Y-18061D01*
X317478Y-20021D01*
X318292Y-20836D01*
X318217Y-22128D01*
X318080Y-22419D01*
X317978Y-22460D01*
X316061Y-21666D01*
X313939D01*
X311978Y-22478D01*
X311000Y-23457D01*
X310021Y-22478D01*
X308061Y-21666D01*
X305939D01*
X303979Y-22478D01*
X302478Y-23979D01*
X301666Y-25939D01*
Y-28061D01*
X302478Y-30022D01*
X303457Y-31000D01*
X302478Y-31978D01*
X301666Y-33939D01*
Y-36061D01*
X302478Y-38022D01*
X303979Y-39522D01*
X305939Y-40334D01*
X308061D01*
X310021Y-39522D01*
X311000Y-38543D01*
X311978Y-39522D01*
X313939Y-40334D01*
X316061D01*
X318022Y-39522D01*
X319000Y-38543D01*
X319979Y-39522D01*
X321939Y-40334D01*
X324061D01*
X326021Y-39522D01*
X327000Y-38543D01*
X327979Y-39522D01*
X329939Y-40334D01*
X332061D01*
X334021Y-39522D01*
X335000Y-38543D01*
X335979Y-39522D01*
X337939Y-40334D01*
X340061D01*
X342021Y-39522D01*
X343000Y-38543D01*
X343979Y-39522D01*
X345939Y-40334D01*
X348061D01*
X350021Y-39522D01*
X351000Y-38543D01*
X351978Y-39522D01*
X353939Y-40334D01*
X356061D01*
X358022Y-39522D01*
X359000Y-38543D01*
X359979Y-39522D01*
X361939Y-40334D01*
X364061D01*
X366021Y-39522D01*
X367000Y-38543D01*
X367979Y-39522D01*
X369939Y-40334D01*
X372061D01*
X374021Y-39522D01*
X374933Y-38610D01*
X376428Y-38900D01*
X376478Y-39021D01*
X377979Y-40522D01*
X379939Y-41334D01*
X382061D01*
X383396Y-40781D01*
X384666Y-41537D01*
Y-42061D01*
X385478Y-44022D01*
X385957Y-44500D01*
X385478Y-44978D01*
X384666Y-46939D01*
Y-49061D01*
X385478Y-51021D01*
X386979Y-52522D01*
X388939Y-53334D01*
X391061D01*
X393022Y-52522D01*
X394522Y-51021D01*
X395334Y-49061D01*
Y-46939D01*
X394522Y-44978D01*
X394043Y-44500D01*
X394522Y-44022D01*
X395334Y-42061D01*
Y-39939D01*
X394522Y-37978D01*
X393022Y-36478D01*
X391061Y-35666D01*
X388939D01*
X387604Y-36219D01*
X386334Y-35463D01*
Y-34939D01*
X385522Y-32978D01*
X384021Y-31478D01*
X382061Y-30666D01*
X379939D01*
X377979Y-31478D01*
X377067Y-32390D01*
X375572Y-32100D01*
X375522Y-31978D01*
X374543Y-31000D01*
X375522Y-30022D01*
X376334Y-28061D01*
Y-25939D01*
X375522Y-23979D01*
X374021Y-22478D01*
X372061Y-21666D01*
X369939D01*
X367979Y-22478D01*
X367000Y-23457D01*
X366021Y-22478D01*
X364061Y-21666D01*
X361939D01*
X359979Y-22478D01*
X359000Y-23457D01*
X358022Y-22478D01*
X356061Y-21666D01*
X353939D01*
X351978Y-22478D01*
X351000Y-23457D01*
X350021Y-22478D01*
X348061Y-21666D01*
X345939D01*
X343979Y-22478D01*
X343000Y-23457D01*
X342021Y-22478D01*
X340061Y-21666D01*
X337939D01*
X335979Y-22478D01*
X335000Y-23457D01*
X334021Y-22478D01*
X332061Y-21666D01*
X329939D01*
X327979Y-22478D01*
X327000Y-23457D01*
X326021Y-22478D01*
X325900Y-22428D01*
X325610Y-20933D01*
X326522Y-20021D01*
X327334Y-18061D01*
Y-15939D01*
X326522Y-13979D01*
X326043Y-13500D01*
X327522Y-12021D01*
X328334Y-10061D01*
Y-7939D01*
X327522Y-5979D01*
X327043Y-5500D01*
X327522Y-5021D01*
X328334Y-3061D01*
Y-939D01*
X327522Y1022D01*
X327043Y1500D01*
X327522Y1979D01*
X328334Y3939D01*
Y5542D01*
X328727Y6273D01*
X329458Y6666D01*
X331061D01*
X333022Y7478D01*
X334522Y8978D01*
X335334Y10939D01*
Y13061D01*
X334522Y15022D01*
X334043Y15500D01*
X334522Y15978D01*
X335334Y17939D01*
Y20061D01*
X334522Y22021D01*
X333022Y23522D01*
X331061Y24334D01*
D02*
G37*
G36*
X429525Y870D02*
X427403D01*
X425443Y58D01*
X423942Y-1443D01*
X423130Y-3403D01*
Y-5525D01*
X423942Y-7485D01*
X425443Y-8986D01*
X427403Y-9798D01*
X429525D01*
X431485Y-8986D01*
X432986Y-7485D01*
X433798Y-5525D01*
Y-3403D01*
X432986Y-1443D01*
X431485Y58D01*
X429525Y870D01*
D02*
G37*
G36*
X448061Y-6666D02*
X445939D01*
X443979Y-7478D01*
X442478Y-8978D01*
X441666Y-10939D01*
Y-13061D01*
X442478Y-15022D01*
X443979Y-16522D01*
X445939Y-17334D01*
X448061D01*
X450022Y-16522D01*
X451522Y-15022D01*
X452334Y-13061D01*
Y-10939D01*
X451522Y-8978D01*
X450022Y-7478D01*
X448061Y-6666D01*
D02*
G37*
G36*
X429061Y-16666D02*
X426939D01*
X424979Y-17478D01*
X423478Y-18979D01*
X422666Y-20939D01*
Y-23061D01*
X423478Y-25022D01*
X424979Y-26522D01*
X426939Y-27334D01*
X429061D01*
X431021Y-26522D01*
X432522Y-25022D01*
X433334Y-23061D01*
Y-20939D01*
X432522Y-18979D01*
X431021Y-17478D01*
X429061Y-16666D01*
D02*
G37*
G36*
X392245Y-6925D02*
X386745D01*
X385575Y-7158D01*
X384582Y-7821D01*
X383919Y-8813D01*
X383686Y-9984D01*
Y-26984D01*
X383919Y-28155D01*
X384582Y-29147D01*
X385575Y-29810D01*
X386745Y-30043D01*
X392245D01*
X393416Y-29810D01*
X394408Y-29147D01*
X395071Y-28155D01*
X395304Y-26984D01*
Y-9984D01*
X395071Y-8813D01*
X394408Y-7821D01*
X393416Y-7158D01*
X392245Y-6925D01*
D02*
G37*
G36*
X402061Y-30666D02*
X399939D01*
X397979Y-31478D01*
X396478Y-32978D01*
X395666Y-34939D01*
Y-37061D01*
X396478Y-39021D01*
X397979Y-40522D01*
X399939Y-41334D01*
X402061D01*
X404021Y-40522D01*
X405522Y-39021D01*
X406334Y-37061D01*
Y-34939D01*
X405522Y-32978D01*
X404021Y-31478D01*
X402061Y-30666D01*
D02*
G37*
G36*
X416061Y-32666D02*
X413939D01*
X411979Y-33478D01*
X410478Y-34978D01*
X409666Y-36939D01*
Y-39061D01*
X410478Y-41021D01*
X411979Y-42522D01*
X413939Y-43334D01*
X416061D01*
X418022Y-42522D01*
X419522Y-41021D01*
X420334Y-39061D01*
Y-36939D01*
X419522Y-34978D01*
X418022Y-33478D01*
X416061Y-32666D01*
D02*
G37*
G36*
X464061Y-36666D02*
X461939D01*
X459978Y-37478D01*
X458478Y-38979D01*
X457666Y-40939D01*
Y-43061D01*
X458478Y-45021D01*
X459978Y-46522D01*
X461939Y-47334D01*
X464061D01*
X466021Y-46522D01*
X467522Y-45021D01*
X468334Y-43061D01*
Y-40939D01*
X467522Y-38979D01*
X466021Y-37478D01*
X464061Y-36666D01*
D02*
G37*
G36*
X400011Y-65471D02*
X397890D01*
X395929Y-66283D01*
X394429Y-67783D01*
X394138Y-68485D01*
X392763D01*
X392472Y-67783D01*
X390972Y-66283D01*
X389011Y-65471D01*
X386889D01*
X384929Y-66283D01*
X383429Y-67783D01*
X382617Y-69744D01*
Y-71866D01*
X383429Y-73826D01*
X384907Y-75305D01*
X383429Y-76783D01*
X382617Y-78744D01*
Y-80866D01*
X383429Y-82826D01*
X384529Y-83927D01*
X383478Y-84979D01*
X382666Y-86939D01*
Y-89061D01*
X383478Y-91021D01*
X384979Y-92522D01*
X386939Y-93334D01*
X389061D01*
X391021Y-92522D01*
X392522Y-91021D01*
X392813Y-90320D01*
X394187D01*
X394478Y-91021D01*
X395979Y-92522D01*
X397939Y-93334D01*
X400061D01*
X402021Y-92522D01*
X403522Y-91021D01*
X404334Y-89061D01*
Y-86939D01*
X403522Y-84979D01*
X402421Y-83878D01*
X403472Y-82826D01*
X404285Y-80866D01*
Y-78744D01*
X403472Y-76783D01*
X401994Y-75305D01*
X403472Y-73826D01*
X404285Y-71866D01*
Y-69744D01*
X403472Y-67783D01*
X401972Y-66283D01*
X400011Y-65471D01*
D02*
G37*
G36*
X434061Y-54666D02*
X431939D01*
X429978Y-55478D01*
X428478Y-56979D01*
X427666Y-58939D01*
Y-61061D01*
X428478Y-63021D01*
X429978Y-64522D01*
X430188Y-64609D01*
X430684Y-66189D01*
X430166Y-67439D01*
Y-69561D01*
X430978Y-71521D01*
X432478Y-73022D01*
X434439Y-73834D01*
X436561D01*
X438521Y-73022D01*
X440022Y-71521D01*
X440834Y-69561D01*
Y-67439D01*
X440022Y-65479D01*
X438521Y-63978D01*
X438312Y-63891D01*
X437816Y-62311D01*
X438334Y-61061D01*
Y-58939D01*
X437522Y-56979D01*
X436021Y-55478D01*
X434061Y-54666D01*
D02*
G37*
G36*
X346061Y-63666D02*
X343939D01*
X341978Y-64478D01*
X340478Y-65978D01*
X339666Y-67939D01*
Y-70061D01*
X340478Y-72021D01*
X341978Y-73522D01*
X343939Y-74334D01*
X346061D01*
X348022Y-73522D01*
X349522Y-72021D01*
X350334Y-70061D01*
Y-67939D01*
X349522Y-65978D01*
X348022Y-64478D01*
X346061Y-63666D01*
D02*
G37*
G36*
X443061Y-74666D02*
X440939D01*
X438979Y-75478D01*
X437478Y-76979D01*
X436666Y-78939D01*
Y-81061D01*
X437478Y-83021D01*
X438979Y-84522D01*
X440939Y-85334D01*
X443061D01*
X445022Y-84522D01*
X446522Y-83021D01*
X447334Y-81061D01*
Y-78939D01*
X446522Y-76979D01*
X445022Y-75478D01*
X443061Y-74666D01*
D02*
G37*
G36*
X484931Y-61150D02*
X482469D01*
X480091Y-61787D01*
X477959Y-63018D01*
X476218Y-64759D01*
X474987Y-66891D01*
X474350Y-69269D01*
Y-71731D01*
X474987Y-74109D01*
X476218Y-76241D01*
X477138Y-77161D01*
X477942Y-78000D01*
X477138Y-78839D01*
X476218Y-79759D01*
X474987Y-81891D01*
X474350Y-84269D01*
Y-86731D01*
X474987Y-89109D01*
X476218Y-91241D01*
X477138Y-92161D01*
X477942Y-93000D01*
X477138Y-93839D01*
X476218Y-94759D01*
X474987Y-96891D01*
X474350Y-99269D01*
Y-101731D01*
X474987Y-104109D01*
X476218Y-106241D01*
X477138Y-107161D01*
X477942Y-108000D01*
X477138Y-108839D01*
X476218Y-109759D01*
X474987Y-111891D01*
X474350Y-114269D01*
Y-116731D01*
X474987Y-119109D01*
X476218Y-121241D01*
X477138Y-122161D01*
X477942Y-123000D01*
X477138Y-123839D01*
X476218Y-124759D01*
X474987Y-126891D01*
X474350Y-129269D01*
Y-131731D01*
X474987Y-134109D01*
X476218Y-136241D01*
X477138Y-137161D01*
X477942Y-138000D01*
X477138Y-138839D01*
X476218Y-139759D01*
X474987Y-141891D01*
X474350Y-144269D01*
Y-146731D01*
X474987Y-149109D01*
X476218Y-151241D01*
X477959Y-152982D01*
X480091Y-154213D01*
X482469Y-154850D01*
X484931D01*
X487309Y-154213D01*
X489441Y-152982D01*
X491182Y-151241D01*
X492413Y-149109D01*
X493050Y-146731D01*
Y-144269D01*
X492413Y-141891D01*
X491182Y-139759D01*
X490262Y-138839D01*
X489458Y-138000D01*
X490262Y-137161D01*
X491182Y-136241D01*
X492413Y-134109D01*
X493050Y-131731D01*
Y-129269D01*
X492413Y-126891D01*
X491182Y-124759D01*
X490262Y-123839D01*
X489458Y-123000D01*
X490262Y-122161D01*
X491182Y-121241D01*
X492413Y-119109D01*
X493050Y-116731D01*
Y-114269D01*
X492413Y-111891D01*
X491182Y-109759D01*
X490262Y-108839D01*
X489459Y-108000D01*
X490262Y-107161D01*
X491182Y-106241D01*
X492413Y-104109D01*
X493050Y-101731D01*
Y-99269D01*
X492413Y-96891D01*
X491182Y-94759D01*
X490262Y-93839D01*
X489458Y-93000D01*
X490262Y-92161D01*
X491182Y-91241D01*
X492413Y-89109D01*
X492911Y-87250D01*
X493260Y-87012D01*
X494086Y-86676D01*
X494320Y-86663D01*
X495939Y-87334D01*
X498061D01*
X500022Y-86522D01*
X501522Y-85021D01*
X502334Y-83061D01*
Y-80939D01*
X501522Y-78979D01*
X500043Y-77500D01*
X501522Y-76021D01*
X502334Y-74061D01*
Y-71939D01*
X501522Y-69978D01*
X500022Y-68478D01*
X498061Y-67666D01*
X495939D01*
X494135Y-68413D01*
X493780Y-68398D01*
X492700Y-67961D01*
X492413Y-66891D01*
X491182Y-64759D01*
X489441Y-63018D01*
X487309Y-61787D01*
X484931Y-61150D01*
D02*
G37*
G36*
X334011Y-63471D02*
X331889D01*
X329929Y-64283D01*
X328429Y-65783D01*
X327617Y-67744D01*
Y-69866D01*
X328429Y-71826D01*
X329907Y-73305D01*
X328429Y-74783D01*
X327617Y-76744D01*
Y-78866D01*
X328429Y-80826D01*
X329907Y-82305D01*
X328429Y-83783D01*
X327617Y-85744D01*
Y-87866D01*
X328429Y-89826D01*
X329907Y-91305D01*
X328429Y-92783D01*
X327617Y-94744D01*
Y-96866D01*
X328429Y-98826D01*
X329929Y-100327D01*
X331889Y-101139D01*
X334011D01*
X335972Y-100327D01*
X337472Y-98826D01*
X338284Y-96866D01*
Y-94744D01*
X337472Y-92783D01*
X335994Y-91305D01*
X337472Y-89826D01*
X338284Y-87866D01*
Y-85744D01*
X337472Y-83783D01*
X335994Y-82305D01*
X337472Y-80826D01*
X338284Y-78866D01*
Y-76744D01*
X337472Y-74783D01*
X335994Y-73305D01*
X337472Y-71826D01*
X338284Y-69866D01*
Y-67744D01*
X337472Y-65783D01*
X335972Y-64283D01*
X334011Y-63471D01*
D02*
G37*
G36*
X336012Y-109471D02*
X333890D01*
X331929Y-110283D01*
X331451Y-110761D01*
X330972Y-110283D01*
X329011Y-109471D01*
X326889D01*
X324929Y-110283D01*
X323429Y-111783D01*
X322617Y-113744D01*
Y-115866D01*
X323429Y-117826D01*
X323907Y-118305D01*
X323429Y-118783D01*
X322617Y-120744D01*
Y-122866D01*
X323429Y-124826D01*
X323907Y-125305D01*
X323429Y-125783D01*
X322617Y-127744D01*
Y-129866D01*
X323429Y-131826D01*
X324929Y-133327D01*
X326889Y-134139D01*
X329011D01*
X330972Y-133327D01*
X331451Y-132848D01*
X331929Y-133327D01*
X333890Y-134139D01*
X336012D01*
X337972Y-133327D01*
X339472Y-131826D01*
X340285Y-129866D01*
Y-127744D01*
X339472Y-125783D01*
X338994Y-125305D01*
X339472Y-124826D01*
X340285Y-122866D01*
Y-120744D01*
X339472Y-118783D01*
X338994Y-118305D01*
X339472Y-117826D01*
X340285Y-115866D01*
Y-113744D01*
X339472Y-111783D01*
X337972Y-110283D01*
X336012Y-109471D01*
D02*
G37*
G36*
X258011D02*
X255889D01*
X253929Y-110283D01*
X252950Y-111262D01*
X251972Y-110283D01*
X250012Y-109471D01*
X247889D01*
X245929Y-110283D01*
X244429Y-111783D01*
X243617Y-113744D01*
Y-115866D01*
X244429Y-117826D01*
X245907Y-119305D01*
X244429Y-120783D01*
X243617Y-122744D01*
Y-124866D01*
X244429Y-126826D01*
X245907Y-128305D01*
X244429Y-129783D01*
X243617Y-131744D01*
Y-133866D01*
X244429Y-135826D01*
X245407Y-136805D01*
X244429Y-137783D01*
X243617Y-139744D01*
Y-141866D01*
X244429Y-143826D01*
X245929Y-145327D01*
X247889Y-146139D01*
X250012D01*
X251972Y-145327D01*
X252950Y-144348D01*
X253929Y-145327D01*
X255889Y-146139D01*
X258011D01*
X259972Y-145327D01*
X261472Y-143826D01*
X262285Y-141866D01*
Y-139744D01*
X261472Y-137783D01*
X260494Y-136805D01*
X261472Y-135826D01*
X262285Y-133866D01*
Y-131744D01*
X261472Y-129783D01*
X259994Y-128305D01*
X261472Y-126826D01*
X262285Y-124866D01*
Y-122744D01*
X261472Y-120783D01*
X259994Y-119305D01*
X261472Y-117826D01*
X262285Y-115866D01*
Y-113744D01*
X261472Y-111783D01*
X259972Y-110283D01*
X258011Y-109471D01*
D02*
G37*
G36*
X396012Y-119471D02*
X393890D01*
X391929Y-120283D01*
X390951Y-121262D01*
X389972Y-120283D01*
X388012Y-119471D01*
X385890D01*
X383929Y-120283D01*
X382429Y-121783D01*
X381617Y-123744D01*
Y-125866D01*
X382429Y-127826D01*
X383907Y-129305D01*
X382429Y-130783D01*
X381617Y-132744D01*
Y-134866D01*
X382429Y-136826D01*
X383907Y-138305D01*
X382429Y-139783D01*
X381617Y-141744D01*
Y-143866D01*
X382429Y-145826D01*
X383929Y-147327D01*
X385890Y-148139D01*
X388012D01*
X389972Y-147327D01*
X390951Y-146348D01*
X391929Y-147327D01*
X393890Y-148139D01*
X396012D01*
X397972Y-147327D01*
X399473Y-145826D01*
X400285Y-143866D01*
Y-141744D01*
X399473Y-139783D01*
X397994Y-138305D01*
X399473Y-136826D01*
X400285Y-134866D01*
Y-132744D01*
X399473Y-130783D01*
X397994Y-129305D01*
X399473Y-127826D01*
X400285Y-125866D01*
Y-123744D01*
X399473Y-121783D01*
X397972Y-120283D01*
X396012Y-119471D01*
D02*
G37*
G36*
X329011Y-139471D02*
X326889D01*
X324929Y-140283D01*
X323725Y-141488D01*
X322951Y-141670D01*
X322177Y-141488D01*
X320972Y-140283D01*
X319011Y-139471D01*
X316889D01*
X314929Y-140283D01*
X313429Y-141783D01*
X312617Y-143744D01*
Y-145866D01*
X313429Y-147826D01*
X314633Y-149031D01*
X314816Y-149805D01*
X314633Y-150579D01*
X313429Y-151783D01*
X312617Y-153744D01*
Y-155866D01*
X313429Y-157826D01*
X314929Y-159327D01*
X316889Y-160139D01*
X319011D01*
X320972Y-159327D01*
X322177Y-158122D01*
X322951Y-157939D01*
X323725Y-158122D01*
X324929Y-159327D01*
X326889Y-160139D01*
X329011D01*
X330972Y-159327D01*
X332472Y-157826D01*
X333284Y-155866D01*
Y-153744D01*
X332472Y-151783D01*
X331268Y-150579D01*
X331085Y-149805D01*
X331268Y-149031D01*
X332472Y-147826D01*
X333284Y-145866D01*
Y-143744D01*
X332472Y-141783D01*
X330972Y-140283D01*
X329011Y-139471D01*
D02*
G37*
G36*
X624061Y-133666D02*
X621939D01*
X619978Y-134478D01*
X618478Y-135978D01*
X617666Y-137939D01*
Y-140061D01*
X618478Y-142022D01*
X619978Y-143522D01*
X621939Y-144334D01*
X624061D01*
X626021Y-143522D01*
X627522Y-142022D01*
X628334Y-140061D01*
Y-137939D01*
X627522Y-135978D01*
X626021Y-134478D01*
X624061Y-133666D01*
D02*
G37*
G36*
X635061Y-140666D02*
X632939D01*
X630979Y-141478D01*
X629478Y-142978D01*
X628666Y-144939D01*
Y-147061D01*
X629478Y-149021D01*
X630979Y-150522D01*
X632939Y-151334D01*
X635061D01*
X637021Y-150522D01*
X638522Y-149021D01*
X639334Y-147061D01*
Y-144939D01*
X638522Y-142978D01*
X637021Y-141478D01*
X635061Y-140666D01*
D02*
G37*
G36*
X416061Y-123666D02*
X413939D01*
X411979Y-124478D01*
X410478Y-125978D01*
X409666Y-127939D01*
Y-130061D01*
X410478Y-132022D01*
X411397Y-132941D01*
X411847Y-133765D01*
X411397Y-134600D01*
X410483Y-135514D01*
X409671Y-137475D01*
Y-139597D01*
X410483Y-141557D01*
X410961Y-142036D01*
X410483Y-142514D01*
X409671Y-144475D01*
Y-146597D01*
X410483Y-148557D01*
X410961Y-149036D01*
X410483Y-149515D01*
X409671Y-151475D01*
Y-153597D01*
X410483Y-155557D01*
X411983Y-157058D01*
X413944Y-157870D01*
X416066D01*
X418026Y-157058D01*
X419527Y-155557D01*
X420339Y-153597D01*
Y-151475D01*
X419527Y-149515D01*
X419048Y-149036D01*
X419527Y-148557D01*
X420339Y-146597D01*
Y-144475D01*
X419527Y-142514D01*
X419048Y-142036D01*
X419527Y-141557D01*
X420339Y-139597D01*
Y-137475D01*
X419527Y-135514D01*
X418607Y-134595D01*
X418157Y-133771D01*
X418607Y-132936D01*
X419522Y-132022D01*
X420334Y-130061D01*
Y-127939D01*
X419522Y-125978D01*
X418022Y-124478D01*
X416061Y-123666D01*
D02*
G37*
G36*
X532061Y-140666D02*
X529939D01*
X527979Y-141478D01*
X526478Y-142978D01*
X525666Y-144939D01*
Y-147061D01*
X526478Y-149021D01*
X527979Y-150522D01*
X529920Y-151326D01*
X529666Y-151939D01*
Y-154061D01*
X530478Y-156021D01*
X531978Y-157522D01*
X533939Y-158334D01*
X536061D01*
X538022Y-157522D01*
X539522Y-156021D01*
X540334Y-154061D01*
Y-151939D01*
X539522Y-149979D01*
X538022Y-148478D01*
X536080Y-147674D01*
X536334Y-147061D01*
Y-144939D01*
X535522Y-142978D01*
X534021Y-141478D01*
X532061Y-140666D01*
D02*
G37*
G36*
X350011Y-151471D02*
X347890D01*
X345929Y-152283D01*
X344429Y-153783D01*
X343616Y-155744D01*
Y-157866D01*
X344429Y-159826D01*
X345929Y-161327D01*
X347890Y-162139D01*
X350011D01*
X351972Y-161327D01*
X353472Y-159826D01*
X354285Y-157866D01*
Y-155744D01*
X353472Y-153783D01*
X351972Y-152283D01*
X350011Y-151471D01*
D02*
G37*
G36*
X265012Y-169471D02*
X262889D01*
X260929Y-170283D01*
X260450Y-170762D01*
X259972Y-170283D01*
X258011Y-169471D01*
X255889D01*
X253929Y-170283D01*
X252429Y-171783D01*
X251616Y-173744D01*
Y-175866D01*
X252429Y-177826D01*
X253407Y-178805D01*
X252429Y-179783D01*
X251616Y-181744D01*
Y-183866D01*
X252429Y-185826D01*
X253407Y-186805D01*
X252429Y-187783D01*
X251616Y-189744D01*
Y-191866D01*
X252429Y-193826D01*
X253929Y-195327D01*
X255889Y-196139D01*
X258011D01*
X259972Y-195327D01*
X260450Y-194848D01*
X260929Y-195327D01*
X262889Y-196139D01*
X265012D01*
X266972Y-195327D01*
X268472Y-193826D01*
X269284Y-191866D01*
Y-189744D01*
X268472Y-187783D01*
X267494Y-186805D01*
X268472Y-185826D01*
X269284Y-183866D01*
Y-181744D01*
X268472Y-179783D01*
X267494Y-178805D01*
X268472Y-177826D01*
X269284Y-175866D01*
Y-173744D01*
X268472Y-171783D01*
X266972Y-170283D01*
X265012Y-169471D01*
D02*
G37*
G36*
X301012Y-160471D02*
X298890D01*
X296929Y-161283D01*
X295429Y-162783D01*
X294617Y-164744D01*
Y-166866D01*
X295429Y-168826D01*
X296929Y-170327D01*
X298890Y-171139D01*
X301012D01*
X302972Y-170327D01*
X304473Y-168826D01*
X305285Y-166866D01*
Y-164744D01*
X304473Y-162783D01*
X302972Y-161283D01*
X301012Y-160471D01*
D02*
G37*
G36*
X513061Y-149666D02*
X510939D01*
X508979Y-150478D01*
X507478Y-151979D01*
X506666Y-153939D01*
Y-156061D01*
X507478Y-158021D01*
X508878Y-159421D01*
X508899Y-159855D01*
X508680Y-160773D01*
X506978Y-161478D01*
X505478Y-162978D01*
X504666Y-164939D01*
Y-167061D01*
X505478Y-169021D01*
X506978Y-170522D01*
X508939Y-171334D01*
X511061D01*
X513022Y-170522D01*
X514522Y-169021D01*
X515334Y-167061D01*
Y-164939D01*
X514522Y-162978D01*
X513122Y-161579D01*
X513101Y-161145D01*
X513320Y-160227D01*
X515021Y-159522D01*
X516522Y-158021D01*
X517334Y-156061D01*
Y-153939D01*
X516522Y-151979D01*
X515021Y-150478D01*
X513061Y-149666D01*
D02*
G37*
G36*
X583061Y-172666D02*
X580939D01*
X578979Y-173478D01*
X578000Y-174457D01*
X577021Y-173478D01*
X575061Y-172666D01*
X572939D01*
X570979Y-173478D01*
X569478Y-174979D01*
X568666Y-176939D01*
Y-179061D01*
X569478Y-181021D01*
X570979Y-182522D01*
X572939Y-183334D01*
X575061D01*
X577021Y-182522D01*
X578000Y-181543D01*
X578979Y-182522D01*
X580939Y-183334D01*
X583061D01*
X585022Y-182522D01*
X586522Y-181021D01*
X587334Y-179061D01*
Y-176939D01*
X586522Y-174979D01*
X585022Y-173478D01*
X583061Y-172666D01*
D02*
G37*
G36*
X331012Y-166471D02*
X328890D01*
X326929Y-167283D01*
X325429Y-168783D01*
X324617Y-170744D01*
Y-172866D01*
X325429Y-174826D01*
X326929Y-176327D01*
X328890Y-177139D01*
X331012D01*
X332972Y-176327D01*
X334473Y-174826D01*
X335285Y-172866D01*
Y-170744D01*
X334473Y-168783D01*
X332972Y-167283D01*
X331012Y-166471D01*
D02*
G37*
G36*
X527061Y-162666D02*
X524939D01*
X522979Y-163478D01*
X521478Y-164979D01*
X520666Y-166939D01*
Y-169061D01*
X521478Y-171021D01*
X522957Y-172500D01*
X522478Y-172978D01*
X521666Y-174939D01*
Y-177061D01*
X522478Y-179021D01*
X523979Y-180522D01*
X525939Y-181334D01*
X528061D01*
X530021Y-180522D01*
X531522Y-179021D01*
X531987Y-177900D01*
X533507Y-177155D01*
X533939Y-177334D01*
X536061D01*
X538022Y-176522D01*
X539522Y-175021D01*
X540334Y-173061D01*
Y-170939D01*
X539522Y-168979D01*
X538022Y-167478D01*
X536061Y-166666D01*
X533939D01*
X532604Y-167219D01*
X531554Y-166988D01*
X531170Y-166543D01*
X530522Y-164979D01*
X529021Y-163478D01*
X527061Y-162666D01*
D02*
G37*
G36*
X551061Y-167185D02*
X548939D01*
X546978Y-167997D01*
X545478Y-169497D01*
X544666Y-171458D01*
Y-173580D01*
X545478Y-175540D01*
X546978Y-177041D01*
X548939Y-177853D01*
X551061D01*
X553021Y-177041D01*
X554522Y-175540D01*
X555334Y-173580D01*
Y-171458D01*
X554522Y-169497D01*
X553021Y-167997D01*
X551061Y-167185D01*
D02*
G37*
G36*
X624561Y-172166D02*
X622439D01*
X620479Y-172978D01*
X618978Y-174479D01*
X618166Y-176439D01*
Y-178561D01*
X618978Y-180522D01*
X620479Y-182022D01*
X622439Y-182834D01*
X624561D01*
X626521Y-182022D01*
X628022Y-180522D01*
X628834Y-178561D01*
Y-176439D01*
X628022Y-174479D01*
X626521Y-172978D01*
X624561Y-172166D01*
D02*
G37*
G36*
X352061Y-173666D02*
X349939D01*
X347979Y-174478D01*
X346478Y-175979D01*
X345666Y-177939D01*
Y-180061D01*
X346478Y-182022D01*
X347979Y-183522D01*
X349939Y-184334D01*
X352061D01*
X354021Y-183522D01*
X355522Y-182022D01*
X356334Y-180061D01*
Y-177939D01*
X355522Y-175979D01*
X354021Y-174478D01*
X352061Y-173666D01*
D02*
G37*
G36*
X509061Y-182666D02*
X506939D01*
X504978Y-183478D01*
X503774Y-184683D01*
X503000Y-184865D01*
X502226Y-184683D01*
X501021Y-183478D01*
X499061Y-182666D01*
X496939D01*
X494978Y-183478D01*
X493478Y-184979D01*
X492666Y-186939D01*
Y-189061D01*
X493478Y-191021D01*
X494978Y-192522D01*
X496939Y-193334D01*
X499061D01*
X501021Y-192522D01*
X502226Y-191317D01*
X503000Y-191134D01*
X503774Y-191317D01*
X504978Y-192522D01*
X506939Y-193334D01*
X509061D01*
X511021Y-192522D01*
X512522Y-191021D01*
X513334Y-189061D01*
Y-186939D01*
X512522Y-184979D01*
X511021Y-183478D01*
X509061Y-182666D01*
D02*
G37*
G36*
X499061Y25334D02*
X496939D01*
X494978Y24522D01*
X493478Y23022D01*
X492666Y21061D01*
Y18939D01*
X493478Y16979D01*
X494978Y15478D01*
X496939Y14666D01*
X499061D01*
X501021Y15478D01*
X502522Y16979D01*
X503334Y18939D01*
Y21061D01*
X502522Y23022D01*
X501021Y24522D01*
X499061Y25334D01*
D02*
G37*
G36*
X598061Y-106666D02*
X595939D01*
X593979Y-107478D01*
X592500Y-108957D01*
X591021Y-107478D01*
X589061Y-106666D01*
X586939D01*
X584978Y-107478D01*
X583478Y-108979D01*
X582666Y-110939D01*
Y-113061D01*
X583478Y-115021D01*
X584978Y-116522D01*
X586939Y-117334D01*
X589061D01*
X591021Y-116522D01*
X592500Y-115043D01*
X593979Y-116522D01*
X595939Y-117334D01*
X598061D01*
X600022Y-116522D01*
X601522Y-115021D01*
X602334Y-113061D01*
Y-110939D01*
X601522Y-108979D01*
X600022Y-107478D01*
X598061Y-106666D01*
D02*
G37*
G36*
X576061Y-95666D02*
X573939D01*
X571978Y-96478D01*
X570478Y-97978D01*
X569666Y-99939D01*
Y-102061D01*
X570478Y-104022D01*
X571457Y-105000D01*
X570478Y-105979D01*
X569666Y-107939D01*
Y-110061D01*
X570478Y-112022D01*
X571978Y-113522D01*
X573939Y-114334D01*
X576061D01*
X578021Y-113522D01*
X579522Y-112022D01*
X580334Y-110061D01*
Y-107939D01*
X579522Y-105979D01*
X578543Y-105000D01*
X579522Y-104022D01*
X580334Y-102061D01*
Y-99939D01*
X579522Y-97978D01*
X578021Y-96478D01*
X576061Y-95666D01*
D02*
G37*
G36*
X603061Y-127666D02*
X600939D01*
X598979Y-128478D01*
X598000Y-129457D01*
X597021Y-128478D01*
X595061Y-127666D01*
X592939D01*
X590979Y-128478D01*
X589478Y-129979D01*
X588666Y-131939D01*
Y-134061D01*
X589478Y-136021D01*
X590979Y-137522D01*
X592939Y-138334D01*
X595061D01*
X597021Y-137522D01*
X598000Y-136543D01*
X598979Y-137522D01*
X600939Y-138334D01*
X603061D01*
X605021Y-137522D01*
X606522Y-136021D01*
X607334Y-134061D01*
Y-131939D01*
X606522Y-129979D01*
X605021Y-128478D01*
X603061Y-127666D01*
D02*
G37*
G36*
X583061Y-121666D02*
X580939D01*
X578979Y-122478D01*
X577478Y-123979D01*
X576666Y-125939D01*
Y-128061D01*
X577478Y-130021D01*
X578979Y-131522D01*
X580939Y-132334D01*
X583061D01*
X585022Y-131522D01*
X586522Y-130021D01*
X587334Y-128061D01*
Y-125939D01*
X586522Y-123979D01*
X585022Y-122478D01*
X583061Y-121666D01*
D02*
G37*
%LPD*%
D17*
X-14587Y-439564D02*
X-6123D01*
X-10355D01*
Y-464956D01*
X-14587D01*
X-6123D01*
X6573D02*
Y-439564D01*
X23501Y-464956D01*
Y-439564D01*
X31965Y-464956D02*
Y-439564D01*
X48892Y-464956D01*
Y-439564D01*
X74284D02*
X57356D01*
Y-464956D01*
X74284D01*
X57356Y-452260D02*
X65820D01*
X82748Y-464956D02*
Y-439564D01*
X95444D01*
X99676Y-443796D01*
Y-452260D01*
X95444Y-456492D01*
X82748D01*
X91212D02*
X99676Y-464956D01*
X133532Y-439564D02*
Y-464956D01*
X150460D01*
X158924D02*
Y-448028D01*
X167388Y-439564D01*
X175851Y-448028D01*
Y-464956D01*
Y-452260D01*
X158924D01*
X184315Y-439564D02*
Y-443796D01*
X192779Y-452260D01*
X201243Y-443796D01*
Y-439564D01*
X192779Y-452260D02*
Y-464956D01*
X226635Y-439564D02*
X209707D01*
Y-464956D01*
X226635D01*
X209707Y-452260D02*
X218171D01*
X235099Y-464956D02*
Y-439564D01*
X247795D01*
X252027Y-443796D01*
Y-452260D01*
X247795Y-456492D01*
X235099D01*
X243563D02*
X252027Y-464956D01*
X285883Y-443796D02*
X290115Y-439564D01*
X298578D01*
X302810Y-443796D01*
Y-448028D01*
X298578Y-452260D01*
X294347D01*
X298578D01*
X302810Y-456492D01*
Y-460724D01*
X298578Y-464956D01*
X290115D01*
X285883Y-460724D01*
X-145Y-288975D02*
X-8608D01*
X-12840Y-293207D01*
Y-310134D01*
X-8608Y-314366D01*
X-145D01*
X4087Y-310134D01*
Y-293207D01*
X-145Y-288975D01*
X12551D02*
Y-314366D01*
X25247D01*
X29479Y-310134D01*
Y-293207D01*
X25247Y-288975D01*
X12551D01*
X37943D02*
X46407D01*
X42175D01*
Y-314366D01*
X37943D01*
X46407D01*
X76031Y-293207D02*
X71799Y-288975D01*
X63335D01*
X59103Y-293207D01*
Y-310134D01*
X63335Y-314366D01*
X71799D01*
X76031Y-310134D01*
X88727Y-318598D02*
X92959Y-314366D01*
Y-310134D01*
X88727D01*
Y-314366D01*
X92959D01*
X88727Y-318598D01*
X84495Y-322830D01*
X135278Y-288975D02*
X143742D01*
X139510D01*
Y-314366D01*
X135278D01*
X143742D01*
X156438D02*
Y-288975D01*
X173366Y-314366D01*
Y-288975D01*
X198758Y-293207D02*
X194526Y-288975D01*
X186062D01*
X181830Y-293207D01*
Y-310134D01*
X186062Y-314366D01*
X194526D01*
X198758Y-310134D01*
X207222Y-314366D02*
Y-310134D01*
X211454D01*
Y-314366D01*
X207222D01*
X1341Y-340332D02*
X-2891Y-336100D01*
X-11355D01*
X-15587Y-340332D01*
Y-357260D01*
X-11355Y-361492D01*
X-2891D01*
X1341Y-357260D01*
Y-348796D01*
X-7123D01*
X9805Y-336100D02*
Y-361492D01*
Y-348796D01*
X26733D01*
Y-336100D01*
Y-361492D01*
X35197Y-336100D02*
Y-361492D01*
X52125D01*
X85980D02*
Y-336100D01*
X102908Y-361492D01*
Y-336100D01*
X111372Y-361492D02*
Y-344564D01*
X119836Y-336100D01*
X128300Y-344564D01*
Y-361492D01*
Y-348796D01*
X111372D01*
X136764Y-361492D02*
Y-344564D01*
X145228Y-336100D01*
X153692Y-344564D01*
Y-361492D01*
Y-348796D01*
X136764D01*
X162156Y-336100D02*
X179083D01*
X170620D01*
Y-361492D01*
X200243Y-336100D02*
X191779D01*
X187547Y-340332D01*
Y-357260D01*
X191779Y-361492D01*
X200243D01*
X204475Y-357260D01*
Y-340332D01*
X200243Y-336100D01*
X229867Y-340332D02*
X225635Y-336100D01*
X217171D01*
X212939Y-340332D01*
Y-344564D01*
X217171Y-348796D01*
X225635D01*
X229867Y-353028D01*
Y-357260D01*
X225635Y-361492D01*
X217171D01*
X212939Y-357260D01*
X280651Y-340332D02*
X276419Y-336100D01*
X267955D01*
X263723Y-340332D01*
Y-344564D01*
X267955Y-348796D01*
X276419D01*
X280651Y-353028D01*
Y-357260D01*
X276419Y-361492D01*
X267955D01*
X263723Y-357260D01*
X293347Y-344564D02*
X301810D01*
X306042Y-348796D01*
Y-361492D01*
X293347D01*
X289115Y-357260D01*
X293347Y-353028D01*
X306042D01*
X314506Y-361492D02*
Y-344564D01*
X318738D01*
X322970Y-348796D01*
Y-361492D01*
Y-348796D01*
X327202Y-344564D01*
X331434Y-348796D01*
Y-361492D01*
X339898Y-369956D02*
Y-344564D01*
X352594D01*
X356826Y-348796D01*
Y-357260D01*
X352594Y-361492D01*
X339898D01*
X365290D02*
X373754D01*
X369522D01*
Y-336100D01*
X365290D01*
X399146Y-361492D02*
X390682D01*
X386450Y-357260D01*
Y-348796D01*
X390682Y-344564D01*
X399146D01*
X403378Y-348796D01*
Y-353028D01*
X386450D01*
X437233Y-361492D02*
Y-336100D01*
X449929D01*
X454161Y-340332D01*
Y-348796D01*
X449929Y-353028D01*
X437233D01*
X462625Y-344564D02*
Y-361492D01*
Y-353028D01*
X466857Y-348796D01*
X471089Y-344564D01*
X475321D01*
X500713Y-361492D02*
X492249D01*
X488017Y-357260D01*
Y-348796D01*
X492249Y-344564D01*
X500713D01*
X504945Y-348796D01*
Y-353028D01*
X488017D01*
X513409Y-369956D02*
Y-344564D01*
X526105D01*
X530337Y-348796D01*
Y-357260D01*
X526105Y-361492D01*
X513409D01*
X564192D02*
Y-336100D01*
X572656Y-344564D01*
X581120Y-336100D01*
Y-361492D01*
X593816Y-344564D02*
X602280D01*
X606512Y-348796D01*
Y-361492D01*
X593816D01*
X589584Y-357260D01*
X593816Y-353028D01*
X606512D01*
X614976Y-361492D02*
X623440D01*
X619208D01*
Y-344564D01*
X614976D01*
X636136Y-361492D02*
Y-344564D01*
X648832D01*
X653064Y-348796D01*
Y-361492D01*
X686919Y-336100D02*
Y-361492D01*
X699615D01*
X703847Y-357260D01*
Y-353028D01*
X699615Y-348796D01*
X686919D01*
X699615D01*
X703847Y-344564D01*
Y-340332D01*
X699615Y-336100D01*
X686919D01*
X716543Y-361492D02*
X725007D01*
X729239Y-357260D01*
Y-348796D01*
X725007Y-344564D01*
X716543D01*
X712311Y-348796D01*
Y-357260D01*
X716543Y-361492D01*
X741935Y-344564D02*
X750399D01*
X754631Y-348796D01*
Y-361492D01*
X741935D01*
X737703Y-357260D01*
X741935Y-353028D01*
X754631D01*
X763095Y-344564D02*
Y-361492D01*
Y-353028D01*
X767327Y-348796D01*
X771559Y-344564D01*
X775791D01*
X805414Y-336100D02*
Y-361492D01*
X792719D01*
X788486Y-357260D01*
Y-348796D01*
X792719Y-344564D01*
X805414D01*
X1727Y-413574D02*
X-15201D01*
X1727Y-396646D01*
Y-392415D01*
X-2505Y-388183D01*
X-10969D01*
X-15201Y-392415D01*
X27119Y-388183D02*
X18655Y-392415D01*
X10191Y-400878D01*
Y-409342D01*
X14423Y-413574D01*
X22887D01*
X27119Y-409342D01*
Y-405110D01*
X22887Y-400878D01*
X10191D01*
X35583Y-392415D02*
X39815Y-388183D01*
X48279D01*
X52511Y-392415D01*
Y-396646D01*
X48279Y-400878D01*
X44047D01*
X48279D01*
X52511Y-405110D01*
Y-409342D01*
X48279Y-413574D01*
X39815D01*
X35583Y-409342D01*
X60975Y-400878D02*
X77903D01*
X86367Y-392415D02*
X90599Y-388183D01*
X99063D01*
X103295Y-392415D01*
Y-409342D01*
X99063Y-413574D01*
X90599D01*
X86367Y-409342D01*
Y-392415D01*
X111758D02*
X115990Y-388183D01*
X124454D01*
X128686Y-392415D01*
Y-396646D01*
X124454Y-400878D01*
X120222D01*
X124454D01*
X128686Y-405110D01*
Y-409342D01*
X124454Y-413574D01*
X115990D01*
X111758Y-409342D01*
X137150Y-400878D02*
X154078D01*
X162542Y-392415D02*
X166774Y-388183D01*
X175238D01*
X179470Y-392415D01*
Y-409342D01*
X175238Y-413574D01*
X166774D01*
X162542Y-409342D01*
Y-392415D01*
X187934D02*
X192166Y-388183D01*
X200630D01*
X204862Y-392415D01*
Y-409342D01*
X200630Y-413574D01*
X192166D01*
X187934Y-409342D01*
Y-392415D01*
X213326Y-413574D02*
X221790D01*
X217558D01*
Y-388183D01*
X213326Y-392415D01*
X285269Y-413574D02*
Y-388183D01*
X297965D01*
X302197Y-392415D01*
Y-400878D01*
X297965Y-405110D01*
X285269D01*
X293733D02*
X302197Y-413574D01*
X327589Y-388183D02*
X310661D01*
Y-413574D01*
X327589D01*
X310661Y-400878D02*
X319125D01*
X336053Y-388183D02*
Y-405110D01*
X344517Y-413574D01*
X352980Y-405110D01*
Y-388183D01*
X386836D02*
Y-413574D01*
X399532D01*
X403764Y-409342D01*
Y-405110D01*
X399532Y-400878D01*
X386836D01*
X399532D01*
X403764Y-396646D01*
Y-392415D01*
X399532Y-388183D01*
X386836D01*
D137*
X-94500Y921300D02*
D03*
X666000D02*
D03*
X-94500Y231300D02*
D03*
X666000D02*
D03*
D146*
X548000Y-146000D02*
X565000Y-163000D01*
X548000Y-146000D02*
Y-121000D01*
X545000Y-118000D02*
X548000Y-121000D01*
X539000Y-118000D02*
X545000D01*
D147*
X373954Y732000D02*
Y733046D01*
X376000Y639000D02*
Y671000D01*
X409000D01*
X343000D02*
X376000D01*
Y704000D01*
D152*
X202400Y924350D02*
D03*
Y892600D02*
D03*
X151600Y924350D02*
D03*
Y892600D02*
D03*
X202400D02*
D03*
Y924350D02*
D03*
X151600Y892600D02*
D03*
Y924350D02*
D03*
D153*
X187160Y943400D02*
D03*
X166840D02*
D03*
X177000Y892600D02*
D03*
D03*
X187160Y943400D02*
D03*
X166840D02*
D03*
X348000Y422600D02*
D03*
X358160Y473400D02*
D03*
X337840D02*
D03*
D154*
X376000Y671000D02*
D03*
X-106300Y576300D02*
D03*
X677800D02*
D03*
X375750Y732000D02*
D03*
D155*
X483700Y-145500D02*
D03*
Y-130500D02*
D03*
Y-115500D02*
D03*
Y-100500D02*
D03*
Y-85500D02*
D03*
Y-70500D02*
D03*
X293000Y831500D02*
D03*
X278000D02*
D03*
D156*
X248695Y910436D02*
D03*
D157*
X320695D02*
D03*
D158*
X312695Y916936D02*
D03*
X308695Y923936D02*
D03*
X300695D02*
D03*
X296695Y916936D02*
D03*
X292695Y923936D02*
D03*
X288695Y916936D02*
D03*
X280695D02*
D03*
X276695Y923936D02*
D03*
X272695Y916936D02*
D03*
X268695Y923936D02*
D03*
X260695D02*
D03*
X256695Y916936D02*
D03*
D159*
X238695Y924436D02*
D03*
X330695D02*
D03*
X238695Y954436D02*
D03*
X330695D02*
D03*
D160*
X350750Y577215D02*
D03*
X220750D02*
D03*
D161*
X571500Y0D02*
D03*
X0D02*
D03*
D162*
X252000Y927000D02*
D03*
X317000D02*
D03*
X187000Y862000D02*
D03*
X214976Y940976D02*
D03*
X182000Y953000D02*
D03*
X202000Y951000D02*
D03*
X319000Y530000D02*
D03*
X344000Y526000D02*
D03*
X330000Y528000D02*
D03*
X278000Y509000D02*
D03*
X215000Y908000D02*
D03*
X141000Y909000D02*
D03*
X177000Y872000D02*
D03*
Y881000D02*
D03*
X416000Y-52000D02*
D03*
X433000Y-60000D02*
D03*
X410000Y309000D02*
D03*
X433000Y342000D02*
D03*
X447000Y332000D02*
D03*
X330000Y288000D02*
D03*
Y297000D02*
D03*
X403000Y326000D02*
D03*
X410000D02*
D03*
X230000Y261000D02*
D03*
X449000Y381000D02*
D03*
X310000Y366000D02*
D03*
X316000Y346000D02*
D03*
X317000Y336000D02*
D03*
X335000Y352000D02*
D03*
Y344000D02*
D03*
X345000D02*
D03*
Y352000D02*
D03*
Y336000D02*
D03*
X335000D02*
D03*
X364000Y333000D02*
D03*
X307000Y-27000D02*
D03*
X315000D02*
D03*
X307000Y-35000D02*
D03*
X315000D02*
D03*
X323000Y-27000D02*
D03*
Y-35000D02*
D03*
X99000Y-156000D02*
D03*
X89000D02*
D03*
X79000D02*
D03*
X69000D02*
D03*
X247000Y17000D02*
D03*
X239000D02*
D03*
X231000D02*
D03*
X222000D02*
D03*
X214000D02*
D03*
X206000D02*
D03*
X331000Y-27000D02*
D03*
Y-35000D02*
D03*
X247000Y0D02*
D03*
Y9000D02*
D03*
X99000Y-165000D02*
D03*
Y-175000D02*
D03*
Y-185000D02*
D03*
X89000Y-165000D02*
D03*
X79000D02*
D03*
X69000D02*
D03*
X330000Y19000D02*
D03*
X323000D02*
D03*
X315000D02*
D03*
X322000Y-17000D02*
D03*
X330000Y12000D02*
D03*
X323000D02*
D03*
X315000D02*
D03*
X323000Y-9000D02*
D03*
X280995Y891936D02*
D03*
X513000Y-89000D02*
D03*
X288995Y891936D02*
D03*
X513000Y-97000D02*
D03*
X406000Y375000D02*
D03*
X424000Y342000D02*
D03*
X428000Y358000D02*
D03*
X419000D02*
D03*
X424000Y375000D02*
D03*
X415000D02*
D03*
X426000Y303000D02*
D03*
X392000Y339000D02*
D03*
X363000Y448000D02*
D03*
X226000Y333000D02*
D03*
X188000D02*
D03*
X365000Y261000D02*
D03*
X446000Y271000D02*
D03*
X436000Y270000D02*
D03*
X426000D02*
D03*
X436000Y278000D02*
D03*
X426000D02*
D03*
X446000Y279000D02*
D03*
X436000Y287000D02*
D03*
X446000D02*
D03*
X426000D02*
D03*
X446000Y303000D02*
D03*
X436000D02*
D03*
X446000Y295000D02*
D03*
X436000D02*
D03*
X426000D02*
D03*
X170000Y298000D02*
D03*
X186000D02*
D03*
Y289000D02*
D03*
Y280000D02*
D03*
X178000D02*
D03*
Y289000D02*
D03*
Y298000D02*
D03*
X128000Y410000D02*
D03*
X439000Y241000D02*
D03*
X17000Y-83000D02*
D03*
X223000Y71000D02*
D03*
X214000D02*
D03*
X206000D02*
D03*
X121000Y66000D02*
D03*
Y57000D02*
D03*
X110000D02*
D03*
X176000Y71000D02*
D03*
X166000D02*
D03*
X156000D02*
D03*
X145000D02*
D03*
X134000D02*
D03*
X163000Y-177000D02*
D03*
X192000Y-64000D02*
D03*
X149000Y-56000D02*
D03*
X158000Y-47000D02*
D03*
X149000D02*
D03*
X163000Y-167000D02*
D03*
Y-156000D02*
D03*
Y-146000D02*
D03*
Y-136000D02*
D03*
Y-127000D02*
D03*
X166000Y-89000D02*
D03*
X157000Y-38000D02*
D03*
Y-29000D02*
D03*
X155000Y7000D02*
D03*
X165000D02*
D03*
Y-1000D02*
D03*
X155000D02*
D03*
X90000Y45000D02*
D03*
X84000Y54000D02*
D03*
X60000Y28000D02*
D03*
X59000Y-28000D02*
D03*
X82277Y1723D02*
D03*
X100000Y-5000D02*
D03*
X106000D02*
D03*
X100000Y2000D02*
D03*
X106000D02*
D03*
X118000D02*
D03*
X124000Y-5000D02*
D03*
X118000D02*
D03*
Y-13000D02*
D03*
X100000D02*
D03*
X106000D02*
D03*
X124000D02*
D03*
Y2000D02*
D03*
X112000D02*
D03*
Y-5000D02*
D03*
Y-13000D02*
D03*
X136000Y8000D02*
D03*
X167000Y-38000D02*
D03*
X133000Y-140000D02*
D03*
Y-129000D02*
D03*
X132000Y-191000D02*
D03*
X89000Y-175000D02*
D03*
Y-185000D02*
D03*
X79000D02*
D03*
X69000D02*
D03*
X79000Y-175000D02*
D03*
X69000D02*
D03*
X203246Y-58000D02*
D03*
X213246Y-56869D02*
D03*
X240000Y52000D02*
D03*
X53000Y240000D02*
D03*
X155000Y147000D02*
D03*
X166000D02*
D03*
X384000Y310000D02*
D03*
Y317000D02*
D03*
X292000Y461000D02*
D03*
X340000Y156000D02*
D03*
X606000Y-145000D02*
D03*
X162000Y194000D02*
D03*
X168000Y184000D02*
D03*
X300000Y157000D02*
D03*
X256000D02*
D03*
X145000Y156000D02*
D03*
X337000Y178000D02*
D03*
X514000Y229000D02*
D03*
X416000Y63000D02*
D03*
X633000Y-109000D02*
D03*
X602000Y-133000D02*
D03*
X615000Y-130000D02*
D03*
X324000Y139000D02*
D03*
X304000Y398000D02*
D03*
X306000Y388000D02*
D03*
X169000Y332000D02*
D03*
X303000Y893000D02*
D03*
X345000Y204000D02*
D03*
X360000Y169000D02*
D03*
X113000Y264000D02*
D03*
X505000Y463000D02*
D03*
X525000D02*
D03*
X605000D02*
D03*
X625000D02*
D03*
X585000D02*
D03*
X565000D02*
D03*
X545000D02*
D03*
X485000D02*
D03*
X505000Y694000D02*
D03*
X525000D02*
D03*
X605000D02*
D03*
X625000D02*
D03*
X585000D02*
D03*
X565000D02*
D03*
X545000D02*
D03*
X485000D02*
D03*
Y913000D02*
D03*
X545000D02*
D03*
X565000D02*
D03*
X585000D02*
D03*
X625000D02*
D03*
X605000D02*
D03*
X525000D02*
D03*
X505000D02*
D03*
X600000Y244000D02*
D03*
X622000Y233000D02*
D03*
X611000D02*
D03*
X600000D02*
D03*
X622000Y244000D02*
D03*
X611000D02*
D03*
X310000Y205000D02*
D03*
X338000Y228000D02*
D03*
X170000Y289000D02*
D03*
X194000Y298000D02*
D03*
Y289000D02*
D03*
Y280000D02*
D03*
X202000D02*
D03*
Y289000D02*
D03*
Y298000D02*
D03*
X170000Y280000D02*
D03*
X514000Y238000D02*
D03*
X46000Y234000D02*
D03*
X391000Y147000D02*
D03*
Y155000D02*
D03*
X384000Y147000D02*
D03*
Y155000D02*
D03*
X362000Y193000D02*
D03*
X396000Y232000D02*
D03*
X404000D02*
D03*
Y225000D02*
D03*
X396000D02*
D03*
X439000Y187000D02*
D03*
Y196000D02*
D03*
Y204000D02*
D03*
X430000Y187000D02*
D03*
Y196000D02*
D03*
Y204000D02*
D03*
X139775Y359050D02*
D03*
X282000Y425000D02*
D03*
X296000Y436000D02*
D03*
X304000D02*
D03*
X327000Y866000D02*
D03*
X328000Y856000D02*
D03*
X326000Y847000D02*
D03*
X222000Y0D02*
D03*
X231000D02*
D03*
X239000D02*
D03*
X214000D02*
D03*
X206000D02*
D03*
X470000Y226000D02*
D03*
X190760Y256761D02*
D03*
X178000Y257000D02*
D03*
X212000Y206000D02*
D03*
X200000D02*
D03*
X212000Y218000D02*
D03*
X200000D02*
D03*
X206000Y211000D02*
D03*
X159000Y224000D02*
D03*
X401000Y-36000D02*
D03*
X381000D02*
D03*
X390000Y-48000D02*
D03*
Y-41000D02*
D03*
X449000Y98000D02*
D03*
Y75000D02*
D03*
X471000Y120000D02*
D03*
X449000Y65000D02*
D03*
X375320Y82680D02*
D03*
X505000Y54000D02*
D03*
X512000Y-155000D02*
D03*
X544000Y-196000D02*
D03*
X535000Y-172000D02*
D03*
X613000Y-194000D02*
D03*
X527000Y-176000D02*
D03*
X498000Y-188000D02*
D03*
X526000Y-168000D02*
D03*
X535000Y-153000D02*
D03*
X531000Y-146000D02*
D03*
X538000Y-136000D02*
D03*
X635000Y-73000D02*
D03*
X550000Y-172519D02*
D03*
X488000Y127000D02*
D03*
X438000Y108000D02*
D03*
X344000Y104000D02*
D03*
X353000Y86000D02*
D03*
X415000Y-38000D02*
D03*
X507000Y-46000D02*
D03*
X523000Y-144000D02*
D03*
X481000Y-1000D02*
D03*
X491000D02*
D03*
X447000Y-12000D02*
D03*
X463000Y-42000D02*
D03*
X428000Y-22000D02*
D03*
X575000Y-109000D02*
D03*
X225000Y243000D02*
D03*
X428464Y-4464D02*
D03*
X205000Y-186000D02*
D03*
X-69000Y-123000D02*
D03*
X-80000Y-121000D02*
D03*
X325000Y52000D02*
D03*
X637000Y-177000D02*
D03*
X645000Y-156000D02*
D03*
Y-104000D02*
D03*
X442000Y-80000D02*
D03*
X537000Y-128000D02*
D03*
X144950Y387775D02*
D03*
X217225Y349950D02*
D03*
X269225Y355950D02*
D03*
X237225Y363950D02*
D03*
X217225Y378950D02*
D03*
X240225Y393950D02*
D03*
X223661Y395875D02*
D03*
X240225Y400950D02*
D03*
Y407950D02*
D03*
Y414950D02*
D03*
X205225Y429950D02*
D03*
X224225Y438950D02*
D03*
X207975Y463950D02*
D03*
X269225Y383950D02*
D03*
X246975Y393950D02*
D03*
X260225D02*
D03*
X253475D02*
D03*
X246975Y400950D02*
D03*
X260225D02*
D03*
X253475D02*
D03*
X246975Y407950D02*
D03*
X260225D02*
D03*
X253475D02*
D03*
X277225D02*
D03*
X246975Y414950D02*
D03*
X260225D02*
D03*
X253475D02*
D03*
X278225Y435950D02*
D03*
X197225Y475950D02*
D03*
X277225Y415950D02*
D03*
X365995Y777536D02*
D03*
X357995Y770536D02*
D03*
X353308Y919223D02*
D03*
X360995Y941536D02*
D03*
X353308Y928223D02*
D03*
Y910223D02*
D03*
X436308Y930223D02*
D03*
Y921224D02*
D03*
Y912224D02*
D03*
Y903223D02*
D03*
Y894223D02*
D03*
X444995Y822536D02*
D03*
X436308Y822224D02*
D03*
X344308Y862224D02*
D03*
Y855224D02*
D03*
X363308Y848224D02*
D03*
Y861224D02*
D03*
X360308Y854224D02*
D03*
X367308D02*
D03*
X365808Y769536D02*
D03*
X366995Y946536D02*
D03*
X360995Y932536D02*
D03*
X332995Y786536D02*
D03*
X396995Y801536D02*
D03*
X357995Y777536D02*
D03*
X356995Y785536D02*
D03*
X291995Y862936D02*
D03*
X435500Y-68500D02*
D03*
X188951Y-115805D02*
D03*
X256950Y-114805D02*
D03*
X248951D02*
D03*
X394950Y-124805D02*
D03*
Y-142805D02*
D03*
Y-133805D02*
D03*
X386950Y-142805D02*
D03*
Y-133805D02*
D03*
Y-124805D02*
D03*
X327951Y-128805D02*
D03*
X334950D02*
D03*
Y-114805D02*
D03*
Y-121805D02*
D03*
X327951Y-114805D02*
D03*
Y-121805D02*
D03*
X339000Y146000D02*
D03*
X256950Y-140805D02*
D03*
X248951D02*
D03*
Y-132805D02*
D03*
Y-123805D02*
D03*
X256950Y-132805D02*
D03*
X256950Y-123805D02*
D03*
X138506Y413064D02*
D03*
X139506Y405064D02*
D03*
X143506Y398064D02*
D03*
X155506Y434064D02*
D03*
Y454064D02*
D03*
X415005Y-138536D02*
D03*
Y-145536D02*
D03*
Y-152536D02*
D03*
X315000Y-2000D02*
D03*
X231995Y852936D02*
D03*
X239995D02*
D03*
X240995Y868936D02*
D03*
X230995D02*
D03*
X259995Y893936D02*
D03*
X314995D02*
D03*
X324995Y170536D02*
D03*
X315000Y5000D02*
D03*
X323000D02*
D03*
Y-2000D02*
D03*
X573500Y-154500D02*
D03*
X513000Y-81000D02*
D03*
Y-105000D02*
D03*
X244000Y-189000D02*
D03*
X231000Y-186000D02*
D03*
X218000D02*
D03*
X263951Y-190805D02*
D03*
X256950D02*
D03*
X263951Y-182805D02*
D03*
X256950D02*
D03*
X263951Y-174805D02*
D03*
X256950D02*
D03*
X317950Y-144805D02*
D03*
X327951D02*
D03*
Y-154805D02*
D03*
X317950D02*
D03*
X322951Y-149805D02*
D03*
X645500Y-137500D02*
D03*
Y-76500D02*
D03*
X550000Y-79000D02*
D03*
X645500Y-177500D02*
D03*
X623500Y-177500D02*
D03*
X502000Y-39000D02*
D03*
X461000Y-102000D02*
D03*
X440000Y-35000D02*
D03*
X588000Y-112000D02*
D03*
X575000Y-101000D02*
D03*
X497000Y-82000D02*
D03*
Y-73000D02*
D03*
X206000Y234000D02*
D03*
X484000Y177000D02*
D03*
X524000Y109000D02*
D03*
X536000Y-79000D02*
D03*
X510000Y-166000D02*
D03*
X206000Y9000D02*
D03*
X214000D02*
D03*
X239000D02*
D03*
X231000D02*
D03*
X222000D02*
D03*
X223000Y-59000D02*
D03*
X427000Y110000D02*
D03*
X479000Y120000D02*
D03*
X634000Y-146000D02*
D03*
X623000Y-139000D02*
D03*
X594000Y-133000D02*
D03*
X597000Y-112000D02*
D03*
X582000Y-127000D02*
D03*
X615000Y-112000D02*
D03*
X495000Y108000D02*
D03*
X451000Y804000D02*
D03*
X484000Y219000D02*
D03*
X485000Y210000D02*
D03*
X499000Y204000D02*
D03*
X184000D02*
D03*
X191000Y194000D02*
D03*
X230000Y204000D02*
D03*
X236000Y212000D02*
D03*
X230000Y219000D02*
D03*
X184000Y212000D02*
D03*
X-51000Y-114000D02*
D03*
X-98000Y-112000D02*
D03*
X498000Y20000D02*
D03*
X583000Y-155000D02*
D03*
X574000Y-147000D02*
D03*
X508000Y-188000D02*
D03*
X615000Y-120000D02*
D03*
X596000Y-145000D02*
D03*
X623000Y-108000D02*
D03*
X270000Y894000D02*
D03*
X276000Y886000D02*
D03*
X624000Y-76000D02*
D03*
X351000Y-179000D02*
D03*
X415000Y-129000D02*
D03*
X416000Y15000D02*
D03*
X418000Y49000D02*
D03*
X187000Y364000D02*
D03*
Y352000D02*
D03*
X180000Y401000D02*
D03*
X171000D02*
D03*
X180000Y410000D02*
D03*
X171000D02*
D03*
X539000Y-118000D02*
D03*
X539500Y-110500D02*
D03*
X254225Y467950D02*
D03*
X245225Y449950D02*
D03*
X254225D02*
D03*
X245225Y455950D02*
D03*
X254225D02*
D03*
X260225Y460950D02*
D03*
X272225D02*
D03*
X266225D02*
D03*
X245225Y461950D02*
D03*
X254225D02*
D03*
X245225Y467950D02*
D03*
X130950Y379775D02*
D03*
X226225Y349950D02*
D03*
X240225Y374950D02*
D03*
X234225Y378950D02*
D03*
X216225Y411950D02*
D03*
X209225D02*
D03*
X223225D02*
D03*
X245225Y428950D02*
D03*
X224225Y420950D02*
D03*
X240554Y424950D02*
D03*
X224299Y429876D02*
D03*
X240225Y433950D02*
D03*
X238225Y449950D02*
D03*
Y455950D02*
D03*
X238193Y462111D02*
D03*
X238225Y467950D02*
D03*
X258225Y374950D02*
D03*
X249357Y375817D02*
D03*
X260225Y424950D02*
D03*
X250225D02*
D03*
X255225Y428950D02*
D03*
X260225Y433950D02*
D03*
X250225D02*
D03*
X582000Y-178000D02*
D03*
X574000D02*
D03*
X401995Y947536D02*
D03*
X397995Y938536D02*
D03*
X387995Y947536D02*
D03*
X380995D02*
D03*
X394995Y770536D02*
D03*
Y777536D02*
D03*
X386995Y770536D02*
D03*
X402995Y777536D02*
D03*
X386995D02*
D03*
X378995D02*
D03*
X357308Y882224D02*
D03*
X391433Y880349D02*
D03*
X432308Y872224D02*
D03*
Y879224D02*
D03*
X425308Y872224D02*
D03*
X432308Y833224D02*
D03*
X425308Y841224D02*
D03*
X432308D02*
D03*
X372308Y865224D02*
D03*
X378308D02*
D03*
X372308Y860224D02*
D03*
Y843224D02*
D03*
X378308D02*
D03*
X372308Y848224D02*
D03*
X378308Y860224D02*
D03*
Y848224D02*
D03*
X394995Y947536D02*
D03*
X408995Y943536D02*
D03*
X378995Y770536D02*
D03*
X346995Y833536D02*
D03*
X348995Y810536D02*
D03*
X402995Y770536D02*
D03*
X381995Y899536D02*
D03*
X352995Y897536D02*
D03*
X337995Y872536D02*
D03*
X387951Y-70805D02*
D03*
X398951D02*
D03*
Y-79805D02*
D03*
X387951D02*
D03*
X388000Y-88000D02*
D03*
X399000D02*
D03*
X332951Y-95805D02*
D03*
Y-86805D02*
D03*
Y-77805D02*
D03*
Y-68805D02*
D03*
X345000Y-69000D02*
D03*
X198951Y-149805D02*
D03*
X231950Y-159805D02*
D03*
X348951Y-156805D02*
D03*
X172506Y465064D02*
D03*
Y456064D02*
D03*
Y446064D02*
D03*
X588000Y-145000D02*
D03*
X299951Y-165805D02*
D03*
X198951Y-132805D02*
D03*
X228995Y884936D02*
D03*
X235995D02*
D03*
X242995D02*
D03*
X293995Y885936D02*
D03*
X336995Y170536D02*
D03*
X355000Y-35000D02*
D03*
X339000D02*
D03*
X347000D02*
D03*
X363000D02*
D03*
X371000D02*
D03*
Y-27000D02*
D03*
X363000D02*
D03*
X355000D02*
D03*
X347000D02*
D03*
X339000D02*
D03*
X433464Y39700D02*
D03*
X195000Y-159000D02*
D03*
X213000D02*
D03*
X329950Y-171805D02*
D03*
X198951Y-141805D02*
D03*
X565000Y-163000D02*
D03*
D163*
X195750Y732000D02*
D03*
M02*
