G04*
G04 #@! TF.GenerationSoftware,Altium Limited,Altium Designer,24.9.1 (31)*
G04*
G04 Layer_Physical_Order=2*
G04 Layer_Color=36540*
%FSLAX44Y44*%
%MOMM*%
G71*
G04*
G04 #@! TF.SameCoordinates,7F96DF23-6EF7-4123-9D03-ABB94F86F5D4*
G04*
G04*
G04 #@! TF.FilePolarity,Positive*
G04*
G01*
G75*
%ADD17C,0.2540*%
%ADD137C,3.1750*%
%ADD147C,2.0000*%
%ADD152C,2.3749*%
%ADD153C,0.9906*%
%ADD154C,5.0000*%
%ADD155C,1.2700*%
%ADD156C,0.7500*%
%ADD157O,0.9500X0.7500*%
%ADD158C,0.6500*%
%ADD159O,1.1000X2.2000*%
%ADD160C,5.0800*%
%ADD161C,3.0480*%
%ADD162C,0.5588*%
%ADD163C,1.5240*%
G36*
X648935Y966361D02*
X654327Y965288D01*
X659588Y963693D01*
X664667Y961589D01*
X669516Y958997D01*
X674087Y955943D01*
X678337Y952455D01*
X682224Y948568D01*
X685712Y944318D01*
X688766Y939747D01*
X691358Y934899D01*
X693462Y929819D01*
X695057Y924559D01*
X696130Y919167D01*
X696669Y913695D01*
X696669Y910947D01*
Y598038D01*
X695399Y597555D01*
X692234Y599854D01*
X688372Y601822D01*
X684249Y603162D01*
X679967Y603840D01*
X679070D01*
Y576300D01*
Y548760D01*
X679967D01*
X684249Y549438D01*
X688372Y550778D01*
X692234Y552746D01*
X695399Y555045D01*
X696669Y554562D01*
Y241656D01*
X696669Y238907D01*
X696130Y233436D01*
X695057Y228044D01*
X693461Y222783D01*
X691357Y217704D01*
X688766Y212855D01*
X685711Y208284D01*
X682224Y204035D01*
X678336Y200147D01*
X674087Y196660D01*
X669515Y193605D01*
X664667Y191014D01*
X659588Y188910D01*
X654327Y187314D01*
X648935Y186241D01*
X643464Y185702D01*
X640715Y185702D01*
X600710Y185702D01*
X600218Y185637D01*
X599721Y185653D01*
X598730Y185556D01*
X598568Y185518D01*
X598402D01*
X597289Y185220D01*
X596166Y184958D01*
X596019Y184880D01*
X595859Y184837D01*
X594028Y184078D01*
X593455Y183748D01*
X592845Y183495D01*
X592320Y183092D01*
X591747Y182761D01*
X591280Y182294D01*
X590756Y181892D01*
X589354Y180490D01*
X588952Y179966D01*
X588484Y179499D01*
X588154Y178926D01*
X587751Y178401D01*
X587498Y177791D01*
X587168Y177218D01*
X586409Y175387D01*
X586366Y175227D01*
X586288Y175080D01*
X586026Y173957D01*
X585728Y172844D01*
Y172678D01*
X585690Y172516D01*
X585592Y171525D01*
X585609Y171028D01*
X585544Y170536D01*
X585544Y36059D01*
X439026D01*
X438256Y37329D01*
X438798Y38639D01*
Y40761D01*
X437986Y42721D01*
X436485Y44222D01*
X434525Y45034D01*
X432403D01*
X430443Y44222D01*
X428942Y42721D01*
X428130Y40761D01*
Y38639D01*
X428673Y37329D01*
X427902Y36059D01*
X407059D01*
Y101941D01*
X422661D01*
X422956Y102000D01*
X443378D01*
X443674Y101941D01*
X443739D01*
X444333Y100671D01*
X443666Y99061D01*
Y96939D01*
X444478Y94979D01*
X445979Y93478D01*
X447939Y92666D01*
X450061D01*
X452021Y93478D01*
X453522Y94979D01*
X454334Y96939D01*
Y99061D01*
X453667Y100671D01*
X454262Y101941D01*
X460000D01*
X460295Y102000D01*
X463259D01*
Y215000D01*
X460295D01*
X460000Y215059D01*
X353000D01*
X353000Y215059D01*
X352704Y215000D01*
X351000D01*
X345334Y209334D01*
X343939D01*
X341978Y208522D01*
X340478Y207022D01*
X339666Y205061D01*
Y203666D01*
X334059Y198059D01*
X306059D01*
Y281000D01*
X345000D01*
Y324000D01*
X398055D01*
X398478Y322979D01*
X399978Y321478D01*
X401939Y320666D01*
X404061D01*
X406021Y321478D01*
X406500Y321957D01*
X406978Y321478D01*
X408939Y320666D01*
X411061D01*
X413021Y321478D01*
X414522Y322979D01*
X414945Y324000D01*
X454000D01*
Y338000D01*
X422000D01*
X416000Y344000D01*
Y359000D01*
X306059D01*
Y372941D01*
X400666D01*
X400961Y373000D01*
X401055D01*
X401478Y371979D01*
X402979Y370478D01*
X404939Y369666D01*
X407061D01*
X409021Y370478D01*
X410500Y371957D01*
X411979Y370478D01*
X413939Y369666D01*
X416061D01*
X418022Y370478D01*
X419500Y371957D01*
X420979Y370478D01*
X422939Y369666D01*
X425061D01*
X427021Y370478D01*
X428522Y371979D01*
X428945Y373000D01*
X429039D01*
X429334Y372941D01*
X444660D01*
X444956Y373000D01*
X453044D01*
X453340Y372941D01*
X460000D01*
X460295Y373000D01*
X463335D01*
X463335Y376001D01*
X463059Y536749D01*
Y966900D01*
X464329Y966900D01*
X640715D01*
X643464Y966900D01*
X648935Y966361D01*
D02*
G37*
G36*
X-69215Y966900D02*
X-69215Y966900D01*
X-69215Y966900D01*
X229368D01*
X229930Y965761D01*
X229524Y965231D01*
X229194Y964436D01*
X238695D01*
X248196D01*
X247867Y965231D01*
X247461Y965761D01*
X248022Y966900D01*
X321368Y966900D01*
X321930Y965761D01*
X321524Y965231D01*
X321194Y964436D01*
X330695D01*
X340196D01*
X339867Y965231D01*
X339461Y965761D01*
X340023Y966900D01*
X460000D01*
Y376000D01*
X453340D01*
X452813Y377270D01*
X453522Y377979D01*
X454334Y379939D01*
Y382061D01*
X453522Y384021D01*
X452021Y385522D01*
X450061Y386334D01*
X447939D01*
X445979Y385522D01*
X444478Y384021D01*
X443666Y382061D01*
Y379939D01*
X444478Y377979D01*
X445187Y377270D01*
X444660Y376000D01*
X429334D01*
Y376061D01*
X428522Y378022D01*
X427021Y379522D01*
X425061Y380334D01*
X422939D01*
X420979Y379522D01*
X419500Y378043D01*
X418022Y379522D01*
X416061Y380334D01*
X413939D01*
X411979Y379522D01*
X410500Y378043D01*
X409021Y379522D01*
X407061Y380334D01*
X404939D01*
X402979Y379522D01*
X401478Y378022D01*
X400666Y376061D01*
Y376000D01*
X303000D01*
Y195000D01*
X336000D01*
X341228Y200228D01*
X341978Y199478D01*
X343939Y198666D01*
X346061D01*
X348022Y199478D01*
X349522Y200979D01*
X350334Y202939D01*
Y205061D01*
X349522Y207022D01*
X348772Y207772D01*
X353000Y212000D01*
X460000D01*
Y105000D01*
X443674D01*
X442968Y106056D01*
X443334Y106939D01*
Y109061D01*
X442522Y111021D01*
X441021Y112522D01*
X439061Y113334D01*
X436939D01*
X434978Y112522D01*
X433579Y111122D01*
X433145Y111101D01*
X432227Y111320D01*
X431522Y113021D01*
X430022Y114522D01*
X428061Y115334D01*
X425939D01*
X423979Y114522D01*
X422478Y113021D01*
X421666Y111061D01*
Y108939D01*
X422478Y106979D01*
X423187Y106270D01*
X422661Y105000D01*
X404000D01*
Y33000D01*
X585544D01*
Y14556D01*
X584370Y14070D01*
X583644Y14797D01*
X580524Y16882D01*
X577057Y18318D01*
X573376Y19050D01*
X569624D01*
X565943Y18318D01*
X562476Y16882D01*
X559356Y14797D01*
X556703Y12144D01*
X554618Y9024D01*
X553182Y5557D01*
X552450Y1876D01*
Y-1876D01*
X553182Y-5557D01*
X554618Y-9024D01*
X556703Y-12144D01*
X559356Y-14797D01*
X562476Y-16882D01*
X565943Y-18318D01*
X569624Y-19050D01*
X573376D01*
X577057Y-18318D01*
X580524Y-16882D01*
X583644Y-14797D01*
X584370Y-14070D01*
X585544Y-14556D01*
Y-42824D01*
X585609Y-43317D01*
X585592Y-43813D01*
X585690Y-44804D01*
X585728Y-44966D01*
Y-45132D01*
X586026Y-46245D01*
X586288Y-47368D01*
X586367Y-47515D01*
X586409Y-47675D01*
X587168Y-49507D01*
X587499Y-50079D01*
X587752Y-50690D01*
X588154Y-51214D01*
X588485Y-51787D01*
X588952Y-52254D01*
X589355Y-52779D01*
X590756Y-54180D01*
X591281Y-54583D01*
X591748Y-55050D01*
X592321Y-55381D01*
X592845Y-55783D01*
X593456Y-56036D01*
X594028Y-56366D01*
X595860Y-57125D01*
X596020Y-57168D01*
X596166Y-57246D01*
X597289Y-57508D01*
X598403Y-57806D01*
X598569D01*
X598731Y-57844D01*
X599722Y-57942D01*
X600218Y-57925D01*
X600710Y-57990D01*
X648335Y-57990D01*
Y-200378D01*
X-76835D01*
X-80003Y-200378D01*
X-86285Y-199551D01*
X-92405Y-197911D01*
X-98258Y-195486D01*
X-103745Y-192318D01*
X-108772Y-188461D01*
X-113252Y-183981D01*
X-117109Y-178954D01*
X-120277Y-173467D01*
X-122702Y-167613D01*
X-124342Y-161494D01*
X-125169Y-155212D01*
X-125169Y-152044D01*
Y-106324D01*
X-125169Y-103156D01*
X-124342Y-96874D01*
X-122702Y-90754D01*
X-120277Y-84901D01*
X-117109Y-79414D01*
X-113252Y-74387D01*
X-108772Y-69907D01*
X-103745Y-66050D01*
X-98258Y-62882D01*
X-92404Y-60457D01*
X-86284Y-58817D01*
X-80002Y-57990D01*
X-76835Y-57990D01*
X-29210D01*
X-28718Y-57925D01*
X-28221Y-57941D01*
X-27230Y-57844D01*
X-27068Y-57806D01*
X-26902D01*
X-25789Y-57508D01*
X-24666Y-57246D01*
X-24519Y-57168D01*
X-24359Y-57125D01*
X-22528Y-56366D01*
X-21955Y-56036D01*
X-21345Y-55783D01*
X-20820Y-55380D01*
X-20248Y-55050D01*
X-19780Y-54582D01*
X-19256Y-54180D01*
X-17854Y-52778D01*
X-17452Y-52254D01*
X-16985Y-51787D01*
X-16654Y-51214D01*
X-16251Y-50689D01*
X-15999Y-50079D01*
X-15668Y-49506D01*
X-14909Y-47675D01*
X-14867Y-47515D01*
X-14788Y-47369D01*
X-14526Y-46246D01*
X-14228Y-45132D01*
Y-44966D01*
X-14190Y-44805D01*
X-14093Y-43814D01*
X-14109Y-43317D01*
X-14044Y-42824D01*
Y-14556D01*
X-12871Y-14070D01*
X-12144Y-14797D01*
X-9024Y-16882D01*
X-5557Y-18318D01*
X-1876Y-19050D01*
X1876D01*
X5557Y-18318D01*
X9024Y-16882D01*
X12144Y-14797D01*
X14797Y-12144D01*
X16882Y-9024D01*
X18318Y-5557D01*
X19050Y-1876D01*
Y1876D01*
X18318Y5557D01*
X16882Y9024D01*
X14797Y12144D01*
X12144Y14797D01*
X9024Y16882D01*
X5557Y18318D01*
X1876Y19050D01*
X-1876D01*
X-5557Y18318D01*
X-9024Y16882D01*
X-12144Y14797D01*
X-12871Y14070D01*
X-14044Y14556D01*
X-14044Y170536D01*
X-14109Y171029D01*
X-14093Y171525D01*
X-14190Y172516D01*
X-14228Y172678D01*
Y172844D01*
X-14526Y173958D01*
X-14788Y175080D01*
X-14866Y175227D01*
X-14909Y175387D01*
X-15668Y177218D01*
X-15999Y177791D01*
X-16251Y178401D01*
X-16654Y178926D01*
X-16985Y179499D01*
X-17452Y179966D01*
X-17854Y180490D01*
X-19256Y181892D01*
X-19780Y182294D01*
X-20248Y182762D01*
X-20820Y183092D01*
X-21345Y183495D01*
X-21956Y183748D01*
X-22528Y184078D01*
X-24359Y184837D01*
X-24519Y184880D01*
X-24666Y184958D01*
X-25789Y185220D01*
X-26903Y185518D01*
X-27068D01*
X-27230Y185556D01*
X-28221Y185653D01*
X-28717Y185637D01*
X-29210Y185702D01*
X-69215D01*
X-71964Y185702D01*
X-77435Y186241D01*
X-82827Y187313D01*
X-88088Y188909D01*
X-93167Y191013D01*
X-98016Y193605D01*
X-102587Y196659D01*
X-106837Y200147D01*
X-110724Y204034D01*
X-114212Y208284D01*
X-117266Y212855D01*
X-119858Y217704D01*
X-121962Y222783D01*
X-123558Y228044D01*
X-124630Y233436D01*
X-125169Y238907D01*
X-125169Y241656D01*
Y553829D01*
X-123899Y554476D01*
X-120975Y552352D01*
X-117048Y550351D01*
X-112857Y548989D01*
X-108504Y548300D01*
X-104096D01*
X-99743Y548989D01*
X-95552Y550351D01*
X-91625Y552352D01*
X-88059Y554943D01*
X-84943Y558059D01*
X-82352Y561625D01*
X-80351Y565552D01*
X-78990Y569743D01*
X-78300Y574096D01*
Y578504D01*
X-78990Y582857D01*
X-80351Y587048D01*
X-82352Y590975D01*
X-84943Y594541D01*
X-88059Y597657D01*
X-91625Y600248D01*
X-95552Y602249D01*
X-99743Y603610D01*
X-104096Y604300D01*
X-108504D01*
X-112857Y603610D01*
X-117048Y602249D01*
X-120975Y600248D01*
X-123899Y598124D01*
X-125169Y598771D01*
Y910946D01*
X-125169Y910946D01*
X-125169Y910946D01*
X-125169Y913695D01*
X-124630Y919166D01*
X-123558Y924558D01*
X-121962Y929819D01*
X-119858Y934899D01*
X-117267Y939747D01*
X-114212Y944318D01*
X-110725Y948568D01*
X-106837Y952456D01*
X-102587Y955943D01*
X-98016Y958998D01*
X-93168Y961589D01*
X-88089Y963693D01*
X-82828Y965289D01*
X-77435Y966361D01*
X-71964Y966900D01*
X-69215Y966900D01*
D02*
G37*
G36*
X412941Y344000D02*
X412941Y344000D01*
X413000Y343704D01*
Y343000D01*
X413181Y342819D01*
X413837Y341837D01*
X413837Y341837D01*
X419837Y335837D01*
X420819Y335181D01*
X421000Y335000D01*
X421705D01*
X422000Y334941D01*
X422000Y334941D01*
X450941D01*
Y327059D01*
X415334D01*
Y327061D01*
X414522Y329021D01*
X413021Y330522D01*
X411061Y331334D01*
X408939D01*
X406978Y330522D01*
X406500Y330043D01*
X406021Y330522D01*
X404061Y331334D01*
X401939D01*
X399978Y330522D01*
X398478Y329021D01*
X397666Y327061D01*
Y327059D01*
X345000D01*
X344705Y327000D01*
X342000D01*
Y324296D01*
X341941Y324000D01*
Y284059D01*
X306059D01*
Y355941D01*
X412941D01*
Y344000D01*
D02*
G37*
%LPC*%
G36*
X667939Y940985D02*
X664061D01*
X660258Y940229D01*
X656676Y938745D01*
X653452Y936590D01*
X650710Y933848D01*
X648555Y930624D01*
X647072Y927042D01*
X646315Y923239D01*
Y919361D01*
X647072Y915558D01*
X648555Y911976D01*
X650710Y908752D01*
X653452Y906010D01*
X656676Y903855D01*
X660258Y902372D01*
X664061Y901615D01*
X667939D01*
X671742Y902372D01*
X675324Y903855D01*
X678549Y906010D01*
X681290Y908752D01*
X683445Y911976D01*
X684929Y915558D01*
X685685Y919361D01*
Y923239D01*
X684929Y927042D01*
X683445Y930624D01*
X681290Y933848D01*
X678549Y936590D01*
X675324Y938745D01*
X671742Y940229D01*
X667939Y940985D01*
D02*
G37*
G36*
X676530Y603840D02*
X675632D01*
X671351Y603162D01*
X667228Y601822D01*
X663366Y599854D01*
X659859Y597306D01*
X656794Y594241D01*
X654246Y590734D01*
X652278Y586872D01*
X650938Y582749D01*
X650260Y578467D01*
Y577570D01*
X676530D01*
Y603840D01*
D02*
G37*
G36*
Y575030D02*
X650260D01*
Y574132D01*
X650938Y569851D01*
X652278Y565728D01*
X654246Y561866D01*
X656794Y558359D01*
X659859Y555294D01*
X663366Y552746D01*
X667228Y550778D01*
X671351Y549438D01*
X675632Y548760D01*
X676530D01*
Y575030D01*
D02*
G37*
G36*
X385061Y322334D02*
X382939D01*
X380979Y321522D01*
X379478Y320022D01*
X378666Y318061D01*
Y315939D01*
X379478Y313979D01*
X379957Y313500D01*
X379478Y313021D01*
X378666Y311061D01*
Y308939D01*
X379478Y306978D01*
X380979Y305478D01*
X382939Y304666D01*
X385061D01*
X387021Y305478D01*
X388522Y306978D01*
X389334Y308939D01*
Y311061D01*
X388522Y313021D01*
X388043Y313500D01*
X388522Y313979D01*
X389334Y315939D01*
Y318061D01*
X388522Y320022D01*
X387021Y321522D01*
X385061Y322334D01*
D02*
G37*
G36*
X411061Y314334D02*
X408939D01*
X406978Y313522D01*
X405478Y312021D01*
X404666Y310061D01*
Y307939D01*
X405478Y305979D01*
X406978Y304478D01*
X408939Y303666D01*
X411061D01*
X413021Y304478D01*
X414522Y305979D01*
X415334Y307939D01*
Y310061D01*
X414522Y312021D01*
X413021Y313522D01*
X411061Y314334D01*
D02*
G37*
G36*
X366061Y266334D02*
X363939D01*
X361978Y265522D01*
X360478Y264021D01*
X359666Y262061D01*
Y259939D01*
X360478Y257979D01*
X361978Y256478D01*
X363939Y255666D01*
X366061D01*
X368022Y256478D01*
X369522Y257979D01*
X370334Y259939D01*
Y262061D01*
X369522Y264021D01*
X368022Y265522D01*
X366061Y266334D01*
D02*
G37*
G36*
X440061Y246334D02*
X437939D01*
X435979Y245522D01*
X434478Y244021D01*
X433666Y242061D01*
Y239939D01*
X434478Y237978D01*
X435979Y236478D01*
X437939Y235666D01*
X440061D01*
X442021Y236478D01*
X443522Y237978D01*
X444334Y239939D01*
Y242061D01*
X443522Y244021D01*
X442021Y245522D01*
X440061Y246334D01*
D02*
G37*
G36*
X405061Y237334D02*
X402939D01*
X400979Y236522D01*
X400000Y235543D01*
X399021Y236522D01*
X397061Y237334D01*
X394939D01*
X392979Y236522D01*
X391478Y235021D01*
X390666Y233061D01*
Y230939D01*
X391478Y228979D01*
X391957Y228500D01*
X391478Y228022D01*
X390666Y226061D01*
Y223939D01*
X391478Y221979D01*
X392979Y220478D01*
X394939Y219666D01*
X397061D01*
X399021Y220478D01*
X400000Y221457D01*
X400979Y220478D01*
X402939Y219666D01*
X405061D01*
X407021Y220478D01*
X408522Y221979D01*
X409334Y223939D01*
Y226061D01*
X408522Y228022D01*
X408043Y228500D01*
X408522Y228979D01*
X409334Y230939D01*
Y233061D01*
X408522Y235021D01*
X407021Y236522D01*
X405061Y237334D01*
D02*
G37*
G36*
X515061Y243334D02*
X512939D01*
X510979Y242522D01*
X509478Y241021D01*
X508666Y239061D01*
Y236939D01*
X509478Y234979D01*
X510957Y233500D01*
X509478Y232022D01*
X508666Y230061D01*
Y227939D01*
X509478Y225979D01*
X510979Y224478D01*
X512939Y223666D01*
X515061D01*
X517021Y224478D01*
X518522Y225979D01*
X519334Y227939D01*
Y230061D01*
X518522Y232022D01*
X517043Y233500D01*
X518522Y234979D01*
X519334Y236939D01*
Y239061D01*
X518522Y241021D01*
X517021Y242522D01*
X515061Y243334D01*
D02*
G37*
G36*
X471061Y231334D02*
X468939D01*
X466978Y230522D01*
X465478Y229021D01*
X464666Y227061D01*
Y224939D01*
X465478Y222978D01*
X466978Y221478D01*
X468939Y220666D01*
X471061D01*
X473022Y221478D01*
X474522Y222978D01*
X475334Y224939D01*
Y227061D01*
X474522Y229021D01*
X473022Y230522D01*
X471061Y231334D01*
D02*
G37*
G36*
X667939Y250985D02*
X664061D01*
X660258Y250229D01*
X656676Y248745D01*
X653452Y246590D01*
X650710Y243848D01*
X648555Y240624D01*
X647072Y237042D01*
X646315Y233239D01*
Y229361D01*
X647072Y225558D01*
X648555Y221976D01*
X650710Y218752D01*
X653452Y216010D01*
X656676Y213855D01*
X660258Y212372D01*
X664061Y211615D01*
X667939D01*
X671742Y212372D01*
X675324Y213855D01*
X678549Y216010D01*
X681290Y218752D01*
X683445Y221976D01*
X684929Y225558D01*
X685685Y229361D01*
Y233239D01*
X684929Y237042D01*
X683445Y240624D01*
X681290Y243848D01*
X678549Y246590D01*
X675324Y248745D01*
X671742Y250229D01*
X667939Y250985D01*
D02*
G37*
G36*
X485061Y224334D02*
X482939D01*
X480979Y223522D01*
X479478Y222022D01*
X478666Y220061D01*
Y217939D01*
X479478Y215979D01*
X480979Y214478D01*
X481137Y213681D01*
X480478Y213022D01*
X479666Y211061D01*
Y208939D01*
X480478Y206979D01*
X481978Y205478D01*
X483939Y204666D01*
X486061D01*
X488022Y205478D01*
X489522Y206979D01*
X490334Y208939D01*
Y211061D01*
X489522Y213022D01*
X488022Y214522D01*
X487863Y215319D01*
X488522Y215979D01*
X489334Y217939D01*
Y220061D01*
X488522Y222022D01*
X487021Y223522D01*
X485061Y224334D01*
D02*
G37*
G36*
X500061Y209334D02*
X497939D01*
X495979Y208522D01*
X494478Y207022D01*
X493666Y205061D01*
Y202939D01*
X494478Y200979D01*
X495979Y199478D01*
X497939Y198666D01*
X500061D01*
X502021Y199478D01*
X503522Y200979D01*
X504334Y202939D01*
Y205061D01*
X503522Y207022D01*
X502021Y208522D01*
X500061Y209334D01*
D02*
G37*
G36*
X485061Y182334D02*
X482939D01*
X480979Y181522D01*
X479478Y180021D01*
X478666Y178061D01*
Y175939D01*
X479478Y173979D01*
X480979Y172478D01*
X482939Y171666D01*
X485061D01*
X487021Y172478D01*
X488522Y173979D01*
X489334Y175939D01*
Y178061D01*
X488522Y180021D01*
X487021Y181522D01*
X485061Y182334D01*
D02*
G37*
G36*
X489061Y132334D02*
X486939D01*
X484978Y131522D01*
X483478Y130021D01*
X482666Y128061D01*
Y125939D01*
X482873Y125439D01*
X482386Y124915D01*
X481849Y124593D01*
X480061Y125334D01*
X477939D01*
X475979Y124522D01*
X475000Y123543D01*
X474021Y124522D01*
X472061Y125334D01*
X469939D01*
X467979Y124522D01*
X466478Y123021D01*
X465666Y121061D01*
Y118939D01*
X466478Y116979D01*
X467979Y115478D01*
X469939Y114666D01*
X472061D01*
X474021Y115478D01*
X475000Y116457D01*
X475979Y115478D01*
X477939Y114666D01*
X480061D01*
X482021Y115478D01*
X483522Y116979D01*
X484334Y118939D01*
Y121061D01*
X484127Y121561D01*
X484614Y122085D01*
X485151Y122407D01*
X486939Y121666D01*
X489061D01*
X491021Y122478D01*
X492522Y123979D01*
X493334Y125939D01*
Y128061D01*
X492522Y130021D01*
X491021Y131522D01*
X489061Y132334D01*
D02*
G37*
G36*
X525061Y114334D02*
X522939D01*
X520979Y113522D01*
X519478Y112022D01*
X518666Y110061D01*
Y107939D01*
X519478Y105979D01*
X520979Y104478D01*
X522939Y103666D01*
X525061D01*
X527021Y104478D01*
X528522Y105979D01*
X529334Y107939D01*
Y110061D01*
X528522Y112022D01*
X527021Y113522D01*
X525061Y114334D01*
D02*
G37*
G36*
X496061Y113334D02*
X493939D01*
X491978Y112522D01*
X490478Y111021D01*
X489666Y109061D01*
Y106939D01*
X490478Y104979D01*
X491978Y103478D01*
X493939Y102666D01*
X496061D01*
X498022Y103478D01*
X499522Y104979D01*
X500334Y106939D01*
Y109061D01*
X499522Y111021D01*
X498022Y112522D01*
X496061Y113334D01*
D02*
G37*
G36*
X450061Y80334D02*
X447939D01*
X445979Y79522D01*
X444478Y78021D01*
X443666Y76061D01*
Y73939D01*
X444478Y71979D01*
X445979Y70478D01*
X447939Y69666D01*
X450061D01*
X452021Y70478D01*
X453522Y71979D01*
X454334Y73939D01*
Y76061D01*
X453522Y78021D01*
X452021Y79522D01*
X450061Y80334D01*
D02*
G37*
G36*
X417061Y68334D02*
X414939D01*
X412979Y67522D01*
X411478Y66021D01*
X410666Y64061D01*
Y61939D01*
X411478Y59978D01*
X412979Y58478D01*
X414939Y57666D01*
X417061D01*
X419021Y58478D01*
X420522Y59978D01*
X421334Y61939D01*
Y64061D01*
X420522Y66021D01*
X419021Y67522D01*
X417061Y68334D01*
D02*
G37*
G36*
X506061Y59334D02*
X503939D01*
X501978Y58522D01*
X500478Y57021D01*
X499666Y55061D01*
Y52939D01*
X500478Y50978D01*
X501978Y49478D01*
X503939Y48666D01*
X506061D01*
X508022Y49478D01*
X509522Y50978D01*
X510334Y52939D01*
Y55061D01*
X509522Y57021D01*
X508022Y58522D01*
X506061Y59334D01*
D02*
G37*
G36*
X403056Y952870D02*
X400934D01*
X398974Y952058D01*
X398495Y951579D01*
X398017Y952058D01*
X396056Y952870D01*
X393934D01*
X391974Y952058D01*
X391495Y951579D01*
X391017Y952058D01*
X389056Y952870D01*
X386934D01*
X384974Y952058D01*
X384495Y951579D01*
X384017Y952058D01*
X382056Y952870D01*
X379934D01*
X377974Y952058D01*
X376473Y950557D01*
X375661Y948597D01*
Y946475D01*
X376473Y944514D01*
X377974Y943014D01*
X379934Y942202D01*
X382056D01*
X384017Y943014D01*
X384495Y943493D01*
X384974Y943014D01*
X386934Y942202D01*
X389056D01*
X391017Y943014D01*
X391495Y943493D01*
X391974Y943014D01*
X392794Y942674D01*
X393473Y941557D01*
X392661Y939597D01*
Y937475D01*
X393473Y935515D01*
X394974Y934014D01*
X396934Y933202D01*
X399056D01*
X401017Y934014D01*
X402517Y935515D01*
X403329Y937475D01*
Y939597D01*
X403194Y939925D01*
X404010Y941272D01*
X404155Y941284D01*
X404473Y940515D01*
X405974Y939014D01*
X407934Y938202D01*
X410056D01*
X412017Y939014D01*
X413517Y940515D01*
X414329Y942475D01*
Y944597D01*
X413517Y946557D01*
X412017Y948058D01*
X410056Y948870D01*
X407934D01*
X407321Y948616D01*
X406517Y950557D01*
X405017Y952058D01*
X403056Y952870D01*
D02*
G37*
G36*
X203061Y956334D02*
X200939D01*
X198979Y955522D01*
X197478Y954022D01*
X196666Y952061D01*
Y949939D01*
X197478Y947979D01*
X198979Y946478D01*
X200939Y945666D01*
X203061D01*
X205021Y946478D01*
X206522Y947979D01*
X207334Y949939D01*
Y952061D01*
X206522Y954022D01*
X205021Y955522D01*
X203061Y956334D01*
D02*
G37*
G36*
X183061Y958334D02*
X180939D01*
X178979Y957522D01*
X177478Y956021D01*
X176666Y954061D01*
Y951939D01*
X177478Y949978D01*
X178979Y948478D01*
X179347Y947393D01*
X178994Y946782D01*
X178397Y944554D01*
Y942246D01*
X178994Y940018D01*
X180148Y938019D01*
X181779Y936388D01*
X183778Y935234D01*
X186006Y934637D01*
X188314D01*
X189007Y934823D01*
X189797Y933720D01*
X188501Y931779D01*
X187318Y928925D01*
X186716Y925895D01*
Y922805D01*
X187318Y919775D01*
X188501Y916921D01*
X190217Y914352D01*
X192402Y912167D01*
X194971Y910451D01*
X197825Y909268D01*
X198558Y909122D01*
Y907828D01*
X197825Y907682D01*
X194971Y906499D01*
X192402Y904783D01*
X190217Y902598D01*
X188501Y900029D01*
X187318Y897175D01*
X186825Y894696D01*
X185522Y894654D01*
X185166Y895982D01*
X184012Y897981D01*
X182381Y899612D01*
X180382Y900766D01*
X178154Y901363D01*
X175846D01*
X173618Y900766D01*
X171619Y899612D01*
X169988Y897981D01*
X168834Y895982D01*
X168478Y894654D01*
X167175Y894696D01*
X166682Y897175D01*
X165499Y900029D01*
X163783Y902598D01*
X161598Y904783D01*
X159029Y906499D01*
X156175Y907682D01*
X155442Y907828D01*
Y909122D01*
X156175Y909268D01*
X159029Y910451D01*
X161598Y912167D01*
X163783Y914352D01*
X165499Y916921D01*
X166682Y919775D01*
X167285Y922805D01*
Y925895D01*
X166682Y928925D01*
X165499Y931779D01*
X164203Y933720D01*
X164993Y934823D01*
X165686Y934637D01*
X167994D01*
X170222Y935234D01*
X172221Y936388D01*
X173852Y938019D01*
X175006Y940018D01*
X175603Y942246D01*
Y944554D01*
X175006Y946782D01*
X173852Y948781D01*
X172221Y950412D01*
X170222Y951566D01*
X167994Y952163D01*
X165686D01*
X163458Y951566D01*
X161459Y950412D01*
X159828Y948781D01*
X158674Y946782D01*
X158077Y944554D01*
Y942246D01*
X158674Y940018D01*
X158861Y939694D01*
X157977Y938685D01*
X156175Y939432D01*
X153145Y940034D01*
X150055D01*
X147025Y939432D01*
X144171Y938249D01*
X141602Y936533D01*
X139417Y934348D01*
X137701Y931779D01*
X136518Y928925D01*
X135915Y925895D01*
Y922805D01*
X136518Y919775D01*
X137701Y916921D01*
X139417Y914352D01*
X141602Y912167D01*
X144171Y910451D01*
X147025Y909268D01*
X147758Y909122D01*
Y907828D01*
X147025Y907682D01*
X144171Y906499D01*
X141602Y904783D01*
X139417Y902598D01*
X137701Y900029D01*
X136518Y897175D01*
X135915Y894145D01*
Y891055D01*
X136518Y888025D01*
X137701Y885171D01*
X139417Y882602D01*
X141602Y880417D01*
X144171Y878701D01*
X147025Y877518D01*
X150055Y876916D01*
X153145D01*
X156175Y877518D01*
X159029Y878701D01*
X161598Y880417D01*
X163783Y882602D01*
X165499Y885171D01*
X166682Y888025D01*
X167175Y890504D01*
X168478Y890546D01*
X168834Y889218D01*
X169988Y887219D01*
X171619Y885588D01*
X172325Y885180D01*
X172478Y884021D01*
X171666Y882061D01*
Y879939D01*
X172478Y877979D01*
X173957Y876500D01*
X172478Y875022D01*
X171666Y873061D01*
Y870939D01*
X172478Y868979D01*
X173979Y867478D01*
X175939Y866666D01*
X178061D01*
X180021Y867478D01*
X181522Y868979D01*
X182334Y870939D01*
Y873061D01*
X181522Y875022D01*
X180043Y876500D01*
X181522Y877979D01*
X182334Y879939D01*
Y882061D01*
X181522Y884021D01*
X181674Y885180D01*
X182381Y885588D01*
X184012Y887219D01*
X185166Y889218D01*
X185522Y890546D01*
X186825Y890504D01*
X187318Y888025D01*
X188501Y885171D01*
X190217Y882602D01*
X192402Y880417D01*
X194971Y878701D01*
X197825Y877518D01*
X200855Y876916D01*
X203945D01*
X206975Y877518D01*
X209829Y878701D01*
X212398Y880417D01*
X214583Y882602D01*
X216299Y885171D01*
X217482Y888025D01*
X218085Y891055D01*
Y894145D01*
X217482Y897175D01*
X216299Y900029D01*
X214583Y902598D01*
X212398Y904783D01*
X209829Y906499D01*
X206975Y907682D01*
X206242Y907828D01*
Y909122D01*
X206975Y909268D01*
X209829Y910451D01*
X212398Y912167D01*
X214583Y914352D01*
X216299Y916921D01*
X217482Y919775D01*
X218085Y922805D01*
Y925895D01*
X217482Y928925D01*
X216299Y931779D01*
X214583Y934348D01*
X214560Y934372D01*
X215086Y935642D01*
X216037D01*
X217997Y936454D01*
X219498Y937954D01*
X220310Y939915D01*
Y942037D01*
X219498Y943997D01*
X217997Y945498D01*
X216037Y946310D01*
X213915D01*
X211954Y945498D01*
X210454Y943997D01*
X209642Y942037D01*
Y939915D01*
X209748Y939658D01*
X208776Y938686D01*
X206975Y939432D01*
X203945Y940034D01*
X200855D01*
X197825Y939432D01*
X196023Y938685D01*
X195139Y939694D01*
X195326Y940018D01*
X195923Y942246D01*
Y944554D01*
X195326Y946782D01*
X194172Y948781D01*
X192541Y950412D01*
X190542Y951566D01*
X188314Y952163D01*
X187334D01*
Y954061D01*
X186522Y956021D01*
X185021Y957522D01*
X183061Y958334D01*
D02*
G37*
G36*
X248197Y944436D02*
X238695D01*
X229194D01*
X229524Y943641D01*
X231207Y941447D01*
X232833Y940200D01*
X232861Y940145D01*
Y938727D01*
X232833Y938672D01*
X231207Y937425D01*
X229524Y935231D01*
X229194Y934436D01*
X238695D01*
Y914436D01*
X229194D01*
X229524Y913641D01*
X231207Y911447D01*
X233400Y909764D01*
X235954Y908706D01*
X238695Y908345D01*
X241336Y908693D01*
X241651Y907518D01*
X242646Y905794D01*
X244053Y904387D01*
X245777Y903391D01*
X247700Y902876D01*
X249691D01*
X251613Y903391D01*
X253337Y904387D01*
X254745Y905794D01*
X255740Y907518D01*
X256053Y908686D01*
X257782D01*
X259880Y909248D01*
X261761Y910334D01*
X263297Y911870D01*
X264383Y913752D01*
X264945Y915850D01*
Y916217D01*
X266215Y917001D01*
X266445Y916886D01*
Y915693D01*
X267397Y913396D01*
X269155Y911637D01*
X271452Y910686D01*
X273939D01*
X276236Y911637D01*
X276695Y912097D01*
X277155Y911637D01*
X279452Y910686D01*
X281939D01*
X284236Y911637D01*
X284695Y912097D01*
X285155Y911637D01*
X287452Y910686D01*
X289939D01*
X292236Y911637D01*
X292695Y912097D01*
X293155Y911637D01*
X295452Y910686D01*
X297938D01*
X300236Y911637D01*
X301994Y913396D01*
X302945Y915693D01*
Y916886D01*
X303175Y917001D01*
X304445Y916217D01*
Y915850D01*
X305008Y913752D01*
X306094Y911870D01*
X307630Y910334D01*
X309511Y909248D01*
X311609Y908686D01*
X312300D01*
X312330Y908462D01*
X313092Y906623D01*
X314303Y905044D01*
X315883Y903832D01*
X317722Y903071D01*
X319695Y902811D01*
X321695D01*
X323669Y903071D01*
X325508Y903832D01*
X327087Y905044D01*
X328299Y906623D01*
X329061Y908462D01*
X329073Y908559D01*
X330695Y908345D01*
X333436Y908706D01*
X335991Y909764D01*
X338184Y911447D01*
X339867Y913641D01*
X340196Y914436D01*
X330695D01*
Y934436D01*
X340196D01*
X339867Y935231D01*
X338184Y937425D01*
X336558Y938672D01*
X336530Y938727D01*
Y940145D01*
X336558Y940200D01*
X338184Y941447D01*
X339867Y943641D01*
X340196Y944436D01*
X330695D01*
X321194D01*
X321524Y943641D01*
X323207Y941447D01*
X324833Y940200D01*
X324861Y940145D01*
Y938727D01*
X324833Y938672D01*
X323207Y937425D01*
X321524Y935231D01*
X320466Y932677D01*
X320105Y929936D01*
Y922990D01*
X318835Y922464D01*
X317761Y923538D01*
X315880Y924624D01*
X314945Y924874D01*
Y925179D01*
X313994Y927476D01*
X312236Y929234D01*
X309939Y930186D01*
X307452D01*
X305155Y929234D01*
X304695Y928775D01*
X304236Y929234D01*
X301938Y930186D01*
X299452D01*
X297155Y929234D01*
X296695Y928775D01*
X296236Y929234D01*
X293939Y930186D01*
X291452D01*
X289155Y929234D01*
X287397Y927476D01*
X286445Y925179D01*
Y922769D01*
X285155Y922234D01*
X284695Y921775D01*
X284236Y922234D01*
X282945Y922769D01*
Y925179D01*
X281994Y927476D01*
X280236Y929234D01*
X277938Y930186D01*
X275452D01*
X273155Y929234D01*
X272695Y928775D01*
X272236Y929234D01*
X269939Y930186D01*
X267452D01*
X265155Y929234D01*
X264695Y928775D01*
X264236Y929234D01*
X261938Y930186D01*
X259452D01*
X257155Y929234D01*
X255397Y927476D01*
X254445Y925179D01*
Y924874D01*
X253511Y924624D01*
X251630Y923538D01*
X250556Y922464D01*
X249286Y922990D01*
Y929936D01*
X248925Y932677D01*
X247867Y935231D01*
X246184Y937425D01*
X244558Y938672D01*
X244530Y938727D01*
Y940145D01*
X244558Y940200D01*
X246184Y941447D01*
X247867Y943641D01*
X248197Y944436D01*
D02*
G37*
G36*
X-92561Y940985D02*
X-96439D01*
X-100242Y940229D01*
X-103824Y938745D01*
X-107049Y936590D01*
X-109790Y933848D01*
X-111945Y930624D01*
X-113428Y927042D01*
X-114185Y923239D01*
Y919361D01*
X-113428Y915558D01*
X-111945Y911976D01*
X-109790Y908752D01*
X-107049Y906010D01*
X-103824Y903855D01*
X-100242Y902372D01*
X-96439Y901615D01*
X-92561D01*
X-88758Y902372D01*
X-85176Y903855D01*
X-81952Y906010D01*
X-79210Y908752D01*
X-77055Y911976D01*
X-75571Y915558D01*
X-74815Y919361D01*
Y923239D01*
X-75571Y927042D01*
X-77055Y930624D01*
X-79210Y933848D01*
X-81952Y936590D01*
X-85176Y938745D01*
X-88758Y940229D01*
X-92561Y940985D01*
D02*
G37*
G36*
X383056Y904870D02*
X380934D01*
X378974Y904058D01*
X377473Y902558D01*
X376661Y900597D01*
Y898475D01*
X377473Y896515D01*
X378974Y895014D01*
X380934Y894202D01*
X383056D01*
X385017Y895014D01*
X386517Y896515D01*
X387329Y898475D01*
Y900597D01*
X386517Y902558D01*
X385017Y904058D01*
X383056Y904870D01*
D02*
G37*
G36*
X354056Y902870D02*
X351934D01*
X349974Y902058D01*
X348473Y900557D01*
X347661Y898597D01*
Y896475D01*
X348473Y894515D01*
X349974Y893014D01*
X351934Y892202D01*
X354056D01*
X356017Y893014D01*
X357517Y894515D01*
X358329Y896475D01*
Y898597D01*
X357517Y900557D01*
X356017Y902058D01*
X354056Y902870D01*
D02*
G37*
G36*
X244056Y890270D02*
X241934D01*
X239974Y889458D01*
X239495Y888979D01*
X239017Y889458D01*
X237056Y890270D01*
X234934D01*
X232974Y889458D01*
X232495Y888979D01*
X232017Y889458D01*
X230056Y890270D01*
X227934D01*
X225974Y889458D01*
X224473Y887957D01*
X223661Y885997D01*
Y883875D01*
X224473Y881915D01*
X225974Y880414D01*
X227934Y879602D01*
X230056D01*
X232017Y880414D01*
X232495Y880893D01*
X232974Y880414D01*
X234934Y879602D01*
X237056D01*
X239017Y880414D01*
X239495Y880893D01*
X239974Y880414D01*
X241934Y879602D01*
X244056D01*
X246017Y880414D01*
X247517Y881915D01*
X248329Y883875D01*
Y885997D01*
X247517Y887957D01*
X246017Y889458D01*
X244056Y890270D01*
D02*
G37*
G36*
X271061Y899334D02*
X268939D01*
X266978Y898522D01*
X265478Y897021D01*
X264666Y895061D01*
Y892939D01*
X265478Y890978D01*
X266978Y889478D01*
X268939Y888666D01*
X269956D01*
X270805Y887396D01*
X270666Y887061D01*
Y884939D01*
X271478Y882979D01*
X272978Y881478D01*
X274939Y880666D01*
X277061D01*
X279021Y881478D01*
X280522Y882979D01*
X281334Y884939D01*
Y886602D01*
X282056D01*
X284017Y887414D01*
X284995Y888393D01*
X285974Y887414D01*
X287934Y886602D01*
X288661D01*
Y884875D01*
X289473Y882915D01*
X290974Y881414D01*
X292934Y880602D01*
X295056D01*
X297017Y881414D01*
X298517Y882915D01*
X299329Y884875D01*
Y886997D01*
X299089Y887576D01*
X299692Y888188D01*
X300114Y888422D01*
X301939Y887666D01*
X304061D01*
X306021Y888478D01*
X307522Y889978D01*
X308334Y891939D01*
Y894061D01*
X307522Y896021D01*
X306021Y897522D01*
X304061Y898334D01*
X301939D01*
X299979Y897522D01*
X298478Y896021D01*
X297666Y894061D01*
Y891939D01*
X297906Y891360D01*
X297303Y890748D01*
X296882Y890514D01*
X295056Y891270D01*
X294329D01*
Y892997D01*
X293517Y894957D01*
X292017Y896458D01*
X290056Y897270D01*
X287934D01*
X285974Y896458D01*
X284995Y895479D01*
X284017Y896458D01*
X282056Y897270D01*
X279934D01*
X277974Y896458D01*
X276596Y895080D01*
X276052Y895072D01*
X275238Y895293D01*
X274522Y897021D01*
X273022Y898522D01*
X271061Y899334D01*
D02*
G37*
G36*
X358369Y887558D02*
X356247D01*
X354286Y886746D01*
X352786Y885245D01*
X351974Y883285D01*
Y881163D01*
X352786Y879202D01*
X354286Y877702D01*
X356247Y876890D01*
X358369D01*
X360329Y877702D01*
X361830Y879202D01*
X362642Y881163D01*
Y883285D01*
X361830Y885245D01*
X360329Y886746D01*
X358369Y887558D01*
D02*
G37*
G36*
X392494Y885683D02*
X390372D01*
X388411Y884871D01*
X386911Y883370D01*
X386099Y881410D01*
Y879288D01*
X386911Y877327D01*
X388411Y875827D01*
X390372Y875015D01*
X392494D01*
X394454Y875827D01*
X395955Y877327D01*
X396767Y879288D01*
Y881410D01*
X395955Y883370D01*
X394454Y884871D01*
X392494Y885683D01*
D02*
G37*
G36*
X379369Y870558D02*
X377247D01*
X375308Y869754D01*
X373369Y870558D01*
X371247D01*
X369286Y869746D01*
X367786Y868245D01*
X366974Y866285D01*
Y864163D01*
X367570Y862724D01*
X366974Y861285D01*
Y859163D01*
X367786Y857202D01*
X369286Y855702D01*
X371247Y854890D01*
X373369D01*
X375308Y855693D01*
X377247Y854890D01*
X379369D01*
X381329Y855702D01*
X382830Y857202D01*
X383642Y859163D01*
Y861285D01*
X383046Y862724D01*
X383642Y864163D01*
Y866285D01*
X382830Y868245D01*
X381329Y869746D01*
X379369Y870558D01*
D02*
G37*
G36*
X339056Y877870D02*
X336934D01*
X334974Y877058D01*
X333473Y875557D01*
X332661Y873597D01*
Y871475D01*
X333473Y869515D01*
X334974Y868014D01*
X336934Y867202D01*
X339056D01*
X341017Y868014D01*
X342517Y869515D01*
X343329Y871475D01*
Y873597D01*
X342517Y875557D01*
X341017Y877058D01*
X339056Y877870D01*
D02*
G37*
G36*
X433369Y884558D02*
X431247D01*
X429286Y883746D01*
X427786Y882245D01*
X426974Y880285D01*
Y878682D01*
X426581Y877951D01*
X425850Y877558D01*
X424247D01*
X422286Y876746D01*
X420786Y875245D01*
X419974Y873285D01*
Y871163D01*
X420786Y869202D01*
X422286Y867702D01*
X424247Y866890D01*
X426369D01*
X428329Y867702D01*
X428808Y868180D01*
X429286Y867702D01*
X431247Y866890D01*
X433369D01*
X435329Y867702D01*
X436830Y869202D01*
X437642Y871163D01*
Y873285D01*
X436830Y875245D01*
X436351Y875724D01*
X436830Y876202D01*
X437642Y878163D01*
Y880285D01*
X436830Y882245D01*
X435329Y883746D01*
X433369Y884558D01*
D02*
G37*
G36*
X188061Y867334D02*
X185939D01*
X183979Y866522D01*
X182478Y865022D01*
X181666Y863061D01*
Y860939D01*
X182478Y858979D01*
X183979Y857478D01*
X185939Y856666D01*
X188061D01*
X190021Y857478D01*
X191522Y858979D01*
X192334Y860939D01*
Y863061D01*
X191522Y865022D01*
X190021Y866522D01*
X188061Y867334D01*
D02*
G37*
G36*
X379369Y853558D02*
X377247D01*
X375308Y852755D01*
X373369Y853558D01*
X371247D01*
X369286Y852746D01*
X367786Y851245D01*
X366974Y849285D01*
Y847163D01*
X367570Y845724D01*
X366974Y844285D01*
Y842163D01*
X367786Y840202D01*
X369286Y838702D01*
X371247Y837890D01*
X373369D01*
X375308Y838693D01*
X377247Y837890D01*
X379369D01*
X381329Y838702D01*
X382830Y840202D01*
X383642Y842163D01*
Y844285D01*
X383046Y845724D01*
X383642Y847163D01*
Y849285D01*
X382830Y851245D01*
X381329Y852746D01*
X379369Y853558D01*
D02*
G37*
G36*
X328061Y871334D02*
X325939D01*
X323979Y870522D01*
X322478Y869022D01*
X321666Y867061D01*
Y864939D01*
X322478Y862979D01*
X323979Y861478D01*
X324100Y861428D01*
X324390Y859933D01*
X323478Y859021D01*
X322666Y857061D01*
Y854939D01*
X323478Y852979D01*
X324978Y851478D01*
X326939Y850666D01*
X329061D01*
X331021Y851478D01*
X332522Y852979D01*
X333334Y854939D01*
Y857061D01*
X332522Y859021D01*
X331021Y860522D01*
X330900Y860572D01*
X330610Y862067D01*
X331522Y862979D01*
X332334Y864939D01*
Y867061D01*
X331522Y869022D01*
X330022Y870522D01*
X328061Y871334D01*
D02*
G37*
G36*
X433369Y846558D02*
X431247D01*
X429286Y845746D01*
X428808Y845267D01*
X428329Y845746D01*
X426369Y846558D01*
X424247D01*
X422286Y845746D01*
X420786Y844245D01*
X419974Y842285D01*
Y840163D01*
X420786Y838202D01*
X422286Y836702D01*
X424247Y835890D01*
X426264D01*
X426666Y835529D01*
X427214Y834865D01*
X426974Y834285D01*
Y832163D01*
X427786Y830202D01*
X429286Y828702D01*
X431247Y827890D01*
X433369D01*
X435329Y828702D01*
X436830Y830202D01*
X437642Y832163D01*
Y834285D01*
X436830Y836245D01*
X435851Y837224D01*
X436830Y838202D01*
X437642Y840163D01*
Y842285D01*
X436830Y844245D01*
X435329Y845746D01*
X433369Y846558D01*
D02*
G37*
G36*
X294231Y840850D02*
X291769D01*
X289391Y840213D01*
X287259Y838982D01*
X286339Y838062D01*
X285500Y837258D01*
X284661Y838062D01*
X283741Y838982D01*
X281609Y840213D01*
X279231Y840850D01*
X276769D01*
X274391Y840213D01*
X272259Y838982D01*
X270518Y837241D01*
X269287Y835109D01*
X268650Y832731D01*
Y830269D01*
X269287Y827891D01*
X270518Y825759D01*
X272259Y824018D01*
X274391Y822787D01*
X276769Y822150D01*
X279231D01*
X281609Y822787D01*
X283741Y824018D01*
X284661Y824938D01*
X285500Y825742D01*
X286339Y824938D01*
X287259Y824018D01*
X289391Y822787D01*
X291769Y822150D01*
X294231D01*
X296609Y822787D01*
X298741Y824018D01*
X300482Y825759D01*
X301713Y827891D01*
X302350Y830269D01*
Y832731D01*
X301713Y835109D01*
X300482Y837241D01*
X298741Y838982D01*
X296609Y840213D01*
X294231Y840850D01*
D02*
G37*
G36*
X348056Y838870D02*
X345934D01*
X343974Y838058D01*
X342473Y836557D01*
X341661Y834597D01*
Y832475D01*
X342473Y830515D01*
X343974Y829014D01*
X345934Y828202D01*
X348056D01*
X350017Y829014D01*
X351517Y830515D01*
X352329Y832475D01*
Y834597D01*
X351517Y836557D01*
X350017Y838058D01*
X348056Y838870D01*
D02*
G37*
G36*
X350056Y815870D02*
X347934D01*
X345974Y815058D01*
X344473Y813558D01*
X343661Y811597D01*
Y809475D01*
X344473Y807515D01*
X345974Y806014D01*
X347934Y805202D01*
X350056D01*
X352017Y806014D01*
X353517Y807515D01*
X354329Y809475D01*
Y811597D01*
X353517Y813558D01*
X352017Y815058D01*
X350056Y815870D01*
D02*
G37*
G36*
X452061Y809334D02*
X449939D01*
X447979Y808522D01*
X446478Y807021D01*
X445666Y805061D01*
Y802939D01*
X446478Y800978D01*
X447979Y799478D01*
X449939Y798666D01*
X452061D01*
X454021Y799478D01*
X455522Y800978D01*
X456334Y802939D01*
Y805061D01*
X455522Y807021D01*
X454021Y808522D01*
X452061Y809334D01*
D02*
G37*
G36*
X404056Y782870D02*
X401934D01*
X399974Y782058D01*
X398995Y781079D01*
X398017Y782058D01*
X396056Y782870D01*
X393934D01*
X391974Y782058D01*
X390995Y781079D01*
X390017Y782058D01*
X388056Y782870D01*
X385934D01*
X383974Y782058D01*
X382995Y781079D01*
X382017Y782058D01*
X380056Y782870D01*
X377934D01*
X375974Y782058D01*
X374473Y780557D01*
X373661Y778597D01*
Y776475D01*
X374473Y774515D01*
X374952Y774036D01*
X374473Y773558D01*
X373661Y771597D01*
Y769475D01*
X374473Y767515D01*
X375974Y766014D01*
X377934Y765202D01*
X380056D01*
X382017Y766014D01*
X382995Y766993D01*
X383974Y766014D01*
X385934Y765202D01*
X388056D01*
X390017Y766014D01*
X390995Y766993D01*
X391974Y766014D01*
X393934Y765202D01*
X396056D01*
X398017Y766014D01*
X398995Y766993D01*
X399974Y766014D01*
X401934Y765202D01*
X404056D01*
X406017Y766014D01*
X407517Y767515D01*
X408329Y769475D01*
Y771597D01*
X407517Y773558D01*
X407039Y774036D01*
X407517Y774515D01*
X408329Y776475D01*
Y778597D01*
X407517Y780557D01*
X406017Y782058D01*
X404056Y782870D01*
D02*
G37*
G36*
X198095Y755810D02*
X193405D01*
X188805Y754895D01*
X184472Y753100D01*
X180572Y750494D01*
X177256Y747178D01*
X174650Y743278D01*
X172855Y738945D01*
X171940Y734345D01*
Y729655D01*
X172855Y725055D01*
X174650Y720722D01*
X177256Y716822D01*
X180572Y713506D01*
X184472Y710900D01*
X188805Y709105D01*
X193405Y708190D01*
X198095D01*
X202696Y709105D01*
X207029Y710900D01*
X210928Y713506D01*
X214245Y716822D01*
X216850Y720722D01*
X218645Y725055D01*
X219560Y729655D01*
Y734345D01*
X218645Y738945D01*
X216850Y743278D01*
X214245Y747178D01*
X210928Y750494D01*
X207029Y753100D01*
X202696Y754895D01*
X198095Y755810D01*
D02*
G37*
G36*
X377954Y760000D02*
X373547D01*
X369194Y759311D01*
X365002Y757949D01*
X361075Y755948D01*
X357509Y753357D01*
X354393Y750241D01*
X351803Y746675D01*
X349802Y742748D01*
X348440Y738557D01*
X347750Y734204D01*
Y729796D01*
X348440Y725443D01*
X349802Y721252D01*
X351803Y717325D01*
X354393Y713759D01*
X357509Y710643D01*
X361075Y708052D01*
X365002Y706051D01*
X369194Y704689D01*
X373547Y704000D01*
X377954D01*
X382307Y704689D01*
X386499Y706051D01*
X390425Y708052D01*
X393991Y710643D01*
X397108Y713759D01*
X399698Y717325D01*
X401699Y721252D01*
X403061Y725443D01*
X403750Y729796D01*
Y734204D01*
X403061Y738557D01*
X401699Y742748D01*
X399698Y746675D01*
X397108Y750241D01*
X393991Y753357D01*
X390425Y755948D01*
X386499Y757949D01*
X382307Y759311D01*
X377954Y760000D01*
D02*
G37*
G36*
X378204Y699000D02*
X373796D01*
X369443Y698310D01*
X365252Y696949D01*
X361325Y694948D01*
X357759Y692357D01*
X354643Y689241D01*
X352052Y685675D01*
X350051Y681748D01*
X348689Y677557D01*
X348000Y673204D01*
Y668796D01*
X348689Y664443D01*
X350051Y660252D01*
X352052Y656325D01*
X354643Y652759D01*
X357759Y649643D01*
X361325Y647052D01*
X365252Y645051D01*
X369443Y643689D01*
X373796Y643000D01*
X378204D01*
X382557Y643689D01*
X386748Y645051D01*
X390675Y647052D01*
X394241Y649643D01*
X397357Y652759D01*
X399948Y656325D01*
X401949Y660252D01*
X403311Y664443D01*
X404000Y668796D01*
Y673204D01*
X403311Y677557D01*
X401949Y681748D01*
X399948Y685675D01*
X397357Y689241D01*
X394241Y692357D01*
X390675Y694948D01*
X386748Y696949D01*
X382557Y698310D01*
X378204Y699000D01*
D02*
G37*
G36*
X353049Y606425D02*
X348451D01*
X343910Y605706D01*
X339538Y604285D01*
X335441Y602198D01*
X331721Y599495D01*
X328470Y596244D01*
X325768Y592524D01*
X323680Y588428D01*
X322260Y584055D01*
X321540Y579514D01*
Y574916D01*
X322260Y570375D01*
X323680Y566002D01*
X325768Y561906D01*
X328470Y558186D01*
X331721Y554935D01*
X335441Y552232D01*
X339538Y550145D01*
X343910Y548724D01*
X348451Y548005D01*
X353049D01*
X357590Y548724D01*
X361963Y550145D01*
X366060Y552232D01*
X369779Y554935D01*
X373031Y558186D01*
X375733Y561906D01*
X377820Y566002D01*
X379241Y570375D01*
X379960Y574916D01*
Y579514D01*
X379241Y584055D01*
X377820Y588428D01*
X375733Y592524D01*
X373031Y596244D01*
X369779Y599495D01*
X366060Y602198D01*
X361963Y604285D01*
X357590Y605706D01*
X353049Y606425D01*
D02*
G37*
G36*
X223049D02*
X218451D01*
X213910Y605706D01*
X209538Y604285D01*
X205441Y602198D01*
X201721Y599495D01*
X198470Y596244D01*
X195768Y592524D01*
X193680Y588428D01*
X192260Y584055D01*
X191540Y579514D01*
Y574916D01*
X192260Y570375D01*
X193680Y566002D01*
X195768Y561906D01*
X198470Y558186D01*
X201721Y554935D01*
X205441Y552232D01*
X209538Y550145D01*
X213910Y548724D01*
X218451Y548005D01*
X223049D01*
X227590Y548724D01*
X231963Y550145D01*
X236060Y552232D01*
X239779Y554935D01*
X243030Y558186D01*
X245733Y561906D01*
X247820Y566002D01*
X249241Y570375D01*
X249960Y574916D01*
Y579514D01*
X249241Y584055D01*
X247820Y588428D01*
X245733Y592524D01*
X243030Y596244D01*
X239779Y599495D01*
X236060Y602198D01*
X231963Y604285D01*
X227590Y605706D01*
X223049Y606425D01*
D02*
G37*
G36*
X320061Y535334D02*
X317939D01*
X315979Y534522D01*
X314478Y533022D01*
X313666Y531061D01*
Y528939D01*
X314478Y526978D01*
X315979Y525478D01*
X317939Y524666D01*
X320061D01*
X322021Y525478D01*
X323421Y526878D01*
X323855Y526899D01*
X324773Y526680D01*
X325478Y524979D01*
X326978Y523478D01*
X328939Y522666D01*
X331061D01*
X333021Y523478D01*
X334522Y524979D01*
X335334Y526939D01*
Y529061D01*
X334522Y531021D01*
X333021Y532522D01*
X331061Y533334D01*
X328939D01*
X326978Y532522D01*
X325579Y531122D01*
X325145Y531101D01*
X324227Y531320D01*
X323522Y533022D01*
X322021Y534522D01*
X320061Y535334D01*
D02*
G37*
G36*
X345061Y531334D02*
X342939D01*
X340979Y530522D01*
X339478Y529021D01*
X338666Y527061D01*
Y524939D01*
X339478Y522979D01*
X340979Y521478D01*
X342939Y520666D01*
X345061D01*
X347021Y521478D01*
X348522Y522979D01*
X349334Y524939D01*
Y527061D01*
X348522Y529021D01*
X347021Y530522D01*
X345061Y531334D01*
D02*
G37*
G36*
X279061Y514334D02*
X276939D01*
X274979Y513522D01*
X273478Y512021D01*
X272666Y510061D01*
Y507939D01*
X273478Y505979D01*
X274979Y504478D01*
X276939Y503666D01*
X279061D01*
X281021Y504478D01*
X282522Y505979D01*
X283334Y507939D01*
Y510061D01*
X282522Y512021D01*
X281021Y513522D01*
X279061Y514334D01*
D02*
G37*
G36*
X255286Y473284D02*
X253164D01*
X251203Y472472D01*
X249725Y470993D01*
X248246Y472472D01*
X246286Y473284D01*
X244164D01*
X242204Y472472D01*
X241725Y471993D01*
X241246Y472472D01*
X239286Y473284D01*
X237164D01*
X235203Y472472D01*
X233703Y470971D01*
X232891Y469011D01*
Y466889D01*
X233645Y465069D01*
X232859Y463172D01*
Y461050D01*
X233671Y459090D01*
X233746Y459015D01*
X233703Y458971D01*
X232891Y457011D01*
Y454889D01*
X233694Y452950D01*
X232891Y451011D01*
Y448889D01*
X233703Y446929D01*
X235203Y445428D01*
X237164Y444616D01*
X239286D01*
X241246Y445428D01*
X241725Y445907D01*
X242204Y445428D01*
X244164Y444616D01*
X246286D01*
X248246Y445428D01*
X249725Y446907D01*
X251203Y445428D01*
X253164Y444616D01*
X255286D01*
X257246Y445428D01*
X258747Y446929D01*
X259559Y448889D01*
Y451011D01*
X258756Y452950D01*
X259559Y454889D01*
Y455616D01*
X261286D01*
X263225Y456419D01*
X265164Y455616D01*
X267286D01*
X269225Y456419D01*
X271164Y455616D01*
X273286D01*
X275246Y456428D01*
X276747Y457929D01*
X277559Y459889D01*
Y462011D01*
X276747Y463971D01*
X275246Y465472D01*
X273286Y466284D01*
X271164D01*
X269225Y465481D01*
X267286Y466284D01*
X265164D01*
X263225Y465481D01*
X261286Y466284D01*
X259963D01*
X259559Y466889D01*
Y469011D01*
X258747Y470971D01*
X257246Y472472D01*
X255286Y473284D01*
D02*
G37*
G36*
X359314Y482163D02*
X357006D01*
X354778Y481566D01*
X352779Y480412D01*
X351148Y478781D01*
X349994Y476782D01*
X349397Y474554D01*
Y472246D01*
X349994Y470018D01*
X351148Y468019D01*
X352779Y466388D01*
X354778Y465234D01*
X357006Y464637D01*
X359314D01*
X361542Y465234D01*
X363541Y466388D01*
X365172Y468019D01*
X366326Y470018D01*
X366923Y472246D01*
Y474554D01*
X366326Y476782D01*
X365172Y478781D01*
X363541Y480412D01*
X361542Y481566D01*
X359314Y482163D01*
D02*
G37*
G36*
X338994D02*
X336686D01*
X334458Y481566D01*
X332459Y480412D01*
X330828Y478781D01*
X329674Y476782D01*
X329077Y474554D01*
Y472246D01*
X329674Y470018D01*
X330828Y468019D01*
X332459Y466388D01*
X334458Y465234D01*
X336686Y464637D01*
X338994D01*
X341222Y465234D01*
X343221Y466388D01*
X344852Y468019D01*
X346006Y470018D01*
X346603Y472246D01*
Y474554D01*
X346006Y476782D01*
X344852Y478781D01*
X343221Y480412D01*
X341222Y481566D01*
X338994Y482163D01*
D02*
G37*
G36*
X173567Y470398D02*
X171445D01*
X169485Y469586D01*
X167984Y468086D01*
X167172Y466125D01*
Y464003D01*
X167984Y462043D01*
X169463Y460564D01*
X167984Y459086D01*
X167172Y457125D01*
Y455003D01*
X167984Y453043D01*
X169189Y451838D01*
X169372Y451064D01*
X169189Y450290D01*
X167984Y449086D01*
X167172Y447125D01*
Y445003D01*
X167984Y443043D01*
X169485Y441542D01*
X171445Y440730D01*
X173567D01*
X175528Y441542D01*
X177028Y443043D01*
X177840Y445003D01*
Y447125D01*
X177028Y449086D01*
X175824Y450290D01*
X175641Y451064D01*
X175824Y451838D01*
X177028Y453043D01*
X177840Y455003D01*
Y457125D01*
X177028Y459086D01*
X175550Y460564D01*
X177028Y462043D01*
X177840Y464003D01*
Y466125D01*
X177028Y468086D01*
X175528Y469586D01*
X173567Y470398D01*
D02*
G37*
G36*
X305061Y441334D02*
X302939D01*
X300979Y440522D01*
X300000Y439543D01*
X299021Y440522D01*
X297061Y441334D01*
X294939D01*
X292978Y440522D01*
X291478Y439021D01*
X290666Y437061D01*
Y434939D01*
X291478Y432979D01*
X292978Y431478D01*
X294939Y430666D01*
X297061D01*
X299021Y431478D01*
X300000Y432457D01*
X300979Y431478D01*
X302939Y430666D01*
X305061D01*
X307022Y431478D01*
X308522Y432979D01*
X309334Y434939D01*
Y437061D01*
X308522Y439021D01*
X307022Y440522D01*
X305061Y441334D01*
D02*
G37*
G36*
X261286Y439284D02*
X259164D01*
X257204Y438472D01*
X255999Y437267D01*
X255225Y437085D01*
X254451Y437267D01*
X253246Y438472D01*
X251286Y439284D01*
X249164D01*
X247204Y438472D01*
X245999Y437267D01*
X245225Y437085D01*
X244451Y437267D01*
X243246Y438472D01*
X241286Y439284D01*
X239164D01*
X237204Y438472D01*
X235703Y436972D01*
X234891Y435011D01*
Y432889D01*
X235703Y430929D01*
X237204Y429428D01*
X237251Y429190D01*
X236032Y427971D01*
X235220Y426011D01*
Y423889D01*
X236032Y421929D01*
X237533Y420428D01*
X239493Y419616D01*
X241615D01*
X243576Y420428D01*
X244560Y421412D01*
X245390Y421787D01*
X246219Y421412D01*
X247204Y420428D01*
X249164Y419616D01*
X251286D01*
X253246Y420428D01*
X254451Y421633D01*
X255225Y421816D01*
X255999Y421633D01*
X257204Y420428D01*
X259164Y419616D01*
X261286D01*
X263246Y420428D01*
X264747Y421929D01*
X265559Y423889D01*
Y426011D01*
X264747Y427971D01*
X263268Y429450D01*
X264747Y430929D01*
X265559Y432889D01*
Y435011D01*
X264747Y436972D01*
X263246Y438472D01*
X261286Y439284D01*
D02*
G37*
G36*
X283061Y430334D02*
X280939D01*
X278979Y429522D01*
X277478Y428021D01*
X276666Y426061D01*
Y423939D01*
X277478Y421978D01*
X278979Y420478D01*
X280939Y419666D01*
X283061D01*
X285021Y420478D01*
X286522Y421978D01*
X287334Y423939D01*
Y426061D01*
X286522Y428021D01*
X285021Y429522D01*
X283061Y430334D01*
D02*
G37*
G36*
X225360Y435210D02*
X223238D01*
X221278Y434398D01*
X219777Y432897D01*
X218965Y430937D01*
Y428815D01*
X219777Y426854D01*
X221182Y425450D01*
X219703Y423971D01*
X218891Y422011D01*
Y419889D01*
X219623Y418122D01*
X219565Y417589D01*
X219184Y416651D01*
X218986Y416580D01*
X217286Y417284D01*
X215164D01*
X213204Y416472D01*
X212725Y415993D01*
X212246Y416472D01*
X210286Y417284D01*
X208164D01*
X206203Y416472D01*
X204703Y414972D01*
X203891Y413011D01*
Y410889D01*
X204703Y408929D01*
X206203Y407428D01*
X208164Y406616D01*
X210286D01*
X212246Y407428D01*
X212725Y407907D01*
X213204Y407428D01*
X215164Y406616D01*
X217286D01*
X219246Y407428D01*
X219725Y407907D01*
X220203Y407428D01*
X222164Y406616D01*
X224286D01*
X226246Y407428D01*
X227747Y408929D01*
X228559Y410889D01*
Y413011D01*
X227747Y414972D01*
X227088Y415631D01*
X227246Y416428D01*
X228747Y417929D01*
X229559Y419889D01*
Y422011D01*
X228747Y423971D01*
X227343Y425376D01*
X228821Y426854D01*
X229633Y428815D01*
Y430937D01*
X228821Y432897D01*
X227321Y434398D01*
X225360Y435210D01*
D02*
G37*
G36*
X349154Y431363D02*
X346846D01*
X344618Y430766D01*
X342619Y429612D01*
X340988Y427981D01*
X339834Y425982D01*
X339237Y423754D01*
Y421446D01*
X339834Y419218D01*
X340988Y417219D01*
X342619Y415588D01*
X344618Y414434D01*
X346846Y413837D01*
X349154D01*
X351382Y414434D01*
X353381Y415588D01*
X355012Y417219D01*
X356166Y419218D01*
X356763Y421446D01*
Y423754D01*
X356166Y425982D01*
X355012Y427981D01*
X353381Y429612D01*
X351382Y430766D01*
X349154Y431363D01*
D02*
G37*
G36*
X181061Y415334D02*
X178939D01*
X176978Y414522D01*
X175500Y413043D01*
X174021Y414522D01*
X172061Y415334D01*
X169939D01*
X167979Y414522D01*
X166478Y413021D01*
X165666Y411061D01*
Y408939D01*
X166478Y406978D01*
X167957Y405500D01*
X166478Y404021D01*
X165666Y402061D01*
Y399939D01*
X166478Y397979D01*
X167979Y396478D01*
X169939Y395666D01*
X172061D01*
X174021Y396478D01*
X175500Y397957D01*
X176978Y396478D01*
X178939Y395666D01*
X181061D01*
X183022Y396478D01*
X184522Y397979D01*
X185334Y399939D01*
Y402061D01*
X184522Y404021D01*
X183043Y405500D01*
X184522Y406978D01*
X185334Y408939D01*
Y411061D01*
X184522Y413021D01*
X183022Y414522D01*
X181061Y415334D01*
D02*
G37*
G36*
X129061D02*
X126939D01*
X124979Y414522D01*
X123478Y413021D01*
X122666Y411061D01*
Y408939D01*
X123478Y406978D01*
X124979Y405478D01*
X126939Y404666D01*
X129061D01*
X131021Y405478D01*
X132522Y406978D01*
X133334Y408939D01*
Y411061D01*
X132522Y413021D01*
X131021Y414522D01*
X129061Y415334D01*
D02*
G37*
G36*
X305061Y403334D02*
X302939D01*
X300979Y402522D01*
X299478Y401021D01*
X298666Y399061D01*
Y396939D01*
X299478Y394978D01*
X300979Y393478D01*
X301799Y393138D01*
X302097Y391640D01*
X301478Y391021D01*
X300666Y389061D01*
Y386939D01*
X301478Y384979D01*
X302978Y383478D01*
X304939Y382666D01*
X307061D01*
X309021Y383478D01*
X310522Y384979D01*
X311334Y386939D01*
Y389061D01*
X310522Y391021D01*
X309021Y392522D01*
X308201Y392862D01*
X307903Y394360D01*
X308522Y394978D01*
X309334Y396939D01*
Y399061D01*
X308522Y401021D01*
X307022Y402522D01*
X305061Y403334D01*
D02*
G37*
G36*
X132011Y385109D02*
X129889D01*
X127928Y384297D01*
X126428Y382797D01*
X125616Y380836D01*
Y378714D01*
X126428Y376754D01*
X127928Y375253D01*
X129889Y374441D01*
X132011D01*
X133972Y375253D01*
X135472Y376754D01*
X136284Y378714D01*
Y380836D01*
X135472Y382797D01*
X133972Y384297D01*
X132011Y385109D01*
D02*
G37*
G36*
X235286Y384284D02*
X233164D01*
X231203Y383472D01*
X229703Y381972D01*
X228891Y380011D01*
Y377889D01*
X229703Y375929D01*
X231203Y374428D01*
X233164Y373616D01*
X235004D01*
X235703Y371929D01*
X237204Y370428D01*
X239164Y369616D01*
X241286D01*
X243246Y370428D01*
X244747Y371928D01*
X245544Y372087D01*
X246336Y371296D01*
X248297Y370484D01*
X250418D01*
X252379Y371296D01*
X253127Y372043D01*
X253703Y371928D01*
X255203Y370428D01*
X257164Y369616D01*
X259286D01*
X261246Y370428D01*
X262747Y371929D01*
X263559Y373889D01*
Y376011D01*
X262747Y377971D01*
X261246Y379472D01*
X259286Y380284D01*
X257164D01*
X255203Y379472D01*
X254456Y378724D01*
X253879Y378839D01*
X252379Y380340D01*
X250418Y381152D01*
X248297D01*
X246336Y380340D01*
X244836Y378839D01*
X244038Y378680D01*
X243246Y379472D01*
X241286Y380284D01*
X239446D01*
X238747Y381972D01*
X237246Y383472D01*
X235286Y384284D01*
D02*
G37*
G36*
X188061Y369334D02*
X185939D01*
X183979Y368522D01*
X182478Y367021D01*
X181666Y365061D01*
Y362939D01*
X182478Y360979D01*
X183979Y359478D01*
X185939Y358666D01*
X188061D01*
X190021Y359478D01*
X191522Y360979D01*
X192334Y362939D01*
Y365061D01*
X191522Y367021D01*
X190021Y368522D01*
X188061Y369334D01*
D02*
G37*
G36*
Y357334D02*
X185939D01*
X183979Y356522D01*
X182478Y355022D01*
X181666Y353061D01*
Y350939D01*
X182478Y348979D01*
X183979Y347478D01*
X185939Y346666D01*
X188061D01*
X190021Y347478D01*
X191522Y348979D01*
X192334Y350939D01*
Y353061D01*
X191522Y355022D01*
X190021Y356522D01*
X188061Y357334D01*
D02*
G37*
G36*
X227286Y355284D02*
X225164D01*
X223204Y354472D01*
X221703Y352971D01*
X220891Y351011D01*
Y348889D01*
X221703Y346929D01*
X223204Y345428D01*
X225164Y344616D01*
X227286D01*
X229246Y345428D01*
X230747Y346929D01*
X231559Y348889D01*
Y351011D01*
X230747Y352971D01*
X229246Y354472D01*
X227286Y355284D01*
D02*
G37*
G36*
X227061Y338334D02*
X224939D01*
X222978Y337522D01*
X221478Y336021D01*
X220666Y334061D01*
Y331939D01*
X221478Y329978D01*
X222978Y328478D01*
X224939Y327666D01*
X227061D01*
X229021Y328478D01*
X230522Y329978D01*
X231334Y331939D01*
Y334061D01*
X230522Y336021D01*
X229021Y337522D01*
X227061Y338334D01*
D02*
G37*
G36*
X114061Y269334D02*
X111939D01*
X109979Y268522D01*
X108478Y267022D01*
X107666Y265061D01*
Y262939D01*
X108478Y260979D01*
X109979Y259478D01*
X111939Y258666D01*
X114061D01*
X116021Y259478D01*
X117522Y260979D01*
X118334Y262939D01*
Y265061D01*
X117522Y267022D01*
X116021Y268522D01*
X114061Y269334D01*
D02*
G37*
G36*
X231061Y266334D02*
X228939D01*
X226978Y265522D01*
X225478Y264021D01*
X224666Y262061D01*
Y259939D01*
X225478Y257979D01*
X226978Y256478D01*
X228939Y255666D01*
X231061D01*
X233022Y256478D01*
X234522Y257979D01*
X235334Y259939D01*
Y262061D01*
X234522Y264021D01*
X233022Y265522D01*
X231061Y266334D01*
D02*
G37*
G36*
X207061Y239334D02*
X204939D01*
X202978Y238522D01*
X201478Y237021D01*
X200666Y235061D01*
Y232939D01*
X201478Y230979D01*
X202978Y229478D01*
X204939Y228666D01*
X207061D01*
X209021Y229478D01*
X210522Y230979D01*
X211334Y232939D01*
Y235061D01*
X210522Y237021D01*
X209021Y238522D01*
X207061Y239334D01*
D02*
G37*
G36*
X54061Y245334D02*
X51939D01*
X49978Y244522D01*
X48478Y243022D01*
X47666Y241061D01*
Y239738D01*
X47061Y239334D01*
X44939D01*
X42979Y238522D01*
X41478Y237021D01*
X40666Y235061D01*
Y232939D01*
X41478Y230979D01*
X42979Y229478D01*
X44939Y228666D01*
X47061D01*
X49022Y229478D01*
X50522Y230979D01*
X51334Y232939D01*
Y234262D01*
X51939Y234666D01*
X54061D01*
X56021Y235478D01*
X57522Y236978D01*
X58334Y238939D01*
Y241061D01*
X57522Y243022D01*
X56021Y244522D01*
X54061Y245334D01*
D02*
G37*
G36*
X160061Y229334D02*
X157939D01*
X155979Y228522D01*
X154478Y227022D01*
X153666Y225061D01*
Y222939D01*
X154478Y220979D01*
X155979Y219478D01*
X157939Y218666D01*
X160061D01*
X162022Y219478D01*
X163522Y220979D01*
X164334Y222939D01*
Y225061D01*
X163522Y227022D01*
X162022Y228522D01*
X160061Y229334D01*
D02*
G37*
G36*
X-92561Y250985D02*
X-96439D01*
X-100242Y250229D01*
X-103824Y248745D01*
X-107049Y246590D01*
X-109790Y243848D01*
X-111945Y240624D01*
X-113428Y237042D01*
X-114185Y233239D01*
Y229361D01*
X-113428Y225558D01*
X-111945Y221976D01*
X-109790Y218752D01*
X-107049Y216010D01*
X-103824Y213855D01*
X-100242Y212372D01*
X-96439Y211615D01*
X-92561D01*
X-88758Y212372D01*
X-85176Y213855D01*
X-81952Y216010D01*
X-79210Y218752D01*
X-77055Y221976D01*
X-75571Y225558D01*
X-74815Y229361D01*
Y233239D01*
X-75571Y237042D01*
X-77055Y240624D01*
X-79210Y243848D01*
X-81952Y246590D01*
X-85176Y248745D01*
X-88758Y250229D01*
X-92561Y250985D01*
D02*
G37*
G36*
X231061Y224334D02*
X228939D01*
X226978Y223522D01*
X225478Y222022D01*
X224666Y220061D01*
Y217939D01*
X225478Y215979D01*
X226978Y214478D01*
X228939Y213666D01*
X230262D01*
X230666Y213061D01*
Y210939D01*
X230805Y210604D01*
X229956Y209334D01*
X228939D01*
X226978Y208522D01*
X225478Y207022D01*
X224666Y205061D01*
Y202939D01*
X225478Y200979D01*
X226978Y199478D01*
X228939Y198666D01*
X231061D01*
X233022Y199478D01*
X234522Y200979D01*
X235334Y202939D01*
Y205061D01*
X235195Y205396D01*
X236044Y206666D01*
X237061D01*
X239021Y207478D01*
X240522Y208979D01*
X241334Y210939D01*
Y213061D01*
X240522Y215021D01*
X239021Y216522D01*
X237061Y217334D01*
X235738D01*
X235334Y217939D01*
Y220061D01*
X234522Y222022D01*
X233022Y223522D01*
X231061Y224334D01*
D02*
G37*
G36*
X185061Y217334D02*
X182939D01*
X180979Y216522D01*
X179478Y215021D01*
X178666Y213061D01*
Y210939D01*
X179478Y208979D01*
X180457Y208000D01*
X179478Y207022D01*
X178666Y205061D01*
Y202939D01*
X179478Y200979D01*
X180979Y199478D01*
X182939Y198666D01*
X185061D01*
X187021Y199478D01*
X188522Y200979D01*
X189334Y202939D01*
Y205061D01*
X188522Y207022D01*
X187543Y208000D01*
X188522Y208979D01*
X189334Y210939D01*
Y213061D01*
X188522Y215021D01*
X187021Y216522D01*
X185061Y217334D01*
D02*
G37*
G36*
X192061Y199334D02*
X189939D01*
X187978Y198522D01*
X186478Y197021D01*
X185666Y195061D01*
Y192939D01*
X186478Y190979D01*
X187978Y189478D01*
X189939Y188666D01*
X192061D01*
X194021Y189478D01*
X195522Y190979D01*
X196334Y192939D01*
Y195061D01*
X195522Y197021D01*
X194021Y198522D01*
X192061Y199334D01*
D02*
G37*
G36*
X163061D02*
X160939D01*
X158979Y198522D01*
X157478Y197021D01*
X156666Y195061D01*
Y192939D01*
X157478Y190979D01*
X158979Y189478D01*
X160939Y188666D01*
X163061D01*
X165021Y189478D01*
X166522Y190979D01*
X167334Y192939D01*
Y195061D01*
X166522Y197021D01*
X165021Y198522D01*
X163061Y199334D01*
D02*
G37*
G36*
X338061Y183334D02*
X335939D01*
X333979Y182522D01*
X332478Y181021D01*
X331666Y179061D01*
Y176939D01*
X332478Y174979D01*
X333186Y174270D01*
X332473Y173557D01*
X331661Y171597D01*
Y169475D01*
X332473Y167514D01*
X333974Y166014D01*
X335934Y165202D01*
X338056D01*
X340017Y166014D01*
X341517Y167514D01*
X342329Y169475D01*
Y171597D01*
X341517Y173557D01*
X340809Y174266D01*
X341522Y174979D01*
X342334Y176939D01*
Y179061D01*
X341522Y181021D01*
X340022Y182522D01*
X338061Y183334D01*
D02*
G37*
G36*
X392061Y160334D02*
X389939D01*
X387979Y159522D01*
X387500Y159043D01*
X387021Y159522D01*
X385061Y160334D01*
X382939D01*
X380979Y159522D01*
X379478Y158021D01*
X378666Y156061D01*
Y153939D01*
X379478Y151979D01*
X380457Y151000D01*
X379478Y150021D01*
X378666Y148061D01*
Y145939D01*
X379478Y143979D01*
X380979Y142478D01*
X382939Y141666D01*
X385061D01*
X387021Y142478D01*
X387500Y142957D01*
X387979Y142478D01*
X389939Y141666D01*
X392061D01*
X394021Y142478D01*
X395522Y143979D01*
X396334Y145939D01*
Y148061D01*
X395522Y150021D01*
X394543Y151000D01*
X395522Y151979D01*
X396334Y153939D01*
Y156061D01*
X395522Y158021D01*
X394021Y159522D01*
X392061Y160334D01*
D02*
G37*
G36*
X341061Y161334D02*
X338939D01*
X336978Y160522D01*
X335478Y159021D01*
X334666Y157061D01*
Y154939D01*
X335478Y152978D01*
X336978Y151478D01*
X338939Y150666D01*
X341061D01*
X343022Y151478D01*
X344522Y152978D01*
X345334Y154939D01*
Y157061D01*
X344522Y159021D01*
X343022Y160522D01*
X341061Y161334D01*
D02*
G37*
G36*
X146061D02*
X143939D01*
X141979Y160522D01*
X140478Y159021D01*
X139666Y157061D01*
Y154939D01*
X140478Y152978D01*
X141979Y151478D01*
X143939Y150666D01*
X146061D01*
X148021Y151478D01*
X149522Y152978D01*
X150334Y154939D01*
Y157061D01*
X149522Y159021D01*
X148021Y160522D01*
X146061Y161334D01*
D02*
G37*
G36*
X167061Y152334D02*
X164939D01*
X162978Y151522D01*
X161478Y150021D01*
X161187Y149320D01*
X159813D01*
X159522Y150021D01*
X158021Y151522D01*
X156061Y152334D01*
X153939D01*
X151979Y151522D01*
X150478Y150021D01*
X149666Y148061D01*
Y145939D01*
X150478Y143979D01*
X151979Y142478D01*
X153939Y141666D01*
X156061D01*
X158021Y142478D01*
X159522Y143979D01*
X159813Y144680D01*
X161187D01*
X161478Y143979D01*
X162978Y142478D01*
X164939Y141666D01*
X167061D01*
X169021Y142478D01*
X170522Y143979D01*
X171334Y145939D01*
Y148061D01*
X170522Y150021D01*
X169021Y151522D01*
X167061Y152334D01*
D02*
G37*
G36*
X325061Y144334D02*
X322939D01*
X320979Y143522D01*
X319478Y142022D01*
X318666Y140061D01*
Y137939D01*
X319478Y135978D01*
X320979Y134478D01*
X322939Y133666D01*
X325061D01*
X327021Y134478D01*
X328522Y135978D01*
X329334Y137939D01*
Y140061D01*
X328522Y142022D01*
X327021Y143522D01*
X325061Y144334D01*
D02*
G37*
G36*
X345061Y109334D02*
X342939D01*
X340979Y108522D01*
X339478Y107022D01*
X338666Y105061D01*
Y102939D01*
X339478Y100978D01*
X340979Y99478D01*
X342939Y98666D01*
X345061D01*
X347021Y99478D01*
X348522Y100978D01*
X349334Y102939D01*
Y105061D01*
X348522Y107022D01*
X347021Y108522D01*
X345061Y109334D01*
D02*
G37*
G36*
X354061Y91334D02*
X351939D01*
X349978Y90522D01*
X348478Y89022D01*
X347666Y87061D01*
Y84939D01*
X348478Y82978D01*
X349978Y81478D01*
X351939Y80666D01*
X354061D01*
X356021Y81478D01*
X357522Y82978D01*
X358334Y84939D01*
Y87061D01*
X357522Y89022D01*
X356021Y90522D01*
X354061Y91334D01*
D02*
G37*
G36*
X248061Y22334D02*
X245939D01*
X243979Y21522D01*
X243000Y20543D01*
X242022Y21522D01*
X240061Y22334D01*
X237939D01*
X235979Y21522D01*
X235000Y20543D01*
X234021Y21522D01*
X232061Y22334D01*
X229939D01*
X227978Y21522D01*
X226500Y20043D01*
X225021Y21522D01*
X223061Y22334D01*
X220939D01*
X218979Y21522D01*
X218000Y20543D01*
X217022Y21522D01*
X215061Y22334D01*
X212939D01*
X210979Y21522D01*
X210000Y20543D01*
X209021Y21522D01*
X207061Y22334D01*
X204939D01*
X202978Y21522D01*
X201478Y20021D01*
X200666Y18061D01*
Y15939D01*
X201478Y13979D01*
X202457Y13000D01*
X201478Y12021D01*
X200666Y10061D01*
Y7939D01*
X201478Y5979D01*
X202957Y4500D01*
X201478Y3022D01*
X200666Y1061D01*
Y-1061D01*
X201478Y-3022D01*
X202978Y-4522D01*
X204939Y-5334D01*
X207061D01*
X209021Y-4522D01*
X210000Y-3543D01*
X210979Y-4522D01*
X212939Y-5334D01*
X215061D01*
X217022Y-4522D01*
X218000Y-3543D01*
X218979Y-4522D01*
X220939Y-5334D01*
X223061D01*
X225021Y-4522D01*
X226500Y-3043D01*
X227978Y-4522D01*
X229939Y-5334D01*
X232061D01*
X234021Y-4522D01*
X235000Y-3543D01*
X235979Y-4522D01*
X237939Y-5334D01*
X240061D01*
X242022Y-4522D01*
X243000Y-3543D01*
X243979Y-4522D01*
X245939Y-5334D01*
X248061D01*
X250021Y-4522D01*
X251522Y-3022D01*
X252334Y-1061D01*
Y1061D01*
X251522Y3022D01*
X250043Y4500D01*
X251522Y5979D01*
X252334Y7939D01*
Y10061D01*
X251522Y12021D01*
X250543Y13000D01*
X251522Y13979D01*
X252334Y15939D01*
Y18061D01*
X251522Y20021D01*
X250021Y21522D01*
X248061Y22334D01*
D02*
G37*
G36*
X499061Y25334D02*
X496939D01*
X494978Y24522D01*
X493478Y23022D01*
X492666Y21061D01*
Y18939D01*
X493478Y16979D01*
X494978Y15478D01*
X496939Y14666D01*
X499061D01*
X501021Y15478D01*
X502522Y16979D01*
X503334Y18939D01*
Y21061D01*
X502522Y23022D01*
X501021Y24522D01*
X499061Y25334D01*
D02*
G37*
G36*
X417061Y20334D02*
X414939D01*
X412979Y19522D01*
X411478Y18022D01*
X410666Y16061D01*
Y13939D01*
X411478Y11978D01*
X412979Y10478D01*
X414939Y9666D01*
X417061D01*
X419021Y10478D01*
X420522Y11978D01*
X421334Y13939D01*
Y16061D01*
X420522Y18022D01*
X419021Y19522D01*
X417061Y20334D01*
D02*
G37*
G36*
X492061Y4334D02*
X489939D01*
X487979Y3522D01*
X486774Y2317D01*
X486000Y2134D01*
X485226Y2317D01*
X484021Y3522D01*
X482061Y4334D01*
X479939D01*
X477979Y3522D01*
X476478Y2022D01*
X475666Y61D01*
Y-2061D01*
X476478Y-4022D01*
X477979Y-5522D01*
X479939Y-6334D01*
X482061D01*
X484021Y-5522D01*
X485226Y-4317D01*
X486000Y-4135D01*
X486774Y-4317D01*
X487979Y-5522D01*
X489939Y-6334D01*
X492061D01*
X494021Y-5522D01*
X495522Y-4022D01*
X496334Y-2061D01*
Y61D01*
X495522Y2022D01*
X494021Y3522D01*
X492061Y4334D01*
D02*
G37*
G36*
X184746Y-6925D02*
X179245D01*
X179233Y-6928D01*
X179220Y-6925D01*
X178648Y-7044D01*
X178075Y-7158D01*
X178064Y-7165D01*
X178052Y-7168D01*
X177569Y-7496D01*
X177083Y-7821D01*
X177076Y-7832D01*
X177065Y-7839D01*
X176744Y-8328D01*
X176420Y-8813D01*
X176417Y-8826D01*
X176410Y-8837D01*
X176301Y-9412D01*
X176187Y-9984D01*
X176189Y-9997D01*
X176187Y-10009D01*
X176327Y-27009D01*
X176446Y-27582D01*
X176560Y-28155D01*
X176567Y-28165D01*
X176569Y-28178D01*
X176898Y-28661D01*
X177223Y-29147D01*
X177233Y-29154D01*
X177241Y-29165D01*
X177730Y-29486D01*
X178215Y-29810D01*
X178228Y-29813D01*
X178238Y-29820D01*
X178813Y-29929D01*
X179386Y-30043D01*
X184746D01*
X185916Y-29810D01*
X186908Y-29147D01*
X187571Y-28155D01*
X187804Y-26984D01*
Y-9984D01*
X187571Y-8813D01*
X186908Y-7821D01*
X185916Y-7158D01*
X184746Y-6925D01*
D02*
G37*
G36*
X448061Y-6666D02*
X445939D01*
X443979Y-7478D01*
X442478Y-8978D01*
X441666Y-10939D01*
Y-13061D01*
X442478Y-15022D01*
X443979Y-16522D01*
X445939Y-17334D01*
X448061D01*
X450022Y-16522D01*
X451522Y-15022D01*
X452334Y-13061D01*
Y-10939D01*
X451522Y-8978D01*
X450022Y-7478D01*
X448061Y-6666D01*
D02*
G37*
G36*
X323061Y-11666D02*
X320939D01*
X318979Y-12478D01*
X317478Y-13979D01*
X316666Y-15939D01*
Y-18061D01*
X317478Y-20021D01*
X318292Y-20836D01*
X318217Y-22128D01*
X318080Y-22419D01*
X317978Y-22460D01*
X316061Y-21666D01*
X313939D01*
X311978Y-22478D01*
X311000Y-23457D01*
X310021Y-22478D01*
X308061Y-21666D01*
X305939D01*
X303979Y-22478D01*
X302478Y-23979D01*
X301666Y-25939D01*
Y-28061D01*
X302478Y-30022D01*
X303457Y-31000D01*
X302478Y-31978D01*
X301666Y-33939D01*
Y-36061D01*
X302478Y-38022D01*
X303979Y-39522D01*
X305939Y-40334D01*
X308061D01*
X310021Y-39522D01*
X311000Y-38543D01*
X311978Y-39522D01*
X313939Y-40334D01*
X316061D01*
X318022Y-39522D01*
X319000Y-38543D01*
X319979Y-39522D01*
X321939Y-40334D01*
X324061D01*
X326021Y-39522D01*
X327000Y-38543D01*
X327979Y-39522D01*
X329939Y-40334D01*
X332061D01*
X334021Y-39522D01*
X335000Y-38543D01*
X335979Y-39522D01*
X337939Y-40334D01*
X340061D01*
X342021Y-39522D01*
X343000Y-38543D01*
X343979Y-39522D01*
X345939Y-40334D01*
X348061D01*
X350021Y-39522D01*
X351000Y-38543D01*
X351978Y-39522D01*
X353939Y-40334D01*
X356061D01*
X358022Y-39522D01*
X359000Y-38543D01*
X359979Y-39522D01*
X361939Y-40334D01*
X364061D01*
X366021Y-39522D01*
X367000Y-38543D01*
X367979Y-39522D01*
X369939Y-40334D01*
X372061D01*
X374021Y-39522D01*
X375522Y-38022D01*
X376334Y-36061D01*
Y-33939D01*
X375522Y-31978D01*
X374543Y-31000D01*
X375522Y-30022D01*
X376334Y-28061D01*
Y-25939D01*
X375522Y-23979D01*
X374021Y-22478D01*
X372061Y-21666D01*
X369939D01*
X367979Y-22478D01*
X367000Y-23457D01*
X366021Y-22478D01*
X364061Y-21666D01*
X361939D01*
X359979Y-22478D01*
X359000Y-23457D01*
X358022Y-22478D01*
X356061Y-21666D01*
X353939D01*
X351978Y-22478D01*
X351000Y-23457D01*
X350021Y-22478D01*
X348061Y-21666D01*
X345939D01*
X343979Y-22478D01*
X343000Y-23457D01*
X342021Y-22478D01*
X340061Y-21666D01*
X337939D01*
X335979Y-22478D01*
X335000Y-23457D01*
X334021Y-22478D01*
X332061Y-21666D01*
X329939D01*
X327979Y-22478D01*
X327000Y-23457D01*
X326021Y-22478D01*
X325900Y-22428D01*
X325610Y-20933D01*
X326522Y-20021D01*
X327334Y-18061D01*
Y-15939D01*
X326522Y-13979D01*
X325021Y-12478D01*
X323061Y-11666D01*
D02*
G37*
G36*
X392245Y-6925D02*
X386745D01*
X385575Y-7158D01*
X384582Y-7821D01*
X383919Y-8813D01*
X383686Y-9984D01*
Y-26984D01*
X383919Y-28155D01*
X384582Y-29147D01*
X385575Y-29810D01*
X386745Y-30043D01*
X392245D01*
X393416Y-29810D01*
X394408Y-29147D01*
X395071Y-28155D01*
X395304Y-26984D01*
Y-9984D01*
X395071Y-8813D01*
X394408Y-7821D01*
X393416Y-7158D01*
X392245Y-6925D01*
D02*
G37*
G36*
X441061Y-29666D02*
X438939D01*
X436979Y-30478D01*
X435478Y-31978D01*
X434666Y-33939D01*
Y-36061D01*
X435478Y-38022D01*
X436979Y-39522D01*
X438939Y-40334D01*
X441061D01*
X443022Y-39522D01*
X444522Y-38022D01*
X445334Y-36061D01*
Y-33939D01*
X444522Y-31978D01*
X443022Y-30478D01*
X441061Y-29666D01*
D02*
G37*
G36*
X416061Y-32666D02*
X413939D01*
X411979Y-33478D01*
X410478Y-34978D01*
X409666Y-36939D01*
Y-39061D01*
X410478Y-41021D01*
X411979Y-42522D01*
X413939Y-43334D01*
X416061D01*
X418022Y-42522D01*
X419522Y-41021D01*
X420334Y-39061D01*
Y-36939D01*
X419522Y-34978D01*
X418022Y-33478D01*
X416061Y-32666D01*
D02*
G37*
G36*
X503061Y-33666D02*
X500939D01*
X498979Y-34478D01*
X497478Y-35979D01*
X496666Y-37939D01*
Y-40061D01*
X497478Y-42021D01*
X498979Y-43522D01*
X500939Y-44334D01*
X501262D01*
X501666Y-44939D01*
Y-47061D01*
X502478Y-49022D01*
X503979Y-50522D01*
X505939Y-51334D01*
X508061D01*
X510022Y-50522D01*
X511522Y-49022D01*
X512334Y-47061D01*
Y-44939D01*
X511522Y-42979D01*
X510022Y-41478D01*
X508061Y-40666D01*
X507738D01*
X507334Y-40061D01*
Y-37939D01*
X506522Y-35979D01*
X505022Y-34478D01*
X503061Y-33666D01*
D02*
G37*
G36*
X214307Y-51535D02*
X212185D01*
X210224Y-52347D01*
X208724Y-53847D01*
X208638Y-54053D01*
X207140Y-54351D01*
X206267Y-53478D01*
X204307Y-52666D01*
X202185D01*
X200224Y-53478D01*
X198724Y-54979D01*
X197911Y-56939D01*
Y-59061D01*
X198724Y-61021D01*
X200224Y-62522D01*
X202185Y-63334D01*
X204307D01*
X206267Y-62522D01*
X207768Y-61021D01*
X207853Y-60815D01*
X209351Y-60518D01*
X210224Y-61391D01*
X212185Y-62203D01*
X214307D01*
X216267Y-61391D01*
X216674Y-60984D01*
X218172Y-61282D01*
X218478Y-62021D01*
X219979Y-63522D01*
X221939Y-64334D01*
X224061D01*
X226021Y-63522D01*
X227522Y-62021D01*
X228334Y-60061D01*
Y-57939D01*
X227522Y-55979D01*
X226021Y-54478D01*
X224061Y-53666D01*
X221939D01*
X219979Y-54478D01*
X219572Y-54885D01*
X218074Y-54587D01*
X217768Y-53847D01*
X216267Y-52347D01*
X214307Y-51535D01*
D02*
G37*
G36*
X417061Y-46666D02*
X414939D01*
X412979Y-47478D01*
X411478Y-48979D01*
X410666Y-50939D01*
Y-53061D01*
X411478Y-55022D01*
X412979Y-56522D01*
X414939Y-57334D01*
X417061D01*
X419021Y-56522D01*
X420522Y-55022D01*
X421334Y-53061D01*
Y-50939D01*
X420522Y-48979D01*
X419021Y-47478D01*
X417061Y-46666D01*
D02*
G37*
G36*
X434061Y-54666D02*
X431939D01*
X429978Y-55478D01*
X428478Y-56979D01*
X427666Y-58939D01*
Y-61061D01*
X428478Y-63021D01*
X429978Y-64522D01*
X431939Y-65334D01*
X434061D01*
X436021Y-64522D01*
X437522Y-63021D01*
X438334Y-61061D01*
Y-58939D01*
X437522Y-56979D01*
X436021Y-55478D01*
X434061Y-54666D01*
D02*
G37*
G36*
X400011Y-65471D02*
X397890D01*
X395929Y-66283D01*
X394429Y-67783D01*
X394138Y-68485D01*
X392763D01*
X392472Y-67783D01*
X390972Y-66283D01*
X389011Y-65471D01*
X386889D01*
X384929Y-66283D01*
X383429Y-67783D01*
X382617Y-69744D01*
Y-71866D01*
X383429Y-73826D01*
X384907Y-75305D01*
X383429Y-76783D01*
X382617Y-78744D01*
Y-80866D01*
X383429Y-82826D01*
X384529Y-83927D01*
X383478Y-84979D01*
X382666Y-86939D01*
Y-89061D01*
X383478Y-91021D01*
X384979Y-92522D01*
X386939Y-93334D01*
X389061D01*
X391021Y-92522D01*
X392522Y-91021D01*
X392813Y-90320D01*
X394187D01*
X394478Y-91021D01*
X395979Y-92522D01*
X397939Y-93334D01*
X400061D01*
X402021Y-92522D01*
X403522Y-91021D01*
X404334Y-89061D01*
Y-86939D01*
X403522Y-84979D01*
X402421Y-83878D01*
X403472Y-82826D01*
X404285Y-80866D01*
Y-78744D01*
X403472Y-76783D01*
X401994Y-75305D01*
X403472Y-73826D01*
X404285Y-71866D01*
Y-69744D01*
X403472Y-67783D01*
X401972Y-66283D01*
X400011Y-65471D01*
D02*
G37*
G36*
X193061Y-58666D02*
X190939D01*
X188979Y-59478D01*
X187478Y-60978D01*
X186666Y-62939D01*
Y-65061D01*
X187478Y-67021D01*
X188979Y-68522D01*
X190939Y-69334D01*
X193061D01*
X195021Y-68522D01*
X196522Y-67021D01*
X197334Y-65061D01*
Y-62939D01*
X196522Y-60978D01*
X195021Y-59478D01*
X193061Y-58666D01*
D02*
G37*
G36*
X636061Y-67666D02*
X633939D01*
X631978Y-68478D01*
X630478Y-69978D01*
X629666Y-71939D01*
Y-72463D01*
X628985Y-72770D01*
X628396Y-72853D01*
X627021Y-71478D01*
X625061Y-70666D01*
X622939D01*
X620979Y-71478D01*
X619478Y-72979D01*
X618666Y-74939D01*
Y-77061D01*
X619478Y-79022D01*
X620979Y-80522D01*
X622939Y-81334D01*
X625061D01*
X627021Y-80522D01*
X628522Y-79022D01*
X629334Y-77061D01*
Y-76537D01*
X630015Y-76230D01*
X630604Y-76147D01*
X631978Y-77522D01*
X633939Y-78334D01*
X636061D01*
X638022Y-77522D01*
X639522Y-76021D01*
X640334Y-74061D01*
Y-71939D01*
X639522Y-69978D01*
X638022Y-68478D01*
X636061Y-67666D01*
D02*
G37*
G36*
X346061Y-63666D02*
X343939D01*
X341978Y-64478D01*
X340478Y-65978D01*
X339666Y-67939D01*
Y-70061D01*
X340478Y-72021D01*
X341978Y-73522D01*
X343939Y-74334D01*
X346061D01*
X348022Y-73522D01*
X349522Y-72021D01*
X350334Y-70061D01*
Y-67939D01*
X349522Y-65978D01*
X348022Y-64478D01*
X346061Y-63666D01*
D02*
G37*
G36*
X537061Y-73666D02*
X534939D01*
X532979Y-74478D01*
X531478Y-75978D01*
X530666Y-77939D01*
Y-80061D01*
X531478Y-82022D01*
X532979Y-83522D01*
X534939Y-84334D01*
X537061D01*
X539021Y-83522D01*
X540522Y-82022D01*
X541334Y-80061D01*
Y-77939D01*
X540522Y-75978D01*
X539021Y-74478D01*
X537061Y-73666D01*
D02*
G37*
G36*
X484931Y-61150D02*
X482469D01*
X480091Y-61787D01*
X477959Y-63018D01*
X476218Y-64759D01*
X474987Y-66891D01*
X474350Y-69269D01*
Y-71731D01*
X474987Y-74109D01*
X476218Y-76241D01*
X477138Y-77161D01*
X477942Y-78000D01*
X477138Y-78839D01*
X476218Y-79759D01*
X474987Y-81891D01*
X474350Y-84269D01*
Y-86731D01*
X474987Y-89109D01*
X476218Y-91241D01*
X477138Y-92161D01*
X477942Y-93000D01*
X477138Y-93839D01*
X476218Y-94759D01*
X474987Y-96891D01*
X474350Y-99269D01*
Y-101731D01*
X474987Y-104109D01*
X476218Y-106241D01*
X477138Y-107161D01*
X477942Y-108000D01*
X477138Y-108839D01*
X476218Y-109759D01*
X474987Y-111891D01*
X474350Y-114269D01*
Y-116731D01*
X474987Y-119109D01*
X476218Y-121241D01*
X477138Y-122161D01*
X477942Y-123000D01*
X477138Y-123839D01*
X476218Y-124759D01*
X474987Y-126891D01*
X474350Y-129269D01*
Y-131731D01*
X474987Y-134109D01*
X476218Y-136241D01*
X477138Y-137161D01*
X477942Y-138000D01*
X477138Y-138839D01*
X476218Y-139759D01*
X474987Y-141891D01*
X474350Y-144269D01*
Y-146731D01*
X474987Y-149109D01*
X476218Y-151241D01*
X477959Y-152982D01*
X480091Y-154213D01*
X482469Y-154850D01*
X484931D01*
X487309Y-154213D01*
X489441Y-152982D01*
X491182Y-151241D01*
X492413Y-149109D01*
X493050Y-146731D01*
Y-144269D01*
X492413Y-141891D01*
X491182Y-139759D01*
X490262Y-138839D01*
X489458Y-138000D01*
X490262Y-137161D01*
X491182Y-136241D01*
X492413Y-134109D01*
X493050Y-131731D01*
Y-129269D01*
X492413Y-126891D01*
X491182Y-124759D01*
X490262Y-123839D01*
X489458Y-123000D01*
X490262Y-122161D01*
X491182Y-121241D01*
X492413Y-119109D01*
X493050Y-116731D01*
Y-114269D01*
X492413Y-111891D01*
X491182Y-109759D01*
X490262Y-108839D01*
X489459Y-108000D01*
X490262Y-107161D01*
X491182Y-106241D01*
X492413Y-104109D01*
X493050Y-101731D01*
Y-99269D01*
X492413Y-96891D01*
X491182Y-94759D01*
X490262Y-93839D01*
X489458Y-93000D01*
X490262Y-92161D01*
X491182Y-91241D01*
X492413Y-89109D01*
X492911Y-87250D01*
X493260Y-87012D01*
X494086Y-86676D01*
X494320Y-86663D01*
X495939Y-87334D01*
X498061D01*
X500022Y-86522D01*
X501522Y-85021D01*
X502334Y-83061D01*
Y-80939D01*
X501522Y-78979D01*
X500043Y-77500D01*
X501522Y-76021D01*
X502334Y-74061D01*
Y-71939D01*
X501522Y-69978D01*
X500022Y-68478D01*
X498061Y-67666D01*
X495939D01*
X494135Y-68413D01*
X493780Y-68398D01*
X492700Y-67961D01*
X492413Y-66891D01*
X491182Y-64759D01*
X489441Y-63018D01*
X487309Y-61787D01*
X484931Y-61150D01*
D02*
G37*
G36*
X18061Y-77666D02*
X15939D01*
X13979Y-78478D01*
X12478Y-79979D01*
X11666Y-81939D01*
Y-84061D01*
X12478Y-86021D01*
X13979Y-87522D01*
X15939Y-88334D01*
X18061D01*
X20021Y-87522D01*
X21522Y-86021D01*
X22334Y-84061D01*
Y-81939D01*
X21522Y-79979D01*
X20021Y-78478D01*
X18061Y-77666D01*
D02*
G37*
G36*
X334011Y-63471D02*
X331889D01*
X329929Y-64283D01*
X328429Y-65783D01*
X327617Y-67744D01*
Y-69866D01*
X328429Y-71826D01*
X329907Y-73305D01*
X328429Y-74783D01*
X327617Y-76744D01*
Y-78866D01*
X328429Y-80826D01*
X329907Y-82305D01*
X328429Y-83783D01*
X327617Y-85744D01*
Y-87866D01*
X328429Y-89826D01*
X329907Y-91305D01*
X328429Y-92783D01*
X327617Y-94744D01*
Y-96866D01*
X328429Y-98826D01*
X329929Y-100327D01*
X331889Y-101139D01*
X334011D01*
X335972Y-100327D01*
X337472Y-98826D01*
X338284Y-96866D01*
Y-94744D01*
X337472Y-92783D01*
X335994Y-91305D01*
X337472Y-89826D01*
X338284Y-87866D01*
Y-85744D01*
X337472Y-83783D01*
X335994Y-82305D01*
X337472Y-80826D01*
X338284Y-78866D01*
Y-76744D01*
X337472Y-74783D01*
X335994Y-73305D01*
X337472Y-71826D01*
X338284Y-69866D01*
Y-67744D01*
X337472Y-65783D01*
X335972Y-64283D01*
X334011Y-63471D01*
D02*
G37*
G36*
X514061Y-83666D02*
X511939D01*
X509978Y-84478D01*
X508478Y-85978D01*
X507666Y-87939D01*
Y-90061D01*
X508478Y-92022D01*
X509457Y-93000D01*
X508478Y-93979D01*
X507666Y-95939D01*
Y-98061D01*
X508478Y-100021D01*
X509978Y-101522D01*
X511939Y-102334D01*
X514061D01*
X516021Y-101522D01*
X517522Y-100021D01*
X518334Y-98061D01*
Y-95939D01*
X517522Y-93979D01*
X516543Y-93000D01*
X517522Y-92022D01*
X518334Y-90061D01*
Y-87939D01*
X517522Y-85978D01*
X516021Y-84478D01*
X514061Y-83666D01*
D02*
G37*
G36*
X576061Y-95666D02*
X573939D01*
X571978Y-96478D01*
X570478Y-97978D01*
X569666Y-99939D01*
Y-102061D01*
X570478Y-104022D01*
X571978Y-105522D01*
X573939Y-106334D01*
X576061D01*
X578021Y-105522D01*
X579522Y-104022D01*
X580334Y-102061D01*
Y-99939D01*
X579522Y-97978D01*
X578021Y-96478D01*
X576061Y-95666D01*
D02*
G37*
G36*
X624061Y-102666D02*
X621939D01*
X619978Y-103478D01*
X618478Y-104979D01*
X618013Y-106100D01*
X616493Y-106845D01*
X616061Y-106666D01*
X613939D01*
X611978Y-107478D01*
X610478Y-108979D01*
X609666Y-110939D01*
Y-113061D01*
X610478Y-115021D01*
X611457Y-116000D01*
X610478Y-116979D01*
X609666Y-118939D01*
Y-121061D01*
X610478Y-123021D01*
X611683Y-124226D01*
X611866Y-125000D01*
X611683Y-125774D01*
X610478Y-126979D01*
X609666Y-128939D01*
Y-131061D01*
X610478Y-133021D01*
X611978Y-134522D01*
X613939Y-135334D01*
X616061D01*
X618021Y-134522D01*
X619522Y-133021D01*
X620334Y-131061D01*
Y-128939D01*
X619522Y-126979D01*
X618317Y-125774D01*
X618134Y-125000D01*
X618317Y-124226D01*
X619522Y-123021D01*
X620334Y-121061D01*
Y-118939D01*
X619522Y-116979D01*
X618543Y-116000D01*
X619522Y-115021D01*
X619986Y-113900D01*
X621507Y-113155D01*
X621939Y-113334D01*
X624061D01*
X626021Y-112522D01*
X626933Y-111610D01*
X628428Y-111900D01*
X628478Y-112022D01*
X629978Y-113522D01*
X631939Y-114334D01*
X634061D01*
X636021Y-113522D01*
X637522Y-112022D01*
X638334Y-110061D01*
Y-107939D01*
X637522Y-105979D01*
X636021Y-104478D01*
X634061Y-103666D01*
X631939D01*
X629978Y-104478D01*
X629067Y-105390D01*
X627572Y-105100D01*
X627522Y-104979D01*
X626021Y-103478D01*
X624061Y-102666D01*
D02*
G37*
G36*
X462061Y-96666D02*
X459939D01*
X457979Y-97478D01*
X456478Y-98979D01*
X455666Y-100939D01*
Y-103061D01*
X456478Y-105021D01*
X457979Y-106522D01*
X459939Y-107334D01*
X462061D01*
X464021Y-106522D01*
X465522Y-105021D01*
X466334Y-103061D01*
Y-100939D01*
X465522Y-98979D01*
X464021Y-97478D01*
X462061Y-96666D01*
D02*
G37*
G36*
X598061Y-106666D02*
X595939D01*
X593979Y-107478D01*
X592500Y-108957D01*
X591021Y-107478D01*
X589061Y-106666D01*
X586939D01*
X584978Y-107478D01*
X583478Y-108979D01*
X582666Y-110939D01*
Y-113061D01*
X583478Y-115021D01*
X584978Y-116522D01*
X586939Y-117334D01*
X589061D01*
X591021Y-116522D01*
X592500Y-115043D01*
X593979Y-116522D01*
X595939Y-117334D01*
X598061D01*
X600022Y-116522D01*
X601522Y-115021D01*
X602334Y-113061D01*
Y-110939D01*
X601522Y-108979D01*
X600022Y-107478D01*
X598061Y-106666D01*
D02*
G37*
G36*
X-96939D02*
X-99061D01*
X-101021Y-107478D01*
X-102522Y-108979D01*
X-103334Y-110939D01*
Y-113061D01*
X-102522Y-115021D01*
X-101021Y-116522D01*
X-99061Y-117334D01*
X-96939D01*
X-94979Y-116522D01*
X-93478Y-115021D01*
X-92666Y-113061D01*
Y-110939D01*
X-93478Y-108979D01*
X-94979Y-107478D01*
X-96939Y-106666D01*
D02*
G37*
G36*
X-49939Y-108666D02*
X-52061D01*
X-54022Y-109478D01*
X-55522Y-110978D01*
X-56334Y-112939D01*
Y-115061D01*
X-55522Y-117022D01*
X-54022Y-118522D01*
X-52061Y-119334D01*
X-49939D01*
X-47979Y-118522D01*
X-46478Y-117022D01*
X-45666Y-115061D01*
Y-112939D01*
X-46478Y-110978D01*
X-47979Y-109478D01*
X-49939Y-108666D01*
D02*
G37*
G36*
X540561Y-105166D02*
X538439D01*
X536479Y-105978D01*
X534978Y-107479D01*
X534166Y-109439D01*
Y-111561D01*
X534978Y-113521D01*
X535457Y-114000D01*
X534478Y-114979D01*
X533666Y-116939D01*
Y-119061D01*
X534478Y-121021D01*
X535979Y-122522D01*
X537939Y-123334D01*
X540061D01*
X542021Y-122522D01*
X543522Y-121021D01*
X544334Y-119061D01*
Y-116939D01*
X543522Y-114979D01*
X543043Y-114500D01*
X544022Y-113521D01*
X544834Y-111561D01*
Y-109439D01*
X544022Y-107479D01*
X542521Y-105978D01*
X540561Y-105166D01*
D02*
G37*
G36*
X603061Y-127666D02*
X600939D01*
X598979Y-128478D01*
X598000Y-129457D01*
X597021Y-128478D01*
X595061Y-127666D01*
X592939D01*
X590979Y-128478D01*
X589478Y-129979D01*
X588666Y-131939D01*
Y-134061D01*
X589478Y-136021D01*
X590979Y-137522D01*
X592939Y-138334D01*
X595061D01*
X597021Y-137522D01*
X598000Y-136543D01*
X598979Y-137522D01*
X600939Y-138334D01*
X603061D01*
X605021Y-137522D01*
X606522Y-136021D01*
X607334Y-134061D01*
Y-131939D01*
X606522Y-129979D01*
X605021Y-128478D01*
X603061Y-127666D01*
D02*
G37*
G36*
X583061Y-121666D02*
X580939D01*
X578979Y-122478D01*
X577478Y-123979D01*
X576666Y-125939D01*
Y-128061D01*
X577478Y-130021D01*
X578979Y-131522D01*
X580939Y-132334D01*
X583061D01*
X585022Y-131522D01*
X586522Y-130021D01*
X587334Y-128061D01*
Y-125939D01*
X586522Y-123979D01*
X585022Y-122478D01*
X583061Y-121666D01*
D02*
G37*
G36*
X416061Y-123666D02*
X413939D01*
X411979Y-124478D01*
X410478Y-125978D01*
X409666Y-127939D01*
Y-130061D01*
X410478Y-132022D01*
X411979Y-133522D01*
X413939Y-134334D01*
X416061D01*
X418022Y-133522D01*
X419522Y-132022D01*
X420334Y-130061D01*
Y-127939D01*
X419522Y-125978D01*
X418022Y-124478D01*
X416061Y-123666D01*
D02*
G37*
G36*
X539061Y-130666D02*
X536939D01*
X534978Y-131478D01*
X533478Y-132979D01*
X532666Y-134939D01*
Y-137061D01*
X533478Y-139022D01*
X534978Y-140522D01*
X536939Y-141334D01*
X539061D01*
X541021Y-140522D01*
X542522Y-139022D01*
X543334Y-137061D01*
Y-134939D01*
X542522Y-132979D01*
X541021Y-131478D01*
X539061Y-130666D01*
D02*
G37*
G36*
X607061Y-139666D02*
X604939D01*
X602979Y-140478D01*
X601774Y-141683D01*
X601000Y-141866D01*
X600226Y-141683D01*
X599021Y-140478D01*
X597061Y-139666D01*
X594939D01*
X592979Y-140478D01*
X592000Y-141457D01*
X591021Y-140478D01*
X589061Y-139666D01*
X586939D01*
X584978Y-140478D01*
X583478Y-141979D01*
X582666Y-143939D01*
Y-146061D01*
X583478Y-148021D01*
X583853Y-148396D01*
X583326Y-149666D01*
X581939D01*
X579978Y-150478D01*
X578478Y-151979D01*
X577666Y-153939D01*
Y-156061D01*
X578478Y-158021D01*
X579978Y-159522D01*
X581939Y-160334D01*
X584061D01*
X586021Y-159522D01*
X587522Y-158021D01*
X588334Y-156061D01*
Y-153939D01*
X587522Y-151979D01*
X587147Y-151604D01*
X587673Y-150334D01*
X589061D01*
X591021Y-149522D01*
X592000Y-148543D01*
X592979Y-149522D01*
X594939Y-150334D01*
X597061D01*
X599021Y-149522D01*
X600226Y-148317D01*
X601000Y-148134D01*
X601774Y-148317D01*
X602979Y-149522D01*
X604939Y-150334D01*
X607061D01*
X609021Y-149522D01*
X610522Y-148021D01*
X611334Y-146061D01*
Y-143939D01*
X610522Y-141979D01*
X609021Y-140478D01*
X607061Y-139666D01*
D02*
G37*
G36*
X624061Y-133666D02*
X621939D01*
X619978Y-134478D01*
X618478Y-135978D01*
X617666Y-137939D01*
Y-140061D01*
X618478Y-142022D01*
X619978Y-143522D01*
X621939Y-144334D01*
X624061D01*
X626021Y-143522D01*
X627522Y-142022D01*
X628334Y-140061D01*
Y-137939D01*
X627522Y-135978D01*
X626021Y-134478D01*
X624061Y-133666D01*
D02*
G37*
G36*
X134061Y-123666D02*
X131939D01*
X129979Y-124478D01*
X128478Y-125978D01*
X127666Y-127939D01*
Y-130061D01*
X128478Y-132022D01*
X129979Y-133522D01*
X130680Y-133813D01*
Y-135187D01*
X129979Y-135478D01*
X128478Y-136979D01*
X127666Y-138939D01*
Y-141061D01*
X128478Y-143021D01*
X129979Y-144522D01*
X131939Y-145334D01*
X134061D01*
X136021Y-144522D01*
X137522Y-143021D01*
X138334Y-141061D01*
Y-138939D01*
X137522Y-136979D01*
X136021Y-135478D01*
X135320Y-135187D01*
Y-133813D01*
X136021Y-133522D01*
X137522Y-132022D01*
X138334Y-130061D01*
Y-127939D01*
X137522Y-125978D01*
X136021Y-124478D01*
X134061Y-123666D01*
D02*
G37*
G36*
X635061Y-140666D02*
X632939D01*
X630979Y-141478D01*
X629478Y-142978D01*
X628666Y-144939D01*
Y-147061D01*
X629478Y-149021D01*
X630979Y-150522D01*
X632939Y-151334D01*
X635061D01*
X637021Y-150522D01*
X638522Y-149021D01*
X639334Y-147061D01*
Y-144939D01*
X638522Y-142978D01*
X637021Y-141478D01*
X635061Y-140666D01*
D02*
G37*
G36*
X575061Y-141666D02*
X572939D01*
X570979Y-142478D01*
X569478Y-143979D01*
X568666Y-145939D01*
Y-148061D01*
X569478Y-150021D01*
X570979Y-151522D01*
X572939Y-152334D01*
X575061D01*
X577021Y-151522D01*
X578522Y-150021D01*
X579334Y-148061D01*
Y-145939D01*
X578522Y-143979D01*
X577021Y-142478D01*
X575061Y-141666D01*
D02*
G37*
G36*
X100061Y-150666D02*
X97939D01*
X95978Y-151478D01*
X94774Y-152683D01*
X94000Y-152865D01*
X93226Y-152683D01*
X92022Y-151478D01*
X90061Y-150666D01*
X87939D01*
X85978Y-151478D01*
X84774Y-152683D01*
X84000Y-152865D01*
X83226Y-152683D01*
X82022Y-151478D01*
X80061Y-150666D01*
X77939D01*
X75978Y-151478D01*
X74774Y-152683D01*
X74000Y-152865D01*
X73226Y-152683D01*
X72021Y-151478D01*
X70061Y-150666D01*
X67939D01*
X65978Y-151478D01*
X64478Y-152978D01*
X63666Y-154939D01*
Y-157061D01*
X64478Y-159021D01*
X65957Y-160500D01*
X64478Y-161978D01*
X63666Y-163939D01*
Y-166061D01*
X64478Y-168022D01*
X65683Y-169226D01*
X65866Y-170000D01*
X65683Y-170774D01*
X64478Y-171978D01*
X63666Y-173939D01*
Y-176061D01*
X64478Y-178022D01*
X65683Y-179226D01*
X65866Y-180000D01*
X65683Y-180774D01*
X64478Y-181979D01*
X63666Y-183939D01*
Y-186061D01*
X64478Y-188022D01*
X65978Y-189522D01*
X67939Y-190334D01*
X70061D01*
X72021Y-189522D01*
X73226Y-188317D01*
X74000Y-188134D01*
X74774Y-188317D01*
X75978Y-189522D01*
X77939Y-190334D01*
X80061D01*
X82022Y-189522D01*
X83226Y-188317D01*
X84000Y-188134D01*
X84774Y-188317D01*
X85978Y-189522D01*
X87939Y-190334D01*
X90061D01*
X92022Y-189522D01*
X93226Y-188317D01*
X94000Y-188134D01*
X94774Y-188317D01*
X95978Y-189522D01*
X97939Y-190334D01*
X100061D01*
X102022Y-189522D01*
X103522Y-188022D01*
X104334Y-186061D01*
Y-183939D01*
X103522Y-181979D01*
X102317Y-180774D01*
X102135Y-180000D01*
X102317Y-179226D01*
X103522Y-178022D01*
X104334Y-176061D01*
Y-173939D01*
X103522Y-171978D01*
X102317Y-170774D01*
X102135Y-170000D01*
X102317Y-169226D01*
X103522Y-168022D01*
X104334Y-166061D01*
Y-163939D01*
X103522Y-161978D01*
X102043Y-160500D01*
X103522Y-159021D01*
X104334Y-157061D01*
Y-154939D01*
X103522Y-152978D01*
X102022Y-151478D01*
X100061Y-150666D01*
D02*
G37*
G36*
X524061Y-138666D02*
X521939D01*
X519978Y-139478D01*
X518478Y-140978D01*
X517666Y-142939D01*
Y-145061D01*
X518478Y-147021D01*
X519978Y-148522D01*
X521939Y-149334D01*
X524061D01*
X526021Y-148522D01*
X526463Y-148986D01*
X526478Y-149021D01*
X527979Y-150522D01*
X529920Y-151326D01*
X529666Y-151939D01*
Y-154061D01*
X530478Y-156021D01*
X531978Y-157522D01*
X533939Y-158334D01*
X536061D01*
X538022Y-157522D01*
X539522Y-156021D01*
X540334Y-154061D01*
Y-151939D01*
X539522Y-149979D01*
X538022Y-148478D01*
X536080Y-147674D01*
X536334Y-147061D01*
Y-144939D01*
X535522Y-142978D01*
X534021Y-141478D01*
X532061Y-140666D01*
X529939D01*
X528939Y-141080D01*
X527522Y-140978D01*
X526021Y-139478D01*
X524061Y-138666D01*
D02*
G37*
G36*
X350011Y-151471D02*
X347890D01*
X345929Y-152283D01*
X344429Y-153783D01*
X343616Y-155744D01*
Y-157866D01*
X344429Y-159826D01*
X345929Y-161327D01*
X347890Y-162139D01*
X350011D01*
X351972Y-161327D01*
X353472Y-159826D01*
X354285Y-157866D01*
Y-155744D01*
X353472Y-153783D01*
X351972Y-152283D01*
X350011Y-151471D01*
D02*
G37*
G36*
X214061Y-153666D02*
X211939D01*
X209979Y-154478D01*
X208478Y-155979D01*
X207666Y-157939D01*
Y-160061D01*
X208478Y-162022D01*
X209979Y-163522D01*
X211939Y-164334D01*
X214061D01*
X216021Y-163522D01*
X217522Y-162022D01*
X218334Y-160061D01*
Y-157939D01*
X217522Y-155979D01*
X216021Y-154478D01*
X214061Y-153666D01*
D02*
G37*
G36*
X200012Y-127471D02*
X197889D01*
X195929Y-128283D01*
X194429Y-129783D01*
X193617Y-131744D01*
Y-133866D01*
X194429Y-135826D01*
X195907Y-137305D01*
X194429Y-138783D01*
X193617Y-140744D01*
Y-142866D01*
X194429Y-144826D01*
X195407Y-145805D01*
X194429Y-146783D01*
X193617Y-148744D01*
Y-150866D01*
X194250Y-152396D01*
X194028Y-153304D01*
X193609Y-153803D01*
X191978Y-154478D01*
X190478Y-155979D01*
X189666Y-157939D01*
Y-160061D01*
X190478Y-162022D01*
X191978Y-163522D01*
X193939Y-164334D01*
X196061D01*
X198021Y-163522D01*
X199522Y-162022D01*
X200334Y-160061D01*
Y-157939D01*
X199700Y-156409D01*
X199923Y-155501D01*
X200342Y-155002D01*
X201972Y-154327D01*
X203472Y-152826D01*
X204284Y-150866D01*
Y-148744D01*
X203472Y-146783D01*
X202494Y-145805D01*
X203472Y-144826D01*
X204284Y-142866D01*
Y-140744D01*
X203472Y-138783D01*
X201994Y-137305D01*
X203472Y-135826D01*
X204284Y-133866D01*
Y-131744D01*
X203472Y-129783D01*
X201972Y-128283D01*
X200012Y-127471D01*
D02*
G37*
G36*
X233011Y-154471D02*
X230889D01*
X228929Y-155283D01*
X227429Y-156783D01*
X226616Y-158744D01*
Y-160866D01*
X227429Y-162826D01*
X228929Y-164327D01*
X230889Y-165139D01*
X233011D01*
X234972Y-164327D01*
X236472Y-162826D01*
X237285Y-160866D01*
Y-158744D01*
X236472Y-156783D01*
X234972Y-155283D01*
X233011Y-154471D01*
D02*
G37*
G36*
X566061Y-157666D02*
X563939D01*
X561978Y-158478D01*
X560478Y-159979D01*
X559666Y-161939D01*
Y-164061D01*
X560478Y-166021D01*
X561978Y-167522D01*
X563939Y-168334D01*
X566061D01*
X568021Y-167522D01*
X569522Y-166021D01*
X570334Y-164061D01*
Y-161939D01*
X569522Y-159979D01*
X568021Y-158478D01*
X566061Y-157666D01*
D02*
G37*
G36*
X301012Y-160471D02*
X298890D01*
X296929Y-161283D01*
X295429Y-162783D01*
X294617Y-164744D01*
Y-166866D01*
X295429Y-168826D01*
X296929Y-170327D01*
X298890Y-171139D01*
X301012D01*
X302972Y-170327D01*
X304473Y-168826D01*
X305285Y-166866D01*
Y-164744D01*
X304473Y-162783D01*
X302972Y-161283D01*
X301012Y-160471D01*
D02*
G37*
G36*
X513061Y-149666D02*
X510939D01*
X508979Y-150478D01*
X507478Y-151979D01*
X506666Y-153939D01*
Y-156061D01*
X507478Y-158021D01*
X508878Y-159421D01*
X508899Y-159855D01*
X508680Y-160773D01*
X506978Y-161478D01*
X505478Y-162978D01*
X504666Y-164939D01*
Y-167061D01*
X505478Y-169021D01*
X506978Y-170522D01*
X508939Y-171334D01*
X511061D01*
X513022Y-170522D01*
X514522Y-169021D01*
X515334Y-167061D01*
Y-164939D01*
X514522Y-162978D01*
X513122Y-161579D01*
X513101Y-161145D01*
X513320Y-160227D01*
X515021Y-159522D01*
X516522Y-158021D01*
X517334Y-156061D01*
Y-153939D01*
X516522Y-151979D01*
X515021Y-150478D01*
X513061Y-149666D01*
D02*
G37*
G36*
X583061Y-172666D02*
X580939D01*
X578979Y-173478D01*
X578000Y-174457D01*
X577021Y-173478D01*
X575061Y-172666D01*
X572939D01*
X570979Y-173478D01*
X569478Y-174979D01*
X568666Y-176939D01*
Y-179061D01*
X569478Y-181021D01*
X570979Y-182522D01*
X572939Y-183334D01*
X575061D01*
X577021Y-182522D01*
X578000Y-181543D01*
X578979Y-182522D01*
X580939Y-183334D01*
X583061D01*
X585022Y-182522D01*
X586522Y-181021D01*
X587334Y-179061D01*
Y-176939D01*
X586522Y-174979D01*
X585022Y-173478D01*
X583061Y-172666D01*
D02*
G37*
G36*
X331012Y-166471D02*
X328890D01*
X326929Y-167283D01*
X325429Y-168783D01*
X324617Y-170744D01*
Y-172866D01*
X325429Y-174826D01*
X326929Y-176327D01*
X328890Y-177139D01*
X331012D01*
X332972Y-176327D01*
X334473Y-174826D01*
X335285Y-172866D01*
Y-170744D01*
X334473Y-168783D01*
X332972Y-167283D01*
X331012Y-166471D01*
D02*
G37*
G36*
X527061Y-162666D02*
X524939D01*
X522979Y-163478D01*
X521478Y-164979D01*
X520666Y-166939D01*
Y-169061D01*
X521478Y-171021D01*
X522957Y-172500D01*
X522478Y-172978D01*
X521666Y-174939D01*
Y-177061D01*
X522478Y-179021D01*
X523979Y-180522D01*
X525939Y-181334D01*
X528061D01*
X530021Y-180522D01*
X531522Y-179021D01*
X531987Y-177900D01*
X533507Y-177155D01*
X533939Y-177334D01*
X536061D01*
X538022Y-176522D01*
X539522Y-175021D01*
X540334Y-173061D01*
Y-170939D01*
X539522Y-168979D01*
X538022Y-167478D01*
X536061Y-166666D01*
X533939D01*
X532604Y-167219D01*
X531554Y-166988D01*
X531170Y-166543D01*
X530522Y-164979D01*
X529021Y-163478D01*
X527061Y-162666D01*
D02*
G37*
G36*
X352061Y-173666D02*
X349939D01*
X347979Y-174478D01*
X346478Y-175979D01*
X345666Y-177939D01*
Y-180061D01*
X346478Y-182022D01*
X347979Y-183522D01*
X349939Y-184334D01*
X352061D01*
X354021Y-183522D01*
X355522Y-182022D01*
X356334Y-180061D01*
Y-177939D01*
X355522Y-175979D01*
X354021Y-174478D01*
X352061Y-173666D01*
D02*
G37*
G36*
X509061Y-182666D02*
X506939D01*
X504978Y-183478D01*
X503774Y-184683D01*
X503000Y-184865D01*
X502226Y-184683D01*
X501021Y-183478D01*
X499061Y-182666D01*
X496939D01*
X494978Y-183478D01*
X493478Y-184979D01*
X492666Y-186939D01*
Y-189061D01*
X493478Y-191021D01*
X494978Y-192522D01*
X496939Y-193334D01*
X499061D01*
X501021Y-192522D01*
X502226Y-191317D01*
X503000Y-191134D01*
X503774Y-191317D01*
X504978Y-192522D01*
X506939Y-193334D01*
X509061D01*
X511021Y-192522D01*
X512522Y-191021D01*
X513334Y-189061D01*
Y-186939D01*
X512522Y-184979D01*
X511021Y-183478D01*
X509061Y-182666D01*
D02*
G37*
G36*
X133061Y-185666D02*
X130939D01*
X128979Y-186478D01*
X127478Y-187978D01*
X126666Y-189939D01*
Y-192061D01*
X127478Y-194021D01*
X128979Y-195522D01*
X130939Y-196334D01*
X133061D01*
X135021Y-195522D01*
X136522Y-194021D01*
X137334Y-192061D01*
Y-189939D01*
X136522Y-187978D01*
X135021Y-186478D01*
X133061Y-185666D01*
D02*
G37*
G36*
X318061Y341334D02*
X315939D01*
X313979Y340522D01*
X312478Y339021D01*
X311666Y337061D01*
Y334939D01*
X312478Y332979D01*
X313979Y331478D01*
X315939Y330666D01*
X318061D01*
X320022Y331478D01*
X321522Y332979D01*
X322334Y334939D01*
Y337061D01*
X321522Y339021D01*
X320022Y340522D01*
X318061Y341334D01*
D02*
G37*
%LPD*%
D17*
X-15587Y-439564D02*
X-7123D01*
X-11355D01*
Y-464956D01*
X-15587D01*
X-7123D01*
X5573D02*
Y-439564D01*
X22501Y-464956D01*
Y-439564D01*
X30965Y-464956D02*
Y-439564D01*
X47892Y-464956D01*
Y-439564D01*
X73284D02*
X56356D01*
Y-464956D01*
X73284D01*
X56356Y-452260D02*
X64820D01*
X81748Y-464956D02*
Y-439564D01*
X94444D01*
X98676Y-443796D01*
Y-452260D01*
X94444Y-456492D01*
X81748D01*
X90212D02*
X98676Y-464956D01*
X132532Y-439564D02*
Y-464956D01*
X149460D01*
X157924D02*
Y-448028D01*
X166388Y-439564D01*
X174851Y-448028D01*
Y-464956D01*
Y-452260D01*
X157924D01*
X183315Y-439564D02*
Y-443796D01*
X191779Y-452260D01*
X200243Y-443796D01*
Y-439564D01*
X191779Y-452260D02*
Y-464956D01*
X225635Y-439564D02*
X208707D01*
Y-464956D01*
X225635D01*
X208707Y-452260D02*
X217171D01*
X234099Y-464956D02*
Y-439564D01*
X246795D01*
X251027Y-443796D01*
Y-452260D01*
X246795Y-456492D01*
X234099D01*
X242563D02*
X251027Y-464956D01*
X301810D02*
X284883D01*
X301810Y-448028D01*
Y-443796D01*
X297579Y-439564D01*
X289115D01*
X284883Y-443796D01*
X-145Y-288975D02*
X-8608D01*
X-12840Y-293207D01*
Y-310134D01*
X-8608Y-314366D01*
X-145D01*
X4087Y-310134D01*
Y-293207D01*
X-145Y-288975D01*
X12551D02*
Y-314366D01*
X25247D01*
X29479Y-310134D01*
Y-293207D01*
X25247Y-288975D01*
X12551D01*
X37943D02*
X46407D01*
X42175D01*
Y-314366D01*
X37943D01*
X46407D01*
X76031Y-293207D02*
X71799Y-288975D01*
X63335D01*
X59103Y-293207D01*
Y-310134D01*
X63335Y-314366D01*
X71799D01*
X76031Y-310134D01*
X88727Y-318598D02*
X92959Y-314366D01*
Y-310134D01*
X88727D01*
Y-314366D01*
X92959D01*
X88727Y-318598D01*
X84495Y-322830D01*
X135278Y-288975D02*
X143742D01*
X139510D01*
Y-314366D01*
X135278D01*
X143742D01*
X156438D02*
Y-288975D01*
X173366Y-314366D01*
Y-288975D01*
X198758Y-293207D02*
X194526Y-288975D01*
X186062D01*
X181830Y-293207D01*
Y-310134D01*
X186062Y-314366D01*
X194526D01*
X198758Y-310134D01*
X207222Y-314366D02*
Y-310134D01*
X211454D01*
Y-314366D01*
X207222D01*
X1341Y-340332D02*
X-2891Y-336100D01*
X-11355D01*
X-15587Y-340332D01*
Y-357260D01*
X-11355Y-361492D01*
X-2891D01*
X1341Y-357260D01*
Y-348796D01*
X-7123D01*
X9805Y-336100D02*
Y-361492D01*
Y-348796D01*
X26733D01*
Y-336100D01*
Y-361492D01*
X35197Y-336100D02*
Y-361492D01*
X52125D01*
X85980D02*
Y-336100D01*
X102908Y-361492D01*
Y-336100D01*
X111372Y-361492D02*
Y-344564D01*
X119836Y-336100D01*
X128300Y-344564D01*
Y-361492D01*
Y-348796D01*
X111372D01*
X136764Y-361492D02*
Y-344564D01*
X145228Y-336100D01*
X153692Y-344564D01*
Y-361492D01*
Y-348796D01*
X136764D01*
X162156Y-336100D02*
X179083D01*
X170620D01*
Y-361492D01*
X200243Y-336100D02*
X191779D01*
X187547Y-340332D01*
Y-357260D01*
X191779Y-361492D01*
X200243D01*
X204475Y-357260D01*
Y-340332D01*
X200243Y-336100D01*
X229867Y-340332D02*
X225635Y-336100D01*
X217171D01*
X212939Y-340332D01*
Y-344564D01*
X217171Y-348796D01*
X225635D01*
X229867Y-353028D01*
Y-357260D01*
X225635Y-361492D01*
X217171D01*
X212939Y-357260D01*
X280651Y-340332D02*
X276419Y-336100D01*
X267955D01*
X263723Y-340332D01*
Y-344564D01*
X267955Y-348796D01*
X276419D01*
X280651Y-353028D01*
Y-357260D01*
X276419Y-361492D01*
X267955D01*
X263723Y-357260D01*
X293347Y-344564D02*
X301810D01*
X306042Y-348796D01*
Y-361492D01*
X293347D01*
X289115Y-357260D01*
X293347Y-353028D01*
X306042D01*
X314506Y-361492D02*
Y-344564D01*
X318738D01*
X322970Y-348796D01*
Y-361492D01*
Y-348796D01*
X327202Y-344564D01*
X331434Y-348796D01*
Y-361492D01*
X339898Y-369956D02*
Y-344564D01*
X352594D01*
X356826Y-348796D01*
Y-357260D01*
X352594Y-361492D01*
X339898D01*
X365290D02*
X373754D01*
X369522D01*
Y-336100D01*
X365290D01*
X399146Y-361492D02*
X390682D01*
X386450Y-357260D01*
Y-348796D01*
X390682Y-344564D01*
X399146D01*
X403378Y-348796D01*
Y-353028D01*
X386450D01*
X437233Y-361492D02*
Y-336100D01*
X449929D01*
X454161Y-340332D01*
Y-348796D01*
X449929Y-353028D01*
X437233D01*
X462625Y-344564D02*
Y-361492D01*
Y-353028D01*
X466857Y-348796D01*
X471089Y-344564D01*
X475321D01*
X500713Y-361492D02*
X492249D01*
X488017Y-357260D01*
Y-348796D01*
X492249Y-344564D01*
X500713D01*
X504945Y-348796D01*
Y-353028D01*
X488017D01*
X513409Y-369956D02*
Y-344564D01*
X526105D01*
X530337Y-348796D01*
Y-357260D01*
X526105Y-361492D01*
X513409D01*
X564192D02*
Y-336100D01*
X572656Y-344564D01*
X581120Y-336100D01*
Y-361492D01*
X593816Y-344564D02*
X602280D01*
X606512Y-348796D01*
Y-361492D01*
X593816D01*
X589584Y-357260D01*
X593816Y-353028D01*
X606512D01*
X614976Y-361492D02*
X623440D01*
X619208D01*
Y-344564D01*
X614976D01*
X636136Y-361492D02*
Y-344564D01*
X648832D01*
X653064Y-348796D01*
Y-361492D01*
X686919Y-336100D02*
Y-361492D01*
X699615D01*
X703847Y-357260D01*
Y-353028D01*
X699615Y-348796D01*
X686919D01*
X699615D01*
X703847Y-344564D01*
Y-340332D01*
X699615Y-336100D01*
X686919D01*
X716543Y-361492D02*
X725007D01*
X729239Y-357260D01*
Y-348796D01*
X725007Y-344564D01*
X716543D01*
X712311Y-348796D01*
Y-357260D01*
X716543Y-361492D01*
X741935Y-344564D02*
X750399D01*
X754631Y-348796D01*
Y-361492D01*
X741935D01*
X737703Y-357260D01*
X741935Y-353028D01*
X754631D01*
X763095Y-344564D02*
Y-361492D01*
Y-353028D01*
X767327Y-348796D01*
X771559Y-344564D01*
X775791D01*
X805414Y-336100D02*
Y-361492D01*
X792719D01*
X788486Y-357260D01*
Y-348796D01*
X792719Y-344564D01*
X805414D01*
X1727Y-413574D02*
X-15201D01*
X1727Y-396646D01*
Y-392415D01*
X-2505Y-388183D01*
X-10969D01*
X-15201Y-392415D01*
X27119Y-388183D02*
X18655Y-392415D01*
X10191Y-400878D01*
Y-409342D01*
X14423Y-413574D01*
X22887D01*
X27119Y-409342D01*
Y-405110D01*
X22887Y-400878D01*
X10191D01*
X35583Y-392415D02*
X39815Y-388183D01*
X48279D01*
X52511Y-392415D01*
Y-396646D01*
X48279Y-400878D01*
X44047D01*
X48279D01*
X52511Y-405110D01*
Y-409342D01*
X48279Y-413574D01*
X39815D01*
X35583Y-409342D01*
X60975Y-400878D02*
X77903D01*
X86367Y-392415D02*
X90599Y-388183D01*
X99063D01*
X103295Y-392415D01*
Y-409342D01*
X99063Y-413574D01*
X90599D01*
X86367Y-409342D01*
Y-392415D01*
X111758D02*
X115990Y-388183D01*
X124454D01*
X128686Y-392415D01*
Y-396646D01*
X124454Y-400878D01*
X120222D01*
X124454D01*
X128686Y-405110D01*
Y-409342D01*
X124454Y-413574D01*
X115990D01*
X111758Y-409342D01*
X137150Y-400878D02*
X154078D01*
X162542Y-392415D02*
X166774Y-388183D01*
X175238D01*
X179470Y-392415D01*
Y-409342D01*
X175238Y-413574D01*
X166774D01*
X162542Y-409342D01*
Y-392415D01*
X187934D02*
X192166Y-388183D01*
X200630D01*
X204862Y-392415D01*
Y-409342D01*
X200630Y-413574D01*
X192166D01*
X187934Y-409342D01*
Y-392415D01*
X213326Y-413574D02*
X221790D01*
X217558D01*
Y-388183D01*
X213326Y-392415D01*
X285269Y-413574D02*
Y-388183D01*
X297965D01*
X302197Y-392415D01*
Y-400878D01*
X297965Y-405110D01*
X285269D01*
X293733D02*
X302197Y-413574D01*
X327589Y-388183D02*
X310661D01*
Y-413574D01*
X327589D01*
X310661Y-400878D02*
X319125D01*
X336053Y-388183D02*
Y-405110D01*
X344517Y-413574D01*
X352980Y-405110D01*
Y-388183D01*
X386836D02*
Y-413574D01*
X399532D01*
X403764Y-409342D01*
Y-405110D01*
X399532Y-400878D01*
X386836D01*
X399532D01*
X403764Y-396646D01*
Y-392415D01*
X399532Y-388183D01*
X386836D01*
D137*
X-94500Y921300D02*
D03*
X666000D02*
D03*
X-94500Y231300D02*
D03*
X666000D02*
D03*
D147*
X677800Y539200D02*
X678000Y539000D01*
X677800Y539200D02*
Y576300D01*
X642000Y577000D02*
X642700Y576300D01*
X677800D01*
Y611800D02*
X678000Y612000D01*
X677800Y576300D02*
Y611800D01*
D152*
X202400Y924350D02*
D03*
Y892600D02*
D03*
X151600Y924350D02*
D03*
Y892600D02*
D03*
X202400D02*
D03*
Y924350D02*
D03*
X151600Y892600D02*
D03*
Y924350D02*
D03*
D153*
X187160Y943400D02*
D03*
X166840D02*
D03*
X177000Y892600D02*
D03*
D03*
X187160Y943400D02*
D03*
X166840D02*
D03*
X348000Y422600D02*
D03*
X358160Y473400D02*
D03*
X337840D02*
D03*
D154*
X376000Y671000D02*
D03*
X-106300Y576300D02*
D03*
X677800D02*
D03*
X375750Y732000D02*
D03*
D155*
X483700Y-145500D02*
D03*
Y-130500D02*
D03*
Y-115500D02*
D03*
Y-100500D02*
D03*
Y-85500D02*
D03*
Y-70500D02*
D03*
X293000Y831500D02*
D03*
X278000D02*
D03*
D156*
X248695Y910436D02*
D03*
D157*
X320695D02*
D03*
D158*
X312695Y916936D02*
D03*
X308695Y923936D02*
D03*
X300695D02*
D03*
X296695Y916936D02*
D03*
X292695Y923936D02*
D03*
X288695Y916936D02*
D03*
X280695D02*
D03*
X276695Y923936D02*
D03*
X272695Y916936D02*
D03*
X268695Y923936D02*
D03*
X260695D02*
D03*
X256695Y916936D02*
D03*
D159*
X238695Y924436D02*
D03*
X330695D02*
D03*
X238695Y954436D02*
D03*
X330695D02*
D03*
D160*
X350750Y577215D02*
D03*
X220750D02*
D03*
D161*
X571500Y0D02*
D03*
X0D02*
D03*
D162*
X252000Y927000D02*
D03*
X317000D02*
D03*
X187000Y862000D02*
D03*
X214976Y940976D02*
D03*
X182000Y953000D02*
D03*
X202000Y951000D02*
D03*
X319000Y530000D02*
D03*
X344000Y526000D02*
D03*
X330000Y528000D02*
D03*
X278000Y509000D02*
D03*
X215000Y908000D02*
D03*
X141000Y909000D02*
D03*
X177000Y872000D02*
D03*
Y881000D02*
D03*
X416000Y-52000D02*
D03*
X433000Y-60000D02*
D03*
X410000Y309000D02*
D03*
X433000Y342000D02*
D03*
X447000Y332000D02*
D03*
X330000Y288000D02*
D03*
Y297000D02*
D03*
X403000Y326000D02*
D03*
X410000D02*
D03*
X230000Y261000D02*
D03*
X449000Y381000D02*
D03*
X310000Y366000D02*
D03*
X316000Y346000D02*
D03*
X317000Y336000D02*
D03*
X335000Y352000D02*
D03*
Y344000D02*
D03*
X345000D02*
D03*
Y352000D02*
D03*
Y336000D02*
D03*
X335000D02*
D03*
X364000Y333000D02*
D03*
X307000Y-27000D02*
D03*
X315000D02*
D03*
X307000Y-35000D02*
D03*
X315000D02*
D03*
X323000Y-27000D02*
D03*
Y-35000D02*
D03*
X99000Y-156000D02*
D03*
X89000D02*
D03*
X79000D02*
D03*
X69000D02*
D03*
X247000Y17000D02*
D03*
X239000D02*
D03*
X231000D02*
D03*
X222000D02*
D03*
X214000D02*
D03*
X206000D02*
D03*
X331000Y-27000D02*
D03*
Y-35000D02*
D03*
X247000Y0D02*
D03*
Y9000D02*
D03*
X99000Y-165000D02*
D03*
Y-175000D02*
D03*
Y-185000D02*
D03*
X89000Y-165000D02*
D03*
X79000D02*
D03*
X69000D02*
D03*
X330000Y19000D02*
D03*
X323000D02*
D03*
X315000D02*
D03*
X322000Y-17000D02*
D03*
X330000Y12000D02*
D03*
X323000D02*
D03*
X315000D02*
D03*
X323000Y-9000D02*
D03*
X280995Y891936D02*
D03*
X513000Y-89000D02*
D03*
X288995Y891936D02*
D03*
X513000Y-97000D02*
D03*
X406000Y375000D02*
D03*
X424000Y342000D02*
D03*
X428000Y358000D02*
D03*
X419000D02*
D03*
X424000Y375000D02*
D03*
X415000D02*
D03*
X426000Y303000D02*
D03*
X392000Y339000D02*
D03*
X363000Y448000D02*
D03*
X226000Y333000D02*
D03*
X188000D02*
D03*
X365000Y261000D02*
D03*
X446000Y271000D02*
D03*
X436000Y270000D02*
D03*
X426000D02*
D03*
X436000Y278000D02*
D03*
X426000D02*
D03*
X446000Y279000D02*
D03*
X436000Y287000D02*
D03*
X446000D02*
D03*
X426000D02*
D03*
X446000Y303000D02*
D03*
X436000D02*
D03*
X446000Y295000D02*
D03*
X436000D02*
D03*
X426000D02*
D03*
X170000Y298000D02*
D03*
X186000D02*
D03*
Y289000D02*
D03*
Y280000D02*
D03*
X178000D02*
D03*
Y289000D02*
D03*
Y298000D02*
D03*
X128000Y410000D02*
D03*
X439000Y241000D02*
D03*
X17000Y-83000D02*
D03*
X223000Y71000D02*
D03*
X214000D02*
D03*
X206000D02*
D03*
X121000Y66000D02*
D03*
Y57000D02*
D03*
X110000D02*
D03*
X176000Y71000D02*
D03*
X166000D02*
D03*
X156000D02*
D03*
X145000D02*
D03*
X134000D02*
D03*
X163000Y-177000D02*
D03*
X192000Y-64000D02*
D03*
X149000Y-56000D02*
D03*
X158000Y-47000D02*
D03*
X149000D02*
D03*
X163000Y-167000D02*
D03*
Y-156000D02*
D03*
Y-146000D02*
D03*
Y-136000D02*
D03*
Y-127000D02*
D03*
X166000Y-89000D02*
D03*
X157000Y-38000D02*
D03*
Y-29000D02*
D03*
X155000Y7000D02*
D03*
X165000D02*
D03*
Y-1000D02*
D03*
X155000D02*
D03*
X90000Y45000D02*
D03*
X84000Y54000D02*
D03*
X60000Y28000D02*
D03*
X59000Y-28000D02*
D03*
X82277Y1723D02*
D03*
X100000Y-5000D02*
D03*
X106000D02*
D03*
X100000Y2000D02*
D03*
X106000D02*
D03*
X118000D02*
D03*
X124000Y-5000D02*
D03*
X118000D02*
D03*
Y-13000D02*
D03*
X100000D02*
D03*
X106000D02*
D03*
X124000D02*
D03*
Y2000D02*
D03*
X112000D02*
D03*
Y-5000D02*
D03*
Y-13000D02*
D03*
X136000Y8000D02*
D03*
X167000Y-38000D02*
D03*
X133000Y-140000D02*
D03*
Y-129000D02*
D03*
X132000Y-191000D02*
D03*
X89000Y-175000D02*
D03*
Y-185000D02*
D03*
X79000D02*
D03*
X69000D02*
D03*
X79000Y-175000D02*
D03*
X69000D02*
D03*
X203246Y-58000D02*
D03*
X213246Y-56869D02*
D03*
X240000Y52000D02*
D03*
X53000Y240000D02*
D03*
X155000Y147000D02*
D03*
X166000D02*
D03*
X384000Y310000D02*
D03*
Y317000D02*
D03*
X292000Y461000D02*
D03*
X340000Y156000D02*
D03*
X606000Y-145000D02*
D03*
X162000Y194000D02*
D03*
X168000Y184000D02*
D03*
X300000Y157000D02*
D03*
X256000D02*
D03*
X145000Y156000D02*
D03*
X337000Y178000D02*
D03*
X514000Y229000D02*
D03*
X416000Y63000D02*
D03*
X633000Y-109000D02*
D03*
X602000Y-133000D02*
D03*
X615000Y-130000D02*
D03*
X324000Y139000D02*
D03*
X304000Y398000D02*
D03*
X306000Y388000D02*
D03*
X169000Y332000D02*
D03*
X303000Y893000D02*
D03*
X345000Y204000D02*
D03*
X360000Y169000D02*
D03*
X113000Y264000D02*
D03*
X505000Y463000D02*
D03*
X525000D02*
D03*
X605000D02*
D03*
X625000D02*
D03*
X585000D02*
D03*
X565000D02*
D03*
X545000D02*
D03*
X485000D02*
D03*
X505000Y694000D02*
D03*
X525000D02*
D03*
X605000D02*
D03*
X625000D02*
D03*
X585000D02*
D03*
X565000D02*
D03*
X545000D02*
D03*
X485000D02*
D03*
Y913000D02*
D03*
X545000D02*
D03*
X565000D02*
D03*
X585000D02*
D03*
X625000D02*
D03*
X605000D02*
D03*
X525000D02*
D03*
X505000D02*
D03*
X600000Y244000D02*
D03*
X622000Y233000D02*
D03*
X611000D02*
D03*
X600000D02*
D03*
X622000Y244000D02*
D03*
X611000D02*
D03*
X310000Y205000D02*
D03*
X338000Y228000D02*
D03*
X170000Y289000D02*
D03*
X194000Y298000D02*
D03*
Y289000D02*
D03*
Y280000D02*
D03*
X202000D02*
D03*
Y289000D02*
D03*
Y298000D02*
D03*
X170000Y280000D02*
D03*
X514000Y238000D02*
D03*
X46000Y234000D02*
D03*
X391000Y147000D02*
D03*
Y155000D02*
D03*
X384000Y147000D02*
D03*
Y155000D02*
D03*
X362000Y193000D02*
D03*
X396000Y232000D02*
D03*
X404000D02*
D03*
Y225000D02*
D03*
X396000D02*
D03*
X439000Y187000D02*
D03*
Y196000D02*
D03*
Y204000D02*
D03*
X430000Y187000D02*
D03*
Y196000D02*
D03*
Y204000D02*
D03*
X139775Y359050D02*
D03*
X282000Y425000D02*
D03*
X296000Y436000D02*
D03*
X304000D02*
D03*
X327000Y866000D02*
D03*
X328000Y856000D02*
D03*
X326000Y847000D02*
D03*
X222000Y0D02*
D03*
X231000D02*
D03*
X239000D02*
D03*
X214000D02*
D03*
X206000D02*
D03*
X470000Y226000D02*
D03*
X190760Y256761D02*
D03*
X178000Y257000D02*
D03*
X212000Y206000D02*
D03*
X200000D02*
D03*
X212000Y218000D02*
D03*
X200000D02*
D03*
X206000Y211000D02*
D03*
X159000Y224000D02*
D03*
X401000Y-36000D02*
D03*
X381000D02*
D03*
X390000Y-48000D02*
D03*
Y-41000D02*
D03*
X449000Y98000D02*
D03*
Y75000D02*
D03*
X471000Y120000D02*
D03*
X449000Y65000D02*
D03*
X375320Y82680D02*
D03*
X505000Y54000D02*
D03*
X512000Y-155000D02*
D03*
X544000Y-196000D02*
D03*
X535000Y-172000D02*
D03*
X613000Y-194000D02*
D03*
X527000Y-176000D02*
D03*
X498000Y-188000D02*
D03*
X526000Y-168000D02*
D03*
X535000Y-153000D02*
D03*
X531000Y-146000D02*
D03*
X538000Y-136000D02*
D03*
X635000Y-73000D02*
D03*
X550000Y-172519D02*
D03*
X488000Y127000D02*
D03*
X438000Y108000D02*
D03*
X344000Y104000D02*
D03*
X353000Y86000D02*
D03*
X415000Y-38000D02*
D03*
X507000Y-46000D02*
D03*
X523000Y-144000D02*
D03*
X481000Y-1000D02*
D03*
X491000D02*
D03*
X447000Y-12000D02*
D03*
X463000Y-42000D02*
D03*
X428000Y-22000D02*
D03*
X575000Y-109000D02*
D03*
X225000Y243000D02*
D03*
X428464Y-4464D02*
D03*
X205000Y-186000D02*
D03*
X-69000Y-123000D02*
D03*
X-80000Y-121000D02*
D03*
X325000Y52000D02*
D03*
X637000Y-177000D02*
D03*
X645000Y-156000D02*
D03*
Y-104000D02*
D03*
X442000Y-80000D02*
D03*
X537000Y-128000D02*
D03*
X144950Y387775D02*
D03*
X217225Y349950D02*
D03*
X269225Y355950D02*
D03*
X237225Y363950D02*
D03*
X217225Y378950D02*
D03*
X240225Y393950D02*
D03*
X223661Y395875D02*
D03*
X240225Y400950D02*
D03*
Y407950D02*
D03*
Y414950D02*
D03*
X205225Y429950D02*
D03*
X224225Y438950D02*
D03*
X207975Y463950D02*
D03*
X269225Y383950D02*
D03*
X246975Y393950D02*
D03*
X260225D02*
D03*
X253475D02*
D03*
X246975Y400950D02*
D03*
X260225D02*
D03*
X253475D02*
D03*
X246975Y407950D02*
D03*
X260225D02*
D03*
X253475D02*
D03*
X277225D02*
D03*
X246975Y414950D02*
D03*
X260225D02*
D03*
X253475D02*
D03*
X278225Y435950D02*
D03*
X197225Y475950D02*
D03*
X277225Y415950D02*
D03*
X365995Y777536D02*
D03*
X357995Y770536D02*
D03*
X353308Y919223D02*
D03*
X360995Y941536D02*
D03*
X353308Y928223D02*
D03*
Y910223D02*
D03*
X436308Y930223D02*
D03*
Y921224D02*
D03*
Y912224D02*
D03*
Y903223D02*
D03*
Y894223D02*
D03*
X444995Y822536D02*
D03*
X436308Y822224D02*
D03*
X344308Y862224D02*
D03*
Y855224D02*
D03*
X363308Y848224D02*
D03*
Y861224D02*
D03*
X360308Y854224D02*
D03*
X367308D02*
D03*
X365808Y769536D02*
D03*
X366995Y946536D02*
D03*
X360995Y932536D02*
D03*
X332995Y786536D02*
D03*
X396995Y801536D02*
D03*
X357995Y777536D02*
D03*
X356995Y785536D02*
D03*
X291995Y862936D02*
D03*
X435500Y-68500D02*
D03*
X188951Y-115805D02*
D03*
X256950Y-114805D02*
D03*
X248951D02*
D03*
X394950Y-124805D02*
D03*
Y-142805D02*
D03*
Y-133805D02*
D03*
X386950Y-142805D02*
D03*
Y-133805D02*
D03*
Y-124805D02*
D03*
X327951Y-128805D02*
D03*
X334950D02*
D03*
Y-114805D02*
D03*
Y-121805D02*
D03*
X327951Y-114805D02*
D03*
Y-121805D02*
D03*
X339000Y146000D02*
D03*
X256950Y-140805D02*
D03*
X248951D02*
D03*
Y-132805D02*
D03*
Y-123805D02*
D03*
X256950Y-132805D02*
D03*
X256950Y-123805D02*
D03*
X138506Y413064D02*
D03*
X139506Y405064D02*
D03*
X143506Y398064D02*
D03*
X155506Y434064D02*
D03*
Y454064D02*
D03*
X415005Y-138536D02*
D03*
Y-145536D02*
D03*
Y-152536D02*
D03*
X315000Y-2000D02*
D03*
X231995Y852936D02*
D03*
X239995D02*
D03*
X240995Y868936D02*
D03*
X230995D02*
D03*
X259995Y893936D02*
D03*
X314995D02*
D03*
X324995Y170536D02*
D03*
X315000Y5000D02*
D03*
X323000D02*
D03*
Y-2000D02*
D03*
X573500Y-154500D02*
D03*
X513000Y-81000D02*
D03*
Y-105000D02*
D03*
X244000Y-189000D02*
D03*
X231000Y-186000D02*
D03*
X218000D02*
D03*
X263951Y-190805D02*
D03*
X256950D02*
D03*
X263951Y-182805D02*
D03*
X256950D02*
D03*
X263951Y-174805D02*
D03*
X256950D02*
D03*
X317950Y-144805D02*
D03*
X327951D02*
D03*
Y-154805D02*
D03*
X317950D02*
D03*
X322951Y-149805D02*
D03*
X645500Y-137500D02*
D03*
Y-76500D02*
D03*
X550000Y-79000D02*
D03*
X645500Y-177500D02*
D03*
X623500Y-177500D02*
D03*
X502000Y-39000D02*
D03*
X461000Y-102000D02*
D03*
X440000Y-35000D02*
D03*
X588000Y-112000D02*
D03*
X575000Y-101000D02*
D03*
X497000Y-82000D02*
D03*
Y-73000D02*
D03*
X206000Y234000D02*
D03*
X484000Y177000D02*
D03*
X524000Y109000D02*
D03*
X536000Y-79000D02*
D03*
X510000Y-166000D02*
D03*
X206000Y9000D02*
D03*
X214000D02*
D03*
X239000D02*
D03*
X231000D02*
D03*
X222000D02*
D03*
X223000Y-59000D02*
D03*
X427000Y110000D02*
D03*
X479000Y120000D02*
D03*
X634000Y-146000D02*
D03*
X623000Y-139000D02*
D03*
X594000Y-133000D02*
D03*
X597000Y-112000D02*
D03*
X582000Y-127000D02*
D03*
X615000Y-112000D02*
D03*
X495000Y108000D02*
D03*
X451000Y804000D02*
D03*
X484000Y219000D02*
D03*
X485000Y210000D02*
D03*
X499000Y204000D02*
D03*
X184000D02*
D03*
X191000Y194000D02*
D03*
X230000Y204000D02*
D03*
X236000Y212000D02*
D03*
X230000Y219000D02*
D03*
X184000Y212000D02*
D03*
X-51000Y-114000D02*
D03*
X-98000Y-112000D02*
D03*
X498000Y20000D02*
D03*
X583000Y-155000D02*
D03*
X574000Y-147000D02*
D03*
X508000Y-188000D02*
D03*
X615000Y-120000D02*
D03*
X596000Y-145000D02*
D03*
X623000Y-108000D02*
D03*
X270000Y894000D02*
D03*
X276000Y886000D02*
D03*
X624000Y-76000D02*
D03*
X351000Y-179000D02*
D03*
X415000Y-129000D02*
D03*
X416000Y15000D02*
D03*
X418000Y49000D02*
D03*
X187000Y364000D02*
D03*
Y352000D02*
D03*
X180000Y401000D02*
D03*
X171000D02*
D03*
X180000Y410000D02*
D03*
X171000D02*
D03*
X539000Y-118000D02*
D03*
X539500Y-110500D02*
D03*
X254225Y467950D02*
D03*
X245225Y449950D02*
D03*
X254225D02*
D03*
X245225Y455950D02*
D03*
X254225D02*
D03*
X260225Y460950D02*
D03*
X272225D02*
D03*
X266225D02*
D03*
X245225Y461950D02*
D03*
X254225D02*
D03*
X245225Y467950D02*
D03*
X130950Y379775D02*
D03*
X226225Y349950D02*
D03*
X240225Y374950D02*
D03*
X234225Y378950D02*
D03*
X216225Y411950D02*
D03*
X209225D02*
D03*
X223225D02*
D03*
X245225Y428950D02*
D03*
X224225Y420950D02*
D03*
X240554Y424950D02*
D03*
X224299Y429876D02*
D03*
X240225Y433950D02*
D03*
X238225Y449950D02*
D03*
Y455950D02*
D03*
X238193Y462111D02*
D03*
X238225Y467950D02*
D03*
X258225Y374950D02*
D03*
X249357Y375817D02*
D03*
X260225Y424950D02*
D03*
X250225D02*
D03*
X255225Y428950D02*
D03*
X260225Y433950D02*
D03*
X250225D02*
D03*
X582000Y-178000D02*
D03*
X574000D02*
D03*
X401995Y947536D02*
D03*
X397995Y938536D02*
D03*
X387995Y947536D02*
D03*
X380995D02*
D03*
X394995Y770536D02*
D03*
Y777536D02*
D03*
X386995Y770536D02*
D03*
X402995Y777536D02*
D03*
X386995D02*
D03*
X378995D02*
D03*
X357308Y882224D02*
D03*
X391433Y880349D02*
D03*
X432308Y872224D02*
D03*
Y879224D02*
D03*
X425308Y872224D02*
D03*
X432308Y833224D02*
D03*
X425308Y841224D02*
D03*
X432308D02*
D03*
X372308Y865224D02*
D03*
X378308D02*
D03*
X372308Y860224D02*
D03*
Y843224D02*
D03*
X378308D02*
D03*
X372308Y848224D02*
D03*
X378308Y860224D02*
D03*
Y848224D02*
D03*
X394995Y947536D02*
D03*
X408995Y943536D02*
D03*
X378995Y770536D02*
D03*
X346995Y833536D02*
D03*
X348995Y810536D02*
D03*
X402995Y770536D02*
D03*
X381995Y899536D02*
D03*
X352995Y897536D02*
D03*
X337995Y872536D02*
D03*
X387951Y-70805D02*
D03*
X398951D02*
D03*
Y-79805D02*
D03*
X387951D02*
D03*
X388000Y-88000D02*
D03*
X399000D02*
D03*
X332951Y-95805D02*
D03*
Y-86805D02*
D03*
Y-77805D02*
D03*
Y-68805D02*
D03*
X345000Y-69000D02*
D03*
X198951Y-149805D02*
D03*
X231950Y-159805D02*
D03*
X348951Y-156805D02*
D03*
X172506Y465064D02*
D03*
Y456064D02*
D03*
Y446064D02*
D03*
X588000Y-145000D02*
D03*
X299951Y-165805D02*
D03*
X198951Y-132805D02*
D03*
X228995Y884936D02*
D03*
X235995D02*
D03*
X242995D02*
D03*
X293995Y885936D02*
D03*
X336995Y170536D02*
D03*
X355000Y-35000D02*
D03*
X339000D02*
D03*
X347000D02*
D03*
X363000D02*
D03*
X371000D02*
D03*
Y-27000D02*
D03*
X363000D02*
D03*
X355000D02*
D03*
X347000D02*
D03*
X339000D02*
D03*
X433464Y39700D02*
D03*
X195000Y-159000D02*
D03*
X213000D02*
D03*
X329950Y-171805D02*
D03*
X198951Y-141805D02*
D03*
X565000Y-163000D02*
D03*
D163*
X195750Y732000D02*
D03*
M02*
