G04*
G04 #@! TF.GenerationSoftware,Altium Limited,Altium Designer,24.9.1 (31)*
G04*
G04 Layer_Physical_Order=1*
G04 Layer_Color=255*
%FSLAX44Y44*%
%MOMM*%
G71*
G04*
G04 #@! TF.SameCoordinates,6C7A866E-41A3-4D12-9BD4-ECE58917465C*
G04*
G04*
G04 #@! TF.FilePolarity,Positive*
G04*
G01*
G75*
%ADD10C,0.2500*%
%ADD12C,0.2000*%
%ADD13C,0.1524*%
%ADD15C,0.1270*%
%ADD18C,0.2540*%
%ADD20R,0.6000X0.9000*%
%ADD21R,0.3000X0.4500*%
%ADD22R,1.6000X1.0000*%
%ADD23R,0.6000X2.0000*%
%ADD24R,0.6000X0.6000*%
%ADD25R,0.6000X0.6000*%
%ADD26R,2.6500X1.5300*%
%ADD27R,2.6500X2.7200*%
%ADD28R,0.6000X0.2000*%
%ADD29R,0.4000X0.2000*%
%ADD30R,0.2000X0.4000*%
%ADD31R,0.2000X0.6000*%
%ADD32R,1.2500X1.2500*%
%ADD33R,1.0000X0.9500*%
%ADD34R,0.2040X0.7064*%
%ADD35R,2.3876X1.7018*%
%ADD36R,0.7112X0.2540*%
%ADD37R,1.3000X2.2000*%
%ADD38R,0.7000X0.4000*%
%ADD39R,2.5100X2.5500*%
%ADD40R,1.8000X1.0000*%
%ADD41R,1.3552X0.5625*%
G04:AMPARAMS|DCode=42|XSize=1.3552mm|YSize=0.5625mm|CornerRadius=0.2812mm|HoleSize=0mm|Usage=FLASHONLY|Rotation=180.000|XOffset=0mm|YOffset=0mm|HoleType=Round|Shape=RoundedRectangle|*
%AMROUNDEDRECTD42*
21,1,1.3552,0.0000,0,0,180.0*
21,1,0.7928,0.5625,0,0,180.0*
1,1,0.5625,-0.3964,0.0000*
1,1,0.5625,0.3964,0.0000*
1,1,0.5625,0.3964,0.0000*
1,1,0.5625,-0.3964,0.0000*
%
%ADD42ROUNDEDRECTD42*%
%ADD43R,0.2400X0.6000*%
%ADD44R,2.5000X1.9000*%
%ADD45R,0.9500X1.0000*%
%ADD46R,2.7500X4.0000*%
%ADD47R,0.6000X0.2400*%
%ADD48R,0.5000X1.0056*%
%ADD49R,1.0000X2.7000*%
%ADD50R,1.4500X1.1500*%
%ADD51R,0.3500X0.5000*%
%ADD52R,1.6000X3.0000*%
%ADD53R,1.5500X1.3000*%
%ADD54R,4.7000X3.4300*%
%ADD55R,0.6000X0.2000*%
%ADD56R,0.2000X0.7000*%
%ADD57R,0.2000X0.6500*%
%ADD58R,0.2000X0.6800*%
%ADD59R,1.0000X0.2000*%
%ADD60R,0.9500X0.2000*%
%ADD61R,0.8000X0.2500*%
%ADD62R,0.7000X0.2500*%
%ADD63R,0.9000X1.0000*%
%ADD94R,2.0500X3.0500*%
%ADD126C,0.3000*%
%ADD127R,1.8999X1.8999*%
%ADD128R,2.4000X1.6500*%
%ADD129C,0.1916*%
%ADD130C,0.1575*%
%ADD131C,0.1750*%
%ADD132C,1.1430*%
%ADD133C,0.3810*%
%ADD134C,0.5000*%
%ADD135C,1.0000*%
%ADD136C,0.6350*%
%ADD137C,0.2400*%
%ADD138C,0.6000*%
%ADD139C,0.9906*%
%ADD140O,1.1000X2.2000*%
%ADD141C,0.6500*%
%ADD142O,0.9500X0.7500*%
%ADD143C,0.7500*%
%ADD144C,1.3970*%
%ADD145R,1.3970X1.3970*%
%ADD146R,1.3970X1.3970*%
%ADD147C,3.0480*%
%ADD148C,0.5588*%
G36*
X538951Y770049D02*
X538941Y770000D01*
X538941Y770000D01*
Y766000D01*
X539174Y764829D01*
X539837Y763837D01*
X539837Y763837D01*
X540000Y763674D01*
Y749688D01*
X535312Y745000D01*
Y732688D01*
X537254Y730746D01*
Y716688D01*
X537254Y716688D01*
X537487Y715517D01*
X538150Y714525D01*
X538150Y714525D01*
X538312Y714362D01*
Y707688D01*
X531312D01*
X529384Y709616D01*
Y719418D01*
X529582D01*
Y727958D01*
X521043D01*
Y726160D01*
X519772Y725442D01*
X518373Y726022D01*
X516251D01*
X515270Y725615D01*
X514000Y726464D01*
Y755000D01*
X528687Y769688D01*
X530000Y771000D01*
X538000D01*
X538951Y770049D01*
D02*
G37*
G36*
X285000Y707000D02*
Y698000D01*
X265000D01*
Y707000D01*
X268000Y710000D01*
X282000D01*
X285000Y707000D01*
D02*
G37*
G36*
X133000Y729000D02*
Y697000D01*
X130000Y694000D01*
X119000D01*
Y704000D01*
X119000Y704000D01*
Y708000D01*
X118000Y709000D01*
Y729000D01*
X120000Y731000D01*
X131000D01*
X133000Y729000D01*
D02*
G37*
G36*
X114941Y728059D02*
Y709000D01*
X114941Y709000D01*
X115000Y708704D01*
Y694000D01*
X109000D01*
Y705000D01*
X106000Y708000D01*
X101000D01*
X99000Y710000D01*
Y729000D01*
X101000Y731000D01*
X112000D01*
X114941Y728059D01*
D02*
G37*
G36*
X577000Y766000D02*
Y762000D01*
X576000Y761000D01*
X571000D01*
X570000Y760000D01*
X560000Y750000D01*
Y749701D01*
X559932Y749633D01*
X559269Y748640D01*
X559036Y747470D01*
X559036Y747470D01*
Y709411D01*
X555771Y706147D01*
X555377D01*
X553416Y705334D01*
X551916Y703834D01*
X551104Y701874D01*
Y701479D01*
X549313Y699688D01*
Y698513D01*
X549150Y698351D01*
X549150Y698351D01*
X548736Y697732D01*
X548487Y697358D01*
Y697358D01*
X548487Y697358D01*
X548440Y697122D01*
X548254Y696188D01*
X548254Y696188D01*
X548254Y690688D01*
X545180D01*
X544374Y691022D01*
X543312D01*
Y699820D01*
X543647Y700627D01*
Y702749D01*
X543312Y703555D01*
Y713688D01*
X540312Y716688D01*
Y743188D01*
X545000Y747875D01*
X545000Y762000D01*
Y763000D01*
X542000Y766000D01*
Y770000D01*
X543000Y771000D01*
X572000D01*
X577000Y766000D01*
D02*
G37*
G36*
X521312Y696188D02*
Y688188D01*
X520812Y687688D01*
X514813D01*
X514313Y688188D01*
Y689188D01*
X514813Y689688D01*
X519313D01*
Y696188D01*
X519813Y696688D01*
X520812D01*
X521312Y696188D01*
D02*
G37*
G36*
X553312Y696188D02*
Y689188D01*
X557812D01*
X558312Y688688D01*
Y687688D01*
X557812Y687188D01*
X551813Y687188D01*
X551312Y687688D01*
X551312Y696188D01*
X551813Y696688D01*
X552812D01*
X553312Y696188D01*
D02*
G37*
G36*
X579263Y753736D02*
X579254Y753688D01*
X579254Y753687D01*
Y698629D01*
X567371Y686746D01*
X566313Y686746D01*
X566313Y686746D01*
X565569Y686598D01*
X565142Y686514D01*
X564150Y685851D01*
X564150Y685850D01*
X562046Y683746D01*
X560348D01*
X559963Y685016D01*
X559975Y685025D01*
X559975Y685025D01*
X560475Y685525D01*
X560475Y685525D01*
X561138Y686517D01*
X561371Y687688D01*
X561371Y687688D01*
Y688688D01*
X561371Y688688D01*
X561138Y689858D01*
X560475Y690851D01*
X560475Y690851D01*
X559975Y691351D01*
X558983Y692014D01*
X557812Y692246D01*
X557812Y692246D01*
X556371D01*
Y695479D01*
X557499D01*
X559459Y696291D01*
X560960Y697791D01*
X561772Y699752D01*
Y701874D01*
X560960Y703834D01*
X560209Y704584D01*
X562095Y706470D01*
Y747470D01*
X569625Y755000D01*
X578000D01*
X579263Y753736D01*
D02*
G37*
G36*
X626979Y752632D02*
X630466Y748382D01*
X633313Y744122D01*
Y622687D01*
X608312Y597687D01*
X584641Y597688D01*
X583371Y597688D01*
Y649688D01*
X583312Y649983D01*
Y652688D01*
X567313Y668688D01*
X559582D01*
Y672458D01*
X554451D01*
X554296Y672561D01*
X553312Y672757D01*
X548740D01*
X548475Y673153D01*
X547483Y673816D01*
X546312Y674048D01*
X536158D01*
X536158Y674048D01*
X534987Y673816D01*
X533995Y673153D01*
X533995Y673152D01*
X533601Y672759D01*
X532895Y672466D01*
X532397Y672134D01*
X531902Y671803D01*
X531239Y670811D01*
X531006Y669640D01*
Y663688D01*
X523138D01*
X522975Y663850D01*
X522975Y663851D01*
X522313Y664294D01*
Y685082D01*
X522975Y685525D01*
X522975Y685525D01*
X523138Y685688D01*
X531978D01*
Y684627D01*
X532575Y683188D01*
X531978Y681749D01*
Y679627D01*
X532791Y677666D01*
X534291Y676166D01*
X536251Y675354D01*
X538373D01*
X540312Y676157D01*
X542252Y675354D01*
X544374D01*
X546334Y676166D01*
X546787Y676618D01*
X553312D01*
X554296Y676814D01*
X554451Y676918D01*
X559582D01*
Y680688D01*
X563313D01*
X566313Y683688D01*
X570312Y683688D01*
X582313Y695688D01*
Y753688D01*
X583312Y754688D01*
X624923D01*
X626979Y752632D01*
D02*
G37*
G36*
X283000Y674000D02*
X280000Y671000D01*
X269000D01*
X267000Y673000D01*
Y676000D01*
X267000Y681000D01*
Y682000D01*
X283000D01*
Y674000D01*
D02*
G37*
G36*
X546312Y661688D02*
X545312Y660688D01*
X535306Y660688D01*
X534065Y661743D01*
Y669640D01*
X535334Y670166D01*
X536158Y670990D01*
X546312D01*
Y661688D01*
D02*
G37*
G36*
X548253Y657578D02*
X548254Y657577D01*
X548254Y653188D01*
X548487Y652017D01*
X548736Y651644D01*
X549150Y651025D01*
X549150Y651025D01*
X549650Y650525D01*
X549650Y650525D01*
X550642Y649862D01*
X551813Y649629D01*
X551813Y649629D01*
X551871D01*
X552979Y648522D01*
Y646627D01*
X553791Y644666D01*
X554313Y644144D01*
Y589688D01*
X537313D01*
Y607687D01*
X544313Y614688D01*
Y634188D01*
X544543Y634418D01*
X544582D01*
Y634458D01*
X545312Y635188D01*
Y649188D01*
X543312Y651188D01*
Y657629D01*
X545312D01*
X545312Y657629D01*
X546483Y657862D01*
X546984Y658196D01*
X548253Y657578D01*
D02*
G37*
G36*
X379000Y666000D02*
Y654000D01*
X339000D01*
X339000Y666000D01*
X341000Y668000D01*
X377000D01*
X379000Y666000D01*
D02*
G37*
G36*
X558312Y661688D02*
Y660688D01*
X557812Y660188D01*
X553312D01*
Y653188D01*
X552812Y652688D01*
X551813D01*
X551312Y653188D01*
X551312Y661688D01*
X551813Y662188D01*
X557812Y662188D01*
X558312Y661688D01*
D02*
G37*
G36*
X520812D02*
X521312Y661188D01*
X521312Y653188D01*
X520812Y652688D01*
X519813D01*
X519313Y653188D01*
Y659688D01*
X514813D01*
X514313Y660188D01*
X514313Y661188D01*
X514813Y661688D01*
X520812Y661688D01*
D02*
G37*
G36*
X358000Y649125D02*
X363000Y644125D01*
Y631000D01*
Y617042D01*
X355000Y610375D01*
X354926Y610301D01*
X353574D01*
X350640Y610301D01*
X349765Y609426D01*
X339235D01*
X338765Y609896D01*
Y615956D01*
X339235Y616426D01*
X340724D01*
X340591Y617096D01*
X339928Y618089D01*
X339928Y618089D01*
X339428Y618589D01*
X339000Y618875D01*
Y648382D01*
Y650000D01*
X357125D01*
X358000Y649125D01*
D02*
G37*
G36*
X335941Y654000D02*
X336174Y652829D01*
X336265Y652693D01*
Y651307D01*
X336174Y651171D01*
X335941Y650000D01*
Y648382D01*
Y618875D01*
X336000Y618579D01*
Y618278D01*
X336115Y618000D01*
X336174Y617704D01*
X336250Y617591D01*
X335939Y617127D01*
Y617126D01*
X335939Y617126D01*
X335800Y616426D01*
X337265D01*
X337765Y615926D01*
X337765Y609926D01*
X337265Y609426D01*
X326235Y609426D01*
X325235Y610426D01*
Y610852D01*
X324959D01*
X324874Y610931D01*
X324826Y611171D01*
X324163Y612163D01*
X324163Y612163D01*
X321163Y615163D01*
X320171Y615826D01*
X319000Y616059D01*
X319000Y616059D01*
X311000D01*
X311000Y616059D01*
X309830Y615826D01*
X308837Y615163D01*
X308837Y615163D01*
X307837Y614163D01*
X307174Y613171D01*
X307125Y612926D01*
X289265D01*
X288265Y611926D01*
Y602507D01*
X287666Y601061D01*
Y598939D01*
X288265Y597493D01*
Y588926D01*
X292265Y584926D01*
X293926D01*
X294000Y585000D01*
X316339D01*
X316765Y585426D01*
X321765D01*
X322765Y584426D01*
Y583700D01*
X322765Y583699D01*
Y581287D01*
X322765Y581287D01*
Y579426D01*
X321765Y578426D01*
X316765D01*
X315765Y579426D01*
Y580286D01*
X315594Y580252D01*
X314602Y579589D01*
X314602Y579589D01*
X314013Y579000D01*
X294000D01*
X293931Y578986D01*
X293860Y578997D01*
X293573Y578926D01*
X292265D01*
X283250D01*
X279250Y582926D01*
Y618411D01*
X283765Y622926D01*
X294926D01*
X309000Y637000D01*
Y644000D01*
X325000Y660000D01*
X335941D01*
X335941Y654000D01*
D02*
G37*
G36*
X322000Y610000D02*
Y603000D01*
X316543D01*
X315096Y604448D01*
X313135Y605260D01*
X312740D01*
X310000Y608000D01*
Y612000D01*
X311000Y613000D01*
X319000D01*
X322000Y610000D01*
D02*
G37*
G36*
X565312Y661688D02*
X568312D01*
X580312Y649688D01*
Y597688D01*
X561312Y597687D01*
X557812Y601188D01*
Y642354D01*
X559374D01*
X561334Y643166D01*
X562835Y644666D01*
X563647Y646627D01*
Y648749D01*
X562835Y650709D01*
X561334Y652210D01*
X559374Y653022D01*
X557812D01*
Y657129D01*
X558983Y657362D01*
X559975Y658025D01*
X559975Y658025D01*
X560475Y658525D01*
X561138Y659517D01*
X561371Y660688D01*
X561371Y660688D01*
Y661687D01*
X561371Y661688D01*
X561138Y662858D01*
X560475Y663851D01*
X560475Y663851D01*
X560154Y664172D01*
X560350Y664978D01*
X560627Y665442D01*
X561453Y665547D01*
X565312Y661688D01*
D02*
G37*
G36*
X542254Y636455D02*
X542150Y636351D01*
X541487Y635358D01*
X541254Y634188D01*
X541254Y634188D01*
Y632629D01*
X538312Y629688D01*
Y613013D01*
X535150Y609850D01*
X535150Y609850D01*
X534494Y608869D01*
X534313Y608688D01*
Y607983D01*
X534254Y607687D01*
X534254Y607687D01*
Y589688D01*
X527313D01*
X522313Y594688D01*
X522313Y626688D01*
X537313Y641688D01*
X542254D01*
Y636455D01*
D02*
G37*
G36*
X322765Y576426D02*
Y574565D01*
X322765Y574565D01*
Y572301D01*
X322765Y572300D01*
Y571426D01*
X322666Y571327D01*
Y571326D01*
X321765Y570426D01*
X314479D01*
X314457Y570447D01*
X312497Y571259D01*
X310375D01*
X308414Y570447D01*
X308393Y570426D01*
X294574D01*
X293000Y572000D01*
Y574845D01*
X294000Y575941D01*
X294000Y575941D01*
X314013D01*
X314838Y576105D01*
X315594Y575600D01*
X315765Y575566D01*
Y576426D01*
X316765Y577426D01*
X321765D01*
X322765Y576426D01*
D02*
G37*
G36*
X322000Y556000D02*
X321000Y555000D01*
X300250D01*
Y561000D01*
X309389D01*
X310375Y560591D01*
X312497D01*
X313483Y561000D01*
X322000D01*
Y556000D01*
D02*
G37*
G36*
X595000Y474500D02*
X592000Y471500D01*
X578000D01*
Y490000D01*
X595000D01*
Y474500D01*
D02*
G37*
G36*
X567000Y467500D02*
X593000D01*
X599500Y474000D01*
X620000D01*
Y455500D01*
X602000D01*
X598059Y451559D01*
X589059D01*
X588763Y451500D01*
X586296D01*
X586000Y451559D01*
X582000D01*
X581704Y451500D01*
X576284D01*
X576171Y451576D01*
X575000Y451809D01*
X573000D01*
X571829Y451576D01*
X571716Y451500D01*
X570237D01*
X569941Y451559D01*
X565267D01*
X561163Y455663D01*
X560181Y456319D01*
X558000Y458500D01*
X525000D01*
Y474500D01*
X560000D01*
X567000Y467500D01*
D02*
G37*
G36*
X132941Y471733D02*
Y440941D01*
X131000Y439000D01*
X122000D01*
Y474941D01*
X129733D01*
X132941Y471733D01*
D02*
G37*
G36*
X142000Y480000D02*
Y442000D01*
X145000Y439000D01*
X152000D01*
Y437059D01*
X137941D01*
X136000Y439000D01*
Y473000D01*
X131000Y478000D01*
X122000D01*
Y484000D01*
X123000Y485000D01*
X137000D01*
X142000Y480000D01*
D02*
G37*
G36*
X564000Y448500D02*
X569941D01*
Y445017D01*
X569307Y444383D01*
X569011Y443939D01*
X568567Y443643D01*
X568567Y443643D01*
X561424Y436500D01*
X516000D01*
Y453500D01*
X559000D01*
X564000Y448500D01*
D02*
G37*
G36*
X248000Y480000D02*
Y448000D01*
X232000Y432000D01*
X205000Y405000D01*
X122000D01*
Y421000D01*
X149000D01*
X162000Y434000D01*
X173000D01*
X175000Y432000D01*
X184000D01*
X208000Y456000D01*
Y480000D01*
X219000Y491000D01*
X237000Y491000D01*
X248000Y480000D01*
D02*
G37*
G36*
X152000Y429000D02*
X147059Y424059D01*
X122000D01*
Y430000D01*
X126000Y434000D01*
X152000D01*
Y429000D01*
D02*
G37*
G36*
X620000Y420500D02*
X601000D01*
Y430500D01*
X599819Y431681D01*
X599163Y432663D01*
X589059Y442767D01*
Y448500D01*
X600000D01*
X601000Y449500D01*
X620000D01*
Y420500D01*
D02*
G37*
G36*
X115000Y481000D02*
Y460000D01*
X108000D01*
X103000Y455000D01*
Y432000D01*
X112000Y423000D01*
Y405000D01*
X86000D01*
X80000Y411000D01*
Y475000D01*
X87000Y482000D01*
X115000D01*
Y481000D01*
D02*
G37*
G36*
X575000Y441750D02*
X576000Y440750D01*
Y434545D01*
X573539D01*
X572369Y434312D01*
X571376Y433649D01*
X570713Y432657D01*
X570480Y431486D01*
Y401514D01*
X569853Y400750D01*
X560000D01*
Y430750D01*
X570730Y441480D01*
X571470D01*
Y442220D01*
X573000Y443750D01*
Y448750D01*
X575000D01*
Y441750D01*
D02*
G37*
G36*
X586000Y441500D02*
X597000Y430500D01*
X597000Y400500D01*
X588319D01*
X587513Y401482D01*
X587520Y401514D01*
Y431486D01*
X587287Y432657D01*
X586624Y433649D01*
X585631Y434312D01*
X584461Y434545D01*
X581000D01*
Y440500D01*
X582000Y441500D01*
Y448500D01*
X586000D01*
Y441500D01*
D02*
G37*
G36*
X375249Y401001D02*
Y392751D01*
X380749D01*
X381749Y391751D01*
Y362251D01*
X380749Y361251D01*
X375249D01*
Y353001D01*
X374249Y352001D01*
X373249D01*
X372249Y353001D01*
Y357251D01*
X369749D01*
Y353001D01*
X368749Y352001D01*
X367749D01*
X366749Y353001D01*
Y361251D01*
X361249D01*
X360249Y362251D01*
Y391751D01*
X361249Y392751D01*
X366749D01*
Y401001D01*
X367749Y402001D01*
X368749D01*
X369749Y401001D01*
Y396751D01*
X372249D01*
Y401001D01*
X373249Y402001D01*
X374249D01*
X375249Y401001D01*
D02*
G37*
G36*
X511436Y417000D02*
X344000D01*
X341000Y414000D01*
Y393000D01*
X256414D01*
X256000Y394000D01*
Y417000D01*
X277000Y438000D01*
X279000Y440000D01*
X327000D01*
X331000Y444000D01*
X425000D01*
X429000Y448000D01*
X511436D01*
Y417000D01*
D02*
G37*
G36*
X357000Y373000D02*
X280000D01*
X276000Y369000D01*
Y364000D01*
X308000D01*
Y360000D01*
X273000D01*
Y352000D01*
X248000D01*
X240000Y352000D01*
X237000Y355000D01*
X237000Y385000D01*
X238000Y386000D01*
X357000D01*
Y373000D01*
D02*
G37*
G36*
X165000Y350000D02*
X152500Y337500D01*
Y327500D01*
X145000D01*
Y355000D01*
X165000D01*
Y350000D01*
D02*
G37*
G36*
X542436Y324000D02*
X493000D01*
Y397000D01*
X399000D01*
X396000Y394000D01*
X385000D01*
Y401000D01*
X390730Y406730D01*
X391270D01*
Y407270D01*
X397000Y413000D01*
X515436D01*
Y418000D01*
X542436D01*
Y324000D01*
D02*
G37*
G36*
X449000Y374600D02*
Y324000D01*
X415000D01*
Y362000D01*
X409000Y368000D01*
X385000D01*
Y385000D01*
X438600D01*
X449000Y374600D01*
D02*
G37*
G36*
X332000Y337000D02*
X336000Y333000D01*
X385000D01*
Y307000D01*
X255000D01*
Y345000D01*
X283000D01*
X293000Y355000D01*
X332000D01*
Y337000D01*
D02*
G37*
G36*
X319000Y230000D02*
Y210375D01*
Y197000D01*
X317000Y195000D01*
X316250D01*
Y193750D01*
X291750D01*
Y195000D01*
X285000D01*
X281000Y199000D01*
Y231000D01*
X283000Y233000D01*
X316000D01*
X319000Y230000D01*
D02*
G37*
G36*
X309000Y178000D02*
X307000Y176000D01*
Y169000D01*
X306000Y168000D01*
X285000D01*
X278000Y175000D01*
Y184000D01*
X282000Y188000D01*
X309000D01*
Y178000D01*
D02*
G37*
%LPC*%
G36*
X594249Y709746D02*
X593078Y709513D01*
X592086Y708850D01*
X592086Y708850D01*
X585086Y701851D01*
X584423Y700858D01*
X584190Y699688D01*
X584190Y699688D01*
Y689688D01*
X584423Y688517D01*
X585086Y687525D01*
X586078Y686862D01*
X587248Y686629D01*
X623248D01*
X624419Y686862D01*
X625251Y687418D01*
X628083D01*
Y708958D01*
X625251D01*
X624419Y709513D01*
X623248Y709746D01*
X594249D01*
X594249Y709746D01*
D02*
G37*
G36*
X622812Y669246D02*
X587313D01*
X586142Y669014D01*
X585150Y668351D01*
X584487Y667358D01*
X584254Y666188D01*
Y658688D01*
X584487Y657517D01*
X585150Y656525D01*
X585150Y656525D01*
X594650Y647025D01*
X595642Y646362D01*
X596813Y646129D01*
X596813Y646129D01*
X622812D01*
X623983Y646362D01*
X624067Y646418D01*
X628083D01*
Y667958D01*
X625238D01*
X624975Y668351D01*
X623983Y669014D01*
X622812Y669246D01*
D02*
G37*
%LPD*%
G36*
X623248Y689688D02*
X587248D01*
Y699688D01*
X594249Y706688D01*
X623248D01*
Y689688D01*
D02*
G37*
G36*
X622812Y649188D02*
X596813D01*
X587313Y658688D01*
Y666188D01*
X622812D01*
Y649188D01*
D02*
G37*
%LPC*%
G36*
X234254Y484525D02*
X231746D01*
X229323Y483876D01*
X227166Y482630D01*
X233000Y476796D01*
X238834Y482630D01*
X236677Y483876D01*
X234254Y484525D01*
D02*
G37*
G36*
X225370Y480834D02*
X224124Y478676D01*
X223475Y476254D01*
Y473746D01*
X224124Y471324D01*
X225370Y469166D01*
X231204Y475000D01*
X225370Y480834D01*
D02*
G37*
G36*
X240630Y480834D02*
X234796Y475000D01*
X240630Y469166D01*
X241876Y471324D01*
X242525Y473746D01*
Y476254D01*
X241876Y478676D01*
X240630Y480834D01*
D02*
G37*
G36*
X233000Y473204D02*
X227166Y467370D01*
X229323Y466124D01*
X231746Y465475D01*
X234254D01*
X236677Y466124D01*
X238834Y467370D01*
X233000Y473204D01*
D02*
G37*
G36*
X241255Y463255D02*
X224745D01*
Y456087D01*
Y453913D01*
Y446745D01*
X241255D01*
Y463255D01*
D02*
G37*
%LPD*%
D10*
X231000Y317000D02*
X231000D01*
X235000Y313001D01*
X432000Y193000D02*
X435999Y189000D01*
X305000Y181000D02*
X306000Y180000D01*
X384000Y173000D02*
Y177000D01*
X382000Y171000D02*
X384000Y173000D01*
X379908Y171000D02*
X382000D01*
X210000Y77000D02*
X214000Y73000D01*
X214000D01*
X574000Y464750D02*
Y473750D01*
Y464750D02*
X579000Y459750D01*
X532313Y674688D02*
X532313Y674688D01*
X553312D01*
X525312Y674688D02*
X532313D01*
X524313D02*
X525312D01*
X528312Y678688D02*
Y681688D01*
Y678688D02*
X532313Y674688D01*
Y673688D02*
Y674688D01*
X528312Y669688D02*
X532313Y673688D01*
X528312Y668688D02*
Y669688D01*
X511312Y680688D02*
X517313D01*
X509313Y682688D02*
X511312Y680688D01*
X511313Y684688D02*
X517313D01*
X509313Y682688D02*
X511313Y684688D01*
X509313Y675688D02*
X512313Y672688D01*
X517313D01*
X363499Y355500D02*
Y364499D01*
X364000Y365000D01*
X550600Y550400D02*
X551000Y550000D01*
X550600Y550400D02*
Y569850D01*
X575450Y565000D02*
X584000D01*
X570600Y569850D02*
X575450Y565000D01*
X239000Y313001D02*
X243000Y317000D01*
Y305000D02*
Y305000D01*
X239000Y309000D02*
X243000Y305000D01*
X440000Y185000D02*
X444000Y181000D01*
X443999Y193000D02*
X444000D01*
X440000Y189000D02*
X443999Y193000D01*
X354000Y137000D02*
X354000Y137000D01*
Y151000D01*
X389000Y161000D02*
X389000Y161000D01*
X379908Y161000D02*
X389000D01*
X202000Y73000D02*
X206000Y77000D01*
X202000Y85000D02*
X206000Y81000D01*
Y81000D02*
Y81000D01*
X515000Y570000D02*
X515150Y569850D01*
X530600D01*
X543312Y668688D02*
X544813Y670188D01*
X553312D01*
X544813Y679188D02*
X553312D01*
X543312Y680688D02*
X544813Y679188D01*
X537313Y680688D02*
X543312D01*
Y685688D01*
X537313D02*
X543312D01*
X553312Y665688D02*
X561312D01*
X568312Y658688D01*
X553563Y683688D02*
X561313D01*
X568312Y690688D01*
X540312Y693688D02*
Y699688D01*
X538312Y701688D02*
X540312Y699688D01*
X524313Y693688D02*
Y700688D01*
X522313Y702688D02*
X524313Y700688D01*
X530312Y646688D02*
X532313Y648688D01*
Y656088D01*
D12*
X130000Y655000D02*
X136000Y661000D01*
X130000Y650000D02*
Y655000D01*
X118500Y638500D02*
X130000Y650000D01*
X145000Y506962D02*
Y512500D01*
X142500Y515000D02*
X145000Y512500D01*
X151000Y515000D02*
X167000D01*
X169000Y513000D01*
X153000Y467000D02*
X157500Y462500D01*
X153000Y467000D02*
Y477038D01*
X148000Y470000D02*
X149000Y471000D01*
X148000Y465000D02*
Y470000D01*
Y457000D02*
Y465000D01*
X148000Y457000D02*
X148000Y457000D01*
X148000Y457000D02*
X150000Y455000D01*
X145000Y483000D02*
X149000Y487000D01*
X145000Y477038D02*
Y483000D01*
X145000Y477038D02*
X145000Y477038D01*
X348000Y585000D02*
X349074Y583926D01*
X313436Y567926D02*
X326015D01*
X313174Y563926D02*
X327926D01*
X125000Y622000D02*
X152000Y649000D01*
X122500Y634500D02*
X142000Y654000D01*
X112500Y634500D02*
X122500D01*
X121500Y690500D02*
Y698528D01*
X119000Y688000D02*
X121500Y690500D01*
X105000Y688000D02*
X119000D01*
X102500Y690500D02*
X105000Y688000D01*
X102500Y690500D02*
Y698528D01*
X357000Y554000D02*
X357265Y554265D01*
Y559926D01*
X322000Y549000D02*
X325000D01*
X328265Y552265D01*
Y554926D01*
X349074Y583926D02*
X357265D01*
X348000Y585000D02*
X350926Y587926D01*
X357265D01*
X348000Y578000D02*
X350074Y575926D01*
X357265D01*
X348000Y578000D02*
X349926Y579926D01*
X357265D01*
X348000Y571000D02*
X348926Y571926D01*
X357265D01*
X362926Y575926D02*
X365000Y578000D01*
X357265Y575926D02*
X362926D01*
X363074Y579926D02*
X365000Y578000D01*
X357265Y579926D02*
X363074D01*
X362926Y583926D02*
X365000Y586000D01*
X357265Y583926D02*
X362926D01*
X363074Y587926D02*
X365000Y586000D01*
X357265Y587926D02*
X363074D01*
X364074Y607926D02*
X366000Y606000D01*
X357265Y603926D02*
X363926D01*
X366000Y606000D01*
X357265Y607926D02*
X364074D01*
X319265Y587926D02*
X324965D01*
X327891Y585000D01*
X328000D01*
X311436Y565925D02*
X313436Y567926D01*
X311436Y565664D02*
Y565925D01*
Y565664D02*
X313174Y563926D01*
X326015Y567926D02*
X328000Y569910D01*
Y571000D01*
X327926Y563926D02*
X328000Y564000D01*
X112500Y630500D02*
X119500D01*
X122000Y628000D01*
X351465Y591926D02*
X357265D01*
X348391Y595000D02*
X351465Y591926D01*
X348000Y595000D02*
X348391D01*
X319265Y591926D02*
X325065D01*
X328140Y595000D01*
X328329D01*
X115338Y626500D02*
X119838Y622000D01*
X125000D01*
X112500Y626500D02*
X115338D01*
X106000Y596000D02*
Y620000D01*
X87000Y587000D02*
X102000Y602000D01*
X87000Y602000D02*
X94000Y609000D01*
Y620000D01*
X66000Y602000D02*
X87000D01*
X68000Y584750D02*
X73625Y590375D01*
X98000Y606000D02*
Y620000D01*
X73625Y590375D02*
X82375D01*
X98000Y606000D01*
X88000Y612000D02*
X90000Y614000D01*
Y620000D01*
X90000Y620000D01*
X102000Y602000D02*
Y620000D01*
X112500Y638500D02*
X118500D01*
X115000Y575450D02*
Y587000D01*
X106000Y596000D02*
X115000Y587000D01*
Y575450D02*
X120600Y569850D01*
X68000Y552000D02*
Y584750D01*
X87000Y584000D02*
Y587000D01*
X80600Y569850D02*
Y577600D01*
X87000Y584000D01*
X68000Y552000D02*
X72000Y548000D01*
X98000D01*
X100600Y550600D01*
Y569850D01*
X149000Y513000D02*
X151000Y515000D01*
X149000Y506962D02*
Y513000D01*
X169000Y506962D02*
Y513000D01*
X149000Y471000D02*
Y477038D01*
X516937Y688813D02*
X518438D01*
X520312Y690688D01*
Y700688D01*
X522313Y702688D01*
D13*
X51000Y662000D02*
X72000Y683000D01*
X82000D02*
X91000Y674000D01*
X72000Y683000D02*
X82000D01*
X51000Y474000D02*
Y662000D01*
Y474000D02*
X61000Y464000D01*
X189000Y188000D02*
Y278000D01*
X168000Y299000D02*
X189000Y278000D01*
X168000Y299000D02*
Y312000D01*
X157500Y322500D02*
X168000Y312000D01*
X158000Y300000D02*
X185000Y273000D01*
Y183776D02*
Y273000D01*
X158000Y300000D02*
Y306500D01*
X118428Y295572D02*
X143000Y271000D01*
Y263000D02*
Y271000D01*
X118428Y295572D02*
Y381572D01*
X132250Y307000D02*
X138500D01*
X124000Y315250D02*
Y323000D01*
Y315250D02*
X132250Y307000D01*
X83000Y753000D02*
X114500D01*
X163500Y539500D02*
Y704000D01*
X114500Y753000D02*
X163500Y704000D01*
X540500Y45000D02*
X555500Y60000D01*
X382000Y75000D02*
X412000Y45000D01*
X540500D01*
X100000Y400000D02*
X118428Y381572D01*
X80000Y400000D02*
X100000D01*
X61000Y419000D02*
X80000Y400000D01*
X257500Y438500D02*
Y495000D01*
X223178Y404178D02*
X257500Y438500D01*
X368500Y507500D02*
X381000Y495000D01*
X318700Y503800D02*
Y510000D01*
Y503800D02*
X332500Y490000D01*
X357500D01*
X367500Y500000D01*
X360000Y507500D02*
Y515000D01*
X374240Y529240D02*
Y585818D01*
X360000Y515000D02*
X374240Y529240D01*
X370000Y530000D02*
Y565000D01*
X352000Y501000D02*
Y512000D01*
X370000Y530000D01*
X360000Y499000D02*
Y507500D01*
X355000Y494000D02*
X360000Y499000D01*
Y507500D02*
X368500D01*
X173000Y500000D02*
Y517000D01*
X148000Y542000D02*
X173000Y517000D01*
X155000Y541000D02*
X177000Y519000D01*
Y503000D02*
Y519000D01*
X163500Y539500D02*
X181000Y522000D01*
Y508000D02*
Y522000D01*
X177000Y503000D02*
X182826Y497174D01*
X181000Y508000D02*
X187000Y502000D01*
X310000Y673000D02*
X317000Y680000D01*
X310000Y670000D02*
Y673000D01*
X300000Y660000D02*
X310000Y670000D01*
X328356Y674355D02*
X344356D01*
X299000Y651000D02*
X305000D01*
X328356Y674355D01*
X344356D02*
X351000Y681000D01*
X213750Y278750D02*
X214000Y279000D01*
Y313000D01*
X219000Y264000D02*
Y364726D01*
X172500Y239500D02*
Y277500D01*
Y239500D02*
X176000Y236000D01*
X198500Y324000D02*
Y331000D01*
Y324000D02*
X205500Y317000D01*
X210000D01*
X214000Y313000D01*
X223178Y258178D02*
Y404178D01*
X198500Y299000D02*
X205000Y292500D01*
X198500Y299000D02*
Y307000D01*
X170000Y327500D02*
Y335000D01*
Y327500D02*
X180326Y317174D01*
X194826D01*
X198500Y313500D01*
X137500Y317500D02*
X154500D01*
X157500Y314500D01*
Y322500D02*
Y331000D01*
X157715Y331215D02*
Y332715D01*
X167500Y342500D01*
X338265Y574276D02*
X344265Y568276D01*
Y554926D02*
Y568276D01*
X65000Y710000D02*
X77000D01*
X64500Y710500D02*
X65000Y710000D01*
X64500Y710500D02*
Y726472D01*
X33000Y710000D02*
X45000D01*
X45500Y710500D01*
Y726472D01*
X91000Y661639D02*
Y674000D01*
X98000Y649000D02*
Y654000D01*
X91000Y661000D02*
X98000Y654000D01*
X187000Y502000D02*
X233000D01*
X182826Y480826D02*
Y497174D01*
X173000Y500000D02*
X178000Y495000D01*
X155000Y541000D02*
Y624000D01*
X148000Y542000D02*
Y631000D01*
X340000Y494000D02*
X355000D01*
X381000Y495000D02*
X467000D01*
X331400Y502600D02*
X340000Y494000D01*
X385000Y500000D02*
X461000D01*
X372000Y513000D02*
X385000Y500000D01*
X378000Y519000D02*
Y588000D01*
X372000Y513000D02*
X378000Y519000D01*
X367000Y568000D02*
X370000Y565000D01*
X357265Y567926D02*
X366926D01*
X367000Y568000D01*
X364132Y595926D02*
X374240Y585818D01*
X366074Y599926D02*
X378000Y588000D01*
X331400Y502600D02*
Y510000D01*
X306000D02*
Y529000D01*
X318700Y447300D02*
X319000Y447000D01*
X318700Y447300D02*
Y461000D01*
X306000Y447000D02*
Y461000D01*
X293000Y447000D02*
X293300Y447300D01*
Y461000D01*
X357265Y599926D02*
X366074D01*
X357265Y595926D02*
X364132D01*
X361074Y563926D02*
X365000Y560000D01*
X357265Y563926D02*
X361074D01*
X357000Y547000D02*
X361000Y543000D01*
X344000Y547000D02*
X357000D01*
X337132Y542868D02*
X343000Y537000D01*
X337132Y542868D02*
Y545868D01*
X328840Y544840D02*
X329000Y545000D01*
X325000Y537000D02*
X328840Y540840D01*
Y544840D01*
X329000Y545000D02*
X329250D01*
X332265Y548015D01*
X340265Y550735D02*
X344000Y547000D01*
X336265Y546735D02*
X337132Y545868D01*
X340265Y550735D02*
Y554926D01*
X336265Y546735D02*
Y554926D01*
X348000Y564000D02*
X348265Y563735D01*
Y554926D02*
Y563735D01*
X332265Y548015D02*
Y554926D01*
X461000Y500000D02*
X483000Y522000D01*
X467000Y495000D02*
X495000Y523000D01*
X483000Y522000D02*
Y654000D01*
X495000Y523000D02*
Y660000D01*
X499688Y664688D01*
X483000Y654000D02*
X497688Y668688D01*
X517313D01*
X509375Y660375D02*
X520000D01*
X507000Y658000D02*
X509375Y660375D01*
X501000Y658000D02*
X507000D01*
X499688Y664688D02*
X517313D01*
X83000Y661000D02*
X90000Y654000D01*
Y649000D02*
Y654000D01*
X78500Y642500D02*
X83500D01*
X76000Y645000D02*
X78500Y642500D01*
X67000Y645000D02*
X76000D01*
X67000Y658000D02*
X70000Y661000D01*
X67000Y645000D02*
Y658000D01*
X76000Y637000D02*
X78500Y634500D01*
X83500D01*
X76000Y628000D02*
X78500Y630500D01*
X83500D01*
X175000Y473000D02*
X182826Y480826D01*
X82472Y753528D02*
X83000Y753000D01*
X64500Y753528D02*
X82472D01*
X317000Y680000D02*
X320261Y683261D01*
X328261D01*
X335000Y690000D01*
X169000Y459000D02*
X174015D01*
X157000Y471000D02*
Y477038D01*
Y471000D02*
X169000Y459000D01*
X167000Y465000D02*
X170000D01*
X161000Y471000D02*
X167000Y465000D01*
X161000Y471000D02*
Y477038D01*
X174015Y459000D02*
X177015Y462000D01*
X178000D01*
X170000Y465000D02*
X170951D01*
X180762Y467762D02*
X188000Y475000D01*
X173713Y467762D02*
X180762D01*
X170951Y465000D02*
X173713Y467762D01*
X178000Y482825D02*
Y495000D01*
X172213Y477038D02*
X178000Y482825D01*
X169000Y477038D02*
X172213D01*
X167000Y470000D02*
X172000D01*
X175000Y473000D01*
X61000Y419000D02*
Y464000D01*
X178000Y440000D02*
Y450000D01*
Y440000D02*
X179000Y439000D01*
X160000Y455000D02*
X165000Y450000D01*
Y443000D02*
Y450000D01*
X165000Y472000D02*
X167000Y470000D01*
X214000Y249000D02*
X223178Y258178D01*
X219000Y364726D02*
X219032Y364758D01*
X252000Y438000D02*
Y483000D01*
X219032Y405032D02*
X252000Y438000D01*
X233000Y502000D02*
X252000Y483000D01*
X219032Y364758D02*
Y405032D01*
X165000Y472000D02*
Y477038D01*
X178000Y438000D02*
X179000Y439000D01*
X165000Y438000D02*
X178000D01*
X259000Y177000D02*
X285000Y151000D01*
X259000Y177000D02*
Y216000D01*
X193000Y263000D02*
X196000Y266000D01*
X193000Y191000D02*
Y263000D01*
X201000Y257000D02*
Y276000D01*
X157000Y251000D02*
X164000Y258000D01*
X157000Y179000D02*
Y251000D01*
X136000Y264000D02*
X143000Y257000D01*
Y191000D02*
Y257000D01*
X147000Y190000D02*
Y259000D01*
X143000Y263000D02*
X147000Y259000D01*
X136000Y173000D02*
X152000Y189000D01*
Y263000D01*
X189000Y288000D02*
X201000Y276000D01*
X230000Y296000D02*
X230000Y296000D01*
Y304000D01*
X94000Y22000D02*
Y27000D01*
X102000Y14000D02*
X225000D01*
X94000Y22000D02*
X102000Y14000D01*
X225000D02*
X266000Y55000D01*
X107159Y17792D02*
X222792D01*
X110206Y23794D02*
X113414Y20586D01*
X219586D01*
X257000Y58000D01*
X222792Y17792D02*
X262000Y57000D01*
X100000Y24951D02*
X107159Y17792D01*
X111380Y26844D02*
X113844Y24380D01*
X180844D02*
X218380D01*
X151158D02*
X180844D01*
X218380D02*
X253000Y59000D01*
X113844Y24380D02*
X151158D01*
X266000Y55000D02*
Y90000D01*
X285000Y109000D02*
Y151000D01*
X266000Y90000D02*
X285000Y109000D01*
X75000Y106000D02*
X126000Y157000D01*
X71000Y86000D02*
X75000Y90000D01*
Y106000D01*
X132000Y175000D02*
X147000Y190000D01*
X126000Y174000D02*
X143000Y191000D01*
X157500Y307000D02*
X158000Y306500D01*
X138000Y298000D02*
Y306500D01*
X157500Y307000D02*
Y314500D01*
X230000Y304000D02*
X235000Y309000D01*
X78620Y103291D02*
X132000Y156671D01*
X78620Y88620D02*
Y103291D01*
X205000Y250000D02*
X219000Y264000D01*
X198500Y339500D02*
X199000Y340000D01*
X198500Y331000D02*
Y339500D01*
X205000Y255000D02*
Y282000D01*
X201000Y251000D02*
X205000Y255000D01*
X185000Y183776D02*
X188412Y180364D01*
X157500Y331000D02*
X157715Y331215D01*
X195000Y358000D02*
X201000D01*
X179500Y342500D02*
X195000Y358000D01*
X179500Y331000D02*
Y342500D01*
X198500Y307000D02*
Y313500D01*
X197000Y253000D02*
X201000Y257000D01*
X135000Y334500D02*
X138500Y331000D01*
X135000Y334500D02*
Y341000D01*
X197000Y194745D02*
Y253000D01*
X201000Y196794D02*
Y251000D01*
X205000Y199588D02*
Y250000D01*
X151000Y173000D02*
X157000Y179000D01*
X263000Y297000D02*
X272000D01*
X272180Y296820D01*
X286005D01*
X365505D01*
X224000Y192000D02*
Y197000D01*
Y89000D02*
Y192000D01*
X354000Y171000D02*
Y186000D01*
X360000Y192000D01*
X355000Y197000D02*
X368000D01*
X347000Y189000D02*
X355000Y197000D01*
X347000Y168000D02*
Y189000D01*
X431000Y180000D02*
Y180000D01*
X431500Y180500D02*
X435999Y185000D01*
X426000Y132000D02*
X470000D01*
X331000Y90000D02*
X342658Y78342D01*
X344000Y156000D02*
X344000Y156000D01*
X354000D01*
X347000Y168000D02*
X349000Y166000D01*
X354000D01*
X382000Y75000D02*
Y93000D01*
X399500Y138500D02*
X403000D01*
X379908Y151000D02*
X387000D01*
X399500Y138500D01*
Y163500D02*
X403000D01*
X392000Y156000D02*
X399500Y163500D01*
X379908Y156000D02*
X392000D01*
X331000Y170000D02*
X335000Y174000D01*
X331000Y90000D02*
Y170000D01*
X326000Y100000D02*
Y175000D01*
X302658Y76658D02*
X326000Y100000D01*
X314000Y155000D02*
Y172000D01*
X187000Y155000D02*
Y159000D01*
X174000Y156000D02*
Y215000D01*
X163618Y145618D02*
X174000Y156000D01*
Y215000D02*
X179000Y220000D01*
X555500Y60000D02*
X578000D01*
X586000Y52000D01*
X342658Y59750D02*
Y78342D01*
X302658Y59750D02*
Y76658D01*
X396000Y177000D02*
Y182000D01*
X385000Y166000D02*
X396000Y177000D01*
X379908Y166000D02*
X385000D01*
X209000Y212000D02*
Y243450D01*
X214000Y248450D01*
Y249000D01*
X209000Y212000D02*
X224000Y197000D01*
X229000Y72000D02*
Y227000D01*
X233000Y68000D02*
Y204000D01*
X236000Y207000D01*
X205000Y199588D02*
X214000Y190588D01*
X189437Y133437D02*
Y152563D01*
X187000Y155000D02*
X189437Y152563D01*
X201000Y196794D02*
X209794Y188000D01*
X197000Y194745D02*
X205843Y185903D01*
X193000Y191000D02*
X202000Y182000D01*
X189000Y188000D02*
X198000Y179000D01*
X188412Y180364D02*
X194000Y174776D01*
Y132000D02*
Y174776D01*
X198000Y129000D02*
Y179000D01*
X202000Y125000D02*
Y182000D01*
X205843Y120950D02*
Y185903D01*
X209794Y111794D02*
Y188000D01*
X213000Y201000D02*
X218000Y196000D01*
X220000Y55000D02*
X233000Y68000D01*
X220000Y63000D02*
X229000Y72000D01*
X216000Y80000D02*
Y90000D01*
Y80000D02*
X222000Y74000D01*
X216000Y90000D02*
X218000Y92000D01*
Y196000D01*
X210000Y93000D02*
X214000Y97000D01*
Y190588D01*
X221000Y86000D02*
X224000Y89000D01*
X193000Y95000D02*
X209794Y111794D01*
X210000Y81000D02*
Y93000D01*
X158000Y81000D02*
X202000Y125000D01*
X184000Y99108D02*
X205843Y120950D01*
X151000Y160000D02*
Y173000D01*
X170000Y178000D02*
Y216000D01*
X159000Y152000D02*
Y167000D01*
X170000Y178000D01*
Y216000D02*
X176000Y222000D01*
Y236000D01*
X179000Y220000D02*
Y242000D01*
X139000Y30000D02*
X158000Y49000D01*
X119000Y30000D02*
X139000D01*
X153000Y31000D02*
X184000Y62000D01*
Y99108D01*
X158000Y49000D02*
Y81000D01*
X126000Y157000D02*
Y174000D01*
X132000Y156671D02*
Y175000D01*
X136000Y152000D02*
Y173000D01*
X84000Y100000D02*
X136000Y152000D01*
X91500Y100500D02*
X151000Y160000D01*
X102500Y100500D02*
X155000Y153000D01*
Y169146D01*
X113500Y100500D02*
Y106500D01*
X159000Y152000D01*
X155000Y169146D02*
X164049Y178195D01*
Y192951D01*
X161174Y137174D02*
X179000Y155000D01*
Y187000D01*
X125000Y100000D02*
Y107000D01*
X163618Y145618D01*
X133000Y82000D02*
Y109000D01*
X161174Y137174D01*
X148000Y79000D02*
X198000Y129000D01*
X142000Y80000D02*
X194000Y132000D01*
X148000Y47000D02*
Y79000D01*
X139206Y83206D02*
X189437Y133437D01*
X193000Y37000D02*
Y95000D01*
X179000Y187000D02*
Y212000D01*
X262000Y96000D02*
X275000Y109000D01*
X262000Y57000D02*
Y96000D01*
X257000Y100000D02*
X279000Y122000D01*
Y142000D01*
X257000Y58000D02*
Y100000D01*
X111380Y26844D02*
Y30929D01*
X103268Y36000D02*
X106309D01*
X111380Y30929D01*
X253000Y59000D02*
Y108000D01*
X260000Y115000D01*
X147000Y101000D02*
X180000Y134000D01*
X141000Y101000D02*
X147000D01*
X71000Y78000D02*
Y86000D01*
Y78000D02*
X76000Y73000D01*
Y82000D02*
Y86000D01*
X78620Y88620D01*
X139206Y67206D02*
Y83206D01*
X135000Y63000D02*
X139206Y67206D01*
X135000Y56000D02*
Y63000D01*
X603245Y52000D02*
X603745Y52500D01*
X586000Y52000D02*
X603245D01*
X164000Y193000D02*
X164049Y192951D01*
X313750Y172250D02*
X314000Y172000D01*
X313750Y172250D02*
Y186000D01*
X80175Y36000D02*
X103268D01*
X84000Y33000D02*
X98000D01*
X100000Y24951D02*
Y31000D01*
X98000Y33000D02*
X100000Y31000D01*
X81000Y30000D02*
X84000Y33000D01*
X75000Y30825D02*
X80175Y36000D01*
X75000Y25000D02*
Y30825D01*
X106000Y28000D02*
X110206Y23794D01*
X142000Y61000D02*
Y80000D01*
X186000Y30000D02*
X193000Y37000D01*
X186000Y30000D02*
X186000D01*
X514000Y637375D02*
X518312Y641688D01*
X514000Y637000D02*
Y637375D01*
X515000Y625000D02*
X521863Y631863D01*
X522313D01*
X524313Y651787D02*
Y656188D01*
X511000Y646000D02*
X518526D01*
Y646000D02*
X524313Y651787D01*
X518526Y646000D02*
Y646000D01*
X518312Y641688D02*
X528312Y651688D01*
X522313Y720688D02*
X525312Y723688D01*
X517313Y720688D02*
X522313D01*
X536312Y693688D02*
Y696688D01*
X552625Y688375D02*
Y697000D01*
X556437Y700813D01*
X528312Y651688D02*
Y655938D01*
X552625Y652930D02*
Y660875D01*
Y652930D02*
X557867Y647688D01*
X558312D01*
X536312Y645863D02*
Y655688D01*
X522313Y631863D02*
X536312Y645863D01*
X525312Y723688D02*
X527313Y721688D01*
Y705688D02*
X536312Y696688D01*
X527313Y705688D02*
Y721688D01*
X391499Y359501D02*
X393000Y358000D01*
X387500Y359501D02*
X391499D01*
X393000Y353000D02*
Y358000D01*
D15*
X293460Y681052D02*
Y709052D01*
X296000Y680000D02*
Y708000D01*
X276000Y443000D02*
Y660000D01*
X273460Y661052D02*
X293460Y681052D01*
X273460Y444052D02*
Y661052D01*
X276000Y660000D02*
X296000Y680000D01*
X293460Y709052D02*
X299948Y715540D01*
X296000Y708000D02*
X301000Y713000D01*
X327540Y698460D02*
X330000Y696000D01*
X202000Y52000D02*
X204730Y49270D01*
X224678D01*
X240522Y65114D01*
Y150522D01*
X229460Y349948D02*
Y400052D01*
Y349948D02*
X249000Y330408D01*
X240522Y150522D02*
X249000Y159000D01*
Y330408D01*
X321700Y721000D02*
X333000Y709700D01*
Y699000D02*
Y709700D01*
X330000Y696000D02*
X333000Y699000D01*
X299948Y715540D02*
X318052D01*
X327540Y706052D01*
Y698460D02*
Y706052D01*
X229460Y400052D02*
X273460Y444052D01*
X322000Y696000D02*
X325000Y699000D01*
X202000Y44000D02*
X204730Y46730D01*
X225730D01*
X243062Y64062D01*
Y149470D01*
X251540Y157948D02*
Y331460D01*
X232000Y351000D02*
Y399000D01*
Y351000D02*
X251540Y331460D01*
X243062Y149470D02*
X251540Y157948D01*
X301000Y713000D02*
X317000D01*
X325000Y705000D01*
Y699000D02*
Y705000D01*
X232000Y399000D02*
X276000Y443000D01*
X303000Y608000D02*
X306161Y604839D01*
X312000Y591000D02*
Y593206D01*
X314720Y595926D01*
X319265D01*
X305191Y591000D02*
X312000D01*
X303265Y592926D02*
X305191Y591000D01*
X307161Y604839D02*
X312074Y599926D01*
X306161Y604839D02*
X307161D01*
X312074Y599926D02*
X319265D01*
D18*
X25804Y-253910D02*
Y-228519D01*
X38500D01*
X42732Y-232750D01*
Y-241215D01*
X38500Y-245446D01*
X25804D01*
X51196Y-253910D02*
Y-228519D01*
X63892D01*
X68124Y-232750D01*
Y-241215D01*
X63892Y-245446D01*
X51196D01*
X59660D02*
X68124Y-253910D01*
X76588Y-228519D02*
X85052D01*
X80820D01*
Y-253910D01*
X76588D01*
X85052D01*
X97748D02*
Y-228519D01*
X106212Y-236982D01*
X114676Y-228519D01*
Y-253910D01*
X123139D02*
Y-236982D01*
X131603Y-228519D01*
X140067Y-236982D01*
Y-253910D01*
Y-241215D01*
X123139D01*
X148531Y-253910D02*
Y-228519D01*
X161227D01*
X165459Y-232750D01*
Y-241215D01*
X161227Y-245446D01*
X148531D01*
X156995D02*
X165459Y-253910D01*
X173923Y-228519D02*
Y-232750D01*
X182387Y-241215D01*
X190851Y-232750D01*
Y-228519D01*
X182387Y-241215D02*
Y-253910D01*
X241634Y-232750D02*
X237402Y-228519D01*
X228939D01*
X224707Y-232750D01*
Y-236982D01*
X228939Y-241215D01*
X237402D01*
X241634Y-245446D01*
Y-249678D01*
X237402Y-253910D01*
X228939D01*
X224707Y-249678D01*
X250098Y-228519D02*
X258562D01*
X254330D01*
Y-253910D01*
X250098D01*
X258562D01*
X271258Y-228519D02*
Y-253910D01*
X283954D01*
X288186Y-249678D01*
Y-232750D01*
X283954Y-228519D01*
X271258D01*
X313578D02*
X296650D01*
Y-253910D01*
X313578D01*
X296650Y-241215D02*
X305114D01*
X347434D02*
X364361D01*
X398217Y-228519D02*
Y-253910D01*
X415145D01*
X423609D02*
Y-236982D01*
X432073Y-228519D01*
X440537Y-236982D01*
Y-253910D01*
Y-241215D01*
X423609D01*
X449001Y-228519D02*
Y-232750D01*
X457465Y-241215D01*
X465929Y-232750D01*
Y-228519D01*
X457465Y-241215D02*
Y-253910D01*
X491320Y-228519D02*
X474393D01*
Y-253910D01*
X491320D01*
X474393Y-241215D02*
X482856D01*
X499784Y-253910D02*
Y-228519D01*
X512480D01*
X516712Y-232750D01*
Y-241215D01*
X512480Y-245446D01*
X499784D01*
X508248D02*
X516712Y-253910D01*
X550568D02*
X559032D01*
X554800D01*
Y-228519D01*
X550568Y-232750D01*
X40860Y-78511D02*
X32396D01*
X28164Y-82743D01*
Y-99670D01*
X32396Y-103902D01*
X40860D01*
X45092Y-99670D01*
Y-82743D01*
X40860Y-78511D01*
X53556D02*
Y-103902D01*
X66252D01*
X70484Y-99670D01*
Y-82743D01*
X66252Y-78511D01*
X53556D01*
X78948D02*
X87412D01*
X83180D01*
Y-103902D01*
X78948D01*
X87412D01*
X117036Y-82743D02*
X112803Y-78511D01*
X104340D01*
X100108Y-82743D01*
Y-99670D01*
X104340Y-103902D01*
X112803D01*
X117036Y-99670D01*
X129731Y-108134D02*
X133963Y-103902D01*
Y-99670D01*
X129731D01*
Y-103902D01*
X133963D01*
X129731Y-108134D01*
X125499Y-112366D01*
X176283Y-78511D02*
X184747D01*
X180515D01*
Y-103902D01*
X176283D01*
X184747D01*
X197443D02*
Y-78511D01*
X214371Y-103902D01*
Y-78511D01*
X239762Y-82743D02*
X235530Y-78511D01*
X227067D01*
X222835Y-82743D01*
Y-99670D01*
X227067Y-103902D01*
X235530D01*
X239762Y-99670D01*
X248226Y-103902D02*
Y-99670D01*
X252458D01*
Y-103902D01*
X248226D01*
X42345Y-129868D02*
X38114Y-125636D01*
X29650D01*
X25418Y-129868D01*
Y-146796D01*
X29650Y-151028D01*
X38114D01*
X42345Y-146796D01*
Y-138332D01*
X33882D01*
X50809Y-125636D02*
Y-151028D01*
Y-138332D01*
X67737D01*
Y-125636D01*
Y-151028D01*
X76201Y-125636D02*
Y-151028D01*
X93129D01*
X126985D02*
Y-125636D01*
X143913Y-151028D01*
Y-125636D01*
X152377Y-151028D02*
Y-134100D01*
X160841Y-125636D01*
X169305Y-134100D01*
Y-151028D01*
Y-138332D01*
X152377D01*
X177768Y-151028D02*
Y-134100D01*
X186232Y-125636D01*
X194696Y-134100D01*
Y-151028D01*
Y-138332D01*
X177768D01*
X203160Y-125636D02*
X220088D01*
X211624D01*
Y-151028D01*
X241248Y-125636D02*
X232784D01*
X228552Y-129868D01*
Y-146796D01*
X232784Y-151028D01*
X241248D01*
X245480Y-146796D01*
Y-129868D01*
X241248Y-125636D01*
X270872Y-129868D02*
X266640Y-125636D01*
X258176D01*
X253944Y-129868D01*
Y-134100D01*
X258176Y-138332D01*
X266640D01*
X270872Y-142564D01*
Y-146796D01*
X266640Y-151028D01*
X258176D01*
X253944Y-146796D01*
X321655Y-129868D02*
X317423Y-125636D01*
X308959D01*
X304727Y-129868D01*
Y-134100D01*
X308959Y-138332D01*
X317423D01*
X321655Y-142564D01*
Y-146796D01*
X317423Y-151028D01*
X308959D01*
X304727Y-146796D01*
X334351Y-134100D02*
X342815D01*
X347047Y-138332D01*
Y-151028D01*
X334351D01*
X330119Y-146796D01*
X334351Y-142564D01*
X347047D01*
X355511Y-151028D02*
Y-134100D01*
X359743D01*
X363975Y-138332D01*
Y-151028D01*
Y-138332D01*
X368207Y-134100D01*
X372439Y-138332D01*
Y-151028D01*
X380903Y-159492D02*
Y-134100D01*
X393599D01*
X397831Y-138332D01*
Y-146796D01*
X393599Y-151028D01*
X380903D01*
X406295D02*
X414759D01*
X410527D01*
Y-125636D01*
X406295D01*
X440150Y-151028D02*
X431686D01*
X427454Y-146796D01*
Y-138332D01*
X431686Y-134100D01*
X440150D01*
X444382Y-138332D01*
Y-142564D01*
X427454D01*
X478238Y-151028D02*
Y-125636D01*
X490934D01*
X495166Y-129868D01*
Y-138332D01*
X490934Y-142564D01*
X478238D01*
X503630Y-134100D02*
Y-151028D01*
Y-142564D01*
X507862Y-138332D01*
X512094Y-134100D01*
X516326D01*
X541717Y-151028D02*
X533254D01*
X529022Y-146796D01*
Y-138332D01*
X533254Y-134100D01*
X541717D01*
X545950Y-138332D01*
Y-142564D01*
X529022D01*
X554413Y-159492D02*
Y-134100D01*
X567109D01*
X571341Y-138332D01*
Y-146796D01*
X567109Y-151028D01*
X554413D01*
X605197D02*
Y-125636D01*
X613661Y-134100D01*
X622125Y-125636D01*
Y-151028D01*
X634821Y-134100D02*
X643285D01*
X647517Y-138332D01*
Y-151028D01*
X634821D01*
X630589Y-146796D01*
X634821Y-142564D01*
X647517D01*
X655981Y-151028D02*
X664445D01*
X660213D01*
Y-134100D01*
X655981D01*
X677140Y-151028D02*
Y-134100D01*
X689836D01*
X694068Y-138332D01*
Y-151028D01*
X727924Y-125636D02*
Y-151028D01*
X740620D01*
X744852Y-146796D01*
Y-142564D01*
X740620Y-138332D01*
X727924D01*
X740620D01*
X744852Y-134100D01*
Y-129868D01*
X740620Y-125636D01*
X727924D01*
X757548Y-151028D02*
X766012D01*
X770244Y-146796D01*
Y-138332D01*
X766012Y-134100D01*
X757548D01*
X753316Y-138332D01*
Y-146796D01*
X757548Y-151028D01*
X782940Y-134100D02*
X791404D01*
X795636Y-138332D01*
Y-151028D01*
X782940D01*
X778708Y-146796D01*
X782940Y-142564D01*
X795636D01*
X804099Y-134100D02*
Y-151028D01*
Y-142564D01*
X808331Y-138332D01*
X812563Y-134100D01*
X816795D01*
X846419Y-125636D02*
Y-151028D01*
X833723D01*
X829491Y-146796D01*
Y-138332D01*
X833723Y-134100D01*
X846419D01*
X42732Y-203110D02*
X25804D01*
X42732Y-186182D01*
Y-181950D01*
X38500Y-177719D01*
X30036D01*
X25804Y-181950D01*
X68124Y-177719D02*
X59660Y-181950D01*
X51196Y-190415D01*
Y-198878D01*
X55428Y-203110D01*
X63892D01*
X68124Y-198878D01*
Y-194646D01*
X63892Y-190415D01*
X51196D01*
X76588Y-181950D02*
X80820Y-177719D01*
X89284D01*
X93516Y-181950D01*
Y-186182D01*
X89284Y-190415D01*
X85052D01*
X89284D01*
X93516Y-194646D01*
Y-198878D01*
X89284Y-203110D01*
X80820D01*
X76588Y-198878D01*
X101980Y-190415D02*
X118907D01*
X127371Y-181950D02*
X131603Y-177719D01*
X140067D01*
X144299Y-181950D01*
Y-198878D01*
X140067Y-203110D01*
X131603D01*
X127371Y-198878D01*
Y-181950D01*
X152763D02*
X156995Y-177719D01*
X165459D01*
X169691Y-181950D01*
Y-186182D01*
X165459Y-190415D01*
X161227D01*
X165459D01*
X169691Y-194646D01*
Y-198878D01*
X165459Y-203110D01*
X156995D01*
X152763Y-198878D01*
X178155Y-190415D02*
X195083D01*
X203547Y-181950D02*
X207779Y-177719D01*
X216243D01*
X220475Y-181950D01*
Y-198878D01*
X216243Y-203110D01*
X207779D01*
X203547Y-198878D01*
Y-181950D01*
X228939D02*
X233171Y-177719D01*
X241634D01*
X245866Y-181950D01*
Y-198878D01*
X241634Y-203110D01*
X233171D01*
X228939Y-198878D01*
Y-181950D01*
X254330Y-203110D02*
X262794D01*
X258562D01*
Y-177719D01*
X254330Y-181950D01*
X326274Y-203110D02*
Y-177719D01*
X338970D01*
X343202Y-181950D01*
Y-190415D01*
X338970Y-194646D01*
X326274D01*
X334738D02*
X343202Y-203110D01*
X368593Y-177719D02*
X351666D01*
Y-203110D01*
X368593D01*
X351666Y-190415D02*
X360130D01*
X377057Y-177719D02*
Y-194646D01*
X385521Y-203110D01*
X393985Y-194646D01*
Y-177719D01*
X427841Y-203110D02*
Y-186182D01*
X436305Y-177719D01*
X444769Y-186182D01*
Y-203110D01*
Y-190415D01*
X427841D01*
D20*
X138500Y331000D02*
D03*
X148000D02*
D03*
X157500D02*
D03*
Y307000D02*
D03*
X148000D02*
D03*
X138500D02*
D03*
X179500Y331000D02*
D03*
X189000D02*
D03*
X198500D02*
D03*
Y307000D02*
D03*
X189000D02*
D03*
X179500D02*
D03*
D21*
X275000Y699750D02*
D03*
Y680250D02*
D03*
X281500Y699750D02*
D03*
Y680250D02*
D03*
X268500Y699750D02*
D03*
Y680250D02*
D03*
D22*
X275000Y690000D02*
D03*
D23*
X306000Y510000D02*
D03*
X318700D02*
D03*
X306000Y461000D02*
D03*
X318700D02*
D03*
X293300Y510000D02*
D03*
X331400D02*
D03*
X293300Y461000D02*
D03*
X331400D02*
D03*
D24*
X306000Y529000D02*
D03*
X296000D02*
D03*
X312000Y545000D02*
D03*
X302000D02*
D03*
X370000Y621000D02*
D03*
X360000D02*
D03*
X303265Y592926D02*
D03*
X293265D02*
D03*
X178000Y462000D02*
D03*
X188000D02*
D03*
X162000Y353000D02*
D03*
X172000D02*
D03*
X150000Y455000D02*
D03*
X160000D02*
D03*
X396000Y182000D02*
D03*
X406000D02*
D03*
X354000Y137000D02*
D03*
X364000D02*
D03*
X403000Y109000D02*
D03*
X393000D02*
D03*
X352000Y705000D02*
D03*
X342000D02*
D03*
X304000Y706000D02*
D03*
X314000D02*
D03*
X550312Y638688D02*
D03*
X540312D02*
D03*
X525312Y723688D02*
D03*
X535312D02*
D03*
X293250Y558000D02*
D03*
X303250D02*
D03*
X302000Y690000D02*
D03*
X312000D02*
D03*
X354000D02*
D03*
X344000D02*
D03*
X293265Y607926D02*
D03*
X303265D02*
D03*
X316000Y362000D02*
D03*
X306000D02*
D03*
X593000Y487500D02*
D03*
X603000D02*
D03*
X570000D02*
D03*
X580000D02*
D03*
X304000Y172000D02*
D03*
X314000D02*
D03*
X586000Y52000D02*
D03*
X576000D02*
D03*
X535312Y711688D02*
D03*
X545312D02*
D03*
X178000Y450000D02*
D03*
X188000D02*
D03*
D25*
X361000Y543000D02*
D03*
Y533000D02*
D03*
X67000Y645000D02*
D03*
Y635000D02*
D03*
X83000Y753000D02*
D03*
Y743000D02*
D03*
X188000Y485000D02*
D03*
Y475000D02*
D03*
X230000Y296000D02*
D03*
Y286000D02*
D03*
X243000Y296000D02*
D03*
Y286000D02*
D03*
X263000Y297000D02*
D03*
Y287000D02*
D03*
X512000Y125000D02*
D03*
Y115000D02*
D03*
X205000Y292500D02*
D03*
Y282500D02*
D03*
X214000Y313000D02*
D03*
Y323000D02*
D03*
X151000Y351000D02*
D03*
Y361000D02*
D03*
X124000Y323000D02*
D03*
Y333000D02*
D03*
X537000Y451500D02*
D03*
Y461500D02*
D03*
X33000Y710000D02*
D03*
Y700000D02*
D03*
X65000Y710000D02*
D03*
Y700000D02*
D03*
X343000Y537000D02*
D03*
Y527000D02*
D03*
X325000Y537000D02*
D03*
Y527000D02*
D03*
X45000Y700000D02*
D03*
Y710000D02*
D03*
X77000Y700000D02*
D03*
Y710000D02*
D03*
X342500Y657000D02*
D03*
Y648000D02*
D03*
X333500Y657000D02*
D03*
X407000Y392000D02*
D03*
Y382000D02*
D03*
Y370000D02*
D03*
Y360000D02*
D03*
X328000Y352000D02*
D03*
Y362000D02*
D03*
X379000Y330000D02*
D03*
Y340000D02*
D03*
X550000Y461500D02*
D03*
Y451500D02*
D03*
X407000Y421000D02*
D03*
Y411000D02*
D03*
X341000Y340000D02*
D03*
Y330000D02*
D03*
Y362000D02*
D03*
Y352000D02*
D03*
X355000Y340000D02*
D03*
Y330000D02*
D03*
X387000Y411000D02*
D03*
Y421000D02*
D03*
X348000D02*
D03*
Y411000D02*
D03*
X70000Y671000D02*
D03*
Y661000D02*
D03*
X83000D02*
D03*
Y671000D02*
D03*
X568312Y668688D02*
D03*
Y658688D02*
D03*
Y680688D02*
D03*
Y690688D02*
D03*
X179000Y429000D02*
D03*
Y439000D02*
D03*
D26*
X338265Y599526D02*
D03*
D27*
Y574276D02*
D03*
D28*
X319265Y559926D02*
D03*
Y563926D02*
D03*
Y567926D02*
D03*
Y587926D02*
D03*
Y591926D02*
D03*
Y595926D02*
D03*
Y599926D02*
D03*
Y603926D02*
D03*
Y607926D02*
D03*
X357265D02*
D03*
Y603926D02*
D03*
Y599926D02*
D03*
Y595926D02*
D03*
Y591926D02*
D03*
Y587926D02*
D03*
Y583926D02*
D03*
Y579926D02*
D03*
Y575926D02*
D03*
Y571926D02*
D03*
Y567926D02*
D03*
Y563926D02*
D03*
Y559926D02*
D03*
X112500Y630500D02*
D03*
X83500Y634500D02*
D03*
X112500D02*
D03*
X83500Y638500D02*
D03*
X112500D02*
D03*
X83500Y630500D02*
D03*
Y642500D02*
D03*
X112500D02*
D03*
X83500Y626500D02*
D03*
X112500D02*
D03*
D29*
X320265Y571926D02*
D03*
Y575926D02*
D03*
Y579926D02*
D03*
Y583926D02*
D03*
D30*
X327265Y611926D02*
D03*
X331765D02*
D03*
X336265D02*
D03*
X340265D02*
D03*
X344765D02*
D03*
X349265D02*
D03*
D31*
X348265Y554926D02*
D03*
X344265D02*
D03*
X340265D02*
D03*
X336265D02*
D03*
X332265D02*
D03*
X328265D02*
D03*
X98000Y649000D02*
D03*
Y620000D02*
D03*
X94000Y649000D02*
D03*
X102000D02*
D03*
X94000Y620000D02*
D03*
X102000D02*
D03*
X90000Y649000D02*
D03*
X106000D02*
D03*
X90000Y620000D02*
D03*
X106000D02*
D03*
X548312Y693688D02*
D03*
X544313D02*
D03*
X540312D02*
D03*
X536312D02*
D03*
X532313D02*
D03*
X528312D02*
D03*
X524313D02*
D03*
X536312Y655688D02*
D03*
X540312D02*
D03*
X544313D02*
D03*
X548312D02*
D03*
D32*
X316000Y635000D02*
D03*
X286000D02*
D03*
D33*
X66000Y602000D02*
D03*
Y618000D02*
D03*
X337000Y396000D02*
D03*
Y380000D02*
D03*
X611000Y460500D02*
D03*
Y444500D02*
D03*
D34*
X169000Y506962D02*
D03*
X165000D02*
D03*
X161000D02*
D03*
X157000D02*
D03*
X153000D02*
D03*
X149000D02*
D03*
X145000D02*
D03*
Y477038D02*
D03*
X149000D02*
D03*
X153000D02*
D03*
X157000D02*
D03*
X161000D02*
D03*
X165000D02*
D03*
X169000D02*
D03*
D35*
X157000Y492000D02*
D03*
D36*
X379908Y151000D02*
D03*
Y156000D02*
D03*
Y161000D02*
D03*
Y166000D02*
D03*
Y171000D02*
D03*
X354000D02*
D03*
Y166000D02*
D03*
Y161000D02*
D03*
Y156000D02*
D03*
Y151000D02*
D03*
D37*
X366954Y161000D02*
D03*
D38*
X125500Y406250D02*
D03*
Y412750D02*
D03*
Y419250D02*
D03*
Y425750D02*
D03*
X94500D02*
D03*
Y419250D02*
D03*
Y412750D02*
D03*
Y466750D02*
D03*
Y473250D02*
D03*
Y479750D02*
D03*
X125500D02*
D03*
Y473250D02*
D03*
Y466750D02*
D03*
Y460250D02*
D03*
D39*
X103550Y416000D02*
D03*
Y470000D02*
D03*
D40*
X403000Y138500D02*
D03*
Y163500D02*
D03*
D41*
X369255Y100500D02*
D03*
X603745Y71500D02*
D03*
D42*
X369255Y119500D02*
D03*
X350745Y110000D02*
D03*
X603745Y52500D02*
D03*
X622255Y62000D02*
D03*
D43*
X569000Y445750D02*
D03*
X574000D02*
D03*
X579000D02*
D03*
X584000D02*
D03*
X589000D02*
D03*
Y473750D02*
D03*
X584000D02*
D03*
X579000D02*
D03*
X574000D02*
D03*
X569000D02*
D03*
X363499Y355500D02*
D03*
Y398500D02*
D03*
X378499D02*
D03*
Y355500D02*
D03*
D44*
X614313Y657188D02*
D03*
Y698188D02*
D03*
D45*
X550313Y623688D02*
D03*
X534313D02*
D03*
X106000Y716000D02*
D03*
X122000D02*
D03*
X537000Y756000D02*
D03*
X553000D02*
D03*
X528312Y738688D02*
D03*
X544313D02*
D03*
X589313Y640688D02*
D03*
X573312D02*
D03*
X589313Y622688D02*
D03*
X573312D02*
D03*
X589313Y604688D02*
D03*
X573312D02*
D03*
X590312Y733688D02*
D03*
X574313D02*
D03*
X590312Y716687D02*
D03*
X574313D02*
D03*
X590312Y750687D02*
D03*
X574313D02*
D03*
D46*
X432250Y347000D02*
D03*
X509750D02*
D03*
D47*
X354500Y359501D02*
D03*
Y364501D02*
D03*
Y369501D02*
D03*
Y374501D02*
D03*
Y379501D02*
D03*
Y384501D02*
D03*
Y389501D02*
D03*
Y394501D02*
D03*
X387500D02*
D03*
Y389501D02*
D03*
Y384501D02*
D03*
Y379501D02*
D03*
Y374501D02*
D03*
Y369501D02*
D03*
Y364501D02*
D03*
Y359501D02*
D03*
D48*
X45500Y726472D02*
D03*
X55000D02*
D03*
X64500D02*
D03*
Y753528D02*
D03*
X45500D02*
D03*
X121500Y671472D02*
D03*
X102500D02*
D03*
Y698528D02*
D03*
X112000D02*
D03*
X121500D02*
D03*
D49*
X590000Y416500D02*
D03*
X568000D02*
D03*
D50*
X266000Y357000D02*
D03*
Y339000D02*
D03*
Y379000D02*
D03*
Y397000D02*
D03*
X291000Y379000D02*
D03*
Y397000D02*
D03*
X316000Y379000D02*
D03*
Y397000D02*
D03*
X502436Y405000D02*
D03*
Y423000D02*
D03*
X478436Y405000D02*
D03*
Y423000D02*
D03*
D51*
X294250Y186000D02*
D03*
X300750D02*
D03*
X307250D02*
D03*
X313750D02*
D03*
Y214000D02*
D03*
X307250D02*
D03*
X300750D02*
D03*
X294250D02*
D03*
D52*
X100600Y515850D02*
D03*
Y569850D02*
D03*
X120600Y515850D02*
D03*
X80600D02*
D03*
X120600Y569850D02*
D03*
X80600D02*
D03*
X550600Y515850D02*
D03*
Y569850D02*
D03*
X570600Y515850D02*
D03*
X530600D02*
D03*
X570600Y569850D02*
D03*
X530600D02*
D03*
D53*
X286005Y296820D02*
D03*
Y251820D02*
D03*
X365505D02*
D03*
Y296820D02*
D03*
D54*
X105000Y77000D02*
D03*
D55*
X517313Y684688D02*
D03*
Y680688D02*
D03*
Y676688D02*
D03*
Y672688D02*
D03*
Y668688D02*
D03*
Y664688D02*
D03*
D56*
X524313Y656188D02*
D03*
D57*
X528312Y655938D02*
D03*
D58*
X532313Y656088D02*
D03*
D59*
X553312Y665688D02*
D03*
Y670188D02*
D03*
Y674688D02*
D03*
Y679188D02*
D03*
D60*
X553563Y683688D02*
D03*
D61*
X149500Y443000D02*
D03*
D62*
X149000Y438000D02*
D03*
Y433000D02*
D03*
X165000D02*
D03*
Y438000D02*
D03*
Y443000D02*
D03*
D63*
X126000Y443000D02*
D03*
X110000D02*
D03*
D94*
X370999Y377001D02*
D03*
D126*
X210000Y77000D02*
D03*
X206000D02*
D03*
X210000Y81000D02*
D03*
X206000D02*
D03*
X235000Y313000D02*
D03*
X239000D02*
D03*
X235000Y309000D02*
D03*
X239000D02*
D03*
X435999Y189000D02*
D03*
X440000D02*
D03*
X435999Y185000D02*
D03*
X440000D02*
D03*
D127*
X98000Y634500D02*
D03*
D128*
X579000Y459750D02*
D03*
D129*
X552625Y688375D02*
D03*
D130*
X516937Y688813D02*
D03*
D131*
X520000Y660375D02*
D03*
X552625Y660875D02*
D03*
D132*
X627500Y580000D02*
D03*
X622500Y112500D02*
D03*
X20000Y670000D02*
D03*
D133*
X76000Y677000D02*
X82000Y671000D01*
X83000D01*
X70000D02*
X76000Y677000D01*
X464000Y59031D02*
X512000Y107031D01*
X212500Y324500D02*
Y330000D01*
Y324500D02*
X214000Y323000D01*
X622255Y62000D02*
X634000D01*
X293000Y600000D02*
Y608000D01*
X501000Y160000D02*
X534000Y127000D01*
X600000D02*
X603745Y123255D01*
X534000Y127000D02*
X600000D01*
X477000Y160000D02*
X501000D01*
X294000Y545000D02*
X302000D01*
X293000Y593000D02*
Y600000D01*
X76000Y618000D02*
X76000Y618000D01*
X66000Y618000D02*
X76000D01*
X355250Y698750D02*
Y701750D01*
X352000Y705000D02*
X355250Y701750D01*
Y698750D02*
X356000Y698000D01*
X354000Y690000D02*
X356000Y692000D01*
Y698000D01*
X301000Y691000D02*
X302000Y690000D01*
X301000Y691000D02*
Y698000D01*
Y703000D01*
X304000Y706000D01*
X633000Y62000D02*
X634000D01*
X634000Y62000D02*
X634000Y62000D01*
X529000Y470500D02*
X530000D01*
X562000Y487500D02*
X570000D01*
X60000Y635000D02*
X67000D01*
X188000Y485000D02*
X195000D01*
X342000Y697000D02*
Y705000D01*
X344000Y690000D02*
Y695000D01*
X342000Y697000D02*
X344000Y695000D01*
X312000Y698000D02*
X312000Y698000D01*
X312000Y690000D02*
Y698000D01*
X312000Y698000D02*
X314000Y700000D01*
Y706000D01*
X243000Y305000D02*
X243000Y305000D01*
X243000Y296000D02*
Y305000D01*
X230000Y277000D02*
Y286000D01*
X263000Y279000D02*
Y287000D01*
X444000Y193000D02*
X477000Y160000D01*
X380500Y119500D02*
X381000Y120000D01*
X369255Y119500D02*
X380500D01*
X406000Y175000D02*
Y182000D01*
X603745Y71500D02*
Y123255D01*
X576000Y34000D02*
X576000Y34000D01*
Y52000D01*
X512000Y107031D02*
Y115000D01*
X464000Y59000D02*
Y59031D01*
X610500Y487500D02*
X611000Y487000D01*
X603000Y487500D02*
X610500D01*
D134*
X462000Y50000D02*
X517500D01*
X403000Y109000D02*
X462000Y50000D01*
X568500Y101000D02*
X589000D01*
X517500Y50000D02*
X568500Y101000D01*
X82500Y735000D02*
X83000Y735500D01*
Y743000D01*
X372000Y137000D02*
X372000Y137000D01*
X364000Y137000D02*
X372000D01*
X33000Y692000D02*
X33000Y692000D01*
Y700000D01*
X45000Y692000D02*
X45000Y692000D01*
Y700000D01*
X77000Y692000D02*
X77000Y692000D01*
Y700000D01*
X65000Y692000D02*
X65000Y692000D01*
Y700000D01*
X44028Y755000D02*
X45500Y753528D01*
X37000Y755000D02*
X44028D01*
X55000Y717000D02*
Y726472D01*
X102500Y661500D02*
X103000Y661000D01*
X102500Y661500D02*
Y671472D01*
X121500Y661500D02*
X122000Y661000D01*
X121500Y661500D02*
Y671472D01*
X285000Y518000D02*
X291000D01*
X293000Y516000D01*
Y510300D02*
Y516000D01*
Y510300D02*
X293300Y510000D01*
X288000Y536000D02*
X295000Y529000D01*
X296000D01*
X336000Y449000D02*
X338000D01*
X331400Y453600D02*
X336000Y449000D01*
X331400Y453600D02*
Y461000D01*
X352000Y527000D02*
X355000D01*
X361000Y533000D01*
X334000Y527000D02*
X334000Y527000D01*
X325000Y527000D02*
X334000D01*
X334000D02*
X343000D01*
X334000Y527000D02*
X334000Y527000D01*
X318000Y545000D02*
X322000Y549000D01*
X312000Y545000D02*
X318000D01*
X287000Y565000D02*
X293324Y558676D01*
Y558265D02*
Y558676D01*
X110000Y433000D02*
X110000Y433000D01*
X110000Y433000D02*
Y443000D01*
Y452000D01*
X110000Y452000D01*
X188000Y462000D02*
X195000D01*
X189000Y298000D02*
Y307000D01*
X148000Y298000D02*
Y307000D01*
X243000Y277000D02*
Y286000D01*
X144000Y361000D02*
X151000D01*
X143000Y360000D02*
X144000Y361000D01*
X175000Y353000D02*
X180000Y358000D01*
X172000Y353000D02*
X175000D01*
X191000Y453000D02*
X195000D01*
X188000Y450000D02*
X191000Y453000D01*
X124000Y343000D02*
X132000Y351000D01*
X151000D01*
X124000Y333000D02*
Y343000D01*
X189000Y322000D02*
Y331000D01*
X384500Y100500D02*
X393000Y109000D01*
X369255Y100500D02*
X384500D01*
X350745Y133745D02*
X354000Y137000D01*
X350745Y110000D02*
Y133745D01*
D135*
X286000Y634000D02*
X295750D01*
X285000Y635000D02*
Y646000D01*
Y635000D02*
X286000Y634000D01*
D136*
X366820Y251820D02*
X377500Y262500D01*
X365505Y251820D02*
X366820D01*
X286000Y251825D02*
Y263000D01*
Y251825D02*
X286005Y251820D01*
X72000Y59000D02*
X87000D01*
X105000Y77000D01*
X111000Y71000D02*
X133000D01*
X105000Y77000D02*
X111000Y71000D01*
X80600Y496600D02*
Y515850D01*
X100600Y496600D02*
Y515850D01*
X120600Y496600D02*
Y515850D01*
X530000Y515250D02*
X530600Y515850D01*
X530000Y495000D02*
Y515250D01*
X571000Y496000D02*
Y515450D01*
X550600Y495400D02*
Y515850D01*
D137*
X531000Y119000D02*
X589000D01*
X486000Y132000D02*
X518000D01*
X531000Y119000D01*
X579000Y445750D02*
Y459750D01*
X478000Y124000D02*
X486000Y132000D01*
X462000Y124000D02*
X478000D01*
X453000Y115000D02*
X462000Y124000D01*
X498000Y126000D02*
X511000D01*
X512000Y125000D01*
X526000Y479500D02*
X567125D01*
X569000Y477625D01*
Y473750D02*
Y477625D01*
X519000Y450500D02*
Y472500D01*
X526000Y479500D01*
X354500Y340500D02*
X355000Y340000D01*
X354500Y340500D02*
Y359501D01*
X397501Y389501D02*
X400000Y392000D01*
X407000D01*
X387500Y389501D02*
X397501D01*
X397499Y364501D02*
X402000Y360000D01*
X407000D01*
X387500Y364501D02*
X397499D01*
X378499Y402499D02*
X387000Y411000D01*
X378499Y398500D02*
Y402499D01*
X350499Y389501D02*
X354500D01*
X348000Y392000D02*
X350499Y389501D01*
X348000Y392000D02*
Y411000D01*
X335501Y369501D02*
X354500D01*
X328000Y362000D02*
X335501Y369501D01*
X316000Y362000D02*
X328000D01*
X343501Y364501D02*
X354500D01*
X341000Y362000D02*
X343501Y364501D01*
X341000Y340000D02*
Y352000D01*
X378499Y340501D02*
Y355500D01*
Y340501D02*
X379000Y340000D01*
D138*
X372000Y623000D02*
Y631000D01*
X370000Y621000D02*
X372000Y623000D01*
D139*
X217400Y237160D02*
D03*
Y216840D02*
D03*
X166600Y227000D02*
D03*
X253300Y127350D02*
D03*
X304100Y117190D02*
D03*
Y137510D02*
D03*
X71160Y433600D02*
D03*
X50840D02*
D03*
X61000Y484400D02*
D03*
D140*
X371700Y758500D02*
D03*
X279700D02*
D03*
X371700Y728500D02*
D03*
X279700D02*
D03*
D141*
X297700Y721000D02*
D03*
X301700Y728000D02*
D03*
X309700D02*
D03*
X313700Y721000D02*
D03*
X317700Y728000D02*
D03*
X321700Y721000D02*
D03*
X329700D02*
D03*
X333700Y728000D02*
D03*
X337700Y721000D02*
D03*
X341700Y728000D02*
D03*
X349700D02*
D03*
X353700Y721000D02*
D03*
D142*
X361700Y714500D02*
D03*
D143*
X289700D02*
D03*
D144*
X282658Y59750D02*
D03*
X342658D02*
D03*
X322658D02*
D03*
X302658D02*
D03*
X418000Y455000D02*
D03*
X233000Y475000D02*
D03*
D145*
X362658Y59750D02*
D03*
D146*
X418000Y475000D02*
D03*
X233000Y455000D02*
D03*
D147*
X195897Y718820D02*
D03*
X455612D02*
D03*
X532130Y210820D02*
D03*
X119380D02*
D03*
D148*
X76000Y677000D02*
D03*
X168000Y299000D02*
D03*
X152000Y263000D02*
D03*
X175000Y77000D02*
D03*
X82500Y735000D02*
D03*
X257500Y495000D02*
D03*
X138000Y536000D02*
D03*
X142500Y515000D02*
D03*
X135000Y522500D02*
D03*
X157500Y462500D02*
D03*
X148000Y465000D02*
D03*
X367500Y500000D02*
D03*
X360000Y507500D02*
D03*
X467500Y275000D02*
D03*
Y287500D02*
D03*
Y300000D02*
D03*
Y312500D02*
D03*
X445000Y155000D02*
D03*
X300000Y660000D02*
D03*
X299000Y651000D02*
D03*
X333000Y667000D02*
D03*
X213750Y278750D02*
D03*
X172500Y277500D02*
D03*
X152000Y340000D02*
D03*
X212500Y330000D02*
D03*
X170000Y335000D02*
D03*
X137500Y317500D02*
D03*
X143000Y360000D02*
D03*
X167500Y342500D02*
D03*
X377500Y262500D02*
D03*
X209000Y104000D02*
D03*
X372000Y137000D02*
D03*
X33000Y692000D02*
D03*
X45000D02*
D03*
X77000D02*
D03*
X65000D02*
D03*
X37000Y755000D02*
D03*
Y745000D02*
D03*
X55000Y717000D02*
D03*
X152000Y649000D02*
D03*
X142000Y654000D02*
D03*
X103000Y661000D02*
D03*
X122000D02*
D03*
X103000Y727000D02*
D03*
X111000D02*
D03*
X129000D02*
D03*
X121000D02*
D03*
X271000Y674000D02*
D03*
X279000D02*
D03*
X268000Y706000D02*
D03*
X275000D02*
D03*
X282000D02*
D03*
X280000Y690000D02*
D03*
X270000D02*
D03*
X330000Y696000D02*
D03*
X202000Y52000D02*
D03*
X322000Y696000D02*
D03*
X202000Y44000D02*
D03*
X352000Y501000D02*
D03*
X372000Y513000D02*
D03*
X285000Y518000D02*
D03*
X288000Y536000D02*
D03*
X338000Y449000D02*
D03*
X319000Y447000D02*
D03*
X306000D02*
D03*
X293000D02*
D03*
X365000Y560000D02*
D03*
X357000Y554000D02*
D03*
X317000Y527000D02*
D03*
X352000D02*
D03*
X334000D02*
D03*
X294000Y545000D02*
D03*
X329000D02*
D03*
X337132Y545868D02*
D03*
X322000Y549000D02*
D03*
X287000Y565000D02*
D03*
X372000Y631000D02*
D03*
X366000Y606000D02*
D03*
X295750Y634000D02*
D03*
X285000Y646000D02*
D03*
X293000Y600000D02*
D03*
X312000Y609000D02*
D03*
X365000Y586000D02*
D03*
Y578000D02*
D03*
X311436Y565925D02*
D03*
X334750Y578000D02*
D03*
Y571000D02*
D03*
Y564000D02*
D03*
Y585000D02*
D03*
X348000D02*
D03*
X341250D02*
D03*
X348000Y578000D02*
D03*
X341250D02*
D03*
X348000Y571000D02*
D03*
X341250D02*
D03*
Y564000D02*
D03*
X348000D02*
D03*
X328000Y585000D02*
D03*
Y578000D02*
D03*
Y571000D02*
D03*
Y564000D02*
D03*
X76000Y618000D02*
D03*
X122000Y628000D02*
D03*
X112000Y604000D02*
D03*
X92000Y628000D02*
D03*
X104000D02*
D03*
Y641000D02*
D03*
X92000D02*
D03*
X98000Y634000D02*
D03*
X301000Y698000D02*
D03*
X356000D02*
D03*
X110000Y433000D02*
D03*
Y452000D02*
D03*
X195000Y462000D02*
D03*
X47000Y459000D02*
D03*
X189000Y298000D02*
D03*
X148000D02*
D03*
X243000Y277000D02*
D03*
X231000Y317000D02*
D03*
X149000Y497000D02*
D03*
X165000D02*
D03*
X157000Y492000D02*
D03*
X165000Y487000D02*
D03*
X149000D02*
D03*
X180000Y358000D02*
D03*
X286000Y263000D02*
D03*
X432000Y193000D02*
D03*
X272000Y223000D02*
D03*
Y216000D02*
D03*
Y209000D02*
D03*
X281000Y179500D02*
D03*
X289000Y180000D02*
D03*
X297000D02*
D03*
X306000D02*
D03*
X384000Y177000D02*
D03*
X292000Y142000D02*
D03*
X214000Y73000D02*
D03*
X178000Y86000D02*
D03*
X184000Y146000D02*
D03*
X72000Y59000D02*
D03*
X141500Y109500D02*
D03*
X202000Y36000D02*
D03*
Y60000D02*
D03*
X559000Y149000D02*
D03*
X567000D02*
D03*
X576000D02*
D03*
X536000Y151000D02*
D03*
X543000D02*
D03*
X536000Y143000D02*
D03*
X543000D02*
D03*
X536000Y135000D02*
D03*
X543000D02*
D03*
X466000Y75000D02*
D03*
X459000D02*
D03*
X466000Y83000D02*
D03*
X410000Y92000D02*
D03*
X401000D02*
D03*
X393000D02*
D03*
Y84000D02*
D03*
Y76000D02*
D03*
X459000Y83000D02*
D03*
Y90000D02*
D03*
X466000D02*
D03*
X482000Y105000D02*
D03*
X472000D02*
D03*
Y115000D02*
D03*
X482000D02*
D03*
X477000Y110000D02*
D03*
X633000Y62000D02*
D03*
X163000Y131000D02*
D03*
X146000Y169000D02*
D03*
X166000Y163000D02*
D03*
X69500Y92500D02*
D03*
Y31500D02*
D03*
X165000Y34000D02*
D03*
X133000Y71000D02*
D03*
X71000Y111000D02*
D03*
X69500Y132500D02*
D03*
X91500Y132500D02*
D03*
X80500D02*
D03*
X526000Y753000D02*
D03*
X489000Y690000D02*
D03*
Y620000D02*
D03*
X607000Y471000D02*
D03*
X615000D02*
D03*
X587000Y459500D02*
D03*
X571000D02*
D03*
X579000Y459750D02*
D03*
X562000Y487500D02*
D03*
X529000Y470500D02*
D03*
X539000D02*
D03*
X549000D02*
D03*
X532000Y767000D02*
D03*
X526312Y613688D02*
D03*
X532313Y674688D02*
D03*
X525312D02*
D03*
X528312Y681688D02*
D03*
Y668688D02*
D03*
X509313Y675688D02*
D03*
Y682688D02*
D03*
X601312Y642688D02*
D03*
Y633688D02*
D03*
Y624688D02*
D03*
Y616688D02*
D03*
Y608688D02*
D03*
Y600687D02*
D03*
Y714688D02*
D03*
Y723688D02*
D03*
Y732688D02*
D03*
Y741687D02*
D03*
Y750687D02*
D03*
X518312Y730687D02*
D03*
Y748688D02*
D03*
X526000Y762000D02*
D03*
X518312Y739687D02*
D03*
X533312Y613688D02*
D03*
X526312Y605688D02*
D03*
Y597688D02*
D03*
X507436Y444000D02*
D03*
Y434000D02*
D03*
X497436D02*
D03*
Y444000D02*
D03*
X487436Y434000D02*
D03*
Y444000D02*
D03*
X477436D02*
D03*
Y434000D02*
D03*
X467436Y444000D02*
D03*
Y434000D02*
D03*
X457436Y444000D02*
D03*
Y434000D02*
D03*
X364000Y389000D02*
D03*
Y383000D02*
D03*
Y377000D02*
D03*
Y371000D02*
D03*
Y365000D02*
D03*
X378000Y365000D02*
D03*
X371000Y365000D02*
D03*
X378000Y371000D02*
D03*
X371000D02*
D03*
X370999Y377001D02*
D03*
X378000Y377000D02*
D03*
Y383000D02*
D03*
X371000Y389000D02*
D03*
Y383000D02*
D03*
X378000Y389000D02*
D03*
X359000Y431000D02*
D03*
Y441000D02*
D03*
X369000Y431000D02*
D03*
Y441000D02*
D03*
X379000Y431000D02*
D03*
Y441000D02*
D03*
X389000D02*
D03*
Y431000D02*
D03*
X399000D02*
D03*
Y441000D02*
D03*
X275000Y409000D02*
D03*
Y419000D02*
D03*
X285000Y409000D02*
D03*
Y419000D02*
D03*
X295000Y409000D02*
D03*
Y419000D02*
D03*
X305000D02*
D03*
Y409000D02*
D03*
X315000Y419000D02*
D03*
Y409000D02*
D03*
X325000D02*
D03*
Y419000D02*
D03*
X265000Y409000D02*
D03*
Y419000D02*
D03*
X339000Y441000D02*
D03*
Y431000D02*
D03*
X349000D02*
D03*
Y441000D02*
D03*
X330000Y321000D02*
D03*
X340000D02*
D03*
X350000D02*
D03*
X360000D02*
D03*
X370000D02*
D03*
X380000D02*
D03*
Y311000D02*
D03*
X370000D02*
D03*
X360000D02*
D03*
X350000D02*
D03*
X340000D02*
D03*
X330000D02*
D03*
X259000Y316000D02*
D03*
X269000D02*
D03*
X279000D02*
D03*
X289000D02*
D03*
Y326000D02*
D03*
X279000D02*
D03*
X269000D02*
D03*
X259000D02*
D03*
X360000Y631000D02*
D03*
X354000D02*
D03*
X312000Y591000D02*
D03*
X351000Y681000D02*
D03*
X312074Y599926D02*
D03*
X368000Y657000D02*
D03*
X359000D02*
D03*
X368000Y664000D02*
D03*
X376000D02*
D03*
X326000Y638000D02*
D03*
X333000D02*
D03*
X325969Y632161D02*
D03*
X333000Y632000D02*
D03*
Y626000D02*
D03*
X326000D02*
D03*
Y620000D02*
D03*
X333000D02*
D03*
X342000Y638000D02*
D03*
Y632000D02*
D03*
X348000Y631000D02*
D03*
X342000Y626000D02*
D03*
Y620000D02*
D03*
X297000Y573500D02*
D03*
X304000D02*
D03*
X297000Y582000D02*
D03*
X304000D02*
D03*
X311000D02*
D03*
Y558000D02*
D03*
Y573500D02*
D03*
X348000Y595000D02*
D03*
Y604000D02*
D03*
X343000Y599000D02*
D03*
X328000Y604000D02*
D03*
X338000D02*
D03*
Y595000D02*
D03*
X333000Y599000D02*
D03*
X328329Y595000D02*
D03*
X501000Y658000D02*
D03*
X551000Y550000D02*
D03*
X584000Y565000D02*
D03*
X155000Y624000D02*
D03*
X148000Y631000D02*
D03*
X60000Y635000D02*
D03*
X76000Y637000D02*
D03*
Y628000D02*
D03*
X136000Y661000D02*
D03*
X88000Y612000D02*
D03*
X151000Y515000D02*
D03*
X195000Y485000D02*
D03*
X216000Y447000D02*
D03*
Y458000D02*
D03*
Y468000D02*
D03*
Y479000D02*
D03*
X317000Y680000D02*
D03*
X312000Y698000D02*
D03*
X335000Y690000D02*
D03*
X342000Y697000D02*
D03*
X170000Y465000D02*
D03*
X178000Y495000D02*
D03*
X175000Y473000D02*
D03*
X128000Y453000D02*
D03*
X195000D02*
D03*
X80600Y496600D02*
D03*
X120600Y496600D02*
D03*
X100600Y496600D02*
D03*
X530000Y495000D02*
D03*
X571000Y496000D02*
D03*
X550600Y495400D02*
D03*
X259000Y216000D02*
D03*
X196000Y266000D02*
D03*
X164000Y258000D02*
D03*
X136000Y264000D02*
D03*
X189000Y288000D02*
D03*
X230000Y277000D02*
D03*
X138000Y298000D02*
D03*
X230000Y304000D02*
D03*
X243000Y317000D02*
D03*
Y305000D02*
D03*
X199000Y340000D02*
D03*
X189000Y322000D02*
D03*
X201000Y358000D02*
D03*
X135000Y341000D02*
D03*
X240000Y383000D02*
D03*
X250000D02*
D03*
X356000Y220000D02*
D03*
X348000D02*
D03*
X340000D02*
D03*
X333000D02*
D03*
X325000D02*
D03*
Y227000D02*
D03*
X333000D02*
D03*
X348000D02*
D03*
X356000D02*
D03*
X340000D02*
D03*
X263000Y279000D02*
D03*
X272000Y297000D02*
D03*
X224000Y192000D02*
D03*
X360000D02*
D03*
X368000Y197000D02*
D03*
X431000Y180000D02*
D03*
X444000Y181000D02*
D03*
Y193000D02*
D03*
X426000Y132000D02*
D03*
X381000Y120000D02*
D03*
X344000Y156000D02*
D03*
X335000Y174000D02*
D03*
X382000Y93000D02*
D03*
X326000Y175000D02*
D03*
X314000Y155000D02*
D03*
X187000Y159000D02*
D03*
X406000Y175000D02*
D03*
X300000Y228000D02*
D03*
X316000D02*
D03*
X308000D02*
D03*
X293000D02*
D03*
X285000D02*
D03*
Y221000D02*
D03*
X293000D02*
D03*
X300000D02*
D03*
X308000D02*
D03*
X316000D02*
D03*
X389000Y161000D02*
D03*
X214000Y249000D02*
D03*
X229000Y227000D02*
D03*
X236000Y207000D02*
D03*
X213000Y201000D02*
D03*
X179000Y242000D02*
D03*
Y212000D02*
D03*
X266000Y142000D02*
D03*
X279000D02*
D03*
X275000Y109000D02*
D03*
X248000Y86000D02*
D03*
Y62000D02*
D03*
X221000Y86000D02*
D03*
X220000Y63000D02*
D03*
Y55000D02*
D03*
X202000Y73000D02*
D03*
Y85000D02*
D03*
X222000Y74000D02*
D03*
X180000Y134000D02*
D03*
X76000Y73000D02*
D03*
Y82000D02*
D03*
X125000Y100000D02*
D03*
X141000Y101000D02*
D03*
X576000Y34000D02*
D03*
X597000Y101000D02*
D03*
X589000D02*
D03*
X464000Y59000D02*
D03*
X470000Y132000D02*
D03*
X498000Y126000D02*
D03*
X597000Y110000D02*
D03*
X589000D02*
D03*
Y119000D02*
D03*
X597000D02*
D03*
X453000Y124000D02*
D03*
Y115000D02*
D03*
X164000Y193000D02*
D03*
X84000Y100000D02*
D03*
X135000Y56000D02*
D03*
X119000Y30000D02*
D03*
X94000Y27000D02*
D03*
X75000Y25000D02*
D03*
X260000Y115000D02*
D03*
X106000Y28000D02*
D03*
X153000Y31000D02*
D03*
X148000Y47000D02*
D03*
X186000Y30000D02*
D03*
X81000D02*
D03*
X142000Y61000D02*
D03*
X150000Y118000D02*
D03*
X133000Y82000D02*
D03*
X91500Y100500D02*
D03*
X102500Y100500D02*
D03*
X113500D02*
D03*
X574000Y764000D02*
D03*
X560000Y768000D02*
D03*
D03*
X515000Y570000D02*
D03*
X514000Y637000D02*
D03*
X515000Y625000D02*
D03*
X503000Y600000D02*
D03*
X511000Y646000D02*
D03*
X611000Y487000D02*
D03*
X616000Y423500D02*
D03*
X606000D02*
D03*
Y433500D02*
D03*
X616000D02*
D03*
X519000Y440500D02*
D03*
Y450500D02*
D03*
X529000Y440500D02*
D03*
Y450500D02*
D03*
X573000Y632000D02*
D03*
X563000Y628000D02*
D03*
Y620000D02*
D03*
Y612000D02*
D03*
Y603000D02*
D03*
X517313Y720688D02*
D03*
X543312Y668688D02*
D03*
Y680688D02*
D03*
X537313Y668688D02*
D03*
X543312Y663688D02*
D03*
X537313D02*
D03*
Y680688D02*
D03*
X543312Y685688D02*
D03*
X537313D02*
D03*
X597313Y661688D02*
D03*
X590312D02*
D03*
X597313Y653688D02*
D03*
X590312Y692688D02*
D03*
X597313Y699688D02*
D03*
Y692688D02*
D03*
X556437Y700813D02*
D03*
X538312Y701688D02*
D03*
X546312Y719688D02*
D03*
X522313Y702688D02*
D03*
X530312Y646688D02*
D03*
X558312Y647688D02*
D03*
X550312Y613688D02*
D03*
Y606688D02*
D03*
Y599688D02*
D03*
Y592688D02*
D03*
X542313Y606688D02*
D03*
Y599688D02*
D03*
Y592688D02*
D03*
X546000Y768000D02*
D03*
X553000D02*
D03*
X563000Y759000D02*
D03*
X567000Y768000D02*
D03*
X519436Y405000D02*
D03*
X529436D02*
D03*
Y415000D02*
D03*
X519436D02*
D03*
X539436D02*
D03*
Y405000D02*
D03*
X529436Y395000D02*
D03*
X519436D02*
D03*
X539436D02*
D03*
X250000Y374000D02*
D03*
Y365000D02*
D03*
Y356000D02*
D03*
X240000Y374000D02*
D03*
Y365000D02*
D03*
Y356000D02*
D03*
X393000Y353000D02*
D03*
M02*
