G04*
G04 #@! TF.GenerationSoftware,Altium Limited,Altium Designer,24.9.1 (31)*
G04*
G04 Layer_Physical_Order=2*
G04 Layer_Color=36540*
%FSLAX44Y44*%
%MOMM*%
G71*
G04*
G04 #@! TF.SameCoordinates,6C7A866E-41A3-4D12-9BD4-ECE58917465C*
G04*
G04*
G04 #@! TF.FilePolarity,Positive*
G04*
G01*
G75*
%ADD18C,0.2540*%
%ADD139C,0.9906*%
%ADD140O,1.1000X2.2000*%
%ADD141C,0.6500*%
%ADD142O,0.9500X0.7500*%
%ADD143C,0.7500*%
%ADD144C,1.3970*%
%ADD147C,3.0480*%
%ADD148C,0.5588*%
G36*
X593690Y770425D02*
X599082Y769353D01*
X604343Y767757D01*
X609422Y765653D01*
X614270Y763061D01*
X618842Y760007D01*
X623091Y756519D01*
X626979Y752632D01*
X630466Y748382D01*
X633521Y743811D01*
X636112Y738962D01*
X638216Y733883D01*
X639812Y728622D01*
X640885Y723230D01*
X641424Y717759D01*
Y715010D01*
Y452120D01*
Y449371D01*
X640885Y443900D01*
X639812Y438508D01*
X638216Y433247D01*
X636112Y428168D01*
X633521Y423320D01*
X630466Y418748D01*
X626979Y414498D01*
X623091Y410611D01*
X618842Y407123D01*
X614270Y404069D01*
X609422Y401478D01*
X604343Y399374D01*
X599082Y397778D01*
X593690Y396705D01*
X588218Y396166D01*
X561340D01*
X560841Y396101D01*
X560339Y396117D01*
X559358Y396019D01*
X559202Y395982D01*
X559042D01*
X557923Y395682D01*
X556795Y395418D01*
X556654Y395342D01*
X556499Y395301D01*
X554668Y394542D01*
X554095Y394212D01*
X553485Y393959D01*
X552960Y393556D01*
X552388Y393226D01*
X551920Y392758D01*
X551396Y392356D01*
X549994Y390954D01*
X549592Y390430D01*
X549124Y389962D01*
X548794Y389390D01*
X548391Y388865D01*
X548138Y388255D01*
X547808Y387682D01*
X547049Y385851D01*
X547006Y385690D01*
X546928Y385544D01*
X546666Y384421D01*
X546368Y383308D01*
Y383141D01*
X546330Y382979D01*
X546232Y381988D01*
X546249Y381492D01*
X546184Y381001D01*
X546176Y225374D01*
X545003Y224888D01*
X544274Y225617D01*
X541154Y227702D01*
X537687Y229138D01*
X534006Y229870D01*
X530254D01*
X526573Y229138D01*
X523106Y227702D01*
X519986Y225617D01*
X517333Y222964D01*
X515248Y219844D01*
X513812Y216377D01*
X513080Y212696D01*
Y208944D01*
X513812Y205263D01*
X515248Y201796D01*
X517333Y198676D01*
X519986Y196023D01*
X523106Y193938D01*
X526573Y192502D01*
X530254Y191770D01*
X534006D01*
X537687Y192502D01*
X541154Y193938D01*
X544274Y196023D01*
X545002Y196751D01*
X546175Y196265D01*
X546174Y167641D01*
X546238Y167148D01*
X546222Y166652D01*
X546320Y165661D01*
X546357Y165499D01*
Y165333D01*
X546656Y164219D01*
X546917Y163096D01*
X546996Y162950D01*
X547039Y162789D01*
X547798Y160958D01*
X548128Y160386D01*
X548381Y159775D01*
X548783Y159250D01*
X549114Y158678D01*
X549581Y158210D01*
X549984Y157686D01*
X551385Y156284D01*
X551910Y155882D01*
X552377Y155414D01*
X552950Y155084D01*
X553474Y154681D01*
X554085Y154429D01*
X554658Y154098D01*
X556489Y153339D01*
X556649Y153296D01*
X556796Y153218D01*
X557919Y152956D01*
X559032Y152658D01*
X559198D01*
X559360Y152620D01*
X560351Y152523D01*
X560848Y152539D01*
X561340Y152474D01*
X596258D01*
X602539Y151647D01*
X608659Y150007D01*
X614513Y147583D01*
X620000Y144415D01*
X625027Y140557D01*
X629507Y136077D01*
X633364Y131051D01*
X636532Y125564D01*
X638957Y119710D01*
X640596Y113590D01*
X641424Y107308D01*
Y104140D01*
Y58420D01*
Y55252D01*
X640596Y48970D01*
X638957Y42850D01*
X636532Y36997D01*
X633364Y31510D01*
X629507Y26483D01*
X625027Y22003D01*
X620000Y18146D01*
X614513Y14978D01*
X608659Y12553D01*
X602539Y10913D01*
X596258Y10086D01*
X66795D01*
Y152474D01*
X90170D01*
X90662Y152539D01*
X91158Y152523D01*
X92149Y152620D01*
X92311Y152658D01*
X92477D01*
X93591Y152956D01*
X94713Y153218D01*
X94860Y153296D01*
X95021Y153339D01*
X96852Y154098D01*
X97424Y154428D01*
X98035Y154681D01*
X98560Y155084D01*
X99132Y155414D01*
X99600Y155882D01*
X100124Y156284D01*
X101526Y157686D01*
X101928Y158210D01*
X102395Y158678D01*
X102726Y159250D01*
X103128Y159775D01*
X103381Y160385D01*
X103712Y160958D01*
X104471Y162789D01*
X104514Y162950D01*
X104592Y163096D01*
X104854Y164219D01*
X105152Y165333D01*
Y165499D01*
X105190Y165660D01*
X105287Y166651D01*
X105271Y167148D01*
X105336Y167640D01*
Y196264D01*
X106509Y196750D01*
X107236Y196023D01*
X110356Y193938D01*
X113823Y192502D01*
X117504Y191770D01*
X121256D01*
X124937Y192502D01*
X128404Y193938D01*
X131524Y196023D01*
X134177Y198676D01*
X136262Y201796D01*
X137698Y205263D01*
X138430Y208944D01*
Y212696D01*
X137698Y216377D01*
X136262Y219844D01*
X134177Y222964D01*
X131524Y225617D01*
X128404Y227702D01*
X124937Y229138D01*
X121256Y229870D01*
X117504D01*
X113823Y229138D01*
X110356Y227702D01*
X107236Y225617D01*
X106509Y224890D01*
X105336Y225376D01*
Y381000D01*
X105271Y381493D01*
X105287Y381989D01*
X105190Y382980D01*
X105152Y383142D01*
Y383308D01*
X104854Y384421D01*
X104592Y385544D01*
X104513Y385691D01*
X104471Y385851D01*
X103712Y387682D01*
X103381Y388255D01*
X103128Y388866D01*
X102726Y389390D01*
X102395Y389963D01*
X101928Y390430D01*
X101525Y390955D01*
X100124Y392356D01*
X99600Y392758D01*
X99132Y393226D01*
X98560Y393556D01*
X98035Y393959D01*
X97424Y394212D01*
X96852Y394542D01*
X95021Y395301D01*
X94860Y395344D01*
X94714Y395422D01*
X93590Y395684D01*
X92477Y395982D01*
X92311D01*
X92149Y396020D01*
X91158Y396118D01*
X90662Y396101D01*
X90170Y396166D01*
X63291D01*
X57820Y396705D01*
X52428Y397778D01*
X47167Y399374D01*
X42087Y401478D01*
X37239Y404069D01*
X32668Y407123D01*
X28418Y410611D01*
X24531Y414499D01*
X21043Y418748D01*
X17989Y423320D01*
X15397Y428168D01*
X13293Y433247D01*
X11697Y438508D01*
X10625Y443900D01*
X10086Y449371D01*
Y452120D01*
Y715010D01*
Y717759D01*
X10625Y723230D01*
X11697Y728622D01*
X13293Y733883D01*
X15397Y738962D01*
X17989Y743811D01*
X21043Y748382D01*
X24531Y752632D01*
X28418Y756519D01*
X31973Y759437D01*
X32086Y759426D01*
X32559Y758103D01*
X32478Y758021D01*
X31666Y756061D01*
Y753939D01*
X32478Y751979D01*
X33979Y750478D01*
X35939Y749666D01*
X38061D01*
X40022Y750478D01*
X41522Y751979D01*
X42334Y753939D01*
Y756061D01*
X41522Y758021D01*
X40022Y759522D01*
X38061Y760334D01*
X35939D01*
X34635Y759794D01*
X34033Y760919D01*
X37239Y763061D01*
X42087Y765653D01*
X47167Y767757D01*
X52428Y769353D01*
X57820Y770425D01*
X63291Y770964D01*
X273593D01*
X273867Y770156D01*
X273935Y769694D01*
X272677Y768055D01*
X271867Y766099D01*
X271591Y764000D01*
Y753000D01*
X271867Y750901D01*
X272677Y748945D01*
X273186Y748282D01*
X278802Y753898D01*
X279700Y753000D01*
X280598Y753898D01*
X286214Y748282D01*
X286723Y748945D01*
X287533Y750901D01*
X287809Y753000D01*
Y764000D01*
X287533Y766099D01*
X286723Y768055D01*
X285465Y769694D01*
X285532Y770156D01*
X285807Y770964D01*
X365593D01*
X365868Y770156D01*
X365935Y769694D01*
X364677Y768055D01*
X363867Y766099D01*
X363591Y764000D01*
Y753000D01*
X363867Y750901D01*
X364677Y748945D01*
X365186Y748282D01*
X370802Y753898D01*
X371700Y753000D01*
X372598Y753898D01*
X378214Y748282D01*
X378723Y748945D01*
X379533Y750901D01*
X379809Y753000D01*
Y764000D01*
X379533Y766099D01*
X378723Y768055D01*
X377465Y769694D01*
X377533Y770156D01*
X377807Y770964D01*
X540311D01*
X541017Y769908D01*
X540666Y769061D01*
Y766939D01*
X541478Y764978D01*
X542979Y763478D01*
X544939Y762666D01*
X547061D01*
X549021Y763478D01*
X549500Y763957D01*
X549979Y763478D01*
X551939Y762666D01*
X554061D01*
X556021Y763478D01*
X556500Y763957D01*
X556978Y763478D01*
X557799Y763138D01*
X558478Y762021D01*
X557666Y760061D01*
Y757939D01*
X558478Y755978D01*
X559978Y754478D01*
X561939Y753666D01*
X564061D01*
X566021Y754478D01*
X567522Y755978D01*
X568334Y757939D01*
Y760061D01*
X568189Y760412D01*
X569063Y761618D01*
X569218Y761607D01*
X569478Y760978D01*
X570979Y759478D01*
X572939Y758666D01*
X575061D01*
X577021Y759478D01*
X578522Y760978D01*
X579334Y762939D01*
Y765061D01*
X578522Y767021D01*
X577021Y768522D01*
X575061Y769334D01*
X573127D01*
X572812Y769694D01*
X572905Y770154D01*
X573530Y770964D01*
X588218D01*
X593690Y770425D01*
D02*
G37*
%LPC*%
G36*
X371700Y751204D02*
X366982Y746486D01*
X367645Y745977D01*
X369601Y745167D01*
X371700Y744891D01*
X373799Y745167D01*
X375755Y745977D01*
X376418Y746486D01*
X371700Y751204D01*
D02*
G37*
G36*
X279700Y751204D02*
X274982Y746486D01*
X275645Y745977D01*
X277601Y745167D01*
X279700Y744891D01*
X281799Y745167D01*
X283755Y745977D01*
X284418Y746486D01*
X279700Y751204D01*
D02*
G37*
G36*
X279700Y742109D02*
X277601Y741833D01*
X275645Y741023D01*
X274982Y740514D01*
X279700Y735796D01*
X284418Y740514D01*
X283755Y741023D01*
X281799Y741833D01*
X279700Y742109D01*
D02*
G37*
G36*
X371700D02*
X369601Y741833D01*
X367645Y741023D01*
X366982Y740514D01*
X371700Y735796D01*
X376418Y740514D01*
X375755Y741023D01*
X373799Y741833D01*
X371700Y742109D01*
D02*
G37*
G36*
X350856Y733810D02*
X348544D01*
X346409Y732925D01*
X345700Y732217D01*
X344991Y732925D01*
X342856Y733810D01*
X340544D01*
X338409Y732925D01*
X337700Y732217D01*
X336991Y732925D01*
X334856Y733810D01*
X332544D01*
X330409Y732925D01*
X328774Y731291D01*
X327890Y729156D01*
Y726844D01*
X327998Y726584D01*
X326409Y725926D01*
X325700Y725217D01*
X324991Y725926D01*
X323402Y726584D01*
X323510Y726844D01*
Y729156D01*
X322626Y731291D01*
X320991Y732925D01*
X318856Y733810D01*
X316544D01*
X314409Y732925D01*
X313700Y732217D01*
X312991Y732925D01*
X310856Y733810D01*
X308544D01*
X306409Y732925D01*
X305700Y732217D01*
X304991Y732925D01*
X302856Y733810D01*
X300544D01*
X298409Y732925D01*
X296775Y731291D01*
X295890Y729156D01*
Y726844D01*
X296006Y726565D01*
X294539Y725957D01*
X298598Y721898D01*
X302658Y717839D01*
X303490Y719848D01*
Y722152D01*
X303384Y722409D01*
X304991Y723074D01*
X305700Y723783D01*
X306409Y723074D01*
X307998Y722416D01*
X307890Y722156D01*
Y719844D01*
X308775Y717709D01*
X310409Y716075D01*
X312544Y715190D01*
X314856D01*
X316991Y716075D01*
X317700Y716783D01*
X318409Y716075D01*
X320544Y715190D01*
X322856D01*
X324991Y716075D01*
X325700Y716783D01*
X326409Y716075D01*
X328544Y715190D01*
X330856D01*
X332991Y716075D01*
X333700Y716783D01*
X334409Y716075D01*
X336544Y715190D01*
X338856D01*
X340991Y716075D01*
X342626Y717709D01*
X343510Y719844D01*
Y722156D01*
X343402Y722416D01*
X344991Y723074D01*
X345700Y723783D01*
X346409Y723074D01*
X348016Y722409D01*
X347910Y722152D01*
Y719848D01*
X348742Y717839D01*
X352802Y721898D01*
X356861Y725957D01*
X355394Y726565D01*
X355510Y726844D01*
Y729156D01*
X354626Y731291D01*
X352991Y732925D01*
X350856Y733810D01*
D02*
G37*
G36*
X130061Y732334D02*
X127939D01*
X125978Y731522D01*
X125000Y730543D01*
X124022Y731522D01*
X122061Y732334D01*
X119939D01*
X117979Y731522D01*
X116478Y730022D01*
X115666Y728061D01*
Y725939D01*
X116478Y723979D01*
X117979Y722478D01*
X119939Y721666D01*
X122061D01*
X124022Y722478D01*
X125000Y723457D01*
X125978Y722478D01*
X127939Y721666D01*
X130061D01*
X132022Y722478D01*
X133522Y723979D01*
X134334Y725939D01*
Y728061D01*
X133522Y730022D01*
X132022Y731522D01*
X130061Y732334D01*
D02*
G37*
G36*
X83561Y740334D02*
X81439D01*
X79479Y739522D01*
X77978Y738021D01*
X77166Y736061D01*
Y733939D01*
X77978Y731979D01*
X79479Y730478D01*
X81439Y729666D01*
X83561D01*
X85521Y730478D01*
X87022Y731979D01*
X87834Y733939D01*
Y736061D01*
X87022Y738021D01*
X85521Y739522D01*
X83561Y740334D01*
D02*
G37*
G36*
X365186Y738718D02*
X364677Y738055D01*
X363867Y736099D01*
X363591Y734000D01*
Y723289D01*
X363071Y722610D01*
X362425Y722125D01*
X360700D01*
X359674Y721990D01*
X359490Y722152D01*
X358657Y724162D01*
X354598Y720102D01*
X350538Y716042D01*
X352548Y715210D01*
X353087Y714595D01*
X353075Y714500D01*
X353335Y712526D01*
X354096Y710687D01*
X355308Y709108D01*
X356887Y707896D01*
X358727Y707135D01*
X360700Y706875D01*
X362700D01*
X364674Y707135D01*
X366513Y707896D01*
X368092Y709108D01*
X369304Y710687D01*
X370065Y712526D01*
X370233Y713803D01*
X371426Y714927D01*
X371700Y714891D01*
X373799Y715167D01*
X375755Y715977D01*
X376418Y716486D01*
X370802Y722102D01*
X372598Y723898D01*
X378214Y718282D01*
X378723Y718945D01*
X379533Y720901D01*
X379809Y723000D01*
Y734000D01*
X379533Y736099D01*
X378723Y738055D01*
X378214Y738718D01*
X372598Y733102D01*
X371700Y734000D01*
X370802Y733102D01*
X365186Y738718D01*
D02*
G37*
G36*
X518373Y726022D02*
X516251D01*
X514291Y725210D01*
X512791Y723709D01*
X511978Y721749D01*
Y719627D01*
X512791Y717666D01*
X514291Y716166D01*
X516251Y715354D01*
X518373D01*
X520334Y716166D01*
X521834Y717666D01*
X522646Y719627D01*
Y721749D01*
X521834Y723709D01*
X520334Y725210D01*
X518373Y726022D01*
D02*
G37*
G36*
X547374Y725022D02*
X545252D01*
X543291Y724210D01*
X541791Y722709D01*
X540979Y720749D01*
Y718627D01*
X541791Y716666D01*
X543291Y715166D01*
X545252Y714354D01*
X547374D01*
X549334Y715166D01*
X550835Y716666D01*
X551646Y718627D01*
Y720749D01*
X550835Y722709D01*
X549334Y724210D01*
X547374Y725022D01*
D02*
G37*
G36*
X273186Y738718D02*
X272677Y738055D01*
X271867Y736099D01*
X271591Y734000D01*
Y723000D01*
X271867Y720901D01*
X272677Y718945D01*
X273186Y718282D01*
X278802Y723898D01*
X280598Y722102D01*
X274982Y716486D01*
X275645Y715977D01*
X277601Y715167D01*
X279700Y714891D01*
X280870Y715045D01*
X282140Y714009D01*
Y713505D01*
X282381Y712604D01*
X281407Y711334D01*
X280939D01*
X278979Y710522D01*
X278500Y710043D01*
X278022Y710522D01*
X276061Y711334D01*
X273939D01*
X271979Y710522D01*
X271500Y710043D01*
X271021Y710522D01*
X269061Y711334D01*
X266939D01*
X264979Y710522D01*
X263478Y709022D01*
X262666Y707061D01*
Y704939D01*
X263478Y702979D01*
X264979Y701478D01*
X266939Y700666D01*
X269061D01*
X271021Y701478D01*
X271500Y701957D01*
X271979Y701478D01*
X273939Y700666D01*
X276061D01*
X278022Y701478D01*
X278500Y701957D01*
X278979Y701478D01*
X280939Y700666D01*
X283061D01*
X285021Y701478D01*
X286522Y702979D01*
X287334Y704939D01*
Y705993D01*
X288604Y706967D01*
X288705Y706940D01*
X290695D01*
X292618Y707455D01*
X294342Y708450D01*
X295749Y709858D01*
X296745Y711582D01*
X297260Y713505D01*
Y715210D01*
X298852D01*
X300861Y716042D01*
X296802Y720102D01*
X292743Y724162D01*
X291910Y722152D01*
X291507Y721842D01*
X290695Y722060D01*
X288967D01*
X287983Y722810D01*
X287809Y723135D01*
Y734000D01*
X287533Y736099D01*
X286723Y738055D01*
X286214Y738718D01*
X280598Y733102D01*
X279700Y734000D01*
X278802Y733102D01*
X273186Y738718D01*
D02*
G37*
G36*
X457488Y737870D02*
X453736D01*
X450055Y737138D01*
X446588Y735702D01*
X443468Y733617D01*
X440815Y730964D01*
X438730Y727844D01*
X437294Y724377D01*
X436562Y720696D01*
Y716944D01*
X437294Y713263D01*
X438730Y709796D01*
X440815Y706676D01*
X443468Y704023D01*
X446588Y701938D01*
X450055Y700502D01*
X453736Y699770D01*
X457488D01*
X461169Y700502D01*
X464636Y701938D01*
X467756Y704023D01*
X470409Y706676D01*
X472494Y709796D01*
X473930Y713263D01*
X474662Y716944D01*
Y720696D01*
X473930Y724377D01*
X472494Y727844D01*
X470409Y730964D01*
X467756Y733617D01*
X464636Y735702D01*
X461169Y737138D01*
X457488Y737870D01*
D02*
G37*
G36*
X197773D02*
X194021D01*
X190340Y737138D01*
X186873Y735702D01*
X183753Y733617D01*
X181100Y730964D01*
X179015Y727844D01*
X177579Y724377D01*
X176847Y720696D01*
Y716944D01*
X177579Y713263D01*
X179015Y709796D01*
X181100Y706676D01*
X183753Y704023D01*
X186873Y701938D01*
X190340Y700502D01*
X194021Y699770D01*
X197773D01*
X201454Y700502D01*
X204921Y701938D01*
X208041Y704023D01*
X210694Y706676D01*
X212779Y709796D01*
X214215Y713263D01*
X214947Y716944D01*
Y720696D01*
X214215Y724377D01*
X212779Y727844D01*
X210694Y730964D01*
X208041Y733617D01*
X204921Y735702D01*
X201454Y737138D01*
X197773Y737870D01*
D02*
G37*
G36*
X523373Y708022D02*
X521251D01*
X519291Y707210D01*
X517791Y705709D01*
X516978Y703749D01*
Y701627D01*
X517791Y699666D01*
X519291Y698166D01*
X521251Y697354D01*
X523373D01*
X525334Y698166D01*
X526834Y699666D01*
X527646Y701627D01*
Y703749D01*
X526834Y705709D01*
X525334Y707210D01*
X523373Y708022D01*
D02*
G37*
G36*
X539374Y707022D02*
X537252D01*
X535291Y706210D01*
X533791Y704709D01*
X532979Y702749D01*
Y700627D01*
X533791Y698666D01*
X535291Y697166D01*
X537252Y696354D01*
X539374D01*
X541334Y697166D01*
X542835Y698666D01*
X543647Y700627D01*
Y702749D01*
X542835Y704709D01*
X541334Y706210D01*
X539374Y707022D01*
D02*
G37*
G36*
X557499Y706147D02*
X555377D01*
X553416Y705334D01*
X551916Y703834D01*
X551104Y701874D01*
Y699752D01*
X551916Y697791D01*
X553416Y696291D01*
X555377Y695479D01*
X557499D01*
X559459Y696291D01*
X560960Y697791D01*
X561772Y699752D01*
Y701874D01*
X560960Y703834D01*
X559459Y705334D01*
X557499Y706147D01*
D02*
G37*
G36*
X544374Y691022D02*
X542252D01*
X540312Y690219D01*
X538373Y691022D01*
X536251D01*
X534291Y690210D01*
X532791Y688709D01*
X531978Y686749D01*
Y684627D01*
X532575Y683188D01*
X531978Y681749D01*
Y679627D01*
X532791Y677666D01*
X534291Y676166D01*
X536251Y675354D01*
X538373D01*
X540312Y676157D01*
X542252Y675354D01*
X544374D01*
X546334Y676166D01*
X547835Y677666D01*
X548647Y679627D01*
Y681749D01*
X548050Y683188D01*
X548647Y684627D01*
Y686749D01*
X547835Y688709D01*
X546334Y690210D01*
X544374Y691022D01*
D02*
G37*
G36*
X598373Y705022D02*
X596251D01*
X594291Y704210D01*
X592791Y702709D01*
X591978Y700749D01*
Y699146D01*
X591585Y698415D01*
X590854Y698022D01*
X589252D01*
X587291Y697210D01*
X585791Y695709D01*
X584978Y693749D01*
Y691627D01*
X585791Y689666D01*
X587291Y688166D01*
X589252Y687354D01*
X591373D01*
X593334Y688166D01*
X593812Y688644D01*
X594291Y688166D01*
X596251Y687354D01*
X598373D01*
X600334Y688166D01*
X601834Y689666D01*
X602646Y691627D01*
Y693749D01*
X601834Y695709D01*
X601356Y696188D01*
X601834Y696666D01*
X602646Y698627D01*
Y700749D01*
X601834Y702709D01*
X600334Y704210D01*
X598373Y705022D01*
D02*
G37*
G36*
X66061Y697334D02*
X63939D01*
X61979Y696522D01*
X60478Y695021D01*
X59666Y693061D01*
Y690939D01*
X60478Y688979D01*
X61979Y687478D01*
X63939Y686666D01*
X66061D01*
X68021Y687478D01*
X69522Y688979D01*
X70334Y690939D01*
Y693061D01*
X69522Y695021D01*
X68021Y696522D01*
X66061Y697334D01*
D02*
G37*
G36*
X34061D02*
X31939D01*
X29979Y696522D01*
X28478Y695021D01*
X27666Y693061D01*
Y690939D01*
X28478Y688979D01*
X29979Y687478D01*
X31939Y686666D01*
X34061D01*
X36021Y687478D01*
X37522Y688979D01*
X38334Y690939D01*
Y693061D01*
X37522Y695021D01*
X36021Y696522D01*
X34061Y697334D01*
D02*
G37*
G36*
X313061Y703334D02*
X310939D01*
X308979Y702522D01*
X307478Y701021D01*
X306666Y699061D01*
Y696939D01*
X307478Y694978D01*
X308979Y693478D01*
X310939Y692666D01*
X313061D01*
X315021Y693478D01*
X315640Y694097D01*
X317138Y693799D01*
X317478Y692979D01*
X318979Y691478D01*
X320939Y690666D01*
X323061D01*
X325021Y691478D01*
X326000Y692457D01*
X326978Y691478D01*
X328939Y690666D01*
X329666D01*
Y688939D01*
X330478Y686979D01*
X331978Y685478D01*
X333939Y684666D01*
X336061D01*
X338021Y685478D01*
X339522Y686979D01*
X340334Y688939D01*
Y690542D01*
X340727Y691273D01*
X341458Y691666D01*
X343061D01*
X345022Y692478D01*
X346522Y693979D01*
X347334Y695939D01*
Y698061D01*
X346522Y700022D01*
X345022Y701522D01*
X343061Y702334D01*
X340939D01*
X338979Y701522D01*
X337478Y700022D01*
X336666Y698061D01*
Y697637D01*
X335396Y696647D01*
X335336Y696663D01*
X335334Y696664D01*
Y697061D01*
X334522Y699022D01*
X333022Y700522D01*
X331061Y701334D01*
X328939D01*
X326978Y700522D01*
X326000Y699543D01*
X325021Y700522D01*
X323061Y701334D01*
X320939D01*
X318979Y700522D01*
X318360Y699903D01*
X316862Y700201D01*
X316522Y701021D01*
X315021Y702522D01*
X313061Y703334D01*
D02*
G37*
G36*
X352061Y686334D02*
X349939D01*
X347979Y685522D01*
X346478Y684022D01*
X345666Y682061D01*
Y679939D01*
X346478Y677979D01*
X347979Y676478D01*
X349939Y675666D01*
X352061D01*
X354021Y676478D01*
X355522Y677979D01*
X356334Y679939D01*
Y682061D01*
X355522Y684022D01*
X354021Y685522D01*
X352061Y686334D01*
D02*
G37*
G36*
X318061Y685334D02*
X315939D01*
X313979Y684522D01*
X312478Y683021D01*
X311666Y681061D01*
Y678939D01*
X312478Y676979D01*
X313979Y675478D01*
X315939Y674666D01*
X318061D01*
X320022Y675478D01*
X321522Y676979D01*
X322334Y678939D01*
Y681061D01*
X321522Y683021D01*
X320022Y684522D01*
X318061Y685334D01*
D02*
G37*
G36*
X544374Y674022D02*
X542252D01*
X540312Y673218D01*
X538373Y674022D01*
X536251D01*
X534291Y673210D01*
X532791Y671709D01*
X531978Y669749D01*
Y667627D01*
X532575Y666188D01*
X531978Y664749D01*
Y662627D01*
X532791Y660666D01*
X534291Y659166D01*
X536251Y658354D01*
X538373D01*
X540312Y659157D01*
X542252Y658354D01*
X544374D01*
X546334Y659166D01*
X547835Y660666D01*
X548647Y662627D01*
Y664749D01*
X548050Y666188D01*
X548647Y667627D01*
Y669749D01*
X547835Y671709D01*
X546334Y673210D01*
X544374Y674022D01*
D02*
G37*
G36*
X377061Y669334D02*
X374939D01*
X372979Y668522D01*
X372000Y667543D01*
X371021Y668522D01*
X369061Y669334D01*
X366939D01*
X364978Y668522D01*
X363478Y667021D01*
X362666Y665061D01*
Y662939D01*
X362873Y662439D01*
X362386Y661915D01*
X361849Y661593D01*
X360061Y662334D01*
X357939D01*
X355979Y661522D01*
X354478Y660022D01*
X353666Y658061D01*
Y655939D01*
X354478Y653979D01*
X355979Y652478D01*
X357939Y651666D01*
X360061D01*
X362021Y652478D01*
X363500Y653957D01*
X364978Y652478D01*
X366939Y651666D01*
X369061D01*
X371021Y652478D01*
X372522Y653979D01*
X373334Y655939D01*
Y657956D01*
X373694Y658358D01*
X374358Y658906D01*
X374939Y658666D01*
X377061D01*
X379021Y659478D01*
X380522Y660978D01*
X381334Y662939D01*
Y665061D01*
X380522Y667021D01*
X379021Y668522D01*
X377061Y669334D01*
D02*
G37*
G36*
X598373Y667022D02*
X596251D01*
X594291Y666210D01*
X593812Y665731D01*
X593334Y666210D01*
X591373Y667022D01*
X589252D01*
X587291Y666210D01*
X585791Y664709D01*
X584978Y662749D01*
Y660627D01*
X585791Y658666D01*
X587291Y657166D01*
X589252Y656354D01*
X591269D01*
X591671Y655993D01*
X592219Y655329D01*
X591978Y654749D01*
Y652627D01*
X592791Y650666D01*
X594291Y649166D01*
X596251Y648354D01*
X598373D01*
X600334Y649166D01*
X601834Y650666D01*
X602646Y652627D01*
Y654749D01*
X601834Y656709D01*
X600856Y657688D01*
X601834Y658666D01*
X602646Y660627D01*
Y662749D01*
X601834Y664709D01*
X600334Y666210D01*
X598373Y667022D01*
D02*
G37*
G36*
X123061Y666334D02*
X120939D01*
X118979Y665522D01*
X117478Y664022D01*
X116666Y662061D01*
Y659939D01*
X117478Y657979D01*
X118979Y656478D01*
X120939Y655666D01*
X123061D01*
X125021Y656478D01*
X126522Y657979D01*
X127334Y659939D01*
Y662061D01*
X126522Y664022D01*
X125021Y665522D01*
X123061Y666334D01*
D02*
G37*
G36*
X502061Y663334D02*
X499939D01*
X497979Y662522D01*
X496478Y661021D01*
X495666Y659061D01*
Y656939D01*
X496478Y654978D01*
X497979Y653478D01*
X499939Y652666D01*
X502061D01*
X504021Y653478D01*
X505522Y654978D01*
X506334Y656939D01*
Y659061D01*
X505522Y661021D01*
X504021Y662522D01*
X502061Y663334D01*
D02*
G37*
G36*
X301061Y665334D02*
X298939D01*
X296979Y664522D01*
X295478Y663021D01*
X294666Y661061D01*
Y658939D01*
X295478Y656979D01*
X295757Y656700D01*
X295559Y655102D01*
X294478Y654022D01*
X293666Y652061D01*
Y649939D01*
X294478Y647979D01*
X295979Y646478D01*
X297939Y645666D01*
X300061D01*
X302022Y646478D01*
X303522Y647979D01*
X304334Y649939D01*
Y652061D01*
X303522Y654022D01*
X303243Y654300D01*
X303441Y655898D01*
X304522Y656979D01*
X305334Y658939D01*
Y661061D01*
X304522Y663021D01*
X303022Y664522D01*
X301061Y665334D01*
D02*
G37*
G36*
X137061Y666334D02*
X134939D01*
X132979Y665522D01*
X131478Y664022D01*
X130666Y662061D01*
Y659939D01*
X131478Y657979D01*
X132979Y656478D01*
X134939Y655666D01*
X136262D01*
X136666Y655061D01*
Y652939D01*
X137478Y650978D01*
X138979Y649478D01*
X140939Y648666D01*
X143061D01*
X145021Y649478D01*
X145396Y649853D01*
X146666Y649326D01*
Y647939D01*
X147478Y645978D01*
X148979Y644478D01*
X150939Y643666D01*
X153061D01*
X155021Y644478D01*
X156522Y645978D01*
X157334Y647939D01*
Y650061D01*
X156522Y652021D01*
X155021Y653522D01*
X153061Y654334D01*
X150939D01*
X148979Y653522D01*
X148604Y653147D01*
X147334Y653673D01*
Y655061D01*
X146522Y657021D01*
X145021Y658522D01*
X143061Y659334D01*
X141738D01*
X141334Y659939D01*
Y662061D01*
X140522Y664022D01*
X139022Y665522D01*
X137061Y666334D01*
D02*
G37*
G36*
X559374Y653022D02*
X557252D01*
X555291Y652210D01*
X553791Y650709D01*
X552979Y648749D01*
Y646627D01*
X553791Y644666D01*
X555291Y643166D01*
X557252Y642354D01*
X559374D01*
X561334Y643166D01*
X562835Y644666D01*
X563647Y646627D01*
Y648749D01*
X562835Y650709D01*
X561334Y652210D01*
X559374Y653022D01*
D02*
G37*
G36*
X531373Y652022D02*
X529252D01*
X527291Y651210D01*
X525791Y649709D01*
X524978Y647749D01*
Y645627D01*
X525791Y643666D01*
X527291Y642166D01*
X529252Y641354D01*
X531373D01*
X533334Y642166D01*
X534835Y643666D01*
X535647Y645627D01*
Y647749D01*
X534835Y649709D01*
X533334Y651210D01*
X531373Y652022D01*
D02*
G37*
G36*
X343061Y643334D02*
X340939D01*
X338979Y642522D01*
X337500Y641043D01*
X336021Y642522D01*
X334061Y643334D01*
X331939D01*
X329978Y642522D01*
X329500Y642043D01*
X329021Y642522D01*
X327061Y643334D01*
X324939D01*
X322979Y642522D01*
X321478Y641021D01*
X320666Y639061D01*
Y636939D01*
X321420Y635119D01*
X320634Y633222D01*
Y631100D01*
X321446Y629140D01*
X321521Y629065D01*
X321478Y629021D01*
X320666Y627061D01*
Y624939D01*
X321469Y623000D01*
X320666Y621061D01*
Y618939D01*
X321478Y616978D01*
X322979Y615478D01*
X324939Y614666D01*
X327061D01*
X329021Y615478D01*
X329500Y615957D01*
X329978Y615478D01*
X331939Y614666D01*
X334061D01*
X336021Y615478D01*
X337500Y616957D01*
X338979Y615478D01*
X340939Y614666D01*
X343061D01*
X345021Y615478D01*
X346522Y616978D01*
X347334Y618939D01*
Y621061D01*
X346531Y623000D01*
X347334Y624939D01*
Y625666D01*
X349061D01*
X351000Y626469D01*
X352939Y625666D01*
X355061D01*
X357000Y626469D01*
X358939Y625666D01*
X361061D01*
X363021Y626478D01*
X364522Y627979D01*
X365334Y629939D01*
Y632061D01*
X364522Y634021D01*
X363021Y635522D01*
X361061Y636334D01*
X358939D01*
X357000Y635531D01*
X355061Y636334D01*
X352939D01*
X351000Y635531D01*
X349061Y636334D01*
X347738D01*
X347334Y636939D01*
Y639061D01*
X346522Y641021D01*
X345021Y642522D01*
X343061Y643334D01*
D02*
G37*
G36*
X574061Y637334D02*
X571939D01*
X569978Y636522D01*
X568478Y635022D01*
X567666Y633061D01*
Y632673D01*
X566396Y632147D01*
X566021Y632522D01*
X564061Y633334D01*
X561939D01*
X559978Y632522D01*
X558478Y631021D01*
X557666Y629061D01*
Y626939D01*
X558478Y624978D01*
X559457Y624000D01*
X558478Y623022D01*
X557666Y621061D01*
Y618939D01*
X558478Y616978D01*
X559457Y616000D01*
X558478Y615022D01*
X557666Y613061D01*
Y610939D01*
X558478Y608979D01*
X559957Y607500D01*
X558478Y606021D01*
X557666Y604061D01*
Y601939D01*
X558478Y599978D01*
X559978Y598478D01*
X561939Y597666D01*
X564061D01*
X566021Y598478D01*
X567522Y599978D01*
X568334Y601939D01*
Y604061D01*
X567522Y606021D01*
X566043Y607500D01*
X567522Y608979D01*
X568334Y610939D01*
Y613061D01*
X567522Y615022D01*
X566543Y616000D01*
X567522Y616978D01*
X568334Y618939D01*
Y621061D01*
X567522Y623022D01*
X566543Y624000D01*
X567522Y624978D01*
X568334Y626939D01*
Y627327D01*
X569604Y627853D01*
X569978Y627478D01*
X571939Y626666D01*
X574061D01*
X576021Y627478D01*
X577522Y628979D01*
X578334Y630939D01*
Y633061D01*
X577522Y635022D01*
X576021Y636522D01*
X574061Y637334D01*
D02*
G37*
G36*
X512061Y651334D02*
X509939D01*
X507979Y650522D01*
X506478Y649022D01*
X505666Y647061D01*
Y644939D01*
X506478Y642979D01*
X507979Y641478D01*
X508799Y641138D01*
X509478Y640021D01*
X508666Y638061D01*
Y635939D01*
X509478Y633979D01*
X510979Y632478D01*
X512939Y631666D01*
X515061D01*
X517021Y632478D01*
X518522Y633979D01*
X519334Y635939D01*
Y638061D01*
X518522Y640022D01*
X517021Y641522D01*
X516201Y641862D01*
X515522Y642979D01*
X516334Y644939D01*
Y647061D01*
X515522Y649022D01*
X514021Y650522D01*
X512061Y651334D01*
D02*
G37*
G36*
X61061Y640334D02*
X58939D01*
X56979Y639522D01*
X55478Y638022D01*
X54666Y636061D01*
Y633939D01*
X55478Y631978D01*
X56979Y630478D01*
X58939Y629666D01*
X61061D01*
X63021Y630478D01*
X64522Y631978D01*
X65334Y633939D01*
Y636061D01*
X64522Y638022D01*
X63021Y639522D01*
X61061Y640334D01*
D02*
G37*
G36*
X77061Y642334D02*
X74939D01*
X72979Y641522D01*
X71478Y640022D01*
X70666Y638061D01*
Y635939D01*
X71478Y633979D01*
X72957Y632500D01*
X71478Y631021D01*
X70666Y629061D01*
Y626939D01*
X71478Y624978D01*
X72979Y623478D01*
X74939Y622666D01*
X77061D01*
X79022Y623478D01*
X80522Y624978D01*
X81334Y626939D01*
Y629061D01*
X80522Y631021D01*
X79043Y632500D01*
X80522Y633979D01*
X81334Y635939D01*
Y638061D01*
X80522Y640022D01*
X79022Y641522D01*
X77061Y642334D01*
D02*
G37*
G36*
X516061Y630334D02*
X513939D01*
X511979Y629522D01*
X510478Y628022D01*
X509666Y626061D01*
Y623939D01*
X510478Y621978D01*
X511979Y620478D01*
X513939Y619666D01*
X516061D01*
X518022Y620478D01*
X519522Y621978D01*
X520334Y623939D01*
Y626061D01*
X519522Y628022D01*
X518022Y629522D01*
X516061Y630334D01*
D02*
G37*
G36*
X149061Y636334D02*
X146939D01*
X144979Y635522D01*
X143478Y634021D01*
X142666Y632061D01*
Y629939D01*
X143478Y627979D01*
X144979Y626478D01*
X146939Y625666D01*
X148542D01*
X149273Y625273D01*
X149666Y624542D01*
Y622939D01*
X150478Y620979D01*
X151979Y619478D01*
X153939Y618666D01*
X156061D01*
X158021Y619478D01*
X159522Y620979D01*
X160334Y622939D01*
Y625061D01*
X159522Y627021D01*
X158021Y628522D01*
X156061Y629334D01*
X154458D01*
X153727Y629727D01*
X153334Y630458D01*
Y632061D01*
X152522Y634021D01*
X151021Y635522D01*
X149061Y636334D01*
D02*
G37*
G36*
X551373Y619021D02*
X549252D01*
X547291Y618209D01*
X545791Y616709D01*
X544978Y614749D01*
Y612731D01*
X544618Y612329D01*
X543954Y611781D01*
X543374Y612022D01*
X541251D01*
X539291Y611209D01*
X537791Y609709D01*
X536979Y607749D01*
Y605627D01*
X537791Y603666D01*
X538269Y603188D01*
X537791Y602709D01*
X536979Y600749D01*
Y598627D01*
X537791Y596666D01*
X538269Y596188D01*
X537791Y595709D01*
X536979Y593749D01*
Y591627D01*
X537791Y589666D01*
X539291Y588166D01*
X541251Y587354D01*
X543374D01*
X545334Y588166D01*
X546312Y589144D01*
X547291Y588166D01*
X549252Y587354D01*
X551373D01*
X553334Y588166D01*
X554835Y589666D01*
X555647Y591627D01*
Y593749D01*
X554835Y595709D01*
X554356Y596188D01*
X554835Y596666D01*
X555647Y598627D01*
Y600749D01*
X554835Y602709D01*
X554356Y603188D01*
X554835Y603666D01*
X555647Y605627D01*
Y607749D01*
X554835Y609709D01*
X554356Y610188D01*
X554835Y610666D01*
X555647Y612626D01*
Y614749D01*
X554835Y616709D01*
X553334Y618209D01*
X551373Y619021D01*
D02*
G37*
G36*
X349061Y609334D02*
X346939D01*
X344978Y608522D01*
X343774Y607317D01*
X343000Y607135D01*
X342226Y607317D01*
X341021Y608522D01*
X339061Y609334D01*
X336939D01*
X334979Y608522D01*
X333774Y607317D01*
X333000Y607135D01*
X332226Y607317D01*
X331021Y608522D01*
X329061Y609334D01*
X326939D01*
X324978Y608522D01*
X323478Y607021D01*
X322666Y605061D01*
Y602939D01*
X323478Y600979D01*
X324978Y599478D01*
X325026Y599240D01*
X323807Y598022D01*
X322995Y596061D01*
Y593939D01*
X323807Y591978D01*
X325308Y590478D01*
X327268Y589666D01*
X329390D01*
X331351Y590478D01*
X332335Y591462D01*
X333165Y591837D01*
X333994Y591462D01*
X334979Y590478D01*
X336939Y589666D01*
X339061D01*
X341021Y590478D01*
X342226Y591683D01*
X343000Y591866D01*
X343774Y591683D01*
X344978Y590478D01*
X346939Y589666D01*
X349061D01*
X351021Y590478D01*
X352522Y591978D01*
X353334Y593939D01*
Y596061D01*
X352522Y598022D01*
X351043Y599500D01*
X352522Y600979D01*
X353334Y602939D01*
Y605061D01*
X352522Y607021D01*
X351021Y608522D01*
X349061Y609334D01*
D02*
G37*
G36*
X89061Y617334D02*
X86939D01*
X84979Y616522D01*
X83478Y615022D01*
X82666Y613061D01*
Y610939D01*
X83478Y608979D01*
X84979Y607478D01*
X86939Y606666D01*
X89061D01*
X91021Y607478D01*
X92522Y608979D01*
X93334Y610939D01*
Y613061D01*
X92522Y615022D01*
X91021Y616522D01*
X89061Y617334D01*
D02*
G37*
G36*
X504061Y605334D02*
X501939D01*
X499979Y604522D01*
X498478Y603022D01*
X497666Y601061D01*
Y598939D01*
X498478Y596978D01*
X499979Y595478D01*
X501939Y594666D01*
X504061D01*
X506021Y595478D01*
X507522Y596978D01*
X508334Y598939D01*
Y601061D01*
X507522Y603022D01*
X506021Y604522D01*
X504061Y605334D01*
D02*
G37*
G36*
X313135Y605260D02*
X311013D01*
X309053Y604448D01*
X307552Y602947D01*
X306740Y600987D01*
Y598865D01*
X307552Y596904D01*
X308957Y595500D01*
X307478Y594021D01*
X306666Y592061D01*
Y589939D01*
X307398Y588172D01*
X307340Y587640D01*
X306959Y586701D01*
X306761Y586630D01*
X305061Y587334D01*
X302939D01*
X300979Y586522D01*
X300500Y586043D01*
X300021Y586522D01*
X298061Y587334D01*
X295939D01*
X293979Y586522D01*
X292478Y585022D01*
X291666Y583061D01*
Y580939D01*
X292478Y578979D01*
X293707Y577750D01*
X292478Y576521D01*
X291666Y574561D01*
Y572439D01*
X292478Y570479D01*
X293979Y568978D01*
X295939Y568166D01*
X298061D01*
X300021Y568978D01*
X300500Y569457D01*
X300979Y568978D01*
X302939Y568166D01*
X305061D01*
X307021Y568978D01*
X307500Y569457D01*
X307978Y568978D01*
X309939Y568166D01*
X312061D01*
X314021Y568978D01*
X315522Y570479D01*
X316334Y572439D01*
Y574561D01*
X315522Y576521D01*
X314293Y577750D01*
X315522Y578979D01*
X316334Y580939D01*
Y583061D01*
X315522Y585022D01*
X314863Y585681D01*
X315021Y586478D01*
X316522Y587979D01*
X317334Y589939D01*
Y592061D01*
X316522Y594021D01*
X315118Y595426D01*
X316596Y596904D01*
X317408Y598865D01*
Y600987D01*
X316596Y602947D01*
X315096Y604448D01*
X313135Y605260D01*
D02*
G37*
G36*
X516061Y575334D02*
X513939D01*
X511979Y574522D01*
X510478Y573022D01*
X509666Y571061D01*
Y568939D01*
X510478Y566978D01*
X511979Y565478D01*
X513939Y564666D01*
X516061D01*
X518022Y565478D01*
X519522Y566978D01*
X520334Y568939D01*
Y571061D01*
X519522Y573022D01*
X518022Y574522D01*
X516061Y575334D01*
D02*
G37*
G36*
X585061Y570334D02*
X582939D01*
X580979Y569522D01*
X579478Y568021D01*
X578666Y566061D01*
Y563939D01*
X579478Y561978D01*
X580979Y560478D01*
X582939Y559666D01*
X585061D01*
X587021Y560478D01*
X588522Y561978D01*
X589334Y563939D01*
Y566061D01*
X588522Y568021D01*
X587021Y569522D01*
X585061Y570334D01*
D02*
G37*
G36*
X366061Y565334D02*
X363939D01*
X361978Y564522D01*
X360478Y563022D01*
X359666Y561061D01*
Y558939D01*
X360478Y556978D01*
X361978Y555478D01*
X363939Y554666D01*
X366061D01*
X368022Y555478D01*
X369522Y556978D01*
X370334Y558939D01*
Y561061D01*
X369522Y563022D01*
X368022Y564522D01*
X366061Y565334D01*
D02*
G37*
G36*
X312061Y563334D02*
X309939D01*
X307978Y562522D01*
X306478Y561021D01*
X305666Y559061D01*
Y556939D01*
X306478Y554978D01*
X307978Y553478D01*
X309939Y552666D01*
X312061D01*
X314021Y553478D01*
X315522Y554978D01*
X316334Y556939D01*
Y559061D01*
X315522Y561021D01*
X314021Y562522D01*
X312061Y563334D01*
D02*
G37*
G36*
X552061Y555334D02*
X549939D01*
X547979Y554522D01*
X546478Y553021D01*
X545666Y551061D01*
Y548939D01*
X546478Y546978D01*
X547979Y545478D01*
X549939Y544666D01*
X552061D01*
X554021Y545478D01*
X555522Y546978D01*
X556334Y548939D01*
Y551061D01*
X555522Y553021D01*
X554021Y554522D01*
X552061Y555334D01*
D02*
G37*
G36*
X323061Y554334D02*
X320939D01*
X318979Y553522D01*
X317478Y552021D01*
X316666Y550061D01*
Y547939D01*
X317478Y545979D01*
X318979Y544478D01*
X320939Y543666D01*
X323061D01*
X323674Y543920D01*
X324478Y541978D01*
X325979Y540478D01*
X327939Y539666D01*
X330061D01*
X332021Y540478D01*
X333500Y541957D01*
X334111Y541346D01*
X336072Y540533D01*
X338194D01*
X340154Y541346D01*
X341654Y542846D01*
X342467Y544807D01*
Y546928D01*
X341654Y548889D01*
X340154Y550390D01*
X338194Y551202D01*
X336072D01*
X334111Y550390D01*
X332632Y548911D01*
X332021Y549522D01*
X330061Y550334D01*
X327939D01*
X327326Y550080D01*
X326522Y552021D01*
X325021Y553522D01*
X323061Y554334D01*
D02*
G37*
G36*
X139061Y541334D02*
X136939D01*
X134979Y540522D01*
X133478Y539021D01*
X132666Y537061D01*
Y534939D01*
X133478Y532979D01*
X134979Y531478D01*
X136939Y530666D01*
X139061D01*
X141021Y531478D01*
X142522Y532979D01*
X143334Y534939D01*
Y537061D01*
X142522Y539021D01*
X141021Y540522D01*
X139061Y541334D01*
D02*
G37*
G36*
X335061Y532334D02*
X332939D01*
X330979Y531522D01*
X329478Y530021D01*
X328666Y528061D01*
Y525939D01*
X329478Y523979D01*
X330979Y522478D01*
X332939Y521666D01*
X335061D01*
X337021Y522478D01*
X338522Y523979D01*
X339334Y525939D01*
Y528061D01*
X338522Y530021D01*
X337021Y531522D01*
X335061Y532334D01*
D02*
G37*
G36*
X136061Y527834D02*
X133939D01*
X131979Y527022D01*
X130478Y525522D01*
X129666Y523561D01*
Y521439D01*
X130478Y519478D01*
X131979Y517978D01*
X133939Y517166D01*
X136061D01*
X138021Y517978D01*
X139522Y519478D01*
X140334Y521439D01*
Y523561D01*
X139522Y525522D01*
X138021Y527022D01*
X136061Y527834D01*
D02*
G37*
G36*
X286061Y523334D02*
X283939D01*
X281978Y522522D01*
X280478Y521021D01*
X279666Y519061D01*
Y516939D01*
X280478Y514978D01*
X281978Y513478D01*
X283939Y512666D01*
X286061D01*
X288021Y513478D01*
X289522Y514978D01*
X290334Y516939D01*
Y519061D01*
X289522Y521021D01*
X288021Y522522D01*
X286061Y523334D01*
D02*
G37*
G36*
X152061Y520334D02*
X149939D01*
X147978Y519522D01*
X146478Y518022D01*
X145666Y516061D01*
Y513939D01*
X146478Y511979D01*
X147978Y510478D01*
X149939Y509666D01*
X152061D01*
X154022Y510478D01*
X155522Y511979D01*
X156334Y513939D01*
Y516061D01*
X155522Y518022D01*
X154022Y519522D01*
X152061Y520334D01*
D02*
G37*
G36*
X373061Y518334D02*
X370939D01*
X368979Y517522D01*
X367478Y516021D01*
X366666Y514061D01*
Y511939D01*
X367478Y509978D01*
X368979Y508478D01*
X370939Y507666D01*
X373061D01*
X375021Y508478D01*
X376522Y509978D01*
X377334Y511939D01*
Y514061D01*
X376522Y516021D01*
X375021Y517522D01*
X373061Y518334D01*
D02*
G37*
G36*
X456305Y660475D02*
X388244D01*
X386758Y660179D01*
X384891Y659406D01*
X383630Y658564D01*
X382201Y657135D01*
X381359Y655874D01*
X380586Y654007D01*
X380290Y652521D01*
Y651510D01*
Y515620D01*
Y514610D01*
X380586Y513123D01*
X381359Y511256D01*
X382201Y509996D01*
X383630Y508567D01*
X384891Y507725D01*
X386758Y506951D01*
X388244Y506656D01*
X456305D01*
X457792Y506951D01*
X459659Y507725D01*
X460919Y508567D01*
X462348Y509996D01*
X463190Y511256D01*
X463964Y513123D01*
X464259Y514610D01*
Y515620D01*
Y651510D01*
Y652521D01*
X463964Y654007D01*
X463190Y655874D01*
X462348Y657135D01*
X460919Y658564D01*
X459659Y659406D01*
X457792Y660179D01*
X456305Y660475D01*
D02*
G37*
G36*
X263265D02*
X195204D01*
X193718Y660179D01*
X191850Y659406D01*
X190590Y658564D01*
X189161Y657135D01*
X188319Y655874D01*
X187546Y654007D01*
X187250Y652521D01*
Y651510D01*
Y515620D01*
Y514610D01*
X187546Y513123D01*
X188319Y511256D01*
X189161Y509996D01*
X190590Y508567D01*
X191850Y507725D01*
X193718Y506951D01*
X195204Y506656D01*
X263265D01*
X264752Y506951D01*
X266619Y507725D01*
X267879Y508567D01*
X269308Y509996D01*
X270150Y511256D01*
X270924Y513123D01*
X271219Y514610D01*
Y515620D01*
Y651510D01*
Y652521D01*
X270924Y654007D01*
X270150Y655874D01*
X269308Y657135D01*
X267879Y658564D01*
X266619Y659406D01*
X264752Y660179D01*
X263265Y660475D01*
D02*
G37*
G36*
X361061Y512834D02*
X358939D01*
X356978Y512022D01*
X355478Y510522D01*
X354666Y508561D01*
Y507044D01*
X353548Y506169D01*
X353493Y506155D01*
X353061Y506334D01*
X350939D01*
X348979Y505522D01*
X347478Y504021D01*
X346666Y502061D01*
Y499939D01*
X347478Y497979D01*
X348979Y496478D01*
X350939Y495666D01*
X353061D01*
X355022Y496478D01*
X356522Y497979D01*
X357334Y499939D01*
Y501456D01*
X358452Y502331D01*
X358507Y502345D01*
X358939Y502166D01*
X361061D01*
X361414Y502312D01*
X362312Y501414D01*
X362166Y501061D01*
Y498939D01*
X362978Y496978D01*
X364478Y495478D01*
X366439Y494666D01*
X368561D01*
X370522Y495478D01*
X372022Y496978D01*
X372834Y498939D01*
Y501061D01*
X372022Y503021D01*
X370522Y504522D01*
X368561Y505334D01*
X366439D01*
X366086Y505188D01*
X365188Y506086D01*
X365334Y506439D01*
Y508561D01*
X364522Y510522D01*
X363021Y512022D01*
X361061Y512834D01*
D02*
G37*
G36*
X121661Y501934D02*
X119539D01*
X117579Y501122D01*
X116078Y499622D01*
X115266Y497661D01*
Y495539D01*
X116078Y493579D01*
X117579Y492078D01*
X119539Y491266D01*
X121661D01*
X123622Y492078D01*
X125122Y493579D01*
X125934Y495539D01*
Y497661D01*
X125122Y499622D01*
X123622Y501122D01*
X121661Y501934D01*
D02*
G37*
G36*
X101661Y501934D02*
X99539D01*
X97578Y501122D01*
X96078Y499622D01*
X95266Y497661D01*
Y495539D01*
X96078Y493578D01*
X97578Y492078D01*
X99539Y491266D01*
X101661D01*
X103622Y492078D01*
X105122Y493578D01*
X105934Y495539D01*
Y497661D01*
X105122Y499622D01*
X103622Y501122D01*
X101661Y501934D01*
D02*
G37*
G36*
X81661D02*
X79539D01*
X77579Y501122D01*
X76078Y499622D01*
X75266Y497661D01*
Y495539D01*
X76078Y493578D01*
X77579Y492078D01*
X79539Y491266D01*
X81661D01*
X83621Y492078D01*
X85122Y493578D01*
X85934Y495539D01*
Y497661D01*
X85122Y499622D01*
X83621Y501122D01*
X81661Y501934D01*
D02*
G37*
G36*
X572061Y501334D02*
X569939D01*
X567979Y500522D01*
X566478Y499021D01*
X565666Y497061D01*
Y494939D01*
X566478Y492979D01*
X567979Y491478D01*
X569939Y490666D01*
X572061D01*
X574021Y491478D01*
X575522Y492979D01*
X576334Y494939D01*
Y497061D01*
X575522Y499021D01*
X574021Y500522D01*
X572061Y501334D01*
D02*
G37*
G36*
X551661Y500734D02*
X549539D01*
X547579Y499922D01*
X546078Y498422D01*
X545266Y496461D01*
Y494339D01*
X546078Y492379D01*
X547579Y490878D01*
X549539Y490066D01*
X551661D01*
X553621Y490878D01*
X555122Y492379D01*
X555934Y494339D01*
Y496461D01*
X555122Y498422D01*
X553621Y499922D01*
X551661Y500734D01*
D02*
G37*
G36*
X531061Y500334D02*
X528939D01*
X526978Y499522D01*
X525478Y498022D01*
X524666Y496061D01*
Y493939D01*
X525478Y491978D01*
X526978Y490478D01*
X528939Y489666D01*
X531061D01*
X533022Y490478D01*
X534522Y491978D01*
X535334Y493939D01*
Y496061D01*
X534522Y498022D01*
X533022Y499522D01*
X531061Y500334D01*
D02*
G37*
G36*
X258561D02*
X256439D01*
X254478Y499522D01*
X252978Y498022D01*
X252166Y496061D01*
Y493939D01*
X252978Y491978D01*
X254478Y490478D01*
X256439Y489666D01*
X258561D01*
X260521Y490478D01*
X262022Y491978D01*
X262834Y493939D01*
Y496061D01*
X262022Y498022D01*
X260521Y499522D01*
X258561Y500334D01*
D02*
G37*
G36*
X179061D02*
X176939D01*
X174979Y499522D01*
X173478Y498022D01*
X172666Y496061D01*
Y493939D01*
X173478Y491978D01*
X174979Y490478D01*
X176939Y489666D01*
X179061D01*
X181021Y490478D01*
X182522Y491978D01*
X183334Y493939D01*
Y496061D01*
X182522Y498022D01*
X181021Y499522D01*
X179061Y500334D01*
D02*
G37*
G36*
X612061Y492334D02*
X609939D01*
X607979Y491522D01*
X606478Y490021D01*
X605666Y488061D01*
Y485939D01*
X606478Y483979D01*
X607979Y482478D01*
X609939Y481666D01*
X612061D01*
X614021Y482478D01*
X615522Y483979D01*
X616334Y485939D01*
Y488061D01*
X615522Y490021D01*
X614021Y491522D01*
X612061Y492334D01*
D02*
G37*
G36*
X196061Y490334D02*
X193939D01*
X191978Y489522D01*
X190478Y488022D01*
X189666Y486061D01*
Y483939D01*
X190478Y481978D01*
X191978Y480478D01*
X193939Y479666D01*
X196061D01*
X198021Y480478D01*
X199522Y481978D01*
X200334Y483939D01*
Y486061D01*
X199522Y488022D01*
X198021Y489522D01*
X196061Y490334D01*
D02*
G37*
G36*
X62154Y493163D02*
X59846D01*
X57618Y492566D01*
X55619Y491412D01*
X53988Y489781D01*
X52834Y487782D01*
X52237Y485554D01*
Y483246D01*
X52834Y481018D01*
X53988Y479019D01*
X55619Y477388D01*
X57618Y476234D01*
X59846Y475637D01*
X62154D01*
X64382Y476234D01*
X66381Y477388D01*
X68012Y479019D01*
X69166Y481018D01*
X69763Y483246D01*
Y485554D01*
X69166Y487782D01*
X68012Y489781D01*
X66381Y491412D01*
X64382Y492566D01*
X62154Y493163D01*
D02*
G37*
G36*
X419087Y483255D02*
X416913D01*
X414814Y482692D01*
X412931Y481606D01*
X411394Y480069D01*
X410308Y478186D01*
X409745Y476087D01*
Y473913D01*
X410308Y471814D01*
X411394Y469931D01*
X412931Y468394D01*
X414814Y467308D01*
X416913Y466745D01*
X419087D01*
X421186Y467308D01*
X423069Y468394D01*
X424606Y469931D01*
X425692Y471814D01*
X426255Y473913D01*
Y476087D01*
X425692Y478186D01*
X424606Y480069D01*
X423069Y481606D01*
X421186Y482692D01*
X419087Y483255D01*
D02*
G37*
G36*
X234087Y483255D02*
X231913D01*
X229814Y482692D01*
X227931Y481606D01*
X226394Y480069D01*
X225308Y478186D01*
X224745Y476087D01*
Y473913D01*
X225308Y471814D01*
X226394Y469931D01*
X227931Y468394D01*
X229814Y467308D01*
X231913Y466745D01*
X234087D01*
X236186Y467308D01*
X238069Y468394D01*
X239606Y469931D01*
X240692Y471814D01*
X241255Y473913D01*
Y476087D01*
X240692Y478186D01*
X239606Y480069D01*
X238069Y481606D01*
X236186Y482692D01*
X234087Y483255D01*
D02*
G37*
G36*
X176061Y478334D02*
X173939D01*
X171978Y477522D01*
X170478Y476021D01*
X169666Y474061D01*
Y471939D01*
X169893Y471390D01*
X169188Y470334D01*
X168939D01*
X166978Y469522D01*
X165478Y468022D01*
X164666Y466061D01*
Y463939D01*
X165478Y461979D01*
X166978Y460478D01*
X168939Y459666D01*
X171061D01*
X173021Y460478D01*
X174522Y461979D01*
X175334Y463939D01*
Y466061D01*
X175107Y466610D01*
X175812Y467666D01*
X176061D01*
X178022Y468478D01*
X179522Y469978D01*
X180334Y471939D01*
Y474061D01*
X179522Y476021D01*
X178022Y477522D01*
X176061Y478334D01*
D02*
G37*
G36*
X149061Y470334D02*
X146939D01*
X144979Y469522D01*
X143478Y468022D01*
X142666Y466061D01*
Y463939D01*
X143478Y461979D01*
X144979Y460478D01*
X146939Y459666D01*
X149061D01*
X151021Y460478D01*
X151140Y460597D01*
X152638Y460299D01*
X152978Y459478D01*
X154479Y457978D01*
X156439Y457166D01*
X158561D01*
X160521Y457978D01*
X162022Y459478D01*
X162834Y461439D01*
Y463561D01*
X162022Y465521D01*
X160521Y467022D01*
X158561Y467834D01*
X156439D01*
X154479Y467022D01*
X154360Y466903D01*
X152862Y467201D01*
X152522Y468022D01*
X151021Y469522D01*
X149061Y470334D01*
D02*
G37*
G36*
X530061Y455834D02*
X527939D01*
X525979Y455022D01*
X524774Y453817D01*
X524000Y453634D01*
X523226Y453817D01*
X522021Y455022D01*
X520061Y455834D01*
X517939D01*
X515979Y455022D01*
X514478Y453521D01*
X513666Y451561D01*
Y449439D01*
X514478Y447478D01*
X515683Y446274D01*
X515866Y445500D01*
X515683Y444726D01*
X514478Y443521D01*
X513666Y441561D01*
Y439439D01*
X514478Y437478D01*
X515979Y435978D01*
X517939Y435166D01*
X520061D01*
X522021Y435978D01*
X523226Y437183D01*
X524000Y437365D01*
X524774Y437183D01*
X525979Y435978D01*
X527939Y435166D01*
X530061D01*
X532021Y435978D01*
X533522Y437478D01*
X534334Y439439D01*
Y441561D01*
X533522Y443521D01*
X532317Y444726D01*
X532135Y445500D01*
X532317Y446274D01*
X533522Y447478D01*
X534334Y449439D01*
Y451561D01*
X533522Y453521D01*
X532021Y455022D01*
X530061Y455834D01*
D02*
G37*
G36*
X196061Y458334D02*
X193939D01*
X191978Y457522D01*
X190478Y456021D01*
X189666Y454061D01*
Y451939D01*
X190478Y449979D01*
X191978Y448478D01*
X193939Y447666D01*
X196061D01*
X198021Y448478D01*
X199522Y449979D01*
X200334Y451939D01*
Y454061D01*
X199522Y456021D01*
X198021Y457522D01*
X196061Y458334D01*
D02*
G37*
G36*
X129061D02*
X126939D01*
X124979Y457522D01*
X123478Y456021D01*
X122666Y454061D01*
Y451939D01*
X123478Y449979D01*
X124979Y448478D01*
X126939Y447666D01*
X129061D01*
X131021Y448478D01*
X132522Y449979D01*
X133334Y451939D01*
Y454061D01*
X132522Y456021D01*
X131021Y457522D01*
X129061Y458334D01*
D02*
G37*
G36*
X419087Y463255D02*
X416913D01*
X414814Y462692D01*
X412931Y461606D01*
X411394Y460069D01*
X410308Y458186D01*
X409745Y456087D01*
Y453913D01*
X410308Y451814D01*
X411394Y449931D01*
X412931Y448394D01*
X414814Y447308D01*
X416913Y446745D01*
X419087D01*
X421186Y447308D01*
X423069Y448394D01*
X424606Y449931D01*
X425692Y451814D01*
X426255Y453913D01*
Y456087D01*
X425692Y458186D01*
X424606Y460069D01*
X423069Y461606D01*
X421186Y462692D01*
X419087Y463255D01*
D02*
G37*
G36*
X234087Y463255D02*
X231913D01*
X229814Y462692D01*
X227931Y461606D01*
X226394Y460069D01*
X225308Y458186D01*
X224745Y456087D01*
Y453913D01*
X225308Y451814D01*
X226394Y449931D01*
X227931Y448394D01*
X229814Y447308D01*
X231913Y446745D01*
X234087D01*
X236186Y447308D01*
X238069Y448394D01*
X239606Y449931D01*
X240692Y451814D01*
X241255Y453913D01*
Y456087D01*
X240692Y458186D01*
X239606Y460069D01*
X238069Y461606D01*
X236186Y462692D01*
X234087Y463255D01*
D02*
G37*
G36*
X320061Y452334D02*
X317939D01*
X315979Y451522D01*
X314478Y450022D01*
X313666Y448061D01*
Y445939D01*
X314478Y443979D01*
X315979Y442478D01*
X317939Y441666D01*
X320061D01*
X322021Y442478D01*
X323522Y443979D01*
X324334Y445939D01*
Y448061D01*
X323522Y450022D01*
X322021Y451522D01*
X320061Y452334D01*
D02*
G37*
G36*
X307061D02*
X304939D01*
X302978Y451522D01*
X301478Y450022D01*
X300666Y448061D01*
Y445939D01*
X301478Y443979D01*
X302978Y442478D01*
X304939Y441666D01*
X307061D01*
X309021Y442478D01*
X310522Y443979D01*
X311334Y445939D01*
Y448061D01*
X310522Y450022D01*
X309021Y451522D01*
X307061Y452334D01*
D02*
G37*
G36*
X294061D02*
X291939D01*
X289979Y451522D01*
X288478Y450022D01*
X287666Y448061D01*
Y445939D01*
X288478Y443979D01*
X289979Y442478D01*
X291939Y441666D01*
X294061D01*
X296021Y442478D01*
X297522Y443979D01*
X298334Y445939D01*
Y448061D01*
X297522Y450022D01*
X296021Y451522D01*
X294061Y452334D01*
D02*
G37*
G36*
X217061Y484334D02*
X214939D01*
X212978Y483522D01*
X211478Y482021D01*
X210666Y480061D01*
Y477939D01*
X211478Y475979D01*
X212978Y474478D01*
X213680Y474187D01*
Y472813D01*
X212978Y472522D01*
X211478Y471021D01*
X210666Y469061D01*
Y466939D01*
X211478Y464978D01*
X212683Y463774D01*
X212866Y463000D01*
X212683Y462226D01*
X211478Y461021D01*
X210666Y459061D01*
Y456939D01*
X211478Y454978D01*
X212978Y453478D01*
X213680Y453187D01*
Y451813D01*
X212978Y451522D01*
X211478Y450022D01*
X210666Y448061D01*
Y445939D01*
X211478Y443979D01*
X212978Y442478D01*
X214939Y441666D01*
X217061D01*
X219021Y442478D01*
X220522Y443979D01*
X221334Y445939D01*
Y448061D01*
X220522Y450022D01*
X219021Y451522D01*
X218320Y451813D01*
Y453187D01*
X219021Y453478D01*
X220522Y454978D01*
X221334Y456939D01*
Y459061D01*
X220522Y461021D01*
X219317Y462226D01*
X219135Y463000D01*
X219317Y463774D01*
X220522Y464978D01*
X221334Y466939D01*
Y469061D01*
X220522Y471021D01*
X219021Y472522D01*
X218320Y472813D01*
Y474187D01*
X219021Y474478D01*
X220522Y475979D01*
X221334Y477939D01*
Y480061D01*
X220522Y482021D01*
X219021Y483522D01*
X217061Y484334D01*
D02*
G37*
G36*
X617061Y438834D02*
X614939D01*
X612979Y438022D01*
X611774Y436817D01*
X611000Y436634D01*
X610226Y436817D01*
X609021Y438022D01*
X607061Y438834D01*
X604939D01*
X602979Y438022D01*
X601478Y436521D01*
X600666Y434561D01*
Y432439D01*
X601478Y430479D01*
X602683Y429274D01*
X602865Y428500D01*
X602683Y427726D01*
X601478Y426521D01*
X600666Y424561D01*
Y422439D01*
X601478Y420479D01*
X602979Y418978D01*
X604939Y418166D01*
X607061D01*
X609021Y418978D01*
X610226Y420183D01*
X611000Y420365D01*
X611774Y420183D01*
X612979Y418978D01*
X614939Y418166D01*
X617061D01*
X619021Y418978D01*
X620522Y420479D01*
X621334Y422439D01*
Y424561D01*
X620522Y426521D01*
X619317Y427726D01*
X619134Y428500D01*
X619317Y429274D01*
X620522Y430479D01*
X621334Y432439D01*
Y434561D01*
X620522Y436521D01*
X619021Y438022D01*
X617061Y438834D01*
D02*
G37*
G36*
X72314Y442363D02*
X70006D01*
X67778Y441766D01*
X65779Y440612D01*
X64148Y438981D01*
X62994Y436982D01*
X62397Y434754D01*
Y432446D01*
X62994Y430218D01*
X64148Y428219D01*
X65779Y426588D01*
X67778Y425434D01*
X70006Y424837D01*
X72314D01*
X74542Y425434D01*
X76541Y426588D01*
X78172Y428219D01*
X79326Y430218D01*
X79923Y432446D01*
Y434754D01*
X79326Y436982D01*
X78172Y438981D01*
X76541Y440612D01*
X74542Y441766D01*
X72314Y442363D01*
D02*
G37*
G36*
X51994D02*
X49686D01*
X47458Y441766D01*
X45459Y440612D01*
X43828Y438981D01*
X42674Y436982D01*
X42077Y434754D01*
Y432446D01*
X42674Y430218D01*
X43828Y428219D01*
X45459Y426588D01*
X47458Y425434D01*
X49686Y424837D01*
X51994D01*
X54222Y425434D01*
X56221Y426588D01*
X57852Y428219D01*
X59006Y430218D01*
X59603Y432446D01*
Y434754D01*
X59006Y436982D01*
X57852Y438981D01*
X56221Y440612D01*
X54222Y441766D01*
X51994Y442363D01*
D02*
G37*
G36*
X540497Y420334D02*
X538375D01*
X536415Y419522D01*
X535210Y418317D01*
X534436Y418134D01*
X533662Y418317D01*
X532458Y419522D01*
X530497Y420334D01*
X528375D01*
X526415Y419522D01*
X525210Y418317D01*
X524436Y418134D01*
X523662Y418317D01*
X522458Y419522D01*
X520497Y420334D01*
X518375D01*
X516415Y419522D01*
X514914Y418022D01*
X514102Y416061D01*
Y413939D01*
X514914Y411979D01*
X516119Y410774D01*
X516302Y410000D01*
X516119Y409226D01*
X514914Y408022D01*
X514102Y406061D01*
Y403939D01*
X514914Y401979D01*
X516119Y400774D01*
X516302Y400000D01*
X516119Y399226D01*
X514914Y398022D01*
X514102Y396061D01*
Y393939D01*
X514914Y391979D01*
X516415Y390478D01*
X518375Y389666D01*
X520497D01*
X522458Y390478D01*
X523662Y391683D01*
X524436Y391866D01*
X525210Y391683D01*
X526415Y390478D01*
X528375Y389666D01*
X530497D01*
X532458Y390478D01*
X533662Y391683D01*
X534436Y391866D01*
X535210Y391683D01*
X536415Y390478D01*
X538375Y389666D01*
X540497D01*
X542458Y390478D01*
X543958Y391979D01*
X544770Y393939D01*
Y396061D01*
X543958Y398022D01*
X542754Y399226D01*
X542571Y400000D01*
X542754Y400774D01*
X543958Y401979D01*
X544770Y403939D01*
Y406061D01*
X543958Y408022D01*
X542754Y409226D01*
X542571Y410000D01*
X542754Y410774D01*
X543958Y411979D01*
X544770Y413939D01*
Y416061D01*
X543958Y418022D01*
X542458Y419522D01*
X540497Y420334D01*
D02*
G37*
G36*
X251061Y388334D02*
X248939D01*
X246979Y387522D01*
X245774Y386317D01*
X245000Y386134D01*
X244226Y386317D01*
X243022Y387522D01*
X241061Y388334D01*
X238939D01*
X236978Y387522D01*
X235478Y386021D01*
X234666Y384061D01*
Y381939D01*
X235478Y379978D01*
X236957Y378500D01*
X235478Y377021D01*
X234666Y375061D01*
Y372939D01*
X235478Y370979D01*
X236957Y369500D01*
X235478Y368022D01*
X234666Y366061D01*
Y363939D01*
X235478Y361978D01*
X236957Y360500D01*
X235478Y359021D01*
X234666Y357061D01*
Y354939D01*
X235478Y352979D01*
X236978Y351478D01*
X238939Y350666D01*
X241061D01*
X243022Y351478D01*
X244226Y352683D01*
X245000Y352865D01*
X245774Y352683D01*
X246979Y351478D01*
X248939Y350666D01*
X251061D01*
X253022Y351478D01*
X254522Y352979D01*
X255334Y354939D01*
Y357061D01*
X254522Y359021D01*
X253043Y360500D01*
X254522Y361978D01*
X255334Y363939D01*
Y366061D01*
X254522Y368022D01*
X253043Y369500D01*
X254522Y370979D01*
X255334Y372939D01*
Y375061D01*
X254522Y377021D01*
X253043Y378500D01*
X254522Y379978D01*
X255334Y381939D01*
Y384061D01*
X254522Y386021D01*
X253022Y387522D01*
X251061Y388334D01*
D02*
G37*
G36*
X202061Y363334D02*
X199939D01*
X197978Y362522D01*
X196478Y361021D01*
X195666Y359061D01*
Y356939D01*
X196478Y354978D01*
X197978Y353478D01*
X199939Y352666D01*
X202061D01*
X204021Y353478D01*
X205522Y354978D01*
X206334Y356939D01*
Y359061D01*
X205522Y361021D01*
X204021Y362522D01*
X202061Y363334D01*
D02*
G37*
G36*
X394061Y358334D02*
X391939D01*
X389978Y357522D01*
X388478Y356021D01*
X387666Y354061D01*
Y351939D01*
X388478Y349978D01*
X389978Y348478D01*
X391939Y347666D01*
X394061D01*
X396021Y348478D01*
X397522Y349978D01*
X398334Y351939D01*
Y354061D01*
X397522Y356021D01*
X396021Y357522D01*
X394061Y358334D01*
D02*
G37*
G36*
X136061Y346334D02*
X133939D01*
X131979Y345522D01*
X130478Y344021D01*
X129666Y342061D01*
Y339939D01*
X130478Y337979D01*
X131979Y336478D01*
X133939Y335666D01*
X136061D01*
X138021Y336478D01*
X139522Y337979D01*
X140334Y339939D01*
Y342061D01*
X139522Y344021D01*
X138021Y345522D01*
X136061Y346334D01*
D02*
G37*
G36*
X200061Y345334D02*
X197939D01*
X195979Y344522D01*
X194478Y343022D01*
X193666Y341061D01*
Y338939D01*
X194478Y336978D01*
X195979Y335478D01*
X197939Y334666D01*
X200061D01*
X202022Y335478D01*
X203522Y336978D01*
X204334Y338939D01*
Y341061D01*
X203522Y343022D01*
X202022Y344522D01*
X200061Y345334D01*
D02*
G37*
G36*
X153061D02*
X150939D01*
X148979Y344522D01*
X147478Y343022D01*
X146666Y341061D01*
Y338939D01*
X147478Y336978D01*
X148979Y335478D01*
X150939Y334666D01*
X153061D01*
X155021Y335478D01*
X156522Y336978D01*
X157334Y338939D01*
Y341061D01*
X156522Y343022D01*
X155021Y344522D01*
X153061Y345334D01*
D02*
G37*
G36*
X168561Y347834D02*
X166439D01*
X164478Y347022D01*
X162978Y345522D01*
X162166Y343561D01*
Y341439D01*
X162978Y339478D01*
X164478Y337978D01*
X165316Y337631D01*
X164666Y336061D01*
Y333939D01*
X165478Y331978D01*
X166978Y330478D01*
X168939Y329666D01*
X171061D01*
X173021Y330478D01*
X174522Y331978D01*
X175334Y333939D01*
Y336061D01*
X174522Y338021D01*
X173021Y339522D01*
X172184Y339869D01*
X172834Y341439D01*
Y343561D01*
X172022Y345522D01*
X170522Y347022D01*
X168561Y347834D01*
D02*
G37*
G36*
X213561Y335334D02*
X211439D01*
X209478Y334522D01*
X207978Y333022D01*
X207166Y331061D01*
Y328939D01*
X207978Y326978D01*
X209478Y325478D01*
X211439Y324666D01*
X213561D01*
X215522Y325478D01*
X217022Y326978D01*
X217834Y328939D01*
Y331061D01*
X217022Y333022D01*
X215522Y334522D01*
X213561Y335334D01*
D02*
G37*
G36*
X190061Y327334D02*
X187939D01*
X185979Y326522D01*
X184478Y325021D01*
X183666Y323061D01*
Y320939D01*
X184478Y318979D01*
X185979Y317478D01*
X187939Y316666D01*
X190061D01*
X192022Y317478D01*
X193522Y318979D01*
X194334Y320939D01*
Y323061D01*
X193522Y325021D01*
X192022Y326522D01*
X190061Y327334D01*
D02*
G37*
G36*
X138561Y322834D02*
X136439D01*
X134479Y322022D01*
X132978Y320522D01*
X132166Y318561D01*
Y316439D01*
X132978Y314478D01*
X134479Y312978D01*
X136439Y312166D01*
X138561D01*
X140521Y312978D01*
X142022Y314478D01*
X142834Y316439D01*
Y318561D01*
X142022Y320522D01*
X140521Y322022D01*
X138561Y322834D01*
D02*
G37*
G36*
X244061Y322334D02*
X241939D01*
X239979Y321522D01*
X238478Y320022D01*
X237666Y318061D01*
Y315939D01*
X238478Y313979D01*
X239979Y312478D01*
X241939Y311666D01*
X244061D01*
X246022Y312478D01*
X247522Y313979D01*
X248334Y315939D01*
Y318061D01*
X247522Y320022D01*
X246022Y321522D01*
X244061Y322334D01*
D02*
G37*
G36*
X468561Y317834D02*
X466439D01*
X464478Y317022D01*
X462978Y315522D01*
X462166Y313561D01*
Y311439D01*
X462978Y309479D01*
X464478Y307978D01*
X466439Y307166D01*
X468561D01*
X470522Y307978D01*
X472022Y309479D01*
X472834Y311439D01*
Y313561D01*
X472022Y315522D01*
X470522Y317022D01*
X468561Y317834D01*
D02*
G37*
G36*
X244061Y310334D02*
X241939D01*
X239979Y309522D01*
X238478Y308022D01*
X237666Y306061D01*
Y303939D01*
X238478Y301979D01*
X239979Y300478D01*
X241939Y299666D01*
X244061D01*
X246022Y300478D01*
X247522Y301979D01*
X248334Y303939D01*
Y306061D01*
X247522Y308022D01*
X246022Y309522D01*
X244061Y310334D01*
D02*
G37*
G36*
X231061Y309334D02*
X228939D01*
X226979Y308522D01*
X225478Y307022D01*
X224666Y305061D01*
Y302939D01*
X225478Y300979D01*
X226979Y299478D01*
X228939Y298666D01*
X231061D01*
X233022Y299478D01*
X234522Y300979D01*
X235334Y302939D01*
Y305061D01*
X234522Y307022D01*
X233022Y308522D01*
X231061Y309334D01*
D02*
G37*
G36*
X468561Y305334D02*
X466439D01*
X464478Y304522D01*
X462978Y303022D01*
X462166Y301061D01*
Y298939D01*
X462978Y296979D01*
X464478Y295478D01*
X466439Y294666D01*
X468561D01*
X470522Y295478D01*
X472022Y296979D01*
X472834Y298939D01*
Y301061D01*
X472022Y303022D01*
X470522Y304522D01*
X468561Y305334D01*
D02*
G37*
G36*
X169061Y304334D02*
X166939D01*
X164979Y303522D01*
X163478Y302022D01*
X162666Y300061D01*
Y297939D01*
X163478Y295979D01*
X164979Y294478D01*
X166939Y293666D01*
X169061D01*
X171021Y294478D01*
X172522Y295979D01*
X173334Y297939D01*
Y300061D01*
X172522Y302022D01*
X171021Y303522D01*
X169061Y304334D01*
D02*
G37*
G36*
X139061Y303334D02*
X136939D01*
X134979Y302522D01*
X133478Y301021D01*
X132666Y299061D01*
Y296939D01*
X133478Y294979D01*
X134979Y293478D01*
X136939Y292666D01*
X139061D01*
X141021Y293478D01*
X142522Y294979D01*
X143334Y296939D01*
Y299061D01*
X142522Y301021D01*
X141021Y302522D01*
X139061Y303334D01*
D02*
G37*
G36*
X273061Y302334D02*
X270939D01*
X268979Y301522D01*
X267478Y300021D01*
X266666Y298061D01*
Y295939D01*
X267478Y293979D01*
X268979Y292478D01*
X270939Y291666D01*
X273061D01*
X275021Y292478D01*
X276522Y293979D01*
X277334Y295939D01*
Y298061D01*
X276522Y300021D01*
X275021Y301522D01*
X273061Y302334D01*
D02*
G37*
G36*
X190061Y293334D02*
X187939D01*
X185979Y292522D01*
X184478Y291021D01*
X183666Y289061D01*
Y286939D01*
X184478Y284979D01*
X185979Y283478D01*
X187939Y282666D01*
X190061D01*
X192022Y283478D01*
X193522Y284979D01*
X194334Y286939D01*
Y289061D01*
X193522Y291021D01*
X192022Y292522D01*
X190061Y293334D01*
D02*
G37*
G36*
X468561Y292834D02*
X466439D01*
X464478Y292022D01*
X462978Y290522D01*
X462166Y288561D01*
Y286439D01*
X462978Y284479D01*
X464478Y282978D01*
X466439Y282166D01*
X468561D01*
X470522Y282978D01*
X472022Y284479D01*
X472834Y286439D01*
Y288561D01*
X472022Y290522D01*
X470522Y292022D01*
X468561Y292834D01*
D02*
G37*
G36*
X264061Y284334D02*
X261939D01*
X259979Y283522D01*
X258478Y282022D01*
X257666Y280061D01*
Y277939D01*
X258478Y275979D01*
X259979Y274478D01*
X261939Y273666D01*
X264061D01*
X266021Y274478D01*
X267522Y275979D01*
X268334Y277939D01*
Y280061D01*
X267522Y282022D01*
X266021Y283522D01*
X264061Y284334D01*
D02*
G37*
G36*
X214811Y284084D02*
X212689D01*
X210729Y283272D01*
X209228Y281772D01*
X208416Y279811D01*
Y277689D01*
X209228Y275729D01*
X210729Y274228D01*
X212689Y273416D01*
X214811D01*
X216772Y274228D01*
X218272Y275729D01*
X219084Y277689D01*
Y279811D01*
X218272Y281772D01*
X216772Y283272D01*
X214811Y284084D01*
D02*
G37*
G36*
X173561Y282834D02*
X171439D01*
X169479Y282022D01*
X167978Y280522D01*
X167166Y278561D01*
Y276439D01*
X167978Y274478D01*
X169479Y272978D01*
X171439Y272166D01*
X173561D01*
X175522Y272978D01*
X177022Y274478D01*
X177834Y276439D01*
Y278561D01*
X177022Y280522D01*
X175522Y282022D01*
X173561Y282834D01*
D02*
G37*
G36*
X231061Y282334D02*
X228939D01*
X226978Y281522D01*
X225478Y280021D01*
X224666Y278061D01*
Y275939D01*
X225478Y273979D01*
X226978Y272478D01*
X228939Y271666D01*
X231061D01*
X233022Y272478D01*
X234522Y273979D01*
X235334Y275939D01*
Y278061D01*
X234522Y280021D01*
X233022Y281522D01*
X231061Y282334D01*
D02*
G37*
G36*
X468561Y280334D02*
X466439D01*
X464478Y279522D01*
X462978Y278022D01*
X462166Y276061D01*
Y273939D01*
X462978Y271979D01*
X464478Y270478D01*
X466439Y269666D01*
X468561D01*
X470522Y270478D01*
X472022Y271979D01*
X472834Y273939D01*
Y276061D01*
X472022Y278022D01*
X470522Y279522D01*
X468561Y280334D01*
D02*
G37*
G36*
X197061Y271334D02*
X194939D01*
X192978Y270522D01*
X191478Y269021D01*
X190666Y267061D01*
Y264939D01*
X191478Y262978D01*
X192978Y261478D01*
X194939Y260666D01*
X197061D01*
X199021Y261478D01*
X200522Y262978D01*
X201334Y264939D01*
Y267061D01*
X200522Y269021D01*
X199021Y270522D01*
X197061Y271334D01*
D02*
G37*
G36*
X137061Y269334D02*
X134939D01*
X132979Y268522D01*
X131478Y267022D01*
X130666Y265061D01*
Y262939D01*
X131478Y260979D01*
X132979Y259478D01*
X134939Y258666D01*
X137061D01*
X139022Y259478D01*
X140522Y260979D01*
X141334Y262939D01*
Y265061D01*
X140522Y267022D01*
X139022Y268522D01*
X137061Y269334D01*
D02*
G37*
G36*
X153061Y268334D02*
X150939D01*
X148979Y267522D01*
X147478Y266021D01*
X146666Y264061D01*
Y261939D01*
X147478Y259979D01*
X148979Y258478D01*
X150939Y257666D01*
X153061D01*
X155021Y258478D01*
X156522Y259979D01*
X157334Y261939D01*
Y264061D01*
X156522Y266021D01*
X155021Y267522D01*
X153061Y268334D01*
D02*
G37*
G36*
X165061Y263334D02*
X162939D01*
X160979Y262522D01*
X159478Y261021D01*
X158666Y259061D01*
Y256939D01*
X159478Y254979D01*
X160979Y253478D01*
X162939Y252666D01*
X165061D01*
X167022Y253478D01*
X168522Y254979D01*
X169334Y256939D01*
Y259061D01*
X168522Y261021D01*
X167022Y262522D01*
X165061Y263334D01*
D02*
G37*
G36*
X180061Y247334D02*
X177939D01*
X175979Y246522D01*
X174478Y245021D01*
X173666Y243061D01*
Y240939D01*
X174478Y238979D01*
X175979Y237478D01*
X177939Y236666D01*
X180061D01*
X182022Y237478D01*
X183522Y238979D01*
X184334Y240939D01*
Y243061D01*
X183522Y245021D01*
X182022Y246522D01*
X180061Y247334D01*
D02*
G37*
G36*
X317061Y233334D02*
X314939D01*
X312978Y232522D01*
X312000Y231543D01*
X311021Y232522D01*
X309061Y233334D01*
X306939D01*
X304979Y232522D01*
X304000Y231543D01*
X303022Y232522D01*
X301061Y233334D01*
X298939D01*
X296979Y232522D01*
X296500Y232043D01*
X296021Y232522D01*
X294061Y233334D01*
X291939D01*
X289979Y232522D01*
X289000Y231543D01*
X288021Y232522D01*
X286061Y233334D01*
X283939D01*
X281978Y232522D01*
X280478Y231021D01*
X279666Y229061D01*
Y226939D01*
X280478Y224979D01*
X280957Y224500D01*
X280478Y224021D01*
X279666Y222061D01*
Y219939D01*
X280478Y217978D01*
X281978Y216478D01*
X283939Y215666D01*
X286061D01*
X288021Y216478D01*
X289000Y217457D01*
X289979Y216478D01*
X291939Y215666D01*
X294061D01*
X296021Y216478D01*
X296500Y216957D01*
X296979Y216478D01*
X298939Y215666D01*
X301061D01*
X303022Y216478D01*
X304000Y217457D01*
X304979Y216478D01*
X306939Y215666D01*
X309061D01*
X311021Y216478D01*
X312000Y217457D01*
X312978Y216478D01*
X314939Y215666D01*
X317061D01*
X319021Y216478D01*
X319681Y217137D01*
X320478Y216978D01*
X321978Y215478D01*
X323939Y214666D01*
X326061D01*
X328021Y215478D01*
X329000Y216457D01*
X329978Y215478D01*
X331939Y214666D01*
X334061D01*
X336021Y215478D01*
X336500Y215957D01*
X336978Y215478D01*
X338939Y214666D01*
X341061D01*
X343022Y215478D01*
X344000Y216457D01*
X344978Y215478D01*
X346939Y214666D01*
X349061D01*
X351021Y215478D01*
X352000Y216457D01*
X352979Y215478D01*
X354939Y214666D01*
X357061D01*
X359021Y215478D01*
X360522Y216978D01*
X361334Y218939D01*
Y221061D01*
X360522Y223021D01*
X360043Y223500D01*
X360522Y223979D01*
X361334Y225939D01*
Y228061D01*
X360522Y230021D01*
X359021Y231522D01*
X357061Y232334D01*
X354939D01*
X352979Y231522D01*
X352000Y230543D01*
X351021Y231522D01*
X349061Y232334D01*
X346939D01*
X344978Y231522D01*
X344000Y230543D01*
X343022Y231522D01*
X341061Y232334D01*
X338939D01*
X336978Y231522D01*
X336500Y231043D01*
X336021Y231522D01*
X334061Y232334D01*
X331939D01*
X329978Y231522D01*
X329000Y230543D01*
X328021Y231522D01*
X326061Y232334D01*
X323939D01*
X321978Y231522D01*
X321319Y230863D01*
X320522Y231021D01*
X319021Y232522D01*
X317061Y233334D01*
D02*
G37*
G36*
X215061Y254334D02*
X212939D01*
X210979Y253522D01*
X209478Y252022D01*
X208666Y250061D01*
Y247939D01*
X209478Y245979D01*
X210979Y244478D01*
X211202Y243355D01*
X210388Y242541D01*
X209234Y240542D01*
X208637Y238314D01*
Y236006D01*
X209234Y233778D01*
X210388Y231779D01*
X212019Y230148D01*
X214018Y228994D01*
X216246Y228397D01*
X218554D01*
X220782Y228994D01*
X222781Y230148D01*
X224412Y231779D01*
X225566Y233778D01*
X226163Y236006D01*
Y238314D01*
X225566Y240542D01*
X224412Y242541D01*
X222781Y244172D01*
X220782Y245326D01*
X219742Y245605D01*
X218995Y247120D01*
X219334Y247939D01*
Y250061D01*
X218522Y252022D01*
X217022Y253522D01*
X215061Y254334D01*
D02*
G37*
G36*
X230061Y232334D02*
X227939D01*
X225979Y231522D01*
X224478Y230021D01*
X223666Y228061D01*
Y225939D01*
X224478Y223979D01*
X225979Y222478D01*
X227939Y221666D01*
X230061D01*
X232022Y222478D01*
X233522Y223979D01*
X234334Y225939D01*
Y228061D01*
X233522Y230021D01*
X232022Y231522D01*
X230061Y232334D01*
D02*
G37*
G36*
X167754Y235763D02*
X165446D01*
X163218Y235166D01*
X161219Y234012D01*
X159588Y232381D01*
X158434Y230382D01*
X157837Y228154D01*
Y225846D01*
X158434Y223618D01*
X159588Y221619D01*
X161219Y219988D01*
X163218Y218834D01*
X165446Y218237D01*
X167754D01*
X169982Y218834D01*
X171981Y219988D01*
X173612Y221619D01*
X174766Y223618D01*
X175363Y225846D01*
Y228154D01*
X174766Y230382D01*
X173612Y232381D01*
X171981Y234012D01*
X169982Y235166D01*
X167754Y235763D01*
D02*
G37*
G36*
X260061Y221334D02*
X257939D01*
X255979Y220522D01*
X254478Y219021D01*
X253666Y217061D01*
Y214939D01*
X254478Y212978D01*
X255979Y211478D01*
X257939Y210666D01*
X260061D01*
X262021Y211478D01*
X263522Y212978D01*
X264334Y214939D01*
Y217061D01*
X263522Y219021D01*
X262021Y220522D01*
X260061Y221334D01*
D02*
G37*
G36*
X218554Y225603D02*
X216246D01*
X214018Y225006D01*
X212019Y223852D01*
X210388Y222221D01*
X209234Y220222D01*
X208637Y217994D01*
Y215686D01*
X209234Y213458D01*
X210388Y211459D01*
X212019Y209828D01*
X214018Y208674D01*
X216246Y208077D01*
X218554D01*
X220782Y208674D01*
X222781Y209828D01*
X224412Y211459D01*
X225566Y213458D01*
X226163Y215686D01*
Y217994D01*
X225566Y220222D01*
X224412Y222221D01*
X222781Y223852D01*
X220782Y225006D01*
X218554Y225603D01*
D02*
G37*
G36*
X180061Y217334D02*
X177939D01*
X175979Y216522D01*
X174478Y215021D01*
X173666Y213061D01*
Y210939D01*
X174478Y208979D01*
X175979Y207478D01*
X177939Y206666D01*
X180061D01*
X182022Y207478D01*
X183522Y208979D01*
X184334Y210939D01*
Y213061D01*
X183522Y215021D01*
X182022Y216522D01*
X180061Y217334D01*
D02*
G37*
G36*
X237061Y212334D02*
X234939D01*
X232979Y211522D01*
X231478Y210021D01*
X230666Y208061D01*
Y205939D01*
X231478Y203979D01*
X232979Y202478D01*
X234939Y201666D01*
X237061D01*
X239021Y202478D01*
X240522Y203979D01*
X241334Y205939D01*
Y208061D01*
X240522Y210021D01*
X239021Y211522D01*
X237061Y212334D01*
D02*
G37*
G36*
X369061Y202334D02*
X366939D01*
X364978Y201522D01*
X363478Y200021D01*
X362666Y198061D01*
Y197812D01*
X361610Y197107D01*
X361061Y197334D01*
X358939D01*
X356978Y196522D01*
X355478Y195021D01*
X354666Y193061D01*
Y190939D01*
X355478Y188979D01*
X356978Y187478D01*
X358939Y186666D01*
X361061D01*
X363021Y187478D01*
X364522Y188979D01*
X365334Y190939D01*
Y191188D01*
X366390Y191893D01*
X366939Y191666D01*
X369061D01*
X371021Y192478D01*
X372522Y193979D01*
X373334Y195939D01*
Y198061D01*
X372522Y200021D01*
X371021Y201522D01*
X369061Y202334D01*
D02*
G37*
G36*
X214061Y206334D02*
X211939D01*
X209979Y205522D01*
X208478Y204021D01*
X207666Y202061D01*
Y199939D01*
X208478Y197978D01*
X209979Y196478D01*
X211939Y195666D01*
X214061D01*
X216021Y196478D01*
X217522Y197978D01*
X218334Y199939D01*
Y202061D01*
X217522Y204021D01*
X216021Y205522D01*
X214061Y206334D01*
D02*
G37*
G36*
X445061Y198334D02*
X442939D01*
X440979Y197522D01*
X439478Y196021D01*
X438666Y194061D01*
Y191939D01*
X439478Y189979D01*
X440979Y188478D01*
X442939Y187666D01*
X445061D01*
X447021Y188478D01*
X448522Y189979D01*
X449334Y191939D01*
Y194061D01*
X448522Y196021D01*
X447021Y197522D01*
X445061Y198334D01*
D02*
G37*
G36*
X165061Y198334D02*
X162939D01*
X160979Y197522D01*
X159478Y196021D01*
X158666Y194061D01*
Y191939D01*
X159478Y189979D01*
X160979Y188478D01*
X162939Y187666D01*
X165061D01*
X167022Y188478D01*
X168522Y189979D01*
X169334Y191939D01*
Y194061D01*
X168522Y196021D01*
X167022Y197522D01*
X165061Y198334D01*
D02*
G37*
G36*
X225061Y197334D02*
X222939D01*
X220979Y196522D01*
X219478Y195021D01*
X218666Y193061D01*
Y190939D01*
X219478Y188979D01*
X220979Y187478D01*
X222939Y186666D01*
X225061D01*
X227022Y187478D01*
X228522Y188979D01*
X229334Y190939D01*
Y193061D01*
X228522Y195021D01*
X227022Y196522D01*
X225061Y197334D01*
D02*
G37*
G36*
X445061Y186334D02*
X442939D01*
X440979Y185522D01*
X439478Y184021D01*
X438666Y182061D01*
Y179939D01*
X439478Y177979D01*
X440979Y176478D01*
X442939Y175666D01*
X445061D01*
X447021Y176478D01*
X448522Y177979D01*
X449334Y179939D01*
Y182061D01*
X448522Y184021D01*
X447021Y185522D01*
X445061Y186334D01*
D02*
G37*
G36*
X432061Y185334D02*
X429939D01*
X427979Y184522D01*
X426478Y183022D01*
X425666Y181061D01*
Y178939D01*
X426478Y176979D01*
X427979Y175478D01*
X429939Y174666D01*
X432061D01*
X434021Y175478D01*
X435522Y176979D01*
X436334Y178939D01*
Y181061D01*
X435522Y183022D01*
X434021Y184522D01*
X432061Y185334D01*
D02*
G37*
G36*
X407061Y180334D02*
X404939D01*
X402979Y179522D01*
X401478Y178021D01*
X400666Y176061D01*
Y173939D01*
X401478Y171978D01*
X402979Y170478D01*
X404939Y169666D01*
X407061D01*
X409021Y170478D01*
X410522Y171978D01*
X411334Y173939D01*
Y176061D01*
X410522Y178021D01*
X409021Y179522D01*
X407061Y180334D01*
D02*
G37*
G36*
X327061Y180334D02*
X324939D01*
X322979Y179522D01*
X321478Y178022D01*
X320666Y176061D01*
Y173939D01*
X321478Y171978D01*
X322979Y170478D01*
X324939Y169666D01*
X327061D01*
X329021Y170478D01*
X329681Y171137D01*
X330478Y170979D01*
X331978Y169478D01*
X333939Y168666D01*
X336061D01*
X338021Y169478D01*
X339522Y170979D01*
X340334Y172939D01*
Y175061D01*
X339522Y177022D01*
X338021Y178522D01*
X336061Y179334D01*
X333939D01*
X331978Y178522D01*
X331319Y177863D01*
X330522Y178022D01*
X329021Y179522D01*
X327061Y180334D01*
D02*
G37*
G36*
X390061Y166334D02*
X387939D01*
X385979Y165522D01*
X384478Y164021D01*
X383666Y162061D01*
Y159939D01*
X384478Y157978D01*
X385979Y156478D01*
X387939Y155666D01*
X390061D01*
X392021Y156478D01*
X393522Y157978D01*
X394334Y159939D01*
Y162061D01*
X393522Y164021D01*
X392021Y165522D01*
X390061Y166334D01*
D02*
G37*
G36*
X188061Y164334D02*
X185939D01*
X183979Y163522D01*
X182478Y162022D01*
X181666Y160061D01*
Y157939D01*
X182478Y155979D01*
X183979Y154478D01*
X185939Y153666D01*
X188061D01*
X190021Y154478D01*
X191522Y155979D01*
X192334Y157939D01*
Y160061D01*
X191522Y162022D01*
X190021Y163522D01*
X188061Y164334D01*
D02*
G37*
G36*
X345061Y161334D02*
X342939D01*
X340979Y160522D01*
X339478Y159021D01*
X338666Y157061D01*
Y154939D01*
X339478Y152978D01*
X340979Y151478D01*
X342939Y150666D01*
X345061D01*
X347021Y151478D01*
X348522Y152978D01*
X349334Y154939D01*
Y157061D01*
X348522Y159021D01*
X347021Y160522D01*
X345061Y161334D01*
D02*
G37*
G36*
X315061Y160334D02*
X312939D01*
X310979Y159522D01*
X309478Y158021D01*
X308666Y156061D01*
Y153939D01*
X309478Y151979D01*
X310979Y150478D01*
X312939Y149666D01*
X315061D01*
X317022Y150478D01*
X318522Y151979D01*
X319334Y153939D01*
Y156061D01*
X318522Y158021D01*
X317022Y159522D01*
X315061Y160334D01*
D02*
G37*
G36*
X280061Y147334D02*
X277939D01*
X275979Y146522D01*
X274478Y145021D01*
X273666Y143061D01*
Y140939D01*
X274478Y138979D01*
X275979Y137478D01*
X277939Y136666D01*
X280061D01*
X282022Y137478D01*
X283522Y138979D01*
X284334Y140939D01*
Y143061D01*
X283522Y145021D01*
X282022Y146522D01*
X280061Y147334D01*
D02*
G37*
G36*
X267061D02*
X264939D01*
X262978Y146522D01*
X261478Y145021D01*
X260666Y143061D01*
Y140939D01*
X261478Y138979D01*
X262978Y137478D01*
X264939Y136666D01*
X267061D01*
X269021Y137478D01*
X270522Y138979D01*
X271334Y140939D01*
Y143061D01*
X270522Y145021D01*
X269021Y146522D01*
X267061Y147334D01*
D02*
G37*
G36*
X305254Y146273D02*
X302946D01*
X300718Y145676D01*
X298719Y144522D01*
X297088Y142891D01*
X295934Y140892D01*
X295337Y138664D01*
Y136356D01*
X295934Y134128D01*
X297088Y132129D01*
X298719Y130498D01*
X300718Y129344D01*
X302946Y128747D01*
X305254D01*
X307482Y129344D01*
X309481Y130498D01*
X311112Y132129D01*
X312266Y134128D01*
X312863Y136356D01*
Y138664D01*
X312266Y140892D01*
X311112Y142891D01*
X309481Y144522D01*
X307482Y145676D01*
X305254Y146273D01*
D02*
G37*
G36*
X181061Y139334D02*
X178939D01*
X176978Y138522D01*
X175478Y137022D01*
X174666Y135061D01*
Y132939D01*
X175478Y130979D01*
X176978Y129478D01*
X178939Y128666D01*
X181061D01*
X183022Y129478D01*
X184522Y130979D01*
X185334Y132939D01*
Y135061D01*
X184522Y137022D01*
X183022Y138522D01*
X181061Y139334D01*
D02*
G37*
G36*
X471061Y137334D02*
X468939D01*
X466978Y136522D01*
X465478Y135021D01*
X464666Y133061D01*
Y130939D01*
X465478Y128979D01*
X466978Y127478D01*
X468939Y126666D01*
X471061D01*
X473022Y127478D01*
X474522Y128979D01*
X475334Y130939D01*
Y133061D01*
X474522Y135021D01*
X473022Y136522D01*
X471061Y137334D01*
D02*
G37*
G36*
X427061D02*
X424939D01*
X422979Y136522D01*
X421478Y135021D01*
X420666Y133061D01*
Y130939D01*
X421478Y128979D01*
X422979Y127478D01*
X424939Y126666D01*
X427061D01*
X429021Y127478D01*
X430522Y128979D01*
X431334Y130939D01*
Y133061D01*
X430522Y135021D01*
X429021Y136522D01*
X427061Y137334D01*
D02*
G37*
G36*
X598061Y124334D02*
X595939D01*
X593979Y123522D01*
X593000Y122543D01*
X592021Y123522D01*
X590061Y124334D01*
X587939D01*
X585979Y123522D01*
X584478Y122021D01*
X583666Y120061D01*
Y117939D01*
X584478Y115978D01*
X585957Y114500D01*
X584478Y113021D01*
X583666Y111061D01*
Y108939D01*
X584478Y106979D01*
X585957Y105500D01*
X584478Y104022D01*
X583666Y102061D01*
Y99939D01*
X584478Y97978D01*
X585979Y96478D01*
X587939Y95666D01*
X590061D01*
X592021Y96478D01*
X593000Y97457D01*
X593979Y96478D01*
X595939Y95666D01*
X598061D01*
X600022Y96478D01*
X601522Y97978D01*
X602334Y99939D01*
Y102061D01*
X601522Y104022D01*
X600043Y105500D01*
X601522Y106979D01*
X602334Y108939D01*
Y111061D01*
X601522Y113021D01*
X600043Y114500D01*
X601522Y115978D01*
X602334Y117939D01*
Y120061D01*
X601522Y122021D01*
X600022Y123522D01*
X598061Y124334D01*
D02*
G37*
G36*
X499061Y131334D02*
X496939D01*
X494978Y130522D01*
X493478Y129022D01*
X492666Y127061D01*
Y124939D01*
X493478Y122978D01*
X494978Y121478D01*
X496939Y120666D01*
X499061D01*
X501021Y121478D01*
X502522Y122978D01*
X503334Y124939D01*
Y127061D01*
X502522Y129022D01*
X501021Y130522D01*
X499061Y131334D01*
D02*
G37*
G36*
X382061Y125334D02*
X379939D01*
X377979Y124522D01*
X376478Y123021D01*
X375666Y121061D01*
Y118939D01*
X376478Y116979D01*
X377979Y115478D01*
X379939Y114666D01*
X382061D01*
X384021Y115478D01*
X385522Y116979D01*
X386334Y118939D01*
Y121061D01*
X385522Y123021D01*
X384021Y124522D01*
X382061Y125334D01*
D02*
G37*
G36*
X151061Y123334D02*
X148939D01*
X146979Y122522D01*
X145478Y121021D01*
X144666Y119061D01*
Y116939D01*
X145478Y114979D01*
X146979Y113478D01*
X148939Y112666D01*
X151061D01*
X153021Y113478D01*
X154522Y114979D01*
X155334Y116939D01*
Y119061D01*
X154522Y121021D01*
X153021Y122522D01*
X151061Y123334D01*
D02*
G37*
G36*
X454061Y129334D02*
X451939D01*
X449979Y128522D01*
X448478Y127022D01*
X447666Y125061D01*
Y122939D01*
X448478Y120978D01*
X449957Y119500D01*
X448478Y118021D01*
X447666Y116061D01*
Y113939D01*
X448478Y111979D01*
X449979Y110478D01*
X451939Y109666D01*
X454061D01*
X456021Y110478D01*
X457522Y111979D01*
X458334Y113939D01*
Y116061D01*
X457522Y118021D01*
X456043Y119500D01*
X457522Y120978D01*
X458334Y122939D01*
Y125061D01*
X457522Y127022D01*
X456021Y128522D01*
X454061Y129334D01*
D02*
G37*
G36*
X254454Y136113D02*
X252146D01*
X249918Y135516D01*
X247919Y134362D01*
X246288Y132731D01*
X245134Y130732D01*
X244537Y128504D01*
Y126196D01*
X245134Y123968D01*
X246288Y121969D01*
X247919Y120338D01*
X249918Y119184D01*
X252146Y118587D01*
X254384D01*
X254610Y118373D01*
X255257Y117487D01*
X254666Y116061D01*
Y113939D01*
X255478Y111979D01*
X256978Y110478D01*
X258939Y109666D01*
X261061D01*
X263021Y110478D01*
X264522Y111979D01*
X265334Y113939D01*
Y116061D01*
X264522Y118021D01*
X263021Y119522D01*
X261061Y120334D01*
X260473D01*
X259947Y121604D01*
X260312Y121969D01*
X261466Y123968D01*
X262063Y126196D01*
Y128504D01*
X261466Y130732D01*
X260312Y132731D01*
X258681Y134362D01*
X256682Y135516D01*
X254454Y136113D01*
D02*
G37*
G36*
X305254Y125953D02*
X302946D01*
X300718Y125356D01*
X298719Y124202D01*
X297088Y122571D01*
X295934Y120572D01*
X295337Y118344D01*
Y116036D01*
X295934Y113808D01*
X297088Y111809D01*
X298719Y110178D01*
X300718Y109024D01*
X302946Y108427D01*
X305254D01*
X307482Y109024D01*
X309481Y110178D01*
X311112Y111809D01*
X312266Y113808D01*
X312863Y116036D01*
Y118344D01*
X312266Y120572D01*
X311112Y122571D01*
X309481Y124202D01*
X307482Y125356D01*
X305254Y125953D01*
D02*
G37*
G36*
X276061Y114334D02*
X273939D01*
X271979Y113522D01*
X270478Y112022D01*
X269666Y110061D01*
Y107939D01*
X270478Y105979D01*
X271979Y104478D01*
X273939Y103666D01*
X276061D01*
X278022Y104478D01*
X279522Y105979D01*
X280334Y107939D01*
Y110061D01*
X279522Y112022D01*
X278022Y113522D01*
X276061Y114334D01*
D02*
G37*
G36*
X114561Y105834D02*
X112439D01*
X110479Y105022D01*
X108978Y103521D01*
X108687Y102820D01*
X107313D01*
X107022Y103521D01*
X105521Y105022D01*
X103561Y105834D01*
X101439D01*
X99479Y105022D01*
X97978Y103521D01*
X97687Y102820D01*
X96313D01*
X96022Y103521D01*
X94522Y105022D01*
X92561Y105834D01*
X90439D01*
X88479Y105022D01*
X87500Y104043D01*
X87022Y104522D01*
X85061Y105334D01*
X82939D01*
X80979Y104522D01*
X79478Y103021D01*
X78666Y101061D01*
Y98939D01*
X79478Y96979D01*
X80979Y95478D01*
X82939Y94666D01*
X85061D01*
X87022Y95478D01*
X88000Y96457D01*
X88479Y95978D01*
X90439Y95166D01*
X92561D01*
X94522Y95978D01*
X96022Y97479D01*
X96313Y98180D01*
X97687D01*
X97978Y97479D01*
X99479Y95978D01*
X101439Y95166D01*
X103561D01*
X105521Y95978D01*
X107022Y97479D01*
X107313Y98180D01*
X108687D01*
X108978Y97479D01*
X110479Y95978D01*
X112439Y95166D01*
X114561D01*
X116522Y95978D01*
X118022Y97479D01*
X118493Y98615D01*
X119834Y98534D01*
X120478Y96979D01*
X121979Y95478D01*
X123939Y94666D01*
X126061D01*
X128021Y95478D01*
X129522Y96979D01*
X130334Y98939D01*
Y101061D01*
X129522Y103021D01*
X128021Y104522D01*
X126061Y105334D01*
X123939D01*
X121979Y104522D01*
X120478Y103021D01*
X120007Y101885D01*
X118666Y101966D01*
X118022Y103521D01*
X116522Y105022D01*
X114561Y105834D01*
D02*
G37*
G36*
X142061Y106334D02*
X139939D01*
X137978Y105522D01*
X136478Y104022D01*
X135666Y102061D01*
Y99939D01*
X136478Y97978D01*
X137978Y96478D01*
X139939Y95666D01*
X142061D01*
X144022Y96478D01*
X145522Y97978D01*
X146334Y99939D01*
Y102061D01*
X145522Y104022D01*
X144022Y105522D01*
X142061Y106334D01*
D02*
G37*
G36*
X383061Y98334D02*
X380939D01*
X378979Y97522D01*
X377478Y96021D01*
X376666Y94061D01*
Y91939D01*
X377478Y89979D01*
X378979Y88478D01*
X380939Y87666D01*
X383061D01*
X385022Y88478D01*
X386522Y89979D01*
X387334Y91939D01*
Y94061D01*
X386522Y96021D01*
X385022Y97522D01*
X383061Y98334D01*
D02*
G37*
G36*
X249061Y91334D02*
X246939D01*
X244979Y90522D01*
X243478Y89022D01*
X242666Y87061D01*
Y84939D01*
X243478Y82978D01*
X244979Y81478D01*
X246939Y80666D01*
X249061D01*
X251021Y81478D01*
X252522Y82978D01*
X253334Y84939D01*
Y87061D01*
X252522Y89022D01*
X251021Y90522D01*
X249061Y91334D01*
D02*
G37*
G36*
X222061D02*
X219939D01*
X217978Y90522D01*
X216478Y89022D01*
X215666Y87061D01*
Y84939D01*
X216478Y82978D01*
X217978Y81478D01*
X219939Y80666D01*
X222061D01*
X224021Y81478D01*
X225522Y82978D01*
X226334Y84939D01*
Y87061D01*
X225522Y89022D01*
X224021Y90522D01*
X222061Y91334D01*
D02*
G37*
G36*
X203061Y90334D02*
X200939D01*
X198979Y89522D01*
X197478Y88021D01*
X196666Y86061D01*
Y83939D01*
X197478Y81979D01*
X198979Y80478D01*
X200939Y79666D01*
X203061D01*
X205021Y80478D01*
X206522Y81979D01*
X207334Y83939D01*
Y86061D01*
X206522Y88021D01*
X205021Y89522D01*
X203061Y90334D01*
D02*
G37*
G36*
X134061Y87334D02*
X131939D01*
X129979Y86522D01*
X128478Y85021D01*
X127666Y83061D01*
Y80939D01*
X128478Y78979D01*
X129979Y77478D01*
X131939Y76666D01*
X134061D01*
X136021Y77478D01*
X137522Y78979D01*
X138334Y80939D01*
Y83061D01*
X137522Y85021D01*
X136021Y86522D01*
X134061Y87334D01*
D02*
G37*
G36*
X176061Y82334D02*
X173939D01*
X171978Y81522D01*
X170478Y80021D01*
X169666Y78061D01*
Y75939D01*
X170478Y73979D01*
X171978Y72478D01*
X173939Y71666D01*
X176061D01*
X178022Y72478D01*
X179522Y73979D01*
X180334Y75939D01*
Y78061D01*
X179522Y80021D01*
X178022Y81522D01*
X176061Y82334D01*
D02*
G37*
G36*
X203061Y78334D02*
X200939D01*
X198979Y77522D01*
X197478Y76021D01*
X196666Y74061D01*
Y71939D01*
X197478Y69978D01*
X198979Y68478D01*
X200939Y67666D01*
X203061D01*
X205021Y68478D01*
X206522Y69978D01*
X207334Y71939D01*
Y74061D01*
X206522Y76021D01*
X205021Y77522D01*
X203061Y78334D01*
D02*
G37*
G36*
X77061Y87334D02*
X74939D01*
X72979Y86522D01*
X71478Y85021D01*
X70666Y83061D01*
Y80939D01*
X71478Y78979D01*
X72957Y77500D01*
X71478Y76021D01*
X70666Y74061D01*
Y71939D01*
X71478Y69978D01*
X72979Y68478D01*
X74939Y67666D01*
X77061D01*
X79022Y68478D01*
X80522Y69978D01*
X81334Y71939D01*
Y74061D01*
X80522Y76021D01*
X79043Y77500D01*
X80522Y78979D01*
X81334Y80939D01*
Y83061D01*
X80522Y85021D01*
X79022Y86522D01*
X77061Y87334D01*
D02*
G37*
G36*
X283912Y69275D02*
X281404D01*
X278981Y68626D01*
X276824Y67380D01*
X282658Y61546D01*
X288492Y67380D01*
X286334Y68626D01*
X283912Y69275D01*
D02*
G37*
G36*
X249061Y67334D02*
X246939D01*
X244979Y66522D01*
X243478Y65022D01*
X242666Y63061D01*
Y60939D01*
X243478Y58979D01*
X244979Y57478D01*
X246939Y56666D01*
X249061D01*
X251021Y57478D01*
X252522Y58979D01*
X253334Y60939D01*
Y63061D01*
X252522Y65022D01*
X251021Y66522D01*
X249061Y67334D01*
D02*
G37*
G36*
X275028Y65584D02*
X273782Y63426D01*
X273133Y61004D01*
Y58496D01*
X273782Y56073D01*
X275028Y53916D01*
X280862Y59750D01*
X275028Y65584D01*
D02*
G37*
G36*
X290288Y65584D02*
X284454Y59750D01*
X290288Y53916D01*
X291534Y56073D01*
X292183Y58496D01*
Y61004D01*
X291534Y63426D01*
X290288Y65584D01*
D02*
G37*
G36*
X465061Y64334D02*
X462939D01*
X460979Y63522D01*
X459478Y62021D01*
X458666Y60061D01*
Y57939D01*
X459478Y55979D01*
X460979Y54478D01*
X462939Y53666D01*
X465061D01*
X467021Y54478D01*
X468522Y55979D01*
X469334Y57939D01*
Y60061D01*
X468522Y62021D01*
X467021Y63522D01*
X465061Y64334D01*
D02*
G37*
G36*
X363745Y68005D02*
X361571D01*
X359472Y67442D01*
X357589Y66356D01*
X356052Y64819D01*
X354966Y62936D01*
X354403Y60837D01*
Y58663D01*
X354966Y56564D01*
X356052Y54681D01*
X357589Y53144D01*
X359472Y52058D01*
X361571Y51495D01*
X363745D01*
X365844Y52058D01*
X367727Y53144D01*
X369264Y54681D01*
X370350Y56564D01*
X370913Y58663D01*
Y60837D01*
X370350Y62936D01*
X369264Y64819D01*
X367727Y66356D01*
X365844Y67442D01*
X363745Y68005D01*
D02*
G37*
G36*
X343745D02*
X341571D01*
X339472Y67442D01*
X337589Y66356D01*
X336052Y64819D01*
X334966Y62936D01*
X334403Y60837D01*
Y58663D01*
X334966Y56564D01*
X336052Y54681D01*
X337589Y53144D01*
X339472Y52058D01*
X341571Y51495D01*
X343745D01*
X345844Y52058D01*
X347727Y53144D01*
X349264Y54681D01*
X350350Y56564D01*
X350913Y58663D01*
Y60837D01*
X350350Y62936D01*
X349264Y64819D01*
X347727Y66356D01*
X345844Y67442D01*
X343745Y68005D01*
D02*
G37*
G36*
X323745D02*
X321571D01*
X319472Y67442D01*
X317589Y66356D01*
X316052Y64819D01*
X314965Y62936D01*
X314403Y60837D01*
Y58663D01*
X314965Y56564D01*
X316052Y54681D01*
X317589Y53144D01*
X319472Y52058D01*
X321571Y51495D01*
X323745D01*
X325844Y52058D01*
X327727Y53144D01*
X329264Y54681D01*
X330350Y56564D01*
X330913Y58663D01*
Y60837D01*
X330350Y62936D01*
X329264Y64819D01*
X327727Y66356D01*
X325844Y67442D01*
X323745Y68005D01*
D02*
G37*
G36*
X303745D02*
X301571D01*
X299472Y67442D01*
X297589Y66356D01*
X296052Y64819D01*
X294966Y62936D01*
X294403Y60837D01*
Y58663D01*
X294966Y56564D01*
X296052Y54681D01*
X297589Y53144D01*
X299472Y52058D01*
X301571Y51495D01*
X303745D01*
X305844Y52058D01*
X307727Y53144D01*
X309264Y54681D01*
X310350Y56564D01*
X310913Y58663D01*
Y60837D01*
X310350Y62936D01*
X309264Y64819D01*
X307727Y66356D01*
X305844Y67442D01*
X303745Y68005D01*
D02*
G37*
G36*
X143061Y66334D02*
X140939D01*
X138979Y65522D01*
X137478Y64022D01*
X136666Y62061D01*
Y61738D01*
X136061Y61334D01*
X133939D01*
X131979Y60522D01*
X130478Y59021D01*
X129666Y57061D01*
Y54939D01*
X130478Y52979D01*
X131979Y51478D01*
X133939Y50666D01*
X136061D01*
X138021Y51478D01*
X139522Y52979D01*
X140334Y54939D01*
Y55262D01*
X140939Y55666D01*
X143061D01*
X145021Y56478D01*
X146522Y57979D01*
X147334Y59939D01*
Y62061D01*
X146522Y64022D01*
X145021Y65522D01*
X143061Y66334D01*
D02*
G37*
G36*
X282658Y57954D02*
X276824Y52120D01*
X278981Y50874D01*
X281404Y50225D01*
X283912D01*
X286334Y50874D01*
X288492Y52120D01*
X282658Y57954D01*
D02*
G37*
G36*
X223061Y79334D02*
X220939D01*
X218979Y78522D01*
X217478Y77021D01*
X216666Y75061D01*
Y72939D01*
X217478Y70978D01*
X218878Y69579D01*
X218899Y69145D01*
X218680Y68227D01*
X216978Y67522D01*
X215478Y66021D01*
X214666Y64061D01*
Y61939D01*
X215478Y59978D01*
X216457Y59000D01*
X215478Y58021D01*
X214666Y56061D01*
Y53939D01*
X215478Y51979D01*
X216978Y50478D01*
X218939Y49666D01*
X221061D01*
X223021Y50478D01*
X224522Y51979D01*
X225334Y53939D01*
Y56061D01*
X224522Y58021D01*
X223543Y59000D01*
X224522Y59978D01*
X225334Y61939D01*
Y64061D01*
X224522Y66021D01*
X223122Y67421D01*
X223101Y67855D01*
X223320Y68773D01*
X225021Y69478D01*
X226522Y70978D01*
X227334Y72939D01*
Y75061D01*
X226522Y77021D01*
X225021Y78522D01*
X223061Y79334D01*
D02*
G37*
G36*
X149061Y52334D02*
X146939D01*
X144979Y51522D01*
X143478Y50022D01*
X142666Y48061D01*
Y45939D01*
X143478Y43979D01*
X144979Y42478D01*
X146939Y41666D01*
X149061D01*
X151021Y42478D01*
X152522Y43979D01*
X153334Y45939D01*
Y48061D01*
X152522Y50022D01*
X151021Y51522D01*
X149061Y52334D01*
D02*
G37*
G36*
X203061Y57334D02*
X200939D01*
X198979Y56522D01*
X197478Y55022D01*
X196666Y53061D01*
Y50939D01*
X197478Y48979D01*
X198457Y48000D01*
X197478Y47021D01*
X196666Y45061D01*
Y42939D01*
X197478Y40978D01*
X198979Y39478D01*
X200939Y38666D01*
X203061D01*
X205021Y39478D01*
X206522Y40978D01*
X207334Y42939D01*
Y45061D01*
X206522Y47021D01*
X205543Y48000D01*
X206522Y48979D01*
X207334Y50939D01*
Y53061D01*
X206522Y55022D01*
X205021Y56522D01*
X203061Y57334D01*
D02*
G37*
G36*
X577061Y39334D02*
X574939D01*
X572979Y38522D01*
X571478Y37022D01*
X570666Y35061D01*
Y32939D01*
X571478Y30979D01*
X572979Y29478D01*
X574939Y28666D01*
X577061D01*
X579021Y29478D01*
X580522Y30979D01*
X581334Y32939D01*
Y35061D01*
X580522Y37022D01*
X579021Y38522D01*
X577061Y39334D01*
D02*
G37*
G36*
X154061Y36334D02*
X151939D01*
X149979Y35522D01*
X148478Y34021D01*
X147666Y32061D01*
Y29939D01*
X148478Y27978D01*
X149979Y26478D01*
X151939Y25666D01*
X154061D01*
X156021Y26478D01*
X157522Y27978D01*
X158334Y29939D01*
Y32061D01*
X157522Y34021D01*
X156021Y35522D01*
X154061Y36334D01*
D02*
G37*
G36*
X120061Y35334D02*
X117939D01*
X115979Y34522D01*
X114478Y33022D01*
X113666Y31061D01*
Y28939D01*
X114478Y26979D01*
X115979Y25478D01*
X117939Y24666D01*
X120061D01*
X122022Y25478D01*
X123522Y26979D01*
X124334Y28939D01*
Y31061D01*
X123522Y33022D01*
X122022Y34522D01*
X120061Y35334D01*
D02*
G37*
G36*
X187061Y35334D02*
X184939D01*
X182979Y34522D01*
X181478Y33021D01*
X180666Y31061D01*
Y28939D01*
X181478Y26978D01*
X182979Y25478D01*
X184939Y24666D01*
X187061D01*
X189021Y25478D01*
X190522Y26978D01*
X191334Y28939D01*
Y31061D01*
X190522Y33021D01*
X189021Y34522D01*
X187061Y35334D01*
D02*
G37*
G36*
X107061Y33334D02*
X104939D01*
X102978Y32522D01*
X101478Y31021D01*
X100666Y29061D01*
Y26939D01*
X101478Y24978D01*
X102978Y23478D01*
X104939Y22666D01*
X107061D01*
X109021Y23478D01*
X110522Y24978D01*
X111334Y26939D01*
Y29061D01*
X110522Y31021D01*
X109021Y32522D01*
X107061Y33334D01*
D02*
G37*
G36*
X95061Y32334D02*
X92939D01*
X90978Y31522D01*
X89478Y30022D01*
X88666Y28061D01*
Y25939D01*
X89478Y23979D01*
X90978Y22478D01*
X92939Y21666D01*
X95061D01*
X97021Y22478D01*
X98522Y23979D01*
X99334Y25939D01*
Y28061D01*
X98522Y30022D01*
X97021Y31522D01*
X95061Y32334D01*
D02*
G37*
G36*
X82061Y35334D02*
X79939D01*
X77979Y34522D01*
X76478Y33021D01*
X75666Y31061D01*
Y30334D01*
X73939D01*
X71979Y29522D01*
X70478Y28022D01*
X69666Y26061D01*
Y23939D01*
X70478Y21978D01*
X71979Y20478D01*
X73939Y19666D01*
X76061D01*
X78021Y20478D01*
X79522Y21978D01*
X80334Y23939D01*
Y24666D01*
X82061D01*
X84021Y25478D01*
X85522Y26978D01*
X86334Y28939D01*
Y31061D01*
X85522Y33021D01*
X84021Y34522D01*
X82061Y35334D01*
D02*
G37*
%LPD*%
D18*
X25418Y-229100D02*
X33882D01*
X29650D01*
Y-254492D01*
X25418D01*
X33882D01*
X46578D02*
Y-229100D01*
X63505Y-254492D01*
Y-229100D01*
X71969Y-254492D02*
Y-229100D01*
X88897Y-254492D01*
Y-229100D01*
X114289D02*
X97361D01*
Y-254492D01*
X114289D01*
X97361Y-241796D02*
X105825D01*
X122753Y-254492D02*
Y-229100D01*
X135449D01*
X139681Y-233332D01*
Y-241796D01*
X135449Y-246028D01*
X122753D01*
X131217D02*
X139681Y-254492D01*
X173536Y-229100D02*
Y-254492D01*
X190464D01*
X198928D02*
Y-237564D01*
X207392Y-229100D01*
X215856Y-237564D01*
Y-254492D01*
Y-241796D01*
X198928D01*
X224320Y-229100D02*
Y-233332D01*
X232784Y-241796D01*
X241248Y-233332D01*
Y-229100D01*
X232784Y-241796D02*
Y-254492D01*
X266640Y-229100D02*
X249712D01*
Y-254492D01*
X266640D01*
X249712Y-241796D02*
X258176D01*
X275104Y-254492D02*
Y-229100D01*
X287800D01*
X292031Y-233332D01*
Y-241796D01*
X287800Y-246028D01*
X275104D01*
X283568D02*
X292031Y-254492D01*
X342815D02*
X325887D01*
X342815Y-237564D01*
Y-233332D01*
X338583Y-229100D01*
X330119D01*
X325887Y-233332D01*
X40860Y-78511D02*
X32396D01*
X28164Y-82743D01*
Y-99670D01*
X32396Y-103902D01*
X40860D01*
X45092Y-99670D01*
Y-82743D01*
X40860Y-78511D01*
X53556D02*
Y-103902D01*
X66252D01*
X70484Y-99670D01*
Y-82743D01*
X66252Y-78511D01*
X53556D01*
X78948D02*
X87412D01*
X83180D01*
Y-103902D01*
X78948D01*
X87412D01*
X117036Y-82743D02*
X112803Y-78511D01*
X104340D01*
X100108Y-82743D01*
Y-99670D01*
X104340Y-103902D01*
X112803D01*
X117036Y-99670D01*
X129731Y-108134D02*
X133963Y-103902D01*
Y-99670D01*
X129731D01*
Y-103902D01*
X133963D01*
X129731Y-108134D01*
X125499Y-112366D01*
X176283Y-78511D02*
X184747D01*
X180515D01*
Y-103902D01*
X176283D01*
X184747D01*
X197443D02*
Y-78511D01*
X214371Y-103902D01*
Y-78511D01*
X239762Y-82743D02*
X235530Y-78511D01*
X227067D01*
X222835Y-82743D01*
Y-99670D01*
X227067Y-103902D01*
X235530D01*
X239762Y-99670D01*
X248226Y-103902D02*
Y-99670D01*
X252458D01*
Y-103902D01*
X248226D01*
X42345Y-129868D02*
X38114Y-125636D01*
X29650D01*
X25418Y-129868D01*
Y-146796D01*
X29650Y-151028D01*
X38114D01*
X42345Y-146796D01*
Y-138332D01*
X33882D01*
X50809Y-125636D02*
Y-151028D01*
Y-138332D01*
X67737D01*
Y-125636D01*
Y-151028D01*
X76201Y-125636D02*
Y-151028D01*
X93129D01*
X126985D02*
Y-125636D01*
X143913Y-151028D01*
Y-125636D01*
X152377Y-151028D02*
Y-134100D01*
X160841Y-125636D01*
X169305Y-134100D01*
Y-151028D01*
Y-138332D01*
X152377D01*
X177768Y-151028D02*
Y-134100D01*
X186232Y-125636D01*
X194696Y-134100D01*
Y-151028D01*
Y-138332D01*
X177768D01*
X203160Y-125636D02*
X220088D01*
X211624D01*
Y-151028D01*
X241248Y-125636D02*
X232784D01*
X228552Y-129868D01*
Y-146796D01*
X232784Y-151028D01*
X241248D01*
X245480Y-146796D01*
Y-129868D01*
X241248Y-125636D01*
X270872Y-129868D02*
X266640Y-125636D01*
X258176D01*
X253944Y-129868D01*
Y-134100D01*
X258176Y-138332D01*
X266640D01*
X270872Y-142564D01*
Y-146796D01*
X266640Y-151028D01*
X258176D01*
X253944Y-146796D01*
X321655Y-129868D02*
X317423Y-125636D01*
X308959D01*
X304727Y-129868D01*
Y-134100D01*
X308959Y-138332D01*
X317423D01*
X321655Y-142564D01*
Y-146796D01*
X317423Y-151028D01*
X308959D01*
X304727Y-146796D01*
X334351Y-134100D02*
X342815D01*
X347047Y-138332D01*
Y-151028D01*
X334351D01*
X330119Y-146796D01*
X334351Y-142564D01*
X347047D01*
X355511Y-151028D02*
Y-134100D01*
X359743D01*
X363975Y-138332D01*
Y-151028D01*
Y-138332D01*
X368207Y-134100D01*
X372439Y-138332D01*
Y-151028D01*
X380903Y-159492D02*
Y-134100D01*
X393599D01*
X397831Y-138332D01*
Y-146796D01*
X393599Y-151028D01*
X380903D01*
X406295D02*
X414759D01*
X410527D01*
Y-125636D01*
X406295D01*
X440150Y-151028D02*
X431686D01*
X427454Y-146796D01*
Y-138332D01*
X431686Y-134100D01*
X440150D01*
X444382Y-138332D01*
Y-142564D01*
X427454D01*
X478238Y-151028D02*
Y-125636D01*
X490934D01*
X495166Y-129868D01*
Y-138332D01*
X490934Y-142564D01*
X478238D01*
X503630Y-134100D02*
Y-151028D01*
Y-142564D01*
X507862Y-138332D01*
X512094Y-134100D01*
X516326D01*
X541717Y-151028D02*
X533254D01*
X529022Y-146796D01*
Y-138332D01*
X533254Y-134100D01*
X541717D01*
X545950Y-138332D01*
Y-142564D01*
X529022D01*
X554413Y-159492D02*
Y-134100D01*
X567109D01*
X571341Y-138332D01*
Y-146796D01*
X567109Y-151028D01*
X554413D01*
X605197D02*
Y-125636D01*
X613661Y-134100D01*
X622125Y-125636D01*
Y-151028D01*
X634821Y-134100D02*
X643285D01*
X647517Y-138332D01*
Y-151028D01*
X634821D01*
X630589Y-146796D01*
X634821Y-142564D01*
X647517D01*
X655981Y-151028D02*
X664445D01*
X660213D01*
Y-134100D01*
X655981D01*
X677140Y-151028D02*
Y-134100D01*
X689836D01*
X694068Y-138332D01*
Y-151028D01*
X727924Y-125636D02*
Y-151028D01*
X740620D01*
X744852Y-146796D01*
Y-142564D01*
X740620Y-138332D01*
X727924D01*
X740620D01*
X744852Y-134100D01*
Y-129868D01*
X740620Y-125636D01*
X727924D01*
X757548Y-151028D02*
X766012D01*
X770244Y-146796D01*
Y-138332D01*
X766012Y-134100D01*
X757548D01*
X753316Y-138332D01*
Y-146796D01*
X757548Y-151028D01*
X782940Y-134100D02*
X791404D01*
X795636Y-138332D01*
Y-151028D01*
X782940D01*
X778708Y-146796D01*
X782940Y-142564D01*
X795636D01*
X804099Y-134100D02*
Y-151028D01*
Y-142564D01*
X808331Y-138332D01*
X812563Y-134100D01*
X816795D01*
X846419Y-125636D02*
Y-151028D01*
X833723D01*
X829491Y-146796D01*
Y-138332D01*
X833723Y-134100D01*
X846419D01*
X42732Y-203110D02*
X25804D01*
X42732Y-186182D01*
Y-181950D01*
X38500Y-177719D01*
X30036D01*
X25804Y-181950D01*
X68124Y-177719D02*
X59660Y-181950D01*
X51196Y-190415D01*
Y-198878D01*
X55428Y-203110D01*
X63892D01*
X68124Y-198878D01*
Y-194646D01*
X63892Y-190415D01*
X51196D01*
X76588Y-181950D02*
X80820Y-177719D01*
X89284D01*
X93516Y-181950D01*
Y-186182D01*
X89284Y-190415D01*
X85052D01*
X89284D01*
X93516Y-194646D01*
Y-198878D01*
X89284Y-203110D01*
X80820D01*
X76588Y-198878D01*
X101980Y-190415D02*
X118907D01*
X127371Y-181950D02*
X131603Y-177719D01*
X140067D01*
X144299Y-181950D01*
Y-198878D01*
X140067Y-203110D01*
X131603D01*
X127371Y-198878D01*
Y-181950D01*
X152763D02*
X156995Y-177719D01*
X165459D01*
X169691Y-181950D01*
Y-186182D01*
X165459Y-190415D01*
X161227D01*
X165459D01*
X169691Y-194646D01*
Y-198878D01*
X165459Y-203110D01*
X156995D01*
X152763Y-198878D01*
X178155Y-190415D02*
X195083D01*
X203547Y-181950D02*
X207779Y-177719D01*
X216243D01*
X220475Y-181950D01*
Y-198878D01*
X216243Y-203110D01*
X207779D01*
X203547Y-198878D01*
Y-181950D01*
X228939D02*
X233171Y-177719D01*
X241634D01*
X245866Y-181950D01*
Y-198878D01*
X241634Y-203110D01*
X233171D01*
X228939Y-198878D01*
Y-181950D01*
X254330Y-203110D02*
X262794D01*
X258562D01*
Y-177719D01*
X254330Y-181950D01*
X326274Y-203110D02*
Y-177719D01*
X338970D01*
X343202Y-181950D01*
Y-190415D01*
X338970Y-194646D01*
X326274D01*
X334738D02*
X343202Y-203110D01*
X368593Y-177719D02*
X351666D01*
Y-203110D01*
X368593D01*
X351666Y-190415D02*
X360130D01*
X377057Y-177719D02*
Y-194646D01*
X385521Y-203110D01*
X393985Y-194646D01*
Y-177719D01*
X427841Y-203110D02*
Y-186182D01*
X436305Y-177719D01*
X444769Y-186182D01*
Y-203110D01*
Y-190415D01*
X427841D01*
D139*
X217400Y237160D02*
D03*
Y216840D02*
D03*
X166600Y227000D02*
D03*
X253300Y127350D02*
D03*
X304100Y117190D02*
D03*
Y137510D02*
D03*
X71160Y433600D02*
D03*
X50840D02*
D03*
X61000Y484400D02*
D03*
D140*
X371700Y758500D02*
D03*
X279700D02*
D03*
X371700Y728500D02*
D03*
X279700D02*
D03*
D141*
X297700Y721000D02*
D03*
X301700Y728000D02*
D03*
X309700D02*
D03*
X313700Y721000D02*
D03*
X317700Y728000D02*
D03*
X321700Y721000D02*
D03*
X329700D02*
D03*
X333700Y728000D02*
D03*
X337700Y721000D02*
D03*
X341700Y728000D02*
D03*
X349700D02*
D03*
X353700Y721000D02*
D03*
D142*
X361700Y714500D02*
D03*
D143*
X289700D02*
D03*
D144*
X282658Y59750D02*
D03*
X362658D02*
D03*
X342658D02*
D03*
X322658D02*
D03*
X302658D02*
D03*
X418000Y455000D02*
D03*
Y475000D02*
D03*
X233000Y475000D02*
D03*
Y455000D02*
D03*
D147*
X195897Y718820D02*
D03*
X455612D02*
D03*
X532130Y210820D02*
D03*
X119380D02*
D03*
D148*
X76000Y677000D02*
D03*
X168000Y299000D02*
D03*
X152000Y263000D02*
D03*
X175000Y77000D02*
D03*
X82500Y735000D02*
D03*
X257500Y495000D02*
D03*
X138000Y536000D02*
D03*
X142500Y515000D02*
D03*
X135000Y522500D02*
D03*
X157500Y462500D02*
D03*
X148000Y465000D02*
D03*
X367500Y500000D02*
D03*
X360000Y507500D02*
D03*
X467500Y275000D02*
D03*
Y287500D02*
D03*
Y300000D02*
D03*
Y312500D02*
D03*
X445000Y155000D02*
D03*
X300000Y660000D02*
D03*
X299000Y651000D02*
D03*
X333000Y667000D02*
D03*
X213750Y278750D02*
D03*
X172500Y277500D02*
D03*
X152000Y340000D02*
D03*
X212500Y330000D02*
D03*
X170000Y335000D02*
D03*
X137500Y317500D02*
D03*
X143000Y360000D02*
D03*
X167500Y342500D02*
D03*
X377500Y262500D02*
D03*
X209000Y104000D02*
D03*
X372000Y137000D02*
D03*
X33000Y692000D02*
D03*
X45000D02*
D03*
X77000D02*
D03*
X65000D02*
D03*
X37000Y755000D02*
D03*
Y745000D02*
D03*
X55000Y717000D02*
D03*
X152000Y649000D02*
D03*
X142000Y654000D02*
D03*
X103000Y661000D02*
D03*
X122000D02*
D03*
X103000Y727000D02*
D03*
X111000D02*
D03*
X129000D02*
D03*
X121000D02*
D03*
X271000Y674000D02*
D03*
X279000D02*
D03*
X268000Y706000D02*
D03*
X275000D02*
D03*
X282000D02*
D03*
X280000Y690000D02*
D03*
X270000D02*
D03*
X330000Y696000D02*
D03*
X202000Y52000D02*
D03*
X322000Y696000D02*
D03*
X202000Y44000D02*
D03*
X352000Y501000D02*
D03*
X372000Y513000D02*
D03*
X285000Y518000D02*
D03*
X288000Y536000D02*
D03*
X338000Y449000D02*
D03*
X319000Y447000D02*
D03*
X306000D02*
D03*
X293000D02*
D03*
X365000Y560000D02*
D03*
X357000Y554000D02*
D03*
X317000Y527000D02*
D03*
X352000D02*
D03*
X334000D02*
D03*
X294000Y545000D02*
D03*
X329000D02*
D03*
X337132Y545868D02*
D03*
X322000Y549000D02*
D03*
X287000Y565000D02*
D03*
X372000Y631000D02*
D03*
X366000Y606000D02*
D03*
X295750Y634000D02*
D03*
X285000Y646000D02*
D03*
X293000Y600000D02*
D03*
X312000Y609000D02*
D03*
X365000Y586000D02*
D03*
Y578000D02*
D03*
X311436Y565925D02*
D03*
X334750Y578000D02*
D03*
Y571000D02*
D03*
Y564000D02*
D03*
Y585000D02*
D03*
X348000D02*
D03*
X341250D02*
D03*
X348000Y578000D02*
D03*
X341250D02*
D03*
X348000Y571000D02*
D03*
X341250D02*
D03*
Y564000D02*
D03*
X348000D02*
D03*
X328000Y585000D02*
D03*
Y578000D02*
D03*
Y571000D02*
D03*
Y564000D02*
D03*
X76000Y618000D02*
D03*
X122000Y628000D02*
D03*
X112000Y604000D02*
D03*
X92000Y628000D02*
D03*
X104000D02*
D03*
Y641000D02*
D03*
X92000D02*
D03*
X98000Y634000D02*
D03*
X301000Y698000D02*
D03*
X356000D02*
D03*
X110000Y433000D02*
D03*
Y452000D02*
D03*
X195000Y462000D02*
D03*
X47000Y459000D02*
D03*
X189000Y298000D02*
D03*
X148000D02*
D03*
X243000Y277000D02*
D03*
X231000Y317000D02*
D03*
X149000Y497000D02*
D03*
X165000D02*
D03*
X157000Y492000D02*
D03*
X165000Y487000D02*
D03*
X149000D02*
D03*
X180000Y358000D02*
D03*
X286000Y263000D02*
D03*
X432000Y193000D02*
D03*
X272000Y223000D02*
D03*
Y216000D02*
D03*
Y209000D02*
D03*
X281000Y179500D02*
D03*
X289000Y180000D02*
D03*
X297000D02*
D03*
X306000D02*
D03*
X384000Y177000D02*
D03*
X292000Y142000D02*
D03*
X214000Y73000D02*
D03*
X178000Y86000D02*
D03*
X184000Y146000D02*
D03*
X72000Y59000D02*
D03*
X141500Y109500D02*
D03*
X202000Y36000D02*
D03*
Y60000D02*
D03*
X559000Y149000D02*
D03*
X567000D02*
D03*
X576000D02*
D03*
X536000Y151000D02*
D03*
X543000D02*
D03*
X536000Y143000D02*
D03*
X543000D02*
D03*
X536000Y135000D02*
D03*
X543000D02*
D03*
X466000Y75000D02*
D03*
X459000D02*
D03*
X466000Y83000D02*
D03*
X410000Y92000D02*
D03*
X401000D02*
D03*
X393000D02*
D03*
Y84000D02*
D03*
Y76000D02*
D03*
X459000Y83000D02*
D03*
Y90000D02*
D03*
X466000D02*
D03*
X482000Y105000D02*
D03*
X472000D02*
D03*
Y115000D02*
D03*
X482000D02*
D03*
X477000Y110000D02*
D03*
X633000Y62000D02*
D03*
X163000Y131000D02*
D03*
X146000Y169000D02*
D03*
X166000Y163000D02*
D03*
X69500Y92500D02*
D03*
Y31500D02*
D03*
X165000Y34000D02*
D03*
X133000Y71000D02*
D03*
X71000Y111000D02*
D03*
X69500Y132500D02*
D03*
X91500Y132500D02*
D03*
X80500D02*
D03*
X526000Y753000D02*
D03*
X489000Y690000D02*
D03*
Y620000D02*
D03*
X607000Y471000D02*
D03*
X615000D02*
D03*
X587000Y459500D02*
D03*
X571000D02*
D03*
X579000Y459750D02*
D03*
X562000Y487500D02*
D03*
X529000Y470500D02*
D03*
X539000D02*
D03*
X549000D02*
D03*
X532000Y767000D02*
D03*
X526312Y613688D02*
D03*
X532313Y674688D02*
D03*
X525312D02*
D03*
X528312Y681688D02*
D03*
Y668688D02*
D03*
X509313Y675688D02*
D03*
Y682688D02*
D03*
X601312Y642688D02*
D03*
Y633688D02*
D03*
Y624688D02*
D03*
Y616688D02*
D03*
Y608688D02*
D03*
Y600687D02*
D03*
Y714688D02*
D03*
Y723688D02*
D03*
Y732688D02*
D03*
Y741687D02*
D03*
Y750687D02*
D03*
X518312Y730687D02*
D03*
Y748688D02*
D03*
X526000Y762000D02*
D03*
X518312Y739687D02*
D03*
X533312Y613688D02*
D03*
X526312Y605688D02*
D03*
Y597688D02*
D03*
X507436Y444000D02*
D03*
Y434000D02*
D03*
X497436D02*
D03*
Y444000D02*
D03*
X487436Y434000D02*
D03*
Y444000D02*
D03*
X477436D02*
D03*
Y434000D02*
D03*
X467436Y444000D02*
D03*
Y434000D02*
D03*
X457436Y444000D02*
D03*
Y434000D02*
D03*
X364000Y389000D02*
D03*
Y383000D02*
D03*
Y377000D02*
D03*
Y371000D02*
D03*
Y365000D02*
D03*
X378000Y365000D02*
D03*
X371000Y365000D02*
D03*
X378000Y371000D02*
D03*
X371000D02*
D03*
X370999Y377001D02*
D03*
X378000Y377000D02*
D03*
Y383000D02*
D03*
X371000Y389000D02*
D03*
Y383000D02*
D03*
X378000Y389000D02*
D03*
X359000Y431000D02*
D03*
Y441000D02*
D03*
X369000Y431000D02*
D03*
Y441000D02*
D03*
X379000Y431000D02*
D03*
Y441000D02*
D03*
X389000D02*
D03*
Y431000D02*
D03*
X399000D02*
D03*
Y441000D02*
D03*
X275000Y409000D02*
D03*
Y419000D02*
D03*
X285000Y409000D02*
D03*
Y419000D02*
D03*
X295000Y409000D02*
D03*
Y419000D02*
D03*
X305000D02*
D03*
Y409000D02*
D03*
X315000Y419000D02*
D03*
Y409000D02*
D03*
X325000D02*
D03*
Y419000D02*
D03*
X265000Y409000D02*
D03*
Y419000D02*
D03*
X339000Y441000D02*
D03*
Y431000D02*
D03*
X349000D02*
D03*
Y441000D02*
D03*
X330000Y321000D02*
D03*
X340000D02*
D03*
X350000D02*
D03*
X360000D02*
D03*
X370000D02*
D03*
X380000D02*
D03*
Y311000D02*
D03*
X370000D02*
D03*
X360000D02*
D03*
X350000D02*
D03*
X340000D02*
D03*
X330000D02*
D03*
X259000Y316000D02*
D03*
X269000D02*
D03*
X279000D02*
D03*
X289000D02*
D03*
Y326000D02*
D03*
X279000D02*
D03*
X269000D02*
D03*
X259000D02*
D03*
X360000Y631000D02*
D03*
X354000D02*
D03*
X312000Y591000D02*
D03*
X351000Y681000D02*
D03*
X312074Y599926D02*
D03*
X368000Y657000D02*
D03*
X359000D02*
D03*
X368000Y664000D02*
D03*
X376000D02*
D03*
X326000Y638000D02*
D03*
X333000D02*
D03*
X325969Y632161D02*
D03*
X333000Y632000D02*
D03*
Y626000D02*
D03*
X326000D02*
D03*
Y620000D02*
D03*
X333000D02*
D03*
X342000Y638000D02*
D03*
Y632000D02*
D03*
X348000Y631000D02*
D03*
X342000Y626000D02*
D03*
Y620000D02*
D03*
X297000Y573500D02*
D03*
X304000D02*
D03*
X297000Y582000D02*
D03*
X304000D02*
D03*
X311000D02*
D03*
Y558000D02*
D03*
Y573500D02*
D03*
X348000Y595000D02*
D03*
Y604000D02*
D03*
X343000Y599000D02*
D03*
X328000Y604000D02*
D03*
X338000D02*
D03*
Y595000D02*
D03*
X333000Y599000D02*
D03*
X328329Y595000D02*
D03*
X501000Y658000D02*
D03*
X551000Y550000D02*
D03*
X584000Y565000D02*
D03*
X155000Y624000D02*
D03*
X148000Y631000D02*
D03*
X60000Y635000D02*
D03*
X76000Y637000D02*
D03*
Y628000D02*
D03*
X136000Y661000D02*
D03*
X88000Y612000D02*
D03*
X151000Y515000D02*
D03*
X195000Y485000D02*
D03*
X216000Y447000D02*
D03*
Y458000D02*
D03*
Y468000D02*
D03*
Y479000D02*
D03*
X317000Y680000D02*
D03*
X312000Y698000D02*
D03*
X335000Y690000D02*
D03*
X342000Y697000D02*
D03*
X170000Y465000D02*
D03*
X178000Y495000D02*
D03*
X175000Y473000D02*
D03*
X128000Y453000D02*
D03*
X195000D02*
D03*
X80600Y496600D02*
D03*
X120600Y496600D02*
D03*
X100600Y496600D02*
D03*
X530000Y495000D02*
D03*
X571000Y496000D02*
D03*
X550600Y495400D02*
D03*
X259000Y216000D02*
D03*
X196000Y266000D02*
D03*
X164000Y258000D02*
D03*
X136000Y264000D02*
D03*
X189000Y288000D02*
D03*
X230000Y277000D02*
D03*
X138000Y298000D02*
D03*
X230000Y304000D02*
D03*
X243000Y317000D02*
D03*
Y305000D02*
D03*
X199000Y340000D02*
D03*
X189000Y322000D02*
D03*
X201000Y358000D02*
D03*
X135000Y341000D02*
D03*
X240000Y383000D02*
D03*
X250000D02*
D03*
X356000Y220000D02*
D03*
X348000D02*
D03*
X340000D02*
D03*
X333000D02*
D03*
X325000D02*
D03*
Y227000D02*
D03*
X333000D02*
D03*
X348000D02*
D03*
X356000D02*
D03*
X340000D02*
D03*
X263000Y279000D02*
D03*
X272000Y297000D02*
D03*
X224000Y192000D02*
D03*
X360000D02*
D03*
X368000Y197000D02*
D03*
X431000Y180000D02*
D03*
X444000Y181000D02*
D03*
Y193000D02*
D03*
X426000Y132000D02*
D03*
X381000Y120000D02*
D03*
X344000Y156000D02*
D03*
X335000Y174000D02*
D03*
X382000Y93000D02*
D03*
X326000Y175000D02*
D03*
X314000Y155000D02*
D03*
X187000Y159000D02*
D03*
X406000Y175000D02*
D03*
X300000Y228000D02*
D03*
X316000D02*
D03*
X308000D02*
D03*
X293000D02*
D03*
X285000D02*
D03*
Y221000D02*
D03*
X293000D02*
D03*
X300000D02*
D03*
X308000D02*
D03*
X316000D02*
D03*
X389000Y161000D02*
D03*
X214000Y249000D02*
D03*
X229000Y227000D02*
D03*
X236000Y207000D02*
D03*
X213000Y201000D02*
D03*
X179000Y242000D02*
D03*
Y212000D02*
D03*
X266000Y142000D02*
D03*
X279000D02*
D03*
X275000Y109000D02*
D03*
X248000Y86000D02*
D03*
Y62000D02*
D03*
X221000Y86000D02*
D03*
X220000Y63000D02*
D03*
Y55000D02*
D03*
X202000Y73000D02*
D03*
Y85000D02*
D03*
X222000Y74000D02*
D03*
X180000Y134000D02*
D03*
X76000Y73000D02*
D03*
Y82000D02*
D03*
X125000Y100000D02*
D03*
X141000Y101000D02*
D03*
X576000Y34000D02*
D03*
X597000Y101000D02*
D03*
X589000D02*
D03*
X464000Y59000D02*
D03*
X470000Y132000D02*
D03*
X498000Y126000D02*
D03*
X597000Y110000D02*
D03*
X589000D02*
D03*
Y119000D02*
D03*
X597000D02*
D03*
X453000Y124000D02*
D03*
Y115000D02*
D03*
X164000Y193000D02*
D03*
X84000Y100000D02*
D03*
X135000Y56000D02*
D03*
X119000Y30000D02*
D03*
X94000Y27000D02*
D03*
X75000Y25000D02*
D03*
X260000Y115000D02*
D03*
X106000Y28000D02*
D03*
X153000Y31000D02*
D03*
X148000Y47000D02*
D03*
X186000Y30000D02*
D03*
X81000D02*
D03*
X142000Y61000D02*
D03*
X150000Y118000D02*
D03*
X133000Y82000D02*
D03*
X91500Y100500D02*
D03*
X102500Y100500D02*
D03*
X113500D02*
D03*
X574000Y764000D02*
D03*
X560000Y768000D02*
D03*
D03*
X515000Y570000D02*
D03*
X514000Y637000D02*
D03*
X515000Y625000D02*
D03*
X503000Y600000D02*
D03*
X511000Y646000D02*
D03*
X611000Y487000D02*
D03*
X616000Y423500D02*
D03*
X606000D02*
D03*
Y433500D02*
D03*
X616000D02*
D03*
X519000Y440500D02*
D03*
Y450500D02*
D03*
X529000Y440500D02*
D03*
Y450500D02*
D03*
X573000Y632000D02*
D03*
X563000Y628000D02*
D03*
Y620000D02*
D03*
Y612000D02*
D03*
Y603000D02*
D03*
X517313Y720688D02*
D03*
X543312Y668688D02*
D03*
Y680688D02*
D03*
X537313Y668688D02*
D03*
X543312Y663688D02*
D03*
X537313D02*
D03*
Y680688D02*
D03*
X543312Y685688D02*
D03*
X537313D02*
D03*
X597313Y661688D02*
D03*
X590312D02*
D03*
X597313Y653688D02*
D03*
X590312Y692688D02*
D03*
X597313Y699688D02*
D03*
Y692688D02*
D03*
X556437Y700813D02*
D03*
X538312Y701688D02*
D03*
X546312Y719688D02*
D03*
X522313Y702688D02*
D03*
X530312Y646688D02*
D03*
X558312Y647688D02*
D03*
X550312Y613688D02*
D03*
Y606688D02*
D03*
Y599688D02*
D03*
Y592688D02*
D03*
X542313Y606688D02*
D03*
Y599688D02*
D03*
Y592688D02*
D03*
X546000Y768000D02*
D03*
X553000D02*
D03*
X563000Y759000D02*
D03*
X567000Y768000D02*
D03*
X519436Y405000D02*
D03*
X529436D02*
D03*
Y415000D02*
D03*
X519436D02*
D03*
X539436D02*
D03*
Y405000D02*
D03*
X529436Y395000D02*
D03*
X519436D02*
D03*
X539436D02*
D03*
X250000Y374000D02*
D03*
Y365000D02*
D03*
Y356000D02*
D03*
X240000Y374000D02*
D03*
Y365000D02*
D03*
Y356000D02*
D03*
X393000Y353000D02*
D03*
M02*
