G04*
G04 #@! TF.GenerationSoftware,Altium Limited,Altium Designer,24.9.1 (31)*
G04*
G04 Layer_Color=65535*
%FSLAX44Y44*%
%MOMM*%
G71*
G04*
G04 #@! TF.SameCoordinates,6C7A866E-41A3-4D12-9BD4-ECE58917465C*
G04*
G04*
G04 #@! TF.FilePolarity,Positive*
G04*
G01*
G75*
%ADD10C,0.2500*%
%ADD11C,0.2030*%
%ADD12C,0.2000*%
%ADD13C,0.1524*%
%ADD14C,0.1500*%
%ADD15C,0.1270*%
%ADD16C,0.2032*%
%ADD17C,0.1250*%
%ADD18C,0.2540*%
D10*
X131250Y306000D02*
G03*
X131250Y306000I-1250J0D01*
G01*
X172250Y307000D02*
G03*
X172250Y307000I-1250J0D01*
G01*
X553563Y702188D02*
G03*
X553563Y702188I-1250J0D01*
G01*
D11*
X263100Y681000D02*
G03*
X263100Y681000I-3000J0D01*
G01*
X89933Y611129D02*
G03*
X90000Y610500I-2933J-629D01*
G01*
X82000Y618500D02*
Y621500D01*
Y618500D02*
X85000D01*
X82000Y650500D02*
X85000D01*
X82000Y647500D02*
Y650500D01*
X390000Y135000D02*
Y167000D01*
X416000Y135000D02*
Y167000D01*
X588313Y650688D02*
X597313D01*
X588313Y704688D02*
X597313D01*
X631313Y650688D02*
X640313D01*
X631313Y704688D02*
X640313D01*
Y650688D02*
Y704688D01*
X588313Y650688D02*
Y704688D01*
X131600Y517850D02*
Y567850D01*
X69600Y517850D02*
Y567850D01*
X581600Y517850D02*
Y567850D01*
X519600Y517850D02*
Y567850D01*
D12*
X286350Y456500D02*
G03*
X286350Y456500I-4000J0D01*
G01*
X324000Y620500D02*
G03*
X324000Y620500I-4000J0D01*
G01*
X170016Y515002D02*
G03*
X170016Y515002I-1016J0D01*
G01*
X570003Y438293D02*
G03*
X570003Y438293I-1137J0D01*
G01*
X381160Y346520D02*
G03*
X381160Y346520I-2540J0D01*
G01*
X123160Y592380D02*
G03*
X123160Y592380I-2240J0D01*
G01*
X573160D02*
G03*
X573160Y592380I-2240J0D01*
G01*
X203000Y73500D02*
X213250D01*
X203250Y84500D02*
X213250D01*
X231750Y316500D02*
X242000D01*
X231750Y305500D02*
X241750D01*
X132500Y322500D02*
X163500D01*
X132500Y315500D02*
X163500D01*
Y322500D01*
X132500Y315500D02*
Y322500D01*
X287000Y680000D02*
Y700000D01*
X263000Y680000D02*
Y700000D01*
X287350Y474500D02*
Y496500D01*
Y474500D02*
X337350D01*
Y496500D01*
X287350D02*
X337350D01*
X287850Y480500D02*
X293850Y474500D01*
X287000Y624500D02*
X315000D01*
X287000Y645500D02*
X315000D01*
X140236Y475236D02*
Y508764D01*
X173764Y475236D02*
Y508764D01*
X173500Y322500D02*
X204500D01*
X173500Y315500D02*
X204500D01*
Y322500D01*
X173500Y315500D02*
Y322500D01*
X432750Y192500D02*
X443000D01*
X432750Y181500D02*
X442750D01*
X353500Y124500D02*
X360000D01*
X353500Y117250D02*
Y124500D01*
Y95500D02*
X360000D01*
X353500D02*
Y102750D01*
X562000Y442750D02*
Y448250D01*
Y442750D02*
X563600D01*
X562000Y476750D02*
X563600D01*
X562000Y475150D02*
Y476750D01*
X596000Y475150D02*
Y476750D01*
X594400D02*
X596000D01*
Y442750D02*
Y444350D01*
X594400Y442750D02*
X596000D01*
X390751Y399899D02*
Y401749D01*
X388901D02*
X390751D01*
X351249Y399899D02*
Y401749D01*
X353099D01*
X351249Y352251D02*
X353099D01*
X351249D02*
Y354101D01*
X390749Y352251D02*
Y354101D01*
X383899Y352251D02*
X390749D01*
X613000Y47500D02*
X619500D01*
Y54750D01*
X613000Y76500D02*
X619500D01*
Y69250D02*
Y76500D01*
X513312Y651688D02*
Y654188D01*
Y651688D02*
X515812D01*
X513312Y697688D02*
X515812D01*
X513312Y695188D02*
Y697688D01*
X556813Y651688D02*
X559313D01*
Y654188D01*
X556813Y697688D02*
X559313D01*
Y695188D02*
Y697688D01*
D13*
X330645Y545826D02*
G03*
X330645Y545826I-2540J0D01*
G01*
X291000Y180000D02*
G03*
X291000Y180000I-2000J0D01*
G01*
X290195Y309880D02*
G03*
X290195Y309880I-2540J0D01*
G01*
X149906Y449430D02*
G03*
X149906Y449430I-1796J0D01*
G01*
X317765Y553426D02*
X323515D01*
X353015D02*
X358765D01*
Y612676D02*
Y614426D01*
Y553426D02*
Y555176D01*
X317765Y614426D02*
X321485D01*
X355045D02*
X358765D01*
X317765Y612676D02*
Y614426D01*
Y553426D02*
Y555176D01*
X359087Y175224D02*
X374821D01*
X359087Y146776D02*
X374821D01*
X71770Y730230D02*
Y749770D01*
X51327D02*
X58673D01*
X38230Y730230D02*
Y749770D01*
X573441Y433264D02*
X584559D01*
X573441Y399736D02*
X584559D01*
X128770Y675230D02*
Y694770D01*
X108327Y675230D02*
X115673D01*
X95230D02*
Y694770D01*
X289000Y185000D02*
Y215000D01*
X319000Y185000D02*
Y215000D01*
X296189Y243078D02*
X355321D01*
X356997Y261536D02*
Y287104D01*
X296189Y305562D02*
X355321D01*
X294513Y261536D02*
Y287104D01*
X78330Y56680D02*
Y97320D01*
Y56680D02*
X131670D01*
Y97320D01*
X78330D02*
X131670D01*
D14*
X386540Y144000D02*
G03*
X386540Y144000I-2540J0D01*
G01*
X332000Y344000D02*
X336000Y348000D01*
X115000Y399000D02*
X126250D01*
Y401470D01*
Y430530D02*
Y433000D01*
X123780D02*
X126250D01*
X93750D02*
X96220D01*
X93750Y430530D02*
Y433000D01*
Y399000D02*
Y401470D01*
Y399000D02*
X96220D01*
X423500Y370150D02*
Y389500D01*
X518500Y370150D02*
Y389500D01*
X423500D02*
X518500D01*
Y304500D02*
Y323850D01*
X423500Y304500D02*
Y323850D01*
Y304500D02*
X518500D01*
X149380Y427840D02*
X164620D01*
X149380Y448160D02*
X164620D01*
X93750Y453000D02*
X96220D01*
X93750D02*
Y455470D01*
Y484530D02*
Y487000D01*
X96220D01*
X123780D02*
X126250D01*
Y484530D02*
Y487000D01*
Y453000D02*
Y455470D01*
X115000Y453000D02*
X126250D01*
X99164Y48831D02*
X97498Y50497D01*
X94166D01*
X92500Y48831D01*
Y42166D01*
X94166Y40500D01*
X97498D01*
X99164Y42166D01*
Y45498D01*
X95832D01*
X102497Y40500D02*
Y50497D01*
X109161Y40500D01*
Y50497D01*
X112493D02*
Y40500D01*
X117492D01*
X119158Y42166D01*
Y48831D01*
X117492Y50497D01*
X112493D01*
X178504Y105998D02*
Y97668D01*
X180170Y96002D01*
X183502D01*
X185168Y97668D01*
Y105998D01*
X188501Y96002D02*
X191833D01*
X190167D01*
Y105998D01*
X188501Y104332D01*
X196831Y105998D02*
X203496D01*
Y104332D01*
X196831Y97668D01*
Y96002D01*
X223504Y339998D02*
Y331668D01*
X225170Y330002D01*
X228502D01*
X230169Y331668D01*
Y339998D01*
X233501Y330002D02*
X236833D01*
X235167D01*
Y339998D01*
X233501Y338332D01*
X241831D02*
X243498Y339998D01*
X246830D01*
X248496Y338332D01*
Y336666D01*
X246830Y335000D01*
X245164D01*
X246830D01*
X248496Y333334D01*
Y331668D01*
X246830Y330002D01*
X243498D01*
X241831Y331668D01*
X274002Y531329D02*
X283998D01*
Y526331D01*
X282332Y524664D01*
X279000D01*
X277334Y526331D01*
Y531329D01*
Y527997D02*
X274002Y524664D01*
Y516334D02*
X283998D01*
X279000Y521332D01*
Y514668D01*
X282332Y511335D02*
X283998Y509669D01*
Y506337D01*
X282332Y504671D01*
X280666D01*
X279000Y506337D01*
Y508003D01*
Y506337D01*
X277334Y504671D01*
X275668D01*
X274002Y506337D01*
Y509669D01*
X275668Y511335D01*
X429504Y219998D02*
Y211668D01*
X431170Y210002D01*
X434502D01*
X436169Y211668D01*
Y219998D01*
X439501Y210002D02*
X442833D01*
X441167D01*
Y219998D01*
X439501Y218332D01*
X454496Y219998D02*
X447831D01*
Y215000D01*
X451164Y216666D01*
X452830D01*
X454496Y215000D01*
Y211668D01*
X452830Y210002D01*
X449498D01*
X447831Y211668D01*
X430998Y162331D02*
X429332D01*
X426000Y158998D01*
X429332Y155666D01*
X430998D01*
X426000Y158998D02*
X421002D01*
Y145669D02*
Y152334D01*
X427666Y145669D01*
X429332D01*
X430998Y147335D01*
Y150668D01*
X429332Y152334D01*
X129998Y648496D02*
X121668D01*
X120002Y646830D01*
Y643497D01*
X121668Y641831D01*
X129998D01*
X120002Y638499D02*
Y635167D01*
Y636833D01*
X129998D01*
X128332Y638499D01*
X120002Y625170D02*
X129998D01*
X125000Y630168D01*
Y623504D01*
X279998Y493496D02*
X271668D01*
X270002Y491830D01*
Y488498D01*
X271668Y486831D01*
X279998D01*
X270002Y483499D02*
Y480167D01*
Y481833D01*
X279998D01*
X278332Y483499D01*
X270002Y468504D02*
Y475168D01*
X276666Y468504D01*
X278332D01*
X279998Y470170D01*
Y473502D01*
X278332Y475168D01*
X33498Y752302D02*
X25168D01*
X23502Y750636D01*
Y747303D01*
X25168Y745637D01*
X33498D01*
X23502Y742305D02*
Y738973D01*
Y740639D01*
X33498D01*
X31832Y742305D01*
X23502Y733974D02*
Y730642D01*
Y732308D01*
X33498D01*
X31832Y733974D01*
X376998Y595496D02*
X368668D01*
X367002Y593830D01*
Y590498D01*
X368668Y588831D01*
X376998D01*
X367002Y585499D02*
Y582167D01*
Y583833D01*
X376998D01*
X375332Y585499D01*
Y577169D02*
X376998Y575502D01*
Y572170D01*
X375332Y570504D01*
X368668D01*
X367002Y572170D01*
Y575502D01*
X368668Y577169D01*
X375332D01*
X141998Y694331D02*
X133668D01*
X132002Y692664D01*
Y689332D01*
X133668Y687666D01*
X141998D01*
X133668Y684334D02*
X132002Y682668D01*
Y679335D01*
X133668Y677669D01*
X140332D01*
X141998Y679335D01*
Y682668D01*
X140332Y684334D01*
X138666D01*
X137000Y682668D01*
Y677669D01*
X384669Y346998D02*
Y338668D01*
X386335Y337002D01*
X389668D01*
X391334Y338668D01*
Y346998D01*
X394666Y345332D02*
X396332Y346998D01*
X399664D01*
X401331Y345332D01*
Y343666D01*
X399664Y342000D01*
X401331Y340334D01*
Y338668D01*
X399664Y337002D01*
X396332D01*
X394666Y338668D01*
Y340334D01*
X396332Y342000D01*
X394666Y343666D01*
Y345332D01*
X396332Y342000D02*
X399664D01*
X542669Y438998D02*
Y430668D01*
X544336Y429002D01*
X547668D01*
X549334Y430668D01*
Y438998D01*
X552666D02*
X559331D01*
Y437332D01*
X552666Y430668D01*
Y429002D01*
X149669Y420998D02*
Y412668D01*
X151335Y411002D01*
X154668D01*
X156334Y412668D01*
Y420998D01*
X166331D02*
X162998Y419332D01*
X159666Y416000D01*
Y412668D01*
X161332Y411002D01*
X164665D01*
X166331Y412668D01*
Y414334D01*
X164665Y416000D01*
X159666D01*
X152669Y529998D02*
Y521668D01*
X154335Y520002D01*
X157668D01*
X159334Y521668D01*
Y529998D01*
X169331D02*
X162666D01*
Y525000D01*
X165998Y526666D01*
X167665D01*
X169331Y525000D01*
Y521668D01*
X167665Y520002D01*
X164332D01*
X162666Y521668D01*
X502998Y687331D02*
X494668D01*
X493002Y685665D01*
Y682332D01*
X494668Y680666D01*
X502998D01*
X493002Y672335D02*
X502998D01*
X498000Y677334D01*
Y670669D01*
X358669Y189998D02*
Y181668D01*
X360336Y180002D01*
X363668D01*
X365334Y181668D01*
Y189998D01*
X368666Y188332D02*
X370332Y189998D01*
X373665D01*
X375331Y188332D01*
Y186666D01*
X373665Y185000D01*
X371998D01*
X373665D01*
X375331Y183334D01*
Y181668D01*
X373665Y180002D01*
X370332D01*
X368666Y181668D01*
X603669Y41998D02*
Y33668D01*
X605336Y32002D01*
X608668D01*
X610334Y33668D01*
Y41998D01*
X620331Y32002D02*
X613666D01*
X620331Y38666D01*
Y40332D01*
X618665Y41998D01*
X615332D01*
X613666Y40332D01*
X90671Y115998D02*
X97336D01*
X94003D01*
Y106002D01*
X100668D02*
Y115998D01*
X105666D01*
X107332Y114332D01*
Y111000D01*
X105666Y109334D01*
X100668D01*
X117329Y115998D02*
X110665D01*
Y111000D01*
X113997Y112666D01*
X115663D01*
X117329Y111000D01*
Y107668D01*
X115663Y106002D01*
X112331D01*
X110665Y107668D01*
X387002Y277332D02*
X385336Y278998D01*
X382003D01*
X380337Y277332D01*
Y275666D01*
X382003Y274000D01*
X385336D01*
X387002Y272334D01*
Y270668D01*
X385336Y269002D01*
X382003D01*
X380337Y270668D01*
X390334Y278998D02*
Y269002D01*
X393666Y272334D01*
X396998Y269002D01*
Y278998D01*
X400331Y269002D02*
X403663D01*
X401997D01*
Y278998D01*
X400331Y277332D01*
X83002Y703329D02*
X92998D01*
Y698331D01*
X91332Y696665D01*
X88000D01*
X86334Y698331D01*
Y703329D01*
Y699997D02*
X83002Y696665D01*
X92998Y686668D02*
Y693332D01*
X88000D01*
X89666Y690000D01*
Y688334D01*
X88000Y686668D01*
X84668D01*
X83002Y688334D01*
Y691666D01*
X84668Y693332D01*
X91332Y683335D02*
X92998Y681669D01*
Y678337D01*
X91332Y676671D01*
X89666D01*
X88000Y678337D01*
X86334Y676671D01*
X84668D01*
X83002Y678337D01*
Y681669D01*
X84668Y683335D01*
X86334D01*
X88000Y681669D01*
X89666Y683335D01*
X91332D01*
X88000Y681669D02*
Y678337D01*
X37671Y653002D02*
Y662998D01*
X42669D01*
X44335Y661332D01*
Y658000D01*
X42669Y656334D01*
X37671D01*
X41003D02*
X44335Y653002D01*
X54332Y662998D02*
X47668D01*
Y658000D01*
X51000Y659666D01*
X52666D01*
X54332Y658000D01*
Y654668D01*
X52666Y653002D01*
X49334D01*
X47668Y654668D01*
X57664Y662998D02*
X64329D01*
Y661332D01*
X57664Y654668D01*
Y653002D01*
X199002Y274329D02*
X208998D01*
Y269331D01*
X207332Y267665D01*
X204000D01*
X202334Y269331D01*
Y274329D01*
Y270997D02*
X199002Y267665D01*
X208998Y257668D02*
Y264332D01*
X204000D01*
X205666Y261000D01*
Y259334D01*
X204000Y257668D01*
X200668D01*
X199002Y259334D01*
Y262666D01*
X200668Y264332D01*
X208998Y247671D02*
X207332Y251003D01*
X204000Y254335D01*
X200668D01*
X199002Y252669D01*
Y249337D01*
X200668Y247671D01*
X202334D01*
X204000Y249337D01*
Y254335D01*
X49002Y651329D02*
X58998D01*
Y646331D01*
X57332Y644665D01*
X54000D01*
X52334Y646331D01*
Y651329D01*
Y647997D02*
X49002Y644665D01*
X58998Y634668D02*
Y641332D01*
X54000D01*
X55666Y638000D01*
Y636334D01*
X54000Y634668D01*
X50668D01*
X49002Y636334D01*
Y639666D01*
X50668Y641332D01*
X58998Y624671D02*
Y631335D01*
X54000D01*
X55666Y628003D01*
Y626337D01*
X54000Y624671D01*
X50668D01*
X49002Y626337D01*
Y629669D01*
X50668Y631335D01*
X209002Y360329D02*
X218998D01*
Y355331D01*
X217332Y353665D01*
X214000D01*
X212334Y355331D01*
Y360329D01*
Y356997D02*
X209002Y353665D01*
X218998Y343668D02*
Y350332D01*
X214000D01*
X215666Y347000D01*
Y345334D01*
X214000Y343668D01*
X210668D01*
X209002Y345334D01*
Y348666D01*
X210668Y350332D01*
X209002Y335337D02*
X218998D01*
X214000Y340336D01*
Y333671D01*
X106002Y343329D02*
X115998D01*
Y338331D01*
X114332Y336665D01*
X111000D01*
X109334Y338331D01*
Y343329D01*
Y339997D02*
X106002Y336665D01*
X115998Y326668D02*
Y333332D01*
X111000D01*
X112666Y330000D01*
Y328334D01*
X111000Y326668D01*
X107668D01*
X106002Y328334D01*
Y331666D01*
X107668Y333332D01*
X114332Y323335D02*
X115998Y321669D01*
Y318337D01*
X114332Y316671D01*
X112666D01*
X111000Y318337D01*
Y320003D01*
Y318337D01*
X109334Y316671D01*
X107668D01*
X106002Y318337D01*
Y321669D01*
X107668Y323335D01*
X224002Y274329D02*
X233998D01*
Y269331D01*
X232332Y267665D01*
X229000D01*
X227334Y269331D01*
Y274329D01*
Y270997D02*
X224002Y267665D01*
X233998Y257668D02*
Y264332D01*
X229000D01*
X230666Y261000D01*
Y259334D01*
X229000Y257668D01*
X225668D01*
X224002Y259334D01*
Y262666D01*
X225668Y264332D01*
X224002Y247671D02*
Y254335D01*
X230666Y247671D01*
X232332D01*
X233998Y249337D01*
Y252669D01*
X232332Y254335D01*
X337337Y663002D02*
Y672998D01*
X342336D01*
X344002Y671332D01*
Y668000D01*
X342336Y666334D01*
X337337D01*
X340669D02*
X344002Y663002D01*
X353998Y672998D02*
X347334D01*
Y668000D01*
X350666Y669666D01*
X352332D01*
X353998Y668000D01*
Y664668D01*
X352332Y663002D01*
X349000D01*
X347334Y664668D01*
X357331Y663002D02*
X360663D01*
X358997D01*
Y672998D01*
X357331Y671332D01*
X38002Y693329D02*
X47998D01*
Y688331D01*
X46332Y686665D01*
X43000D01*
X41334Y688331D01*
Y693329D01*
Y689997D02*
X38002Y686665D01*
Y678334D02*
X47998D01*
X43000Y683332D01*
Y676668D01*
X46332Y673335D02*
X47998Y671669D01*
Y668337D01*
X46332Y666671D01*
X44666D01*
X43000Y668337D01*
X41334Y666671D01*
X39668D01*
X38002Y668337D01*
Y671669D01*
X39668Y673335D01*
X41334D01*
X43000Y671669D01*
X44666Y673335D01*
X46332D01*
X43000Y671669D02*
Y668337D01*
X85002Y734329D02*
X94998D01*
Y729331D01*
X93332Y727664D01*
X90000D01*
X88334Y729331D01*
Y734329D01*
Y730997D02*
X85002Y727664D01*
Y719334D02*
X94998D01*
X90000Y724332D01*
Y717668D01*
X94998Y714335D02*
Y707671D01*
X93332D01*
X86668Y714335D01*
X85002D01*
X355002Y520829D02*
X364998D01*
Y515831D01*
X363332Y514165D01*
X360000D01*
X358334Y515831D01*
Y520829D01*
Y517497D02*
X355002Y514165D01*
Y505834D02*
X364998D01*
X360000Y510832D01*
Y504168D01*
X355002Y494171D02*
Y500835D01*
X361666Y494171D01*
X363332D01*
X364998Y495837D01*
Y499169D01*
X363332Y500835D01*
X340002Y515663D02*
X349998D01*
Y510664D01*
X348332Y508998D01*
X345000D01*
X343334Y510664D01*
Y515663D01*
Y512331D02*
X340002Y508998D01*
Y500668D02*
X349998D01*
X345000Y505666D01*
Y499002D01*
X340002Y495669D02*
Y492337D01*
Y494003D01*
X349998D01*
X348332Y495669D01*
X16002Y718329D02*
X25998D01*
Y713331D01*
X24332Y711665D01*
X21000D01*
X19334Y713331D01*
Y718329D01*
Y714997D02*
X16002Y711665D01*
X24332Y708332D02*
X25998Y706666D01*
Y703334D01*
X24332Y701668D01*
X22666D01*
X21000Y703334D01*
Y705000D01*
Y703334D01*
X19334Y701668D01*
X17668D01*
X16002Y703334D01*
Y706666D01*
X17668Y708332D01*
Y698335D02*
X16002Y696669D01*
Y693337D01*
X17668Y691671D01*
X24332D01*
X25998Y693337D01*
Y696669D01*
X24332Y698335D01*
X22666D01*
X21000Y696669D01*
Y691671D01*
X54002Y693329D02*
X63998D01*
Y688331D01*
X62332Y686665D01*
X59000D01*
X57334Y688331D01*
Y693329D01*
Y689997D02*
X54002Y686665D01*
X62332Y683332D02*
X63998Y681666D01*
Y678334D01*
X62332Y676668D01*
X60666D01*
X59000Y678334D01*
Y680000D01*
Y678334D01*
X57334Y676668D01*
X55668D01*
X54002Y678334D01*
Y681666D01*
X55668Y683332D01*
X62332Y673335D02*
X63998Y671669D01*
Y668337D01*
X62332Y666671D01*
X60666D01*
X59000Y668337D01*
X57334Y666671D01*
X55668D01*
X54002Y668337D01*
Y671669D01*
X55668Y673335D01*
X57334D01*
X59000Y671669D01*
X60666Y673335D01*
X62332D01*
X59000Y671669D02*
Y668337D01*
X91002Y762329D02*
X100998D01*
Y757331D01*
X99332Y755665D01*
X96000D01*
X94334Y757331D01*
Y762329D01*
Y758997D02*
X91002Y755665D01*
X99332Y752332D02*
X100998Y750666D01*
Y747334D01*
X99332Y745668D01*
X97666D01*
X96000Y747334D01*
Y749000D01*
Y747334D01*
X94334Y745668D01*
X92668D01*
X91002Y747334D01*
Y750666D01*
X92668Y752332D01*
X100998Y742335D02*
Y735671D01*
X99332D01*
X92668Y742335D01*
X91002D01*
X267671Y160002D02*
Y169998D01*
X272669D01*
X274335Y168332D01*
Y165000D01*
X272669Y163334D01*
X267671D01*
X271003D02*
X274335Y160002D01*
X277668Y168332D02*
X279334Y169998D01*
X282666D01*
X284332Y168332D01*
Y166666D01*
X282666Y165000D01*
X281000D01*
X282666D01*
X284332Y163334D01*
Y161668D01*
X282666Y160002D01*
X279334D01*
X277668Y161668D01*
X287665Y168332D02*
X289331Y169998D01*
X292663D01*
X294329Y168332D01*
Y166666D01*
X292663Y165000D01*
X290997D01*
X292663D01*
X294329Y163334D01*
Y161668D01*
X292663Y160002D01*
X289331D01*
X287665Y161668D01*
X508002Y105329D02*
X517998D01*
Y100331D01*
X516332Y98665D01*
X513000D01*
X511334Y100331D01*
Y105329D01*
Y101997D02*
X508002Y98665D01*
X516332Y95332D02*
X517998Y93666D01*
Y90334D01*
X516332Y88668D01*
X514666D01*
X513000Y90334D01*
Y92000D01*
Y90334D01*
X511334Y88668D01*
X509668D01*
X508002Y90334D01*
Y93666D01*
X509668Y95332D01*
X508002Y78671D02*
Y85335D01*
X514666Y78671D01*
X516332D01*
X517998Y80337D01*
Y83669D01*
X516332Y85335D01*
X357002Y436329D02*
X366998D01*
Y431331D01*
X365332Y429664D01*
X362000D01*
X360334Y431331D01*
Y436329D01*
Y432997D02*
X357002Y429664D01*
X365332Y426332D02*
X366998Y424666D01*
Y421334D01*
X365332Y419668D01*
X363666D01*
X362000Y421334D01*
Y423000D01*
Y421334D01*
X360334Y419668D01*
X358668D01*
X357002Y421334D01*
Y424666D01*
X358668Y426332D01*
X365332Y416335D02*
X366998Y414669D01*
Y411337D01*
X365332Y409671D01*
X358668D01*
X357002Y411337D01*
Y414669D01*
X358668Y416335D01*
X365332D01*
X362002Y344329D02*
X371998D01*
Y339331D01*
X370332Y337664D01*
X367000D01*
X365334Y339331D01*
Y344329D01*
Y340997D02*
X362002Y337664D01*
Y327668D02*
Y334332D01*
X368666Y327668D01*
X370332D01*
X371998Y329334D01*
Y332666D01*
X370332Y334332D01*
X363668Y324335D02*
X362002Y322669D01*
Y319337D01*
X363668Y317671D01*
X370332D01*
X371998Y319337D01*
Y322669D01*
X370332Y324335D01*
X368666D01*
X367000Y322669D01*
Y317671D01*
X325002Y341329D02*
X334998D01*
Y336331D01*
X333332Y334664D01*
X330000D01*
X328334Y336331D01*
Y341329D01*
Y337997D02*
X325002Y334664D01*
Y324668D02*
Y331332D01*
X331666Y324668D01*
X333332D01*
X334998Y326334D01*
Y329666D01*
X333332Y331332D01*
Y321335D02*
X334998Y319669D01*
Y316337D01*
X333332Y314671D01*
X331666D01*
X330000Y316337D01*
X328334Y314671D01*
X326668D01*
X325002Y316337D01*
Y319669D01*
X326668Y321335D01*
X328334D01*
X330000Y319669D01*
X331666Y321335D01*
X333332D01*
X330000Y319669D02*
Y316337D01*
X293671Y344002D02*
Y353998D01*
X298669D01*
X300336Y352332D01*
Y349000D01*
X298669Y347334D01*
X293671D01*
X297003D02*
X300336Y344002D01*
X310332D02*
X303668D01*
X310332Y350666D01*
Y352332D01*
X308666Y353998D01*
X305334D01*
X303668Y352332D01*
X313664Y353998D02*
X320329D01*
Y352332D01*
X313664Y345668D01*
Y344002D01*
X404002Y350329D02*
X413998D01*
Y345331D01*
X412332Y343665D01*
X409000D01*
X407334Y345331D01*
Y350329D01*
Y346997D02*
X404002Y343665D01*
Y333668D02*
Y340332D01*
X410666Y333668D01*
X412332D01*
X413998Y335334D01*
Y338666D01*
X412332Y340332D01*
X413998Y323671D02*
X412332Y327003D01*
X409000Y330336D01*
X405668D01*
X404002Y328669D01*
Y325337D01*
X405668Y323671D01*
X407334D01*
X409000Y325337D01*
Y330336D01*
X274671Y357002D02*
Y366998D01*
X279669D01*
X281336Y365332D01*
Y362000D01*
X279669Y360334D01*
X274671D01*
X278003D02*
X281336Y357002D01*
X291332D02*
X284668D01*
X291332Y363666D01*
Y365332D01*
X289666Y366998D01*
X286334D01*
X284668Y365332D01*
X301329Y366998D02*
X294664D01*
Y362000D01*
X297997Y363666D01*
X299663D01*
X301329Y362000D01*
Y358668D01*
X299663Y357002D01*
X296331D01*
X294664Y358668D01*
X585671Y495002D02*
Y504998D01*
X590669D01*
X592336Y503332D01*
Y500000D01*
X590669Y498334D01*
X585671D01*
X589003D02*
X592336Y495002D01*
X602332D02*
X595668D01*
X602332Y501666D01*
Y503332D01*
X600666Y504998D01*
X597334D01*
X595668Y503332D01*
X610663Y495002D02*
Y504998D01*
X605664Y500000D01*
X612329D01*
X78337Y438002D02*
Y447998D01*
X83336D01*
X85002Y446332D01*
Y443000D01*
X83336Y441334D01*
X78337D01*
X81669D02*
X85002Y438002D01*
X94998D02*
X88334D01*
X94998Y444666D01*
Y446332D01*
X93332Y447998D01*
X90000D01*
X88334Y446332D01*
X98331Y438002D02*
X101663D01*
X99997D01*
Y447998D01*
X98331Y446332D01*
X140504Y460002D02*
Y469998D01*
X145502D01*
X147169Y468332D01*
Y465000D01*
X145502Y463334D01*
X140504D01*
X143836D02*
X147169Y460002D01*
X150501D02*
X153833D01*
X152167D01*
Y469998D01*
X150501Y468332D01*
X158832D02*
X160498Y469998D01*
X163830D01*
X165496Y468332D01*
Y466666D01*
X163830Y465000D01*
X165496Y463334D01*
Y461668D01*
X163830Y460002D01*
X160498D01*
X158832Y461668D01*
Y463334D01*
X160498Y465000D01*
X158832Y466666D01*
Y468332D01*
X160498Y465000D02*
X163830D01*
X187504Y432002D02*
Y441998D01*
X192502D01*
X194168Y440332D01*
Y437000D01*
X192502Y435334D01*
X187504D01*
X190836D02*
X194168Y432002D01*
X197501D02*
X200833D01*
X199167D01*
Y441998D01*
X197501Y440332D01*
X212496Y441998D02*
X205832D01*
Y437000D01*
X209164Y438666D01*
X210830D01*
X212496Y437000D01*
Y433668D01*
X210830Y432002D01*
X207498D01*
X205832Y433668D01*
X196002Y496496D02*
X205998D01*
Y491497D01*
X204332Y489831D01*
X201000D01*
X199334Y491497D01*
Y496496D01*
Y493164D02*
X196002Y489831D01*
Y486499D02*
Y483167D01*
Y484833D01*
X205998D01*
X204332Y486499D01*
Y478168D02*
X205998Y476502D01*
Y473170D01*
X204332Y471504D01*
X202666D01*
X201000Y473170D01*
Y474836D01*
Y473170D01*
X199334Y471504D01*
X197668D01*
X196002Y473170D01*
Y476502D01*
X197668Y478168D01*
X390504Y191002D02*
Y200998D01*
X395502D01*
X397169Y199332D01*
Y196000D01*
X395502Y194334D01*
X390504D01*
X393836D02*
X397169Y191002D01*
X400501D02*
X403833D01*
X402167D01*
Y200998D01*
X400501Y199332D01*
X415496Y191002D02*
X408831D01*
X415496Y197666D01*
Y199332D01*
X413830Y200998D01*
X410498D01*
X408831Y199332D01*
X410170Y104002D02*
Y113998D01*
X415169D01*
X416835Y112332D01*
Y109000D01*
X415169Y107334D01*
X410170D01*
X413502D02*
X416835Y104002D01*
X420167D02*
X423499D01*
X421833D01*
Y113998D01*
X420167Y112332D01*
X428498Y104002D02*
X431830D01*
X430164D01*
Y113998D01*
X428498Y112332D01*
X552669Y46002D02*
Y55998D01*
X557668D01*
X559334Y54332D01*
Y51000D01*
X557668Y49334D01*
X552669D01*
X556002D02*
X559334Y46002D01*
X567664D02*
Y55998D01*
X562666Y51000D01*
X569331D01*
X258002Y273331D02*
X267998D01*
Y268332D01*
X266332Y266666D01*
X263000D01*
X261334Y268332D01*
Y273331D01*
Y269998D02*
X258002Y266666D01*
X266332Y263334D02*
X267998Y261668D01*
Y258335D01*
X266332Y256669D01*
X264666D01*
X263000Y258335D01*
Y260002D01*
Y258335D01*
X261334Y256669D01*
X259668D01*
X258002Y258335D01*
Y261668D01*
X259668Y263334D01*
X274334Y196668D02*
Y203332D01*
X272668Y204998D01*
X269335D01*
X267669Y203332D01*
Y196668D01*
X269335Y195002D01*
X272668D01*
X271002Y198334D02*
X274334Y195002D01*
X272668D02*
X274334Y196668D01*
X284331Y204998D02*
X277666D01*
Y200000D01*
X280998Y201666D01*
X282665D01*
X284331Y200000D01*
Y196668D01*
X282665Y195002D01*
X279332D01*
X277666Y196668D01*
X75334Y411668D02*
Y418332D01*
X73668Y419998D01*
X70335D01*
X68669Y418332D01*
Y411668D01*
X70335Y410002D01*
X73668D01*
X72002Y413334D02*
X75334Y410002D01*
X73668D02*
X75334Y411668D01*
X85331Y410002D02*
X78666D01*
X85331Y416666D01*
Y418332D01*
X83665Y419998D01*
X80332D01*
X78666Y418332D01*
X80550Y465668D02*
Y472332D01*
X78884Y473998D01*
X75552D01*
X73885Y472332D01*
Y465668D01*
X75552Y464002D01*
X78884D01*
X77218Y467334D02*
X80550Y464002D01*
X78884D02*
X80550Y465668D01*
X83882Y464002D02*
X87214D01*
X85548D01*
Y473998D01*
X83882Y472332D01*
X599998Y561327D02*
X590002D01*
Y554663D01*
X599998Y544666D02*
Y551331D01*
X590002D01*
Y544666D01*
X595000Y551331D02*
Y547998D01*
X599998Y541334D02*
X590002D01*
Y536335D01*
X591668Y534669D01*
X598332D01*
X599998Y536335D01*
Y541334D01*
X590002Y524673D02*
Y531337D01*
X596666Y524673D01*
X598332D01*
X599998Y526339D01*
Y529671D01*
X598332Y531337D01*
X60998Y559661D02*
X51002D01*
Y552997D01*
X60998Y543000D02*
Y549664D01*
X51002D01*
Y543000D01*
X56000Y549664D02*
Y546332D01*
X60998Y539668D02*
X51002D01*
Y534669D01*
X52668Y533003D01*
X59332D01*
X60998Y534669D01*
Y539668D01*
X51002Y529671D02*
Y526339D01*
Y528005D01*
X60998D01*
X59332Y529671D01*
X485669Y299998D02*
Y290002D01*
X492334D01*
X495666Y298332D02*
X497332Y299998D01*
X500664D01*
X502331Y298332D01*
Y296666D01*
X500664Y295000D01*
X498998D01*
X500664D01*
X502331Y293334D01*
Y291668D01*
X500664Y290002D01*
X497332D01*
X495666Y291668D01*
X602669Y414998D02*
Y405002D01*
X609334D01*
X619331D02*
X612666D01*
X619331Y411666D01*
Y413332D01*
X617664Y414998D01*
X614332D01*
X612666Y413332D01*
X643998Y722664D02*
X634002D01*
Y716000D01*
Y712668D02*
Y709335D01*
Y711002D01*
X643998D01*
X642332Y712668D01*
X124669Y352998D02*
Y343002D01*
X129668D01*
X131334Y344668D01*
Y351332D01*
X129668Y352998D01*
X124669D01*
X141331D02*
X137998Y351332D01*
X134666Y348000D01*
Y344668D01*
X136332Y343002D01*
X139664D01*
X141331Y344668D01*
Y346334D01*
X139664Y348000D01*
X134666D01*
X188669Y349998D02*
Y340002D01*
X193668D01*
X195334Y341668D01*
Y348332D01*
X193668Y349998D01*
X188669D01*
X205331D02*
X198666D01*
Y345000D01*
X201998Y346666D01*
X203664D01*
X205331Y345000D01*
Y341668D01*
X203664Y340002D01*
X200332D01*
X198666Y341668D01*
X238669Y697998D02*
Y688002D01*
X243668D01*
X245334Y689668D01*
Y696332D01*
X243668Y697998D01*
X238669D01*
X248666Y696332D02*
X250332Y697998D01*
X253664D01*
X255331Y696332D01*
Y694666D01*
X253664Y693000D01*
X251998D01*
X253664D01*
X255331Y691334D01*
Y689668D01*
X253664Y688002D01*
X250332D01*
X248666Y689668D01*
X307669Y659998D02*
Y650002D01*
X312668D01*
X314334Y651668D01*
Y658332D01*
X312668Y659998D01*
X307669D01*
X324331Y650002D02*
X317666D01*
X324331Y656666D01*
Y658332D01*
X322664Y659998D01*
X319332D01*
X317666Y658332D01*
X357336Y90998D02*
Y81002D01*
X362334D01*
X364000Y82668D01*
Y89332D01*
X362334Y90998D01*
X357336D01*
X367332Y81002D02*
X370664D01*
X368998D01*
Y90998D01*
X367332Y89332D01*
X53332Y609664D02*
X54998Y611331D01*
Y614663D01*
X53332Y616329D01*
X46668D01*
X45002Y614663D01*
Y611331D01*
X46668Y609664D01*
X54998Y599668D02*
X53332Y603000D01*
X50000Y606332D01*
X46668D01*
X45002Y604666D01*
Y601334D01*
X46668Y599668D01*
X48334D01*
X50000Y601334D01*
Y606332D01*
X54998Y596335D02*
Y589671D01*
X53332D01*
X46668Y596335D01*
X45002D01*
X154332Y387665D02*
X155998Y389331D01*
Y392663D01*
X154332Y394329D01*
X147668D01*
X146002Y392663D01*
Y389331D01*
X147668Y387665D01*
X155998Y377668D02*
X154332Y381000D01*
X151000Y384332D01*
X147668D01*
X146002Y382666D01*
Y379334D01*
X147668Y377668D01*
X149334D01*
X151000Y379334D01*
Y384332D01*
X155998Y367671D02*
X154332Y371003D01*
X151000Y374336D01*
X147668D01*
X146002Y372669D01*
Y369337D01*
X147668Y367671D01*
X149334D01*
X151000Y369337D01*
Y374336D01*
X169335Y372332D02*
X167669Y373998D01*
X164337D01*
X162671Y372332D01*
Y365668D01*
X164337Y364002D01*
X167669D01*
X169335Y365668D01*
X179332Y373998D02*
X176000Y372332D01*
X172668Y369000D01*
Y365668D01*
X174334Y364002D01*
X177666D01*
X179332Y365668D01*
Y367334D01*
X177666Y369000D01*
X172668D01*
X189329Y373998D02*
X182665D01*
Y369000D01*
X185997Y370666D01*
X187663D01*
X189329Y369000D01*
Y365668D01*
X187663Y364002D01*
X184331D01*
X182665Y365668D01*
X248332Y267665D02*
X249998Y269331D01*
Y272663D01*
X248332Y274329D01*
X241668D01*
X240002Y272663D01*
Y269331D01*
X241668Y267665D01*
X249998Y257668D02*
X248332Y261000D01*
X245000Y264332D01*
X241668D01*
X240002Y262666D01*
Y259334D01*
X241668Y257668D01*
X243334D01*
X245000Y259334D01*
Y264332D01*
X240002Y247671D02*
Y254335D01*
X246666Y247671D01*
X248332D01*
X249998Y249337D01*
Y252669D01*
X248332Y254335D01*
X359336Y636332D02*
X357669Y637998D01*
X354337D01*
X352671Y636332D01*
Y629668D01*
X354337Y628002D01*
X357669D01*
X359336Y629668D01*
X369332Y637998D02*
X362668D01*
Y633000D01*
X366000Y634666D01*
X367666D01*
X369332Y633000D01*
Y629668D01*
X367666Y628002D01*
X364334D01*
X362668Y629668D01*
X372664D02*
X374331Y628002D01*
X377663D01*
X379329Y629668D01*
Y636332D01*
X377663Y637998D01*
X374331D01*
X372664Y636332D01*
Y634666D01*
X374331Y633000D01*
X379329D01*
X284335Y621332D02*
X282669Y622998D01*
X279337D01*
X277671Y621332D01*
Y614668D01*
X279337Y613002D01*
X282669D01*
X284335Y614668D01*
X294332Y622998D02*
X287668D01*
Y618000D01*
X291000Y619666D01*
X292666D01*
X294332Y618000D01*
Y614668D01*
X292666Y613002D01*
X289334D01*
X287668Y614668D01*
X304329Y622998D02*
X300997Y621332D01*
X297665Y618000D01*
Y614668D01*
X299331Y613002D01*
X302663D01*
X304329Y614668D01*
Y616334D01*
X302663Y618000D01*
X297665D01*
X284335Y585332D02*
X282669Y586998D01*
X279337D01*
X277671Y585332D01*
Y578668D01*
X279337Y577002D01*
X282669D01*
X284335Y578668D01*
X294332Y586998D02*
X287668D01*
Y582000D01*
X291000Y583666D01*
X292666D01*
X294332Y582000D01*
Y578668D01*
X292666Y577002D01*
X289334D01*
X287668Y578668D01*
X304329Y586998D02*
X297665D01*
Y582000D01*
X300997Y583666D01*
X302663D01*
X304329Y582000D01*
Y578668D01*
X302663Y577002D01*
X299331D01*
X297665Y578668D01*
X374332Y544664D02*
X375998Y546331D01*
Y549663D01*
X374332Y551329D01*
X367668D01*
X366002Y549663D01*
Y546331D01*
X367668Y544664D01*
X375998Y534668D02*
Y541332D01*
X371000D01*
X372666Y538000D01*
Y536334D01*
X371000Y534668D01*
X367668D01*
X366002Y536334D01*
Y539666D01*
X367668Y541332D01*
X366002Y526337D02*
X375998D01*
X371000Y531335D01*
Y524671D01*
X275336Y547332D02*
X273669Y548998D01*
X270337D01*
X268671Y547332D01*
Y540668D01*
X270337Y539002D01*
X273669D01*
X275336Y540668D01*
X285332Y548998D02*
X278668D01*
Y544000D01*
X282000Y545666D01*
X283666D01*
X285332Y544000D01*
Y540668D01*
X283666Y539002D01*
X280334D01*
X278668Y540668D01*
X288664Y547332D02*
X290331Y548998D01*
X293663D01*
X295329Y547332D01*
Y545666D01*
X293663Y544000D01*
X291997D01*
X293663D01*
X295329Y542334D01*
Y540668D01*
X293663Y539002D01*
X290331D01*
X288664Y540668D01*
X329332Y706665D02*
X330998Y708331D01*
Y711663D01*
X329332Y713329D01*
X322668D01*
X321002Y711663D01*
Y708331D01*
X322668Y706665D01*
X330998Y696668D02*
Y703332D01*
X326000D01*
X327666Y700000D01*
Y698334D01*
X326000Y696668D01*
X322668D01*
X321002Y698334D01*
Y701666D01*
X322668Y703332D01*
X321002Y686671D02*
Y693335D01*
X327666Y686671D01*
X329332D01*
X330998Y688337D01*
Y691669D01*
X329332Y693335D01*
X369002Y705332D02*
X367336Y706998D01*
X364003D01*
X362337Y705332D01*
Y698668D01*
X364003Y697002D01*
X367336D01*
X369002Y698668D01*
X378998Y706998D02*
X372334D01*
Y702000D01*
X375666Y703666D01*
X377332D01*
X378998Y702000D01*
Y698668D01*
X377332Y697002D01*
X374000D01*
X372334Y698668D01*
X382331Y697002D02*
X385663D01*
X383997D01*
Y706998D01*
X382331Y705332D01*
X367336Y690332D02*
X365669Y691998D01*
X362337D01*
X360671Y690332D01*
Y683668D01*
X362337Y682002D01*
X365669D01*
X367336Y683668D01*
X377332Y691998D02*
X370668D01*
Y687000D01*
X374000Y688666D01*
X375666D01*
X377332Y687000D01*
Y683668D01*
X375666Y682002D01*
X372334D01*
X370668Y683668D01*
X380664Y690332D02*
X382331Y691998D01*
X385663D01*
X387329Y690332D01*
Y683668D01*
X385663Y682002D01*
X382331D01*
X380664Y683668D01*
Y690332D01*
X299335Y679332D02*
X297669Y680998D01*
X294337D01*
X292671Y679332D01*
Y672668D01*
X294337Y671002D01*
X297669D01*
X299335Y672668D01*
X307666Y671002D02*
Y680998D01*
X302668Y676000D01*
X309332D01*
X312665Y672668D02*
X314331Y671002D01*
X317663D01*
X319329Y672668D01*
Y679332D01*
X317663Y680998D01*
X314331D01*
X312665Y679332D01*
Y677666D01*
X314331Y676000D01*
X319329D01*
X287335Y572332D02*
X285669Y573998D01*
X282337D01*
X280671Y572332D01*
Y565668D01*
X282337Y564002D01*
X285669D01*
X287335Y565668D01*
X295666Y564002D02*
Y573998D01*
X290668Y569000D01*
X297332D01*
X300665Y572332D02*
X302331Y573998D01*
X305663D01*
X307329Y572332D01*
Y570666D01*
X305663Y569000D01*
X307329Y567334D01*
Y565668D01*
X305663Y564002D01*
X302331D01*
X300665Y565668D01*
Y567334D01*
X302331Y569000D01*
X300665Y570666D01*
Y572332D01*
X302331Y569000D02*
X305663D01*
X137336Y720332D02*
X135669Y721998D01*
X132337D01*
X130671Y720332D01*
Y713668D01*
X132337Y712002D01*
X135669D01*
X137336Y713668D01*
X145666Y712002D02*
Y721998D01*
X140668Y717000D01*
X147332D01*
X157329Y721998D02*
X153997Y720332D01*
X150665Y717000D01*
Y713668D01*
X152331Y712002D01*
X155663D01*
X157329Y713668D01*
Y715334D01*
X155663Y717000D01*
X150665D01*
X389332Y449664D02*
X390998Y451331D01*
Y454663D01*
X389332Y456329D01*
X382668D01*
X381002Y454663D01*
Y451331D01*
X382668Y449664D01*
X381002Y441334D02*
X390998D01*
X386000Y446332D01*
Y439668D01*
X390998Y429671D02*
Y436335D01*
X386000D01*
X387666Y433003D01*
Y431337D01*
X386000Y429671D01*
X382668D01*
X381002Y431337D01*
Y434669D01*
X382668Y436335D01*
X319332Y334664D02*
X320998Y336331D01*
Y339663D01*
X319332Y341329D01*
X312668D01*
X311002Y339663D01*
Y336331D01*
X312668Y334664D01*
X311002Y326334D02*
X320998D01*
X316000Y331332D01*
Y324668D01*
X311002Y316337D02*
X320998D01*
X316000Y321335D01*
Y314671D01*
X422332Y433665D02*
X423998Y435331D01*
Y438663D01*
X422332Y440329D01*
X415668D01*
X414002Y438663D01*
Y435331D01*
X415668Y433665D01*
X414002Y425334D02*
X423998D01*
X419000Y430332D01*
Y423668D01*
X422332Y420336D02*
X423998Y418669D01*
Y415337D01*
X422332Y413671D01*
X420666D01*
X419000Y415337D01*
Y417003D01*
Y415337D01*
X417334Y413671D01*
X415668D01*
X414002Y415337D01*
Y418669D01*
X415668Y420336D01*
X395332Y323665D02*
X396998Y325331D01*
Y328663D01*
X395332Y330329D01*
X388668D01*
X387002Y328663D01*
Y325331D01*
X388668Y323665D01*
X387002Y315334D02*
X396998D01*
X392000Y320332D01*
Y313668D01*
X387002Y303671D02*
Y310336D01*
X393666Y303671D01*
X395332D01*
X396998Y305337D01*
Y308669D01*
X395332Y310336D01*
X541002Y490332D02*
X539336Y491998D01*
X536003D01*
X534337Y490332D01*
Y483668D01*
X536003Y482002D01*
X539336D01*
X541002Y483668D01*
X549332Y482002D02*
Y491998D01*
X544334Y487000D01*
X550998D01*
X554331Y482002D02*
X557663D01*
X555997D01*
Y491998D01*
X554331Y490332D01*
X251332Y364664D02*
X252998Y366331D01*
Y369663D01*
X251332Y371329D01*
X244668D01*
X243002Y369663D01*
Y366331D01*
X244668Y364664D01*
X243002Y356334D02*
X252998D01*
X248000Y361332D01*
Y354668D01*
X251332Y351335D02*
X252998Y349669D01*
Y346337D01*
X251332Y344671D01*
X244668D01*
X243002Y346337D01*
Y349669D01*
X244668Y351335D01*
X251332D01*
X269332Y431665D02*
X270998Y433331D01*
Y436663D01*
X269332Y438329D01*
X262668D01*
X261002Y436663D01*
Y433331D01*
X262668Y431665D01*
X269332Y428332D02*
X270998Y426666D01*
Y423334D01*
X269332Y421668D01*
X267666D01*
X266000Y423334D01*
Y425000D01*
Y423334D01*
X264334Y421668D01*
X262668D01*
X261002Y423334D01*
Y426666D01*
X262668Y428332D01*
Y418335D02*
X261002Y416669D01*
Y413337D01*
X262668Y411671D01*
X269332D01*
X270998Y413337D01*
Y416669D01*
X269332Y418335D01*
X267666D01*
X266000Y416669D01*
Y411671D01*
X293332Y429664D02*
X294998Y431331D01*
Y434663D01*
X293332Y436329D01*
X286668D01*
X285002Y434663D01*
Y431331D01*
X286668Y429664D01*
X293332Y426332D02*
X294998Y424666D01*
Y421334D01*
X293332Y419668D01*
X291666D01*
X290000Y421334D01*
Y423000D01*
Y421334D01*
X288334Y419668D01*
X286668D01*
X285002Y421334D01*
Y424666D01*
X286668Y426332D01*
X293332Y416335D02*
X294998Y414669D01*
Y411337D01*
X293332Y409671D01*
X291666D01*
X290000Y411337D01*
X288334Y409671D01*
X286668D01*
X285002Y411337D01*
Y414669D01*
X286668Y416335D01*
X288334D01*
X290000Y414669D01*
X291666Y416335D01*
X293332D01*
X290000Y414669D02*
Y411337D01*
X319332Y428665D02*
X320998Y430331D01*
Y433663D01*
X319332Y435329D01*
X312668D01*
X311002Y433663D01*
Y430331D01*
X312668Y428665D01*
X319332Y425332D02*
X320998Y423666D01*
Y420334D01*
X319332Y418668D01*
X317666D01*
X316000Y420334D01*
Y422000D01*
Y420334D01*
X314334Y418668D01*
X312668D01*
X311002Y420334D01*
Y423666D01*
X312668Y425332D01*
X320998Y415336D02*
Y408671D01*
X319332D01*
X312668Y415336D01*
X311002D01*
X336332Y428665D02*
X337998Y430331D01*
Y433663D01*
X336332Y435329D01*
X329668D01*
X328002Y433663D01*
Y430331D01*
X329668Y428665D01*
X336332Y425332D02*
X337998Y423666D01*
Y420334D01*
X336332Y418668D01*
X334666D01*
X333000Y420334D01*
Y422000D01*
Y420334D01*
X331334Y418668D01*
X329668D01*
X328002Y420334D01*
Y423666D01*
X329668Y425332D01*
X337998Y408671D02*
X336332Y412003D01*
X333000Y415335D01*
X329668D01*
X328002Y413669D01*
Y410337D01*
X329668Y408671D01*
X331334D01*
X333000Y410337D01*
Y415335D01*
X506332Y462664D02*
X507998Y464331D01*
Y467663D01*
X506332Y469329D01*
X499668D01*
X498002Y467663D01*
Y464331D01*
X499668Y462664D01*
X506332Y459332D02*
X507998Y457666D01*
Y454334D01*
X506332Y452668D01*
X504666D01*
X503000Y454334D01*
Y456000D01*
Y454334D01*
X501334Y452668D01*
X499668D01*
X498002Y454334D01*
Y457666D01*
X499668Y459332D01*
X507998Y442671D02*
Y449335D01*
X503000D01*
X504666Y446003D01*
Y444337D01*
X503000Y442671D01*
X499668D01*
X498002Y444337D01*
Y447669D01*
X499668Y449335D01*
X481332Y464664D02*
X482998Y466331D01*
Y469663D01*
X481332Y471329D01*
X474668D01*
X473002Y469663D01*
Y466331D01*
X474668Y464664D01*
X481332Y461332D02*
X482998Y459666D01*
Y456334D01*
X481332Y454668D01*
X479666D01*
X478000Y456334D01*
Y458000D01*
Y456334D01*
X476334Y454668D01*
X474668D01*
X473002Y456334D01*
Y459666D01*
X474668Y461332D01*
X473002Y446337D02*
X482998D01*
X478000Y451335D01*
Y444671D01*
X537336Y476332D02*
X535669Y477998D01*
X532337D01*
X530671Y476332D01*
Y469668D01*
X532337Y468002D01*
X535669D01*
X537336Y469668D01*
X540668Y476332D02*
X542334Y477998D01*
X545666D01*
X547332Y476332D01*
Y474666D01*
X545666Y473000D01*
X544000D01*
X545666D01*
X547332Y471334D01*
Y469668D01*
X545666Y468002D01*
X542334D01*
X540668Y469668D01*
X550664Y476332D02*
X552331Y477998D01*
X555663D01*
X557329Y476332D01*
Y474666D01*
X555663Y473000D01*
X553997D01*
X555663D01*
X557329Y471334D01*
Y469668D01*
X555663Y468002D01*
X552331D01*
X550664Y469668D01*
X534332Y437664D02*
X535998Y439331D01*
Y442663D01*
X534332Y444329D01*
X527668D01*
X526002Y442663D01*
Y439331D01*
X527668Y437664D01*
X534332Y434332D02*
X535998Y432666D01*
Y429334D01*
X534332Y427668D01*
X532666D01*
X531000Y429334D01*
Y431000D01*
Y429334D01*
X529334Y427668D01*
X527668D01*
X526002Y429334D01*
Y432666D01*
X527668Y434332D01*
X526002Y417671D02*
Y424335D01*
X532666Y417671D01*
X534332D01*
X535998Y419337D01*
Y422669D01*
X534332Y424335D01*
X629332Y457998D02*
X630998Y459664D01*
Y462997D01*
X629332Y464663D01*
X622668D01*
X621002Y462997D01*
Y459664D01*
X622668Y457998D01*
X629332Y454666D02*
X630998Y453000D01*
Y449668D01*
X629332Y448002D01*
X627666D01*
X626000Y449668D01*
Y451334D01*
Y449668D01*
X624334Y448002D01*
X622668D01*
X621002Y449668D01*
Y453000D01*
X622668Y454666D01*
X621002Y444669D02*
Y441337D01*
Y443003D01*
X630998D01*
X629332Y444669D01*
X422336Y402332D02*
X420669Y403998D01*
X417337D01*
X415671Y402332D01*
Y395668D01*
X417337Y394002D01*
X420669D01*
X422336Y395668D01*
X425668Y402332D02*
X427334Y403998D01*
X430666D01*
X432332Y402332D01*
Y400666D01*
X430666Y399000D01*
X429000D01*
X430666D01*
X432332Y397334D01*
Y395668D01*
X430666Y394002D01*
X427334D01*
X425668Y395668D01*
X435664Y402332D02*
X437331Y403998D01*
X440663D01*
X442329Y402332D01*
Y395668D01*
X440663Y394002D01*
X437331D01*
X435664Y395668D01*
Y402332D01*
X182332Y416665D02*
X183998Y418331D01*
Y421663D01*
X182332Y423329D01*
X175668D01*
X174002Y421663D01*
Y418331D01*
X175668Y416665D01*
X174002Y406668D02*
Y413332D01*
X180666Y406668D01*
X182332D01*
X183998Y408334D01*
Y411666D01*
X182332Y413332D01*
X175668Y403335D02*
X174002Y401669D01*
Y398337D01*
X175668Y396671D01*
X182332D01*
X183998Y398337D01*
Y401669D01*
X182332Y403335D01*
X180666D01*
X179000Y401669D01*
Y396671D01*
X201336Y465332D02*
X199669Y466998D01*
X196337D01*
X194671Y465332D01*
Y458668D01*
X196337Y457002D01*
X199669D01*
X201336Y458668D01*
X211332Y457002D02*
X204668D01*
X211332Y463666D01*
Y465332D01*
X209666Y466998D01*
X206334D01*
X204668Y465332D01*
X214664D02*
X216331Y466998D01*
X219663D01*
X221329Y465332D01*
Y463666D01*
X219663Y462000D01*
X221329Y460334D01*
Y458668D01*
X219663Y457002D01*
X216331D01*
X214664Y458668D01*
Y460334D01*
X216331Y462000D01*
X214664Y463666D01*
Y465332D01*
X216331Y462000D02*
X219663D01*
X510336Y643332D02*
X508669Y644998D01*
X505337D01*
X503671Y643332D01*
Y636668D01*
X505337Y635002D01*
X508669D01*
X510336Y636668D01*
X520332Y635002D02*
X513668D01*
X520332Y641666D01*
Y643332D01*
X518666Y644998D01*
X515334D01*
X513668Y643332D01*
X530329Y644998D02*
X526997Y643332D01*
X523665Y640000D01*
Y636668D01*
X525331Y635002D01*
X528663D01*
X530329Y636668D01*
Y638334D01*
X528663Y640000D01*
X523665D01*
X504336Y621332D02*
X502669Y622998D01*
X499337D01*
X497671Y621332D01*
Y614668D01*
X499337Y613002D01*
X502669D01*
X504336Y614668D01*
X514332Y613002D02*
X507668D01*
X514332Y619666D01*
Y621332D01*
X512666Y622998D01*
X509334D01*
X507668Y621332D01*
X522663Y613002D02*
Y622998D01*
X517664Y618000D01*
X524329D01*
X497336Y727332D02*
X495669Y728998D01*
X492337D01*
X490671Y727332D01*
Y720668D01*
X492337Y719002D01*
X495669D01*
X497336Y720668D01*
X507332Y719002D02*
X500668D01*
X507332Y725666D01*
Y727332D01*
X505666Y728998D01*
X502334D01*
X500668Y727332D01*
X510664D02*
X512331Y728998D01*
X515663D01*
X517329Y727332D01*
Y725666D01*
X515663Y724000D01*
X513997D01*
X515663D01*
X517329Y722334D01*
Y720668D01*
X515663Y719002D01*
X512331D01*
X510664Y720668D01*
X582332Y665998D02*
X583998Y667664D01*
Y670997D01*
X582332Y672663D01*
X575668D01*
X574002Y670997D01*
Y667664D01*
X575668Y665998D01*
X574002Y656002D02*
Y662666D01*
X580666Y656002D01*
X582332D01*
X583998Y657668D01*
Y661000D01*
X582332Y662666D01*
X574002Y652669D02*
Y649337D01*
Y651003D01*
X583998D01*
X582332Y652669D01*
X608335Y640332D02*
X606669Y641998D01*
X603337D01*
X601671Y640332D01*
Y633668D01*
X603337Y632002D01*
X606669D01*
X608335Y633668D01*
X618332Y632002D02*
X611668D01*
X618332Y638666D01*
Y640332D01*
X616666Y641998D01*
X613334D01*
X611668Y640332D01*
X621665D02*
X623331Y641998D01*
X626663D01*
X628329Y640332D01*
Y633668D01*
X626663Y632002D01*
X623331D01*
X621665Y633668D01*
Y640332D01*
X609169Y625332D02*
X607502Y626998D01*
X604170D01*
X602504Y625332D01*
Y618668D01*
X604170Y617002D01*
X607502D01*
X609169Y618668D01*
X612501Y617002D02*
X615833D01*
X614167D01*
Y626998D01*
X612501Y625332D01*
X620831Y618668D02*
X622498Y617002D01*
X625830D01*
X627496Y618668D01*
Y625332D01*
X625830Y626998D01*
X622498D01*
X620831Y625332D01*
Y623666D01*
X622498Y622000D01*
X627496D01*
X609169Y607332D02*
X607502Y608998D01*
X604170D01*
X602504Y607332D01*
Y600668D01*
X604170Y599002D01*
X607502D01*
X609169Y600668D01*
X612501Y599002D02*
X615833D01*
X614167D01*
Y608998D01*
X612501Y607332D01*
X620831D02*
X622498Y608998D01*
X625830D01*
X627496Y607332D01*
Y605666D01*
X625830Y604000D01*
X627496Y602334D01*
Y600668D01*
X625830Y599002D01*
X622498D01*
X620831Y600668D01*
Y602334D01*
X622498Y604000D01*
X620831Y605666D01*
Y607332D01*
X622498Y604000D02*
X625830D01*
X581332Y699831D02*
X582998Y701498D01*
Y704830D01*
X581332Y706496D01*
X574668D01*
X573002Y704830D01*
Y701498D01*
X574668Y699831D01*
X573002Y696499D02*
Y693167D01*
Y694833D01*
X582998D01*
X581332Y696499D01*
X582998Y681504D02*
Y688168D01*
X578000D01*
X579666Y684836D01*
Y683170D01*
X578000Y681504D01*
X574668D01*
X573002Y683170D01*
Y686502D01*
X574668Y688168D01*
X609169Y740332D02*
X607502Y741998D01*
X604170D01*
X602504Y740332D01*
Y733668D01*
X604170Y732002D01*
X607502D01*
X609169Y733668D01*
X612501Y732002D02*
X615833D01*
X614167D01*
Y741998D01*
X612501Y740332D01*
X625830Y732002D02*
Y741998D01*
X620831Y737000D01*
X627496D01*
X609169Y722332D02*
X607502Y723998D01*
X604170D01*
X602504Y722332D01*
Y715668D01*
X604170Y714002D01*
X607502D01*
X609169Y715668D01*
X612501Y714002D02*
X615833D01*
X614167D01*
Y723998D01*
X612501Y722332D01*
X620831D02*
X622498Y723998D01*
X625830D01*
X627496Y722332D01*
Y720666D01*
X625830Y719000D01*
X624164D01*
X625830D01*
X627496Y717334D01*
Y715668D01*
X625830Y714002D01*
X622498D01*
X620831Y715668D01*
X579169Y769332D02*
X577502Y770998D01*
X574170D01*
X572504Y769332D01*
Y762668D01*
X574170Y761002D01*
X577502D01*
X579169Y762668D01*
X582501Y761002D02*
X585833D01*
X584167D01*
Y770998D01*
X582501Y769332D01*
X597496Y761002D02*
X590831D01*
X597496Y767666D01*
Y769332D01*
X595830Y770998D01*
X592498D01*
X590831Y769332D01*
X509169Y711332D02*
X507502Y712998D01*
X504170D01*
X502504Y711332D01*
Y704668D01*
X504170Y703002D01*
X507502D01*
X509169Y704668D01*
X512501Y703002D02*
X515833D01*
X514167D01*
Y712998D01*
X512501Y711332D01*
X520831D02*
X522498Y712998D01*
X525830D01*
X527496Y711332D01*
Y704668D01*
X525830Y703002D01*
X522498D01*
X520831Y704668D01*
Y711332D01*
X515021Y758645D02*
X513355Y760311D01*
X510023D01*
X508357Y758645D01*
Y751980D01*
X510023Y750314D01*
X513355D01*
X515021Y751980D01*
X518354Y760311D02*
X525018D01*
Y758645D01*
X518354Y751980D01*
Y750314D01*
X505334Y742332D02*
X503668Y743998D01*
X500336D01*
X498669Y742332D01*
Y735668D01*
X500336Y734002D01*
X503668D01*
X505334Y735668D01*
X515331Y743998D02*
X511998Y742332D01*
X508666Y739000D01*
Y735668D01*
X510332Y734002D01*
X513665D01*
X515331Y735668D01*
Y737334D01*
X513665Y739000D01*
X508666D01*
X337334Y139332D02*
X335668Y140998D01*
X332336D01*
X330669Y139332D01*
Y132668D01*
X332336Y131002D01*
X335668D01*
X337334Y132668D01*
X345664Y131002D02*
Y140998D01*
X340666Y136000D01*
X347331D01*
D15*
X61000Y610000D02*
X71000D01*
X542313Y618688D02*
Y628688D01*
X259000Y348000D02*
X273000D01*
X259000Y388000D02*
X273000D01*
X284000D02*
X298000D01*
X309000D02*
X323000D01*
X332000Y388000D02*
X342000D01*
X495436Y414000D02*
X509436D01*
X471436D02*
X485436D01*
X606000Y452500D02*
X616000D01*
X114000Y711000D02*
Y721000D01*
X545000Y751000D02*
Y761000D01*
X536312Y733688D02*
Y743688D01*
X581312Y635688D02*
Y645688D01*
Y617688D02*
Y627688D01*
Y599688D02*
Y609688D01*
X582313Y728688D02*
Y738688D01*
Y711687D02*
Y721687D01*
X582313Y745687D02*
Y755687D01*
X118000Y438000D02*
Y448000D01*
X208750Y63500D02*
X203418D01*
X200753Y66166D01*
X203418Y68832D01*
X208750D01*
X204751D01*
Y63500D01*
X195750Y68500D02*
X198416D01*
X197083D01*
Y76497D01*
X195750Y75164D01*
X236250Y326500D02*
X241582D01*
X244247Y323834D01*
X241582Y321168D01*
X236250D01*
X240249D01*
Y326500D01*
X249250Y321500D02*
X246584D01*
X247917D01*
Y313503D01*
X249250Y314835D01*
D16*
X114000Y647600D02*
Y650600D01*
X111000D02*
X114000D01*
X111100Y618500D02*
X114100D01*
Y621500D01*
D17*
X436000Y204000D02*
X441998D01*
X444997Y201001D01*
X441998Y198002D01*
X436000D01*
X440499D01*
Y204000D01*
X447000Y190000D02*
X449999D01*
X448499D01*
Y198998D01*
X447000Y197498D01*
D18*
X28364Y-255180D02*
Y-229788D01*
X41060D01*
X45292Y-234021D01*
Y-242484D01*
X41060Y-246716D01*
X28364D01*
X53756Y-255180D02*
Y-229788D01*
X66452D01*
X70684Y-234021D01*
Y-242484D01*
X66452Y-246716D01*
X53756D01*
X62220D02*
X70684Y-255180D01*
X79148Y-229788D02*
X87612D01*
X83380D01*
Y-255180D01*
X79148D01*
X87612D01*
X100308D02*
Y-229788D01*
X108772Y-238253D01*
X117235Y-229788D01*
Y-255180D01*
X125699D02*
Y-238253D01*
X134163Y-229788D01*
X142627Y-238253D01*
Y-255180D01*
Y-242484D01*
X125699D01*
X151091Y-255180D02*
Y-229788D01*
X163787D01*
X168019Y-234021D01*
Y-242484D01*
X163787Y-246716D01*
X151091D01*
X159555D02*
X168019Y-255180D01*
X176483Y-229788D02*
Y-234021D01*
X184947Y-242484D01*
X193411Y-234021D01*
Y-229788D01*
X184947Y-242484D02*
Y-255180D01*
X244195Y-234021D02*
X239963Y-229788D01*
X231499D01*
X227267Y-234021D01*
Y-238253D01*
X231499Y-242484D01*
X239963D01*
X244195Y-246716D01*
Y-250948D01*
X239963Y-255180D01*
X231499D01*
X227267Y-250948D01*
X252658Y-229788D02*
X261122D01*
X256890D01*
Y-255180D01*
X252658D01*
X261122D01*
X273818Y-229788D02*
Y-255180D01*
X286514D01*
X290746Y-250948D01*
Y-234021D01*
X286514Y-229788D01*
X273818D01*
X316138D02*
X299210D01*
Y-255180D01*
X316138D01*
X299210Y-242484D02*
X307674D01*
X366922Y-234021D02*
X362690Y-229788D01*
X354226D01*
X349994Y-234021D01*
Y-238253D01*
X354226Y-242484D01*
X362690D01*
X366922Y-246716D01*
Y-250948D01*
X362690Y-255180D01*
X354226D01*
X349994Y-250948D01*
X375385Y-229788D02*
X383849D01*
X379617D01*
Y-255180D01*
X375385D01*
X383849D01*
X396545Y-229788D02*
Y-255180D01*
X413473D01*
X421937Y-229788D02*
Y-255180D01*
Y-246716D01*
X438865Y-229788D01*
X426169Y-242484D01*
X438865Y-255180D01*
X489649Y-234021D02*
X485416Y-229788D01*
X476953D01*
X472721Y-234021D01*
Y-238253D01*
X476953Y-242484D01*
X485416D01*
X489649Y-246716D01*
Y-250948D01*
X485416Y-255180D01*
X476953D01*
X472721Y-250948D01*
X515040Y-234021D02*
X510808Y-229788D01*
X502344D01*
X498112Y-234021D01*
Y-250948D01*
X502344Y-255180D01*
X510808D01*
X515040Y-250948D01*
X523504Y-255180D02*
Y-229788D01*
X536200D01*
X540432Y-234021D01*
Y-242484D01*
X536200Y-246716D01*
X523504D01*
X531968D02*
X540432Y-255180D01*
X565824Y-229788D02*
X548896D01*
Y-255180D01*
X565824D01*
X548896Y-242484D02*
X557360D01*
X591216Y-229788D02*
X574288D01*
Y-255180D01*
X591216D01*
X574288Y-242484D02*
X582752D01*
X599680Y-255180D02*
Y-229788D01*
X616608Y-255180D01*
Y-229788D01*
X40860Y-78511D02*
X32396D01*
X28164Y-82743D01*
Y-99670D01*
X32396Y-103902D01*
X40860D01*
X45092Y-99670D01*
Y-82743D01*
X40860Y-78511D01*
X53556D02*
Y-103902D01*
X66252D01*
X70484Y-99670D01*
Y-82743D01*
X66252Y-78511D01*
X53556D01*
X78948D02*
X87412D01*
X83180D01*
Y-103902D01*
X78948D01*
X87412D01*
X117036Y-82743D02*
X112803Y-78511D01*
X104340D01*
X100108Y-82743D01*
Y-99670D01*
X104340Y-103902D01*
X112803D01*
X117036Y-99670D01*
X129731Y-108134D02*
X133963Y-103902D01*
Y-99670D01*
X129731D01*
Y-103902D01*
X133963D01*
X129731Y-108134D01*
X125499Y-112366D01*
X176283Y-78511D02*
X184747D01*
X180515D01*
Y-103902D01*
X176283D01*
X184747D01*
X197443D02*
Y-78511D01*
X214371Y-103902D01*
Y-78511D01*
X239762Y-82743D02*
X235530Y-78511D01*
X227067D01*
X222835Y-82743D01*
Y-99670D01*
X227067Y-103902D01*
X235530D01*
X239762Y-99670D01*
X248226Y-103902D02*
Y-99670D01*
X252458D01*
Y-103902D01*
X248226D01*
X42345Y-129868D02*
X38114Y-125636D01*
X29650D01*
X25418Y-129868D01*
Y-146796D01*
X29650Y-151028D01*
X38114D01*
X42345Y-146796D01*
Y-138332D01*
X33882D01*
X50809Y-125636D02*
Y-151028D01*
Y-138332D01*
X67737D01*
Y-125636D01*
Y-151028D01*
X76201Y-125636D02*
Y-151028D01*
X93129D01*
X126985D02*
Y-125636D01*
X143913Y-151028D01*
Y-125636D01*
X152377Y-151028D02*
Y-134100D01*
X160841Y-125636D01*
X169305Y-134100D01*
Y-151028D01*
Y-138332D01*
X152377D01*
X177768Y-151028D02*
Y-134100D01*
X186232Y-125636D01*
X194696Y-134100D01*
Y-151028D01*
Y-138332D01*
X177768D01*
X203160Y-125636D02*
X220088D01*
X211624D01*
Y-151028D01*
X241248Y-125636D02*
X232784D01*
X228552Y-129868D01*
Y-146796D01*
X232784Y-151028D01*
X241248D01*
X245480Y-146796D01*
Y-129868D01*
X241248Y-125636D01*
X270872Y-129868D02*
X266640Y-125636D01*
X258176D01*
X253944Y-129868D01*
Y-134100D01*
X258176Y-138332D01*
X266640D01*
X270872Y-142564D01*
Y-146796D01*
X266640Y-151028D01*
X258176D01*
X253944Y-146796D01*
X321655Y-129868D02*
X317423Y-125636D01*
X308959D01*
X304727Y-129868D01*
Y-134100D01*
X308959Y-138332D01*
X317423D01*
X321655Y-142564D01*
Y-146796D01*
X317423Y-151028D01*
X308959D01*
X304727Y-146796D01*
X334351Y-134100D02*
X342815D01*
X347047Y-138332D01*
Y-151028D01*
X334351D01*
X330119Y-146796D01*
X334351Y-142564D01*
X347047D01*
X355511Y-151028D02*
Y-134100D01*
X359743D01*
X363975Y-138332D01*
Y-151028D01*
Y-138332D01*
X368207Y-134100D01*
X372439Y-138332D01*
Y-151028D01*
X380903Y-159492D02*
Y-134100D01*
X393599D01*
X397831Y-138332D01*
Y-146796D01*
X393599Y-151028D01*
X380903D01*
X406295D02*
X414759D01*
X410527D01*
Y-125636D01*
X406295D01*
X440150Y-151028D02*
X431686D01*
X427454Y-146796D01*
Y-138332D01*
X431686Y-134100D01*
X440150D01*
X444382Y-138332D01*
Y-142564D01*
X427454D01*
X478238Y-151028D02*
Y-125636D01*
X490934D01*
X495166Y-129868D01*
Y-138332D01*
X490934Y-142564D01*
X478238D01*
X503630Y-134100D02*
Y-151028D01*
Y-142564D01*
X507862Y-138332D01*
X512094Y-134100D01*
X516326D01*
X541717Y-151028D02*
X533254D01*
X529022Y-146796D01*
Y-138332D01*
X533254Y-134100D01*
X541717D01*
X545950Y-138332D01*
Y-142564D01*
X529022D01*
X554413Y-159492D02*
Y-134100D01*
X567109D01*
X571341Y-138332D01*
Y-146796D01*
X567109Y-151028D01*
X554413D01*
X605197D02*
Y-125636D01*
X613661Y-134100D01*
X622125Y-125636D01*
Y-151028D01*
X634821Y-134100D02*
X643285D01*
X647517Y-138332D01*
Y-151028D01*
X634821D01*
X630589Y-146796D01*
X634821Y-142564D01*
X647517D01*
X655981Y-151028D02*
X664445D01*
X660213D01*
Y-134100D01*
X655981D01*
X677140Y-151028D02*
Y-134100D01*
X689836D01*
X694068Y-138332D01*
Y-151028D01*
X727924Y-125636D02*
Y-151028D01*
X740620D01*
X744852Y-146796D01*
Y-142564D01*
X740620Y-138332D01*
X727924D01*
X740620D01*
X744852Y-134100D01*
Y-129868D01*
X740620Y-125636D01*
X727924D01*
X757548Y-151028D02*
X766012D01*
X770244Y-146796D01*
Y-138332D01*
X766012Y-134100D01*
X757548D01*
X753316Y-138332D01*
Y-146796D01*
X757548Y-151028D01*
X782940Y-134100D02*
X791404D01*
X795636Y-138332D01*
Y-151028D01*
X782940D01*
X778708Y-146796D01*
X782940Y-142564D01*
X795636D01*
X804099Y-134100D02*
Y-151028D01*
Y-142564D01*
X808331Y-138332D01*
X812563Y-134100D01*
X816795D01*
X846419Y-125636D02*
Y-151028D01*
X833723D01*
X829491Y-146796D01*
Y-138332D01*
X833723Y-134100D01*
X846419D01*
X42732Y-203110D02*
X25804D01*
X42732Y-186182D01*
Y-181950D01*
X38500Y-177719D01*
X30036D01*
X25804Y-181950D01*
X68124Y-177719D02*
X59660Y-181950D01*
X51196Y-190415D01*
Y-198878D01*
X55428Y-203110D01*
X63892D01*
X68124Y-198878D01*
Y-194646D01*
X63892Y-190415D01*
X51196D01*
X76588Y-181950D02*
X80820Y-177719D01*
X89284D01*
X93516Y-181950D01*
Y-186182D01*
X89284Y-190415D01*
X85052D01*
X89284D01*
X93516Y-194646D01*
Y-198878D01*
X89284Y-203110D01*
X80820D01*
X76588Y-198878D01*
X101980Y-190415D02*
X118907D01*
X127371Y-181950D02*
X131603Y-177719D01*
X140067D01*
X144299Y-181950D01*
Y-198878D01*
X140067Y-203110D01*
X131603D01*
X127371Y-198878D01*
Y-181950D01*
X152763D02*
X156995Y-177719D01*
X165459D01*
X169691Y-181950D01*
Y-186182D01*
X165459Y-190415D01*
X161227D01*
X165459D01*
X169691Y-194646D01*
Y-198878D01*
X165459Y-203110D01*
X156995D01*
X152763Y-198878D01*
X178155Y-190415D02*
X195083D01*
X203547Y-181950D02*
X207779Y-177719D01*
X216243D01*
X220475Y-181950D01*
Y-198878D01*
X216243Y-203110D01*
X207779D01*
X203547Y-198878D01*
Y-181950D01*
X228939D02*
X233171Y-177719D01*
X241634D01*
X245866Y-181950D01*
Y-198878D01*
X241634Y-203110D01*
X233171D01*
X228939Y-198878D01*
Y-181950D01*
X254330Y-203110D02*
X262794D01*
X258562D01*
Y-177719D01*
X254330Y-181950D01*
X326274Y-203110D02*
Y-177719D01*
X338970D01*
X343202Y-181950D01*
Y-190415D01*
X338970Y-194646D01*
X326274D01*
X334738D02*
X343202Y-203110D01*
X368593Y-177719D02*
X351666D01*
Y-203110D01*
X368593D01*
X351666Y-190415D02*
X360130D01*
X377057Y-177719D02*
Y-194646D01*
X385521Y-203110D01*
X393985Y-194646D01*
Y-177719D01*
X427841Y-203110D02*
Y-186182D01*
X436305Y-177719D01*
X444769Y-186182D01*
Y-203110D01*
Y-190415D01*
X427841D01*
M02*
