G04*
G04 #@! TF.GenerationSoftware,Altium Limited,Altium Designer,24.9.1 (31)*
G04*
G04 Layer_Color=128*
%FSLAX44Y44*%
%MOMM*%
G71*
G04*
G04 #@! TF.SameCoordinates,6C7A866E-41A3-4D12-9BD4-ECE58917465C*
G04*
G04*
G04 #@! TF.FilePolarity,Positive*
G04*
G01*
G75*
%ADD18C,0.2540*%
%ADD24R,0.6000X0.6000*%
%ADD25R,0.6000X0.6000*%
%ADD33R,1.0000X0.9500*%
%ADD45R,0.9500X1.0000*%
%ADD50R,1.4500X1.1500*%
%ADD149C,0.7620*%
%ADD150R,1.1500X1.4500*%
%ADD151R,0.3000X1.1000*%
%ADD153R,1.3000X1.4000*%
%ADD154R,0.4000X1.2000*%
%ADD155R,0.9500X1.4000*%
%ADD156R,0.4500X0.7000*%
%ADD157R,1.3000X1.0000*%
%ADD158R,1.4000X0.4000*%
%ADD159R,2.7000X6.2000*%
%ADD160R,2.0066X2.0066*%
%ADD161R,0.5080X0.5080*%
%ADD162R,0.5080X0.5080*%
%ADD163R,1.0000X1.8000*%
%ADD164R,1.6600X1.6600*%
G04:AMPARAMS|DCode=165|XSize=0.6mm|YSize=0.24mm|CornerRadius=0.06mm|HoleSize=0mm|Usage=FLASHONLY|Rotation=270.000|XOffset=0mm|YOffset=0mm|HoleType=Round|Shape=RoundedRectangle|*
%AMROUNDEDRECTD165*
21,1,0.6000,0.1200,0,0,270.0*
21,1,0.4800,0.2400,0,0,270.0*
1,1,0.1200,-0.0600,-0.2400*
1,1,0.1200,-0.0600,0.2400*
1,1,0.1200,0.0600,0.2400*
1,1,0.1200,0.0600,-0.2400*
%
%ADD165ROUNDEDRECTD165*%
G04:AMPARAMS|DCode=166|XSize=0.6mm|YSize=0.24mm|CornerRadius=0.06mm|HoleSize=0mm|Usage=FLASHONLY|Rotation=0.000|XOffset=0mm|YOffset=0mm|HoleType=Round|Shape=RoundedRectangle|*
%AMROUNDEDRECTD166*
21,1,0.6000,0.1200,0,0,0.0*
21,1,0.4800,0.2400,0,0,0.0*
1,1,0.1200,0.2400,-0.0600*
1,1,0.1200,-0.2400,-0.0600*
1,1,0.1200,-0.2400,0.0600*
1,1,0.1200,0.2400,0.0600*
%
%ADD166ROUNDEDRECTD166*%
%ADD167R,0.2000X0.5500*%
%ADD168R,0.4000X0.5500*%
%ADD169R,2.0000X2.2000*%
%ADD170R,0.2500X1.3000*%
G36*
X469440Y102440D02*
Y117560D01*
X484560D01*
Y102440D01*
X469440D01*
D02*
G37*
D18*
X43345Y-233332D02*
X39114Y-229100D01*
X30650D01*
X26418Y-233332D01*
Y-237564D01*
X30650Y-241796D01*
X39114D01*
X43345Y-246028D01*
Y-250260D01*
X39114Y-254492D01*
X30650D01*
X26418Y-250260D01*
X68737Y-229100D02*
X51810D01*
Y-254492D01*
X68737D01*
X51810Y-241796D02*
X60273D01*
X94129Y-233332D02*
X89897Y-229100D01*
X81433D01*
X77201Y-233332D01*
Y-250260D01*
X81433Y-254492D01*
X89897D01*
X94129Y-250260D01*
X115289Y-229100D02*
X106825D01*
X102593Y-233332D01*
Y-250260D01*
X106825Y-254492D01*
X115289D01*
X119521Y-250260D01*
Y-233332D01*
X115289Y-229100D01*
X127985Y-254492D02*
Y-229100D01*
X144913Y-254492D01*
Y-229100D01*
X153377D02*
Y-254492D01*
X166073D01*
X170305Y-250260D01*
Y-233332D01*
X166073Y-229100D01*
X153377D01*
X178769Y-254492D02*
Y-237564D01*
X187232Y-229100D01*
X195696Y-237564D01*
Y-254492D01*
Y-241796D01*
X178769D01*
X204160Y-254492D02*
Y-229100D01*
X216856D01*
X221088Y-233332D01*
Y-241796D01*
X216856Y-246028D01*
X204160D01*
X212624D02*
X221088Y-254492D01*
X229552Y-229100D02*
Y-233332D01*
X238016Y-241796D01*
X246480Y-233332D01*
Y-229100D01*
X238016Y-241796D02*
Y-254492D01*
X297264Y-233332D02*
X293032Y-229100D01*
X284568D01*
X280336Y-233332D01*
Y-237564D01*
X284568Y-241796D01*
X293032D01*
X297264Y-246028D01*
Y-250260D01*
X293032Y-254492D01*
X284568D01*
X280336Y-250260D01*
X305727Y-229100D02*
X314191D01*
X309959D01*
Y-254492D01*
X305727D01*
X314191D01*
X326887Y-229100D02*
Y-254492D01*
X339583D01*
X343815Y-250260D01*
Y-233332D01*
X339583Y-229100D01*
X326887D01*
X369207D02*
X352279D01*
Y-254492D01*
X369207D01*
X352279Y-241796D02*
X360743D01*
X419991Y-233332D02*
X415759Y-229100D01*
X407295D01*
X403063Y-233332D01*
Y-237564D01*
X407295Y-241796D01*
X415759D01*
X419991Y-246028D01*
Y-250260D01*
X415759Y-254492D01*
X407295D01*
X403063Y-250260D01*
X441150Y-229100D02*
X432686D01*
X428454Y-233332D01*
Y-250260D01*
X432686Y-254492D01*
X441150D01*
X445382Y-250260D01*
Y-233332D01*
X441150Y-229100D01*
X453846D02*
Y-254492D01*
X470774D01*
X479238Y-229100D02*
Y-254492D01*
X491934D01*
X496166Y-250260D01*
Y-233332D01*
X491934Y-229100D01*
X479238D01*
X521558D02*
X504630D01*
Y-254492D01*
X521558D01*
X504630Y-241796D02*
X513094D01*
X530022Y-254492D02*
Y-229100D01*
X542718D01*
X546950Y-233332D01*
Y-241796D01*
X542718Y-246028D01*
X530022D01*
X538486D02*
X546950Y-254492D01*
X580805D02*
Y-229100D01*
X593501D01*
X597733Y-233332D01*
Y-241796D01*
X593501Y-246028D01*
X580805D01*
X606197Y-254492D02*
Y-237564D01*
X614661Y-229100D01*
X623125Y-237564D01*
Y-254492D01*
Y-241796D01*
X606197D01*
X648517Y-233332D02*
X644285Y-229100D01*
X635821D01*
X631589Y-233332D01*
Y-237564D01*
X635821Y-241796D01*
X644285D01*
X648517Y-246028D01*
Y-250260D01*
X644285Y-254492D01*
X635821D01*
X631589Y-250260D01*
X656981Y-229100D02*
X673908D01*
X665444D01*
Y-254492D01*
X699300Y-229100D02*
X682372D01*
Y-254492D01*
X699300D01*
X682372Y-241796D02*
X690836D01*
X40860Y-78511D02*
X32396D01*
X28164Y-82743D01*
Y-99670D01*
X32396Y-103902D01*
X40860D01*
X45092Y-99670D01*
Y-82743D01*
X40860Y-78511D01*
X53556D02*
Y-103902D01*
X66252D01*
X70484Y-99670D01*
Y-82743D01*
X66252Y-78511D01*
X53556D01*
X78948D02*
X87412D01*
X83180D01*
Y-103902D01*
X78948D01*
X87412D01*
X117036Y-82743D02*
X112803Y-78511D01*
X104340D01*
X100108Y-82743D01*
Y-99670D01*
X104340Y-103902D01*
X112803D01*
X117036Y-99670D01*
X129731Y-108134D02*
X133963Y-103902D01*
Y-99670D01*
X129731D01*
Y-103902D01*
X133963D01*
X129731Y-108134D01*
X125499Y-112366D01*
X176283Y-78511D02*
X184747D01*
X180515D01*
Y-103902D01*
X176283D01*
X184747D01*
X197443D02*
Y-78511D01*
X214371Y-103902D01*
Y-78511D01*
X239762Y-82743D02*
X235530Y-78511D01*
X227067D01*
X222835Y-82743D01*
Y-99670D01*
X227067Y-103902D01*
X235530D01*
X239762Y-99670D01*
X248226Y-103902D02*
Y-99670D01*
X252458D01*
Y-103902D01*
X248226D01*
X42345Y-129868D02*
X38114Y-125636D01*
X29650D01*
X25418Y-129868D01*
Y-146796D01*
X29650Y-151028D01*
X38114D01*
X42345Y-146796D01*
Y-138332D01*
X33882D01*
X50809Y-125636D02*
Y-151028D01*
Y-138332D01*
X67737D01*
Y-125636D01*
Y-151028D01*
X76201Y-125636D02*
Y-151028D01*
X93129D01*
X126985D02*
Y-125636D01*
X143913Y-151028D01*
Y-125636D01*
X152377Y-151028D02*
Y-134100D01*
X160841Y-125636D01*
X169305Y-134100D01*
Y-151028D01*
Y-138332D01*
X152377D01*
X177768Y-151028D02*
Y-134100D01*
X186232Y-125636D01*
X194696Y-134100D01*
Y-151028D01*
Y-138332D01*
X177768D01*
X203160Y-125636D02*
X220088D01*
X211624D01*
Y-151028D01*
X241248Y-125636D02*
X232784D01*
X228552Y-129868D01*
Y-146796D01*
X232784Y-151028D01*
X241248D01*
X245480Y-146796D01*
Y-129868D01*
X241248Y-125636D01*
X270872Y-129868D02*
X266640Y-125636D01*
X258176D01*
X253944Y-129868D01*
Y-134100D01*
X258176Y-138332D01*
X266640D01*
X270872Y-142564D01*
Y-146796D01*
X266640Y-151028D01*
X258176D01*
X253944Y-146796D01*
X321655Y-129868D02*
X317423Y-125636D01*
X308959D01*
X304727Y-129868D01*
Y-134100D01*
X308959Y-138332D01*
X317423D01*
X321655Y-142564D01*
Y-146796D01*
X317423Y-151028D01*
X308959D01*
X304727Y-146796D01*
X334351Y-134100D02*
X342815D01*
X347047Y-138332D01*
Y-151028D01*
X334351D01*
X330119Y-146796D01*
X334351Y-142564D01*
X347047D01*
X355511Y-151028D02*
Y-134100D01*
X359743D01*
X363975Y-138332D01*
Y-151028D01*
Y-138332D01*
X368207Y-134100D01*
X372439Y-138332D01*
Y-151028D01*
X380903Y-159492D02*
Y-134100D01*
X393599D01*
X397831Y-138332D01*
Y-146796D01*
X393599Y-151028D01*
X380903D01*
X406295D02*
X414759D01*
X410527D01*
Y-125636D01*
X406295D01*
X440150Y-151028D02*
X431686D01*
X427454Y-146796D01*
Y-138332D01*
X431686Y-134100D01*
X440150D01*
X444382Y-138332D01*
Y-142564D01*
X427454D01*
X478238Y-151028D02*
Y-125636D01*
X490934D01*
X495166Y-129868D01*
Y-138332D01*
X490934Y-142564D01*
X478238D01*
X503630Y-134100D02*
Y-151028D01*
Y-142564D01*
X507862Y-138332D01*
X512094Y-134100D01*
X516326D01*
X541717Y-151028D02*
X533254D01*
X529022Y-146796D01*
Y-138332D01*
X533254Y-134100D01*
X541717D01*
X545950Y-138332D01*
Y-142564D01*
X529022D01*
X554413Y-159492D02*
Y-134100D01*
X567109D01*
X571341Y-138332D01*
Y-146796D01*
X567109Y-151028D01*
X554413D01*
X605197D02*
Y-125636D01*
X613661Y-134100D01*
X622125Y-125636D01*
Y-151028D01*
X634821Y-134100D02*
X643285D01*
X647517Y-138332D01*
Y-151028D01*
X634821D01*
X630589Y-146796D01*
X634821Y-142564D01*
X647517D01*
X655981Y-151028D02*
X664445D01*
X660213D01*
Y-134100D01*
X655981D01*
X677140Y-151028D02*
Y-134100D01*
X689836D01*
X694068Y-138332D01*
Y-151028D01*
X727924Y-125636D02*
Y-151028D01*
X740620D01*
X744852Y-146796D01*
Y-142564D01*
X740620Y-138332D01*
X727924D01*
X740620D01*
X744852Y-134100D01*
Y-129868D01*
X740620Y-125636D01*
X727924D01*
X757548Y-151028D02*
X766012D01*
X770244Y-146796D01*
Y-138332D01*
X766012Y-134100D01*
X757548D01*
X753316Y-138332D01*
Y-146796D01*
X757548Y-151028D01*
X782940Y-134100D02*
X791404D01*
X795636Y-138332D01*
Y-151028D01*
X782940D01*
X778708Y-146796D01*
X782940Y-142564D01*
X795636D01*
X804099Y-134100D02*
Y-151028D01*
Y-142564D01*
X808331Y-138332D01*
X812563Y-134100D01*
X816795D01*
X846419Y-125636D02*
Y-151028D01*
X833723D01*
X829491Y-146796D01*
Y-138332D01*
X833723Y-134100D01*
X846419D01*
X42732Y-203110D02*
X25804D01*
X42732Y-186182D01*
Y-181950D01*
X38500Y-177719D01*
X30036D01*
X25804Y-181950D01*
X68124Y-177719D02*
X59660Y-181950D01*
X51196Y-190415D01*
Y-198878D01*
X55428Y-203110D01*
X63892D01*
X68124Y-198878D01*
Y-194646D01*
X63892Y-190415D01*
X51196D01*
X76588Y-181950D02*
X80820Y-177719D01*
X89284D01*
X93516Y-181950D01*
Y-186182D01*
X89284Y-190415D01*
X85052D01*
X89284D01*
X93516Y-194646D01*
Y-198878D01*
X89284Y-203110D01*
X80820D01*
X76588Y-198878D01*
X101980Y-190415D02*
X118907D01*
X127371Y-181950D02*
X131603Y-177719D01*
X140067D01*
X144299Y-181950D01*
Y-198878D01*
X140067Y-203110D01*
X131603D01*
X127371Y-198878D01*
Y-181950D01*
X152763D02*
X156995Y-177719D01*
X165459D01*
X169691Y-181950D01*
Y-186182D01*
X165459Y-190415D01*
X161227D01*
X165459D01*
X169691Y-194646D01*
Y-198878D01*
X165459Y-203110D01*
X156995D01*
X152763Y-198878D01*
X178155Y-190415D02*
X195083D01*
X203547Y-181950D02*
X207779Y-177719D01*
X216243D01*
X220475Y-181950D01*
Y-198878D01*
X216243Y-203110D01*
X207779D01*
X203547Y-198878D01*
Y-181950D01*
X228939D02*
X233171Y-177719D01*
X241634D01*
X245866Y-181950D01*
Y-198878D01*
X241634Y-203110D01*
X233171D01*
X228939Y-198878D01*
Y-181950D01*
X254330Y-203110D02*
X262794D01*
X258562D01*
Y-177719D01*
X254330Y-181950D01*
X326274Y-203110D02*
Y-177719D01*
X338970D01*
X343202Y-181950D01*
Y-190415D01*
X338970Y-194646D01*
X326274D01*
X334738D02*
X343202Y-203110D01*
X368593Y-177719D02*
X351666D01*
Y-203110D01*
X368593D01*
X351666Y-190415D02*
X360130D01*
X377057Y-177719D02*
Y-194646D01*
X385521Y-203110D01*
X393985Y-194646D01*
Y-177719D01*
X427841Y-203110D02*
Y-186182D01*
X436305Y-177719D01*
X444769Y-186182D01*
Y-203110D01*
Y-190415D01*
X427841D01*
D24*
X125000Y522500D02*
D03*
X115000D02*
D03*
X119000Y536000D02*
D03*
X129000D02*
D03*
X150000Y507500D02*
D03*
X160000D02*
D03*
X472000Y141000D02*
D03*
X462000D02*
D03*
X90000Y604000D02*
D03*
X100000D02*
D03*
X90000Y620000D02*
D03*
X100000D02*
D03*
X508000Y135000D02*
D03*
X518000D02*
D03*
X499000Y628000D02*
D03*
X489000D02*
D03*
Y640000D02*
D03*
X499000D02*
D03*
X508000Y147000D02*
D03*
X518000D02*
D03*
X508000Y123000D02*
D03*
X518000D02*
D03*
X508000Y111000D02*
D03*
X518000D02*
D03*
X117000Y670000D02*
D03*
X107000D02*
D03*
X203000Y94000D02*
D03*
X213000D02*
D03*
X60000Y700000D02*
D03*
X50000D02*
D03*
X129000Y169000D02*
D03*
X139000D02*
D03*
X239000Y74000D02*
D03*
X229000D02*
D03*
X184000Y42000D02*
D03*
X194000D02*
D03*
X184000Y54000D02*
D03*
X194000D02*
D03*
X239000Y50000D02*
D03*
X229000D02*
D03*
X239000Y62000D02*
D03*
X229000D02*
D03*
X239000Y86000D02*
D03*
X229000D02*
D03*
X550312Y638688D02*
D03*
X540312D02*
D03*
X535312Y655688D02*
D03*
X545312D02*
D03*
X535312Y693688D02*
D03*
X545312D02*
D03*
D25*
X319000Y438000D02*
D03*
Y428000D02*
D03*
X306000Y438000D02*
D03*
Y428000D02*
D03*
X293000Y438000D02*
D03*
Y428000D02*
D03*
X445000Y172500D02*
D03*
Y162500D02*
D03*
X204000Y146000D02*
D03*
Y136000D02*
D03*
X515000Y617000D02*
D03*
Y607000D02*
D03*
X503000Y617000D02*
D03*
Y607000D02*
D03*
X489000Y651000D02*
D03*
Y661000D02*
D03*
Y672000D02*
D03*
Y682000D02*
D03*
X497000Y135000D02*
D03*
Y145000D02*
D03*
X191000Y136000D02*
D03*
Y146000D02*
D03*
X485000Y135000D02*
D03*
Y145000D02*
D03*
X325000Y537000D02*
D03*
Y527000D02*
D03*
X343000Y537000D02*
D03*
Y527000D02*
D03*
X293000Y518000D02*
D03*
Y528000D02*
D03*
X45000Y755000D02*
D03*
Y745000D02*
D03*
X166000Y146000D02*
D03*
Y156000D02*
D03*
X571000Y505725D02*
D03*
Y515725D02*
D03*
X422000Y193000D02*
D03*
Y183000D02*
D03*
D33*
X188000Y86000D02*
D03*
Y70000D02*
D03*
X578000Y119000D02*
D03*
Y135000D02*
D03*
X450000Y61000D02*
D03*
Y77000D02*
D03*
D45*
X537000Y756000D02*
D03*
X553000D02*
D03*
X441000Y112000D02*
D03*
X425000D02*
D03*
X544313Y738688D02*
D03*
X528313D02*
D03*
X550313Y623688D02*
D03*
X534313D02*
D03*
X573312Y604688D02*
D03*
X589313D02*
D03*
X573312Y622688D02*
D03*
X589313D02*
D03*
D50*
X429000Y60000D02*
D03*
Y78000D02*
D03*
X555000Y137000D02*
D03*
Y119000D02*
D03*
X405000Y78000D02*
D03*
Y60000D02*
D03*
D149*
X161000Y272000D02*
D03*
X443000Y142000D02*
D03*
X192000Y30000D02*
D03*
X178000Y299000D02*
D03*
X137500Y326250D02*
D03*
X148000Y288000D02*
D03*
X218000Y115000D02*
D03*
X202000Y122000D02*
D03*
X186000D02*
D03*
Y104000D02*
D03*
D150*
X371000Y618000D02*
D03*
X353000D02*
D03*
X371000Y643000D02*
D03*
X353000D02*
D03*
D151*
X323200Y707900D02*
D03*
X328200D02*
D03*
X353200D02*
D03*
X348200D02*
D03*
X343200D02*
D03*
X338200D02*
D03*
X333200D02*
D03*
X318200D02*
D03*
X313200D02*
D03*
X308200D02*
D03*
X303200D02*
D03*
X298200D02*
D03*
D153*
X114000Y344700D02*
D03*
D154*
X109500Y367700D02*
D03*
Y393700D02*
D03*
X224500D02*
D03*
Y367700D02*
D03*
D155*
X221750Y344700D02*
D03*
D156*
X135200Y350100D02*
D03*
X142200D02*
D03*
X149200D02*
D03*
X156200D02*
D03*
X201200D02*
D03*
X173200D02*
D03*
X180200D02*
D03*
X194200D02*
D03*
X187200D02*
D03*
D157*
X114000Y417300D02*
D03*
X220000D02*
D03*
D158*
X145900Y420300D02*
D03*
X188400D02*
D03*
D159*
X523000Y71000D02*
D03*
X569000D02*
D03*
D160*
X484000Y76066D02*
D03*
Y35934D02*
D03*
D161*
X148500Y76500D02*
D03*
Y87500D02*
D03*
Y98500D02*
D03*
X157500Y71000D02*
D03*
Y82000D02*
D03*
Y93000D02*
D03*
X148500Y54500D02*
D03*
Y65500D02*
D03*
X139500Y71000D02*
D03*
Y82000D02*
D03*
X157500Y49000D02*
D03*
Y60000D02*
D03*
Y104000D02*
D03*
Y115000D02*
D03*
X139500Y93000D02*
D03*
X148500Y109500D02*
D03*
X166500Y43500D02*
D03*
Y54500D02*
D03*
Y65500D02*
D03*
Y76500D02*
D03*
Y87500D02*
D03*
Y98500D02*
D03*
Y109500D02*
D03*
Y120500D02*
D03*
D162*
X69500Y65500D02*
D03*
Y98500D02*
D03*
X124500Y108000D02*
D03*
X113500D02*
D03*
X102500D02*
D03*
X91500D02*
D03*
X80500D02*
D03*
X141000Y117000D02*
D03*
X130000D02*
D03*
X119000D02*
D03*
X108000D02*
D03*
X97000D02*
D03*
X86000D02*
D03*
X75000D02*
D03*
X80500Y56000D02*
D03*
X91500D02*
D03*
X102500D02*
D03*
X113500D02*
D03*
X124500D02*
D03*
X75000Y47000D02*
D03*
X86000D02*
D03*
X97000D02*
D03*
X108000D02*
D03*
X119000D02*
D03*
X130000D02*
D03*
X141000D02*
D03*
X69500Y38000D02*
D03*
X80500D02*
D03*
X91500D02*
D03*
X102500D02*
D03*
X113500D02*
D03*
X124500D02*
D03*
X135500D02*
D03*
X146500D02*
D03*
X157500D02*
D03*
Y126000D02*
D03*
X146500D02*
D03*
X135500D02*
D03*
X124500D02*
D03*
X113500D02*
D03*
X102500D02*
D03*
X91500D02*
D03*
X80500D02*
D03*
X69500D02*
D03*
D163*
X127500Y152000D02*
D03*
X152500D02*
D03*
D164*
X477000Y110000D02*
D03*
D165*
X469500Y96000D02*
D03*
X474500D02*
D03*
X479500D02*
D03*
X484500D02*
D03*
Y124000D02*
D03*
X479500D02*
D03*
X474500D02*
D03*
X469500D02*
D03*
D166*
X491000Y102500D02*
D03*
Y107500D02*
D03*
Y112500D02*
D03*
Y117500D02*
D03*
X463000D02*
D03*
Y112500D02*
D03*
Y107500D02*
D03*
Y102500D02*
D03*
D167*
X323000Y673500D02*
D03*
X328000D02*
D03*
X338000D02*
D03*
X343000D02*
D03*
Y682000D02*
D03*
X338000D02*
D03*
X328000D02*
D03*
X323000D02*
D03*
D168*
X333000Y673500D02*
D03*
Y682000D02*
D03*
D169*
X258250Y242222D02*
D03*
X393250D02*
D03*
D170*
X373250Y209710D02*
D03*
X368250D02*
D03*
X363250D02*
D03*
X358250D02*
D03*
X353250D02*
D03*
X348250D02*
D03*
X343250D02*
D03*
X338250D02*
D03*
X333250D02*
D03*
X328250D02*
D03*
X323250D02*
D03*
X318250D02*
D03*
X313250D02*
D03*
X308250D02*
D03*
X303250D02*
D03*
X298250D02*
D03*
X293250D02*
D03*
X288250D02*
D03*
X283250D02*
D03*
X278250D02*
D03*
M02*
