M48
;Layer_Color=9474304
;FILE_FORMAT=4:4
METRIC,LZ
;TYPE=PLATED
T01F00S00C0.3048
T02F00S00C0.4000
T04F00S00C0.7000
T05F00S00C4.0000
;TYPE=NON_PLATED
T06F00S00C0.7500
T08F00S00C0.9906
T09F00S00C2.3749
T10F00S00C3.0480
T11F00S00C3.1750
T12F00S00C5.0800
%
T01
X-00098Y-00112
X-0008Y-00121
X-00069Y-00123
X-00051Y-00114
X00069Y-00156
Y-00165
X00079
Y-00156
X00089
Y-00165
X00099
Y-00156
Y-00175
Y-00185
X00089
Y-00175
X00079
Y-00185
X00069
Y-00175
X00132Y-00191
X00163Y-00177
Y-00167
Y-00156
Y-00146
Y-00136
Y-00127
X00133Y-00129
Y-0014
X00198951Y-00141805
Y-00149805
X00195Y-00159
X00213
X0023195Y-00159805
X00231Y-00186
X00218
X00205
X00244Y-00189
X0025695Y-00190805
X00263951
Y-00182805
X0025695
Y-00174805
X00263951
X0025695Y-00140805
X00248951
Y-00132805
X0025695
X0025695Y-00123805
X00248951
Y-00114805
X0025695
X00188951Y-00115805
X00198951Y-00132805
X00166Y-00089
X00158Y-000495
Y-000405
X00149Y-00046
Y-00055
X001715Y-00038
X00203246Y-00058
X00213246Y-00056869
X00223Y-00059
X00307Y-00035
X00315
X00323
X00331
X00339
X00347
X00355
X00363
X00371
X00381Y-00036
X0039Y-00041
Y-00048
X00401Y-00036
X00415Y-00038
X00416Y-00052
X00433Y-0006
X004355Y-000685
X00442Y-0008
X00398951Y-00079805
X00399Y-00088
X00388
X00387951Y-00079805
Y-00070805
X00398951
X00345Y-00069
X00332951Y-00068805
Y-00077805
Y-00086805
Y-00095805
X0033495Y-00114805
Y-00121805
X00327951
Y-00114805
Y-00128805
X0033495
X00327951Y-00144805
X0031795
Y-00154805
X00327951
X00322951Y-00149805
X0032995Y-00171805
X00351Y-00179
X00348951Y-00156805
X0038695Y-00142805
X0039495
Y-00133805
X0038695
Y-00124805
X0039495
X00415Y-00129
X00415005Y-00138536
Y-00145536
Y-00152536
X00299951Y-00165805
X0044Y-00035
X00449Y-00042
X00479Y-00034
X00484Y-00046
X00497Y-00073
Y-00082
X00513Y-00081
Y-00089
Y-00097
Y-00105
X005395Y-001105
X00539Y-00118
X00537Y-00128
X00538Y-00136
X00531Y-00146
X00523Y-00144
X00535Y-00153
Y-00172
X00527Y-00176
X00526Y-00168
X0051Y-00166
X00512Y-00155
X00508Y-00188
X00498
X00544Y-00196
X0055Y-00172519
X00565Y-00163
X005735Y-001545
X00574Y-00147
X00588Y-00145
X00583Y-00155
X00582Y-00178
X00574
X006235Y-001775
X00637Y-00177
X006455Y-001775
X00645Y-00156
X006455Y-001375
X00634Y-00146
X00623Y-00139
X00615Y-0013
Y-0012
Y-00112
X00623Y-00108
X00633Y-00109
X00645Y-00104
X006455Y-000765
X00635Y-00073
X00622Y-00075
X00597Y-00112
X00588
X00575Y-00109
Y-00101
X00582Y-00127
X00592Y-00133
X00602
X00613Y-00194
X0055Y-0008
X0054Y-00083
X00461Y-00102
X00481Y-00001
X00489
X00498Y0002
X00501Y00054
X0051Y00104
Y00113
Y00129
X00474
Y0012
X00465
X00471Y00104
X00478Y00143
X00462Y00165
Y00174
X00484Y00177
X00488Y00202
X004885Y002115
X004765Y0021
X00465Y00226
X00514Y00229
Y00238
X00513Y0018
Y00172
Y00164
X005975Y002245
X006065
Y002345
X005975
Y002445
X006065
X00446Y00271
Y00279
Y00287
Y00295
Y00303
X00436
Y00295
Y00287
Y00278
Y0027
X00426
Y00278
Y00287
Y00295
Y00303
X0041Y00309
Y00326
X00403
X00384Y00317
Y0031
X00385Y00347
X00366Y0035
X00364Y00333
X00345Y00336
Y00344
Y00352
X00335
Y00344
Y00336
X00317
X00316Y00346
X00269225Y0035595
X00237225Y0036395
X00226225Y0034995
X00217225
X00226Y00333
X00188
X00169Y00332
X00187Y00352
Y00364
X00139775Y0035905
X00113Y00264
X00178Y00257
X0019076Y00256761
X00206Y00234
X002Y00218
Y00206
X00206Y00211
X00212Y00206
Y00218
X0023Y00219
X00236Y00212
X0023Y00204
X00225Y00243
X0023Y00261
X0023Y00279
X00238
X00246
X00254
Y00288
X00246
X00238
X0023
X00222
Y00297
X0023
X00238
X00246Y00297
X00254
X00222Y00279
X00184Y00212
Y00204
X00191Y00194
X00162
X00168Y00184
X00166Y00147
X00155
X00145Y00156
X00159Y00224
X00156Y00071
X00166
X00176
X00206
X00214
X00223
X0024Y00052
X00239Y00017
X00247
Y00009
X00239
X00231
Y00017
X00222
X00214
Y00009
X00222
Y0
X00214
X00206
Y00009
Y00017
X00231Y0
X00239
X00247
X00315Y-00002
Y00005
Y00012
Y00019
X00323
Y00012
X0033
Y00019
X00323Y00005
Y-00002
Y-00009
X00322Y-00017
X00323Y-00027
X00315
X00307
X00331
X00339
X00347
X00355
X00363
X00371
X00428Y-00022
X00428464Y-00004464
X00447Y-00012
X00449113Y00064887
X00449Y00075
X00438Y00108
X00427Y0011
X00414Y00063
X00418Y00049
X0037532Y0008268
X00353Y00086
X00344Y00104
X00339Y00146
X0034Y00156
X00324995Y00170536
X00338Y00188
X00346
X00362Y00193
X0036Y00169
X00384Y00155
X00391
Y00147
X00384
X00324Y00139
X003Y00157
X00256
X0031Y00205
X00338Y00228
X00365Y00261
X00396Y00232
Y00225
X00404
Y00232
X0043Y00204
Y00196
Y00187
X00439
Y00196
Y00204
X00449Y00332
X00431Y00342
X00424Y00342
X00428Y00358
X00419
X0033Y00297
Y00288
X00325Y00052
X00145Y00071
X00134
X00121Y00066
Y00057
X0011
X00084Y00054
X0009Y00045
X0006Y00028
X00082277Y00001723
X001Y00002
X00106
X00112
X00118
X00124
Y-00005
X00118
X00112
X00106
X001
Y-00013
X00106
X00112
X00118
X00124
X00136Y00008
X00155Y00007
Y-00001
X00165
Y00007
X00157Y-00029
X00085Y-00028
X00059
X00053Y0024
X00046Y00234
X0013095Y00379775
X0014495Y00387775
X00143506Y00398064
X00139506Y00405064
X00138506Y00413064
X00128Y0041
X00171
Y00401
X0018
Y0041
X00209225Y0041195
X00216225
X00223225
X00224225Y0042095
X00224299Y00429876
X00224225Y0043895
X00240225Y0043395
X00240554Y0042495
X00245225Y0042895
X00250225Y0042495
X00255225Y0042895
X00260225Y0042495
Y0043395
X00250225
X00254225Y0044995
Y0045595
Y0046195
Y0046795
X00245225
Y0046195
Y0045595
Y0044995
X00238225
Y0045595
X00238193Y00462111
X00238225Y0046795
X00260225Y0046095
X00266225
X00272225
X00292Y00461
X00296Y00436
X00304
X00278225Y0043595
X00282Y00425
X00277225Y0041595
Y0040795
X00260225
X00253475
X00246975
X00240225
Y0041495
X00246975
X00253475
X00260225
Y0040095
X00253475
X00246975
X00240225
Y0039395
X00246975
X00253475
X00260225
X00269225Y0038395
X00258225Y0037495
X00249357Y00375817
X00240225Y0037495
X00234225Y0037895
X00217225
X00223661Y00395875
X00205225Y0042995
X00207975Y0046395
X00197225Y0047595
X00172506Y00465064
Y00456064
Y00446064
X00155506Y00454064
Y00434064
X00304Y00398
X00306Y00388
X00397Y00375
X00406
X00415
X00424
X00449Y00381
X00363Y00448
X0043Y0065
X00437
X00444
Y00657
Y00664
X00437
Y00657
X0043
Y00664
X00303Y00689
X00289Y00693
Y00703
X00451Y00664
Y00657
X00458
Y00664
Y0065
X00451
X005Y00694
X00515
X0053
X00545
X0056
X00575
X0059
Y00463
X00575
X0056
X00545
X0053
X00515
X005
X00485
Y00913
X005
X00515
X0053
X00545
X0056
X00575
X0059
X00491Y0093
X00436308Y00930223
Y00921224
Y00912224
Y00903223
Y00894223
X00432308Y00879224
Y00872224
X00425308
Y00841224
X00432308
Y00833224
X00436308Y00822224
X00444995Y00822536
X00427Y00797
X00413Y00803
X00406Y00809
X00396995Y00801536
X00394995Y00777536
Y00770536
X00386995
Y00777536
X00378995
Y00770536
X00365808Y00769536
X00365995Y00777536
X00357995
Y00770536
X00356995Y00785536
X00332995Y00786536
X0031Y00797
X00299
X00319Y0084
X00346995Y00833536
X00344308Y00855224
Y00862224
X00337995Y00872536
X00357308Y00882224
X00352995Y00897536
X00353308Y00910223
Y00919223
Y00928223
X00360995Y00932536
Y00941536
X00366995Y00946536
X00380995Y00947536
X00387995
X00394995
X00401995
X00408995Y00943536
X00397995Y00938536
X00381995Y00899536
X00391433Y00880349
X00378308Y00865224
Y00860224
X00372308
Y00865224
X00363308Y00861224
X00360308Y00854224
X00367308
X00363308Y00848224
X00372308
Y00843224
X00378308
Y00848224
X00348995Y00810536
X00402995Y00777536
Y00770536
X00291995Y00862936
X00293995Y00885936
X00288995Y00891936
X00280995
X00276Y00886
X0027Y00894
X00259995Y00893936
X00242995Y00884936
X00235995
X00228995
X00230995Y00868936
X00240995
X00239995Y00852936
X00231995
X00206Y00851
X00196
X00186Y00863
X00168Y00871
X00177Y00881
X00169Y00851
X00177Y00942
X00252Y00927
X00317
X00314995Y00893936
X00303Y00893
T02
X00256695Y00916936
X00260695Y00923936
X00268695
X00276695
X00272695Y00916936
X00280695
X00288695
X00296695
X00300695Y00923936
X00308695
X00312695Y00916936
X00292695Y00923936
T04
X004837Y-001455
Y-001305
Y-001155
Y-001005
Y-000855
Y-000705
X00293Y008315
X00278
T05
X-001063Y005763
X0019575Y00732
X0037575
X006778Y005763
T06
X00248695Y00910436
T08
X00348Y004226
X0035816Y004734
X0033784
X00177Y008926
X0018716Y009434
X0016684
T09
X001516Y008926
Y0092435
X002024
Y008926
T10
X005715Y0
X0
T11
X00666Y002313
X-000945
X00666Y009213
X-000945
T12
X0022075Y00577215
X0035075
M30
